<svg xmlns="http://www.w3.org/2000/svg">
<defs>
<font id="Halcyon Medium">
<font-face  font-family="Halcyon" units-per-em="1200" ascent="860" descent="-475" font-style="normal" font-weight="600" font-stretch="normal" cap-height="773" x-height="550" underline-position="-75" underline-thickness="50" />

<glyph glyph-name="NULL" d="" />
<glyph glyph-name="CR" unicode="&#xd;" horiz-adv-x="300" d="" />
<glyph glyph-name="space" unicode="&#x20;" horiz-adv-x="282" d="" />
<glyph glyph-name="exclam" unicode="&#x21;" horiz-adv-x="318" d="M193 229 L127 229 L110 584 L103 860 L216 860 L211 584 L193 229 Z M159 113 C195 113 220 87 220 48 C220 13 197 -17 159 -17 C122 -17 98 10 98 48 C98 88 122 113 159 113 L159 113 Z " />
<glyph glyph-name="quotedbl" unicode="&#x22;" horiz-adv-x="308" d="M112 619 L50 619 L30 860 L129 860 L112 619 Z M261 619 L198 619 L178 860 L277 860 L261 619 Z " />
<glyph glyph-name="numbersign" unicode="&#x23;" horiz-adv-x="681" d="M635 419 L635 499 L547 499 L590 680 L504 680 L461 499 L293 499 L336 680 L250 680 L207 499 L88 499 L88 420 L188 420 L150 256 L46 256 L46 177 L131 177 L89 0 L176 0 L218 177 L386 176 L344 0 L429 0 L471 176 L592 176 L592 256 L490 256 L528 419 L635 419 Z M404 256 L236 256 L275 420 L443 419 L404 256 Z " />
<glyph glyph-name="dollar" unicode="&#x24;" horiz-adv-x="593" d="M500 224 C500 401 212 362 212 471 C212 505 248 534 302 534 C347 534 397 513 423 480 L485 540 C444 584 394 605 340 611 L344 680 L270 680 L275 612 C179 602 115 548 115 468 C115 291 404 336 404 217 C404 175 360 147 301 147 C243 147 185 173 145 221 L87 158 C131 107 194 73 265 65 L260 0 L333 0 L329 65 C425 74 500 132 500 224 L500 224 Z " />
<glyph glyph-name="percent" unicode="&#x25;" horiz-adv-x="853" d="M269 -13 L196 28 L581 711 L654 670 L269 -13 Z M226 699 C321 699 392 637 392 542 C392 467 341 387 226 387 C131 387 61 447 61 542 C61 638 131 699 226 699 L226 699 Z M226 623 C178 623 152 586 152 542 C152 500 178 462 226 462 C274 462 301 500 301 542 C301 586 274 623 226 623 L226 623 Z M627 301 C722 301 792 239 792 145 C792 70 741 -11 627 -11 C531 -11 462 50 462 145 C462 240 531 301 627 301 L627 301 Z M627 226 C579 226 552 188 552 145 C552 102 579 65 627 65 C674 65 702 102 702 145 C702 188 675 226 627 226 L627 226 Z " />
<glyph glyph-name="ampersand" unicode="&#x26;" horiz-adv-x="723" d="M686 60 L572 183 C609 246 636 317 653 385 L552 412 C538 360 520 309 497 263 L342 431 C408 482 469 532 469 622 C468 707 395 793 284 793 C193 793 99 725 99 627 C99 548 142 494 195 436 C114 367 49 297 49 200 C49 79 149 -16 273 -16 C369 -16 448 29 509 97 L611 -13 L686 60 Z M284 705 C336 705 369 671 369 622 C369 568 319 530 277 501 C253 529 201 567 201 625 C201 675 236 705 284 705 L284 705 Z M282 89 C209 89 160 144 160 200 C159 263 212 321 261 365 L439 172 C397 121 344 89 282 89 L282 89 Z " />
<glyph glyph-name="quotesingle" unicode="&#x27;" horiz-adv-x="158" d="M112 619 L50 619 L30 860 L129 860 L112 619 Z " />
<glyph glyph-name="parenleft" unicode="&#x28;" horiz-adv-x="380" d="M328 819 C219 699 163 521 163 339 C163 159 216 -14 325 -135 L260 -182 C133 -49 60 125 60 341 C60 554 133 732 263 866 L328 819 Z " />
<glyph glyph-name="parenright" unicode="&#x29;" horiz-adv-x="368" d="M47 819 L113 866 C243 732 316 554 316 341 C316 125 243 -49 115 -182 L51 -135 C160 -14 213 159 213 339 C213 521 157 699 47 819 L47 819 Z " />
<glyph glyph-name="asterisk" unicode="&#x2a;" horiz-adv-x="495" d="M103 476 L172 425 L248 543 L324 425 L392 476 L296 583 L425 621 L393 700 L279 642 L292 779 L204 779 L217 642 L103 700 L70 621 L199 583 L103 476 Z " />
<glyph glyph-name="plus" unicode="&#x2b;" horiz-adv-x="645" d="M564 363 L374 363 L374 555 L268 555 L268 363 L80 363 L80 263 L268 263 L268 61 L374 61 L374 263 L564 263 L564 363 Z " />
<glyph glyph-name="comma" unicode="&#x2c;" horiz-adv-x="256" d="M109 119 C150 119 179 89 179 33 C179 -31 149 -98 85 -150 C78 -143 61 -128 56 -122 C95 -86 122 -49 122 -14 C114 -16 109 -16 106 -16 C70 -16 43 12 43 53 C43 90 69 119 109 119 L109 119 Z " />
<glyph glyph-name="hyphen" unicode="&#x2d;" horiz-adv-x="490" d="M414 346 L414 250 L75 250 L75 346 L414 346 Z " />
<glyph glyph-name="period" unicode="&#x2e;" horiz-adv-x="278" d="M139 120 C176 120 202 92 202 52 C202 16 178 -16 139 -16 C101 -16 76 13 76 52 C76 93 100 120 139 120 L139 120 Z " />
<glyph glyph-name="slash" unicode="&#x2f;" horiz-adv-x="584" d="M170 -83 L58 -83 L409 747 L520 747 L170 -83 Z " />
<glyph glyph-name="zero" unicode="0" horiz-adv-x="730" d="M365 -14 C181 -14 75 144 75 342 C75 539 181 697 366 697 C548 697 656 543 656 342 C656 145 549 -14 365 -14 L365 -14 Z M366 601 C242 601 187 473 187 342 C187 217 237 83 365 83 C478 83 545 192 545 340 C545 467 494 601 366 601 L366 601 Z " />
<glyph glyph-name="one" unicode="1" horiz-adv-x="458" d="M262 680 L57 614 L90 521 L219 568 L219 0 L333 0 L333 680 L262 680 Z " />
<glyph glyph-name="two" unicode="2" horiz-adv-x="645" d="M235 98 L378 215 C463 284 553 372 553 490 C553 617 448 697 308 697 C198 697 112 647 65 568 L143 503 C171 555 227 601 301 601 C372 601 443 560 443 479 C443 404 386 350 304 282 L77 94 L77 0 L560 0 L560 105 L235 98 Z " />
<glyph glyph-name="three" unicode="3" horiz-adv-x="623" d="M322 403 L517 584 L517 680 L82 680 L82 574 L395 581 L175 394 L203 320 C229 324 261 328 289 328 C374 328 432 278 432 204 C432 134 378 78 289 78 C212 78 163 112 141 157 L63 95 C95 36 179 -14 289 -14 C468 -14 544 89 544 199 C544 310 460 396 322 403 L322 403 Z " />
<glyph glyph-name="four" unicode="4" horiz-adv-x="652" d="M590 272 L501 272 L501 680 L398 680 L56 272 L78 173 L398 173 L398 0 L501 0 L501 173 L590 173 L590 272 Z M175 272 L398 540 L398 272 L175 272 Z " />
<glyph glyph-name="five" unicode="5" horiz-adv-x="628" d="M315 434 C276 434 242 427 212 417 L226 582 L508 574 L508 680 L135 680 L108 364 L193 312 C214 330 246 352 303 352 C399 352 444 292 444 215 C444 140 395 79 301 79 C227 79 169 115 134 174 L66 110 C106 42 185 -14 307 -14 C473 -14 554 91 554 215 C554 353 450 434 315 434 L315 434 Z " />
<glyph glyph-name="six" unicode="6" horiz-adv-x="665" d="M365 444 C283 444 225 411 185 368 C193 483 237 606 359 606 C429 606 481 569 500 553 L557 626 C519 660 446 698 354 698 C167 698 74 526 74 336 C74 160 146 -13 343 -13 C515 -13 588 102 588 219 C588 362 486 444 365 444 L365 444 Z M341 78 C252 78 198 144 186 274 C221 328 284 365 350 365 C426 365 477 303 477 220 C477 139 431 78 341 78 L341 78 Z " />
<glyph glyph-name="seven" unicode="7" horiz-adv-x="569" d="M51 680 L51 570 L406 579 L122 0 L244 0 L518 582 L518 680 L51 680 Z " />
<glyph glyph-name="eight" unicode="8" horiz-adv-x="650" d="M458 355 C523 388 562 444 562 510 C562 622 463 697 323 697 C183 697 86 622 86 508 C86 435 128 384 188 355 C117 325 66 269 66 186 C66 63 173 -14 325 -14 C497 -14 582 83 582 188 C582 269 530 325 458 355 L458 355 Z M323 610 C408 610 457 566 457 501 C457 440 407 393 323 393 C239 393 191 440 191 501 C191 566 239 610 323 610 L323 610 Z M323 82 C230 82 176 128 176 194 C176 257 229 307 323 307 C418 307 472 257 472 194 C472 128 417 82 323 82 L323 82 Z " />
<glyph glyph-name="nine" unicode="9" horiz-adv-x="658" d="M320 698 C148 698 74 583 74 466 C74 324 176 241 297 241 C380 241 437 274 477 316 C469 202 426 79 304 79 C234 79 182 116 162 132 L106 60 C143 26 217 -13 309 -13 C496 -13 588 159 588 349 C588 525 517 698 320 698 L320 698 Z M313 320 C234 320 183 383 183 466 C183 546 232 607 322 607 C412 607 465 541 476 410 C441 357 378 320 313 320 L313 320 Z " />
<glyph glyph-name="colon" unicode="&#x3a;" horiz-adv-x="274" d="M137 438 C174 438 200 411 200 371 C200 335 176 303 137 303 C99 303 74 332 74 371 C74 412 98 438 137 438 L137 438 Z M137 118 C173 118 200 90 200 51 C200 14 176 -17 137 -17 C99 -17 74 12 74 51 C74 91 98 118 137 118 L137 118 Z " />
<glyph glyph-name="semicolon" unicode="&#x3b;" horiz-adv-x="265" d="M110 438 C147 438 173 411 173 371 C173 335 149 303 110 303 C73 303 47 332 47 371 C47 412 72 438 110 438 L110 438 Z M114 119 C156 119 184 89 184 33 C184 -31 155 -98 90 -150 L61 -122 C101 -86 127 -49 127 -14 C119 -16 114 -16 111 -16 C75 -16 48 12 48 53 C48 90 75 119 114 119 L114 119 Z " />
<glyph glyph-name="less" unicode="&#x3c;" horiz-adv-x="539" d="M465 446 L423 537 L77 364 L77 250 L423 77 L464 168 L164 307 L465 446 Z " />
<glyph glyph-name="equal" unicode="&#x3d;" horiz-adv-x="601" d="M505 446 L505 355 L95 355 L95 447 L505 446 Z M505 256 L505 165 L95 165 L95 257 L505 256 Z " />
<glyph glyph-name="greater" unicode="&#x3e;" horiz-adv-x="539" d="M114 537 L73 446 L374 307 L73 168 L114 77 L461 250 L461 364 L114 537 Z " />
<glyph glyph-name="question" unicode="&#x3f;" horiz-adv-x="662" d="M333 870 C201 870 105 797 63 730 L149 671 C178 712 240 774 332 774 C426 774 491 707 491 617 C491 517 415 433 258 433 L280 236 L366 236 L378 355 C511 382 603 480 603 618 C603 756 501 870 333 870 L333 870 Z M321 128 C280 128 254 100 254 57 C254 15 281 -16 321 -16 C363 -16 389 17 389 57 C389 99 362 128 321 128 L321 128 Z " />
<glyph glyph-name="at" unicode="&#x40;" horiz-adv-x="833" d="M416 696 C211 696 66 555 66 341 C66 148 193 -16 416 -16 C491 -16 563 4 619 43 L585 97 C538 65 478 48 416 48 C250 48 129 157 129 341 C129 534 259 633 416 633 C583 633 703 523 703 341 C703 279 688 225 632 225 C602 225 582 248 582 276 L582 495 L544 495 L526 450 C500 493 454 520 391 520 C290 520 230 444 230 344 C230 242 293 169 391 169 C456 169 503 197 529 243 C543 190 589 163 636 163 C727 163 766 235 766 341 C766 548 626 696 416 696 L416 696 Z M409 230 C341 230 300 276 300 344 C300 412 341 459 409 459 C476 459 516 413 516 344 C516 276 476 230 409 230 L409 230 Z " />
<glyph glyph-name="A" unicode="A" horiz-adv-x="817" d="M667 0 L783 0 L471 773 L345 773 L33 0 L149 0 L224 191 L592 191 L667 0 Z M265 296 L408 659 L551 296 L265 296 Z " />
<glyph glyph-name="B" unicode="B" horiz-adv-x="753" d="M565 413 C596 429 642 484 642 570 C642 689 565 773 450 773 L102 773 L102 0 L481 0 C605 0 689 92 689 219 C689 309 638 386 565 413 L565 413 Z M439 672 C494 672 547 630 547 559 C547 494 507 447 449 447 L210 447 L210 672 L439 672 Z M465 101 L210 101 L210 352 L467 352 C535 352 589 302 589 226 C589 154 534 101 465 101 L465 101 Z " />
<glyph glyph-name="C" unicode="C" horiz-adv-x="806" d="M756 641 L667 577 C617 645 539 688 449 688 C282 688 176 562 176 386 C176 211 281 85 449 85 C539 85 617 127 666 195 L756 131 C685 35 573 -19 449 -19 C221 -19 66 150 66 386 C66 621 220 791 449 791 C574 791 687 737 756 641 L756 641 Z " />
<glyph glyph-name="D" unicode="D" horiz-adv-x="864" d="M446 773 L102 773 L102 0 L446 0 C657 0 799 170 799 389 C799 611 657 773 446 773 L446 773 Z M446 103 L212 103 L212 670 L446 670 C595 670 686 548 686 389 C686 231 593 103 446 103 L446 103 Z " />
<glyph glyph-name="E" unicode="E" horiz-adv-x="683" d="M610 672 L610 773 L102 773 L102 0 L610 0 L610 101 L209 101 L209 350 L508 350 L508 448 L209 449 L209 672 L610 672 Z " />
<glyph glyph-name="F" unicode="F" horiz-adv-x="674" d="M610 670 L610 773 L102 773 L102 0 L212 0 L212 335 L508 335 L508 435 L212 435 L212 670 L610 670 Z " />
<glyph glyph-name="G" unicode="G" horiz-adv-x="834" d="M743 400 L461 400 L461 297 L627 297 L627 174 C586 119 526 87 442 87 C276 87 176 214 176 389 C176 564 277 690 436 690 C530 690 614 646 661 576 L744 642 C676 738 565 793 438 793 C216 793 66 625 66 388 C66 151 217 -16 440 -16 C566 -16 674 38 743 135 L743 400 Z " />
<glyph glyph-name="H" unicode="H" horiz-adv-x="854" d="M640 773 L640 438 L212 438 L212 773 L102 773 L102 0 L212 0 L212 334 L640 334 L640 0 L750 0 L750 773 L640 773 Z " />
<glyph glyph-name="I" unicode="I" horiz-adv-x="313" d="M212 0 L102 0 L102 773 L212 773 L212 0 Z " />
<glyph glyph-name="J" unicode="J" horiz-adv-x="667" d="M48 105 L126 165 C165 112 215 81 280 81 C382 81 456 156 456 300 L456 773 L566 773 L566 290 C566 122 484 -17 288 -17 C179 -17 93 35 48 105 L48 105 Z " />
<glyph glyph-name="K" unicode="K" horiz-adv-x="733" d="M571 0 L713 0 L368 386 L692 772 L555 772 L282 438 L212 438 L212 772 L102 772 L102 0 L212 0 L212 334 L285 334 L571 0 Z " />
<glyph glyph-name="L" unicode="L" horiz-adv-x="662" d="M212 103 L212 773 L102 773 L102 0 L610 0 L610 103 L212 103 Z " />
<glyph glyph-name="M" unicode="M" horiz-adv-x="972" d="M896 0 L846 773 L711 773 L485 159 L259 773 L124 773 L74 0 L184 0 L223 589 L444 0 L526 0 L749 603 L788 0 L896 0 Z " />
<glyph glyph-name="N" unicode="N" horiz-adv-x="903" d="M693 773 L693 178 L207 773 L102 773 L102 0 L210 0 L210 595 L696 0 L801 0 L801 773 L693 773 Z " />
<glyph glyph-name="O" unicode="O" horiz-adv-x="884" d="M442 791 C668 791 817 625 817 387 C817 152 669 -18 442 -18 C216 -18 66 150 66 387 C66 621 214 791 442 791 L442 791 Z M442 689 C276 689 176 562 176 387 C176 212 275 85 442 85 C608 85 708 212 708 387 C708 563 605 689 442 689 L442 689 Z " />
<glyph glyph-name="P" unicode="P" horiz-adv-x="740" d="M371 772 L102 772 L102 0 L212 0 L212 244 L371 244 C571 244 680 343 680 508 C680 673 572 772 371 772 L371 772 Z M371 349 L212 349 L212 672 L371 672 C490 672 568 620 568 509 C568 401 493 349 371 349 L371 349 Z " />
<glyph glyph-name="Q" unicode="Q" horiz-adv-x="883" d="M817 387 C817 625 668 792 441 792 C213 792 66 622 66 387 C66 151 216 -18 441 -18 C513 -18 577 -1 631 29 L727 -73 L808 0 L716 97 C781 169 817 270 817 387 L817 387 Z M176 387 C176 562 275 689 441 689 C607 689 707 565 707 387 C707 212 610 86 441 86 C274 86 176 212 176 387 L176 387 Z " />
<glyph glyph-name="R" unicode="R" horiz-adv-x="741" d="M706 0 L525 294 C641 326 702 405 702 525 C702 679 610 773 399 773 L102 773 L102 0 L212 0 L212 278 L393 278 C402 278 412 278 420 279 L584 0 L706 0 Z M212 376 L212 673 L399 673 C518 673 590 632 590 524 C590 416 511 376 393 376 L212 376 Z " />
<glyph glyph-name="S" unicode="S" horiz-adv-x="716" d="M57 117 L138 188 C196 123 268 84 364 84 C463 84 538 127 538 205 C538 397 97 317 97 580 C97 715 213 793 370 793 C467 793 559 763 628 685 L551 619 C499 673 436 697 366 697 C272 697 212 652 212 587 C212 413 653 484 653 216 C653 68 520 -16 362 -16 C242 -16 126 34 57 117 L57 117 Z " />
<glyph glyph-name="T" unicode="T" horiz-adv-x="709" d="M668 773 L40 773 L40 670 L299 670 L299 0 L408 0 L408 670 L668 670 L668 773 Z " />
<glyph glyph-name="U" unicode="U" horiz-adv-x="843" d="M746 773 L746 343 C746 126 637 -18 422 -18 C204 -18 97 126 97 343 L97 773 L207 773 L207 353 C207 163 299 79 422 79 C542 79 636 161 636 353 L636 773 L746 773 Z " />
<glyph glyph-name="V" unicode="V" horiz-adv-x="776" d="M743 772 L618 772 L388 111 L157 772 L33 772 L322 0 L454 0 L743 772 Z " />
<glyph glyph-name="W" unicode="W" horiz-adv-x="1001" d="M840 773 L718 183 L544 740 L460 740 L275 182 L155 773 L40 773 L213 0 L321 0 L500 565 L669 0 L779 0 L961 773 L840 773 Z " />
<glyph glyph-name="X" unicode="X" horiz-adv-x="694" d="M32 0 L283 389 L32 773 L161 773 L345 485 L525 773 L653 773 L408 389 L665 0 L536 0 L347 289 L161 0 L32 0 Z " />
<glyph glyph-name="Y" unicode="Y" horiz-adv-x="713" d="M685 773 L561 773 L356 376 L151 773 L27 773 L298 290 L298 0 L412 0 L412 287 L685 773 Z " />
<glyph glyph-name="Z" unicode="Z" horiz-adv-x="766" d="M706 772 L65 772 L65 667 L544 673 L65 59 L65 0 L706 0 L706 105 L226 99 L706 714 L706 772 Z " />
<glyph glyph-name="bracketleft" unicode="&#x5b;" horiz-adv-x="376" d="M311 823 L311 737 L188 737 L188 -53 L311 -53 L311 -139 L93 -139 L93 823 L311 823 Z " />
<glyph glyph-name="backslash" unicode="&#x5c;" horiz-adv-x="580" d="M544 20 L443 -28 L25 867 L126 914 L544 20 Z " />
<glyph glyph-name="bracketright" unicode="&#x5d;" horiz-adv-x="376" d="M62 823 L280 823 L280 -139 L62 -139 L62 -53 L186 -53 L186 737 L62 737 L62 823 Z " />
<glyph glyph-name="asciicircum" unicode="&#x5e;" horiz-adv-x="608" d="M553 433 L360 773 L246 773 L53 433 L144 391 L303 696 L462 392 L553 433 Z " />
<glyph glyph-name="underscore" unicode="&#x5f;" horiz-adv-x="542" d="M509 -40 L509 -128 L32 -128 L32 -40 L509 -40 Z " />
<glyph glyph-name="grave" unicode="&#x60;" horiz-adv-x="477" d="M324 621 L346 665 L144 792 L107 704 L324 621 Z " />
<glyph glyph-name="a" unicode="a" horiz-adv-x="702" d="M505 550 L505 457 C466 524 401 566 310 566 C154 566 53 446 53 274 C53 103 153 -16 312 -16 C407 -16 469 28 505 91 L505 69 L522 0 L610 0 L610 550 L505 550 Z M333 83 C228 83 162 162 162 275 C162 388 228 467 333 467 C438 467 503 388 503 275 C503 161 437 83 333 83 L333 83 Z " />
<glyph glyph-name="b" unicode="b" horiz-adv-x="694" d="M382 566 C290 566 231 527 195 471 L195 860 L87 860 L87 0 L175 0 L195 79 L195 81 C233 21 295 -16 384 -16 C547 -16 641 108 641 276 C641 445 546 566 382 566 L382 566 Z M363 83 C255 83 195 162 195 275 C195 389 256 467 363 467 C471 467 532 388 532 275 C532 162 471 83 363 83 L363 83 Z " />
<glyph glyph-name="c" unicode="c" horiz-adv-x="616" d="M55 274 C55 449 171 566 343 566 C444 566 527 524 579 454 L500 400 C466 444 411 470 346 470 C232 470 162 388 162 274 C162 162 232 80 345 80 C412 80 467 108 499 150 L579 95 C531 28 450 -16 343 -16 C171 -16 55 99 55 274 L55 274 Z " />
<glyph glyph-name="d" unicode="d" horiz-adv-x="694" d="M499 860 L499 471 C463 528 404 566 312 566 C148 566 53 445 53 276 C53 108 147 -16 310 -16 C399 -16 461 21 499 82 L499 79 L519 0 L606 0 L606 860 L499 860 Z M331 83 C223 83 162 162 162 275 C162 388 223 467 331 467 C438 467 499 389 499 275 C499 162 439 83 331 83 L331 83 Z " />
<glyph glyph-name="e" unicode="e" horiz-adv-x="627" d="M53 276 C53 453 157 566 322 566 C502 566 589 447 565 238 L166 238 C176 141 233 75 334 75 C400 75 466 102 511 145 L564 71 C506 16 427 -16 334 -16 C162 -16 53 100 53 276 L53 276 Z M166 312 L469 312 C469 404 428 479 324 479 C220 479 166 403 166 312 L166 312 Z " />
<glyph glyph-name="f" unicode="f" horiz-adv-x="425" d="M400 750 L400 840 C259 895 100 847 100 629 L100 550 L38 550 L38 452 L100 452 L100 0 L207 0 L207 452 L387 452 L387 550 L207 550 L207 638 C207 778 303 787 400 750 L400 750 Z " />
<glyph glyph-name="g" unicode="g" horiz-adv-x="694" d="M519 550 L502 468 C464 528 402 566 310 566 C149 566 53 449 53 286 C53 126 146 7 312 7 C403 7 463 44 499 98 L499 17 C499 -127 421 -203 317 -203 C240 -203 183 -159 152 -118 L71 -178 C119 -248 204 -300 323 -300 C520 -300 608 -161 608 7 L608 550 L519 550 Z M331 101 C223 101 162 176 162 285 C162 392 223 467 331 467 C439 467 499 392 499 285 C499 176 438 101 331 101 L331 101 Z " />
<glyph glyph-name="h" unicode="h" horiz-adv-x="662" d="M382 565 C297 565 237 515 199 464 L199 849 L87 849 L87 0 L199 0 L199 337 C241 410 296 462 360 462 C438 462 472 414 472 321 L471 0 L583 0 L583 331 C583 507 495 565 382 565 L382 565 Z " />
<glyph glyph-name="i" unicode="i" horiz-adv-x="293" d="M143 861 C185 861 214 830 214 786 C214 745 187 710 143 710 C101 710 73 742 73 786 C73 831 101 861 143 861 L143 861 Z M202 0 L93 0 L93 550 L202 550 L202 0 Z " />
<glyph glyph-name="j" unicode="j" horiz-adv-x="304" d="M151 860 C193 860 221 829 221 785 C221 744 194 710 151 710 C109 710 80 741 80 785 C80 830 108 860 151 860 L151 860 Z M211 550 L211 -17 C211 -178 123 -266 22 -316 L-25 -231 C-26 -231 99 -173 99 -30 L99 550 L211 550 Z " />
<glyph glyph-name="k" unicode="k" horiz-adv-x="629" d="M469 -1 L615 -1 L366 283 L582 550 L443 550 L274 335 L197 335 L197 820 L87 820 L87 0 L197 0 L197 231 L275 231 L469 -1 Z " />
<glyph glyph-name="l" unicode="l" horiz-adv-x="345" d="M277 94 L294 7 C160 -41 84 6 84 129 L84 835 L193 835 L193 142 C193 91 218 80 277 94 L277 94 Z " />
<glyph glyph-name="m" unicode="m" horiz-adv-x="1004" d="M730 565 C639 565 578 504 542 449 C512 534 445 565 365 565 C284 565 227 517 190 467 L172 550 L83 550 L83 0 L194 0 L194 356 C234 423 286 469 345 469 C420 469 453 421 453 328 L452 0 L560 0 L560 331 C560 340 560 348 559 357 C599 423 651 469 710 469 C785 469 818 421 818 328 L817 0 L925 0 L925 331 C925 507 839 565 730 565 L730 565 Z " />
<glyph glyph-name="n" unicode="n" horiz-adv-x="659" d="M378 565 C291 565 230 513 191 462 L172 550 L83 550 L83 0 L194 0 L194 337 C237 410 292 462 356 462 C434 462 467 414 467 321 L467 0 L579 0 L579 331 C579 507 490 565 378 565 L378 565 Z " />
<glyph glyph-name="o" unicode="o" horiz-adv-x="684" d="M342 566 C510 566 630 450 630 274 C630 120 530 -16 342 -16 C171 -16 53 100 53 274 C53 449 171 566 342 566 L342 566 Z M342 469 C226 469 164 381 164 274 C164 169 226 81 342 81 C456 81 519 169 519 274 C519 381 456 469 342 469 L342 469 Z " />
<glyph glyph-name="p" unicode="p" horiz-adv-x="692" d="M383 566 C294 566 232 528 193 468 L193 471 L173 550 L86 550 L86 -300 L193 -300 L193 79 C229 22 289 -16 381 -16 C544 -16 639 105 639 274 C639 442 546 566 383 566 L383 566 Z M361 83 C254 83 193 161 193 275 C193 388 254 467 361 467 C470 467 531 388 531 275 C531 162 470 83 361 83 L361 83 Z " />
<glyph glyph-name="q" unicode="q" horiz-adv-x="690" d="M519 550 L499 471 L499 468 C461 529 399 566 310 566 C147 566 53 442 53 274 C53 105 148 -16 312 -16 C404 -16 463 22 499 79 L499 -300 L607 -300 L607 550 L519 550 Z M331 83 C223 83 162 162 162 275 C162 388 223 467 331 467 C439 467 499 388 499 275 C499 161 438 83 331 83 L331 83 Z " />
<glyph glyph-name="r" unicode="r" horiz-adv-x="461" d="M336 566 C260 566 215 513 188 455 L168 550 L83 550 L83 0 L190 0 L190 275 C197 354 237 457 319 457 C346 457 366 450 386 439 L434 540 C413 552 377 566 336 566 L336 566 Z " />
<glyph glyph-name="s" unicode="s" horiz-adv-x="565" d="M279 -16 C181 -16 87 20 42 63 L92 141 C131 105 209 72 282 72 C354 72 406 98 406 149 C406 277 63 187 63 399 C63 496 149 566 280 566 C372 566 442 536 498 492 L445 419 C401 454 349 478 280 478 C210 478 168 454 168 407 C168 277 514 371 514 155 C514 50 419 -16 279 -16 L279 -16 Z " />
<glyph glyph-name="t" unicode="t" horiz-adv-x="466" d="M418 98 C317 53 232 79 232 198 L232 459 L393 459 L400 550 L232 550 L232 722 L124 722 L124 550 L35 550 L35 459 L124 459 L124 206 C124 16 263 -61 428 9 L418 98 Z " />
<glyph glyph-name="u" unicode="u" horiz-adv-x="659" d="M464 550 L464 221 C422 149 372 98 302 98 C224 98 191 146 191 239 L192 550 L80 550 L80 219 C80 43 168 -15 280 -15 C368 -15 428 37 467 88 L486 0 L575 0 L575 550 L464 550 Z " />
<glyph glyph-name="v" unicode="v" horiz-adv-x="617" d="M477 550 L308 117 L139 550 L23 550 L252 0 L365 0 L592 550 L477 550 Z " />
<glyph glyph-name="w" unicode="w" horiz-adv-x="864" d="M716 550 L603 151 L481 534 L382 534 L259 148 L141 550 L30 550 L210 0 L319 0 L432 410 L544 0 L652 0 L832 550 L716 550 Z " />
<glyph glyph-name="x" unicode="x" horiz-adv-x="567" d="M23 550 L215 277 L21 0 L150 0 L282 199 L416 0 L547 0 L351 280 L538 550 L413 550 L284 356 L155 550 L23 550 Z " />
<glyph glyph-name="y" unicode="y" horiz-adv-x="574" d="M441 550 L294 121 L143 550 L31 550 L239 -1 C192 -132 155 -198 30 -148 L23 -253 C190 -300 271 -224 329 -60 L552 550 L441 550 Z " />
<glyph glyph-name="z" unicode="z" horiz-adv-x="553" d="M511 550 L43 550 L43 446 L379 453 L43 104 L43 0 L511 0 L511 104 L167 97 L511 446 L511 550 Z " />
<glyph glyph-name="braceleft" unicode="&#x7b;" horiz-adv-x="386" d="M315 -149 L315 -59 C250 -59 225 -32 225 47 L225 216 C225 280 213 311 150 332 C213 353 225 385 225 449 L225 618 C225 697 250 723 315 723 L315 814 C194 814 131 750 131 633 L131 441 C131 396 118 374 68 374 L45 374 L45 291 L68 291 C118 291 131 269 131 225 L131 31 C131 -86 194 -149 315 -149 L315 -149 Z " />
<glyph glyph-name="bar" unicode="&#x7c;" horiz-adv-x="329" d="M220 -220 L108 -220 L108 773 L220 773 L220 -220 Z " />
<glyph glyph-name="braceright" unicode="&#x7d;" horiz-adv-x="390" d="M59 814 C180 814 243 750 243 633 L243 441 C243 396 256 374 306 374 L329 374 L329 291 L306 291 C256 291 243 269 243 225 L243 31 C243 -86 180 -149 59 -149 L59 -59 C124 -59 149 -32 149 47 L149 216 C149 280 161 311 225 332 C161 353 149 385 149 449 L149 618 C149 697 124 723 59 723 L59 814 Z " />
<glyph glyph-name="asciitilde" unicode="&#x7e;" horiz-adv-x="636" d="M179 335 C179 371 190 400 233 400 C293 400 324 329 408 329 C480 329 540 377 540 474 L457 474 C457 439 446 411 406 411 C344 411 314 480 230 480 C158 480 95 425 95 335 L179 335 Z " />
<glyph glyph-name="exclamdown" unicode="&#xa1;" horiz-adv-x="318" d="M160 506 C125 506 101 531 101 568 C101 602 124 631 160 631 C195 631 218 604 218 568 C218 530 195 506 160 506 L160 506 Z M129 404 L187 404 L211 2 L219 -248 L99 -248 L107 2 L129 404 Z " />
<glyph glyph-name="cent" unicode="&#xa2;" horiz-adv-x="597" d="M331 154 C224 154 168 232 168 337 C168 443 224 522 331 522 C391 522 439 499 471 456 L548 509 C503 569 433 606 347 611 L349 680 L285 680 L285 609 C150 590 66 485 66 337 C66 190 149 87 284 67 L282 0 L349 0 L347 64 C439 69 505 108 548 168 L471 220 C438 179 391 154 331 154 L331 154 Z " />
<glyph glyph-name="sterling" unicode="&#xa3;" horiz-adv-x="594" d="M243 290 L447 290 L447 372 L243 372 L243 444 C243 530 288 604 377 604 C425 604 469 581 495 544 L559 608 C515 665 450 696 372 696 C233 696 136 596 136 444 L136 372 L65 372 L65 290 L136 290 L136 90 L65 73 L65 0 L550 0 L550 98 L243 98 L243 290 Z " />
<glyph glyph-name="currency" unicode="&#xa4;" horiz-adv-x="616" d="M516 341 C516 391 504 434 482 468 L555 534 L499 590 L433 518 C399 540 357 552 309 552 C260 552 217 540 184 517 L117 590 L61 534 L135 467 C113 433 101 390 101 341 C101 292 113 251 134 218 L61 150 L117 94 L183 167 C217 143 260 130 310 130 C359 130 401 142 434 165 L499 95 L555 151 L483 216 C505 249 516 292 516 341 L516 341 Z M309 211 C233 211 193 262 193 341 C193 418 231 470 309 470 C383 470 425 423 425 340 C425 263 386 211 309 211 L309 211 Z " />
<glyph glyph-name="yen" unicode="&#xa5;" horiz-adv-x="698" d="M670 680 L548 680 L347 341 L149 680 L27 680 L269 301 L164 301 L164 231 L531 231 L531 301 L427 301 L670 680 Z M164 105 L293 105 L293 0 L402 0 L402 105 L531 105 L531 176 L164 176 L164 105 Z " />
<glyph glyph-name="brokenbar" unicode="&#xa6;" horiz-adv-x="329" d="M220 364 L108 364 L108 773 L220 773 L220 364 Z M220 -220 L108 -220 L108 213 L220 213 L220 -220 Z " />
<glyph glyph-name="section" unicode="&#xa7;" horiz-adv-x="597" d="M447 159 C498 182 534 224 534 298 C534 528 183 438 183 610 C183 674 231 708 302 708 C367 708 423 680 461 635 L520 698 C475 751 395 793 301 793 C182 793 80 726 80 603 C80 528 118 486 169 458 C115 432 80 386 80 316 C80 94 430 180 430 3 C430 -78 357 -96 299 -96 C224 -96 162 -67 114 -11 L57 -80 C113 -142 195 -182 302 -182 C426 -182 534 -128 534 6 C534 85 497 129 447 159 L447 159 Z M183 327 C183 398 251 415 309 403 C376 379 433 352 433 286 C433 218 372 197 309 214 C241 237 183 262 183 327 L183 327 Z " />
<glyph glyph-name="dieresis" unicode="&#xa8;" horiz-adv-x="517" d="M158 773 C190 773 213 749 213 714 C213 682 192 655 158 655 C125 655 103 680 103 714 C103 750 124 773 158 773 L158 773 Z M359 773 C392 773 414 749 414 714 C414 682 393 655 359 655 C326 655 304 680 304 714 C304 750 326 773 359 773 L359 773 Z " />
<glyph glyph-name="copyright" unicode="&#xa9;" horiz-adv-x="838" d="M415 733 C605 733 759 596 759 389 C759 180 606 44 415 44 C224 44 70 181 70 389 C70 596 224 733 415 733 L415 733 Z M415 667 C261 667 137 558 137 389 C137 219 261 110 415 110 C568 110 693 218 693 389 C693 559 568 667 415 667 L415 667 Z M250 388 C250 492 317 563 420 563 C480 563 530 537 560 495 L504 458 C487 482 458 498 421 498 C358 498 323 451 323 388 C323 325 358 278 421 278 C458 278 486 295 504 318 L560 281 C533 242 485 213 420 213 C317 213 250 283 250 388 L250 388 Z " />
<glyph glyph-name="ordfeminine" unicode="&#xaa;" horiz-adv-x="453" d="M213 793 C154 793 101 779 66 759 L96 690 C117 702 158 720 208 720 C266 720 309 693 309 635 L309 612 C281 623 242 633 194 633 C102 633 39 586 39 506 C39 438 92 387 184 387 C244 387 285 408 311 442 L323 397 L395 397 L395 635 C395 744 313 793 213 793 L213 793 Z M207 455 C157 455 127 477 127 515 C127 553 161 574 213 574 C253 574 286 564 309 553 C306 494 266 455 207 455 L207 455 Z " />
<glyph glyph-name="guillemotleft" unicode="&#xab;" horiz-adv-x="650" d="M335 446 L263 515 L65 277 L263 39 L335 108 L180 278 L335 446 Z M554 446 L482 515 L284 277 L482 39 L554 108 L399 278 L554 446 Z " />
<glyph glyph-name="logicalnot" unicode="&#xac;" horiz-adv-x="677" d="M582 440 L95 440 L95 355 L491 355 L491 186 L582 186 L582 440 Z " />
<glyph glyph-name="registered" unicode="&#xae;" horiz-adv-x="516" d="M258 793 C134 793 52 705 52 580 C52 455 134 368 258 368 C383 367 463 460 463 580 C463 707 379 793 258 793 L258 793 Z M258 403 C155 403 92 477 92 580 C92 682 155 756 258 756 C359 756 423 682 423 580 C423 477 359 403 258 403 L258 403 Z M350 617 C350 664 320 694 250 694 L176 694 L176 462 L221 462 L221 540 L250 540 L254 540 L299 462 L352 462 L297 545 C333 556 350 579 350 617 L350 617 Z M221 654 L250 654 C283 654 304 645 304 616 C304 587 284 578 250 578 L221 578 L221 654 Z " />
<glyph glyph-name="macron" unicode="&#xaf;" horiz-adv-x="535" d="M93 673 L93 748 L443 748 L443 673 L93 673 Z " />
<glyph glyph-name="degree" unicode="&#xb0;" horiz-adv-x="320" d="M160 794 C229 794 277 747 277 677 C277 615 232 559 160 559 C89 559 43 609 43 677 C43 749 87 794 160 794 L160 794 Z M160 727 C128 727 109 706 109 677 C109 649 129 626 160 626 C191 626 211 650 211 677 C211 706 189 727 160 727 L160 727 Z " />
<glyph glyph-name="plusminus" unicode="&#xb1;" horiz-adv-x="613" d="M358 432 L358 555 L258 555 L258 433 L80 433 L80 340 L258 340 L258 208 L358 208 L358 340 L537 340 L537 432 L358 432 Z M80 61 L537 61 L537 154 L80 154 L80 61 Z " />
<glyph glyph-name="uni00B2" unicode="&#xb2;" horiz-adv-x="343" d="M162 550 L209 589 C245 619 288 663 288 724 C288 793 232 830 163 830 C108 830 66 806 38 766 L89 718 C105 739 127 763 158 763 C175 763 211 754 211 715 C211 682 188 661 157 635 L49 546 L49 481 L293 481 L293 555 L162 550 Z " />
<glyph glyph-name="uni00B3" unicode="&#xb3;" horiz-adv-x="342" d="M194 677 L278 755 L278 821 L60 821 L60 745 L178 750 L100 684 L119 628 C133 630 144 630 155 630 C197 630 208 604 208 585 C208 568 197 542 155 542 C132 542 109 551 95 565 L43 519 C59 498 101 474 155 474 C257 474 289 530 289 582 C289 629 255 668 194 677 L194 677 Z " />
<glyph glyph-name="acute" unicode="&#xb4;" horiz-adv-x="477" d="M153 621 L370 704 L333 792 L132 665 L153 621 Z " />
<glyph glyph-name="uni00B5" unicode="&#xb5;" horiz-adv-x="659" d="M464 550 L464 221 C422 149 372 98 302 98 C224 98 191 146 191 239 L192 550 L80 550 L80 -300 L171 -300 L171 11 C202 -7 240 -15 280 -15 C368 -15 428 37 467 88 L486 0 L575 0 L575 550 L464 550 Z " />
<glyph glyph-name="paragraph" unicode="&#xb6;" horiz-adv-x="810" d="M709 772 L357 772 C156 772 47 675 47 515 C47 348 157 257 357 257 L396 257 L396 -180 L487 -180 L487 671 L617 671 L617 -180 L709 -180 L709 772 Z " />
<glyph glyph-name="periodcentered" unicode="&#xb7;" horiz-adv-x="275" d="M138 444 C172 444 196 419 196 382 C196 348 174 319 138 319 C103 319 79 346 79 382 C79 420 102 444 138 444 L138 444 Z " />
<glyph glyph-name="cedilla" unicode="&#xb8;" horiz-adv-x="475" d="M215 13 L262 7 L256 -51 C290 -53 387 -77 374 -167 C359 -268 232 -262 155 -226 L174 -169 C197 -183 300 -218 308 -160 C317 -102 222 -100 199 -99 L215 13 Z " />
<glyph glyph-name="uni00B9" unicode="&#xb9;" horiz-adv-x="282" d="M157 821 L43 787 L65 722 L126 743 L126 481 L206 481 L206 821 L157 821 Z " />
<glyph glyph-name="ordmasculine" unicode="&#xba;" horiz-adv-x="490" d="M245 793 C363 793 449 713 449 589 C449 485 381 386 245 386 C124 386 40 466 40 589 C40 712 124 793 245 793 L245 793 Z M245 714 C170 714 133 655 133 589 C133 525 170 465 245 465 C318 465 357 525 357 589 C357 655 319 714 245 714 L245 714 Z " />
<glyph glyph-name="guillemotright" unicode="&#xbb;" horiz-adv-x="650" d="M170 515 L97 446 L252 278 L97 108 L170 39 L367 277 L170 515 Z M387 515 L314 446 L469 278 L314 108 L387 39 L584 277 L387 515 Z " />
<glyph glyph-name="onequarter" unicode="&#xbc;" horiz-adv-x="856" d="M662 802 L145 29 L213 -7 L731 763 L662 802 Z M206 431 L206 771 L157 771 L43 737 L65 672 L126 693 L126 431 L206 431 Z M814 142 L769 140 L769 340 L697 340 L522 142 L546 73 L697 73 L697 0 L769 0 L769 73 L814 73 L814 142 Z M594 134 L697 249 L697 138 L594 134 Z " />
<glyph glyph-name="onehalf" unicode="&#xbd;" horiz-adv-x="878" d="M662 802 L145 29 L213 -7 L731 763 L662 802 Z M206 431 L206 771 L157 771 L43 737 L65 672 L126 693 L126 431 L206 431 Z M697 69 L744 108 C780 138 823 182 823 243 C823 312 767 349 698 349 C643 349 601 325 573 285 L624 237 C640 258 662 282 693 282 C710 282 746 273 746 234 C746 201 723 180 692 154 L584 65 L584 0 L828 0 L828 74 L697 69 Z " />
<glyph glyph-name="threequarters" unicode="&#xbe;" horiz-adv-x="886" d="M692 802 L175 29 L243 -7 L761 763 L692 802 Z M289 532 C289 579 255 618 194 627 L278 705 L278 771 L60 771 L60 695 L178 700 L100 634 L119 578 C133 580 144 580 155 580 C197 580 208 554 208 535 C208 518 197 492 155 492 C132 492 109 501 95 515 L43 469 C59 448 101 424 155 424 C257 424 289 480 289 532 L289 532 Z M844 142 L799 140 L799 340 L727 340 L552 142 L576 73 L727 73 L727 0 L799 0 L799 73 L844 73 L844 142 Z M624 134 L727 249 L727 138 L624 134 Z " />
<glyph glyph-name="questiondown" unicode="&#xbf;" horiz-adv-x="662" d="M342 492 C380 492 406 520 406 560 C406 601 380 631 341 631 C301 631 276 600 276 561 C276 521 303 492 342 492 L342 492 Z M513 -58 C485 -99 422 -161 330 -161 C236 -161 171 -94 171 -4 C171 96 247 180 404 180 L377 389 L302 389 L286 258 C152 232 60 134 60 -5 C60 -143 161 -257 330 -257 C461 -257 557 -184 599 -117 L513 -58 Z " />
<glyph glyph-name="Agrave" unicode="&#xc0;" horiz-adv-x="817" d="M483 888 L281 1015 L244 927 L461 844 L483 888 Z M667 0 L783 0 L471 773 L345 773 L33 0 L149 0 L224 191 L592 191 L667 0 Z M265 296 L408 659 L551 296 L265 296 Z " />
<glyph glyph-name="Aacute" unicode="&#xc1;" horiz-adv-x="817" d="M568 927 L531 1015 L330 888 L351 844 L568 927 Z M667 0 L783 0 L471 773 L345 773 L33 0 L149 0 L224 191 L592 191 L667 0 Z M265 296 L408 659 L551 296 L265 296 Z " />
<glyph glyph-name="Acircumflex" unicode="&#xc2;" horiz-adv-x="817" d="M409 941 L509 858 L550 901 L435 1025 L383 1025 L267 901 L308 858 L409 941 Z M667 0 L783 0 L471 773 L345 773 L33 0 L149 0 L224 191 L592 191 L667 0 Z M265 296 L408 659 L551 296 L265 296 Z " />
<glyph glyph-name="Atilde" unicode="&#xc3;" horiz-adv-x="817" d="M336 927 C384 927 408 865 479 865 C539 865 591 908 591 996 L517 996 C517 965 509 940 477 940 C426 940 402 1000 333 1000 C272 1000 216 952 216 870 L291 870 C291 902 300 927 336 927 L336 927 Z M667 0 L783 0 L471 773 L345 773 L33 0 L149 0 L224 191 L592 191 L667 0 Z M265 296 L408 659 L551 296 L265 296 Z " />
<glyph glyph-name="Adieresis" unicode="&#xc4;" horiz-adv-x="817" d="M310 878 C344 878 365 905 365 937 C365 972 342 996 310 996 C276 996 255 973 255 937 C255 903 277 878 310 878 L310 878 Z M511 878 C545 878 566 905 566 937 C566 972 544 996 511 996 C478 996 456 973 456 937 C456 903 478 878 511 878 L511 878 Z M667 0 L783 0 L471 773 L345 773 L33 0 L149 0 L224 191 L592 191 L667 0 Z M265 296 L408 659 L551 296 L265 296 Z " />
<glyph glyph-name="Aring" unicode="&#xc5;" horiz-adv-x="817" d="M409 834 C474 834 515 888 515 949 C515 1016 472 1062 409 1062 C343 1062 302 1019 302 949 C302 883 345 834 409 834 L409 834 Z M409 1003 C437 1003 458 980 458 949 C458 920 439 894 409 894 C379 894 359 918 359 949 C359 980 378 1003 409 1003 L409 1003 Z M667 0 L783 0 L471 773 L345 773 L33 0 L149 0 L224 191 L592 191 L667 0 Z M265 296 L408 659 L551 296 L265 296 Z " />
<glyph glyph-name="AE" unicode="&#xc6;" horiz-adv-x="1101" d="M1027 668 L1027 773 L537 773 L33 0 L157 0 L282 200 L539 200 L539 0 L1027 0 L1027 105 L644 105 L644 344 L906 344 L906 449 L644 449 L644 668 L1027 668 Z M339 291 L539 610 L539 291 L339 291 Z " />
<glyph glyph-name="Ccedilla" unicode="&#xc7;" horiz-adv-x="806" d="M449 85 C281 85 176 211 176 386 C176 562 282 688 449 688 C539 688 617 645 667 577 L756 641 C687 737 574 791 449 791 C220 791 66 621 66 386 C66 160 209 -5 422 -18 L410 -99 C433 -100 528 -102 519 -160 C511 -218 408 -183 385 -169 L366 -226 C443 -262 570 -268 585 -167 C598 -77 501 -53 467 -51 L470 -18 C586 -13 689 41 756 131 L666 195 C617 127 539 85 449 85 L449 85 Z " />
<glyph glyph-name="Egrave" unicode="&#xc8;" horiz-adv-x="683" d="M429 888 L227 1015 L190 927 L407 844 L429 888 Z M610 672 L610 773 L102 773 L102 0 L610 0 L610 101 L209 101 L209 350 L508 350 L508 448 L209 449 L209 672 L610 672 Z " />
<glyph glyph-name="Eacute" unicode="&#xc9;" horiz-adv-x="683" d="M514 927 L477 1015 L276 888 L297 844 L514 927 Z M610 672 L610 773 L102 773 L102 0 L610 0 L610 101 L209 101 L209 350 L508 350 L508 448 L209 449 L209 672 L610 672 Z " />
<glyph glyph-name="Ecircumflex" unicode="&#xca;" horiz-adv-x="683" d="M355 941 L455 858 L496 901 L381 1025 L329 1025 L213 901 L254 858 L355 941 Z M610 672 L610 773 L102 773 L102 0 L610 0 L610 101 L209 101 L209 350 L508 350 L508 448 L209 449 L209 672 L610 672 Z " />
<glyph glyph-name="Edieresis" unicode="&#xcb;" horiz-adv-x="683" d="M256 878 C290 878 311 905 311 937 C311 972 288 996 256 996 C222 996 201 973 201 937 C201 903 223 878 256 878 L256 878 Z M457 878 C491 878 512 905 512 937 C512 972 490 996 457 996 C424 996 402 973 402 937 C402 903 424 878 457 878 L457 878 Z M610 672 L610 773 L102 773 L102 0 L610 0 L610 101 L209 101 L209 350 L508 350 L508 448 L209 449 L209 672 L610 672 Z " />
<glyph glyph-name="Igrave" unicode="&#xcc;" horiz-adv-x="313" d="M210 844 L232 888 L30 1015 L-7 927 L210 844 Z M212 0 L102 0 L102 773 L212 773 L212 0 Z " />
<glyph glyph-name="Iacute" unicode="&#xcd;" horiz-adv-x="313" d="M100 844 L317 927 L280 1015 L79 888 L100 844 Z M212 0 L102 0 L102 773 L212 773 L212 0 Z " />
<glyph glyph-name="Icircumflex" unicode="&#xce;" horiz-adv-x="313" d="M132 1025 L184 1025 L299 901 L258 858 L158 941 L57 858 L16 901 L132 1025 Z M212 0 L102 0 L102 773 L212 773 L212 0 Z " />
<glyph glyph-name="Idieresis" unicode="&#xcf;" horiz-adv-x="313" d="M59 996 C91 996 114 972 114 937 C114 905 93 878 59 878 C26 878 4 903 4 937 C4 973 25 996 59 996 L59 996 Z M260 996 C293 996 315 972 315 937 C315 905 294 878 260 878 C227 878 205 903 205 937 C205 973 227 996 260 996 L260 996 Z M212 0 L102 0 L102 773 L212 773 L212 0 Z " />
<glyph glyph-name="Eth" unicode="&#xd0;" horiz-adv-x="851" d="M432 773 L127 773 L127 439 L52 439 L52 334 L127 334 L127 0 L432 0 C644 0 786 170 786 389 C786 611 643 773 432 773 L432 773 Z M432 105 L238 105 L238 334 L449 334 L449 439 L238 439 L238 668 L432 668 C581 668 671 547 671 389 C671 232 580 105 432 105 L432 105 Z " />
<glyph glyph-name="Ntilde" unicode="&#xd1;" horiz-adv-x="903" d="M370 927 C418 927 442 865 513 865 C573 865 625 908 625 996 L551 996 C551 965 543 940 511 940 C460 940 436 1000 367 1000 C306 1000 250 952 250 870 L325 870 C325 902 334 927 370 927 L370 927 Z M693 773 L693 178 L207 773 L102 773 L102 0 L210 0 L210 595 L696 0 L801 0 L801 773 L693 773 Z " />
<glyph glyph-name="Ograve" unicode="&#xd2;" horiz-adv-x="884" d="M494 844 L516 888 L314 1015 L277 927 L494 844 Z M442 791 C668 791 817 625 817 387 C817 152 669 -18 442 -18 C216 -18 66 150 66 387 C66 621 214 791 442 791 L442 791 Z M442 689 C276 689 176 562 176 387 C176 212 275 85 442 85 C608 85 708 212 708 387 C708 563 605 689 442 689 L442 689 Z " />
<glyph glyph-name="Oacute" unicode="&#xd3;" horiz-adv-x="884" d="M384 844 L601 927 L564 1015 L363 888 L384 844 Z M442 791 C668 791 817 625 817 387 C817 152 669 -18 442 -18 C216 -18 66 150 66 387 C66 621 214 791 442 791 L442 791 Z M442 689 C276 689 176 562 176 387 C176 212 275 85 442 85 C608 85 708 212 708 387 C708 563 605 689 442 689 L442 689 Z " />
<glyph glyph-name="Ocircumflex" unicode="&#xd4;" horiz-adv-x="884" d="M416 1025 L468 1025 L583 901 L542 858 L442 941 L341 858 L300 901 L416 1025 Z M442 791 C668 791 817 625 817 387 C817 152 669 -18 442 -18 C216 -18 66 150 66 387 C66 621 214 791 442 791 L442 791 Z M442 689 C276 689 176 562 176 387 C176 212 275 85 442 85 C608 85 708 212 708 387 C708 563 605 689 442 689 L442 689 Z " />
<glyph glyph-name="Otilde" unicode="&#xd5;" horiz-adv-x="884" d="M324 870 C324 902 333 927 369 927 C417 927 441 865 512 865 C572 865 624 908 624 996 L550 996 C550 965 542 940 510 940 C459 940 435 1000 366 1000 C305 1000 249 952 249 870 L324 870 Z M442 791 C668 791 817 625 817 387 C817 152 669 -18 442 -18 C216 -18 66 150 66 387 C66 621 214 791 442 791 L442 791 Z M442 689 C276 689 176 562 176 387 C176 212 275 85 442 85 C608 85 708 212 708 387 C708 563 605 689 442 689 L442 689 Z " />
<glyph glyph-name="Odieresis" unicode="&#xd6;" horiz-adv-x="884" d="M343 996 C375 996 398 972 398 937 C398 905 377 878 343 878 C310 878 288 903 288 937 C288 973 309 996 343 996 L343 996 Z M544 996 C577 996 599 972 599 937 C599 905 578 878 544 878 C511 878 489 903 489 937 C489 973 511 996 544 996 L544 996 Z M442 791 C668 791 817 625 817 387 C817 152 669 -18 442 -18 C216 -18 66 150 66 387 C66 621 214 791 442 791 L442 791 Z M442 689 C276 689 176 562 176 387 C176 212 275 85 442 85 C608 85 708 212 708 387 C708 563 605 689 442 689 L442 689 Z " />
<glyph glyph-name="multiply" unicode="&#xd7;" horiz-adv-x="558" d="M476 285 L347 414 L467 534 L396 604 L277 484 L155 606 L80 530 L202 409 L83 290 L153 220 L272 339 L401 210 L476 285 Z " />
<glyph glyph-name="Oslash" unicode="&#xd8;" horiz-adv-x="914" d="M847 711 L780 779 L704 702 C640 759 556 791 456 791 C228 791 80 621 80 387 C80 293 104 210 146 144 L66 64 L133 -3 L208 72 C271 15 356 -18 456 -18 C683 -18 831 152 831 387 C831 481 808 564 766 630 L847 711 Z M191 387 C191 561 291 687 456 687 C525 687 583 665 627 625 L226 224 C203 270 191 326 191 387 L191 387 Z M720 387 C720 213 621 86 456 86 C386 86 327 108 284 148 L685 549 C708 503 720 448 720 387 L720 387 Z " />
<glyph glyph-name="Ugrave" unicode="&#xd9;" horiz-adv-x="843" d="M474 844 L496 888 L294 1015 L257 927 L474 844 Z M746 773 L746 343 C746 126 637 -18 422 -18 C204 -18 97 126 97 343 L97 773 L207 773 L207 353 C207 163 299 79 422 79 C542 79 636 161 636 353 L636 773 L746 773 Z " />
<glyph glyph-name="Uacute" unicode="&#xda;" horiz-adv-x="843" d="M364 844 L581 927 L544 1015 L343 888 L364 844 Z M746 773 L746 343 C746 126 637 -18 422 -18 C204 -18 97 126 97 343 L97 773 L207 773 L207 353 C207 163 299 79 422 79 C542 79 636 161 636 353 L636 773 L746 773 Z " />
<glyph glyph-name="Ucircumflex" unicode="&#xdb;" horiz-adv-x="843" d="M396 1025 L448 1025 L563 901 L522 858 L422 941 L321 858 L280 901 L396 1025 Z M746 773 L746 343 C746 126 637 -18 422 -18 C204 -18 97 126 97 343 L97 773 L207 773 L207 353 C207 163 299 79 422 79 C542 79 636 161 636 353 L636 773 L746 773 Z " />
<glyph glyph-name="Udieresis" unicode="&#xdc;" horiz-adv-x="843" d="M323 996 C355 996 378 972 378 937 C378 905 357 878 323 878 C290 878 268 903 268 937 C268 973 289 996 323 996 L323 996 Z M524 996 C557 996 579 972 579 937 C579 905 558 878 524 878 C491 878 469 903 469 937 C469 973 491 996 524 996 L524 996 Z M746 773 L746 343 C746 126 637 -18 422 -18 C204 -18 97 126 97 343 L97 773 L207 773 L207 353 C207 163 299 79 422 79 C542 79 636 161 636 353 L636 773 L746 773 Z " />
<glyph glyph-name="Yacute" unicode="&#xdd;" horiz-adv-x="713" d="M515 924 L478 1012 L277 885 L298 841 L515 924 Z M685 773 L561 773 L356 376 L151 773 L27 773 L298 290 L298 0 L412 0 L412 287 L685 773 Z " />
<glyph glyph-name="Thorn" unicode="&#xde;" horiz-adv-x="725" d="M356 671 L213 671 L213 772 L102 772 L102 0 L213 0 L213 157 L356 157 C556 157 665 247 665 414 C665 574 557 671 356 671 L356 671 Z M356 255 L213 255 L213 570 L356 570 C470 570 552 528 552 413 C552 297 473 255 356 255 L356 255 Z " />
<glyph glyph-name="germandbls" unicode="&#xdf;" horiz-adv-x="738" d="M102 -131 C125 -46 130 45 130 102 L130 484 C130 661 206 773 370 773 C505 773 578 690 578 603 C578 495 471 470 414 418 C397 403 383 389 383 363 C383 248 674 321 674 136 C674 37 596 -14 475 -14 C386 -14 311 17 271 55 L315 125 C350 93 411 64 477 64 C538 64 579 85 579 133 C579 253 290 180 290 355 C290 408 318 444 354 472 C414 520 488 538 488 600 C488 646 443 685 374 685 C273 685 226 606 226 485 L226 102 C226 34 221 -62 198 -154 L102 -131 Z " />
<glyph glyph-name="agrave" unicode="&#xe0;" horiz-adv-x="702" d="M394 665 L192 792 L155 704 L372 621 L394 665 Z M505 550 L505 457 C466 524 401 566 310 566 C154 566 53 446 53 274 C53 103 153 -16 312 -16 C407 -16 469 28 505 91 L505 69 L522 0 L610 0 L610 550 L505 550 Z M333 83 C228 83 162 162 162 275 C162 388 228 467 333 467 C438 467 503 388 503 275 C503 161 437 83 333 83 L333 83 Z " />
<glyph glyph-name="aacute" unicode="&#xe1;" horiz-adv-x="702" d="M479 704 L442 792 L241 665 L262 621 L479 704 Z M505 550 L505 457 C466 524 401 566 310 566 C154 566 53 446 53 274 C53 103 153 -16 312 -16 C407 -16 469 28 505 91 L505 69 L522 0 L610 0 L610 550 L505 550 Z M333 83 C228 83 162 162 162 275 C162 388 228 467 333 467 C438 467 503 388 503 275 C503 161 437 83 333 83 L333 83 Z " />
<glyph glyph-name="acircumflex" unicode="&#xe2;" horiz-adv-x="702" d="M320 718 L420 635 L461 678 L346 802 L294 802 L178 678 L219 635 L320 718 Z M505 550 L505 457 C466 524 401 566 310 566 C154 566 53 446 53 274 C53 103 153 -16 312 -16 C407 -16 469 28 505 91 L505 69 L522 0 L610 0 L610 550 L505 550 Z M333 83 C228 83 162 162 162 275 C162 388 228 467 333 467 C438 467 503 388 503 275 C503 161 437 83 333 83 L333 83 Z " />
<glyph glyph-name="atilde" unicode="&#xe3;" horiz-adv-x="702" d="M247 704 C295 704 319 642 390 642 C450 642 502 685 502 773 L428 773 C428 742 420 717 388 717 C337 717 313 777 244 777 C183 777 127 729 127 647 L202 647 C202 679 211 704 247 704 L247 704 Z M505 550 L505 457 C466 524 401 566 310 566 C154 566 53 446 53 274 C53 103 153 -16 312 -16 C407 -16 469 28 505 91 L505 69 L522 0 L610 0 L610 550 L505 550 Z M333 83 C228 83 162 162 162 275 C162 388 228 467 333 467 C438 467 503 388 503 275 C503 161 437 83 333 83 L333 83 Z " />
<glyph glyph-name="adieresis" unicode="&#xe4;" horiz-adv-x="702" d="M221 655 C255 655 276 682 276 714 C276 749 253 773 221 773 C187 773 166 750 166 714 C166 680 188 655 221 655 L221 655 Z M422 655 C456 655 477 682 477 714 C477 749 455 773 422 773 C389 773 367 750 367 714 C367 680 389 655 422 655 L422 655 Z M505 550 L505 457 C466 524 401 566 310 566 C154 566 53 446 53 274 C53 103 153 -16 312 -16 C407 -16 469 28 505 91 L505 69 L522 0 L610 0 L610 550 L505 550 Z M333 83 C228 83 162 162 162 275 C162 388 228 467 333 467 C438 467 503 388 503 275 C503 161 437 83 333 83 L333 83 Z " />
<glyph glyph-name="aring" unicode="&#xe5;" horiz-adv-x="702" d="M320 611 C385 611 426 665 426 726 C426 793 383 839 320 839 C254 839 213 796 213 726 C213 660 256 611 320 611 L320 611 Z M320 780 C348 780 369 757 369 726 C369 697 350 671 320 671 C290 671 270 695 270 726 C270 757 289 780 320 780 L320 780 Z M505 550 L505 457 C466 524 401 566 310 566 C154 566 53 446 53 274 C53 103 153 -16 312 -16 C407 -16 469 28 505 91 L505 69 L522 0 L610 0 L610 550 L505 550 Z M333 83 C228 83 162 162 162 275 C162 388 228 467 333 467 C438 467 503 388 503 275 C503 161 437 83 333 83 L333 83 Z " />
<glyph glyph-name="ae" unicode="&#xe6;" horiz-adv-x="1021" d="M713 566 C610 566 537 522 496 447 C452 521 375 566 279 566 C214 566 129 545 66 516 L107 423 C150 444 218 467 281 467 C380 467 444 409 445 316 C404 330 349 344 285 344 C139 344 53 277 53 167 C53 57 141 -15 273 -15 C386 -15 458 38 494 113 C536 32 615 -16 725 -16 C819 -16 901 16 959 71 L902 145 C857 102 792 75 725 75 C624 75 568 141 557 238 L959 238 C981 447 899 566 713 566 L713 566 Z M859 317 L557 317 C567 409 614 475 713 475 C816 475 861 409 859 317 L859 317 Z M290 81 C220 81 168 113 168 171 C168 228 217 255 305 255 C362 255 410 243 445 231 C440 134 381 81 290 81 L290 81 Z " />
<glyph glyph-name="ccedilla" unicode="&#xe7;" horiz-adv-x="616" d="M345 80 C232 80 162 162 162 274 C162 388 232 470 346 470 C411 470 466 444 500 400 L579 454 C527 524 444 566 343 566 C171 566 55 449 55 274 C55 108 159 -4 316 -15 L304 -99 C327 -100 422 -102 413 -160 C405 -218 302 -183 279 -169 L260 -226 C337 -262 464 -268 479 -167 C492 -77 395 -53 361 -51 L365 -15 C461 -10 534 33 579 95 L499 150 C467 108 412 80 345 80 L345 80 Z " />
<glyph glyph-name="egrave" unicode="&#xe8;" horiz-adv-x="627" d="M372 621 L394 665 L192 792 L155 704 L372 621 Z M53 276 C53 453 157 566 322 566 C502 566 589 447 565 238 L166 238 C176 141 233 75 334 75 C400 75 466 102 511 145 L564 71 C506 16 427 -16 334 -16 C162 -16 53 100 53 276 L53 276 Z M166 312 L469 312 C469 404 428 479 324 479 C220 479 166 403 166 312 L166 312 Z " />
<glyph glyph-name="eacute" unicode="&#xe9;" horiz-adv-x="627" d="M262 621 L479 704 L442 792 L241 665 L262 621 Z M53 276 C53 453 157 566 322 566 C502 566 589 447 565 238 L166 238 C176 141 233 75 334 75 C400 75 466 102 511 145 L564 71 C506 16 427 -16 334 -16 C162 -16 53 100 53 276 L53 276 Z M166 312 L469 312 C469 404 428 479 324 479 C220 479 166 403 166 312 L166 312 Z " />
<glyph glyph-name="ecircumflex" unicode="&#xea;" horiz-adv-x="627" d="M294 802 L346 802 L461 678 L420 635 L320 718 L219 635 L178 678 L294 802 Z M53 276 C53 453 157 566 322 566 C502 566 589 447 565 238 L166 238 C176 141 233 75 334 75 C400 75 466 102 511 145 L564 71 C506 16 427 -16 334 -16 C162 -16 53 100 53 276 L53 276 Z M166 312 L469 312 C469 404 428 479 324 479 C220 479 166 403 166 312 L166 312 Z " />
<glyph glyph-name="edieresis" unicode="&#xeb;" horiz-adv-x="627" d="M221 773 C253 773 276 749 276 714 C276 682 255 655 221 655 C188 655 166 680 166 714 C166 750 187 773 221 773 L221 773 Z M422 773 C455 773 477 749 477 714 C477 682 456 655 422 655 C389 655 367 680 367 714 C367 750 389 773 422 773 L422 773 Z M53 276 C53 453 157 566 322 566 C502 566 589 447 565 238 L166 238 C176 141 233 75 334 75 C400 75 466 102 511 145 L564 71 C506 16 427 -16 334 -16 C162 -16 53 100 53 276 L53 276 Z M166 312 L469 312 C469 404 428 479 324 479 C220 479 166 403 166 312 L166 312 Z " />
<glyph glyph-name="igrave" unicode="&#xec;" horiz-adv-x="287" d="M196 621 L218 665 L16 792 L-21 704 L196 621 Z M198 0 L89 0 L89 550 L198 550 L198 0 Z " />
<glyph glyph-name="iacute" unicode="&#xed;" horiz-adv-x="287" d="M86 621 L303 704 L266 792 L65 665 L86 621 Z M198 0 L89 0 L89 550 L198 550 L198 0 Z " />
<glyph glyph-name="icircumflex" unicode="&#xee;" horiz-adv-x="287" d="M118 802 L170 802 L285 678 L244 635 L144 718 L43 635 L2 678 L118 802 Z M198 0 L89 0 L89 550 L198 550 L198 0 Z " />
<glyph glyph-name="idieresis" unicode="&#xef;" horiz-adv-x="287" d="M45 773 C77 773 100 749 100 714 C100 682 79 655 45 655 C12 655 -10 680 -10 714 C-10 750 11 773 45 773 L45 773 Z M246 773 C279 773 301 749 301 714 C301 682 280 655 246 655 C213 655 191 680 191 714 C191 750 213 773 246 773 L246 773 Z M198 0 L89 0 L89 550 L198 550 L198 0 Z " />
<glyph glyph-name="eth" unicode="&#xf0;" horiz-adv-x="682" d="M608 708 L576 782 L455 729 C380 802 296 840 252 855 L215 760 C246 747 299 725 350 684 L251 641 L283 567 L412 623 C457 567 491 490 495 384 C460 448 397 501 297 501 C165 501 53 411 53 244 C53 106 140 -17 310 -17 C511 -17 600 155 600 371 C600 497 562 593 510 665 L608 708 Z M315 80 C206 80 160 163 161 244 C160 330 208 408 311 408 C416 408 467 322 485 251 C466 156 418 80 315 80 L315 80 Z " />
<glyph glyph-name="ntilde" unicode="&#xf1;" horiz-adv-x="659" d="M246 704 C294 704 318 642 389 642 C449 642 501 685 501 773 L427 773 C427 742 419 717 387 717 C336 717 312 777 243 777 C182 777 126 729 126 647 L201 647 C201 679 210 704 246 704 L246 704 Z M378 565 C291 565 230 513 191 462 L172 550 L83 550 L83 0 L194 0 L194 337 C237 410 292 462 356 462 C434 462 467 414 467 321 L467 0 L579 0 L579 331 C579 507 490 565 378 565 L378 565 Z " />
<glyph glyph-name="ograve" unicode="&#xf2;" horiz-adv-x="684" d="M390 621 L412 665 L210 792 L173 704 L390 621 Z M342 566 C510 566 630 450 630 274 C630 120 530 -16 342 -16 C171 -16 53 100 53 274 C53 449 171 566 342 566 L342 566 Z M342 469 C226 469 164 381 164 274 C164 169 226 81 342 81 C456 81 519 169 519 274 C519 381 456 469 342 469 L342 469 Z " />
<glyph glyph-name="oacute" unicode="&#xf3;" horiz-adv-x="684" d="M280 621 L497 704 L460 792 L259 665 L280 621 Z M342 566 C510 566 630 450 630 274 C630 120 530 -16 342 -16 C171 -16 53 100 53 274 C53 449 171 566 342 566 L342 566 Z M342 469 C226 469 164 381 164 274 C164 169 226 81 342 81 C456 81 519 169 519 274 C519 381 456 469 342 469 L342 469 Z " />
<glyph glyph-name="ocircumflex" unicode="&#xf4;" horiz-adv-x="684" d="M312 802 L364 802 L479 678 L438 635 L338 718 L237 635 L196 678 L312 802 Z M342 566 C510 566 630 450 630 274 C630 120 530 -16 342 -16 C171 -16 53 100 53 274 C53 449 171 566 342 566 L342 566 Z M342 469 C226 469 164 381 164 274 C164 169 226 81 342 81 C456 81 519 169 519 274 C519 381 456 469 342 469 L342 469 Z " />
<glyph glyph-name="otilde" unicode="&#xf5;" horiz-adv-x="684" d="M220 647 C220 679 229 704 265 704 C313 704 337 642 408 642 C468 642 520 685 520 773 L446 773 C446 742 438 717 406 717 C355 717 331 777 262 777 C201 777 145 729 145 647 L220 647 Z M342 566 C510 566 630 450 630 274 C630 120 530 -16 342 -16 C171 -16 53 100 53 274 C53 449 171 566 342 566 L342 566 Z M342 469 C226 469 164 381 164 274 C164 169 226 81 342 81 C456 81 519 169 519 274 C519 381 456 469 342 469 L342 469 Z " />
<glyph glyph-name="odieresis" unicode="&#xf6;" horiz-adv-x="684" d="M239 773 C271 773 294 749 294 714 C294 682 273 655 239 655 C206 655 184 680 184 714 C184 750 205 773 239 773 L239 773 Z M440 773 C473 773 495 749 495 714 C495 682 474 655 440 655 C407 655 385 680 385 714 C385 750 407 773 440 773 L440 773 Z M342 566 C510 566 630 450 630 274 C630 120 530 -16 342 -16 C171 -16 53 100 53 274 C53 449 171 566 342 566 L342 566 Z M342 469 C226 469 164 381 164 274 C164 169 226 81 342 81 C456 81 519 169 519 274 C519 381 456 469 342 469 L342 469 Z " />
<glyph glyph-name="divide" unicode="&#xf7;" horiz-adv-x="605" d="M306 647 C340 647 364 622 364 585 C364 551 342 523 306 523 C271 523 247 549 247 585 C247 623 270 647 306 647 L306 647 Z M524 456 L524 370 L80 370 L80 456 L524 456 Z M306 303 C340 303 364 278 364 241 C364 207 342 179 306 179 C271 179 247 205 247 241 C247 279 270 303 306 303 L306 303 Z " />
<glyph glyph-name="oslash" unicode="&#xf8;" horiz-adv-x="690" d="M575 459 L631 515 L588 557 L534 503 C484 543 419 566 345 566 C174 566 56 449 56 274 C56 199 78 135 117 86 L58 27 L101 -15 L159 43 C208 5 272 -16 345 -16 C533 -16 633 120 633 274 C633 348 612 411 575 459 L575 459 Z M167 274 C167 381 233 469 345 469 C391 469 430 454 459 428 L195 164 C177 196 167 234 167 274 L167 274 Z M345 81 C300 81 263 95 234 118 L496 380 C513 350 522 313 522 274 C522 169 455 81 345 81 L345 81 Z " />
<glyph glyph-name="ugrave" unicode="&#xf9;" horiz-adv-x="659" d="M404 665 L202 792 L165 704 L382 621 L404 665 Z M464 550 L464 221 C422 149 372 98 302 98 C224 98 191 146 191 239 L192 550 L80 550 L80 219 C80 43 168 -15 280 -15 C368 -15 428 37 467 88 L486 0 L575 0 L575 550 L464 550 Z " />
<glyph glyph-name="uacute" unicode="&#xfa;" horiz-adv-x="659" d="M489 704 L452 792 L251 665 L272 621 L489 704 Z M464 550 L464 221 C422 149 372 98 302 98 C224 98 191 146 191 239 L192 550 L80 550 L80 219 C80 43 168 -15 280 -15 C368 -15 428 37 467 88 L486 0 L575 0 L575 550 L464 550 Z " />
<glyph glyph-name="ucircumflex" unicode="&#xfb;" horiz-adv-x="659" d="M330 718 L430 635 L471 678 L356 802 L304 802 L188 678 L229 635 L330 718 Z M464 550 L464 221 C422 149 372 98 302 98 C224 98 191 146 191 239 L192 550 L80 550 L80 219 C80 43 168 -15 280 -15 C368 -15 428 37 467 88 L486 0 L575 0 L575 550 L464 550 Z " />
<glyph glyph-name="udieresis" unicode="&#xfc;" horiz-adv-x="659" d="M231 655 C265 655 286 682 286 714 C286 749 263 773 231 773 C197 773 176 750 176 714 C176 680 198 655 231 655 L231 655 Z M432 655 C466 655 487 682 487 714 C487 749 465 773 432 773 C399 773 377 750 377 714 C377 680 399 655 432 655 L432 655 Z M464 550 L464 221 C422 149 372 98 302 98 C224 98 191 146 191 239 L192 550 L80 550 L80 219 C80 43 168 -15 280 -15 C368 -15 428 37 467 88 L486 0 L575 0 L575 550 L464 550 Z " />
<glyph glyph-name="yacute" unicode="&#xfd;" horiz-adv-x="574" d="M449 704 L412 792 L211 665 L232 621 L449 704 Z M441 550 L294 121 L143 550 L31 550 L239 -1 C192 -132 155 -198 30 -148 L23 -253 C190 -300 271 -224 329 -60 L552 550 L441 550 Z " />
<glyph glyph-name="thorn" unicode="&#xfe;" horiz-adv-x="696" d="M381 566 C303 566 241 537 197 490 L197 850 L86 850 L86 -300 L197 -300 L197 58 C238 13 298 -16 378 -16 C542 -16 643 105 643 274 C643 442 543 566 381 566 L381 566 Z M365 83 C258 83 197 161 197 275 C197 388 257 467 365 467 C474 467 535 388 535 275 C535 162 474 83 365 83 L365 83 Z " />
<glyph glyph-name="ydieresis" unicode="&#xff;" horiz-adv-x="574" d="M191 655 C225 655 246 682 246 714 C246 749 223 773 191 773 C157 773 136 750 136 714 C136 680 158 655 191 655 L191 655 Z M392 655 C426 655 447 682 447 714 C447 749 425 773 392 773 C359 773 337 750 337 714 C337 680 359 655 392 655 L392 655 Z M441 550 L294 121 L143 550 L31 550 L239 -1 C192 -132 155 -198 30 -148 L23 -253 C190 -300 271 -224 329 -60 L552 550 L441 550 Z " />
<glyph glyph-name="Amacron" unicode="&#x100;" horiz-adv-x="817" d="M586 971 L236 971 L236 896 L586 896 L586 971 Z M667 0 L783 0 L471 773 L345 773 L33 0 L149 0 L224 191 L592 191 L667 0 Z M265 296 L408 659 L551 296 L265 296 Z " />
<glyph glyph-name="amacron" unicode="&#x101;" horiz-adv-x="702" d="M497 748 L147 748 L147 673 L497 673 L497 748 Z M505 550 L505 457 C466 524 401 566 310 566 C154 566 53 446 53 274 C53 103 153 -16 312 -16 C407 -16 469 28 505 91 L505 69 L522 0 L610 0 L610 550 L505 550 Z M333 83 C228 83 162 162 162 275 C162 388 228 467 333 467 C438 467 503 388 503 275 C503 161 437 83 333 83 L333 83 Z " />
<glyph glyph-name="Abreve" unicode="&#x102;" horiz-adv-x="817" d="M409 861 C506 861 553 921 560 996 L484 996 C477 969 459 931 409 931 C360 931 341 969 334 996 L258 996 C265 910 321 861 409 861 L409 861 Z M667 0 L783 0 L471 773 L345 773 L33 0 L149 0 L224 191 L592 191 L667 0 Z M265 296 L408 659 L551 296 L265 296 Z " />
<glyph glyph-name="abreve" unicode="&#x103;" horiz-adv-x="702" d="M320 638 C417 638 464 698 471 773 L395 773 C388 746 370 708 320 708 C271 708 252 746 245 773 L169 773 C176 687 232 638 320 638 L320 638 Z M505 550 L505 457 C466 524 401 566 310 566 C154 566 53 446 53 274 C53 103 153 -16 312 -16 C407 -16 469 28 505 91 L505 69 L522 0 L610 0 L610 550 L505 550 Z M333 83 C228 83 162 162 162 275 C162 388 228 467 333 467 C438 467 503 388 503 275 C503 161 437 83 333 83 L333 83 Z " />
<glyph glyph-name="Aogonek" unicode="&#x104;" horiz-adv-x="817" d="M683 -168 C661 -168 648 -152 648 -129 C648 -93 685 -50 727 0 L783 0 L471 773 L345 773 L33 0 L149 0 L224 191 L592 191 L667 0 L668 0 C633 -28 575 -86 575 -144 C575 -195 608 -233 673 -232 C713 -231 743 -208 766 -181 L733 -141 C718 -158 703 -168 683 -168 L683 -168 Z M265 296 L408 659 L551 296 L265 296 Z " />
<glyph glyph-name="aogonek" unicode="&#x105;" horiz-adv-x="702" d="M585 -141 C570 -158 555 -168 535 -168 C513 -168 500 -152 500 -129 C500 -93 537 -50 579 0 L610 0 L610 550 L505 550 L505 457 C466 524 401 566 310 566 C154 566 53 446 53 274 C53 103 153 -16 312 -16 C407 -16 469 28 505 91 L505 69 L522 1 L521 1 C486 -27 427 -85 427 -144 C427 -195 460 -233 525 -232 C565 -231 595 -208 618 -181 L585 -141 Z M333 83 C228 83 162 162 162 275 C162 388 228 467 333 467 C438 467 503 388 503 275 C503 161 437 83 333 83 L333 83 Z " />
<glyph glyph-name="Cacute" unicode="&#x106;" horiz-adv-x="806" d="M379 844 L596 927 L559 1015 L358 888 L379 844 Z M756 641 L667 577 C617 645 539 688 449 688 C282 688 176 562 176 386 C176 211 281 85 449 85 C539 85 617 127 666 195 L756 131 C685 35 573 -19 449 -19 C221 -19 66 150 66 386 C66 621 220 791 449 791 C574 791 687 737 756 641 L756 641 Z " />
<glyph glyph-name="cacute" unicode="&#x107;" horiz-adv-x="616" d="M277 621 L494 704 L457 792 L256 665 L277 621 Z M55 274 C55 449 171 566 343 566 C444 566 527 524 579 454 L500 400 C466 444 411 470 346 470 C232 470 162 388 162 274 C162 162 232 80 345 80 C412 80 467 108 499 150 L579 95 C531 28 450 -16 343 -16 C171 -16 55 99 55 274 L55 274 Z " />
<glyph glyph-name="Cdotaccent" unicode="&#x10a;" horiz-adv-x="806" d="M438 1012 C478 1012 505 982 505 940 C505 900 480 867 438 867 C397 867 370 897 370 940 C370 983 397 1012 438 1012 L438 1012 Z M756 641 L667 577 C617 645 539 688 449 688 C282 688 176 562 176 386 C176 211 281 85 449 85 C539 85 617 127 666 195 L756 131 C685 35 573 -19 449 -19 C221 -19 66 150 66 386 C66 621 220 791 449 791 C574 791 687 737 756 641 L756 641 Z " />
<glyph glyph-name="cdotaccent" unicode="&#x10b;" horiz-adv-x="616" d="M336 789 C376 789 403 759 403 717 C403 677 378 644 336 644 C295 644 268 674 268 717 C268 760 295 789 336 789 L336 789 Z M55 274 C55 449 171 566 343 566 C444 566 527 524 579 454 L500 400 C466 444 411 470 346 470 C232 470 162 388 162 274 C162 162 232 80 345 80 C412 80 467 108 499 150 L579 95 C531 28 450 -16 343 -16 C171 -16 55 99 55 274 L55 274 Z " />
<glyph glyph-name="Ccaron" unicode="&#x10c;" horiz-adv-x="806" d="M412 855 L296 978 L337 1021 L438 939 L538 1021 L579 978 L464 855 L412 855 Z M756 641 L667 577 C617 645 539 688 449 688 C282 688 176 562 176 386 C176 211 281 85 449 85 C539 85 617 127 666 195 L756 131 C685 35 573 -19 449 -19 C221 -19 66 150 66 386 C66 621 220 791 449 791 C574 791 687 737 756 641 L756 641 Z " />
<glyph glyph-name="ccaron" unicode="&#x10d;" horiz-adv-x="616" d="M310 632 L194 755 L235 798 L336 716 L436 798 L477 755 L362 632 L310 632 Z M55 274 C55 449 171 566 343 566 C444 566 527 524 579 454 L500 400 C466 444 411 470 346 470 C232 470 162 388 162 274 C162 162 232 80 345 80 C412 80 467 108 499 150 L579 95 C531 28 450 -16 343 -16 C171 -16 55 99 55 274 L55 274 Z " />
<glyph glyph-name="Dcaron" unicode="&#x10e;" horiz-adv-x="864" d="M443 855 L558 978 L517 1021 L417 939 L316 1021 L275 978 L391 855 L443 855 Z M446 773 L102 773 L102 0 L446 0 C657 0 799 170 799 389 C799 611 657 773 446 773 L446 773 Z M446 103 L212 103 L212 670 L446 670 C595 670 686 548 686 389 C686 231 593 103 446 103 L446 103 Z " />
<glyph glyph-name="dcaron" unicode="&#x10f;" horiz-adv-x="704" d="M718 864 L666 632 L712 616 L807 829 L718 864 Z M499 471 C463 528 404 566 312 566 C148 566 53 445 53 276 C53 108 147 -16 310 -16 C399 -16 461 21 499 82 L499 79 L519 0 L606 0 L606 860 L499 860 L499 471 Z M331 83 C223 83 162 162 162 275 C162 388 223 467 331 467 C438 467 499 389 499 275 C499 162 439 83 331 83 L331 83 Z " />
<glyph glyph-name="Dcroat" unicode="&#x110;" horiz-adv-x="851" d="M432 773 L127 773 L127 439 L52 439 L52 334 L127 334 L127 0 L432 0 C644 0 786 170 786 389 C786 611 643 773 432 773 L432 773 Z M432 105 L238 105 L238 334 L449 334 L449 439 L238 439 L238 668 L432 668 C581 668 671 547 671 389 C671 232 580 105 432 105 L432 105 Z " />
<glyph glyph-name="dcroat" unicode="&#x111;" horiz-adv-x="726" d="M678 749 L617 749 L617 860 L506 860 L506 749 L356 749 L356 670 L506 670 L506 488 C462 536 401 566 324 566 C162 566 59 448 59 274 C59 107 151 -16 320 -16 C405 -16 469 19 512 71 L532 0 L617 0 L617 670 L678 670 L678 749 Z M339 86 C230 86 171 162 171 274 C171 391 230 464 339 464 C446 464 505 388 505 274 C505 162 446 86 339 86 L339 86 Z " />
<glyph glyph-name="Emacron" unicode="&#x112;" horiz-adv-x="683" d="M532 971 L182 971 L182 896 L532 896 L532 971 Z M610 672 L610 773 L102 773 L102 0 L610 0 L610 101 L209 101 L209 350 L508 350 L508 448 L209 449 L209 672 L610 672 Z " />
<glyph glyph-name="emacron" unicode="&#x113;" horiz-adv-x="627" d="M147 673 L147 748 L497 748 L497 673 L147 673 Z M53 276 C53 453 157 566 322 566 C502 566 589 447 565 238 L166 238 C176 141 233 75 334 75 C400 75 466 102 511 145 L564 71 C506 16 427 -16 334 -16 C162 -16 53 100 53 276 L53 276 Z M166 312 L469 312 C469 404 428 479 324 479 C220 479 166 403 166 312 L166 312 Z " />
<glyph glyph-name="Edotaccent" unicode="&#x116;" horiz-adv-x="683" d="M356 867 C398 867 423 900 423 940 C423 982 396 1012 356 1012 C315 1012 288 983 288 940 C288 897 315 867 356 867 L356 867 Z M610 672 L610 773 L102 773 L102 0 L610 0 L610 101 L209 101 L209 350 L508 350 L508 448 L209 449 L209 672 L610 672 Z " />
<glyph glyph-name="edotaccent" unicode="&#x117;" horiz-adv-x="627" d="M321 789 C361 789 388 759 388 717 C388 677 363 644 321 644 C280 644 253 674 253 717 C253 760 280 789 321 789 L321 789 Z M53 276 C53 453 157 566 322 566 C502 566 589 447 565 238 L166 238 C176 141 233 75 334 75 C400 75 466 102 511 145 L564 71 C506 16 427 -16 334 -16 C162 -16 53 100 53 276 L53 276 Z M166 312 L469 312 C469 404 428 479 324 479 C220 479 166 403 166 312 L166 312 Z " />
<glyph glyph-name="Eogonek" unicode="&#x118;" horiz-adv-x="683" d="M610 672 L610 773 L102 773 L102 0 L488 0 C452 -29 396 -85 396 -143 C396 -194 429 -232 494 -231 C534 -230 564 -207 587 -180 L554 -140 C539 -157 524 -167 504 -167 C482 -167 469 -151 469 -128 C469 -92 505 -49 547 0 L610 0 L610 101 L209 101 L209 350 L508 350 L508 448 L209 449 L209 672 L610 672 Z " />
<glyph glyph-name="eogonek" unicode="&#x119;" horiz-adv-x="627" d="M558 -85 C543 -102 528 -112 508 -112 C486 -112 473 -96 473 -73 C473 -37 510 7 553 57 L548 57 C554 61 559 66 564 71 L511 145 C466 102 400 75 334 75 C233 75 176 141 166 238 L565 238 C589 447 502 566 322 566 C157 566 53 453 53 276 C53 100 162 -16 334 -16 C370 -16 404 -11 435 -2 C415 -28 400 -58 400 -88 C400 -139 433 -177 498 -176 C538 -175 568 -152 591 -125 L558 -85 Z M324 479 C428 479 469 404 469 312 L166 312 C166 403 220 479 324 479 L324 479 Z " />
<glyph glyph-name="Ecaron" unicode="&#x11a;" horiz-adv-x="683" d="M382 855 L497 978 L456 1021 L356 939 L255 1021 L214 978 L330 855 L382 855 Z M610 672 L610 773 L102 773 L102 0 L610 0 L610 101 L209 101 L209 350 L508 350 L508 448 L209 449 L209 672 L610 672 Z " />
<glyph glyph-name="ecaron" unicode="&#x11b;" horiz-adv-x="627" d="M295 632 L179 755 L220 798 L321 716 L421 798 L462 755 L347 632 L295 632 Z M53 276 C53 453 157 566 322 566 C502 566 589 447 565 238 L166 238 C176 141 233 75 334 75 C400 75 466 102 511 145 L564 71 C506 16 427 -16 334 -16 C162 -16 53 100 53 276 L53 276 Z M166 312 L469 312 C469 404 428 479 324 479 C220 479 166 403 166 312 L166 312 Z " />
<glyph glyph-name="Gbreve" unicode="&#x11e;" horiz-adv-x="834" d="M440 861 C537 861 584 921 591 996 L515 996 C508 969 490 931 440 931 C391 931 372 969 365 996 L289 996 C296 910 352 861 440 861 L440 861 Z M743 400 L461 400 L461 297 L627 297 L627 174 C586 119 526 87 442 87 C276 87 176 214 176 389 C176 564 277 690 436 690 C530 690 614 646 661 576 L744 642 C676 738 565 793 438 793 C216 793 66 625 66 388 C66 151 217 -16 440 -16 C566 -16 674 38 743 135 L743 400 Z " />
<glyph glyph-name="gbreve" unicode="&#x11f;" horiz-adv-x="694" d="M330 638 C427 638 474 698 481 773 L405 773 C398 746 380 708 330 708 C281 708 262 746 255 773 L179 773 C186 687 242 638 330 638 L330 638 Z M519 550 L502 468 C464 528 402 566 310 566 C149 566 53 449 53 286 C53 126 146 7 312 7 C403 7 463 44 499 98 L499 17 C499 -127 421 -203 317 -203 C240 -203 183 -159 152 -118 L71 -178 C119 -248 204 -300 323 -300 C520 -300 608 -161 608 7 L608 550 L519 550 Z M331 101 C223 101 162 176 162 285 C162 392 223 467 331 467 C439 467 499 392 499 285 C499 176 438 101 331 101 L331 101 Z " />
<glyph glyph-name="Gdotaccent" unicode="&#x120;" horiz-adv-x="834" d="M441 867 C483 867 508 900 508 940 C508 982 481 1012 441 1012 C400 1012 373 983 373 940 C373 897 400 867 441 867 L441 867 Z M743 400 L461 400 L461 297 L627 297 L627 174 C586 119 526 87 442 87 C276 87 176 214 176 389 C176 564 277 690 436 690 C530 690 614 646 661 576 L744 642 C676 738 565 793 438 793 C216 793 66 625 66 388 C66 151 217 -16 440 -16 C566 -16 674 38 743 135 L743 400 Z " />
<glyph glyph-name="gdotaccent" unicode="&#x121;" horiz-adv-x="694" d="M331 644 C373 644 398 677 398 717 C398 759 371 789 331 789 C290 789 263 760 263 717 C263 674 290 644 331 644 L331 644 Z M519 550 L502 468 C464 528 402 566 310 566 C149 566 53 449 53 286 C53 126 146 7 312 7 C403 7 463 44 499 98 L499 17 C499 -127 421 -203 317 -203 C240 -203 183 -159 152 -118 L71 -178 C119 -248 204 -300 323 -300 C520 -300 608 -161 608 7 L608 550 L519 550 Z M331 101 C223 101 162 176 162 285 C162 392 223 467 331 467 C439 467 499 392 499 285 C499 176 438 101 331 101 L331 101 Z " />
<glyph glyph-name="Gcommaaccent" unicode="&#x122;" horiz-adv-x="834" d="M743 400 L461 400 L461 297 L627 297 L627 174 C586 119 526 87 442 87 C276 87 176 214 176 389 C176 564 277 690 436 690 C530 690 614 646 661 576 L744 642 C676 738 565 793 438 793 C216 793 66 625 66 388 C66 151 217 -16 440 -16 C566 -16 674 38 743 135 L743 400 Z M441 -76 C405 -76 381 -103 381 -140 C381 -177 405 -204 441 -204 L447 -204 C438 -222 420 -231 391 -238 L404 -280 C473 -266 505 -220 505 -157 C505 -105 481 -76 441 -76 L441 -76 Z " />
<glyph glyph-name="gcommaaccent" unicode="&#x123;" horiz-adv-x="694" d="M328 650 C365 650 389 676 389 713 C389 750 365 777 329 777 L323 777 C332 795 349 805 378 812 L366 853 C299 840 265 796 265 732 C265 679 289 650 328 650 L328 650 Z M519 550 L502 468 C464 528 402 566 310 566 C149 566 53 449 53 286 C53 126 146 7 312 7 C403 7 463 44 499 98 L499 17 C499 -127 421 -203 317 -203 C240 -203 183 -159 152 -118 L71 -178 C119 -248 204 -300 323 -300 C520 -300 608 -161 608 7 L608 550 L519 550 Z M331 101 C223 101 162 176 162 285 C162 392 223 467 331 467 C439 467 499 392 499 285 C499 176 438 101 331 101 L331 101 Z " />
<glyph glyph-name="Hbar" unicode="&#x126;" horiz-adv-x="966" d="M872 608 L796 608 L796 773 L684 773 L684 608 L279 608 L279 773 L167 773 L167 608 L92 608 L92 548 L167 548 L167 0 L279 0 L279 334 L684 334 L684 0 L796 0 L796 548 L872 548 L872 608 Z M684 439 L279 439 L279 548 L684 548 L684 439 Z " />
<glyph glyph-name="hbar" unicode="&#x127;" horiz-adv-x="724" d="M444 565 C360 565 300 517 261 468 L261 666 L443 666 L443 742 L261 742 L261 849 L149 849 L149 742 L87 742 L87 666 L149 666 L149 0 L261 0 L261 344 C303 417 358 469 422 469 C500 469 533 421 533 328 L533 0 L645 0 L645 331 C645 507 556 565 444 565 L444 565 Z " />
<glyph glyph-name="Itilde" unicode="&#x128;" horiz-adv-x="313" d="M40 870 C40 902 49 927 85 927 C133 927 157 865 228 865 C288 865 340 908 340 996 L266 996 C266 965 258 940 226 940 C175 940 151 1000 82 1000 C21 1000 -35 952 -35 870 L40 870 Z M212 0 L102 0 L102 773 L212 773 L212 0 Z " />
<glyph glyph-name="itilde" unicode="&#x129;" horiz-adv-x="287" d="M26 647 C26 679 35 704 71 704 C119 704 143 642 214 642 C274 642 326 685 326 773 L252 773 C252 742 244 717 212 717 C161 717 137 777 68 777 C7 777 -49 729 -49 647 L26 647 Z M198 0 L89 0 L89 550 L198 550 L198 0 Z " />
<glyph glyph-name="Imacron" unicode="&#x12a;" horiz-adv-x="313" d="M-15 896 L-15 971 L335 971 L335 896 L-15 896 Z M212 0 L102 0 L102 773 L212 773 L212 0 Z " />
<glyph glyph-name="imacron" unicode="&#x12b;" horiz-adv-x="287" d="M-29 673 L-29 748 L321 748 L321 673 L-29 673 Z M198 0 L89 0 L89 550 L198 550 L198 0 Z " />
<glyph glyph-name="Iogonek" unicode="&#x12e;" horiz-adv-x="313" d="M212 0 L212 773 L102 773 L102 0 L103 0 C67 -29 11 -85 11 -143 C11 -194 44 -232 109 -231 C149 -230 179 -207 202 -180 L169 -140 C154 -157 139 -167 119 -167 C97 -167 84 -151 84 -128 C84 -92 120 -49 162 0 L212 0 Z " />
<glyph glyph-name="iogonek" unicode="&#x12f;" horiz-adv-x="287" d="M145 644 C187 644 212 677 212 717 C212 759 185 789 145 789 C104 789 77 760 77 717 C77 674 104 644 145 644 L145 644 Z M89 2 C54 -26 -3 -83 -3 -141 C-3 -192 30 -230 95 -229 C135 -228 165 -205 188 -178 L155 -138 C140 -155 125 -165 105 -165 C83 -165 70 -149 70 -126 C70 -91 105 -48 147 0 L198 0 L198 550 L89 550 L89 2 Z " />
<glyph glyph-name="Idotaccent" unicode="&#x130;" horiz-adv-x="313" d="M159 1012 C199 1012 226 982 226 940 C226 900 201 867 159 867 C118 867 91 897 91 940 C91 983 118 1012 159 1012 L159 1012 Z M212 0 L102 0 L102 773 L212 773 L212 0 Z " />
<glyph glyph-name="dotlessi" unicode="&#x131;" horiz-adv-x="287" d="M198 0 L89 0 L89 550 L198 550 L198 0 Z " />
<glyph glyph-name="IJ" unicode="&#x132;" horiz-adv-x="729" d="M213 272 L103 272 L103 773 L213 773 L213 272 Z M110 105 L188 165 C227 112 277 81 342 81 C444 81 518 156 518 300 L518 773 L628 773 L628 290 C628 122 546 -17 350 -17 C241 -17 155 35 110 105 L110 105 Z " />
<glyph glyph-name="ij" unicode="&#x133;" horiz-adv-x="597" d="M143 861 C185 861 214 830 214 786 C214 745 187 710 143 710 C101 710 73 742 73 786 C73 831 101 861 143 861 L143 861 Z M444 860 C486 860 514 829 514 785 C514 744 487 710 444 710 C402 710 373 741 373 785 C373 830 401 860 444 860 L444 860 Z M202 0 L93 0 L93 550 L202 550 L202 0 Z M504 550 L504 -17 C504 -178 416 -266 315 -316 L268 -231 C267 -231 392 -173 392 -30 L392 550 L504 550 Z " />
<glyph glyph-name="Kcommaaccent" unicode="&#x136;" horiz-adv-x="733" d="M368 386 L692 772 L555 772 L282 438 L212 438 L212 772 L102 772 L102 0 L212 0 L212 334 L285 334 L571 0 L713 0 L368 386 Z M385 -76 C349 -76 325 -103 325 -140 C325 -177 349 -204 385 -204 L391 -204 C382 -222 364 -231 335 -238 L348 -280 C417 -266 449 -220 449 -157 C449 -105 425 -76 385 -76 L385 -76 Z " />
<glyph glyph-name="kcommaaccent" unicode="&#x137;" horiz-adv-x="629" d="M366 283 L582 550 L443 550 L274 335 L197 335 L197 820 L87 820 L87 0 L197 0 L197 231 L275 231 L469 -1 L615 -1 L366 283 Z M326 -76 C290 -76 266 -103 266 -140 C266 -177 290 -204 326 -204 L332 -204 C323 -222 305 -231 276 -238 L289 -280 C358 -266 390 -220 390 -157 C390 -105 366 -76 326 -76 L326 -76 Z " />
<glyph glyph-name="Lacute" unicode="&#x139;" horiz-adv-x="662" d="M281 1015 L80 888 L101 844 L318 927 L281 1015 Z M212 103 L212 773 L102 773 L102 0 L610 0 L610 103 L212 103 Z " />
<glyph glyph-name="lacute" unicode="&#x13a;" horiz-adv-x="345" d="M81 921 L298 1004 L261 1092 L60 965 L81 921 Z M277 94 L294 7 C160 -41 84 6 84 129 L84 835 L193 835 L193 142 C193 91 218 80 277 94 L277 94 Z " />
<glyph glyph-name="Lcommaaccent" unicode="&#x13b;" horiz-adv-x="662" d="M212 103 L212 773 L102 773 L102 0 L610 0 L610 103 L212 103 Z M370 -76 C334 -76 310 -103 310 -140 C310 -177 334 -204 370 -204 L376 -204 C367 -222 349 -231 320 -238 L333 -280 C402 -266 434 -220 434 -157 C434 -105 410 -76 370 -76 L370 -76 Z " />
<glyph glyph-name="lcommaaccent" unicode="&#x13c;" horiz-adv-x="345" d="M294 7 L277 94 C218 80 193 91 193 142 L193 835 L84 835 L84 129 C84 6 160 -41 294 7 L294 7 Z M194 -76 C158 -76 134 -103 134 -140 C134 -177 158 -204 194 -204 L200 -204 C191 -222 173 -231 144 -238 L157 -280 C226 -266 258 -220 258 -157 C258 -105 234 -76 194 -76 L194 -76 Z " />
<glyph glyph-name="Lcaron" unicode="&#x13d;" horiz-adv-x="662" d="M411 742 L322 777 L270 545 L316 529 L411 742 Z M212 103 L212 773 L102 773 L102 0 L610 0 L610 103 L212 103 Z " />
<glyph glyph-name="lcaron" unicode="&#x13e;" horiz-adv-x="355" d="M296 606 L391 819 L302 854 L250 622 L296 606 Z M277 94 L294 7 C160 -41 84 6 84 129 L84 835 L193 835 L193 142 C193 91 218 80 277 94 L277 94 Z " />
<glyph glyph-name="Lslash" unicode="&#x141;" horiz-adv-x="640" d="M213 105 L213 339 L356 402 L356 494 L213 430 L213 773 L101 773 L101 381 L21 345 L21 254 L101 289 L101 0 L589 0 L589 105 L213 105 Z " />
<glyph glyph-name="lslash" unicode="&#x142;" horiz-adv-x="353" d="M306 105 C247 91 224 102 224 153 L224 416 L312 456 L312 547 L224 507 L224 850 L113 850 L113 457 L37 423 L37 332 L113 366 L113 140 C113 17 189 -30 323 18 L306 105 Z " />
<glyph glyph-name="Nacute" unicode="&#x143;" horiz-adv-x="903" d="M602 927 L565 1015 L364 888 L385 844 L602 927 Z M693 773 L693 178 L207 773 L102 773 L102 0 L210 0 L210 595 L696 0 L801 0 L801 773 L693 773 Z " />
<glyph glyph-name="nacute" unicode="&#x144;" horiz-adv-x="659" d="M478 704 L441 792 L240 665 L261 621 L478 704 Z M378 565 C291 565 230 513 191 462 L172 550 L83 550 L83 0 L194 0 L194 337 C237 410 292 462 356 462 C434 462 467 414 467 321 L467 0 L579 0 L579 331 C579 507 490 565 378 565 L378 565 Z " />
<glyph glyph-name="Ncommaaccent" unicode="&#x145;" horiz-adv-x="903" d="M693 773 L693 178 L207 773 L102 773 L102 0 L210 0 L210 595 L696 0 L801 0 L801 773 L693 773 Z M464 -76 C428 -76 404 -103 404 -140 C404 -177 428 -204 464 -204 L470 -204 C461 -222 443 -231 414 -238 L427 -280 C496 -266 528 -220 528 -157 C528 -105 504 -76 464 -76 L464 -76 Z " />
<glyph glyph-name="ncommaaccent" unicode="&#x146;" horiz-adv-x="659" d="M378 565 C291 565 230 513 191 462 L172 550 L83 550 L83 0 L194 0 L194 337 C237 410 292 462 356 462 C434 462 467 414 467 321 L467 0 L579 0 L579 331 C579 507 490 565 378 565 L378 565 Z M344 -76 C308 -76 284 -103 284 -140 C284 -177 308 -204 344 -204 L350 -204 C341 -222 323 -231 294 -238 L307 -280 C376 -266 408 -220 408 -157 C408 -105 384 -76 344 -76 L344 -76 Z " />
<glyph glyph-name="Ncaron" unicode="&#x147;" horiz-adv-x="903" d="M470 855 L585 978 L544 1021 L444 939 L343 1021 L302 978 L418 855 L470 855 Z M693 773 L693 178 L207 773 L102 773 L102 0 L210 0 L210 595 L696 0 L801 0 L801 773 L693 773 Z " />
<glyph glyph-name="ncaron" unicode="&#x148;" horiz-adv-x="659" d="M346 632 L461 755 L420 798 L320 716 L219 798 L178 755 L294 632 L346 632 Z M378 565 C291 565 230 513 191 462 L172 550 L83 550 L83 0 L194 0 L194 337 C237 410 292 462 356 462 C434 462 467 414 467 321 L467 0 L579 0 L579 331 C579 507 490 565 378 565 L378 565 Z " />
<glyph glyph-name="Eng" unicode="&#x14a;" horiz-adv-x="883" d="M670 773 L670 185 L211 773 L102 773 L102 0 L213 0 L213 588 L668 5 L668 -30 C668 -173 543 -231 544 -231 L593 -316 C693 -266 781 -178 781 -17 L781 773 L670 773 Z " />
<glyph glyph-name="eng" unicode="&#x14b;" horiz-adv-x="659" d="M378 565 C292 565 231 514 192 463 L172 550 L83 550 L83 0 L194 0 L194 344 C237 417 292 469 356 469 C434 469 467 421 467 328 L467 -30 C467 -173 341 -231 343 -231 L390 -316 C490 -266 579 -179 579 -17 L579 331 C579 507 490 565 378 565 L378 565 Z " />
<glyph glyph-name="Omacron" unicode="&#x14c;" horiz-adv-x="884" d="M269 896 L269 971 L619 971 L619 896 L269 896 Z M442 791 C668 791 817 625 817 387 C817 152 669 -18 442 -18 C216 -18 66 150 66 387 C66 621 214 791 442 791 L442 791 Z M442 689 C276 689 176 562 176 387 C176 212 275 85 442 85 C608 85 708 212 708 387 C708 563 605 689 442 689 L442 689 Z " />
<glyph glyph-name="omacron" unicode="&#x14d;" horiz-adv-x="684" d="M165 673 L165 748 L515 748 L515 673 L165 673 Z M342 566 C510 566 630 450 630 274 C630 120 530 -16 342 -16 C171 -16 53 100 53 274 C53 449 171 566 342 566 L342 566 Z M342 469 C226 469 164 381 164 274 C164 169 226 81 342 81 C456 81 519 169 519 274 C519 381 456 469 342 469 L342 469 Z " />
<glyph glyph-name="Ohungarumlaut" unicode="&#x150;" horiz-adv-x="884" d="M394 839 L471 991 L381 1021 L347 853 L394 839 Z M513 839 L590 991 L499 1021 L466 853 L513 839 Z M442 791 C668 791 817 625 817 387 C817 152 669 -18 442 -18 C216 -18 66 150 66 387 C66 621 214 791 442 791 L442 791 Z M442 689 C276 689 176 562 176 387 C176 212 275 85 442 85 C608 85 708 212 708 387 C708 563 605 689 442 689 L442 689 Z " />
<glyph glyph-name="ohungarumlaut" unicode="&#x151;" horiz-adv-x="684" d="M290 616 L367 768 L277 798 L243 630 L290 616 Z M409 616 L486 768 L395 798 L362 630 L409 616 Z M342 566 C510 566 630 450 630 274 C630 120 530 -16 342 -16 C171 -16 53 100 53 274 C53 449 171 566 342 566 L342 566 Z M342 469 C226 469 164 381 164 274 C164 169 226 81 342 81 C456 81 519 169 519 274 C519 381 456 469 342 469 L342 469 Z " />
<glyph glyph-name="OE" unicode="&#x152;" horiz-adv-x="1282" d="M1208 668 L1208 773 L720 773 L720 654 C656 740 556 791 434 791 C211 791 66 621 66 387 C66 150 213 -18 434 -18 C557 -18 656 34 720 120 L720 0 L1208 0 L1208 105 L825 105 L825 344 L1087 344 L1087 449 L825 449 L825 668 L1208 668 Z M442 86 C276 86 177 212 177 387 C177 561 277 687 442 687 C605 687 706 563 706 387 C706 213 607 86 442 86 L442 86 Z " />
<glyph glyph-name="oe" unicode="&#x153;" horiz-adv-x="1096" d="M788 566 C683 566 608 521 568 443 C522 520 440 566 335 566 C171 566 53 449 53 274 C53 100 171 -16 335 -16 C450 -16 527 35 570 109 C612 31 691 -16 799 -16 C893 -16 975 16 1033 71 L976 145 C932 102 866 75 799 75 C699 75 642 141 632 238 L1034 238 C1055 447 974 566 788 566 L788 566 Z M933 317 L632 317 C641 409 688 475 788 475 C890 475 936 409 933 317 L933 317 Z M342 81 C230 81 164 169 164 274 C164 381 230 469 342 469 C452 469 519 381 519 274 C519 169 452 81 342 81 L342 81 Z " />
<glyph glyph-name="Racute" unicode="&#x154;" horiz-adv-x="741" d="M534 927 L497 1015 L296 888 L317 844 L534 927 Z M706 0 L525 294 C641 326 702 405 702 525 C702 679 610 773 399 773 L102 773 L102 0 L212 0 L212 278 L393 278 C402 278 412 278 420 279 L584 0 L706 0 Z M212 376 L212 673 L399 673 C518 673 590 632 590 524 C590 416 511 376 393 376 L212 376 Z " />
<glyph glyph-name="racute" unicode="&#x155;" horiz-adv-x="461" d="M394 704 L357 792 L156 665 L177 621 L394 704 Z M336 566 C260 566 215 513 188 455 L168 550 L83 550 L83 0 L190 0 L190 275 C197 354 237 457 319 457 C346 457 366 450 386 439 L434 540 C413 552 377 566 336 566 L336 566 Z " />
<glyph glyph-name="Rcommaaccent" unicode="&#x156;" horiz-adv-x="741" d="M525 294 C641 326 702 405 702 525 C702 679 610 773 399 773 L102 773 L102 0 L212 0 L212 278 L393 278 C402 278 412 278 420 279 L584 0 L706 0 L525 294 Z M212 376 L212 673 L399 673 C518 673 590 632 590 524 C590 416 511 376 393 376 L212 376 Z M390 -76 C354 -76 330 -103 330 -140 C330 -177 354 -204 390 -204 L396 -204 C387 -222 369 -231 340 -238 L353 -280 C422 -266 454 -220 454 -157 C454 -105 430 -76 390 -76 L390 -76 Z " />
<glyph glyph-name="rcommaaccent" unicode="&#x157;" horiz-adv-x="461" d="M336 566 C260 566 215 513 188 455 L168 550 L83 550 L83 0 L190 0 L190 275 C197 354 237 457 319 457 C346 457 366 450 386 439 L434 540 C413 552 377 566 336 566 L336 566 Z M138 -76 C102 -76 78 -103 78 -140 C78 -177 102 -204 138 -204 L144 -204 C135 -222 117 -231 88 -238 L101 -280 C170 -266 202 -220 202 -157 C202 -105 178 -76 138 -76 L138 -76 Z " />
<glyph glyph-name="Rcaron" unicode="&#x158;" horiz-adv-x="741" d="M402 855 L517 978 L476 1021 L376 939 L275 1021 L234 978 L350 855 L402 855 Z M706 0 L525 294 C641 326 702 405 702 525 C702 679 610 773 399 773 L102 773 L102 0 L212 0 L212 278 L393 278 C402 278 412 278 420 279 L584 0 L706 0 Z M212 376 L212 673 L399 673 C518 673 590 632 590 524 C590 416 511 376 393 376 L212 376 Z " />
<glyph glyph-name="rcaron" unicode="&#x159;" horiz-adv-x="461" d="M262 632 L377 755 L336 798 L236 716 L135 798 L94 755 L210 632 L262 632 Z M336 566 C260 566 215 513 188 455 L168 550 L83 550 L83 0 L190 0 L190 275 C197 354 237 457 319 457 C346 457 366 450 386 439 L434 540 C413 552 377 566 336 566 L336 566 Z " />
<glyph glyph-name="Sacute" unicode="&#x15a;" horiz-adv-x="716" d="M307 844 L524 927 L487 1015 L286 888 L307 844 Z M57 117 L138 188 C196 123 268 84 364 84 C463 84 538 127 538 205 C538 397 97 317 97 580 C97 715 213 793 370 793 C467 793 559 763 628 685 L551 619 C499 673 436 697 366 697 C272 697 212 652 212 587 C212 413 653 484 653 216 C653 68 520 -16 362 -16 C242 -16 126 34 57 117 L57 117 Z " />
<glyph glyph-name="sacute" unicode="&#x15b;" horiz-adv-x="565" d="M222 669 L439 752 L402 840 L201 713 L222 669 Z M279 -16 C181 -16 87 20 42 63 L92 141 C131 105 209 72 282 72 C354 72 406 98 406 149 C406 277 63 187 63 399 C63 496 149 566 280 566 C372 566 442 536 498 492 L445 419 C401 454 349 478 280 478 C210 478 168 454 168 407 C168 277 514 371 514 155 C514 50 419 -16 279 -16 L279 -16 Z " />
<glyph glyph-name="Scedilla" unicode="&#x15e;" horiz-adv-x="716" d="M653 216 C653 484 212 413 212 587 C212 652 272 697 366 697 C436 697 499 673 551 619 L628 685 C559 763 467 793 370 793 C213 793 97 715 97 580 C97 317 538 397 538 205 C538 127 463 84 364 84 C268 84 196 123 138 188 L57 117 C121 40 225 -8 335 -15 L323 -99 C346 -100 441 -102 432 -160 C424 -218 321 -183 298 -169 L279 -226 C356 -262 483 -268 498 -167 C511 -77 414 -53 380 -51 L384 -15 C532 -8 653 75 653 216 L653 216 Z " />
<glyph glyph-name="scedilla" unicode="&#x15f;" horiz-adv-x="565" d="M514 155 C514 371 168 277 168 407 C168 454 210 478 280 478 C349 478 401 454 445 419 L498 492 C442 536 372 566 280 566 C149 566 63 496 63 399 C63 187 406 277 406 149 C406 98 354 72 282 72 C209 72 131 105 92 141 L42 63 C83 23 167 -10 256 -15 L244 -99 C267 -100 362 -102 353 -160 C345 -218 242 -183 219 -169 L200 -226 C215 -236 269 -255 322 -248 C370 -242 413 -218 419 -160 C429 -77 335 -53 301 -51 L305 -15 C430 -8 514 57 514 155 L514 155 Z " />
<glyph glyph-name="Scaron" unicode="&#x160;" horiz-adv-x="716" d="M340 855 L224 978 L265 1021 L366 939 L466 1021 L507 978 L392 855 L340 855 Z M57 117 L138 188 C196 123 268 84 364 84 C463 84 538 127 538 205 C538 397 97 317 97 580 C97 715 213 793 370 793 C467 793 559 763 628 685 L551 619 C499 673 436 697 366 697 C272 697 212 652 212 587 C212 413 653 484 653 216 C653 68 520 -16 362 -16 C242 -16 126 34 57 117 L57 117 Z " />
<glyph glyph-name="scaron" unicode="&#x161;" horiz-adv-x="565" d="M255 680 L139 803 L180 846 L281 764 L381 846 L422 803 L307 680 L255 680 Z M279 -16 C181 -16 87 20 42 63 L92 141 C131 105 209 72 282 72 C354 72 406 98 406 149 C406 277 63 187 63 399 C63 496 149 566 280 566 C372 566 442 536 498 492 L445 419 C401 454 349 478 280 478 C210 478 168 454 168 407 C168 277 514 371 514 155 C514 50 419 -16 279 -16 L279 -16 Z " />
<glyph glyph-name="uni0162" unicode="&#x162;" horiz-adv-x="709" d="M408 0 L408 670 L668 670 L668 773 L40 773 L40 670 L299 670 L299 0 L330 0 L316 -99 C339 -100 434 -102 425 -160 C417 -218 314 -183 291 -169 L272 -226 C349 -262 476 -268 491 -167 C504 -77 407 -53 373 -51 L378 0 L408 0 Z " />
<glyph glyph-name="uni0163" unicode="&#x163;" horiz-adv-x="466" d="M304 -51 L308 -16 C345 -17 385 -9 428 9 L418 98 C317 53 232 79 232 198 L232 459 L393 459 L400 550 L232 550 L232 722 L124 722 L124 550 L35 550 L35 459 L124 459 L124 206 C124 87 179 12 260 -10 L247 -99 C270 -100 365 -102 356 -160 C348 -218 245 -183 222 -169 L203 -226 C280 -262 407 -268 422 -167 C435 -77 338 -53 304 -51 L304 -51 Z " />
<glyph glyph-name="Tcaron" unicode="&#x164;" horiz-adv-x="709" d="M381 855 L496 978 L455 1021 L355 939 L254 1021 L213 978 L329 855 L381 855 Z M668 773 L40 773 L40 670 L299 670 L299 0 L408 0 L408 670 L668 670 L668 773 Z " />
<glyph glyph-name="tcaron" unicode="&#x165;" horiz-adv-x="466" d="M443 828 L354 863 L302 631 L348 615 L443 828 Z M232 198 L232 459 L393 459 L400 550 L232 550 L232 722 L124 722 L124 550 L35 550 L35 459 L124 459 L124 206 C124 16 263 -61 428 9 L418 98 C317 53 232 79 232 198 L232 198 Z " />
<glyph glyph-name="Tbar" unicode="&#x166;" horiz-adv-x="709" d="M668 668 L668 773 L40 773 L40 668 L298 668 L298 480 L120 480 L120 375 L298 375 L298 0 L409 0 L409 375 L588 375 L588 480 L409 480 L409 668 L668 668 Z " />
<glyph glyph-name="tbar" unicode="&#x167;" horiz-adv-x="466" d="M418 93 C317 48 232 74 232 194 L232 273 L370 273 L374 355 L232 355 L232 459 L393 459 L400 550 L232 550 L232 722 L121 722 L121 550 L35 550 L35 459 L121 459 L121 355 L55 355 L55 273 L121 273 L121 201 C121 11 263 -66 428 4 L418 93 Z " />
<glyph glyph-name="Utilde" unicode="&#x168;" horiz-adv-x="843" d="M304 870 C304 902 313 927 349 927 C397 927 421 865 492 865 C552 865 604 908 604 996 L530 996 C530 965 522 940 490 940 C439 940 415 1000 346 1000 C285 1000 229 952 229 870 L304 870 Z M746 773 L746 343 C746 126 637 -18 422 -18 C204 -18 97 126 97 343 L97 773 L207 773 L207 353 C207 163 299 79 422 79 C542 79 636 161 636 353 L636 773 L746 773 Z " />
<glyph glyph-name="utilde" unicode="&#x169;" horiz-adv-x="659" d="M257 704 C305 704 329 642 400 642 C460 642 512 685 512 773 L438 773 C438 742 430 717 398 717 C347 717 323 777 254 777 C193 777 137 729 137 647 L212 647 C212 679 221 704 257 704 L257 704 Z M464 550 L464 221 C422 149 372 98 302 98 C224 98 191 146 191 239 L192 550 L80 550 L80 219 C80 43 168 -15 280 -15 C368 -15 428 37 467 88 L486 0 L575 0 L575 550 L464 550 Z " />
<glyph glyph-name="Umacron" unicode="&#x16a;" horiz-adv-x="843" d="M249 896 L249 971 L599 971 L599 896 L249 896 Z M746 773 L746 343 C746 126 637 -18 422 -18 C204 -18 97 126 97 343 L97 773 L207 773 L207 353 C207 163 299 79 422 79 C542 79 636 161 636 353 L636 773 L746 773 Z " />
<glyph glyph-name="umacron" unicode="&#x16b;" horiz-adv-x="659" d="M507 748 L157 748 L157 673 L507 673 L507 748 Z M464 550 L464 221 C422 149 372 98 302 98 C224 98 191 146 191 239 L192 550 L80 550 L80 219 C80 43 168 -15 280 -15 C368 -15 428 37 467 88 L486 0 L575 0 L575 550 L464 550 Z " />
<glyph glyph-name="Uring" unicode="&#x16e;" horiz-adv-x="843" d="M422 1062 C485 1062 528 1016 528 949 C528 888 487 834 422 834 C358 834 315 883 315 949 C315 1019 356 1062 422 1062 L422 1062 Z M422 1003 C391 1003 372 980 372 949 C372 918 392 894 422 894 C452 894 471 920 471 949 C471 980 450 1003 422 1003 L422 1003 Z M746 773 L746 343 C746 126 637 -18 422 -18 C204 -18 97 126 97 343 L97 773 L207 773 L207 353 C207 163 299 79 422 79 C542 79 636 161 636 353 L636 773 L746 773 Z " />
<glyph glyph-name="uring" unicode="&#x16f;" horiz-adv-x="659" d="M330 611 C395 611 436 665 436 726 C436 793 393 839 330 839 C264 839 223 796 223 726 C223 660 266 611 330 611 L330 611 Z M330 780 C358 780 379 757 379 726 C379 697 360 671 330 671 C300 671 280 695 280 726 C280 757 299 780 330 780 L330 780 Z M464 550 L464 221 C422 149 372 98 302 98 C224 98 191 146 191 239 L192 550 L80 550 L80 219 C80 43 168 -15 280 -15 C368 -15 428 37 467 88 L486 0 L575 0 L575 550 L464 550 Z " />
<glyph glyph-name="Uhungarumlaut" unicode="&#x170;" horiz-adv-x="843" d="M374 839 L451 991 L361 1021 L327 853 L374 839 Z M493 839 L570 991 L479 1021 L446 853 L493 839 Z M746 773 L746 343 C746 126 637 -18 422 -18 C204 -18 97 126 97 343 L97 773 L207 773 L207 353 C207 163 299 79 422 79 C542 79 636 161 636 353 L636 773 L746 773 Z " />
<glyph glyph-name="uhungarumlaut" unicode="&#x171;" horiz-adv-x="659" d="M359 768 L269 798 L235 630 L282 616 L359 768 Z M401 616 L478 768 L387 798 L354 630 L401 616 Z M464 550 L464 221 C422 149 372 98 302 98 C224 98 191 146 191 239 L192 550 L80 550 L80 219 C80 43 168 -15 280 -15 C368 -15 428 37 467 88 L486 0 L575 0 L575 550 L464 550 Z " />
<glyph glyph-name="Uogonek" unicode="&#x172;" horiz-adv-x="843" d="M636 773 L636 353 C636 161 542 79 422 79 C299 79 207 163 207 353 L207 773 L97 773 L97 343 C97 126 204 -18 422 -18 C440 -18 457 -17 474 -15 C442 -46 406 -91 406 -137 C406 -188 439 -226 504 -225 C544 -224 574 -201 597 -174 L564 -134 C549 -151 534 -161 514 -161 C492 -161 479 -145 479 -122 C479 -87 515 -44 557 5 C682 54 746 177 746 343 L746 773 L636 773 Z " />
<glyph glyph-name="uogonek" unicode="&#x173;" horiz-adv-x="659" d="M553 -139 C538 -156 523 -166 503 -166 C481 -166 468 -150 468 -127 C468 -92 504 -49 545 0 L575 0 L575 550 L464 550 L464 221 C422 149 372 98 302 98 C224 98 191 146 191 239 L192 550 L80 550 L80 219 C80 43 168 -15 280 -15 C368 -15 428 37 467 88 L486 0 C451 -28 395 -85 395 -142 C395 -193 428 -231 493 -230 C533 -229 563 -206 586 -179 L553 -139 Z " />
<glyph glyph-name="Wcircumflex" unicode="&#x174;" horiz-adv-x="1001" d="M500 941 L600 858 L641 901 L526 1025 L474 1025 L358 901 L399 858 L500 941 Z M840 773 L718 183 L544 740 L460 740 L275 182 L155 773 L40 773 L213 0 L321 0 L500 565 L669 0 L779 0 L961 773 L840 773 Z " />
<glyph glyph-name="wcircumflex" unicode="&#x175;" horiz-adv-x="864" d="M432 718 L532 635 L573 678 L458 802 L406 802 L290 678 L331 635 L432 718 Z M716 550 L603 151 L481 534 L382 534 L259 148 L141 550 L30 550 L210 0 L319 0 L432 410 L544 0 L652 0 L832 550 L716 550 Z " />
<glyph glyph-name="Ycircumflex" unicode="&#x176;" horiz-adv-x="713" d="M356 938 L456 855 L497 898 L382 1022 L330 1022 L214 898 L255 855 L356 938 Z M685 773 L561 773 L356 376 L151 773 L27 773 L298 290 L298 0 L412 0 L412 287 L685 773 Z " />
<glyph glyph-name="ycircumflex" unicode="&#x177;" horiz-adv-x="574" d="M290 718 L390 635 L431 678 L316 802 L264 802 L148 678 L189 635 L290 718 Z M441 550 L294 121 L143 550 L31 550 L239 -1 C192 -132 155 -198 30 -148 L23 -253 C190 -300 271 -224 329 -60 L552 550 L441 550 Z " />
<glyph glyph-name="Ydieresis" unicode="&#x178;" horiz-adv-x="713" d="M257 875 C291 875 312 902 312 934 C312 969 289 993 257 993 C223 993 202 970 202 934 C202 900 224 875 257 875 L257 875 Z M458 875 C492 875 513 902 513 934 C513 969 491 993 458 993 C425 993 403 970 403 934 C403 900 425 875 458 875 L458 875 Z M685 773 L561 773 L356 376 L151 773 L27 773 L298 290 L298 0 L412 0 L412 287 L685 773 Z " />
<glyph glyph-name="Zacute" unicode="&#x179;" horiz-adv-x="766" d="M541 927 L504 1015 L303 888 L324 844 L541 927 Z M706 772 L65 772 L65 667 L544 673 L65 59 L65 0 L706 0 L706 105 L226 99 L706 714 L706 772 Z " />
<glyph glyph-name="zacute" unicode="&#x17a;" horiz-adv-x="553" d="M437 704 L400 792 L199 665 L220 621 L437 704 Z M511 550 L43 550 L43 446 L379 453 L43 104 L43 0 L511 0 L511 104 L167 97 L511 446 L511 550 Z " />
<glyph glyph-name="Zdotaccent" unicode="&#x17b;" horiz-adv-x="766" d="M383 867 C425 867 450 900 450 940 C450 982 423 1012 383 1012 C342 1012 315 983 315 940 C315 897 342 867 383 867 L383 867 Z M706 772 L65 772 L65 667 L544 673 L65 59 L65 0 L706 0 L706 105 L226 99 L706 714 L706 772 Z " />
<glyph glyph-name="zdotaccent" unicode="&#x17c;" horiz-adv-x="553" d="M279 644 C321 644 346 677 346 717 C346 759 319 789 279 789 C238 789 211 760 211 717 C211 674 238 644 279 644 L279 644 Z M511 550 L43 550 L43 446 L379 453 L43 104 L43 0 L511 0 L511 104 L167 97 L511 446 L511 550 Z " />
<glyph glyph-name="Zcaron" unicode="&#x17d;" horiz-adv-x="766" d="M409 855 L524 978 L483 1021 L383 939 L282 1021 L241 978 L357 855 L409 855 Z M706 772 L65 772 L65 667 L544 673 L65 59 L65 0 L706 0 L706 105 L226 99 L706 714 L706 772 Z " />
<glyph glyph-name="zcaron" unicode="&#x17e;" horiz-adv-x="553" d="M305 632 L420 755 L379 798 L279 716 L178 798 L137 755 L253 632 L305 632 Z M511 550 L43 550 L43 446 L379 453 L43 104 L43 0 L511 0 L511 104 L167 97 L511 446 L511 550 Z " />
<glyph glyph-name="longs" unicode="&#x17f;" horiz-adv-x="413" d="M100 629 L100 550 L38 550 L38 452 L100 452 L100 0 L207 0 L207 638 C207 778 303 787 400 750 L400 840 C259 895 100 847 100 629 L100 629 Z " />
<glyph glyph-name="Ohorn" unicode="&#x1a0;" horiz-adv-x="884" d="M691 702 L707 702 C811 702 826 777 811 860 L722 860 C731 809 719 784 669 785 C594 787 519 792 443 792 L442 792 L441 792 C214 791 66 621 66 387 C66 150 216 -18 442 -18 C669 -18 817 152 817 387 C817 520 771 630 691 702 L691 702 Z M442 85 C275 85 176 212 176 387 C176 562 276 689 442 689 C605 689 708 563 708 387 C708 212 608 85 442 85 L442 85 Z " />
<glyph glyph-name="ohorn" unicode="&#x1a1;" horiz-adv-x="693" d="M661 637 L572 637 C581 586 569 561 519 562 C443 564 422 566 346 566 C175 566 58 449 58 274 C58 100 175 -16 346 -16 C534 -16 635 120 635 274 C635 363 604 437 552 488 C657 485 676 559 661 637 L661 637 Z M346 81 C235 81 169 169 169 274 C169 381 235 469 346 469 C457 469 523 381 523 274 C523 169 456 81 346 81 L346 81 Z " />
<glyph glyph-name="Uhorn" unicode="&#x1af;" horiz-adv-x="874" d="M903 849 L814 849 C823 798 811 772 761 773 L636 773 L636 355 C636 163 542 81 422 81 C300 81 208 165 208 355 L208 773 L98 773 L98 345 C98 128 205 -16 422 -16 C638 -16 746 128 746 345 L746 691 L792 691 C897 691 912 766 903 849 L903 849 Z " />
<glyph glyph-name="uhorn" unicode="&#x1b0;" horiz-adv-x="734" d="M715 626 L626 626 C635 577 624 551 578 550 L469 550 L469 223 C427 150 378 98 307 98 C229 98 196 146 196 239 L196 550 L84 550 L84 219 C84 43 173 -15 285 -15 C373 -15 434 37 472 88 L491 0 L580 0 L580 468 L605 468 C709 468 724 543 715 626 L715 626 Z " />
<glyph glyph-name="uni01CD" unicode="&#x1cd;" horiz-adv-x="817" d="M436 855 L551 978 L510 1021 L410 939 L309 1021 L268 978 L384 855 L436 855 Z M667 0 L783 0 L471 773 L345 773 L33 0 L149 0 L224 191 L592 191 L667 0 Z M265 296 L408 659 L551 296 L265 296 Z " />
<glyph glyph-name="uni01CE" unicode="&#x1ce;" horiz-adv-x="702" d="M347 632 L462 755 L421 798 L321 716 L220 798 L179 755 L295 632 L347 632 Z M505 550 L505 457 C466 524 401 566 310 566 C154 566 53 446 53 274 C53 103 153 -16 312 -16 C407 -16 469 28 505 91 L505 69 L522 0 L610 0 L610 550 L505 550 Z M333 83 C228 83 162 162 162 275 C162 388 228 467 333 467 C438 467 503 388 503 275 C503 161 437 83 333 83 L333 83 Z " />
<glyph glyph-name="uni01CF" unicode="&#x1cf;" horiz-adv-x="313" d="M133 855 L17 978 L58 1021 L159 939 L259 1021 L300 978 L185 855 L133 855 Z M212 0 L102 0 L102 773 L212 773 L212 0 Z " />
<glyph glyph-name="uni01D0" unicode="&#x1d0;" horiz-adv-x="287" d="M119 632 L3 755 L44 798 L145 716 L245 798 L286 755 L171 632 L119 632 Z M198 0 L89 0 L89 550 L198 550 L198 0 Z " />
<glyph glyph-name="uni01D1" unicode="&#x1d1;" horiz-adv-x="884" d="M417 855 L301 978 L342 1021 L443 939 L543 1021 L584 978 L469 855 L417 855 Z M442 791 C668 791 817 625 817 387 C817 152 669 -18 442 -18 C216 -18 66 150 66 387 C66 621 214 791 442 791 L442 791 Z M442 689 C276 689 176 562 176 387 C176 212 275 85 442 85 C608 85 708 212 708 387 C708 563 605 689 442 689 L442 689 Z " />
<glyph glyph-name="uni01D2" unicode="&#x1d2;" horiz-adv-x="684" d="M313 632 L197 755 L238 798 L339 716 L439 798 L480 755 L365 632 L313 632 Z M342 566 C510 566 630 450 630 274 C630 120 530 -16 342 -16 C171 -16 53 100 53 274 C53 449 171 566 342 566 L342 566 Z M342 469 C226 469 164 381 164 274 C164 169 226 81 342 81 C456 81 519 169 519 274 C519 381 456 469 342 469 L342 469 Z " />
<glyph glyph-name="uni01D3" unicode="&#x1d3;" horiz-adv-x="843" d="M397 855 L281 978 L322 1021 L423 939 L523 1021 L564 978 L449 855 L397 855 Z M746 773 L746 343 C746 126 637 -18 422 -18 C204 -18 97 126 97 343 L97 773 L207 773 L207 353 C207 163 299 79 422 79 C542 79 636 161 636 353 L636 773 L746 773 Z " />
<glyph glyph-name="uni01D4" unicode="&#x1d4;" horiz-adv-x="659" d="M357 632 L472 755 L431 798 L331 716 L230 798 L189 755 L305 632 L357 632 Z M464 550 L464 221 C422 149 372 98 302 98 C224 98 191 146 191 239 L192 550 L80 550 L80 219 C80 43 168 -15 280 -15 C368 -15 428 37 467 88 L486 0 L575 0 L575 550 L464 550 Z " />
<glyph glyph-name="uni01D5" unicode="&#x1d5;" horiz-adv-x="843" d="M251 1119 L251 1194 L601 1194 L601 1119 L251 1119 Z M323 996 C355 996 378 972 378 937 C378 905 357 878 323 878 C290 878 268 903 268 937 C268 973 289 996 323 996 L323 996 Z M524 996 C557 996 579 972 579 937 C579 905 558 878 524 878 C491 878 469 903 469 937 C469 973 491 996 524 996 L524 996 Z M746 773 L746 343 C746 126 637 -18 422 -18 C204 -18 97 126 97 343 L97 773 L207 773 L207 353 C207 163 299 79 422 79 C542 79 636 161 636 353 L636 773 L746 773 Z " />
<glyph glyph-name="uni01D6" unicode="&#x1d6;" horiz-adv-x="659" d="M509 971 L159 971 L159 896 L509 896 L509 971 Z M176 714 C176 680 198 655 231 655 C265 655 286 682 286 714 C286 749 263 773 231 773 C197 773 176 750 176 714 L176 714 Z M377 714 C377 680 399 655 432 655 C466 655 487 682 487 714 C487 749 465 773 432 773 C399 773 377 750 377 714 L377 714 Z M464 550 L464 221 C422 149 372 98 302 98 C224 98 191 146 191 239 L192 550 L80 550 L80 219 C80 43 168 -15 280 -15 C368 -15 428 37 467 88 L486 0 L575 0 L575 550 L464 550 Z " />
<glyph glyph-name="uni01D7" unicode="&#x1d7;" horiz-adv-x="843" d="M366 1067 L583 1150 L546 1238 L345 1111 L366 1067 Z M323 996 C355 996 378 972 378 937 C378 905 357 878 323 878 C290 878 268 903 268 937 C268 973 289 996 323 996 L323 996 Z M524 996 C557 996 579 972 579 937 C579 905 558 878 524 878 C491 878 469 903 469 937 C469 973 491 996 524 996 L524 996 Z M746 773 L746 343 C746 126 637 -18 422 -18 C204 -18 97 126 97 343 L97 773 L207 773 L207 353 C207 163 299 79 422 79 C542 79 636 161 636 353 L636 773 L746 773 Z " />
<glyph glyph-name="uni01D8" unicode="&#x1d8;" horiz-adv-x="659" d="M491 927 L454 1015 L253 888 L274 844 L491 927 Z M231 655 C265 655 286 682 286 714 C286 749 263 773 231 773 C197 773 176 750 176 714 C176 680 198 655 231 655 L231 655 Z M377 714 C377 680 399 655 432 655 C466 655 487 682 487 714 C487 749 465 773 432 773 C399 773 377 750 377 714 L377 714 Z M464 550 L464 221 C422 149 372 98 302 98 C224 98 191 146 191 239 L192 550 L80 550 L80 219 C80 43 168 -15 280 -15 C368 -15 428 37 467 88 L486 0 L575 0 L575 550 L464 550 Z " />
<glyph glyph-name="uni01D9" unicode="&#x1d9;" horiz-adv-x="843" d="M399 1078 L283 1201 L324 1244 L425 1162 L525 1244 L566 1201 L451 1078 L399 1078 Z M323 996 C355 996 378 972 378 937 C378 905 357 878 323 878 C290 878 268 903 268 937 C268 973 289 996 323 996 L323 996 Z M524 996 C557 996 579 972 579 937 C579 905 558 878 524 878 C491 878 469 903 469 937 C469 973 491 996 524 996 L524 996 Z M746 773 L746 343 C746 126 637 -18 422 -18 C204 -18 97 126 97 343 L97 773 L207 773 L207 353 C207 163 299 79 422 79 C542 79 636 161 636 353 L636 773 L746 773 Z " />
<glyph glyph-name="uni01DA" unicode="&#x1da;" horiz-adv-x="659" d="M359 855 L474 978 L433 1021 L333 939 L232 1021 L191 978 L307 855 L359 855 Z M231 655 C265 655 286 682 286 714 C286 749 263 773 231 773 C197 773 176 750 176 714 C176 680 198 655 231 655 L231 655 Z M432 773 C399 773 377 750 377 714 C377 680 399 655 432 655 C466 655 487 682 487 714 C487 749 465 773 432 773 L432 773 Z M464 550 L464 221 C422 149 372 98 302 98 C224 98 191 146 191 239 L192 550 L80 550 L80 219 C80 43 168 -15 280 -15 C368 -15 428 37 467 88 L486 0 L575 0 L575 550 L464 550 Z " />
<glyph glyph-name="uni01DB" unicode="&#x1db;" horiz-adv-x="843" d="M476 1067 L498 1111 L296 1238 L259 1150 L476 1067 Z M323 996 C355 996 378 972 378 937 C378 905 357 878 323 878 C290 878 268 903 268 937 C268 973 289 996 323 996 L323 996 Z M524 996 C557 996 579 972 579 937 C579 905 558 878 524 878 C491 878 469 903 469 937 C469 973 491 996 524 996 L524 996 Z M746 773 L746 343 C746 126 637 -18 422 -18 C204 -18 97 126 97 343 L97 773 L207 773 L207 353 C207 163 299 79 422 79 C542 79 636 161 636 353 L636 773 L746 773 Z " />
<glyph glyph-name="uni01DC" unicode="&#x1dc;" horiz-adv-x="659" d="M406 888 L204 1015 L167 927 L384 844 L406 888 Z M176 714 C176 680 198 655 231 655 C265 655 286 682 286 714 C286 749 263 773 231 773 C197 773 176 750 176 714 L176 714 Z M377 714 C377 680 399 655 432 655 C466 655 487 682 487 714 C487 749 465 773 432 773 C399 773 377 750 377 714 L377 714 Z M464 550 L464 221 C422 149 372 98 302 98 C224 98 191 146 191 239 L192 550 L80 550 L80 219 C80 43 168 -15 280 -15 C368 -15 428 37 467 88 L486 0 L575 0 L575 550 L464 550 Z " />
<glyph glyph-name="uni01DE" unicode="&#x1de;" horiz-adv-x="817" d="M588 1194 L238 1194 L238 1119 L588 1119 L588 1194 Z M255 937 C255 903 277 878 310 878 C344 878 365 905 365 937 C365 972 342 996 310 996 C276 996 255 973 255 937 L255 937 Z M456 937 C456 903 478 878 511 878 C545 878 566 905 566 937 C566 972 544 996 511 996 C478 996 456 973 456 937 L456 937 Z M667 0 L783 0 L471 773 L345 773 L33 0 L149 0 L224 191 L592 191 L667 0 Z M265 296 L408 659 L551 296 L265 296 Z " />
<glyph glyph-name="uni01DF" unicode="&#x1df;" horiz-adv-x="702" d="M499 971 L149 971 L149 896 L499 896 L499 971 Z M166 714 C166 680 188 655 221 655 C255 655 276 682 276 714 C276 749 253 773 221 773 C187 773 166 750 166 714 L166 714 Z M367 714 C367 680 389 655 422 655 C456 655 477 682 477 714 C477 749 455 773 422 773 C389 773 367 750 367 714 L367 714 Z M505 550 L505 457 C466 524 401 566 310 566 C154 566 53 446 53 274 C53 103 153 -16 312 -16 C407 -16 469 28 505 91 L505 69 L522 0 L610 0 L610 550 L505 550 Z M333 83 C228 83 162 162 162 275 C162 388 228 467 333 467 C438 467 503 388 503 275 C503 161 437 83 333 83 L333 83 Z " />
<glyph glyph-name="Gcaron" unicode="&#x1e6;" horiz-adv-x="834" d="M467 855 L582 978 L541 1021 L441 939 L340 1021 L299 978 L415 855 L467 855 Z M743 400 L461 400 L461 297 L627 297 L627 174 C586 119 526 87 442 87 C276 87 176 214 176 389 C176 564 277 690 436 690 C530 690 614 646 661 576 L744 642 C676 738 565 793 438 793 C216 793 66 625 66 388 C66 151 217 -16 440 -16 C566 -16 674 38 743 135 L743 400 Z " />
<glyph glyph-name="gcaron" unicode="&#x1e7;" horiz-adv-x="694" d="M357 632 L472 755 L431 798 L331 716 L230 798 L189 755 L305 632 L357 632 Z M519 550 L502 468 C464 528 402 566 310 566 C149 566 53 449 53 286 C53 126 146 7 312 7 C403 7 463 44 499 98 L499 17 C499 -127 421 -203 317 -203 C240 -203 183 -159 152 -118 L71 -178 C119 -248 204 -300 323 -300 C520 -300 608 -161 608 7 L608 550 L519 550 Z M331 101 C223 101 162 176 162 285 C162 392 223 467 331 467 C439 467 499 392 499 285 C499 176 438 101 331 101 L331 101 Z " />
<glyph glyph-name="aeacute" unicode="&#x1fd;" horiz-adv-x="1021" d="M654 704 L617 792 L416 665 L437 621 L654 704 Z M713 566 C610 566 537 522 496 447 C452 521 375 566 279 566 C214 566 129 545 66 516 L107 423 C150 444 218 467 281 467 C380 467 444 409 445 316 C404 330 349 344 285 344 C139 344 53 277 53 167 C53 57 141 -15 273 -15 C386 -15 458 38 494 113 C536 32 615 -16 725 -16 C819 -16 901 16 959 71 L902 145 C857 102 792 75 725 75 C624 75 568 141 557 238 L959 238 C981 447 899 566 713 566 L713 566 Z M859 317 L557 317 C567 409 614 475 713 475 C816 475 861 409 859 317 L859 317 Z M290 81 C220 81 168 113 168 171 C168 228 217 255 305 255 C362 255 410 243 445 231 C440 134 381 81 290 81 L290 81 Z " />
<glyph glyph-name="Oslashacute" unicode="&#x1fe;" horiz-adv-x="914" d="M615 927 L578 1015 L377 888 L398 844 L615 927 Z M847 711 L780 779 L704 702 C640 759 556 791 456 791 C228 791 80 621 80 387 C80 293 104 210 146 144 L66 64 L133 -3 L208 72 C271 15 356 -18 456 -18 C683 -18 831 152 831 387 C831 481 808 564 766 630 L847 711 Z M191 387 C191 561 291 687 456 687 C525 687 583 665 627 625 L226 224 C203 270 191 326 191 387 L191 387 Z M720 387 C720 213 621 86 456 86 C386 86 327 108 284 148 L685 549 C708 503 720 448 720 387 L720 387 Z " />
<glyph glyph-name="oslashacute" unicode="&#x1ff;" horiz-adv-x="690" d="M504 704 L467 792 L266 665 L287 621 L504 704 Z M575 459 L631 515 L588 557 L534 503 C484 543 419 566 345 566 C174 566 56 449 56 274 C56 199 78 135 117 86 L58 27 L101 -15 L159 43 C208 5 272 -16 345 -16 C533 -16 633 120 633 274 C633 348 612 411 575 459 L575 459 Z M167 274 C167 381 233 469 345 469 C391 469 430 454 459 428 L195 164 C177 196 167 234 167 274 L167 274 Z M345 81 C300 81 263 95 234 118 L496 380 C513 350 522 313 522 274 C522 169 455 81 345 81 L345 81 Z " />
<glyph glyph-name="Scommaaccent" unicode="&#x218;" horiz-adv-x="716" d="M212 587 C212 652 272 697 366 697 C436 697 499 673 551 619 L628 685 C559 763 467 793 370 793 C213 793 97 715 97 580 C97 317 538 397 538 205 C538 127 463 84 364 84 C268 84 196 123 138 188 L57 117 C126 34 242 -16 362 -16 C520 -16 653 68 653 216 C653 484 212 413 212 587 L212 587 Z M362 -76 C326 -76 302 -103 302 -140 C302 -177 326 -204 362 -204 L368 -204 C359 -222 341 -231 312 -238 L325 -280 C394 -266 426 -220 426 -157 C426 -105 402 -76 362 -76 L362 -76 Z " />
<glyph glyph-name="scommaaccent" unicode="&#x219;" horiz-adv-x="565" d="M279 -16 C181 -16 87 20 42 63 L92 141 C131 105 209 72 282 72 C354 72 406 98 406 149 C406 277 63 187 63 399 C63 496 149 566 280 566 C372 566 442 536 498 492 L445 419 C401 454 349 478 280 478 C210 478 168 454 168 407 C168 277 514 371 514 155 C514 50 419 -16 279 -16 L279 -16 Z M283 -76 C247 -76 223 -103 223 -140 C223 -177 247 -204 283 -204 L289 -204 C280 -222 262 -231 233 -238 L246 -280 C315 -266 347 -220 347 -157 C347 -105 323 -76 283 -76 L283 -76 Z " />
<glyph glyph-name="uni021A" unicode="&#x21a;" horiz-adv-x="709" d="M40 773 L40 670 L299 670 L299 0 L408 0 L408 670 L668 670 L668 773 L40 773 Z M355 -76 C319 -76 295 -103 295 -140 C295 -177 319 -204 355 -204 L361 -204 C352 -222 334 -231 305 -238 L318 -280 C387 -266 419 -220 419 -157 C419 -105 395 -76 355 -76 L355 -76 Z " />
<glyph glyph-name="uni021B" unicode="&#x21b;" horiz-adv-x="466" d="M428 9 L418 98 C317 53 232 79 232 198 L232 459 L393 459 L400 550 L232 550 L232 722 L124 722 L124 550 L35 550 L35 459 L124 459 L124 206 C124 16 263 -61 428 9 L428 9 Z M286 -76 C250 -76 226 -103 226 -140 C226 -177 250 -204 286 -204 L292 -204 C283 -222 265 -231 236 -238 L249 -280 C318 -266 350 -220 350 -157 C350 -105 326 -76 286 -76 L286 -76 Z " />
<glyph glyph-name="uni0228" unicode="&#x228;" horiz-adv-x="683" d="M610 672 L610 773 L102 773 L102 0 L324 0 L310 -99 C333 -100 428 -102 419 -160 C411 -218 308 -183 285 -169 L266 -226 C281 -236 335 -255 388 -248 C436 -242 479 -218 485 -160 C495 -77 401 -53 367 -51 L372 0 L610 0 L610 101 L209 101 L209 350 L508 350 L508 448 L209 449 L209 672 L610 672 Z " />
<glyph glyph-name="uni0229" unicode="&#x229;" horiz-adv-x="627" d="M322 566 C157 566 53 453 53 276 C53 112 148 0 300 -14 L288 -99 C311 -100 406 -102 397 -160 C389 -218 286 -183 263 -169 L244 -226 C259 -236 313 -255 366 -248 C414 -242 457 -218 463 -160 C473 -77 379 -53 345 -51 L349 -16 C435 -13 509 19 564 71 L511 145 C466 102 400 75 334 75 C233 75 176 141 166 238 L565 238 C589 447 502 566 322 566 L322 566 Z M166 312 C166 403 220 479 324 479 C428 479 469 404 469 312 L166 312 Z " />
<glyph glyph-name="uni022A" unicode="&#x22a;" horiz-adv-x="884" d="M271 1119 L271 1194 L621 1194 L621 1119 L271 1119 Z M343 996 C375 996 398 972 398 937 C398 905 377 878 343 878 C310 878 288 903 288 937 C288 973 309 996 343 996 L343 996 Z M544 996 C577 996 599 972 599 937 C599 905 578 878 544 878 C511 878 489 903 489 937 C489 973 511 996 544 996 L544 996 Z M442 791 C668 791 817 625 817 387 C817 152 669 -18 442 -18 C216 -18 66 150 66 387 C66 621 214 791 442 791 L442 791 Z M442 689 C276 689 176 562 176 387 C176 212 275 85 442 85 C608 85 708 212 708 387 C708 563 605 689 442 689 L442 689 Z " />
<glyph glyph-name="uni022B" unicode="&#x22b;" horiz-adv-x="684" d="M167 896 L167 971 L517 971 L517 896 L167 896 Z M239 773 C271 773 294 749 294 714 C294 682 273 655 239 655 C206 655 184 680 184 714 C184 750 205 773 239 773 L239 773 Z M440 773 C473 773 495 749 495 714 C495 682 474 655 440 655 C407 655 385 680 385 714 C385 750 407 773 440 773 L440 773 Z M342 566 C510 566 630 450 630 274 C630 120 530 -16 342 -16 C171 -16 53 100 53 274 C53 449 171 566 342 566 L342 566 Z M342 469 C226 469 164 381 164 274 C164 169 226 81 342 81 C456 81 519 169 519 274 C519 381 456 469 342 469 L342 469 Z " />
<glyph glyph-name="uni0237" unicode="&#x237;" horiz-adv-x="339" d="M237 550 L237 -17 C237 -178 149 -266 48 -316 L1 -231 C0 -231 125 -173 125 -30 L125 550 L237 550 Z " />
<glyph glyph-name="uni0244" unicode="&#x244;" horiz-adv-x="994" d="M901 550 L821 550 L821 773 L711 773 L711 550 L282 550 L282 773 L172 773 L172 550 L92 550 L92 490 L172 490 L172 345 C172 128 279 -16 497 -16 C712 -16 821 128 821 345 L821 491 L901 491 L901 550 Z M711 355 C711 163 617 81 497 81 C374 81 282 165 282 355 L282 490 L711 491 L711 355 Z " />
<glyph glyph-name="uni0250" unicode="&#x250;" horiz-adv-x="648" d="M351 84 C265 84 200 121 200 203 L200 245 C241 226 301 207 373 207 C505 207 595 274 595 388 C595 493 518 566 384 566 C297 566 236 535 198 487 L184 551 L92 551 L92 211 C92 57 204 -15 347 -15 C431 -15 505 10 554 36 L514 127 C474 106 418 84 351 84 L351 84 Z M359 477 C437 477 484 442 484 383 C484 325 432 290 352 290 C287 290 235 309 200 327 C202 416 260 477 359 477 L359 477 Z " />
<glyph glyph-name="uni0251" unicode="&#x251;" horiz-adv-x="702" d="M505 550 L505 457 C466 524 401 566 310 566 C154 566 53 446 53 274 C53 103 153 -16 312 -16 C407 -16 469 28 505 91 L505 69 L522 0 L610 0 L610 550 L505 550 Z M333 83 C228 83 162 162 162 275 C162 388 228 467 333 467 C438 467 503 388 503 275 C503 161 437 83 333 83 L333 83 Z " />
<glyph glyph-name="uni0259" unicode="&#x259;" horiz-adv-x="627" d="M574 274 C574 97 470 -16 305 -16 C126 -16 38 103 63 312 L461 312 C451 409 394 475 294 475 C227 475 161 448 117 405 L64 479 C122 534 200 566 294 566 C465 566 574 450 574 274 L574 274 Z M461 238 L158 238 C158 146 199 71 303 71 C408 71 461 147 461 238 L461 238 Z " />
<glyph glyph-name="uni0289" unicode="&#x289;" horiz-adv-x="749" d="M695 366 L621 366 L621 550 L510 550 L510 366 L237 366 L238 550 L126 550 L126 366 L53 366 L53 306 L126 306 L126 219 C126 43 214 -15 326 -15 C414 -15 474 37 513 88 L532 0 L621 0 L621 306 L695 306 L695 366 Z M510 221 C468 149 418 98 348 98 C270 98 237 146 237 239 L237 306 L510 306 L510 221 Z " />
<glyph glyph-name="circumflex" unicode="&#x2c6;" horiz-adv-x="489" d="M219 802 L271 802 L386 678 L345 635 L245 718 L144 635 L103 678 L219 802 Z " />
<glyph glyph-name="caron" unicode="&#x2c7;" horiz-adv-x="489" d="M219 632 L103 755 L144 798 L245 716 L345 798 L386 755 L271 632 L219 632 Z " />
<glyph glyph-name="breve" unicode="&#x2d8;" horiz-adv-x="512" d="M331 773 L407 773 C400 698 353 638 256 638 C168 638 112 687 105 773 L181 773 C188 746 207 708 256 708 C306 708 324 746 331 773 L331 773 Z " />
<glyph glyph-name="dotaccent" unicode="&#x2d9;" horiz-adv-x="521" d="M261 789 C301 789 328 759 328 717 C328 677 303 644 261 644 C220 644 193 674 193 717 C193 760 220 789 261 789 L261 789 Z " />
<glyph glyph-name="ring" unicode="&#x2da;" horiz-adv-x="490" d="M245 839 C308 839 351 793 351 726 C351 665 310 611 245 611 C181 611 138 660 138 726 C138 796 179 839 245 839 L245 839 Z M245 780 C214 780 195 757 195 726 C195 695 215 671 245 671 C275 671 294 697 294 726 C294 757 273 780 245 780 L245 780 Z " />
<glyph glyph-name="ogonek" unicode="&#x2db;" horiz-adv-x="481" d="M253 8 L312 8 C269 -42 232 -86 232 -122 C232 -145 245 -161 267 -161 C287 -161 302 -151 317 -134 L350 -174 C327 -201 297 -224 257 -225 C192 -226 159 -188 159 -137 C159 -78 218 -20 253 8 L253 8 Z " />
<glyph glyph-name="tilde" unicode="&#x2dc;" horiz-adv-x="613" d="M182 647 C182 679 191 704 227 704 C275 704 299 642 370 642 C430 642 482 685 482 773 L408 773 C408 742 400 717 368 717 C317 717 293 777 224 777 C163 777 107 729 107 647 L182 647 Z " />
<glyph glyph-name="hungarumlaut" unicode="&#x2dd;" horiz-adv-x="396" d="M125 615 L202 767 L112 797 L78 629 L125 615 Z M244 615 L321 767 L230 797 L197 629 L244 615 Z " />
<glyph glyph-name="gravecomb" unicode="&#x300;" d="M-153 621 L-131 665 L-333 792 L-370 704 L-153 621 Z " />
<glyph glyph-name="acutecomb" unicode="&#x301;" d="M-324 621 L-107 704 L-144 792 L-345 665 L-324 621 Z " />
<glyph glyph-name="uni0302" unicode="&#x302;" d="M-270 802 L-218 802 L-103 678 L-144 635 L-244 718 L-345 635 L-386 678 L-270 802 Z " />
<glyph glyph-name="tildecomb" unicode="&#x303;" d="M-431 647 C-431 679 -422 704 -386 704 C-338 704 -314 642 -243 642 C-183 642 -131 685 -131 773 L-205 773 C-205 742 -213 717 -245 717 C-296 717 -320 777 -389 777 C-450 777 -506 729 -506 647 L-431 647 Z " />
<glyph glyph-name="uni0304" unicode="&#x304;" d="M-442 673 L-442 748 L-92 748 L-92 673 L-442 673 Z " />
<glyph glyph-name="uni0306" unicode="&#x306;" d="M-181 773 L-105 773 C-112 698 -159 638 -256 638 C-344 638 -400 687 -407 773 L-331 773 C-324 746 -305 708 -256 708 C-206 708 -188 746 -181 773 L-181 773 Z " />
<glyph glyph-name="uni0307" unicode="&#x307;" d="M-260 789 C-220 789 -193 759 -193 717 C-193 677 -218 644 -260 644 C-301 644 -328 674 -328 717 C-328 760 -301 789 -260 789 L-260 789 Z " />
<glyph glyph-name="uni0308" unicode="&#x308;" d="M-359 773 C-327 773 -304 749 -304 714 C-304 682 -325 655 -359 655 C-392 655 -414 680 -414 714 C-414 750 -393 773 -359 773 L-359 773 Z M-158 773 C-125 773 -103 749 -103 714 C-103 682 -124 655 -158 655 C-191 655 -213 680 -213 714 C-213 750 -191 773 -158 773 L-158 773 Z " />
<glyph glyph-name="hookabovecomb" unicode="&#x309;" d="M-187 616 L-245 616 C-202 666 -166 701 -166 736 C-166 760 -179 775 -201 775 C-221 775 -235 765 -251 748 L-284 788 C-261 815 -231 838 -190 839 C-125 840 -92 803 -93 752 C-94 693 -152 645 -187 616 L-187 616 Z " />
<glyph glyph-name="uni030A" unicode="&#x30a;" d="M-245 839 C-182 839 -139 793 -139 726 C-139 665 -180 611 -245 611 C-309 611 -352 660 -352 726 C-352 796 -311 839 -245 839 L-245 839 Z M-245 780 C-276 780 -295 757 -295 726 C-295 695 -275 671 -245 671 C-215 671 -196 697 -196 726 C-196 757 -217 780 -245 780 L-245 780 Z " />
<glyph glyph-name="uni030B" unicode="&#x30b;" d="M-271 615 L-194 767 L-284 797 L-318 629 L-271 615 Z M-152 615 L-75 767 L-166 797 L-199 629 L-152 615 Z " />
<glyph glyph-name="uni030C" unicode="&#x30c;" d="M-270 632 L-386 755 L-345 798 L-244 716 L-144 798 L-103 755 L-218 632 L-270 632 Z " />
<glyph glyph-name="uni0312" unicode="&#x312;" d="M-148 712 C-148 675 -172 649 -209 649 C-248 649 -272 678 -272 731 C-272 795 -238 839 -171 852 L-159 811 C-188 804 -205 794 -214 776 L-208 776 C-172 776 -148 749 -148 712 L-148 712 Z " />
<glyph glyph-name="dotbelowcomb" unicode="&#x323;" d="M-260 -79 C-220 -79 -193 -108 -193 -151 C-193 -191 -218 -223 -260 -223 C-301 -223 -328 -193 -328 -151 C-328 -107 -301 -79 -260 -79 L-260 -79 Z " />
<glyph glyph-name="uni0326" unicode="&#x326;" d="M-212 -76 C-248 -76 -272 -103 -272 -140 C-272 -177 -248 -204 -212 -204 L-206 -204 C-215 -222 -233 -231 -262 -238 L-249 -280 C-180 -266 -148 -220 -148 -157 C-148 -105 -172 -76 -212 -76 L-212 -76 Z " />
<glyph glyph-name="uni0327" unicode="&#x327;" d="M-260 13 L-213 7 L-219 -51 C-185 -53 -91 -77 -101 -160 C-107 -218 -150 -242 -198 -248 C-251 -255 -305 -236 -320 -226 L-301 -169 C-278 -183 -175 -218 -167 -160 C-158 -102 -253 -100 -276 -99 L-260 13 Z " />
<glyph glyph-name="uni0328" unicode="&#x328;" d="M-228 8 L-169 8 C-212 -42 -249 -86 -249 -122 C-249 -145 -236 -161 -214 -161 C-194 -161 -179 -151 -164 -134 L-131 -174 C-154 -201 -184 -224 -224 -225 C-289 -226 -322 -188 -322 -137 C-322 -78 -263 -20 -228 8 L-228 8 Z " />
<glyph glyph-name="uni032D" unicode="&#x32d;" d="M-283 -100 L-231 -100 L-117 -223 L-158 -266 L-258 -184 L-359 -266 L-400 -223 L-283 -100 Z " />
<glyph glyph-name="uni0331" unicode="&#x331;" d="M-442 -175 L-442 -100 L-92 -100 L-92 -175 L-442 -175 Z " />
<glyph glyph-name="uni0E3F" unicode="&#xe3f;" horiz-adv-x="687" d="M516 364 C543 378 582 426 582 502 C582 606 514 680 414 680 L366 680 L366 773 L307 773 L307 680 L102 680 L102 0 L307 0 L307 -93 L366 -93 L366 0 L441 0 C549 0 623 81 623 193 C623 272 579 340 516 364 L516 364 Z M307 589 L307 397 L200 397 L200 589 L307 589 Z M403 589 C451 589 495 554 495 492 C495 436 460 397 412 397 L366 397 L366 589 L403 589 Z M200 91 L200 305 L307 305 L307 91 L200 91 Z M427 91 L366 91 L366 305 L428 305 C486 305 532 264 532 199 C532 136 484 91 427 91 L427 91 Z " />
<glyph glyph-name="uni1E04" unicode="&#x1e04;" horiz-adv-x="753" d="M565 413 C596 429 642 484 642 570 C642 689 565 773 450 773 L102 773 L102 0 L481 0 C605 0 689 92 689 219 C689 309 638 386 565 413 L565 413 Z M439 672 C494 672 547 630 547 559 C547 494 507 447 449 447 L210 447 L210 672 L439 672 Z M465 101 L210 101 L210 352 L467 352 C535 352 589 302 589 226 C589 154 534 101 465 101 L465 101 Z M376 -79 C335 -79 308 -107 308 -151 C308 -193 335 -223 376 -223 C418 -223 443 -191 443 -151 C443 -108 416 -79 376 -79 L376 -79 Z " />
<glyph glyph-name="uni1E05" unicode="&#x1e05;" horiz-adv-x="694" d="M382 566 C290 566 231 527 195 471 L195 860 L87 860 L87 0 L175 0 L195 79 L195 81 C233 21 295 -16 384 -16 C547 -16 641 108 641 276 C641 445 546 566 382 566 L382 566 Z M363 83 C255 83 195 162 195 275 C195 389 256 467 363 467 C471 467 532 388 532 275 C532 162 471 83 363 83 L363 83 Z M374 -79 C333 -79 306 -107 306 -151 C306 -193 333 -223 374 -223 C416 -223 441 -191 441 -151 C441 -108 414 -79 374 -79 L374 -79 Z " />
<glyph glyph-name="uni1E0C" unicode="&#x1e0c;" horiz-adv-x="864" d="M446 773 L102 773 L102 0 L446 0 C657 0 799 170 799 389 C799 611 657 773 446 773 L446 773 Z M446 103 L212 103 L212 670 L446 670 C595 670 686 548 686 389 C686 231 593 103 446 103 L446 103 Z M427 -79 C386 -79 359 -107 359 -151 C359 -193 386 -223 427 -223 C469 -223 494 -191 494 -151 C494 -108 467 -79 427 -79 L427 -79 Z " />
<glyph glyph-name="uni1E0D" unicode="&#x1e0d;" horiz-adv-x="694" d="M499 860 L499 471 C463 528 404 566 312 566 C148 566 53 445 53 276 C53 108 147 -16 310 -16 C399 -16 461 21 499 82 L499 79 L519 0 L606 0 L606 860 L499 860 Z M331 83 C223 83 162 162 162 275 C162 388 223 467 331 467 C438 467 499 389 499 275 C499 162 439 83 331 83 L331 83 Z M330 -79 C289 -79 262 -107 262 -151 C262 -193 289 -223 330 -223 C372 -223 397 -191 397 -151 C397 -108 370 -79 330 -79 L330 -79 Z " />
<glyph glyph-name="uni1E0E" unicode="&#x1e0e;" horiz-adv-x="864" d="M446 773 L102 773 L102 0 L446 0 C657 0 799 170 799 389 C799 611 657 773 446 773 L446 773 Z M446 103 L212 103 L212 670 L446 670 C595 670 686 548 686 389 C686 231 593 103 446 103 L446 103 Z M256 -175 L606 -175 L606 -100 L256 -100 L256 -175 Z " />
<glyph glyph-name="uni1E0F" unicode="&#x1e0f;" horiz-adv-x="694" d="M499 860 L499 471 C463 528 404 566 312 566 C148 566 53 445 53 276 C53 108 147 -16 310 -16 C399 -16 461 21 499 82 L499 79 L519 0 L606 0 L606 860 L499 860 Z M331 83 C223 83 162 162 162 275 C162 388 223 467 331 467 C438 467 499 389 499 275 C499 162 439 83 331 83 L331 83 Z M159 -175 L509 -175 L509 -100 L159 -100 L159 -175 Z " />
<glyph glyph-name="uni1E12" unicode="&#x1e12;" horiz-adv-x="864" d="M446 773 L102 773 L102 0 L446 0 C657 0 799 170 799 389 C799 611 657 773 446 773 L446 773 Z M446 103 L212 103 L212 670 L446 670 C595 670 686 548 686 389 C686 231 593 103 446 103 L446 103 Z M402 -100 L285 -223 L326 -266 L427 -184 L527 -266 L568 -223 L454 -100 L402 -100 Z " />
<glyph glyph-name="uni1E13" unicode="&#x1e13;" horiz-adv-x="694" d="M499 860 L499 471 C463 528 404 566 312 566 C148 566 53 445 53 276 C53 108 147 -16 310 -16 C399 -16 461 21 499 82 L499 79 L519 0 L606 0 L606 860 L499 860 Z M331 83 C223 83 162 162 162 275 C162 388 223 467 331 467 C438 467 499 389 499 275 C499 162 439 83 331 83 L331 83 Z M305 -100 L188 -223 L229 -266 L330 -184 L430 -266 L471 -223 L357 -100 L305 -100 Z " />
<glyph glyph-name="uni1E24" unicode="&#x1e24;" horiz-adv-x="854" d="M640 773 L640 438 L212 438 L212 773 L102 773 L102 0 L212 0 L212 334 L640 334 L640 0 L750 0 L750 773 L640 773 Z M441 -79 C400 -79 373 -107 373 -151 C373 -193 400 -223 441 -223 C483 -223 508 -191 508 -151 C508 -108 481 -79 441 -79 L441 -79 Z " />
<glyph glyph-name="uni1E25" unicode="&#x1e25;" horiz-adv-x="662" d="M382 565 C297 565 237 515 199 464 L199 849 L87 849 L87 0 L199 0 L199 337 C241 410 296 462 360 462 C438 462 472 414 472 321 L471 0 L583 0 L583 331 C583 507 495 565 382 565 L382 565 Z M344 -79 C303 -79 276 -107 276 -151 C276 -193 303 -223 344 -223 C386 -223 411 -191 411 -151 C411 -108 384 -79 344 -79 L344 -79 Z " />
<glyph glyph-name="uni1E2E" unicode="&#x1e2e;" horiz-adv-x="313" d="M102 1067 L319 1150 L282 1238 L81 1111 L102 1067 Z M59 996 C91 996 114 972 114 937 C114 905 93 878 59 878 C26 878 4 903 4 937 C4 973 25 996 59 996 L59 996 Z M260 996 C293 996 315 972 315 937 C315 905 294 878 260 878 C227 878 205 903 205 937 C205 973 227 996 260 996 L260 996 Z M212 0 L102 0 L102 773 L212 773 L212 0 Z " />
<glyph glyph-name="uni1E2F" unicode="&#x1e2f;" horiz-adv-x="287" d="M88 844 L305 927 L268 1015 L67 888 L88 844 Z M45 773 C77 773 100 749 100 714 C100 682 79 655 45 655 C12 655 -10 680 -10 714 C-10 750 11 773 45 773 L45 773 Z M246 773 C279 773 301 749 301 714 C301 682 280 655 246 655 C213 655 191 680 191 714 C191 750 213 773 246 773 L246 773 Z M198 0 L89 0 L89 550 L198 550 L198 0 Z " />
<glyph glyph-name="uni1E36" unicode="&#x1e36;" horiz-adv-x="662" d="M212 103 L212 773 L102 773 L102 0 L610 0 L610 103 L212 103 Z M370 -79 C329 -79 302 -107 302 -151 C302 -193 329 -223 370 -223 C412 -223 437 -191 437 -151 C437 -108 410 -79 370 -79 L370 -79 Z " />
<glyph glyph-name="uni1E37" unicode="&#x1e37;" horiz-adv-x="345" d="M277 94 L294 7 C160 -41 84 6 84 129 L84 835 L193 835 L193 142 C193 91 218 80 277 94 L277 94 Z M194 -79 C234 -79 261 -108 261 -151 C261 -191 236 -223 194 -223 C153 -223 126 -193 126 -151 C126 -107 153 -79 194 -79 L194 -79 Z " />
<glyph glyph-name="uni1E3C" unicode="&#x1e3c;" horiz-adv-x="662" d="M212 103 L212 773 L102 773 L102 0 L610 0 L610 103 L212 103 Z M345 -100 L228 -223 L269 -266 L370 -184 L470 -266 L511 -223 L397 -100 L345 -100 Z " />
<glyph glyph-name="uni1E3D" unicode="&#x1e3d;" horiz-adv-x="345" d="M277 94 L294 7 C160 -41 84 6 84 129 L84 835 L193 835 L193 142 C193 91 218 80 277 94 L277 94 Z M169 -100 L221 -100 L335 -223 L294 -266 L194 -184 L93 -266 L52 -223 L169 -100 Z " />
<glyph glyph-name="uni1E3E" unicode="&#x1e3e;" horiz-adv-x="972" d="M646 927 L609 1015 L408 888 L429 844 L646 927 Z M896 0 L846 773 L711 773 L485 159 L259 773 L124 773 L74 0 L184 0 L223 589 L444 0 L526 0 L749 603 L788 0 L896 0 Z " />
<glyph glyph-name="uni1E3F" unicode="&#x1e3f;" horiz-adv-x="1004" d="M661 704 L624 792 L423 665 L444 621 L661 704 Z M730 565 C639 565 578 504 542 449 C512 534 445 565 365 565 C284 565 227 517 190 467 L172 550 L83 550 L83 0 L194 0 L194 356 C234 423 286 469 345 469 C420 469 453 421 453 328 L452 0 L560 0 L560 331 C560 340 560 348 559 357 C599 423 651 469 710 469 C785 469 818 421 818 328 L817 0 L925 0 L925 331 C925 507 839 565 730 565 L730 565 Z " />
<glyph glyph-name="uni1E44" unicode="&#x1e44;" horiz-adv-x="903" d="M444 867 C486 867 511 900 511 940 C511 982 484 1012 444 1012 C403 1012 376 983 376 940 C376 897 403 867 444 867 L444 867 Z M693 773 L693 178 L207 773 L102 773 L102 0 L210 0 L210 595 L696 0 L801 0 L801 773 L693 773 Z " />
<glyph glyph-name="uni1E45" unicode="&#x1e45;" horiz-adv-x="659" d="M320 644 C362 644 387 677 387 717 C387 759 360 789 320 789 C279 789 252 760 252 717 C252 674 279 644 320 644 L320 644 Z M378 565 C291 565 230 513 191 462 L172 550 L83 550 L83 0 L194 0 L194 337 C237 410 292 462 356 462 C434 462 467 414 467 321 L467 0 L579 0 L579 331 C579 507 490 565 378 565 L378 565 Z " />
<glyph glyph-name="uni1E46" unicode="&#x1e46;" horiz-adv-x="903" d="M693 773 L693 178 L207 773 L102 773 L102 0 L210 0 L210 595 L696 0 L801 0 L801 773 L693 773 Z M464 -79 C423 -79 396 -107 396 -151 C396 -193 423 -223 464 -223 C506 -223 531 -191 531 -151 C531 -108 504 -79 464 -79 L464 -79 Z " />
<glyph glyph-name="uni1E47" unicode="&#x1e47;" horiz-adv-x="659" d="M378 565 C291 565 230 513 191 462 L172 550 L83 550 L83 0 L194 0 L194 337 C237 410 292 462 356 462 C434 462 467 414 467 321 L467 0 L579 0 L579 331 C579 507 490 565 378 565 L378 565 Z M344 -79 C303 -79 276 -107 276 -151 C276 -193 303 -223 344 -223 C386 -223 411 -191 411 -151 C411 -108 384 -79 344 -79 L344 -79 Z " />
<glyph glyph-name="uni1E4A" unicode="&#x1e4a;" horiz-adv-x="903" d="M693 773 L693 178 L207 773 L102 773 L102 0 L210 0 L210 595 L696 0 L801 0 L801 773 L693 773 Z M439 -100 L322 -223 L363 -266 L464 -184 L564 -266 L605 -223 L491 -100 L439 -100 Z " />
<glyph glyph-name="uni1E4B" unicode="&#x1e4b;" horiz-adv-x="659" d="M378 565 C291 565 230 513 191 462 L172 550 L83 550 L83 0 L194 0 L194 337 C237 410 292 462 356 462 C434 462 467 414 467 321 L467 0 L579 0 L579 331 C579 507 490 565 378 565 L378 565 Z M319 -100 L202 -223 L243 -266 L344 -184 L444 -266 L485 -223 L371 -100 L319 -100 Z " />
<glyph glyph-name="uni1E4C" unicode="&#x1e4c;" horiz-adv-x="884" d="M397 1067 L614 1150 L577 1238 L376 1111 L397 1067 Z M332 870 C332 902 341 927 377 927 C425 927 449 865 520 865 C580 865 632 908 632 996 L558 996 C558 965 550 940 518 940 C467 940 443 1000 374 1000 C313 1000 257 952 257 870 L332 870 Z M442 791 C668 791 817 625 817 387 C817 152 669 -18 442 -18 C216 -18 66 150 66 387 C66 621 214 791 442 791 L442 791 Z M442 689 C276 689 176 562 176 387 C176 212 275 85 442 85 C608 85 708 212 708 387 C708 563 605 689 442 689 L442 689 Z " />
<glyph glyph-name="uni1E4D" unicode="&#x1e4d;" horiz-adv-x="684" d="M293 844 L510 927 L473 1015 L272 888 L293 844 Z M228 647 C228 679 237 704 273 704 C321 704 345 642 416 642 C476 642 528 685 528 773 L454 773 C454 742 446 717 414 717 C363 717 339 777 270 777 C209 777 153 729 153 647 L228 647 Z M342 566 C510 566 630 450 630 274 C630 120 530 -16 342 -16 C171 -16 53 100 53 274 C53 449 171 566 342 566 L342 566 Z M342 469 C226 469 164 381 164 274 C164 169 226 81 342 81 C456 81 519 169 519 274 C519 381 456 469 342 469 L342 469 Z " />
<glyph glyph-name="uni1E50" unicode="&#x1e50;" horiz-adv-x="884" d="M493 1067 L515 1111 L313 1238 L276 1150 L493 1067 Z M269 896 L269 971 L619 971 L619 896 L269 896 Z M442 791 C668 791 817 625 817 387 C817 152 669 -18 442 -18 C216 -18 66 150 66 387 C66 621 214 791 442 791 L442 791 Z M442 689 C276 689 176 562 176 387 C176 212 275 85 442 85 C608 85 708 212 708 387 C708 563 605 689 442 689 L442 689 Z " />
<glyph glyph-name="uni1E51" unicode="&#x1e51;" horiz-adv-x="684" d="M389 844 L411 888 L209 1015 L172 927 L389 844 Z M165 673 L165 748 L515 748 L515 673 L165 673 Z M342 566 C510 566 630 450 630 274 C630 120 530 -16 342 -16 C171 -16 53 100 53 274 C53 449 171 566 342 566 L342 566 Z M342 469 C226 469 164 381 164 274 C164 169 226 81 342 81 C456 81 519 169 519 274 C519 381 456 469 342 469 L342 469 Z " />
<glyph glyph-name="uni1E52" unicode="&#x1e52;" horiz-adv-x="884" d="M383 1067 L600 1150 L563 1238 L362 1111 L383 1067 Z M269 896 L269 971 L619 971 L619 896 L269 896 Z M442 791 C668 791 817 625 817 387 C817 152 669 -18 442 -18 C216 -18 66 150 66 387 C66 621 214 791 442 791 L442 791 Z M442 689 C276 689 176 562 176 387 C176 212 275 85 442 85 C608 85 708 212 708 387 C708 563 605 689 442 689 L442 689 Z " />
<glyph glyph-name="uni1E53" unicode="&#x1e53;" horiz-adv-x="684" d="M279 844 L496 927 L459 1015 L258 888 L279 844 Z M165 673 L165 748 L515 748 L515 673 L165 673 Z M342 566 C510 566 630 450 630 274 C630 120 530 -16 342 -16 C171 -16 53 100 53 274 C53 449 171 566 342 566 L342 566 Z M342 469 C226 469 164 381 164 274 C164 169 226 81 342 81 C456 81 519 169 519 274 C519 381 456 469 342 469 L342 469 Z " />
<glyph glyph-name="uni1E62" unicode="&#x1e62;" horiz-adv-x="716" d="M57 117 L138 188 C196 123 268 84 364 84 C463 84 538 127 538 205 C538 397 97 317 97 580 C97 715 213 793 370 793 C467 793 559 763 628 685 L551 619 C499 673 436 697 366 697 C272 697 212 652 212 587 C212 413 653 484 653 216 C653 68 520 -16 362 -16 C242 -16 126 34 57 117 L57 117 Z M362 -79 C402 -79 429 -108 429 -151 C429 -191 404 -223 362 -223 C321 -223 294 -193 294 -151 C294 -107 321 -79 362 -79 L362 -79 Z " />
<glyph glyph-name="uni1E63" unicode="&#x1e63;" horiz-adv-x="565" d="M279 -16 C181 -16 87 20 42 63 L92 141 C131 105 209 72 282 72 C354 72 406 98 406 149 C406 277 63 187 63 399 C63 496 149 566 280 566 C372 566 442 536 498 492 L445 419 C401 454 349 478 280 478 C210 478 168 454 168 407 C168 277 514 371 514 155 C514 50 419 -16 279 -16 L279 -16 Z M283 -79 C323 -79 350 -108 350 -151 C350 -191 325 -223 283 -223 C242 -223 215 -193 215 -151 C215 -107 242 -79 283 -79 L283 -79 Z " />
<glyph glyph-name="uni1E6C" unicode="&#x1e6c;" horiz-adv-x="709" d="M40 773 L40 670 L299 670 L299 0 L408 0 L408 670 L668 670 L668 773 L40 773 Z M355 -79 C314 -79 287 -107 287 -151 C287 -193 314 -223 355 -223 C397 -223 422 -191 422 -151 C422 -108 395 -79 355 -79 L355 -79 Z " />
<glyph glyph-name="uni1E6D" unicode="&#x1e6d;" horiz-adv-x="466" d="M428 9 L418 98 C317 53 232 79 232 198 L232 459 L393 459 L400 550 L232 550 L232 722 L124 722 L124 550 L35 550 L35 459 L124 459 L124 206 C124 16 263 -61 428 9 L428 9 Z M286 -79 C245 -79 218 -107 218 -151 C218 -193 245 -223 286 -223 C328 -223 353 -191 353 -151 C353 -108 326 -79 286 -79 L286 -79 Z " />
<glyph glyph-name="uni1E6E" unicode="&#x1e6e;" horiz-adv-x="709" d="M40 773 L40 670 L299 670 L299 0 L408 0 L408 670 L668 670 L668 773 L40 773 Z M184 -175 L534 -175 L534 -100 L184 -100 L184 -175 Z " />
<glyph glyph-name="uni1E6F" unicode="&#x1e6f;" horiz-adv-x="466" d="M124 206 C124 16 263 -61 428 9 L418 98 C317 53 232 79 232 198 L232 459 L393 459 L400 550 L232 550 L232 722 L124 722 L124 550 L35 550 L35 459 L124 459 L124 206 Z M115 -100 L115 -175 L465 -175 L465 -100 L115 -100 Z " />
<glyph glyph-name="uni1E70" unicode="&#x1e70;" horiz-adv-x="709" d="M40 773 L40 670 L299 670 L299 0 L408 0 L408 670 L668 670 L668 773 L40 773 Z M330 -100 L213 -223 L254 -266 L355 -184 L455 -266 L496 -223 L382 -100 L330 -100 Z " />
<glyph glyph-name="uni1E71" unicode="&#x1e71;" horiz-adv-x="466" d="M428 9 L418 98 C317 53 232 79 232 198 L232 459 L393 459 L400 550 L232 550 L232 722 L124 722 L124 550 L35 550 L35 459 L124 459 L124 206 C124 16 263 -61 428 9 L428 9 Z M261 -100 L144 -223 L185 -266 L286 -184 L386 -266 L427 -223 L313 -100 L261 -100 Z " />
<glyph glyph-name="Wgrave" unicode="&#x1e80;" horiz-adv-x="1001" d="M574 888 L372 1015 L335 927 L552 844 L574 888 Z M840 773 L718 183 L544 740 L460 740 L275 182 L155 773 L40 773 L213 0 L321 0 L500 565 L669 0 L779 0 L961 773 L840 773 Z " />
<glyph glyph-name="wgrave" unicode="&#x1e81;" horiz-adv-x="864" d="M506 665 L304 792 L267 704 L484 621 L506 665 Z M716 550 L603 151 L481 534 L382 534 L259 148 L141 550 L30 550 L210 0 L319 0 L432 410 L544 0 L652 0 L832 550 L716 550 Z " />
<glyph glyph-name="Wacute" unicode="&#x1e82;" horiz-adv-x="1001" d="M659 927 L622 1015 L421 888 L442 844 L659 927 Z M840 773 L718 183 L544 740 L460 740 L275 182 L155 773 L40 773 L213 0 L321 0 L500 565 L669 0 L779 0 L961 773 L840 773 Z " />
<glyph glyph-name="wacute" unicode="&#x1e83;" horiz-adv-x="864" d="M591 704 L554 792 L353 665 L374 621 L591 704 Z M716 550 L603 151 L481 534 L382 534 L259 148 L141 550 L30 550 L210 0 L319 0 L432 410 L544 0 L652 0 L832 550 L716 550 Z " />
<glyph glyph-name="Wdieresis" unicode="&#x1e84;" horiz-adv-x="1001" d="M401 878 C435 878 456 905 456 937 C456 972 433 996 401 996 C367 996 346 973 346 937 C346 903 368 878 401 878 L401 878 Z M602 878 C636 878 657 905 657 937 C657 972 635 996 602 996 C569 996 547 973 547 937 C547 903 569 878 602 878 L602 878 Z M840 773 L718 183 L544 740 L460 740 L275 182 L155 773 L40 773 L213 0 L321 0 L500 565 L669 0 L779 0 L961 773 L840 773 Z " />
<glyph glyph-name="wdieresis" unicode="&#x1e85;" horiz-adv-x="864" d="M333 655 C367 655 388 682 388 714 C388 749 365 773 333 773 C299 773 278 750 278 714 C278 680 300 655 333 655 L333 655 Z M534 655 C568 655 589 682 589 714 C589 749 567 773 534 773 C501 773 479 750 479 714 C479 680 501 655 534 655 L534 655 Z M716 550 L603 151 L481 534 L382 534 L259 148 L141 550 L30 550 L210 0 L319 0 L432 410 L544 0 L652 0 L832 550 L716 550 Z " />
<glyph glyph-name="uni1E92" unicode="&#x1e92;" horiz-adv-x="766" d="M706 772 L65 772 L65 667 L544 673 L65 59 L65 0 L706 0 L706 105 L226 99 L706 714 L706 772 Z M395 -79 C354 -79 327 -107 327 -151 C327 -193 354 -223 395 -223 C437 -223 462 -191 462 -151 C462 -108 435 -79 395 -79 L395 -79 Z " />
<glyph glyph-name="uni1E93" unicode="&#x1e93;" horiz-adv-x="600" d="M511 550 L43 550 L43 446 L379 453 L43 104 L43 0 L511 0 L511 104 L167 97 L511 446 L511 550 Z M261 -79 C220 -79 193 -107 193 -151 C193 -193 220 -223 261 -223 C303 -223 328 -191 328 -151 C328 -108 301 -79 261 -79 L261 -79 Z " />
<glyph glyph-name="uni1E9E" unicode="&#x1e9e;" horiz-adv-x="732" d="M444 459 L627 670 L627 773 L345 773 C187 773 102 688 102 530 L102 0 L213 0 L213 531 C213 621 262 672 351 672 L499 671 L319 434 L351 352 C369 356 391 364 425 364 C512 364 556 312 556 228 C556 144 519 95 421 95 L296 95 L296 0 L427 0 C604 0 668 101 668 232 C668 377 585 455 444 459 L444 459 Z " />
<glyph glyph-name="uni1EA0" unicode="&#x1ea0;" horiz-adv-x="817" d="M783 0 L471 773 L345 773 L33 0 L149 0 L224 191 L592 191 L667 0 L783 0 Z M265 296 L408 659 L551 296 L265 296 Z M418 -79 C377 -79 350 -107 350 -151 C350 -193 377 -223 418 -223 C460 -223 485 -191 485 -151 C485 -108 458 -79 418 -79 L418 -79 Z " />
<glyph glyph-name="uni1EA1" unicode="&#x1ea1;" horiz-adv-x="702" d="M505 550 L505 457 C466 524 401 566 310 566 C154 566 53 446 53 274 C53 103 153 -16 312 -16 C407 -16 469 28 505 91 L505 69 L522 0 L610 0 L610 550 L505 550 Z M333 83 C228 83 162 162 162 275 C162 388 228 467 333 467 C438 467 503 388 503 275 C503 161 437 83 333 83 L333 83 Z M336 -79 C295 -79 268 -107 268 -151 C268 -193 295 -223 336 -223 C378 -223 403 -191 403 -151 C403 -108 376 -79 336 -79 L336 -79 Z " />
<glyph glyph-name="uni1EA2" unicode="&#x1ea2;" horiz-adv-x="817" d="M423 998 C445 998 458 983 458 959 C458 924 422 889 379 839 L437 839 C472 868 530 916 531 975 C532 1026 499 1063 434 1062 C393 1061 363 1038 340 1011 L373 971 C389 988 403 998 423 998 L423 998 Z M667 0 L783 0 L471 773 L345 773 L33 0 L149 0 L224 191 L592 191 L667 0 Z M265 296 L408 659 L551 296 L265 296 Z " />
<glyph glyph-name="uni1EA3" unicode="&#x1ea3;" horiz-adv-x="702" d="M334 775 C356 775 369 760 369 736 C369 701 333 666 290 616 L348 616 C383 645 441 693 442 752 C443 803 410 840 345 839 C304 838 274 815 251 788 L284 748 C300 765 314 775 334 775 L334 775 Z M505 550 L505 457 C466 524 401 566 310 566 C154 566 53 446 53 274 C53 103 153 -16 312 -16 C407 -16 469 28 505 91 L505 69 L522 0 L610 0 L610 550 L505 550 Z M333 83 C228 83 162 162 162 275 C162 388 228 467 333 467 C438 467 503 388 503 275 C503 161 437 83 333 83 L333 83 Z " />
<glyph glyph-name="uni1EA4" unicode="&#x1ea4;" horiz-adv-x="817" d="M568 1150 L531 1238 L330 1111 L351 1067 L568 1150 Z M409 941 L509 858 L550 901 L435 1025 L383 1025 L267 901 L308 858 L409 941 Z M667 0 L783 0 L471 773 L345 773 L33 0 L149 0 L224 191 L592 191 L667 0 Z M265 296 L408 659 L551 296 L265 296 Z " />
<glyph glyph-name="uni1EA5" unicode="&#x1ea5;" horiz-adv-x="702" d="M479 927 L442 1015 L241 888 L262 844 L479 927 Z M320 718 L420 635 L461 678 L346 802 L294 802 L178 678 L219 635 L320 718 Z M505 550 L505 457 C466 524 401 566 310 566 C154 566 53 446 53 274 C53 103 153 -16 312 -16 C407 -16 469 28 505 91 L505 69 L522 0 L610 0 L610 550 L505 550 Z M333 83 C228 83 162 162 162 275 C162 388 228 467 333 467 C438 467 503 388 503 275 C503 161 437 83 333 83 L333 83 Z " />
<glyph glyph-name="uni1EA6" unicode="&#x1ea6;" horiz-adv-x="817" d="M483 1111 L281 1238 L244 1150 L461 1067 L483 1111 Z M383 1025 L267 901 L308 858 L409 941 L509 858 L550 901 L435 1025 L383 1025 Z M667 0 L783 0 L471 773 L345 773 L33 0 L149 0 L224 191 L592 191 L667 0 Z M265 296 L408 659 L551 296 L265 296 Z " />
<glyph glyph-name="uni1EA7" unicode="&#x1ea7;" horiz-adv-x="702" d="M394 888 L192 1015 L155 927 L372 844 L394 888 Z M294 802 L178 678 L219 635 L320 718 L420 635 L461 678 L346 802 L294 802 Z M505 550 L505 457 C466 524 401 566 310 566 C154 566 53 446 53 274 C53 103 153 -16 312 -16 C407 -16 469 28 505 91 L505 69 L522 0 L610 0 L610 550 L505 550 Z M333 83 C228 83 162 162 162 275 C162 388 228 467 333 467 C438 467 503 388 503 275 C503 161 437 83 333 83 L333 83 Z " />
<glyph glyph-name="uni1EA8" unicode="&#x1ea8;" horiz-adv-x="817" d="M423 1221 C445 1221 458 1206 458 1182 C458 1147 422 1112 379 1062 L437 1062 C472 1091 530 1139 531 1198 C532 1249 499 1286 434 1285 C393 1284 363 1261 340 1234 L373 1194 C389 1211 403 1221 423 1221 L423 1221 Z M409 941 L509 858 L550 901 L435 1025 L383 1025 L267 901 L308 858 L409 941 Z M667 0 L783 0 L471 773 L345 773 L33 0 L149 0 L224 191 L592 191 L667 0 Z M265 296 L408 659 L551 296 L265 296 Z " />
<glyph glyph-name="uni1EA9" unicode="&#x1ea9;" horiz-adv-x="702" d="M334 998 C356 998 369 983 369 959 C369 924 333 889 290 839 L348 839 C383 868 441 916 442 975 C443 1026 410 1063 345 1062 C304 1061 274 1038 251 1011 L284 971 C300 988 314 998 334 998 L334 998 Z M320 718 L420 635 L461 678 L346 802 L294 802 L178 678 L219 635 L320 718 Z M505 550 L505 457 C466 524 401 566 310 566 C154 566 53 446 53 274 C53 103 153 -16 312 -16 C407 -16 469 28 505 91 L505 69 L522 0 L610 0 L610 550 L505 550 Z M333 83 C228 83 162 162 162 275 C162 388 228 467 333 467 C438 467 503 388 503 275 C503 161 437 83 333 83 L333 83 Z " />
<glyph glyph-name="uni1EAA" unicode="&#x1eaa;" horiz-adv-x="817" d="M344 1150 C392 1150 416 1088 487 1088 C547 1088 599 1131 599 1219 L525 1219 C525 1188 517 1163 485 1163 C434 1163 410 1223 341 1223 C280 1223 224 1175 224 1093 L299 1093 C299 1125 308 1150 344 1150 L344 1150 Z M383 1025 L267 901 L308 858 L409 941 L509 858 L550 901 L435 1025 L383 1025 Z M667 0 L783 0 L471 773 L345 773 L33 0 L149 0 L224 191 L592 191 L667 0 Z M265 296 L408 659 L551 296 L265 296 Z " />
<glyph glyph-name="uni1EAB" unicode="&#x1eab;" horiz-adv-x="702" d="M255 927 C303 927 327 865 398 865 C458 865 510 908 510 996 L436 996 C436 965 428 940 396 940 C345 940 321 1000 252 1000 C191 1000 135 952 135 870 L210 870 C210 902 219 927 255 927 L255 927 Z M294 802 L178 678 L219 635 L320 718 L420 635 L461 678 L346 802 L294 802 Z M505 550 L505 457 C466 524 401 566 310 566 C154 566 53 446 53 274 C53 103 153 -16 312 -16 C407 -16 469 28 505 91 L505 69 L522 0 L610 0 L610 550 L505 550 Z M333 83 C228 83 162 162 162 275 C162 388 228 467 333 467 C438 467 503 388 503 275 C503 161 437 83 333 83 L333 83 Z " />
<glyph glyph-name="uni1EAC" unicode="&#x1eac;" horiz-adv-x="817" d="M409 941 L509 858 L550 901 L435 1025 L383 1025 L267 901 L308 858 L409 941 Z M783 0 L471 773 L345 773 L33 0 L149 0 L224 191 L592 191 L667 0 L783 0 Z M265 296 L408 659 L551 296 L265 296 Z M418 -79 C377 -79 350 -107 350 -151 C350 -193 377 -223 418 -223 C460 -223 485 -191 485 -151 C485 -108 458 -79 418 -79 L418 -79 Z " />
<glyph glyph-name="uni1EAD" unicode="&#x1ead;" horiz-adv-x="702" d="M320 718 L420 635 L461 678 L346 802 L294 802 L178 678 L219 635 L320 718 Z M505 550 L505 457 C466 524 401 566 310 566 C154 566 53 446 53 274 C53 103 153 -16 312 -16 C407 -16 469 28 505 91 L505 69 L522 0 L610 0 L610 550 L505 550 Z M333 83 C228 83 162 162 162 275 C162 388 228 467 333 467 C438 467 503 388 503 275 C503 161 437 83 333 83 L333 83 Z M336 -79 C295 -79 268 -107 268 -151 C268 -193 295 -223 336 -223 C378 -223 403 -191 403 -151 C403 -108 376 -79 336 -79 L336 -79 Z " />
<glyph glyph-name="uni1EAE" unicode="&#x1eae;" horiz-adv-x="817" d="M568 1150 L531 1238 L330 1111 L351 1067 L568 1150 Z M409 861 C506 861 553 921 560 996 L484 996 C477 969 459 931 409 931 C360 931 341 969 334 996 L258 996 C265 910 321 861 409 861 L409 861 Z M667 0 L783 0 L471 773 L345 773 L33 0 L149 0 L224 191 L592 191 L667 0 Z M265 296 L408 659 L551 296 L265 296 Z " />
<glyph glyph-name="uni1EAF" unicode="&#x1eaf;" horiz-adv-x="702" d="M479 927 L442 1015 L241 888 L262 844 L479 927 Z M320 638 C417 638 464 698 471 773 L395 773 C388 746 370 708 320 708 C271 708 252 746 245 773 L169 773 C176 687 232 638 320 638 L320 638 Z M505 550 L505 457 C466 524 401 566 310 566 C154 566 53 446 53 274 C53 103 153 -16 312 -16 C407 -16 469 28 505 91 L505 69 L522 0 L610 0 L610 550 L505 550 Z M333 83 C228 83 162 162 162 275 C162 388 228 467 333 467 C438 467 503 388 503 275 C503 161 437 83 333 83 L333 83 Z " />
<glyph glyph-name="uni1EB0" unicode="&#x1eb0;" horiz-adv-x="817" d="M483 1111 L281 1238 L244 1150 L461 1067 L483 1111 Z M409 931 C360 931 341 969 334 996 L258 996 C265 910 321 861 409 861 C506 861 553 921 560 996 L484 996 C477 969 459 931 409 931 L409 931 Z M667 0 L783 0 L471 773 L345 773 L33 0 L149 0 L224 191 L592 191 L667 0 Z M265 296 L408 659 L551 296 L265 296 Z " />
<glyph glyph-name="uni1EB1" unicode="&#x1eb1;" horiz-adv-x="702" d="M394 888 L192 1015 L155 927 L372 844 L394 888 Z M320 708 C271 708 252 746 245 773 L169 773 C176 687 232 638 320 638 C417 638 464 698 471 773 L395 773 C388 746 370 708 320 708 L320 708 Z M505 550 L505 457 C466 524 401 566 310 566 C154 566 53 446 53 274 C53 103 153 -16 312 -16 C407 -16 469 28 505 91 L505 69 L522 0 L610 0 L610 550 L505 550 Z M333 83 C228 83 162 162 162 275 C162 388 228 467 333 467 C438 467 503 388 503 275 C503 161 437 83 333 83 L333 83 Z " />
<glyph glyph-name="uni1EB2" unicode="&#x1eb2;" horiz-adv-x="817" d="M423 1221 C445 1221 458 1206 458 1182 C458 1147 422 1112 379 1062 L437 1062 C472 1091 530 1139 531 1198 C532 1249 499 1286 434 1285 C393 1284 363 1261 340 1234 L373 1194 C389 1211 403 1221 423 1221 L423 1221 Z M409 861 C506 861 553 921 560 996 L484 996 C477 969 459 931 409 931 C360 931 341 969 334 996 L258 996 C265 910 321 861 409 861 L409 861 Z M667 0 L783 0 L471 773 L345 773 L33 0 L149 0 L224 191 L592 191 L667 0 Z M265 296 L408 659 L551 296 L265 296 Z " />
<glyph glyph-name="uni1EB3" unicode="&#x1eb3;" horiz-adv-x="702" d="M334 998 C356 998 369 983 369 959 C369 924 333 889 290 839 L348 839 C383 868 441 916 442 975 C443 1026 410 1063 345 1062 C304 1061 274 1038 251 1011 L284 971 C300 988 314 998 334 998 L334 998 Z M320 638 C417 638 464 698 471 773 L395 773 C388 746 370 708 320 708 C271 708 252 746 245 773 L169 773 C176 687 232 638 320 638 L320 638 Z M505 550 L505 457 C466 524 401 566 310 566 C154 566 53 446 53 274 C53 103 153 -16 312 -16 C407 -16 469 28 505 91 L505 69 L522 0 L610 0 L610 550 L505 550 Z M333 83 C228 83 162 162 162 275 C162 388 228 467 333 467 C438 467 503 388 503 275 C503 161 437 83 333 83 L333 83 Z " />
<glyph glyph-name="uni1EB4" unicode="&#x1eb4;" horiz-adv-x="817" d="M344 1150 C392 1150 416 1088 487 1088 C547 1088 599 1131 599 1219 L525 1219 C525 1188 517 1163 485 1163 C434 1163 410 1223 341 1223 C280 1223 224 1175 224 1093 L299 1093 C299 1125 308 1150 344 1150 L344 1150 Z M409 931 C360 931 341 969 334 996 L258 996 C265 910 321 861 409 861 C506 861 553 921 560 996 L484 996 C477 969 459 931 409 931 L409 931 Z M667 0 L783 0 L471 773 L345 773 L33 0 L149 0 L224 191 L592 191 L667 0 Z M265 296 L408 659 L551 296 L265 296 Z " />
<glyph glyph-name="uni1EB5" unicode="&#x1eb5;" horiz-adv-x="702" d="M255 927 C303 927 327 865 398 865 C458 865 510 908 510 996 L436 996 C436 965 428 940 396 940 C345 940 321 1000 252 1000 C191 1000 135 952 135 870 L210 870 C210 902 219 927 255 927 L255 927 Z M320 708 C271 708 252 746 245 773 L169 773 C176 687 232 638 320 638 C417 638 464 698 471 773 L395 773 C388 746 370 708 320 708 L320 708 Z M505 550 L505 457 C466 524 401 566 310 566 C154 566 53 446 53 274 C53 103 153 -16 312 -16 C407 -16 469 28 505 91 L505 69 L522 0 L610 0 L610 550 L505 550 Z M333 83 C228 83 162 162 162 275 C162 388 228 467 333 467 C438 467 503 388 503 275 C503 161 437 83 333 83 L333 83 Z " />
<glyph glyph-name="uni1EB6" unicode="&#x1eb6;" horiz-adv-x="817" d="M409 861 C506 861 553 921 560 996 L484 996 C477 969 459 931 409 931 C360 931 341 969 334 996 L258 996 C265 910 321 861 409 861 L409 861 Z M783 0 L471 773 L345 773 L33 0 L149 0 L224 191 L592 191 L667 0 L783 0 Z M265 296 L408 659 L551 296 L265 296 Z M418 -79 C377 -79 350 -107 350 -151 C350 -193 377 -223 418 -223 C460 -223 485 -191 485 -151 C485 -108 458 -79 418 -79 L418 -79 Z " />
<glyph glyph-name="uni1EB7" unicode="&#x1eb7;" horiz-adv-x="702" d="M320 638 C417 638 464 698 471 773 L395 773 C388 746 370 708 320 708 C271 708 252 746 245 773 L169 773 C176 687 232 638 320 638 L320 638 Z M505 550 L505 457 C466 524 401 566 310 566 C154 566 53 446 53 274 C53 103 153 -16 312 -16 C407 -16 469 28 505 91 L505 69 L522 0 L610 0 L610 550 L505 550 Z M333 83 C228 83 162 162 162 275 C162 388 228 467 333 467 C438 467 503 388 503 275 C503 161 437 83 333 83 L333 83 Z M336 -79 C295 -79 268 -107 268 -151 C268 -193 295 -223 336 -223 C378 -223 403 -191 403 -151 C403 -108 376 -79 336 -79 L336 -79 Z " />
<glyph glyph-name="uni1EB8" unicode="&#x1eb8;" horiz-adv-x="683" d="M610 672 L610 773 L102 773 L102 0 L610 0 L610 101 L209 101 L209 350 L508 350 L508 448 L209 449 L209 672 L610 672 Z M349 -79 C308 -79 281 -107 281 -151 C281 -193 308 -223 349 -223 C391 -223 416 -191 416 -151 C416 -108 389 -79 349 -79 L349 -79 Z " />
<glyph glyph-name="uni1EB9" unicode="&#x1eb9;" horiz-adv-x="627" d="M53 276 C53 453 157 566 322 566 C502 566 589 447 565 238 L166 238 C176 141 233 75 334 75 C400 75 466 102 511 145 L564 71 C506 16 427 -16 334 -16 C162 -16 53 100 53 276 L53 276 Z M166 312 L469 312 C469 404 428 479 324 479 C220 479 166 403 166 312 L166 312 Z M327 -79 C367 -79 394 -108 394 -151 C394 -191 369 -223 327 -223 C286 -223 259 -193 259 -151 C259 -107 286 -79 327 -79 L327 -79 Z " />
<glyph glyph-name="uni1EBA" unicode="&#x1eba;" horiz-adv-x="683" d="M369 998 C391 998 404 983 404 959 C404 924 368 889 325 839 L383 839 C418 868 476 916 477 975 C478 1026 445 1063 380 1062 C339 1061 309 1038 286 1011 L319 971 C335 988 349 998 369 998 L369 998 Z M610 672 L610 773 L102 773 L102 0 L610 0 L610 101 L209 101 L209 350 L508 350 L508 448 L209 449 L209 672 L610 672 Z " />
<glyph glyph-name="uni1EBB" unicode="&#x1ebb;" horiz-adv-x="627" d="M348 616 L290 616 C333 666 369 701 369 736 C369 760 356 775 334 775 C314 775 300 765 284 748 L251 788 C274 815 304 838 345 839 C410 840 443 803 442 752 C441 693 383 645 348 616 L348 616 Z M53 276 C53 453 157 566 322 566 C502 566 589 447 565 238 L166 238 C176 141 233 75 334 75 C400 75 466 102 511 145 L564 71 C506 16 427 -16 334 -16 C162 -16 53 100 53 276 L53 276 Z M166 312 L469 312 C469 404 428 479 324 479 C220 479 166 403 166 312 L166 312 Z " />
<glyph glyph-name="uni1EBC" unicode="&#x1ebc;" horiz-adv-x="683" d="M282 927 C330 927 354 865 425 865 C485 865 537 908 537 996 L463 996 C463 965 455 940 423 940 C372 940 348 1000 279 1000 C218 1000 162 952 162 870 L237 870 C237 902 246 927 282 927 L282 927 Z M610 672 L610 773 L102 773 L102 0 L610 0 L610 101 L209 101 L209 350 L508 350 L508 448 L209 449 L209 672 L610 672 Z " />
<glyph glyph-name="uni1EBD" unicode="&#x1ebd;" horiz-adv-x="627" d="M210 647 C210 679 219 704 255 704 C303 704 327 642 398 642 C458 642 510 685 510 773 L436 773 C436 742 428 717 396 717 C345 717 321 777 252 777 C191 777 135 729 135 647 L210 647 Z M53 276 C53 453 157 566 322 566 C502 566 589 447 565 238 L166 238 C176 141 233 75 334 75 C400 75 466 102 511 145 L564 71 C506 16 427 -16 334 -16 C162 -16 53 100 53 276 L53 276 Z M166 312 L469 312 C469 404 428 479 324 479 C220 479 166 403 166 312 L166 312 Z " />
<glyph glyph-name="uni1EBE" unicode="&#x1ebe;" horiz-adv-x="683" d="M514 1150 L477 1238 L276 1111 L297 1067 L514 1150 Z M355 941 L455 858 L496 901 L381 1025 L329 1025 L213 901 L254 858 L355 941 Z M610 672 L610 773 L102 773 L102 0 L610 0 L610 101 L209 101 L209 350 L508 350 L508 448 L209 449 L209 672 L610 672 Z " />
<glyph glyph-name="uni1EBF" unicode="&#x1ebf;" horiz-adv-x="627" d="M262 844 L479 927 L442 1015 L241 888 L262 844 Z M294 802 L346 802 L461 678 L420 635 L320 718 L219 635 L178 678 L294 802 Z M53 276 C53 453 157 566 322 566 C502 566 589 447 565 238 L166 238 C176 141 233 75 334 75 C400 75 466 102 511 145 L564 71 C506 16 427 -16 334 -16 C162 -16 53 100 53 276 L53 276 Z M166 312 L469 312 C469 404 428 479 324 479 C220 479 166 403 166 312 L166 312 Z " />
<glyph glyph-name="uni1EC0" unicode="&#x1ec0;" horiz-adv-x="683" d="M429 1111 L227 1238 L190 1150 L407 1067 L429 1111 Z M329 1025 L213 901 L254 858 L355 941 L455 858 L496 901 L381 1025 L329 1025 Z M610 672 L610 773 L102 773 L102 0 L610 0 L610 101 L209 101 L209 350 L508 350 L508 448 L209 449 L209 672 L610 672 Z " />
<glyph glyph-name="uni1EC1" unicode="&#x1ec1;" horiz-adv-x="627" d="M372 844 L394 888 L192 1015 L155 927 L372 844 Z M294 802 L346 802 L461 678 L420 635 L320 718 L219 635 L178 678 L294 802 Z M53 276 C53 453 157 566 322 566 C502 566 589 447 565 238 L166 238 C176 141 233 75 334 75 C400 75 466 102 511 145 L564 71 C506 16 427 -16 334 -16 C162 -16 53 100 53 276 L53 276 Z M166 312 L469 312 C469 404 428 479 324 479 C220 479 166 403 166 312 L166 312 Z " />
<glyph glyph-name="uni1EC2" unicode="&#x1ec2;" horiz-adv-x="683" d="M369 1221 C391 1221 404 1206 404 1182 C404 1147 368 1112 325 1062 L383 1062 C418 1091 476 1139 477 1198 C478 1249 445 1286 380 1285 C339 1284 309 1261 286 1234 L319 1194 C335 1211 349 1221 369 1221 L369 1221 Z M355 941 L455 858 L496 901 L381 1025 L329 1025 L213 901 L254 858 L355 941 Z M610 672 L610 773 L102 773 L102 0 L610 0 L610 101 L209 101 L209 350 L508 350 L508 448 L209 449 L209 672 L610 672 Z " />
<glyph glyph-name="uni1EC3" unicode="&#x1ec3;" horiz-adv-x="627" d="M348 839 L290 839 C333 889 369 924 369 959 C369 983 356 998 334 998 C314 998 300 988 284 971 L251 1011 C274 1038 304 1061 345 1062 C410 1063 443 1026 442 975 C441 916 383 868 348 839 L348 839 Z M294 802 L346 802 L461 678 L420 635 L320 718 L219 635 L178 678 L294 802 Z M53 276 C53 453 157 566 322 566 C502 566 589 447 565 238 L166 238 C176 141 233 75 334 75 C400 75 466 102 511 145 L564 71 C506 16 427 -16 334 -16 C162 -16 53 100 53 276 L53 276 Z M166 312 L469 312 C469 404 428 479 324 479 C220 479 166 403 166 312 L166 312 Z " />
<glyph glyph-name="uni1EC4" unicode="&#x1ec4;" horiz-adv-x="683" d="M290 1150 C338 1150 362 1088 433 1088 C493 1088 545 1131 545 1219 L471 1219 C471 1188 463 1163 431 1163 C380 1163 356 1223 287 1223 C226 1223 170 1175 170 1093 L245 1093 C245 1125 254 1150 290 1150 L290 1150 Z M329 1025 L213 901 L254 858 L355 941 L455 858 L496 901 L381 1025 L329 1025 Z M610 672 L610 773 L102 773 L102 0 L610 0 L610 101 L209 101 L209 350 L508 350 L508 448 L209 449 L209 672 L610 672 Z " />
<glyph glyph-name="uni1EC5" unicode="&#x1ec5;" horiz-adv-x="627" d="M210 870 C210 902 219 927 255 927 C303 927 327 865 398 865 C458 865 510 908 510 996 L436 996 C436 965 428 940 396 940 C345 940 321 1000 252 1000 C191 1000 135 952 135 870 L210 870 Z M294 802 L346 802 L461 678 L420 635 L320 718 L219 635 L178 678 L294 802 Z M53 276 C53 453 157 566 322 566 C502 566 589 447 565 238 L166 238 C176 141 233 75 334 75 C400 75 466 102 511 145 L564 71 C506 16 427 -16 334 -16 C162 -16 53 100 53 276 L53 276 Z M166 312 L469 312 C469 404 428 479 324 479 C220 479 166 403 166 312 L166 312 Z " />
<glyph glyph-name="uni1EC6" unicode="&#x1ec6;" horiz-adv-x="683" d="M355 941 L455 858 L496 901 L381 1025 L329 1025 L213 901 L254 858 L355 941 Z M610 672 L610 773 L102 773 L102 0 L610 0 L610 101 L209 101 L209 350 L508 350 L508 448 L209 449 L209 672 L610 672 Z M349 -79 C308 -79 281 -107 281 -151 C281 -193 308 -223 349 -223 C391 -223 416 -191 416 -151 C416 -108 389 -79 349 -79 L349 -79 Z " />
<glyph glyph-name="uni1EC7" unicode="&#x1ec7;" horiz-adv-x="627" d="M294 802 L346 802 L461 678 L420 635 L320 718 L219 635 L178 678 L294 802 Z M53 276 C53 453 157 566 322 566 C502 566 589 447 565 238 L166 238 C176 141 233 75 334 75 C400 75 466 102 511 145 L564 71 C506 16 427 -16 334 -16 C162 -16 53 100 53 276 L53 276 Z M166 312 L469 312 C469 404 428 479 324 479 C220 479 166 403 166 312 L166 312 Z M327 -79 C367 -79 394 -108 394 -151 C394 -191 369 -223 327 -223 C286 -223 259 -193 259 -151 C259 -107 286 -79 327 -79 L327 -79 Z " />
<glyph glyph-name="uni1EC8" unicode="&#x1ec8;" horiz-adv-x="313" d="M186 839 L128 839 C171 889 207 924 207 959 C207 983 194 998 172 998 C152 998 138 988 122 971 L89 1011 C112 1038 142 1061 183 1062 C248 1063 281 1026 280 975 C279 916 221 868 186 839 L186 839 Z M212 0 L102 0 L102 773 L212 773 L212 0 Z " />
<glyph glyph-name="uni1EC9" unicode="&#x1ec9;" horiz-adv-x="287" d="M172 616 L114 616 C157 666 193 701 193 736 C193 760 180 775 158 775 C138 775 124 765 108 748 L75 788 C98 815 128 838 169 839 C234 840 267 803 266 752 C265 693 207 645 172 616 L172 616 Z M198 0 L89 0 L89 550 L198 550 L198 0 Z " />
<glyph glyph-name="uni1ECA" unicode="&#x1eca;" horiz-adv-x="313" d="M212 0 L102 0 L102 773 L212 773 L212 0 Z M160 -79 C200 -79 227 -108 227 -151 C227 -191 202 -223 160 -223 C119 -223 92 -193 92 -151 C92 -107 119 -79 160 -79 L160 -79 Z " />
<glyph glyph-name="uni1ECB" unicode="&#x1ecb;" horiz-adv-x="293" d="M143 861 C185 861 214 830 214 786 C214 745 187 710 143 710 C101 710 73 742 73 786 C73 831 101 861 143 861 L143 861 Z M202 0 L93 0 L93 550 L202 550 L202 0 Z M147 -79 C187 -79 214 -108 214 -151 C214 -191 189 -223 147 -223 C106 -223 79 -193 79 -151 C79 -107 106 -79 147 -79 L147 -79 Z " />
<glyph glyph-name="uni1ECC" unicode="&#x1ecc;" horiz-adv-x="884" d="M442 791 C668 791 817 625 817 387 C817 152 669 -18 442 -18 C216 -18 66 150 66 387 C66 621 214 791 442 791 L442 791 Z M442 689 C276 689 176 562 176 387 C176 212 275 85 442 85 C608 85 708 212 708 387 C708 563 605 689 442 689 L442 689 Z M442 -79 C482 -79 509 -108 509 -151 C509 -191 484 -223 442 -223 C401 -223 374 -193 374 -151 C374 -107 401 -79 442 -79 L442 -79 Z " />
<glyph glyph-name="uni1ECD" unicode="&#x1ecd;" horiz-adv-x="684" d="M342 566 C510 566 630 450 630 274 C630 120 530 -16 342 -16 C171 -16 53 100 53 274 C53 449 171 566 342 566 L342 566 Z M342 469 C226 469 164 381 164 274 C164 169 226 81 342 81 C456 81 519 169 519 274 C519 381 456 469 342 469 L342 469 Z M342 -79 C382 -79 409 -108 409 -151 C409 -191 384 -223 342 -223 C301 -223 274 -193 274 -151 C274 -107 301 -79 342 -79 L342 -79 Z " />
<glyph glyph-name="uni1ECE" unicode="&#x1ece;" horiz-adv-x="884" d="M470 839 L412 839 C455 889 491 924 491 959 C491 983 478 998 456 998 C436 998 422 988 406 971 L373 1011 C396 1038 426 1061 467 1062 C532 1063 565 1026 564 975 C563 916 505 868 470 839 L470 839 Z M442 791 C668 791 817 625 817 387 C817 152 669 -18 442 -18 C216 -18 66 150 66 387 C66 621 214 791 442 791 L442 791 Z M442 689 C276 689 176 562 176 387 C176 212 275 85 442 85 C608 85 708 212 708 387 C708 563 605 689 442 689 L442 689 Z " />
<glyph glyph-name="uni1ECF" unicode="&#x1ecf;" horiz-adv-x="684" d="M366 616 L308 616 C351 666 387 701 387 736 C387 760 374 775 352 775 C332 775 318 765 302 748 L269 788 C292 815 322 838 363 839 C428 840 461 803 460 752 C459 693 401 645 366 616 L366 616 Z M342 566 C510 566 630 450 630 274 C630 120 530 -16 342 -16 C171 -16 53 100 53 274 C53 449 171 566 342 566 L342 566 Z M342 469 C226 469 164 381 164 274 C164 169 226 81 342 81 C456 81 519 169 519 274 C519 381 456 469 342 469 L342 469 Z " />
<glyph glyph-name="uni1ED0" unicode="&#x1ed0;" horiz-adv-x="884" d="M384 1067 L601 1150 L564 1238 L363 1111 L384 1067 Z M416 1025 L468 1025 L583 901 L542 858 L442 941 L341 858 L300 901 L416 1025 Z M442 791 C668 791 817 625 817 387 C817 152 669 -18 442 -18 C216 -18 66 150 66 387 C66 621 214 791 442 791 L442 791 Z M442 689 C276 689 176 562 176 387 C176 212 275 85 442 85 C608 85 708 212 708 387 C708 563 605 689 442 689 L442 689 Z " />
<glyph glyph-name="uni1ED1" unicode="&#x1ed1;" horiz-adv-x="684" d="M280 844 L497 927 L460 1015 L259 888 L280 844 Z M312 802 L364 802 L479 678 L438 635 L338 718 L237 635 L196 678 L312 802 Z M342 566 C510 566 630 450 630 274 C630 120 530 -16 342 -16 C171 -16 53 100 53 274 C53 449 171 566 342 566 L342 566 Z M342 469 C226 469 164 381 164 274 C164 169 226 81 342 81 C456 81 519 169 519 274 C519 381 456 469 342 469 L342 469 Z " />
<glyph glyph-name="uni1ED2" unicode="&#x1ed2;" horiz-adv-x="884" d="M494 1067 L516 1111 L314 1238 L277 1150 L494 1067 Z M416 1025 L468 1025 L583 901 L542 858 L442 941 L341 858 L300 901 L416 1025 Z M442 791 C668 791 817 625 817 387 C817 152 669 -18 442 -18 C216 -18 66 150 66 387 C66 621 214 791 442 791 L442 791 Z M442 689 C276 689 176 562 176 387 C176 212 275 85 442 85 C608 85 708 212 708 387 C708 563 605 689 442 689 L442 689 Z " />
<glyph glyph-name="uni1ED3" unicode="&#x1ed3;" horiz-adv-x="684" d="M390 844 L412 888 L210 1015 L173 927 L390 844 Z M312 802 L364 802 L479 678 L438 635 L338 718 L237 635 L196 678 L312 802 Z M342 566 C510 566 630 450 630 274 C630 120 530 -16 342 -16 C171 -16 53 100 53 274 C53 449 171 566 342 566 L342 566 Z M342 469 C226 469 164 381 164 274 C164 169 226 81 342 81 C456 81 519 169 519 274 C519 381 456 469 342 469 L342 469 Z " />
<glyph glyph-name="uni1ED4" unicode="&#x1ed4;" horiz-adv-x="884" d="M470 1062 L412 1062 C455 1112 491 1147 491 1182 C491 1206 478 1221 456 1221 C436 1221 422 1211 406 1194 L373 1234 C396 1261 426 1284 467 1285 C532 1286 565 1249 564 1198 C563 1139 505 1091 470 1062 L470 1062 Z M416 1025 L468 1025 L583 901 L542 858 L442 941 L341 858 L300 901 L416 1025 Z M442 791 C668 791 817 625 817 387 C817 152 669 -18 442 -18 C216 -18 66 150 66 387 C66 621 214 791 442 791 L442 791 Z M442 689 C276 689 176 562 176 387 C176 212 275 85 442 85 C608 85 708 212 708 387 C708 563 605 689 442 689 L442 689 Z " />
<glyph glyph-name="uni1ED5" unicode="&#x1ed5;" horiz-adv-x="684" d="M366 839 L308 839 C351 889 387 924 387 959 C387 983 374 998 352 998 C332 998 318 988 302 971 L269 1011 C292 1038 322 1061 363 1062 C428 1063 461 1026 460 975 C459 916 401 868 366 839 L366 839 Z M312 802 L364 802 L479 678 L438 635 L338 718 L237 635 L196 678 L312 802 Z M342 566 C510 566 630 450 630 274 C630 120 530 -16 342 -16 C171 -16 53 100 53 274 C53 449 171 566 342 566 L342 566 Z M342 469 C226 469 164 381 164 274 C164 169 226 81 342 81 C456 81 519 169 519 274 C519 381 456 469 342 469 L342 469 Z " />
<glyph glyph-name="uni1ED6" unicode="&#x1ed6;" horiz-adv-x="884" d="M332 1093 C332 1125 341 1150 377 1150 C425 1150 449 1088 520 1088 C580 1088 632 1131 632 1219 L558 1219 C558 1188 550 1163 518 1163 C467 1163 443 1223 374 1223 C313 1223 257 1175 257 1093 L332 1093 Z M416 1025 L468 1025 L583 901 L542 858 L442 941 L341 858 L300 901 L416 1025 Z M442 791 C668 791 817 625 817 387 C817 152 669 -18 442 -18 C216 -18 66 150 66 387 C66 621 214 791 442 791 L442 791 Z M442 689 C276 689 176 562 176 387 C176 212 275 85 442 85 C608 85 708 212 708 387 C708 563 605 689 442 689 L442 689 Z " />
<glyph glyph-name="uni1ED7" unicode="&#x1ed7;" horiz-adv-x="684" d="M228 870 C228 902 237 927 273 927 C321 927 345 865 416 865 C476 865 528 908 528 996 L454 996 C454 965 446 940 414 940 C363 940 339 1000 270 1000 C209 1000 153 952 153 870 L228 870 Z M312 802 L364 802 L479 678 L438 635 L338 718 L237 635 L196 678 L312 802 Z M342 566 C510 566 630 450 630 274 C630 120 530 -16 342 -16 C171 -16 53 100 53 274 C53 449 171 566 342 566 L342 566 Z M342 469 C226 469 164 381 164 274 C164 169 226 81 342 81 C456 81 519 169 519 274 C519 381 456 469 342 469 L342 469 Z " />
<glyph glyph-name="uni1ED8" unicode="&#x1ed8;" horiz-adv-x="884" d="M416 1025 L468 1025 L583 901 L542 858 L442 941 L341 858 L300 901 L416 1025 Z M442 791 C668 791 817 625 817 387 C817 152 669 -18 442 -18 C216 -18 66 150 66 387 C66 621 214 791 442 791 L442 791 Z M442 689 C276 689 176 562 176 387 C176 212 275 85 442 85 C608 85 708 212 708 387 C708 563 605 689 442 689 L442 689 Z M442 -79 C482 -79 509 -108 509 -151 C509 -191 484 -223 442 -223 C401 -223 374 -193 374 -151 C374 -107 401 -79 442 -79 L442 -79 Z " />
<glyph glyph-name="uni1ED9" unicode="&#x1ed9;" horiz-adv-x="684" d="M312 802 L364 802 L479 678 L438 635 L338 718 L237 635 L196 678 L312 802 Z M342 566 C510 566 630 450 630 274 C630 120 530 -16 342 -16 C171 -16 53 100 53 274 C53 449 171 566 342 566 L342 566 Z M342 469 C226 469 164 381 164 274 C164 169 226 81 342 81 C456 81 519 169 519 274 C519 381 456 469 342 469 L342 469 Z M342 -79 C382 -79 409 -108 409 -151 C409 -191 384 -223 342 -223 C301 -223 274 -193 274 -151 C274 -107 301 -79 342 -79 L342 -79 Z " />
<glyph glyph-name="uni1EDA" unicode="&#x1eda;" horiz-adv-x="884" d="M600 927 L563 1015 L362 888 L383 844 L600 927 Z M691 702 L707 702 C811 702 826 777 811 860 L722 860 C731 809 719 784 669 785 C594 787 519 792 443 792 L442 792 L441 792 C214 791 66 621 66 387 C66 150 216 -18 442 -18 C669 -18 817 152 817 387 C817 520 771 630 691 702 L691 702 Z M442 85 C275 85 176 212 176 387 C176 562 276 689 442 689 C605 689 708 563 708 387 C708 212 608 85 442 85 L442 85 Z " />
<glyph glyph-name="uni1EDB" unicode="&#x1edb;" horiz-adv-x="693" d="M506 704 L469 792 L268 665 L289 621 L506 704 Z M661 637 L572 637 C581 586 569 561 519 562 C443 564 422 566 346 566 C175 566 58 449 58 274 C58 100 175 -16 346 -16 C534 -16 635 120 635 274 C635 363 604 437 552 488 C657 485 676 559 661 637 L661 637 Z M346 81 C235 81 169 169 169 274 C169 381 235 469 346 469 C457 469 523 381 523 274 C523 169 456 81 346 81 L346 81 Z " />
<glyph glyph-name="uni1EDC" unicode="&#x1edc;" horiz-adv-x="884" d="M515 888 L313 1015 L276 927 L493 844 L515 888 Z M691 702 L707 702 C811 702 826 777 811 860 L722 860 C731 809 719 784 669 785 C594 787 519 792 443 792 L442 792 L441 792 C214 791 66 621 66 387 C66 150 216 -18 442 -18 C669 -18 817 152 817 387 C817 520 771 630 691 702 L691 702 Z M442 85 C275 85 176 212 176 387 C176 562 276 689 442 689 C605 689 708 563 708 387 C708 212 608 85 442 85 L442 85 Z " />
<glyph glyph-name="uni1EDD" unicode="&#x1edd;" horiz-adv-x="693" d="M421 665 L219 792 L182 704 L399 621 L421 665 Z M661 637 L572 637 C581 586 569 561 519 562 C443 564 422 566 346 566 C175 566 58 449 58 274 C58 100 175 -16 346 -16 C534 -16 635 120 635 274 C635 363 604 437 552 488 C657 485 676 559 661 637 L661 637 Z M346 81 C235 81 169 169 169 274 C169 381 235 469 346 469 C457 469 523 381 523 274 C523 169 456 81 346 81 L346 81 Z " />
<glyph glyph-name="uni1EDE" unicode="&#x1ede;" horiz-adv-x="884" d="M455 998 C477 998 490 983 490 959 C490 924 454 889 411 839 L469 839 C504 868 562 916 563 975 C564 1026 531 1063 466 1062 C425 1061 395 1038 372 1011 L405 971 C421 988 435 998 455 998 L455 998 Z M691 702 L707 702 C811 702 826 777 811 860 L722 860 C731 809 719 784 669 785 C594 787 519 792 443 792 L442 792 L441 792 C214 791 66 621 66 387 C66 150 216 -18 442 -18 C669 -18 817 152 817 387 C817 520 771 630 691 702 L691 702 Z M442 85 C275 85 176 212 176 387 C176 562 276 689 442 689 C605 689 708 563 708 387 C708 212 608 85 442 85 L442 85 Z " />
<glyph glyph-name="uni1EDF" unicode="&#x1edf;" horiz-adv-x="693" d="M361 775 C383 775 396 760 396 736 C396 701 360 666 317 616 L375 616 C410 645 468 693 469 752 C470 803 437 840 372 839 C331 838 301 815 278 788 L311 748 C327 765 341 775 361 775 L361 775 Z M661 637 L572 637 C581 586 569 561 519 562 C443 564 422 566 346 566 C175 566 58 449 58 274 C58 100 175 -16 346 -16 C534 -16 635 120 635 274 C635 363 604 437 552 488 C657 485 676 559 661 637 L661 637 Z M346 81 C235 81 169 169 169 274 C169 381 235 469 346 469 C457 469 523 381 523 274 C523 169 456 81 346 81 L346 81 Z " />
<glyph glyph-name="uni1EE0" unicode="&#x1ee0;" horiz-adv-x="884" d="M376 927 C424 927 448 865 519 865 C579 865 631 908 631 996 L557 996 C557 965 549 940 517 940 C466 940 442 1000 373 1000 C312 1000 256 952 256 870 L331 870 C331 902 340 927 376 927 L376 927 Z M691 702 L707 702 C811 702 826 777 811 860 L722 860 C731 809 719 784 669 785 C594 787 519 792 443 792 L442 792 L441 792 C214 791 66 621 66 387 C66 150 216 -18 442 -18 C669 -18 817 152 817 387 C817 520 771 630 691 702 L691 702 Z M442 85 C275 85 176 212 176 387 C176 562 276 689 442 689 C605 689 708 563 708 387 C708 212 608 85 442 85 L442 85 Z " />
<glyph glyph-name="uni1EE1" unicode="&#x1ee1;" horiz-adv-x="693" d="M282 704 C330 704 354 642 425 642 C485 642 537 685 537 773 L463 773 C463 742 455 717 423 717 C372 717 348 777 279 777 C218 777 162 729 162 647 L237 647 C237 679 246 704 282 704 L282 704 Z M661 637 L572 637 C581 586 569 561 519 562 C443 564 422 566 346 566 C175 566 58 449 58 274 C58 100 175 -16 346 -16 C534 -16 635 120 635 274 C635 363 604 437 552 488 C657 485 676 559 661 637 L661 637 Z M346 81 C235 81 169 169 169 274 C169 381 235 469 346 469 C457 469 523 381 523 274 C523 169 456 81 346 81 L346 81 Z " />
<glyph glyph-name="uni1EE2" unicode="&#x1ee2;" horiz-adv-x="884" d="M691 702 L707 702 C811 702 826 777 811 860 L722 860 C731 809 719 784 669 785 C594 787 519 792 443 792 L442 792 L441 792 C214 791 66 621 66 387 C66 150 216 -18 442 -18 C669 -18 817 152 817 387 C817 520 771 630 691 702 L691 702 Z M442 85 C275 85 176 212 176 387 C176 562 276 689 442 689 C605 689 708 563 708 387 C708 212 608 85 442 85 L442 85 Z M443 -79 C402 -79 375 -107 375 -151 C375 -193 402 -223 443 -223 C485 -223 510 -191 510 -151 C510 -108 483 -79 443 -79 L443 -79 Z " />
<glyph glyph-name="uni1EE3" unicode="&#x1ee3;" horiz-adv-x="693" d="M661 637 L572 637 C581 586 569 561 519 562 C443 564 422 566 346 566 C175 566 58 449 58 274 C58 100 175 -16 346 -16 C534 -16 635 120 635 274 C635 363 604 437 552 488 C657 485 676 559 661 637 L661 637 Z M346 81 C235 81 169 169 169 274 C169 381 235 469 346 469 C457 469 523 381 523 274 C523 169 456 81 346 81 L346 81 Z M347 -79 C306 -79 279 -107 279 -151 C279 -193 306 -223 347 -223 C389 -223 414 -191 414 -151 C414 -108 387 -79 347 -79 L347 -79 Z " />
<glyph glyph-name="uni1EE4" unicode="&#x1ee4;" horiz-adv-x="843" d="M746 773 L746 343 C746 126 637 -18 422 -18 C204 -18 97 126 97 343 L97 773 L207 773 L207 353 C207 163 299 79 422 79 C542 79 636 161 636 353 L636 773 L746 773 Z M422 -79 C462 -79 489 -108 489 -151 C489 -191 464 -223 422 -223 C381 -223 354 -193 354 -151 C354 -107 381 -79 422 -79 L422 -79 Z " />
<glyph glyph-name="uni1EE5" unicode="&#x1ee5;" horiz-adv-x="659" d="M464 550 L464 221 C422 149 372 98 302 98 C224 98 191 146 191 239 L192 550 L80 550 L80 219 C80 43 168 -15 280 -15 C368 -15 428 37 467 88 L486 0 L575 0 L575 550 L464 550 Z M312 -79 C271 -79 244 -107 244 -151 C244 -193 271 -223 312 -223 C354 -223 379 -191 379 -151 C379 -108 352 -79 312 -79 L312 -79 Z " />
<glyph glyph-name="uni1EE6" unicode="&#x1ee6;" horiz-adv-x="843" d="M450 839 L392 839 C435 889 471 924 471 959 C471 983 458 998 436 998 C416 998 402 988 386 971 L353 1011 C376 1038 406 1061 447 1062 C512 1063 545 1026 544 975 C543 916 485 868 450 839 L450 839 Z M746 773 L746 343 C746 126 637 -18 422 -18 C204 -18 97 126 97 343 L97 773 L207 773 L207 353 C207 163 299 79 422 79 C542 79 636 161 636 353 L636 773 L746 773 Z " />
<glyph glyph-name="uni1EE7" unicode="&#x1ee7;" horiz-adv-x="659" d="M344 775 C366 775 379 760 379 736 C379 701 343 666 300 616 L358 616 C393 645 451 693 452 752 C453 803 420 840 355 839 C314 838 284 815 261 788 L294 748 C310 765 324 775 344 775 L344 775 Z M464 550 L464 221 C422 149 372 98 302 98 C224 98 191 146 191 239 L192 550 L80 550 L80 219 C80 43 168 -15 280 -15 C368 -15 428 37 467 88 L486 0 L575 0 L575 550 L464 550 Z " />
<glyph glyph-name="uni1EE8" unicode="&#x1ee8;" horiz-adv-x="874" d="M584 927 L547 1015 L346 888 L367 844 L584 927 Z M903 849 L814 849 C823 798 811 772 761 773 L636 773 L636 355 C636 163 542 81 422 81 C300 81 208 165 208 355 L208 773 L98 773 L98 345 C98 128 205 -16 422 -16 C638 -16 746 128 746 345 L746 691 L792 691 C897 691 912 766 903 849 L903 849 Z " />
<glyph glyph-name="uni1EE9" unicode="&#x1ee9;" horiz-adv-x="734" d="M500 704 L463 792 L262 665 L283 621 L500 704 Z M715 626 L626 626 C635 577 624 551 578 550 L469 550 L469 223 C427 150 378 98 307 98 C229 98 196 146 196 239 L196 550 L84 550 L84 219 C84 43 173 -15 285 -15 C373 -15 434 37 472 88 L491 0 L580 0 L580 468 L605 468 C709 468 724 543 715 626 L715 626 Z " />
<glyph glyph-name="uni1EEA" unicode="&#x1eea;" horiz-adv-x="874" d="M499 888 L297 1015 L260 927 L477 844 L499 888 Z M903 849 L814 849 C823 798 811 772 761 773 L636 773 L636 355 C636 163 542 81 422 81 C300 81 208 165 208 355 L208 773 L98 773 L98 345 C98 128 205 -16 422 -16 C638 -16 746 128 746 345 L746 691 L792 691 C897 691 912 766 903 849 L903 849 Z " />
<glyph glyph-name="uni1EEB" unicode="&#x1eeb;" horiz-adv-x="734" d="M415 665 L213 792 L176 704 L393 621 L415 665 Z M715 626 L626 626 C635 577 624 551 578 550 L469 550 L469 223 C427 150 378 98 307 98 C229 98 196 146 196 239 L196 550 L84 550 L84 219 C84 43 173 -15 285 -15 C373 -15 434 37 472 88 L491 0 L580 0 L580 468 L605 468 C709 468 724 543 715 626 L715 626 Z " />
<glyph glyph-name="uni1EEC" unicode="&#x1eec;" horiz-adv-x="874" d="M439 998 C461 998 474 983 474 959 C474 924 438 889 395 839 L453 839 C488 868 546 916 547 975 C548 1026 515 1063 450 1062 C409 1061 379 1038 356 1011 L389 971 C405 988 419 998 439 998 L439 998 Z M903 849 L814 849 C823 798 811 772 761 773 L636 773 L636 355 C636 163 542 81 422 81 C300 81 208 165 208 355 L208 773 L98 773 L98 345 C98 128 205 -16 422 -16 C638 -16 746 128 746 345 L746 691 L792 691 C897 691 912 766 903 849 L903 849 Z " />
<glyph glyph-name="uni1EED" unicode="&#x1eed;" horiz-adv-x="734" d="M355 775 C377 775 390 760 390 736 C390 701 354 666 311 616 L369 616 C404 645 462 693 463 752 C464 803 431 840 366 839 C325 838 295 815 272 788 L305 748 C321 765 335 775 355 775 L355 775 Z M715 626 L626 626 C635 577 624 551 578 550 L469 550 L469 223 C427 150 378 98 307 98 C229 98 196 146 196 239 L196 550 L84 550 L84 219 C84 43 173 -15 285 -15 C373 -15 434 37 472 88 L491 0 L580 0 L580 468 L605 468 C709 468 724 543 715 626 L715 626 Z " />
<glyph glyph-name="uni1EEE" unicode="&#x1eee;" horiz-adv-x="874" d="M360 927 C408 927 432 865 503 865 C563 865 615 908 615 996 L541 996 C541 965 533 940 501 940 C450 940 426 1000 357 1000 C296 1000 240 952 240 870 L315 870 C315 902 324 927 360 927 L360 927 Z M903 849 L814 849 C823 798 811 772 761 773 L636 773 L636 355 C636 163 542 81 422 81 C300 81 208 165 208 355 L208 773 L98 773 L98 345 C98 128 205 -16 422 -16 C638 -16 746 128 746 345 L746 691 L792 691 C897 691 912 766 903 849 L903 849 Z " />
<glyph glyph-name="uni1EEF" unicode="&#x1eef;" horiz-adv-x="734" d="M276 704 C324 704 348 642 419 642 C479 642 531 685 531 773 L457 773 C457 742 449 717 417 717 C366 717 342 777 273 777 C212 777 156 729 156 647 L231 647 C231 679 240 704 276 704 L276 704 Z M715 626 L626 626 C635 577 624 551 578 550 L469 550 L469 223 C427 150 378 98 307 98 C229 98 196 146 196 239 L196 550 L84 550 L84 219 C84 43 173 -15 285 -15 C373 -15 434 37 472 88 L491 0 L580 0 L580 468 L605 468 C709 468 724 543 715 626 L715 626 Z " />
<glyph glyph-name="uni1EF0" unicode="&#x1ef0;" horiz-adv-x="874" d="M903 849 L814 849 C823 798 811 772 761 773 L636 773 L636 355 C636 163 542 81 422 81 C300 81 208 165 208 355 L208 773 L98 773 L98 345 C98 128 205 -16 422 -16 C638 -16 746 128 746 345 L746 691 L792 691 C897 691 912 766 903 849 L903 849 Z M422 -79 C381 -79 354 -107 354 -151 C354 -193 381 -223 422 -223 C464 -223 489 -191 489 -151 C489 -108 462 -79 422 -79 L422 -79 Z " />
<glyph glyph-name="uni1EF1" unicode="&#x1ef1;" horiz-adv-x="734" d="M715 626 L626 626 C635 577 624 551 578 550 L469 550 L469 223 C427 150 378 98 307 98 C229 98 196 146 196 239 L196 550 L84 550 L84 219 C84 43 173 -15 285 -15 C373 -15 434 37 472 88 L491 0 L580 0 L580 468 L605 468 C709 468 724 543 715 626 L715 626 Z M286 -79 C245 -79 218 -107 218 -151 C218 -193 245 -223 286 -223 C328 -223 353 -191 353 -151 C353 -108 326 -79 286 -79 L286 -79 Z " />
<glyph glyph-name="Ygrave" unicode="&#x1ef2;" horiz-adv-x="713" d="M430 885 L228 1012 L191 924 L408 841 L430 885 Z M685 773 L561 773 L356 376 L151 773 L27 773 L298 290 L298 0 L412 0 L412 287 L685 773 Z " />
<glyph glyph-name="ygrave" unicode="&#x1ef3;" horiz-adv-x="574" d="M364 665 L162 792 L125 704 L342 621 L364 665 Z M441 550 L294 121 L143 550 L31 550 L239 -1 C192 -132 155 -198 30 -148 L23 -253 C190 -300 271 -224 329 -60 L552 550 L441 550 Z " />
<glyph glyph-name="uni1EF4" unicode="&#x1ef4;" horiz-adv-x="713" d="M298 0 L412 0 L412 287 L685 773 L561 773 L356 376 L151 773 L27 773 L298 290 L298 0 Z M355 -79 C314 -79 287 -107 287 -151 C287 -193 314 -223 355 -223 C397 -223 422 -191 422 -151 C422 -108 395 -79 355 -79 L355 -79 Z " />
<glyph glyph-name="uni1EF5" unicode="&#x1ef5;" horiz-adv-x="574" d="M329 -60 L552 550 L441 550 L294 121 L143 550 L31 550 L239 -1 C192 -132 155 -198 30 -148 L23 -253 C190 -300 271 -224 329 -60 L329 -60 Z M282 -342 C241 -342 214 -370 214 -414 C214 -456 241 -486 282 -486 C324 -486 349 -454 349 -414 C349 -371 322 -342 282 -342 L282 -342 Z " />
<glyph glyph-name="uni1EF6" unicode="&#x1ef6;" horiz-adv-x="713" d="M370 995 C392 995 405 980 405 956 C405 921 369 886 326 836 L384 836 C419 865 477 913 478 972 C479 1023 446 1060 381 1059 C340 1058 310 1035 287 1008 L320 968 C336 985 350 995 370 995 L370 995 Z M685 773 L561 773 L356 376 L151 773 L27 773 L298 290 L298 0 L412 0 L412 287 L685 773 Z " />
<glyph glyph-name="uni1EF7" unicode="&#x1ef7;" horiz-adv-x="574" d="M304 775 C326 775 339 760 339 736 C339 701 303 666 260 616 L318 616 C353 645 411 693 412 752 C413 803 380 840 315 839 C274 838 244 815 221 788 L254 748 C270 765 284 775 304 775 L304 775 Z M441 550 L294 121 L143 550 L31 550 L239 -1 C192 -132 155 -198 30 -148 L23 -253 C190 -300 271 -224 329 -60 L552 550 L441 550 Z " />
<glyph glyph-name="uni1EF8" unicode="&#x1ef8;" horiz-adv-x="713" d="M283 924 C331 924 355 862 426 862 C486 862 538 905 538 993 L464 993 C464 962 456 937 424 937 C373 937 349 997 280 997 C219 997 163 949 163 867 L238 867 C238 899 247 924 283 924 L283 924 Z M685 773 L561 773 L356 376 L151 773 L27 773 L298 290 L298 0 L412 0 L412 287 L685 773 Z " />
<glyph glyph-name="uni1EF9" unicode="&#x1ef9;" horiz-adv-x="574" d="M217 704 C265 704 289 642 360 642 C420 642 472 685 472 773 L398 773 C398 742 390 717 358 717 C307 717 283 777 214 777 C153 777 97 729 97 647 L172 647 C172 679 181 704 217 704 L217 704 Z M441 550 L294 121 L143 550 L31 550 L239 -1 C192 -132 155 -198 30 -148 L23 -253 C190 -300 271 -224 329 -60 L552 550 L441 550 Z " />
<glyph glyph-name="uni2009" unicode="&#x2009;" horiz-adv-x="173" d="" />
<glyph glyph-name="endash" unicode="&#x2013;" horiz-adv-x="585" d="M522 402 L522 307 L63 307 L63 402 L522 402 Z " />
<glyph glyph-name="emdash" unicode="&#x2014;" horiz-adv-x="1000" d="M936 405 L936 308 L63 308 L63 405 L936 405 Z " />
<glyph glyph-name="quoteleft" unicode="&#x2018;" horiz-adv-x="168" d="M75 591 C34 591 6 621 6 677 C6 742 35 808 100 860 L129 832 C89 796 62 759 63 724 C70 726 75 726 79 726 C115 726 142 698 142 658 C142 620 115 591 75 591 L75 591 Z " />
<glyph glyph-name="quoteright" unicode="&#x2019;" horiz-adv-x="168" d="M92 860 C134 860 162 830 162 774 C162 710 133 643 68 591 L39 619 C79 655 105 692 105 727 C97 725 92 725 89 725 C53 725 26 753 26 794 C26 831 53 860 92 860 L92 860 Z " />
<glyph glyph-name="quotesinglbase" unicode="&#x201a;" horiz-adv-x="600" d="M109 119 C150 119 179 89 179 33 C179 -31 149 -98 85 -150 C78 -143 61 -128 56 -122 C95 -86 122 -49 122 -14 C114 -16 109 -16 106 -16 C70 -16 43 12 43 53 C43 90 69 119 109 119 L109 119 Z " />
<glyph glyph-name="quotedblleft" unicode="&#x201c;" horiz-adv-x="436" d="M146 591 C105 591 77 621 77 677 C77 742 106 808 171 860 L200 832 C160 796 133 759 134 724 C141 726 146 726 150 726 C186 726 213 698 213 658 C213 620 186 591 146 591 L146 591 Z M316 591 C275 591 247 621 247 677 C247 742 276 808 341 860 L370 832 C330 796 303 759 304 724 C311 726 316 726 320 726 C356 726 383 698 383 658 C383 620 356 591 316 591 L316 591 Z " />
<glyph glyph-name="quotedblright" unicode="&#x201d;" horiz-adv-x="436" d="M119 860 C160 860 189 830 189 774 C189 710 159 643 95 591 C88 598 71 613 66 619 C105 655 132 692 132 727 C124 725 119 725 116 725 C80 725 53 753 53 794 C53 831 79 860 119 860 L119 860 Z M289 860 C330 860 359 830 359 774 C359 710 329 643 265 591 C258 598 241 613 236 619 C275 655 302 692 302 727 C294 725 289 725 286 725 C250 725 223 753 223 794 C223 831 249 860 289 860 L289 860 Z " />
<glyph glyph-name="quotedblbase" unicode="&#x201e;" horiz-adv-x="223" d="M109 119 C69 119 43 90 43 53 C43 12 70 -16 106 -16 C109 -16 114 -16 122 -14 C122 -49 95 -86 56 -122 C61 -128 78 -143 85 -150 C149 -98 179 -31 179 33 C179 89 150 119 109 119 L109 119 Z " />
<glyph glyph-name="dagger" unicode="&#x2020;" horiz-adv-x="522" d="M407 723 L307 713 L316 810 L316 860 L205 860 L205 810 L214 713 L113 723 L63 723 L63 612 L113 612 L215 621 L205 456 L205 336 L316 336 L316 456 L306 621 L407 612 L457 612 L457 723 L407 723 Z " />
<glyph glyph-name="daggerdbl" unicode="&#x2021;" horiz-adv-x="522" d="M457 572 L457 683 L407 683 L307 673 L316 770 L316 860 L205 860 L205 770 L214 673 L113 683 L63 683 L63 572 L113 572 L215 581 L205 459 L205 407 L215 253 L113 263 L63 263 L63 151 L113 151 L214 160 L205 39 L205 -61 L316 -61 L316 39 L307 160 L407 151 L457 151 L457 263 L407 263 L306 253 L316 407 L316 459 L307 581 L407 572 L457 572 Z " />
<glyph glyph-name="bullet" unicode="&#x2022;" horiz-adv-x="351" d="M175 551 C245 551 293 500 293 425 C293 358 247 298 175 298 C104 298 57 353 57 425 C57 501 103 551 175 551 L175 551 Z " />
<glyph glyph-name="ellipsis" unicode="&#x2026;" horiz-adv-x="669" d="M132 107 C166 107 190 81 190 45 C190 10 168 -18 132 -18 C97 -18 74 8 74 45 C74 82 96 107 132 107 L132 107 Z M335 107 C369 107 393 81 393 45 C393 10 371 -18 335 -18 C300 -18 277 8 277 45 C277 82 300 107 335 107 L335 107 Z M537 107 C572 107 596 81 596 45 C596 10 573 -18 537 -18 C502 -18 479 8 479 45 C479 82 502 107 537 107 L537 107 Z " />
<glyph glyph-name="perthousand" unicode="&#x2030;" horiz-adv-x="1195" d="M259 -11 L185 28 L570 711 L644 671 L259 -11 Z M226 699 C321 699 392 637 392 542 C392 467 341 387 226 387 C131 387 61 447 61 542 C61 638 131 699 226 699 L226 699 Z M226 623 C178 623 152 586 152 542 C152 500 178 462 226 462 C274 462 301 500 301 542 C301 586 274 623 226 623 L226 623 Z M605 301 C700 301 770 239 770 145 C770 70 719 -11 605 -11 C509 -11 440 50 440 145 C440 240 509 301 605 301 L605 301 Z M969 301 C1064 301 1134 239 1134 145 C1134 70 1083 -11 969 -11 C873 -11 804 50 804 145 C804 240 873 301 969 301 L969 301 Z M605 226 C557 226 530 188 530 145 C530 102 557 65 605 65 C652 65 680 102 680 145 C680 188 653 226 605 226 L605 226 Z M969 226 C921 226 894 188 894 145 C894 102 921 65 969 65 C1016 65 1044 102 1044 145 C1044 188 1017 226 969 226 L969 226 Z " />
<glyph glyph-name="guilsinglleft" unicode="&#x2039;" horiz-adv-x="432" d="M337 443 L263 515 L65 277 L263 39 L337 111 L181 278 L337 443 Z " />
<glyph glyph-name="guilsinglright" unicode="&#x203a;" horiz-adv-x="432" d="M170 515 L96 443 L251 278 L96 111 L170 39 L367 277 L170 515 Z " />
<glyph glyph-name="uni203D" unicode="&#x203d;" horiz-adv-x="662" d="M333 870 C201 870 105 797 63 730 L149 671 C178 712 240 774 332 774 C434 774 504 709 504 617 C504 536 461 468 372 440 L376 504 L376 656 L267 656 L267 504 L287 225 L359 225 L366 347 C506 371 603 470 603 618 C603 756 501 870 333 870 L333 870 Z M321 122 C282 122 256 95 256 53 C256 13 282 -17 321 -17 C361 -17 386 15 386 53 C386 94 360 122 321 122 L321 122 Z " />
<glyph glyph-name="fraction" unicode="&#x2044;" horiz-adv-x="206" d="M333 802 L402 763 L-116 -7 L-184 29 L333 802 Z " />
<glyph glyph-name="uni2070" unicode="&#x2070;" horiz-adv-x="398" d="M198 474 C104 474 51 553 51 652 C51 752 105 830 199 830 C292 830 347 753 347 653 C347 552 292 474 198 474 L198 474 Z M199 763 C141 763 129 692 129 652 C129 608 142 542 198 542 C249 542 269 594 269 650 C269 697 256 763 199 763 L199 763 Z " />
<glyph glyph-name="uni2074" unicode="&#x2074;" horiz-adv-x="378" d="M336 623 L291 621 L291 821 L219 821 L44 623 L68 554 L219 554 L219 481 L291 481 L291 554 L336 554 L336 623 Z M116 615 L219 730 L219 619 L116 615 Z " />
<glyph glyph-name="uni2075" unicode="&#x2075;" horiz-adv-x="350" d="M176 697 C165 697 153 695 142 693 L148 752 L272 746 L272 821 L85 821 L70 662 L129 626 C138 634 149 641 168 641 C203 641 220 618 220 589 C220 562 204 539 164 539 C136 539 110 552 89 576 L45 529 C68 502 106 475 170 475 C261 475 297 528 297 584 C297 653 243 697 176 697 L176 697 Z " />
<glyph glyph-name="uni2076" unicode="&#x2076;" horiz-adv-x="368" d="M199 701 C169 701 147 694 129 679 C135 723 151 762 194 762 C215 762 237 754 249 744 L300 794 C277 814 238 830 195 830 C104 830 51 752 51 647 C51 552 90 475 189 475 C272 475 316 526 316 589 C316 663 260 701 199 701 L199 701 Z M188 543 C144 543 132 576 128 607 C144 628 171 633 188 633 C218 633 236 614 236 589 C236 567 227 543 188 543 L188 543 Z " />
<glyph glyph-name="uni2077" unicode="&#x2077;" horiz-adv-x="336" d="M58 821 L58 744 L216 751 L85 481 L170 481 L293 754 L293 821 L58 821 Z " />
<glyph glyph-name="uni2078" unicode="&#x2078;" horiz-adv-x="350" d="M247 659 C278 675 295 702 295 733 C295 791 244 830 174 830 C103 830 54 791 54 733 C54 699 72 674 100 659 C68 643 45 614 45 576 C45 514 99 474 174 474 C260 474 303 525 303 577 C303 614 280 642 247 659 L247 659 Z M174 771 C209 771 226 752 226 726 C226 702 206 683 174 683 C141 683 122 702 122 726 C122 752 138 771 174 771 L174 771 Z M174 538 C136 538 117 558 117 583 C117 607 138 629 174 629 C210 629 232 607 232 583 C232 558 212 538 174 538 L174 538 Z " />
<glyph glyph-name="uni2079" unicode="&#x2079;" horiz-adv-x="364" d="M178 830 C97 830 52 778 52 716 C52 643 108 604 169 604 C199 604 221 611 238 625 C233 581 217 542 174 542 C153 542 131 551 118 561 L68 511 C90 491 129 475 173 475 C264 475 317 552 317 658 C317 753 277 830 178 830 L178 830 Z M180 671 C150 671 131 690 131 716 C131 737 140 761 180 761 C224 761 236 728 239 697 C222 675 195 671 180 671 L180 671 Z " />
<glyph glyph-name="Euro" unicode="&#x20ac;" horiz-adv-x="747" d="M446 76 C356 76 302 138 280 232 L468 232 L481 300 L270 300 C269 313 269 326 269 339 C269 352 269 365 270 377 L495 377 L507 444 L280 444 C302 541 358 603 447 603 C510 603 556 575 593 513 L673 567 C620 653 541 701 448 701 C309 701 208 600 177 444 L105 444 L93 377 L168 377 C167 365 167 353 167 340 C167 326 167 313 168 300 L105 300 L93 232 L178 232 C210 77 312 -20 448 -20 C539 -20 620 27 673 113 L591 167 C557 104 510 76 446 76 L446 76 Z " />
<glyph glyph-name="uni20B1" unicode="&#x20b1;" horiz-adv-x="794" d="M734 473 L659 473 C649 600 561 680 413 680 L156 680 L156 473 L102 473 L102 425 L156 425 L156 0 L259 0 L259 223 L413 223 C561 223 650 298 659 425 L734 425 L734 473 Z M259 576 L402 576 C477 576 538 546 549 473 L259 473 L259 576 Z M402 323 L259 323 L259 425 L549 425 C539 356 480 323 402 323 L402 323 Z " />
<glyph glyph-name="uni20BD" unicode="&#x20bd;" horiz-adv-x="741" d="M435 680 L181 680 L181 338 L102 338 L102 237 L181 237 L181 166 L102 166 L102 100 L181 100 L181 0 L283 0 L283 100 L429 100 L429 166 L283 166 L283 237 L435 237 C592 237 681 314 681 456 C681 597 593 680 435 680 L435 680 Z M423 338 L283 338 L283 576 L423 576 C506 576 572 547 572 457 C572 370 510 338 423 338 L423 338 Z " />
<glyph glyph-name="uni20BF" unicode="&#x20bf;" horiz-adv-x="687" d="M516 364 C543 378 582 426 582 502 C582 606 514 680 414 680 L409 680 L409 773 L350 773 L350 680 L307 680 L307 773 L247 773 L247 680 L102 680 L102 0 L247 0 L247 -93 L307 -93 L307 0 L350 0 L350 -93 L409 -93 L409 0 L441 0 C549 0 623 81 623 193 C623 272 579 340 516 364 L516 364 Z M403 589 C451 589 495 554 495 492 C495 436 460 397 412 397 L200 397 L200 589 L403 589 Z M427 91 L200 91 L200 305 L428 305 C486 305 532 264 532 199 C532 136 484 91 427 91 L427 91 Z " />
<glyph glyph-name="uni2116" unicode="&#x2116;" horiz-adv-x="1331" d="M1037 311 C1193 311 1276 423 1276 551 C1276 697 1176 793 1037 793 C895 793 798 696 798 551 C798 406 895 311 1037 311 L1037 311 Z M573 190 L216 773 L111 773 L111 0 L219 0 L219 582 L576 0 L680 0 L680 773 L573 773 L573 190 Z M1041 696 C1123 696 1173 631 1173 551 C1173 473 1122 408 1041 408 C958 408 909 473 909 551 C909 631 958 696 1041 696 L1041 696 Z M826 0 L1245 0 L1245 97 L826 97 L826 0 Z " />
<glyph glyph-name="uni2117" unicode="&#x2117;" horiz-adv-x="838" d="M415 733 C224 733 70 596 70 389 C70 181 224 44 415 44 C605 44 759 180 759 389 C759 596 605 733 415 733 L415 733 Z M415 110 C261 110 137 219 137 389 C137 558 261 667 415 667 C568 667 693 559 693 389 C693 218 568 110 415 110 L415 110 Z M417 540 L321 540 L321 231 L387 231 L387 331 L417 331 C511 331 552 367 552 435 C552 498 511 540 417 540 L417 540 Z M417 388 L387 388 L387 481 L417 481 C455 481 484 474 484 434 C484 394 457 388 417 388 L417 388 Z " />
<glyph glyph-name="trademark" unicode="&#x2122;" horiz-adv-x="704" d="M37 706 L126 706 L126 464 L198 464 L198 706 L288 706 L288 773 L37 773 L37 706 Z M647 464 L627 773 L537 773 L483 565 L428 773 L338 773 L318 464 L390 464 L401 655 L453 464 L511 464 L565 666 L576 464 L647 464 Z " />
<glyph glyph-name="estimated" unicode="&#x212e;" horiz-adv-x="943" d="M215 370 C215 373 217 374 220 374 L877 374 L877 384 C877 484 831 576 758 642 C685 708 582 749 470 749 C358 749 257 708 184 642 C111 576 66 484 66 384 C66 284 111 192 184 127 C257 62 358 21 470 21 C601 21 720 74 791 161 L743 161 C678 89 579 55 472 55 C373 55 291 82 224 149 C218 155 215 162 215 171 L215 370 Z M220 407 C217 407 215 409 215 414 L215 596 C215 605 218 615 225 620 C289 684 376 717 472 717 C568 717 654 688 718 624 C724 617 727 609 727 600 L727 414 C727 409 726 407 723 407 L220 407 Z " />
<glyph glyph-name="oneeighth" unicode="&#x215b;" horiz-adv-x="885" d="M662 802 L145 29 L213 -7 L731 763 L662 802 Z M206 431 L206 771 L157 771 L43 737 L65 672 L126 693 L126 431 L206 431 Z M782 178 C813 194 830 221 830 252 C830 310 779 349 709 349 C638 349 589 310 589 252 C589 218 607 193 635 178 C603 162 580 133 580 95 C580 33 634 -7 709 -7 C795 -7 838 44 838 96 C838 133 815 161 782 178 L782 178 Z M709 290 C744 290 761 271 761 245 C761 221 741 202 709 202 C676 202 657 221 657 245 C657 271 673 290 709 290 L709 290 Z M709 57 C671 57 652 77 652 102 C652 126 673 148 709 148 C745 148 767 126 767 102 C767 77 747 57 709 57 L709 57 Z " />
<glyph glyph-name="threeeighths" unicode="&#x215c;" horiz-adv-x="915" d="M692 802 L175 29 L243 -7 L761 763 L692 802 Z M289 532 C289 579 255 618 194 627 L278 705 L278 771 L60 771 L60 695 L178 700 L100 634 L119 578 C133 580 144 580 155 580 C197 580 208 554 208 535 C208 518 197 492 155 492 C132 492 109 501 95 515 L43 469 C59 448 101 424 155 424 C257 424 289 480 289 532 L289 532 Z M812 178 C843 194 860 221 860 252 C860 310 809 349 739 349 C668 349 619 310 619 252 C619 218 637 193 665 178 C633 162 610 133 610 95 C610 33 664 -7 739 -7 C825 -7 868 44 868 96 C868 133 845 161 812 178 L812 178 Z M739 290 C774 290 791 271 791 245 C791 221 771 202 739 202 C706 202 687 221 687 245 C687 271 703 290 739 290 L739 290 Z M739 57 C701 57 682 77 682 102 C682 126 703 148 739 148 C775 148 797 126 797 102 C797 77 777 57 739 57 L739 57 Z " />
<glyph glyph-name="fiveeighths" unicode="&#x215d;" horiz-adv-x="906" d="M683 802 L166 29 L234 -7 L752 763 L683 802 Z M297 534 C297 603 243 647 176 647 C165 647 153 645 142 643 L148 702 L272 696 L272 771 L85 771 L70 612 L129 576 C138 584 149 591 168 591 C203 591 220 568 220 539 C220 512 204 489 164 489 C136 489 110 502 89 526 L45 479 C68 452 106 425 170 425 C261 425 297 478 297 534 L297 534 Z M803 178 C834 194 851 221 851 252 C851 310 800 349 730 349 C659 349 610 310 610 252 C610 218 628 193 656 178 C624 162 601 133 601 95 C601 33 655 -7 730 -7 C816 -7 859 44 859 96 C859 133 836 161 803 178 L803 178 Z M730 290 C765 290 782 271 782 245 C782 221 762 202 730 202 C697 202 678 221 678 245 C678 271 694 290 730 290 L730 290 Z M730 57 C692 57 673 77 673 102 C673 126 694 148 730 148 C766 148 788 126 788 102 C788 77 768 57 730 57 L730 57 Z " />
<glyph glyph-name="seveneighths" unicode="&#x215e;" horiz-adv-x="855" d="M632 802 L115 29 L183 -7 L701 763 L632 802 Z M170 431 L293 704 L293 771 L58 771 L58 694 L216 701 L85 431 L170 431 Z M752 178 C783 194 800 221 800 252 C800 310 749 349 679 349 C608 349 559 310 559 252 C559 218 577 193 605 178 C573 162 550 133 550 95 C550 33 604 -7 679 -7 C765 -7 808 44 808 96 C808 133 785 161 752 178 L752 178 Z M679 290 C714 290 731 271 731 245 C731 221 711 202 679 202 C646 202 627 221 627 245 C627 271 643 290 679 290 L679 290 Z M679 57 C641 57 622 77 622 102 C622 126 643 148 679 148 C715 148 737 126 737 102 C737 77 717 57 679 57 L679 57 Z " />
<glyph glyph-name="uni2160" unicode="&#x2160;" horiz-adv-x="473" d="M372 590 L372 680 L102 680 L102 590 L182 590 L182 90 L102 90 L102 0 L372 0 L372 90 L292 90 L292 590 L372 590 Z " />
<glyph glyph-name="uni2161" unicode="&#x2161;" horiz-adv-x="737" d="M636 590 L636 680 L102 680 L102 590 L182 590 L182 90 L102 90 L102 0 L636 0 L636 90 L556 90 L556 590 L636 590 Z M446 90 L292 90 L292 590 L446 590 L446 90 Z " />
<glyph glyph-name="uni2162" unicode="&#x2162;" horiz-adv-x="1002" d="M901 590 L901 680 L102 680 L102 590 L182 590 L182 90 L102 90 L102 0 L901 0 L901 90 L821 90 L821 590 L901 590 Z M292 90 L292 590 L446 590 L446 90 L292 90 Z M711 90 L556 90 L556 590 L711 590 L711 90 Z " />
<glyph glyph-name="uni2163" unicode="&#x2163;" horiz-adv-x="1054" d="M895 680 L696 111 L495 680 L102 680 L102 590 L182 590 L182 90 L102 90 L102 0 L372 0 L372 90 L292 90 L292 590 L405 590 L630 0 L761 0 L1020 680 L895 680 Z " />
<glyph glyph-name="uni2164" unicode="&#x2164;" horiz-adv-x="716" d="M683 680 L557 680 L358 111 L157 680 L33 680 L292 0 L424 0 L683 680 Z " />
<glyph glyph-name="uni2165" unicode="&#x2165;" horiz-adv-x="1052" d="M951 590 L951 680 L558 680 L358 111 L158 680 L33 680 L292 0 L424 0 L649 590 L761 590 L761 90 L681 90 L681 0 L951 0 L951 90 L871 90 L871 590 L951 590 Z " />
<glyph glyph-name="uni2166" unicode="&#x2166;" horiz-adv-x="1317" d="M1216 590 L1216 680 L558 680 L358 111 L158 680 L33 680 L292 0 L424 0 L649 590 L761 590 L761 90 L681 90 L681 0 L1216 0 L1216 90 L1136 90 L1136 590 L1216 590 Z M1026 90 L871 90 L871 590 L1026 590 L1026 90 Z " />
<glyph glyph-name="uni2167" unicode="&#x2167;" horiz-adv-x="1582" d="M1481 590 L1481 680 L558 680 L358 111 L158 680 L33 680 L292 0 L424 0 L649 590 L761 590 L761 90 L681 90 L681 0 L1481 0 L1481 90 L1401 90 L1401 590 L1481 590 Z M871 90 L871 590 L1026 590 L1026 90 L871 90 Z M1291 90 L1136 90 L1136 590 L1291 590 L1291 90 Z " />
<glyph glyph-name="uni2168" unicode="&#x2168;" horiz-adv-x="952" d="M694 342 L913 680 L793 680 L633 431 L472 680 L102 680 L102 590 L182 590 L182 90 L102 90 L102 0 L473 0 L636 248 L802 0 L924 0 L694 342 Z M411 90 L292 90 L292 590 L411 590 L577 342 L411 90 Z " />
<glyph glyph-name="uni2169" unicode="&#x2169;" horiz-adv-x="633" d="M32 0 L257 342 L31 680 L152 680 L314 431 L473 680 L594 680 L374 342 L605 0 L483 0 L316 248 L153 0 L32 0 Z " />
<glyph glyph-name="uni216A" unicode="&#x216a;" horiz-adv-x="950" d="M849 590 L849 680 L479 680 L318 431 L158 680 L38 680 L257 342 L27 0 L149 0 L315 248 L478 0 L849 0 L849 90 L769 90 L769 590 L849 590 Z M659 90 L540 90 L374 342 L540 590 L659 590 L659 90 Z " />
<glyph glyph-name="uni216B" unicode="&#x216b;" horiz-adv-x="1230" d="M1129 590 L1129 680 L473 680 L314 431 L152 680 L31 680 L257 342 L32 0 L153 0 L316 248 L483 0 L1129 0 L1129 90 L1049 90 L1049 590 L1129 590 Z M544 90 L374 342 L535 590 L675 590 L675 90 L544 90 Z M939 90 L785 90 L785 590 L939 590 L939 90 Z " />
<glyph glyph-name="uni216C" unicode="&#x216c;" horiz-adv-x="642" d="M212 103 L212 680 L102 680 L102 0 L590 0 L590 103 L212 103 Z " />
<glyph glyph-name="uni216D" unicode="&#x216d;" horiz-adv-x="712" d="M662 564 L575 501 C534 558 470 595 397 595 C260 595 174 488 174 340 C174 193 259 85 397 85 C470 85 534 122 573 179 L662 116 C601 32 504 -16 397 -16 C202 -16 66 132 66 340 C66 546 199 696 397 696 C505 696 603 648 662 564 L662 564 Z " />
<glyph glyph-name="uni216E" unicode="&#x216e;" horiz-adv-x="807" d="M409 680 L102 680 L102 0 L409 0 C608 0 742 148 742 341 C742 538 608 680 409 680 L409 680 Z M409 101 L211 101 L211 579 L409 579 C546 579 630 476 630 341 C630 208 545 101 409 101 L409 101 Z " />
<glyph glyph-name="uni216F" unicode="&#x216f;" horiz-adv-x="961" d="M885 0 L836 680 L701 680 L480 155 L259 680 L124 680 L74 0 L184 0 L222 509 L438 0 L521 0 L739 523 L777 0 L885 0 Z " />
<glyph glyph-name="arrowleft" unicode="&#x2190;" horiz-adv-x="846" d="M810 431 L195 431 L331 565 L273 625 L92 442 L37 386 L92 330 L273 149 L331 211 L199 339 L810 339 L810 431 Z " />
<glyph glyph-name="arrowup" unicode="&#x2191;" horiz-adv-x="577" d="M526 537 L289 773 L50 537 L110 479 L244 615 L244 0 L335 0 L335 612 L464 479 L526 537 Z " />
<glyph glyph-name="arrowright" unicode="&#x2192;" horiz-adv-x="850" d="M574 625 L515 565 L651 431 L37 431 L37 339 L647 339 L515 211 L574 149 L810 386 L574 625 Z " />
<glyph glyph-name="arrowdown" unicode="&#x2193;" horiz-adv-x="577" d="M464 294 L335 161 L335 773 L244 773 L244 158 L110 294 L50 236 L289 0 L526 236 L464 294 Z " />
<glyph glyph-name="arrowboth" unicode="&#x2194;" horiz-adv-x="983" d="M709 625 L650 565 L786 431 L195 431 L331 565 L273 625 L92 442 L37 386 L92 330 L273 149 L331 211 L199 339 L782 339 L650 211 L709 149 L945 386 L709 625 Z " />
<glyph glyph-name="arrowupdn" unicode="&#x2195;" horiz-adv-x="570" d="M332 94 L332 680 L461 547 L523 605 L286 841 L47 605 L107 547 L241 683 L241 91 L107 227 L47 169 L286 -67 L523 169 L461 227 L332 94 Z " />
<glyph glyph-name="uni2196" unicode="&#x2196;" horiz-adv-x="683" d="M653 145 L217 579 L410 578 L410 661 L74 659 L73 324 L158 324 L155 512 L588 80 L653 145 Z " />
<glyph glyph-name="uni2197" unicode="&#x2197;" horiz-adv-x="683" d="M273 661 L273 578 L466 579 L30 145 L95 80 L527 512 L524 324 L609 324 L609 659 L273 661 Z " />
<glyph glyph-name="uni2198" unicode="&#x2198;" horiz-adv-x="686" d="M528 433 L529 241 L95 676 L30 611 L462 178 L275 181 L275 96 L609 97 L612 433 L528 433 Z " />
<glyph glyph-name="uni2199" unicode="&#x2199;" horiz-adv-x="686" d="M655 611 L590 676 L156 241 L157 433 L73 433 L76 97 L410 96 L410 181 L222 178 L655 611 Z " />
<glyph glyph-name="partialdiff" unicode="&#x2202;" horiz-adv-x="659" d="M337 723 C258 723 182 690 136 648 L200 577 C226 600 274 629 331 629 C443 629 480 509 480 379 L480 351 C451 409 397 455 313 455 C194 455 79 374 75 222 C72 96 143 -15 294 -15 C491 -15 586 163 586 381 C586 582 497 723 337 723 L337 723 Z M305 80 C213 80 178 153 183 222 C188 296 232 365 322 365 C404 365 450 295 464 231 C442 146 395 80 305 80 L305 80 Z " />
<glyph glyph-name="emptyset" unicode="&#x2205;" horiz-adv-x="710" d="M656 532 L609 580 L537 508 C489 545 427 566 356 566 C185 566 67 449 67 274 C67 203 87 141 122 93 L53 24 L101 -23 L169 45 C218 6 282 -16 356 -16 C544 -16 644 120 644 274 C644 348 623 412 585 461 L656 532 Z M166 274 C166 389 236 483 356 483 C403 483 442 468 473 444 L192 163 C175 195 166 233 166 274 L166 274 Z M546 274 C546 161 475 67 356 67 C306 67 265 83 234 110 L516 392 C536 359 546 318 546 274 L546 274 Z " />
<glyph glyph-name="product" unicode="&#x220f;" horiz-adv-x="651" d="M585 774 L60 774 L60 669 L135 669 L135 0 L246 0 L246 669 L399 669 L399 0 L510 0 L510 669 L585 669 L585 774 Z " />
<glyph glyph-name="summation" unicode="&#x2211;" horiz-adv-x="570" d="M510 680 L74 680 L74 584 L272 261 L74 -62 L75 -63 L74 -63 L74 -158 L510 -158 L510 -52 L189 -60 L387 262 L190 581 L510 574 L510 680 Z " />
<glyph glyph-name="minus" unicode="&#x2212;" horiz-adv-x="565" d="M484 463 L484 363 L80 363 L80 463 L484 463 Z " />
<glyph glyph-name="infinity" unicode="&#x221e;" horiz-adv-x="771" d="M541 516 C464 516 422 476 389 424 C350 487 300 516 232 516 C129 516 57 447 57 349 C57 249 129 179 225 179 C300 179 349 221 385 275 C430 207 484 179 546 179 C645 179 715 249 715 347 C715 446 644 516 541 516 L541 516 Z M222 255 C167 255 127 291 127 349 C127 405 167 441 231 441 C284 441 318 415 347 350 C313 290 277 255 222 255 L222 255 Z M547 255 C501 255 463 277 426 346 C461 411 483 441 541 441 C605 441 644 404 644 348 C644 292 606 255 547 255 L547 255 Z " />
<glyph glyph-name="integral" unicode="&#x222b;" horiz-adv-x="382" d="M-39 -300 L-3 -300 C131 -300 209 -222 209 -88 L209 575 C209 637 244 671 305 671 L345 671 L345 773 L310 773 C176 773 98 695 98 561 L98 -102 C98 -164 64 -198 2 -198 L-39 -198 L-39 -300 Z " />
<glyph glyph-name="approxequal" unicode="&#x2248;" horiz-adv-x="636" d="M179 436 C179 471 190 501 233 501 C293 501 323 430 408 430 C480 430 540 478 540 575 L457 575 C457 540 446 512 406 512 C344 512 314 580 230 580 C158 580 95 526 95 436 L179 436 Z M179 252 C179 288 190 317 233 317 C293 317 324 246 408 246 C480 246 540 295 540 391 L457 391 C457 357 446 329 406 329 C344 329 314 397 230 397 C158 397 95 343 95 252 L179 252 Z " />
<glyph glyph-name="notequal" unicode="&#x2260;" horiz-adv-x="613" d="M505 455 L505 546 L435 546 L504 659 L447 693 L357 546 L95 547 L95 455 L300 455 L240 357 L95 357 L95 265 L183 265 L104 136 L161 102 L261 265 L505 265 L505 356 L318 356 L378 455 L505 455 Z " />
<glyph glyph-name="lessequal" unicode="&#x2264;" horiz-adv-x="524" d="M444 274 L160 360 L442 452 L421 538 L77 413 L77 305 L421 189 L444 274 Z M77 143 L77 65 L448 65 L449 143 L77 143 Z " />
<glyph glyph-name="greaterequal" unicode="&#x2265;" horiz-adv-x="524" d="M102 538 L81 452 L363 360 L79 274 L102 189 L446 305 L446 413 L102 538 Z M74 65 L446 65 L446 143 L74 143 L74 65 Z " />
<glyph glyph-name="lozenge" unicode="&#x25ca;" horiz-adv-x="676" d="M371 680 L306 680 L67 334 L306 0 L371 0 L611 334 L371 680 Z M178 335 L331 570 L346 570 L499 335 L348 110 L329 110 L178 335 Z " />
<glyph glyph-name="uni2605" unicode="&#x2605;" horiz-adv-x="728" d="M364 245 L189 144 L233 340 L83 474 L282 496 L364 680 L445 496 L645 474 L495 340 L539 144 L364 245 Z " />
<glyph glyph-name="uni2606" unicode="&#x2606;" horiz-adv-x="728" d="M364 245 L189 144 L233 340 L83 474 L282 496 L364 680 L445 496 L645 474 L495 340 L539 144 L364 245 Z M364 321 L448 271 L426 367 L500 431 L402 441 L364 531 L325 441 L228 431 L301 367 L279 271 L364 321 Z " />
<glyph glyph-name="uni2C6D" unicode="&#x2c6d;" horiz-adv-x="968" d="M901 94 C842 80 816 91 816 142 L816 773 L708 773 L708 632 C652 731 555 791 415 791 C201 791 66 621 66 387 C66 150 203 -18 415 -18 C555 -18 652 43 708 142 L708 129 C708 6 784 -41 918 7 L901 94 Z M442 85 C275 85 176 212 176 387 C176 562 276 689 442 689 C605 689 708 563 708 387 C708 212 608 85 442 85 L442 85 Z " />
<glyph glyph-name="uni3012" unicode="&#x3012;" horiz-adv-x="709" d="M40 773 L40 670 L668 670 L668 773 L40 773 Z M40 464 L299 464 L299 0 L408 0 L408 464 L668 464 L668 567 L40 567 L40 464 Z " />
</font>
</defs>
</svg>
