<?xml version="1.0" encoding="UTF-8"?>
<svg xmlns="http://www.w3.org/2000/svg" xmlns:xlink="http://www.w3.org/1999/xlink" version="1.2" >
<font id="Artegra Slab Bold">
<font-face  font-family="Artegra Slab" units-per-em="2048" ascent="1516" descent="-532" font-style="normal" font-weight="700" font-stretch="normal" cap-height="1434" x-height="1030" underline-position="-154" underline-thickness="102" />
<missing-glyph  horiz-adv-x="922" d="" />
<glyph glyph-name="NULL" d="" />
<glyph glyph-name="CR" unicode="&#xd;" horiz-adv-x="922" d="" />
<glyph glyph-name="space" unicode="&#x20;" horiz-adv-x="573" d="" />
<glyph glyph-name="exclam" unicode="&#x21;" horiz-adv-x="606" d="M177 422 L430 422 L470 1434 L137 1434 L177 422 Z M130 163 C130 68 208 -10 303 -10 C398 -10 476 68 476 163 C476 258 398 336 303 336 C208 336 130 258 130 163 L130 163 Z " />
<glyph glyph-name="quotedbl" unicode="&#x22;" horiz-adv-x="698" d="M41 927 L293 927 L313 1434 L20 1434 L41 927 Z M406 927 L658 927 L678 1434 L385 1434 L406 927 Z " />
<glyph glyph-name="numbersign" unicode="&#x23;" horiz-adv-x="1521" d="M918 1112 L730 1112 L782 1434 L464 1434 L412 1112 L151 1112 L151 826 L366 826 L331 608 L70 608 L70 322 L285 322 L234 0 L552 0 L603 322 L791 322 L740 0 L1057 0 L1108 322 L1370 322 L1370 608 L1154 608 L1189 826 L1451 826 L1451 1112 L1235 1112 L1287 1434 L970 1434 L918 1112 Z M684 826 L872 826 L837 608 L649 608 L684 826 Z " />
<glyph glyph-name="dollar" unicode="&#x24;" horiz-adv-x="1390" d="M889 1008 L1222 1008 L1222 1374 C1222 1374 1064 1444 820 1467 L820 1694 L555 1694 L555 1468 C228 1434 110 1245 110 1046 C110 815 271 651 651 572 C846 532 943 494 943 398 C943 304 867 249 666 249 C534 249 443 287 443 287 L443 439 L110 439 L110 132 C110 132 236 -7 555 -35 L555 -260 L820 -260 L820 -31 C1103 4 1280 142 1280 398 C1280 667 1077 792 714 868 C540 904 447 949 447 1046 C447 1133 520 1185 666 1185 C774 1185 889 1165 889 1165 L889 1008 Z " />
<glyph glyph-name="ampersand" unicode="&#x26;" horiz-adv-x="1591" d="M676 1464 C440 1464 229 1323 229 1052 C229 907 288 801 334 744 C174 652 70 530 70 350 C70 71 299 -30 567 -30 C765 -30 877 15 969 88 C969 88 1079 0 1301 0 L1521 0 L1521 290 L1337 290 C1203 290 1171 325 1171 325 C1238 406 1280 498 1280 498 L1445 498 L1445 788 L1073 788 C1073 788 1026 644 918 518 C854 576 818 613 765 678 C910 768 1105 883 1105 1092 C1105 1310 959 1464 676 1464 L676 1464 Z M403 370 C403 428 428 471 505 514 C561 453 642 366 721 305 C686 276 627 259 564 259 C458 259 403 308 403 370 L403 370 Z M772 1092 C772 999 693 954 607 904 C591 928 562 974 562 1032 C562 1142 627 1175 676 1175 C735 1175 772 1148 772 1092 L772 1092 Z " />
<glyph glyph-name="quotesingle" unicode="&#x27;" horiz-adv-x="333" d="M41 927 L293 927 L313 1434 L20 1434 L41 927 Z " />
<glyph glyph-name="parenleft" unicode="&#x28;" horiz-adv-x="883" d="M423 580 C423 1132 833 1239 833 1239 L733 1517 C733 1517 90 1356 90 580 C90 -196 733 -357 733 -357 L833 -79 C833 -79 423 28 423 580 L423 580 Z " />
<glyph glyph-name="parenright" unicode="&#x29;" horiz-adv-x="883" d="M460 580 C460 28 50 -79 50 -79 L150 -357 C150 -357 793 -196 793 580 C793 1356 150 1517 150 1517 L50 1239 C50 1239 460 1132 460 580 L460 580 Z " />
<glyph glyph-name="asterisk" unicode="&#x2a;" horiz-adv-x="1000" d="M653 616 L867 794 L691 965 L950 1040 L859 1298 L634 1192 L654 1434 L346 1434 L366 1192 L141 1298 L50 1040 L309 965 L133 794 L347 616 L500 828 L653 616 Z " />
<glyph glyph-name="plus" unicode="&#x2b;" horiz-adv-x="1090" d="M1020 823 L694 823 L694 1153 L396 1153 L396 823 L70 823 L70 534 L396 534 L396 203 L694 203 L694 534 L1020 534 L1020 823 Z " />
<glyph glyph-name="comma" unicode="&#x2c;" horiz-adv-x="650" d="M50 -278 L331 -278 L580 264 L261 264 L50 -278 Z " />
<glyph glyph-name="hyphen" unicode="&#x2d;" horiz-adv-x="910" d="M840 706 L70 706 L70 454 L840 454 L840 706 Z " />
<glyph glyph-name="period" unicode="&#x2e;" horiz-adv-x="486" d="M70 163 C70 68 148 -10 243 -10 C338 -10 416 68 416 163 C416 258 338 336 243 336 C148 336 70 258 70 163 L70 163 Z " />
<glyph glyph-name="slash" unicode="&#x2f;" horiz-adv-x="1173" d="M90 0 L424 0 L1083 1434 L750 1434 L90 0 Z " />
<glyph glyph-name="zero" unicode="0" horiz-adv-x="1412" d="M1342 717 C1342 1137 1140 1474 706 1474 C272 1474 70 1137 70 717 C70 297 272 -40 706 -40 C1140 -40 1342 297 1342 717 L1342 717 Z M1009 717 C1009 431 917 248 706 248 C495 248 403 431 403 717 C403 1003 495 1186 706 1186 C917 1186 1009 1003 1009 717 L1009 717 Z " />
<glyph glyph-name="one" unicode="1" horiz-adv-x="944" d="M384 966 L384 289 L227 289 L227 0 L874 0 L874 289 L717 289 L717 1434 L452 1434 L20 1049 L228 829 L384 966 Z " />
<glyph glyph-name="two" unicode="2" horiz-adv-x="1262" d="M108 0 L1172 0 L1172 386 L839 386 L839 289 L608 289 L911 585 C1047 720 1166 844 1166 1020 C1166 1330 944 1474 644 1474 C292 1474 142 1250 90 1089 L387 989 C425 1073 486 1185 644 1185 C773 1185 833 1114 833 1020 C833 954 790 892 698 802 L108 226 L108 0 Z " />
<glyph glyph-name="three" unicode="3" horiz-adv-x="1287" d="M403 321 L403 426 L70 426 L70 235 C146 74 332 -40 636 -40 C981 -40 1217 125 1217 412 C1217 621 1077 708 954 745 C1102 802 1177 916 1177 1053 C1177 1361 896 1474 636 1474 C268 1474 130 1272 94 1189 L94 1008 L427 1008 L427 1113 C465 1151 527 1185 636 1185 C776 1185 844 1133 844 1053 C844 911 691 871 454 871 L454 592 C740 592 884 556 884 412 C884 308 799 249 636 249 C530 249 454 276 403 321 L403 321 Z " />
<glyph glyph-name="four" unicode="4" horiz-adv-x="1366" d="M1274 0 L1274 289 L1117 289 L1117 392 L1296 392 L1296 681 L1117 681 L1117 1434 L829 1434 L90 645 L90 392 L784 392 L784 289 L627 289 L627 0 L1274 0 Z M550 681 L784 931 L784 681 L550 681 Z " />
<glyph glyph-name="five" unicode="5" horiz-adv-x="1295" d="M1099 1434 L160 1434 L106 548 C106 548 350 652 617 652 C795 652 872 579 872 451 C872 306 765 249 617 249 C487 249 423 288 423 288 L423 393 L90 393 L90 139 C90 139 250 -40 617 -40 C1033 -40 1205 176 1205 451 C1205 750 1033 931 617 931 C568 931 503 926 463 918 L476 1145 L1099 1145 L1099 1434 Z " />
<glyph glyph-name="six" unicode="6" horiz-adv-x="1363" d="M1137 1395 C592 1606 14 1359 99 472 C132 184 315 -40 681 -40 C1058 -40 1273 175 1273 473 C1273 771 1058 986 681 986 C563 986 477 948 441 917 C461 1073 591 1193 804 1189 L804 1105 L1137 1105 L1137 1395 Z M940 473 C940 327 839 249 681 249 C523 249 422 327 422 473 C422 619 524 697 681 697 C839 697 940 619 940 473 L940 473 Z " />
<glyph glyph-name="seven" unicode="7" horiz-adv-x="1271" d="M1181 1434 L90 1434 L90 1008 L423 1008 L423 1145 L790 1145 L429 289 L284 289 L284 0 L931 0 L931 289 L781 289 L1181 1239 L1181 1434 Z " />
<glyph glyph-name="eight" unicode="8" horiz-adv-x="1314" d="M657 -40 C996 -40 1244 109 1244 423 C1244 608 1140 702 1046 751 C1142 804 1211 911 1211 1027 C1211 1283 1022 1474 657 1474 C292 1474 103 1283 103 1027 C103 911 172 804 268 751 C174 702 70 608 70 423 C70 109 318 -40 657 -40 L657 -40 Z M657 249 C494 249 403 309 403 423 C403 537 494 597 657 597 C820 597 911 537 911 423 C911 309 820 249 657 249 L657 249 Z M878 1027 C878 935 818 869 657 869 C496 869 436 935 436 1027 C436 1119 496 1185 657 1185 C818 1185 878 1119 878 1027 L878 1027 Z " />
<glyph glyph-name="nine" unicode="9" horiz-adv-x="1363" d="M226 39 C771 -172 1349 75 1264 962 C1231 1250 1048 1474 682 1474 C305 1474 90 1259 90 961 C90 663 305 448 682 448 C800 448 886 486 922 517 C902 361 772 241 559 245 L559 329 L226 329 L226 39 Z M423 961 C423 1107 524 1185 682 1185 C840 1185 941 1107 941 961 C941 815 839 737 682 737 C524 737 423 815 423 961 L423 961 Z " />
<glyph glyph-name="colon" unicode="&#x3a;" horiz-adv-x="486" d="M70 163 C70 68 148 -10 243 -10 C338 -10 416 68 416 163 C416 258 338 336 243 336 C148 336 70 258 70 163 L70 163 Z M70 867 C70 772 148 694 243 694 C338 694 416 772 416 867 C416 962 338 1040 243 1040 C148 1040 70 962 70 867 L70 867 Z " />
<glyph glyph-name="semicolon" unicode="&#x3b;" horiz-adv-x="580" d="M164 867 C164 772 242 694 337 694 C432 694 510 772 510 867 C510 962 432 1040 337 1040 C242 1040 164 962 164 867 L164 867 Z M-30 -278 L251 -278 L500 264 L181 264 L-30 -278 Z " />
<glyph glyph-name="less" unicode="&#x3c;" horiz-adv-x="1094" d="M1004 88 L1004 428 L470 669 L1004 910 L1004 1250 L70 771 L70 567 L1004 88 Z " />
<glyph glyph-name="equal" unicode="&#x3d;" horiz-adv-x="1049" d="M979 608 L70 608 L70 319 L979 319 L979 608 Z M979 1030 L70 1030 L70 741 L979 741 L979 1030 Z " />
<glyph glyph-name="greater" unicode="&#x3e;" horiz-adv-x="1094" d="M1024 567 L1024 771 L90 1250 L90 910 L624 669 L90 428 L90 88 L1024 567 Z " />
<glyph glyph-name="question" unicode="&#x3f;" horiz-adv-x="1178" d="M317 1038 C374 1118 444 1185 583 1185 C733 1185 795 1132 795 1038 C795 908 637 838 394 834 L394 422 L727 422 L727 639 C1045 684 1128 883 1128 1038 C1128 1278 954 1474 583 1474 C285 1474 124 1324 50 1183 L317 1038 Z M387 163 C387 68 465 -10 560 -10 C655 -10 733 68 733 163 C733 258 655 336 560 336 C465 336 387 258 387 163 L387 163 Z " />
<glyph glyph-name="at" unicode="&#x40;" horiz-adv-x="1680" d="M1265 185 C1486 185 1610 321 1610 517 C1610 963 1265 1264 840 1264 C415 1264 70 963 70 517 C70 71 415 -230 840 -230 C1139 -230 1307 -144 1432 -48 L1282 104 C1172 27 1036 -34 840 -34 C541 -34 299 168 299 517 C299 866 541 1068 840 1068 C1138 1068 1381 866 1381 517 C1381 403 1326 361 1255 361 C1171 361 1138 436 1140 527 C1142 619 1150 727 1159 839 C1067 885 972 908 860 908 C744 908 494 844 457 527 C428 220 635 127 773 127 C925 127 1014 226 1039 329 C1059 256 1137 185 1265 185 L1265 185 Z M653 516 C675 715 829 769 982 718 C982 718 972 629 963 542 C945 364 885 303 795 303 C690 303 638 379 653 516 L653 516 Z " />
<glyph glyph-name="A" unicode="A" horiz-adv-x="1670" d="M1140 289 L993 289 L993 0 L1640 0 L1640 289 L1493 289 L1000 1434 L394 1434 L394 1145 L550 1145 L176 289 L30 289 L30 0 L677 0 L677 289 L529 289 L584 421 L1084 421 L1140 289 Z M835 1014 L967 700 L702 700 L835 1014 Z " />
<glyph glyph-name="B" unicode="B" horiz-adv-x="1579" d="M930 0 C1384 0 1509 227 1509 430 C1509 599 1401 719 1213 759 C1350 787 1458 902 1458 1051 C1458 1239 1364 1434 914 1434 L90 1434 L90 1145 L247 1145 L247 289 L90 289 L90 0 L930 0 Z M922 602 C1115 602 1169 553 1169 445 C1169 338 1115 289 922 289 L580 289 L580 602 L922 602 Z M580 871 L580 1145 L922 1145 C1078 1145 1122 1089 1122 1008 C1122 927 1078 871 922 871 L580 871 Z " />
<glyph glyph-name="C" unicode="C" horiz-adv-x="1517" d="M1094 1008 L1427 1008 L1427 1364 C1427 1364 1180 1474 846 1474 C306 1474 70 1118 70 717 C70 316 306 -40 846 -40 C1123 -40 1286 24 1427 143 L1262 369 C1173 309 1057 249 846 249 C545 249 413 453 413 717 C413 981 545 1185 846 1185 C980 1185 1094 1159 1094 1159 L1094 1008 Z " />
<glyph glyph-name="D" unicode="D" horiz-adv-x="1620" d="M1570 717 C1570 1130 1337 1434 854 1434 L90 1434 L90 1145 L247 1145 L247 289 L90 289 L90 0 L854 0 C1337 0 1570 303 1570 717 L1570 717 Z M580 1145 L854 1145 C1130 1145 1227 939 1227 717 C1227 495 1130 289 854 289 L580 289 L580 1145 Z " />
<glyph glyph-name="E" unicode="E" horiz-adv-x="1503" d="M90 0 L1413 0 L1413 426 L1080 426 L1080 289 L580 289 L580 587 L1090 587 L1090 876 L580 876 L580 1145 L1070 1145 L1070 1008 L1403 1008 L1403 1434 L90 1434 L90 1145 L247 1145 L247 289 L90 289 L90 0 Z " />
<glyph glyph-name="F" unicode="F" horiz-adv-x="1493" d="M580 1145 L1070 1145 L1070 1008 L1403 1008 L1403 1434 L90 1434 L90 1145 L247 1145 L247 289 L90 289 L90 0 L737 0 L737 289 L580 289 L580 567 L1090 567 L1090 856 L580 856 L580 1145 Z " />
<glyph glyph-name="G" unicode="G" horiz-adv-x="1538" d="M1115 1008 L1448 1008 L1448 1364 C1448 1364 1190 1474 846 1474 C306 1474 70 1118 70 717 C70 316 306 -40 846 -40 C1092 -40 1302 14 1448 130 L1448 846 L842 846 L842 567 L1115 567 L1115 296 C1070 274 974 249 846 249 C545 249 413 453 413 717 C413 981 545 1185 846 1185 C1000 1185 1115 1158 1115 1158 L1115 1008 Z " />
<glyph glyph-name="H" unicode="H" horiz-adv-x="1785" d="M580 1145 L737 1145 L737 1434 L90 1434 L90 1145 L247 1145 L247 289 L90 289 L90 0 L737 0 L737 289 L580 289 L580 587 L1205 587 L1205 289 L1048 289 L1048 0 L1695 0 L1695 289 L1538 289 L1538 1145 L1695 1145 L1695 1434 L1048 1434 L1048 1145 L1205 1145 L1205 876 L580 876 L580 1145 Z " />
<glyph glyph-name="I" unicode="I" horiz-adv-x="827" d="M580 1145 L737 1145 L737 1434 L90 1434 L90 1145 L247 1145 L247 289 L90 289 L90 0 L737 0 L737 289 L580 289 L580 1145 Z " />
<glyph glyph-name="J" unicode="J" horiz-adv-x="1351" d="M1104 480 L1104 1145 L1261 1145 L1261 1434 L614 1434 L614 1145 L771 1145 L771 480 C771 326 720 249 580 249 C455 249 398 312 358 403 L50 318 C110 118 243 -40 580 -40 C908 -40 1104 111 1104 480 L1104 480 Z " />
<glyph glyph-name="K" unicode="K" horiz-adv-x="1619" d="M1382 1145 L1519 1145 L1519 1434 L872 1434 L872 1145 L963 1145 L580 840 L580 1145 L737 1145 L737 1434 L90 1434 L90 1145 L247 1145 L247 289 L90 289 L90 0 L737 0 L737 289 L580 289 L580 490 L724 607 L1172 0 L1529 0 L1529 289 L1372 289 L979 816 L1382 1145 Z " />
<glyph glyph-name="L" unicode="L" horiz-adv-x="1388" d="M90 0 L1298 0 L1298 426 L965 426 L965 289 L580 289 L580 1145 L737 1145 L737 1434 L90 1434 L90 1145 L247 1145 L247 289 L90 289 L90 0 Z " />
<glyph glyph-name="M" unicode="M" horiz-adv-x="2136" d="M1556 289 L1399 289 L1399 0 L2046 0 L2046 289 L1889 289 L1889 1145 L2046 1145 L2046 1434 L1432 1434 L1068 526 L704 1434 L90 1434 L90 1145 L247 1145 L247 289 L90 289 L90 0 L737 0 L737 289 L580 289 L580 910 L945 0 L1191 0 L1556 910 L1556 289 Z " />
<glyph glyph-name="N" unicode="N" horiz-adv-x="1807" d="M90 0 L737 0 L737 289 L580 289 L580 956 L1138 0 L1560 0 L1560 1145 L1717 1145 L1717 1434 L1070 1434 L1070 1145 L1227 1145 L1227 478 L669 1434 L90 1434 L90 1145 L247 1145 L247 289 L90 289 L90 0 Z " />
<glyph glyph-name="O" unicode="O" horiz-adv-x="1692" d="M846 1474 C306 1474 70 1118 70 717 C70 316 306 -40 846 -40 C1386 -40 1622 316 1622 717 C1622 1118 1386 1474 846 1474 L846 1474 Z M846 1185 C1147 1185 1279 981 1279 717 C1279 453 1147 249 846 249 C545 249 413 453 413 717 C413 981 545 1185 846 1185 L846 1185 Z " />
<glyph glyph-name="P" unicode="P" horiz-adv-x="1555" d="M737 0 L737 289 L580 289 L580 430 L909 430 C1263 430 1485 612 1485 932 C1485 1252 1263 1434 909 1434 L90 1434 L90 1145 L247 1145 L247 289 L90 289 L90 0 L737 0 Z M909 1145 C1070 1145 1148 1066 1148 932 C1148 798 1070 719 909 719 L580 719 L580 1145 L909 1145 Z " />
<glyph glyph-name="Q" unicode="Q" horiz-adv-x="1692" d="M846 1474 C306 1474 70 1118 70 717 C70 316 306 -40 846 -40 C962 -40 1064 -23 1152 6 L1235 -88 L1596 -88 L1386 139 C1547 280 1622 491 1622 717 C1622 1118 1386 1474 846 1474 L846 1474 Z M846 1185 C1147 1185 1279 961 1279 717 C1279 589 1243 467 1165 379 L1078 474 L745 474 L935 256 C907 251 877 249 846 249 C545 249 413 473 413 717 C413 961 545 1185 846 1185 L846 1185 Z " />
<glyph glyph-name="R" unicode="R" horiz-adv-x="1557" d="M737 0 L737 289 L580 289 L580 534 L758 534 L1103 0 L1467 0 L1467 289 L1310 289 L1127 557 C1286 610 1453 745 1453 969 C1453 1232 1278 1434 889 1434 L90 1434 L90 1145 L247 1145 L247 289 L90 289 L90 0 L737 0 Z M889 1145 C1062 1145 1116 1073 1116 969 C1116 865 1062 793 889 793 L580 793 L580 1145 L889 1145 Z " />
<glyph glyph-name="S" unicode="S" horiz-adv-x="1390" d="M889 1008 L1222 1008 L1222 1374 C1222 1374 996 1474 666 1474 C254 1474 110 1266 110 1046 C110 815 271 651 651 572 C846 532 943 494 943 398 C943 304 867 249 666 249 C534 249 443 287 443 287 L443 439 L110 439 L110 132 C110 132 266 -40 666 -40 C1038 -40 1280 99 1280 398 C1280 667 1077 792 714 868 C540 904 447 949 447 1046 C447 1133 520 1185 666 1185 C774 1185 889 1165 889 1165 L889 1008 Z " />
<glyph glyph-name="T" unicode="T" horiz-adv-x="1545" d="M1455 1434 L90 1434 L90 1008 L423 1008 L423 1145 L606 1145 L606 289 L449 289 L449 0 L1096 0 L1096 289 L939 289 L939 1145 L1122 1145 L1122 1008 L1455 1008 L1455 1434 Z " />
<glyph glyph-name="U" unicode="U" horiz-adv-x="1771" d="M580 651 L580 1145 L737 1145 L737 1434 L90 1434 L90 1145 L247 1145 L247 651 C247 231 427 -40 886 -40 C1344 -40 1524 231 1524 651 L1524 1145 L1681 1145 L1681 1434 L1034 1434 L1034 1145 L1191 1145 L1191 651 C1191 393 1128 249 886 249 C642 249 580 393 580 651 L580 651 Z " />
<glyph glyph-name="V" unicode="V" horiz-adv-x="1646" d="M648 0 L998 0 L1467 1145 L1616 1145 L1616 1434 L969 1434 L969 1145 L1114 1145 L823 420 L532 1145 L677 1145 L677 1434 L30 1434 L30 1145 L178 1145 L648 0 Z " />
<glyph glyph-name="W" unicode="W" horiz-adv-x="2186" d="M698 550 L529 1145 L677 1145 L677 1434 L30 1434 L30 1145 L177 1145 L526 0 L849 0 L1093 838 L1337 0 L1660 0 L2009 1145 L2156 1145 L2156 1434 L1509 1434 L1509 1145 L1657 1145 L1488 550 L1235 1434 L951 1434 L698 550 Z " />
<glyph glyph-name="X" unicode="X" horiz-adv-x="1474" d="M942 738 L1235 1145 L1396 1145 L1396 1434 L749 1434 L749 1145 L844 1145 L726 980 L401 1434 L39 1434 L39 1145 L215 1145 L509 738 L185 289 L30 289 L30 0 L677 0 L677 289 L577 289 L726 496 L1083 0 L1444 0 L1444 289 L1266 289 L942 738 Z " />
<glyph glyph-name="Y" unicode="Y" horiz-adv-x="1581" d="M624 496 L624 289 L467 289 L467 0 L1114 0 L1114 289 L957 289 L957 496 L1395 1145 L1551 1145 L1551 1434 L904 1434 L904 1145 L1019 1145 L790 805 L561 1145 L677 1145 L677 1434 L30 1434 L30 1145 L185 1145 L624 496 Z " />
<glyph glyph-name="Z" unicode="Z" horiz-adv-x="1401" d="M1311 1434 L110 1434 L110 1008 L443 1008 L443 1145 L822 1145 L90 176 L90 0 L1311 0 L1311 426 L978 426 L978 289 L580 289 L1311 1258 L1311 1434 Z " />
<glyph glyph-name="bracketleft" unicode="&#x5b;" horiz-adv-x="777" d="M697 1146 L697 1434 L120 1434 L120 -374 L697 -374 L697 -86 L453 -86 L453 1146 L697 1146 Z " />
<glyph glyph-name="backslash" unicode="&#x5c;" horiz-adv-x="1136" d="M423 1434 L90 1434 L712 0 L1046 0 L423 1434 Z " />
<glyph glyph-name="bracketright" unicode="&#x5d;" horiz-adv-x="777" d="M324 1146 L324 -86 L80 -86 L80 -374 L657 -374 L657 1434 L80 1434 L80 1146 L324 1146 Z " />
<glyph glyph-name="asciicircum" unicode="&#x5e;" horiz-adv-x="1142" d="M662 1434 L480 1434 L70 840 L365 840 L571 1090 L777 840 L1072 840 L662 1434 Z " />
<glyph glyph-name="underscore" unicode="&#x5f;" horiz-adv-x="1207" d="M90 -361 L1117 -361 L1117 -109 L90 -109 L90 -361 Z " />
<glyph glyph-name="grave" unicode="&#x60;" horiz-adv-x="684" d="M383 1434 L50 1434 L364 1124 L634 1124 L383 1434 Z " />
<glyph glyph-name="a" unicode="a" horiz-adv-x="1311" d="M755 0 L1241 0 L1241 252 L1084 252 L1084 635 C1084 915 979 1060 593 1060 C462 1060 277 1036 136 963 L245 753 C361 802 464 818 573 818 C734 818 756 762 756 670 C411 701 50 637 50 319 C50 76 238 -24 445 -24 C577 -24 700 10 755 135 L755 0 Z M378 349 C378 494 635 498 755 488 L755 399 C755 310 673 228 525 228 C421 228 378 279 378 349 L378 349 Z " />
<glyph glyph-name="b" unicode="b" horiz-adv-x="1469" d="M1419 515 C1419 857 1199 1060 893 1060 C728 1060 616 986 555 894 L555 1516 L70 1516 L70 1264 L227 1264 L227 0 L555 0 L555 136 C616 44 728 -30 893 -30 C1199 -30 1419 173 1419 515 L1419 515 Z M1091 515 C1091 346 996 222 823 222 C650 222 555 346 555 515 C555 684 650 808 823 808 C996 808 1091 684 1091 515 L1091 515 Z " />
<glyph glyph-name="c" unicode="c" horiz-adv-x="1193" d="M775 657 L1103 657 L1103 1000 C1103 1000 890 1060 656 1060 C288 1060 50 838 50 515 C50 192 288 -30 656 -30 C850 -30 1000 22 1103 134 L946 325 C860 254 761 222 656 222 C483 222 378 336 378 515 C378 694 483 808 656 808 C716 808 775 800 775 800 L775 657 Z " />
<glyph glyph-name="d" unicode="d" horiz-adv-x="1469" d="M914 0 L1399 0 L1399 252 L1242 252 L1242 1516 L757 1516 L757 1264 L914 1264 L914 894 C853 986 741 1060 576 1060 C270 1060 50 857 50 515 C50 173 270 -30 576 -30 C741 -30 853 44 914 136 L914 0 Z M378 515 C378 684 473 808 646 808 C819 808 914 684 914 515 C914 346 819 222 646 222 C473 222 378 346 378 515 L378 515 Z " />
<glyph glyph-name="e" unicode="e" horiz-adv-x="1226" d="M949 306 C885 262 783 212 620 212 C443 212 391 306 391 394 L1170 394 C1210 811 1011 1060 620 1060 C217 1060 50 797 50 515 C50 233 207 -30 620 -30 C849 -30 1005 36 1111 122 L949 306 Z M392 606 C392 696 442 818 620 818 C798 818 848 696 848 606 L392 606 Z " />
<glyph glyph-name="f" unicode="f" horiz-adv-x="921" d="M238 778 L238 252 L81 252 L81 0 L723 0 L723 252 L566 252 L566 778 L850 778 L850 1030 L566 1030 C567 1221 571 1294 704 1294 C752 1294 799 1284 836 1273 L921 1502 C848 1530 750 1546 664 1546 C291 1546 244 1304 238 1030 L50 1030 L50 778 L238 778 Z " />
<glyph glyph-name="g" unicode="g" horiz-adv-x="1469" d="M1242 0 L1242 778 L1399 778 L1399 1030 L914 1030 L914 894 C853 986 741 1060 576 1060 C270 1060 50 857 50 515 C50 173 270 -30 576 -30 C741 -30 853 44 914 136 L914 0 C914 -195 786 -280 605 -280 C479 -280 369 -256 241 -188 L116 -416 C275 -506 451 -532 605 -532 C918 -532 1243 -422 1242 0 L1242 0 Z M378 515 C378 684 473 808 646 808 C819 808 914 684 914 515 C914 346 819 222 646 222 C473 222 378 346 378 515 L378 515 Z " />
<glyph glyph-name="h" unicode="h" horiz-adv-x="1530" d="M70 1516 L70 1264 L227 1264 L227 252 L70 252 L70 0 L712 0 L712 252 L555 252 L555 534 C555 704 606 808 765 808 C924 808 975 704 975 534 L975 0 L1460 0 L1460 252 L1303 252 L1303 534 C1303 861 1171 1060 830 1060 C704 1060 615 1012 555 921 L555 1516 L70 1516 Z " />
<glyph glyph-name="i" unicode="i" horiz-adv-x="782" d="M227 778 L227 252 L70 252 L70 0 L712 0 L712 252 L555 252 L555 1030 L70 1030 L70 778 L227 778 Z M219 1334 C219 1239 296 1162 391 1162 C486 1162 563 1239 563 1334 C563 1429 486 1506 391 1506 C296 1506 219 1429 219 1334 L219 1334 Z " />
<glyph glyph-name="j" unicode="j" horiz-adv-x="600" d="M502 -60 L502 1030 L17 1030 L17 778 L174 778 L174 -60 C174 -149 174 -280 51 -280 C4 -280 -43 -268 -68 -259 L-150 -488 C-90 -520 -7 -532 71 -532 C396 -532 502 -363 502 -60 L502 -60 Z M166 1334 C166 1239 243 1162 338 1162 C433 1162 510 1239 510 1334 C510 1429 433 1506 338 1506 C243 1506 166 1429 166 1334 L166 1334 Z " />
<glyph glyph-name="k" unicode="k" horiz-adv-x="1405" d="M1319 778 L1319 1030 L677 1030 L677 778 L785 778 L555 617 L555 1516 L70 1516 L70 1264 L227 1264 L227 252 L70 252 L70 0 L712 0 L712 252 L555 252 L555 332 L689 428 L996 0 L1335 0 L1335 252 L1178 252 L930 601 L1176 778 L1319 778 Z " />
<glyph glyph-name="l" unicode="l" horiz-adv-x="782" d="M227 1264 L227 252 L70 252 L70 0 L712 0 L712 252 L555 252 L555 1516 L70 1516 L70 1264 L227 1264 Z " />
<glyph glyph-name="m" unicode="m" horiz-adv-x="2090" d="M1535 0 L2020 0 L2020 252 L1863 252 L1863 584 C1863 872 1732 1060 1451 1060 C1321 1060 1208 1008 1146 874 C1074 1006 949 1060 797 1060 C712 1060 610 1043 555 924 L555 1030 L70 1030 L70 778 L227 778 L227 252 L70 252 L70 0 L712 0 L712 252 L555 252 L555 584 C555 710 596 808 718 808 C840 808 881 710 881 584 L881 0 L1366 0 L1366 252 L1209 252 L1209 584 C1209 710 1250 808 1372 808 C1494 808 1535 710 1535 584 L1535 0 Z " />
<glyph glyph-name="n" unicode="n" horiz-adv-x="1530" d="M70 1030 L70 778 L227 778 L227 252 L70 252 L70 0 L712 0 L712 252 L555 252 L555 534 C555 704 606 808 765 808 C924 808 975 704 975 534 L975 0 L1460 0 L1460 252 L1303 252 L1303 534 C1303 861 1171 1060 830 1060 C704 1060 615 1012 555 921 L555 1030 L70 1030 Z " />
<glyph glyph-name="o" unicode="o" horiz-adv-x="1312" d="M656 -30 C1024 -30 1262 193 1262 515 C1262 838 1024 1060 656 1060 C288 1060 50 838 50 515 C50 193 288 -30 656 -30 L656 -30 Z M656 222 C473 222 378 346 378 515 C378 684 473 808 656 808 C839 808 934 684 934 515 C934 346 839 222 656 222 L656 222 Z " />
<glyph glyph-name="p" unicode="p" horiz-adv-x="1469" d="M1419 515 C1419 857 1199 1060 893 1060 C728 1060 616 986 555 894 L555 1030 L70 1030 L70 778 L227 778 L227 -280 L70 -280 L70 -532 L712 -532 L712 -280 L555 -280 L555 136 C616 44 728 -30 893 -30 C1199 -30 1419 173 1419 515 L1419 515 Z M1091 515 C1091 346 996 222 823 222 C650 222 555 346 555 515 C555 684 650 808 823 808 C996 808 1091 684 1091 515 L1091 515 Z " />
<glyph glyph-name="q" unicode="q" horiz-adv-x="1469" d="M50 515 C50 173 270 -30 576 -30 C741 -30 853 44 914 136 L914 -280 L757 -280 L757 -532 L1399 -532 L1399 -280 L1242 -280 L1242 778 L1399 778 L1399 1030 L914 1030 L914 894 C853 986 741 1060 576 1060 C270 1060 50 857 50 515 L50 515 Z M378 515 C378 684 473 808 646 808 C819 808 914 684 914 515 C914 346 819 222 646 222 C473 222 378 346 378 515 L378 515 Z " />
<glyph glyph-name="r" unicode="r" horiz-adv-x="1075" d="M1075 1012 C1010 1043 928 1060 830 1060 C704 1060 615 1012 555 921 L555 1030 L70 1030 L70 778 L227 778 L227 252 L70 252 L70 0 L712 0 L712 252 L555 252 L555 534 C555 704 606 808 765 808 C838 808 898 785 931 764 L1075 1012 Z " />
<glyph glyph-name="s" unicode="s" horiz-adv-x="1121" d="M398 332 L70 332 L70 95 C70 95 200 -30 544 -30 C818 -30 1051 57 1051 296 C1051 521 879 605 581 647 C469 663 398 684 398 736 C398 785 446 808 544 808 C612 808 672 799 672 799 L672 707 L1000 707 L1000 990 C1000 990 810 1060 544 1060 C240 1060 70 945 70 736 C70 550 212 443 527 395 C666 374 723 357 723 296 C723 238 662 222 544 222 C460 222 398 240 398 240 L398 332 Z " />
<glyph glyph-name="t" unicode="t" horiz-adv-x="921" d="M30 778 L224 778 L224 428 C224 125 321 -30 658 -30 C729 -30 825 -14 891 13 L821 247 C777 233 734 222 678 222 C565 222 552 324 552 428 L552 778 L842 778 L842 1030 L552 1030 L552 1329 L224 1329 L224 1030 L30 1030 L30 778 Z " />
<glyph glyph-name="u" unicode="u" horiz-adv-x="1530" d="M975 0 L1460 0 L1460 252 L1303 252 L1303 1030 L818 1030 L818 778 L975 778 L975 496 C975 326 924 222 765 222 C606 222 555 326 555 496 L555 1030 L70 1030 L70 778 L227 778 L227 496 C227 169 359 -30 700 -30 C826 -30 915 18 975 109 L975 0 Z " />
<glyph glyph-name="v" unicode="v" horiz-adv-x="1418" d="M786 778 L862 778 L709 358 L555 778 L632 778 L632 1030 L70 1030 L70 778 L226 778 L552 0 L866 0 L1191 778 L1348 778 L1348 1030 L786 1030 L786 778 Z " />
<glyph glyph-name="w" unicode="w" horiz-adv-x="1940" d="M1870 778 L1870 1030 L1268 1030 L1268 778 L1394 778 L1288 395 L1087 1030 L853 1030 L652 395 L546 778 L672 778 L672 1030 L70 1030 L70 778 L241 778 L497 0 L785 0 L970 583 L1155 0 L1443 0 L1699 778 L1870 778 Z " />
<glyph glyph-name="x" unicode="x" horiz-adv-x="1284" d="M867 0 L1214 0 L1214 252 L1057 252 L853 539 L1021 778 L1179 778 L1179 1030 L700 1030 L700 836 L642 751 L453 1030 L105 1030 L105 778 L262 778 L431 539 L227 252 L70 252 L70 0 L549 0 L549 191 L642 326 L867 0 Z " />
<glyph glyph-name="y" unicode="y" horiz-adv-x="1418" d="M1348 778 L1348 1030 L786 1030 L786 778 L862 778 L709 358 L555 778 L632 778 L632 1030 L70 1030 L70 778 L229 778 L562 0 L489 -166 C457 -240 423 -280 333 -280 L184 -280 L184 -532 L347 -532 C570 -532 672 -428 733 -289 L856 0 L1189 778 L1348 778 Z " />
<glyph glyph-name="z" unicode="z" horiz-adv-x="1125" d="M99 657 L427 657 L427 778 L610 778 L70 189 L70 0 L1055 0 L1055 373 L727 373 L727 252 L515 252 L1055 840 L1055 1030 L99 1030 L99 657 Z " />
<glyph glyph-name="braceleft" unicode="&#x7b;" horiz-adv-x="832" d="M412 555 C519 609 596 729 596 917 C596 1181 655 1205 762 1205 L762 1494 C496 1494 262 1371 262 923 C262 728 172 708 70 698 L70 412 C172 402 262 382 262 187 C262 -261 496 -384 762 -384 L762 -95 C655 -95 596 -71 596 193 C596 381 519 501 412 555 L412 555 Z " />
<glyph glyph-name="bar" unicode="&#x7c;" horiz-adv-x="513" d="M90 -532 L423 -532 L423 1434 L90 1434 L90 -532 Z " />
<glyph glyph-name="braceright" unicode="&#x7d;" horiz-adv-x="832" d="M420 555 C313 501 236 381 236 193 C236 -71 177 -95 70 -95 L70 -384 C336 -384 570 -261 570 187 C570 382 660 402 762 412 L762 698 C660 708 570 728 570 923 C570 1371 336 1494 70 1494 L70 1205 C177 1205 236 1181 236 917 C236 729 313 609 420 555 L420 555 Z " />
<glyph glyph-name="asciitilde" unicode="&#x7e;" horiz-adv-x="1310" d="M727 852 C665 911 596 980 442 980 C144 980 70 708 70 570 L359 570 C359 609 383 681 442 681 C494 681 537 642 583 595 C645 536 714 467 868 467 C1166 467 1240 739 1240 877 L951 877 C951 838 927 766 868 766 C816 766 773 805 727 852 L727 852 Z " />
<glyph glyph-name="uni00A0" unicode="&#xa0;" horiz-adv-x="573" d="" />
<glyph glyph-name="exclamdown" unicode="&#xa1;" horiz-adv-x="526" d="M97 -532 L430 -532 L390 480 L137 480 L97 -532 Z M90 739 C90 644 168 566 263 566 C358 566 436 644 436 739 C436 834 358 912 263 912 C168 912 90 834 90 739 L90 739 Z " />
<glyph glyph-name="cent" unicode="&#xa2;" horiz-adv-x="1133" d="M775 657 L1103 657 L1103 1000 C1103 1000 959 1040 778 1055 L778 1290 L513 1290 L513 1048 C227 997 50 794 50 515 C50 236 227 32 513 -18 L513 -260 L778 -260 L778 -22 C914 -4 1023 47 1103 134 L946 325 C860 254 761 222 656 222 C483 222 378 336 378 515 C378 694 483 808 656 808 C716 808 775 800 775 800 L775 657 Z " />
<glyph glyph-name="sterling" unicode="&#xa3;" horiz-adv-x="1439" d="M90 564 L294 564 C299 539 302 513 302 486 C302 339 173 235 173 235 L173 0 L1292 0 L1292 288 L564 288 C564 288 642 344 642 480 C642 510 640 537 636 564 L1020 564 L1020 852 L568 852 C564 878 562 906 562 936 C562 1078 631 1185 821 1185 C958 1185 1022 1148 1090 1035 L1349 1156 C1280 1332 1105 1474 821 1474 C429 1474 222 1259 222 936 C222 906 224 878 227 852 L90 852 L90 564 Z " />
<glyph glyph-name="currency" unicode="&#xa4;" horiz-adv-x="1187" d="M770 1393 C659 1447 527 1447 416 1393 L258 1552 L70 1364 L228 1206 C174 1094 174 962 228 850 L70 692 L258 504 L416 663 C527 610 659 609 770 663 L929 504 L1117 692 L958 851 C1012 962 1012 1094 958 1205 L1117 1364 L929 1552 L770 1393 Z M485 1137 C545 1196 642 1196 702 1137 C761 1077 761 980 702 920 C642 861 545 861 485 920 C426 980 426 1077 485 1137 L485 1137 Z " />
<glyph glyph-name="yen" unicode="&#xa5;" horiz-adv-x="1661" d="M399 86 L664 86 L664 0 L997 0 L997 86 L1262 86 L1262 289 L997 289 L997 333 L1262 333 L1262 536 L1024 536 L1435 1145 L1591 1145 L1591 1434 L944 1434 L944 1145 L1059 1145 L830 805 L601 1145 L717 1145 L717 1434 L70 1434 L70 1145 L225 1145 L637 536 L399 536 L399 333 L664 333 L664 289 L399 289 L399 86 Z " />
<glyph glyph-name="brokenbar" unicode="&#xa6;" horiz-adv-x="513" d="M90 603 L423 603 L423 1434 L90 1434 L90 603 Z M90 -532 L423 -532 L423 299 L90 299 L90 -532 Z " />
<glyph glyph-name="section" unicode="&#xa7;" horiz-adv-x="1436" d="M1326 398 C1326 667 1123 792 760 868 C586 904 493 949 493 1046 C493 1133 566 1185 712 1185 C820 1185 935 1165 935 1165 L935 1008 L1268 1008 L1268 1374 C1268 1374 1042 1474 712 1474 C300 1474 156 1266 156 1046 C156 952 182 869 239 798 C185 732 156 648 156 544 C156 275 359 150 722 74 C896 38 989 -7 989 -104 C989 -191 916 -243 770 -243 C662 -243 547 -223 547 -223 L547 -66 L214 -66 L214 -432 C214 -432 440 -532 770 -532 C1182 -532 1326 -324 1326 -104 C1326 -10 1299 72 1242 143 C1296 209 1326 294 1326 398 L1326 398 Z M697 572 C892 532 989 494 989 398 C989 368 981 342 964 321 C911 340 851 356 785 370 C590 410 493 448 493 544 C493 574 500 599 517 621 C571 602 630 586 697 572 L697 572 Z " />
<glyph glyph-name="dieresis" unicode="&#xa8;" horiz-adv-x="961" d="M70 1334 C70 1239 147 1162 242 1162 C337 1162 414 1239 414 1334 C414 1429 337 1506 242 1506 C147 1506 70 1429 70 1334 L70 1334 Z M547 1334 C547 1239 624 1162 719 1162 C814 1162 891 1239 891 1334 C891 1429 814 1506 719 1506 C624 1506 547 1429 547 1334 L547 1334 Z " />
<glyph glyph-name="copyright" unicode="&#xa9;" horiz-adv-x="1654" d="M646 717 C646 847 731 919 832 919 C921 919 972 897 1031 847 C1063 894 1104 950 1136 997 C1058 1074 951 1116 832 1116 C599 1116 427 951 427 717 C427 483 599 318 832 318 C951 318 1056 359 1134 436 L1029 586 C970 536 921 515 832 515 C731 515 646 587 646 717 L646 717 Z M286 717 C286 1016 528 1258 827 1258 C1126 1258 1368 1016 1368 717 C1368 418 1126 176 827 176 C528 176 286 418 286 717 L286 717 Z M70 717 C70 299 409 -40 827 -40 C1245 -40 1584 299 1584 717 C1584 1135 1245 1474 827 1474 C409 1474 70 1135 70 717 L70 717 Z " />
<glyph glyph-name="ordfeminine" unicode="&#xaa;" horiz-adv-x="883" d="M392 1280 C517 1280 549 1266 549 1183 C289 1200 50 1152 50 943 C50 782 179 704 346 704 C471 704 534 762 551 796 L551 714 L833 714 L833 878 L737 878 L737 1138 C737 1365 639 1444 392 1444 C233 1444 122 1390 122 1390 L182 1243 C182 1243 280 1280 392 1280 L392 1280 Z M236 953 C236 1046 352 1060 551 1051 L551 1039 C551 914 487 868 366 868 C276 868 236 906 236 953 L236 953 Z " />
<glyph glyph-name="guillemotleft" unicode="&#xab;" horiz-adv-x="1530" d="M775 943 L775 1333 L70 785 L70 613 L775 65 L775 455 L436 699 L775 943 Z M1440 943 L1440 1333 L735 785 L735 613 L1440 65 L1440 455 L1101 699 L1440 943 Z " />
<glyph glyph-name="logicalnot" unicode="&#xac;" horiz-adv-x="1212" d="M70 553 L809 553 L809 226 L1142 226 L1142 842 L70 842 L70 553 Z " />
<glyph glyph-name="uni00AD" unicode="&#xad;" horiz-adv-x="956" d="M70 548 L886 548 L886 800 L70 800 L70 548 Z " />
<glyph glyph-name="registered" unicode="&#xae;" horiz-adv-x="1040" d="M467 792 L467 937 L526 937 L604 792 L717 792 L631 952 C673 968 715 1008 715 1074 C715 1162 656 1216 573 1216 L359 1216 L359 792 L467 792 Z M563 1113 C592 1113 607 1099 607 1074 C607 1048 592 1035 563 1035 L467 1035 L467 1113 L563 1113 Z M181 994 C181 1181 333 1333 520 1333 C707 1333 859 1181 859 994 C859 807 707 655 520 655 C333 655 181 807 181 994 L181 994 Z M50 994 C50 735 261 524 520 524 C779 524 990 735 990 994 C990 1253 779 1464 520 1464 C261 1464 50 1253 50 994 L50 994 Z " />
<glyph glyph-name="macron" unicode="&#xaf;" horiz-adv-x="1014" d="M70 1182 L944 1182 L944 1434 L70 1434 L70 1182 Z " />
<glyph glyph-name="degree" unicode="&#xb0;" horiz-adv-x="572" d="M0 1188 C0 1030 128 902 286 902 C444 902 572 1030 572 1188 C572 1346 444 1474 286 1474 C128 1474 0 1346 0 1188 L0 1188 Z M194 1188 C194 1239 235 1280 286 1280 C337 1280 378 1239 378 1188 C378 1137 337 1096 286 1096 C235 1096 194 1137 194 1188 L194 1188 Z " />
<glyph glyph-name="plusminus" unicode="&#xb1;" horiz-adv-x="1170" d="M1100 1056 L734 1056 L734 1426 L436 1426 L436 1056 L70 1056 L70 767 L436 767 L436 396 L734 396 L734 767 L1100 767 L1100 1056 Z M1100 289 L70 289 L70 0 L1100 0 L1100 289 Z " />
<glyph glyph-name="twosuperior" unicode="&#xb2;" horiz-adv-x="651" d="M211 1184 C223 1218 252 1280 331 1280 C398 1280 415 1249 415 1218 C415 1173 392 1143 342 1098 L70 850 L70 714 L601 714 L601 923 L451 923 L451 879 L350 879 L469 987 C542 1054 601 1120 601 1228 C601 1363 501 1444 331 1444 C157 1444 76 1331 50 1244 L211 1184 Z " />
<glyph glyph-name="threesuperior" unicode="&#xb3;" horiz-adv-x="671" d="M66 1210 L252 1210 L252 1269 C268 1274 298 1280 334 1280 C397 1280 418 1260 418 1226 C418 1169 350 1153 221 1153 L221 989 C339 989 435 996 435 935 C435 885 399 868 334 868 C290 868 260 874 236 883 L236 941 L50 941 L50 803 C50 803 106 704 334 704 C505 704 621 792 621 925 C621 1021 568 1062 492 1083 C555 1110 604 1150 604 1236 C604 1357 496 1444 334 1444 C141 1444 66 1340 66 1340 L66 1210 Z " />
<glyph glyph-name="acute" unicode="&#xb4;" horiz-adv-x="684" d="M50 1124 L320 1124 L634 1434 L301 1434 L50 1124 Z " />
<glyph glyph-name="mu" unicode="&#xb5;" horiz-adv-x="1620" d="M555 516 L555 1030 L70 1030 L70 778 L227 778 L227 -280 L70 -280 L70 -532 L712 -532 L712 -280 L555 -280 L555 129 C599 27 704 -30 810 -30 C916 -30 1021 27 1065 129 L1065 0 L1550 0 L1550 252 L1393 252 L1393 1030 L908 1030 L908 778 L1065 778 L1065 516 C1065 346 989 222 810 222 C631 222 555 346 555 516 L555 516 Z " />
<glyph glyph-name="paragraph" unicode="&#xb6;" horiz-adv-x="1583" d="M1513 1434 L572 1434 C235 1434 70 1201 70 946 C70 692 235 457 572 457 L621 457 L621 0 L954 0 L954 1145 L1025 1145 L1025 0 L1358 0 L1358 1145 L1513 1145 L1513 1434 Z M621 1145 L621 746 L572 746 C450 746 393 843 393 946 C393 1049 450 1145 572 1145 L621 1145 Z " />
<glyph glyph-name="periodcentered" unicode="&#xb7;" horiz-adv-x="486" d="M70 773 C70 678 148 600 243 600 C338 600 416 678 416 773 C416 868 338 946 243 946 C148 946 70 868 70 773 L70 773 Z " />
<glyph glyph-name="cedilla" unicode="&#xb8;" horiz-adv-x="619" d="M50 -497 C210 -573 548 -583 568 -323 C578 -190 473 -128 349 -125 L413 73 L224 73 L117 -260 C221 -244 396 -223 385 -316 C374 -437 174 -400 103 -370 L50 -497 Z " />
<glyph glyph-name="onesuperior" unicode="&#xb9;" horiz-adv-x="553" d="M125 714 L503 714 L503 878 L407 878 L407 1434 L247 1434 L20 1221 L144 1088 L221 1161 L221 878 L125 878 L125 714 Z " />
<glyph glyph-name="ordmasculine" unicode="&#xba;" horiz-adv-x="840" d="M420 704 C632 704 790 839 790 1074 C790 1309 632 1444 420 1444 C208 1444 50 1309 50 1074 C50 839 208 704 420 704 L420 704 Z M420 868 C304 868 236 939 236 1074 C236 1209 304 1280 420 1280 C536 1280 604 1209 604 1074 C604 939 536 868 420 868 L420 868 Z " />
<glyph glyph-name="guillemotright" unicode="&#xbb;" horiz-adv-x="1530" d="M1094 699 L755 455 L755 65 L1460 613 L1460 785 L755 1333 L755 943 L1094 699 Z M429 699 L90 455 L90 65 L795 613 L795 785 L90 1333 L90 943 L429 699 Z " />
<glyph glyph-name="onequarter" unicode="&#xbc;" horiz-adv-x="1575" d="M283 0 L512 0 L1335 1434 L1106 1434 L283 0 Z M225 714 L603 714 L603 878 L507 878 L507 1434 L347 1434 L120 1221 L244 1088 L321 1161 L321 878 L225 878 L225 714 Z M1449 0 L1449 134 L1353 134 L1353 192 L1455 192 L1455 336 L1353 336 L1353 720 L1184 720 L825 304 L825 192 L1167 192 L1167 134 L1071 134 L1071 0 L1449 0 Z M1057 336 L1167 464 L1167 336 L1057 336 Z " />
<glyph glyph-name="onehalf" unicode="&#xbd;" horiz-adv-x="1621" d="M283 0 L512 0 L1335 1434 L1106 1434 L283 0 Z M225 714 L603 714 L603 878 L507 878 L507 1434 L347 1434 L120 1221 L244 1088 L321 1161 L321 878 L225 878 L225 714 Z M1111 470 C1123 504 1152 566 1231 566 C1298 566 1315 535 1315 504 C1315 459 1292 429 1242 384 L970 136 L970 0 L1501 0 L1501 209 L1351 209 L1351 165 L1250 165 L1369 273 C1442 340 1501 406 1501 514 C1501 649 1401 730 1231 730 C1057 730 976 617 950 530 L1111 470 Z " />
<glyph glyph-name="threequarters" unicode="&#xbe;" horiz-adv-x="1614" d="M322 0 L551 0 L1374 1434 L1145 1434 L322 0 Z M136 1210 L322 1210 L322 1269 C338 1274 368 1280 404 1280 C467 1280 488 1260 488 1226 C488 1169 420 1153 291 1153 L291 989 C409 989 505 996 505 935 C505 885 469 868 404 868 C360 868 330 874 306 883 L306 941 L120 941 L120 803 C120 803 176 704 404 704 C575 704 691 792 691 925 C691 1021 638 1062 562 1083 C625 1110 674 1150 674 1236 C674 1357 566 1444 404 1444 C211 1444 136 1340 136 1340 L136 1210 Z M1488 0 L1488 134 L1392 134 L1392 192 L1494 192 L1494 336 L1392 336 L1392 720 L1223 720 L864 304 L864 192 L1206 192 L1206 134 L1110 134 L1110 0 L1488 0 Z M1096 336 L1206 464 L1206 336 L1096 336 Z " />
<glyph glyph-name="questiondown" unicode="&#xbf;" horiz-adv-x="1018" d="M781 -136 C724 -216 654 -283 515 -283 C365 -283 303 -230 303 -136 C303 -6 461 64 704 68 L704 480 L371 480 L371 263 C53 218 -30 19 -30 -136 C-30 -376 144 -572 515 -572 C813 -572 974 -422 1048 -281 L781 -136 Z M711 739 C711 834 633 912 538 912 C443 912 365 834 365 739 C365 644 443 566 538 566 C633 566 711 644 711 739 L711 739 Z " />
<glyph glyph-name="Agrave" unicode="&#xc0;" horiz-adv-x="1670" d="M712 1846 L379 1846 L693 1536 L963 1536 L712 1846 Z M1140 289 L993 289 L993 0 L1640 0 L1640 289 L1493 289 L1000 1434 L394 1434 L394 1145 L550 1145 L176 289 L30 289 L30 0 L677 0 L677 289 L529 289 L584 421 L1084 421 L1140 289 Z M835 1014 L967 700 L702 700 L835 1014 Z " />
<glyph glyph-name="Aacute" unicode="&#xc1;" horiz-adv-x="1670" d="M707 1536 L977 1536 L1291 1846 L958 1846 L707 1536 Z M1140 289 L993 289 L993 0 L1640 0 L1640 289 L1493 289 L1000 1434 L394 1434 L394 1145 L550 1145 L176 289 L30 289 L30 0 L677 0 L677 289 L529 289 L584 421 L1084 421 L1140 289 Z M835 1014 L967 700 L702 700 L835 1014 Z " />
<glyph glyph-name="Acircumflex" unicode="&#xc2;" horiz-adv-x="1670" d="M938 1827 L732 1827 L431 1536 L679 1536 L835 1645 L991 1536 L1239 1536 L938 1827 Z M1140 289 L993 289 L993 0 L1640 0 L1640 289 L1493 289 L1000 1434 L394 1434 L394 1145 L550 1145 L176 289 L30 289 L30 0 L677 0 L677 289 L529 289 L584 421 L1084 421 L1140 289 Z M835 1014 L967 700 L702 700 L835 1014 Z " />
<glyph glyph-name="Atilde" unicode="&#xc3;" horiz-adv-x="1670" d="M807 1590 C851 1555 901 1536 962 1536 C1226 1536 1227 1815 1227 1815 L1022 1815 C1022 1815 1014 1737 957 1737 C930 1737 902 1750 864 1783 C820 1818 770 1837 709 1837 C445 1837 444 1558 444 1558 L649 1558 C649 1558 657 1636 714 1636 C741 1636 769 1623 807 1590 L807 1590 Z M1140 289 L993 289 L993 0 L1640 0 L1640 289 L1493 289 L1000 1434 L394 1434 L394 1145 L550 1145 L176 289 L30 289 L30 0 L677 0 L677 289 L529 289 L584 421 L1084 421 L1140 289 Z M835 1014 L967 700 L702 700 L835 1014 Z " />
<glyph glyph-name="Adieresis" unicode="&#xc4;" horiz-adv-x="1670" d="M425 1708 C425 1613 502 1536 597 1536 C692 1536 769 1613 769 1708 C769 1803 692 1880 597 1880 C502 1880 425 1803 425 1708 L425 1708 Z M902 1708 C902 1613 979 1536 1074 1536 C1169 1536 1246 1613 1246 1708 C1246 1803 1169 1880 1074 1880 C979 1880 902 1803 902 1708 L902 1708 Z M1140 289 L993 289 L993 0 L1640 0 L1640 289 L1493 289 L1000 1434 L394 1434 L394 1145 L550 1145 L176 289 L30 289 L30 0 L677 0 L677 289 L529 289 L584 421 L1084 421 L1140 289 Z M835 1014 L967 700 L702 700 L835 1014 Z " />
<glyph glyph-name="Aring" unicode="&#xc5;" horiz-adv-x="1670" d="M589 1782 C589 1646 699 1536 835 1536 C971 1536 1081 1646 1081 1782 C1081 1918 971 2028 835 2028 C699 2028 589 1918 589 1782 L589 1782 Z M751 1782 C751 1828 789 1866 835 1866 C881 1866 919 1828 919 1782 C919 1736 881 1698 835 1698 C789 1698 751 1736 751 1782 L751 1782 Z M1140 289 L993 289 L993 0 L1640 0 L1640 289 L1493 289 L1000 1434 L394 1434 L394 1145 L550 1145 L176 289 L30 289 L30 0 L677 0 L677 289 L529 289 L584 421 L1084 421 L1140 289 Z M835 1014 L967 700 L702 700 L835 1014 Z " />
<glyph glyph-name="AE" unicode="&#xc6;" horiz-adv-x="2315" d="M2225 0 L2225 426 L1892 426 L1892 289 L1392 289 L1392 587 L1902 587 L1902 876 L1392 876 L1392 1145 L1882 1145 L1882 1008 L2215 1008 L2215 1434 L643 1434 L643 1145 L799 1145 L235 289 L90 289 L90 0 L737 0 L737 289 L609 289 L673 386 L1059 386 L1059 0 L2225 0 Z M1059 972 L1059 675 L863 675 L1059 972 Z " />
<glyph glyph-name="Ccedilla" unicode="&#xc7;" horiz-adv-x="1517" d="M1094 1008 L1427 1008 L1427 1364 C1427 1364 1180 1474 846 1474 C306 1474 70 1118 70 717 C70 349 269 19 719 -32 L646 -260 C750 -244 925 -223 914 -316 C903 -437 703 -400 632 -370 L579 -497 C739 -573 1077 -583 1097 -323 C1107 -190 1002 -128 878 -125 L906 -39 C1147 -30 1296 33 1427 143 L1262 369 C1173 309 1057 249 846 249 C545 249 413 453 413 717 C413 981 545 1185 846 1185 C980 1185 1094 1159 1094 1159 L1094 1008 Z " />
<glyph glyph-name="Egrave" unicode="&#xc8;" horiz-adv-x="1503" d="M644 1846 L311 1846 L625 1536 L895 1536 L644 1846 Z M90 0 L1413 0 L1413 426 L1080 426 L1080 289 L580 289 L580 587 L1090 587 L1090 876 L580 876 L580 1145 L1070 1145 L1070 1008 L1403 1008 L1403 1434 L90 1434 L90 1145 L247 1145 L247 289 L90 289 L90 0 Z " />
<glyph glyph-name="Eacute" unicode="&#xc9;" horiz-adv-x="1503" d="M615 1536 L885 1536 L1199 1846 L866 1846 L615 1536 Z M90 0 L1413 0 L1413 426 L1080 426 L1080 289 L580 289 L580 587 L1090 587 L1090 876 L580 876 L580 1145 L1070 1145 L1070 1008 L1403 1008 L1403 1434 L90 1434 L90 1145 L247 1145 L247 289 L90 289 L90 0 Z " />
<glyph glyph-name="Ecircumflex" unicode="&#xca;" horiz-adv-x="1503" d="M848 1827 L642 1827 L341 1536 L589 1536 L745 1645 L901 1536 L1149 1536 L848 1827 Z M90 0 L1413 0 L1413 426 L1080 426 L1080 289 L580 289 L580 587 L1090 587 L1090 876 L580 876 L580 1145 L1070 1145 L1070 1008 L1403 1008 L1403 1434 L90 1434 L90 1145 L247 1145 L247 289 L90 289 L90 0 Z " />
<glyph glyph-name="Edieresis" unicode="&#xcb;" horiz-adv-x="1503" d="M335 1708 C335 1613 412 1536 507 1536 C602 1536 679 1613 679 1708 C679 1803 602 1880 507 1880 C412 1880 335 1803 335 1708 L335 1708 Z M812 1708 C812 1613 889 1536 984 1536 C1079 1536 1156 1613 1156 1708 C1156 1803 1079 1880 984 1880 C889 1880 812 1803 812 1708 L812 1708 Z M90 0 L1413 0 L1413 426 L1080 426 L1080 289 L580 289 L580 587 L1090 587 L1090 876 L580 876 L580 1145 L1070 1145 L1070 1008 L1403 1008 L1403 1434 L90 1434 L90 1145 L247 1145 L247 289 L90 289 L90 0 Z " />
<glyph glyph-name="Igrave" unicode="&#xcc;" horiz-adv-x="871" d="M383 1846 L50 1846 L364 1536 L634 1536 L383 1846 Z M664 1145 L821 1145 L821 1434 L174 1434 L174 1145 L331 1145 L331 289 L174 289 L174 0 L821 0 L821 289 L664 289 L664 1145 Z " />
<glyph glyph-name="Iacute" unicode="&#xcd;" horiz-adv-x="914" d="M280 1536 L550 1536 L864 1846 L531 1846 L280 1536 Z M580 1145 L737 1145 L737 1434 L90 1434 L90 1145 L247 1145 L247 289 L90 289 L90 0 L737 0 L737 289 L580 289 L580 1145 Z " />
<glyph glyph-name="Icircumflex" unicode="&#xce;" horiz-adv-x="908" d="M557 1827 L351 1827 L50 1536 L298 1536 L454 1645 L610 1536 L858 1536 L557 1827 Z M621 1145 L778 1145 L778 1434 L131 1434 L131 1145 L288 1145 L288 289 L131 289 L131 0 L778 0 L778 289 L621 289 L621 1145 Z " />
<glyph glyph-name="Idieresis" unicode="&#xcf;" horiz-adv-x="921" d="M50 1708 C50 1613 127 1536 222 1536 C317 1536 394 1613 394 1708 C394 1803 317 1880 222 1880 C127 1880 50 1803 50 1708 L50 1708 Z M527 1708 C527 1613 604 1536 699 1536 C794 1536 871 1613 871 1708 C871 1803 794 1880 699 1880 C604 1880 527 1803 527 1708 L527 1708 Z M627 1145 L784 1145 L784 1434 L137 1434 L137 1145 L294 1145 L294 289 L137 289 L137 0 L784 0 L784 289 L627 289 L627 1145 Z " />
<glyph glyph-name="Eth" unicode="&#xd0;" horiz-adv-x="1683" d="M1633 717 C1633 1130 1400 1434 917 1434 L153 1434 L153 1145 L310 1145 L310 862 L90 862 L90 573 L310 573 L310 289 L153 289 L153 0 L917 0 C1400 0 1633 303 1633 717 L1633 717 Z M643 1145 L917 1145 C1193 1145 1290 939 1290 717 C1290 495 1193 289 917 289 L643 289 L643 573 L936 573 L936 862 L643 862 L643 1145 Z " />
<glyph glyph-name="Ntilde" unicode="&#xd1;" horiz-adv-x="1807" d="M875 1590 C919 1555 969 1536 1030 1536 C1294 1536 1295 1815 1295 1815 L1090 1815 C1090 1815 1082 1737 1025 1737 C998 1737 970 1750 932 1783 C888 1818 838 1837 777 1837 C513 1837 512 1558 512 1558 L717 1558 C717 1558 725 1636 782 1636 C809 1636 837 1623 875 1590 L875 1590 Z M90 0 L737 0 L737 289 L580 289 L580 956 L1138 0 L1560 0 L1560 1145 L1717 1145 L1717 1434 L1070 1434 L1070 1145 L1227 1145 L1227 478 L669 1434 L90 1434 L90 1145 L247 1145 L247 289 L90 289 L90 0 Z " />
<glyph glyph-name="Ograve" unicode="&#xd2;" horiz-adv-x="1692" d="M846 1474 C306 1474 70 1118 70 717 C70 316 306 -40 846 -40 C1386 -40 1622 316 1622 717 C1622 1118 1386 1474 846 1474 L846 1474 Z M846 1185 C1147 1185 1279 981 1279 717 C1279 453 1147 249 846 249 C545 249 413 453 413 717 C413 981 545 1185 846 1185 L846 1185 Z M741 1845 L408 1845 L722 1535 L992 1535 L741 1845 Z " />
<glyph glyph-name="Oacute" unicode="&#xd3;" horiz-adv-x="1692" d="M846 1474 C306 1474 70 1118 70 717 C70 316 306 -40 846 -40 C1386 -40 1622 316 1622 717 C1622 1118 1386 1474 846 1474 L846 1474 Z M846 1185 C1147 1185 1279 981 1279 717 C1279 453 1147 249 846 249 C545 249 413 453 413 717 C413 981 545 1185 846 1185 L846 1185 Z M716 1536 L986 1536 L1300 1846 L967 1846 L716 1536 Z " />
<glyph glyph-name="Ocircumflex" unicode="&#xd4;" horiz-adv-x="1692" d="M846 1474 C306 1474 70 1118 70 717 C70 316 306 -40 846 -40 C1386 -40 1622 316 1622 717 C1622 1118 1386 1474 846 1474 L846 1474 Z M846 1185 C1147 1185 1279 981 1279 717 C1279 453 1147 249 846 249 C545 249 413 453 413 717 C413 981 545 1185 846 1185 L846 1185 Z M949 1826 L743 1826 L442 1535 L690 1535 L846 1644 L1002 1535 L1250 1535 L949 1826 Z " />
<glyph glyph-name="Otilde" unicode="&#xd5;" horiz-adv-x="1692" d="M846 1474 C306 1474 70 1118 70 717 C70 316 306 -40 846 -40 C1386 -40 1622 316 1622 717 C1622 1118 1386 1474 846 1474 L846 1474 Z M846 1185 C1147 1185 1279 981 1279 717 C1279 453 1147 249 846 249 C545 249 413 453 413 717 C413 981 545 1185 846 1185 L846 1185 Z M817 1590 C861 1555 911 1536 972 1536 C1236 1536 1237 1815 1237 1815 L1032 1815 C1032 1815 1024 1737 967 1737 C940 1737 912 1750 874 1783 C830 1818 780 1837 719 1837 C455 1837 454 1558 454 1558 L659 1558 C659 1558 667 1636 724 1636 C751 1636 779 1623 817 1590 L817 1590 Z " />
<glyph glyph-name="Odieresis" unicode="&#xd6;" horiz-adv-x="1692" d="M846 1474 C306 1474 70 1118 70 717 C70 316 306 -40 846 -40 C1386 -40 1622 316 1622 717 C1622 1118 1386 1474 846 1474 L846 1474 Z M846 1185 C1147 1185 1279 981 1279 717 C1279 453 1147 249 846 249 C545 249 413 453 413 717 C413 981 545 1185 846 1185 L846 1185 Z M436 1708 C436 1613 513 1536 608 1536 C703 1536 780 1613 780 1708 C780 1803 703 1880 608 1880 C513 1880 436 1803 436 1708 L436 1708 Z M913 1708 C913 1613 990 1536 1085 1536 C1180 1536 1257 1613 1257 1708 C1257 1803 1180 1880 1085 1880 C990 1880 913 1803 913 1708 L913 1708 Z " />
<glyph glyph-name="multiply" unicode="&#xd7;" horiz-adv-x="1128" d="M1058 351 L767 641 L1058 932 L855 1136 L564 845 L273 1136 L70 932 L360 641 L70 351 L273 148 L564 438 L855 148 L1058 351 Z " />
<glyph glyph-name="Oslash" unicode="&#xd8;" horiz-adv-x="1692" d="M846 1474 C306 1474 70 1118 70 717 C70 447 176 198 410 64 L349 -61 L577 -61 L601 -11 C674 -30 756 -40 846 -40 C1386 -40 1622 316 1622 717 C1622 988 1514 1239 1276 1373 L1336 1495 L1108 1495 L1084 1447 C1012 1464 933 1474 846 1474 L846 1474 Z M1279 717 C1279 453 1147 249 846 249 C805 249 768 253 733 260 L1137 1088 C1234 1004 1279 870 1279 717 L1279 717 Z M846 1185 C884 1185 919 1181 952 1175 L549 350 C456 435 413 566 413 717 C413 981 545 1185 846 1185 L846 1185 Z " />
<glyph glyph-name="Ugrave" unicode="&#xd9;" horiz-adv-x="1771" d="M769 1846 L436 1846 L750 1536 L1020 1536 L769 1846 Z M580 651 L580 1145 L737 1145 L737 1434 L90 1434 L90 1145 L247 1145 L247 651 C247 231 427 -40 886 -40 C1344 -40 1524 231 1524 651 L1524 1145 L1681 1145 L1681 1434 L1034 1434 L1034 1145 L1191 1145 L1191 651 C1191 393 1128 249 886 249 C642 249 580 393 580 651 L580 651 Z " />
<glyph glyph-name="Uacute" unicode="&#xda;" horiz-adv-x="1771" d="M756 1536 L1026 1536 L1340 1846 L1007 1846 L756 1536 Z M580 651 L580 1145 L737 1145 L737 1434 L90 1434 L90 1145 L247 1145 L247 651 C247 231 427 -40 886 -40 C1344 -40 1524 231 1524 651 L1524 1145 L1681 1145 L1681 1434 L1034 1434 L1034 1145 L1191 1145 L1191 651 C1191 393 1128 249 886 249 C642 249 580 393 580 651 L580 651 Z " />
<glyph glyph-name="Ucircumflex" unicode="&#xdb;" horiz-adv-x="1771" d="M988 1827 L782 1827 L481 1536 L729 1536 L885 1645 L1041 1536 L1289 1536 L988 1827 Z M580 651 L580 1145 L737 1145 L737 1434 L90 1434 L90 1145 L247 1145 L247 651 C247 231 427 -40 886 -40 C1344 -40 1524 231 1524 651 L1524 1145 L1681 1145 L1681 1434 L1034 1434 L1034 1145 L1191 1145 L1191 651 C1191 393 1128 249 886 249 C642 249 580 393 580 651 L580 651 Z " />
<glyph glyph-name="Udieresis" unicode="&#xdc;" horiz-adv-x="1771" d="M475 1698 C475 1603 552 1526 647 1526 C742 1526 819 1603 819 1698 C819 1793 742 1870 647 1870 C552 1870 475 1793 475 1698 L475 1698 Z M952 1698 C952 1603 1029 1526 1124 1526 C1219 1526 1296 1603 1296 1698 C1296 1793 1219 1870 1124 1870 C1029 1870 952 1793 952 1698 L952 1698 Z M580 651 L580 1145 L737 1145 L737 1434 L90 1434 L90 1145 L247 1145 L247 651 C247 231 427 -40 886 -40 C1344 -40 1524 231 1524 651 L1524 1145 L1681 1145 L1681 1434 L1034 1434 L1034 1145 L1191 1145 L1191 651 C1191 393 1128 249 886 249 C642 249 580 393 580 651 L580 651 Z " />
<glyph glyph-name="Yacute" unicode="&#xdd;" horiz-adv-x="1581" d="M647 1536 L917 1536 L1231 1846 L898 1846 L647 1536 Z M624 496 L624 289 L467 289 L467 0 L1114 0 L1114 289 L957 289 L957 496 L1395 1145 L1551 1145 L1551 1434 L904 1434 L904 1145 L1019 1145 L790 805 L561 1145 L677 1145 L677 1434 L30 1434 L30 1145 L185 1145 L624 496 Z " />
<glyph glyph-name="Thorn" unicode="&#xde;" horiz-adv-x="1283" d="M560 1145 L717 1145 L717 1434 L70 1434 L70 1145 L227 1145 L227 289 L70 289 L70 0 L717 0 L717 289 L560 289 L560 331 L768 331 C1087 331 1233 464 1233 717 C1233 970 1087 1103 768 1103 L560 1103 L560 1145 Z M768 814 C868 814 900 780 900 717 C900 654 868 620 768 620 L560 620 L560 814 L768 814 Z " />
<glyph glyph-name="germandbls" unicode="&#xdf;" horiz-adv-x="1529" d="M247 861 L247 289 L90 289 L90 0 L575 0 L575 861 C575 1163 689 1212 831 1212 C992 1212 1082 1149 1082 1041 C1082 936 1016 868 887 865 L726 865 L726 613 L891 613 C1018 613 1131 568 1131 419 C1131 313 1080 222 914 222 C816 222 728 244 663 272 L663 12 C718 -10 814 -30 914 -30 C1219 -30 1459 84 1459 409 C1459 584 1336 699 1195 739 C1309 776 1410 891 1410 1041 C1410 1324 1162 1464 831 1464 C608 1464 247 1424 247 861 L247 861 Z " />
<glyph glyph-name="agrave" unicode="&#xe0;" horiz-adv-x="1311" d="M494 1434 L161 1434 L475 1124 L745 1124 L494 1434 Z M755 0 L1241 0 L1241 252 L1084 252 L1084 635 C1084 915 979 1060 593 1060 C462 1060 277 1036 136 963 L245 753 C361 802 464 818 573 818 C734 818 756 762 756 670 C411 701 50 637 50 319 C50 76 238 -24 445 -24 C577 -24 700 10 755 135 L755 0 Z M378 349 C378 494 635 498 755 488 L755 399 C755 310 673 228 525 228 C421 228 378 279 378 349 L378 349 Z " />
<glyph glyph-name="aacute" unicode="&#xe1;" horiz-adv-x="1311" d="M466 1124 L736 1124 L1050 1434 L717 1434 L466 1124 Z M755 0 L1241 0 L1241 252 L1084 252 L1084 635 C1084 915 979 1060 593 1060 C462 1060 277 1036 136 963 L245 753 C361 802 464 818 573 818 C734 818 756 762 756 670 C411 701 50 637 50 319 C50 76 238 -24 445 -24 C577 -24 700 10 755 135 L755 0 Z M378 349 C378 494 635 498 755 488 L755 399 C755 310 673 228 525 228 C421 228 378 279 378 349 L378 349 Z " />
<glyph glyph-name="acircumflex" unicode="&#xe2;" horiz-adv-x="1311" d="M714 1434 L508 1434 L207 1143 L455 1143 L611 1252 L767 1143 L1015 1143 L714 1434 Z M755 0 L1241 0 L1241 252 L1084 252 L1084 635 C1084 915 979 1060 593 1060 C462 1060 277 1036 136 963 L245 753 C361 802 464 818 573 818 C734 818 756 762 756 670 C411 701 50 637 50 319 C50 76 238 -24 445 -24 C577 -24 700 10 755 135 L755 0 Z M378 349 C378 494 635 498 755 488 L755 399 C755 310 673 228 525 228 C421 228 378 279 378 349 L378 349 Z " />
<glyph glyph-name="atilde" unicode="&#xe3;" horiz-adv-x="1311" d="M586 1207 C630 1172 680 1153 741 1153 C1005 1153 1006 1432 1006 1432 L801 1432 C801 1432 793 1354 736 1354 C709 1354 681 1367 643 1400 C599 1435 549 1454 488 1454 C224 1454 223 1175 223 1175 L428 1175 C428 1175 436 1253 493 1253 C520 1253 548 1240 586 1207 L586 1207 Z M755 0 L1241 0 L1241 252 L1084 252 L1084 635 C1084 915 979 1060 593 1060 C462 1060 277 1036 136 963 L245 753 C361 802 464 818 573 818 C734 818 756 762 756 670 C411 701 50 637 50 319 C50 76 238 -24 445 -24 C577 -24 700 10 755 135 L755 0 Z M378 349 C378 494 635 498 755 488 L755 399 C755 310 673 228 525 228 C421 228 378 279 378 349 L378 349 Z " />
<glyph glyph-name="adieresis" unicode="&#xe4;" horiz-adv-x="1311" d="M216 1334 C216 1239 293 1162 388 1162 C483 1162 560 1239 560 1334 C560 1429 483 1506 388 1506 C293 1506 216 1429 216 1334 L216 1334 Z M693 1334 C693 1239 770 1162 865 1162 C960 1162 1037 1239 1037 1334 C1037 1429 960 1506 865 1506 C770 1506 693 1429 693 1334 L693 1334 Z M755 0 L1241 0 L1241 252 L1084 252 L1084 635 C1084 915 979 1060 593 1060 C462 1060 277 1036 136 963 L245 753 C361 802 464 818 573 818 C734 818 756 762 756 670 C411 701 50 637 50 319 C50 76 238 -24 445 -24 C577 -24 700 10 755 135 L755 0 Z M378 349 C378 494 635 498 755 488 L755 399 C755 310 673 228 525 228 C421 228 378 279 378 349 L378 349 Z " />
<glyph glyph-name="aring" unicode="&#xe5;" horiz-adv-x="1311" d="M386 1370 C386 1234 496 1124 632 1124 C768 1124 878 1234 878 1370 C878 1506 768 1616 632 1616 C496 1616 386 1506 386 1370 L386 1370 Z M548 1370 C548 1416 586 1454 632 1454 C678 1454 716 1416 716 1370 C716 1324 678 1286 632 1286 C586 1286 548 1324 548 1370 L548 1370 Z M755 0 L1241 0 L1241 252 L1084 252 L1084 635 C1084 915 979 1060 593 1060 C462 1060 277 1036 136 963 L245 753 C361 802 464 818 573 818 C734 818 756 762 756 670 C411 701 50 637 50 319 C50 76 238 -24 445 -24 C577 -24 700 10 755 135 L755 0 Z M378 349 C378 494 635 498 755 488 L755 399 C755 310 673 228 525 228 C421 228 378 279 378 349 L378 349 Z " />
<glyph glyph-name="ae" unicode="&#xe6;" horiz-adv-x="1931" d="M1654 306 C1590 262 1488 212 1325 212 C1148 212 1096 306 1096 394 L1875 394 C1915 811 1716 1060 1325 1060 C1175 1060 1058 1024 970 964 C895 1028 775 1060 593 1060 C462 1060 277 1036 136 963 L245 753 C361 802 464 818 573 818 C734 818 756 762 756 670 C411 701 50 637 50 319 C50 76 238 -24 445 -24 C544 -24 737 -16 916 105 C1007 22 1141 -30 1325 -30 C1554 -30 1710 36 1816 122 L1654 306 Z M378 349 C378 494 635 498 755 488 L755 399 C755 310 673 228 525 228 C421 228 378 279 378 349 L378 349 Z M1097 606 C1097 696 1147 818 1325 818 C1503 818 1553 696 1553 606 L1097 606 Z " />
<glyph glyph-name="ccedilla" unicode="&#xe7;" horiz-adv-x="1193" d="M775 657 L1103 657 L1103 1000 C1103 1000 890 1060 656 1060 C288 1060 50 838 50 515 C50 232 232 27 525 -20 L448 -260 C552 -244 727 -223 716 -316 C705 -437 505 -400 434 -370 L381 -497 C541 -573 879 -583 899 -323 C909 -190 804 -128 680 -125 L711 -28 C878 -19 1010 33 1103 134 L946 325 C860 254 761 222 656 222 C483 222 378 336 378 515 C378 694 483 808 656 808 C716 808 775 800 775 800 L775 657 Z " />
<glyph glyph-name="egrave" unicode="&#xe8;" horiz-adv-x="1226" d="M949 306 C885 262 783 212 620 212 C443 212 391 306 391 394 L1170 394 C1210 811 1011 1060 620 1060 C217 1060 50 797 50 515 C50 233 207 -30 620 -30 C849 -30 1005 36 1111 122 L949 306 Z M392 606 C392 696 442 818 620 818 C798 818 848 696 848 606 L392 606 Z M519 1434 L186 1434 L500 1124 L770 1124 L519 1434 Z " />
<glyph glyph-name="eacute" unicode="&#xe9;" horiz-adv-x="1226" d="M949 306 C885 262 783 212 620 212 C443 212 391 306 391 394 L1170 394 C1210 811 1011 1060 620 1060 C217 1060 50 797 50 515 C50 233 207 -30 620 -30 C849 -30 1005 36 1111 122 L949 306 Z M392 606 C392 696 442 818 620 818 C798 818 848 696 848 606 L392 606 Z M472 1124 L742 1124 L1056 1434 L723 1434 L472 1124 Z " />
<glyph glyph-name="ecircumflex" unicode="&#xea;" horiz-adv-x="1226" d="M949 306 C885 262 783 212 620 212 C443 212 391 306 391 394 L1170 394 C1210 811 1011 1060 620 1060 C217 1060 50 797 50 515 C50 233 207 -30 620 -30 C849 -30 1005 36 1111 122 L949 306 Z M392 606 C392 696 442 818 620 818 C798 818 848 696 848 606 L392 606 Z M727 1434 L521 1434 L220 1143 L468 1143 L624 1252 L780 1143 L1028 1143 L727 1434 Z " />
<glyph glyph-name="edieresis" unicode="&#xeb;" horiz-adv-x="1226" d="M949 306 C885 262 783 212 620 212 C443 212 391 306 391 394 L1170 394 C1210 811 1011 1060 620 1060 C217 1060 50 797 50 515 C50 233 207 -30 620 -30 C849 -30 1005 36 1111 122 L949 306 Z M392 606 C392 696 442 818 620 818 C798 818 848 696 848 606 L392 606 Z M214 1334 C214 1239 291 1162 386 1162 C481 1162 558 1239 558 1334 C558 1429 481 1506 386 1506 C291 1506 214 1429 214 1334 L214 1334 Z M691 1334 C691 1239 768 1162 863 1162 C958 1162 1035 1239 1035 1334 C1035 1429 958 1506 863 1506 C768 1506 691 1429 691 1334 L691 1334 Z " />
<glyph glyph-name="igrave" unicode="&#xec;" horiz-adv-x="861" d="M363 1434 L30 1434 L344 1124 L614 1124 L363 1434 Z M306 778 L306 252 L149 252 L149 0 L791 0 L791 252 L634 252 L634 1030 L149 1030 L149 778 L306 778 Z " />
<glyph glyph-name="iacute" unicode="&#xed;" horiz-adv-x="865" d="M251 1124 L521 1124 L835 1434 L502 1434 L251 1124 Z M227 778 L227 252 L70 252 L70 0 L712 0 L712 252 L555 252 L555 1030 L70 1030 L70 778 L227 778 Z " />
<glyph glyph-name="icircumflex" unicode="&#xee;" horiz-adv-x="868" d="M537 1434 L331 1434 L30 1143 L278 1143 L434 1252 L590 1143 L838 1143 L537 1434 Z M270 778 L270 252 L113 252 L113 0 L755 0 L755 252 L598 252 L598 1030 L113 1030 L113 778 L270 778 Z " />
<glyph glyph-name="idieresis" unicode="&#xef;" horiz-adv-x="881" d="M30 1334 C30 1239 107 1162 202 1162 C297 1162 374 1239 374 1334 C374 1429 297 1506 202 1506 C107 1506 30 1429 30 1334 L30 1334 Z M507 1334 C507 1239 584 1162 679 1162 C774 1162 851 1239 851 1334 C851 1429 774 1506 679 1506 C584 1506 507 1429 507 1334 L507 1334 Z M276 778 L276 252 L119 252 L119 0 L761 0 L761 252 L604 252 L604 1030 L119 1030 L119 778 L276 778 Z " />
<glyph glyph-name="eth" unicode="&#xf0;" horiz-adv-x="1294" d="M589 1095 L745 1212 C858 1121 908 1005 914 894 C853 986 741 1060 576 1060 C260 1060 50 857 50 515 C50 173 270 -30 606 -30 C1039 -30 1279 236 1212 854 C1187 1084 1082 1259 958 1373 L1067 1456 L939 1625 L775 1501 C626 1580 483 1605 426 1608 L350 1364 C420 1354 482 1340 538 1321 L462 1264 L589 1095 Z M914 515 C914 346 819 222 646 222 C473 222 378 346 378 515 C378 684 473 808 646 808 C819 808 914 684 914 515 L914 515 Z " />
<glyph glyph-name="ntilde" unicode="&#xf1;" horiz-adv-x="1530" d="M737 1207 C781 1172 831 1153 892 1153 C1156 1153 1157 1432 1157 1432 L952 1432 C952 1432 944 1354 887 1354 C860 1354 832 1367 794 1400 C750 1435 700 1454 639 1454 C375 1454 374 1175 374 1175 L579 1175 C579 1175 587 1253 644 1253 C671 1253 699 1240 737 1207 L737 1207 Z M70 1030 L70 778 L227 778 L227 252 L70 252 L70 0 L712 0 L712 252 L555 252 L555 534 C555 704 606 808 765 808 C924 808 975 704 975 534 L975 0 L1460 0 L1460 252 L1303 252 L1303 534 C1303 861 1171 1060 830 1060 C704 1060 615 1012 555 921 L555 1030 L70 1030 Z " />
<glyph glyph-name="ograve" unicode="&#xf2;" horiz-adv-x="1312" d="M656 -30 C1024 -30 1262 193 1262 515 C1262 838 1024 1060 656 1060 C288 1060 50 838 50 515 C50 193 288 -30 656 -30 L656 -30 Z M656 222 C473 222 378 346 378 515 C378 684 473 808 656 808 C839 808 934 684 934 515 C934 346 839 222 656 222 L656 222 Z M546 1434 L213 1434 L527 1124 L797 1124 L546 1434 Z " />
<glyph glyph-name="oacute" unicode="&#xf3;" horiz-adv-x="1312" d="M656 -30 C1024 -30 1262 193 1262 515 C1262 838 1024 1060 656 1060 C288 1060 50 838 50 515 C50 193 288 -30 656 -30 L656 -30 Z M656 222 C473 222 378 346 378 515 C378 684 473 808 656 808 C839 808 934 684 934 515 C934 346 839 222 656 222 L656 222 Z M529 1124 L799 1124 L1113 1434 L780 1434 L529 1124 Z " />
<glyph glyph-name="ocircumflex" unicode="&#xf4;" horiz-adv-x="1312" d="M656 -30 C1024 -30 1262 193 1262 515 C1262 838 1024 1060 656 1060 C288 1060 50 838 50 515 C50 193 288 -30 656 -30 L656 -30 Z M656 222 C473 222 378 346 378 515 C378 684 473 808 656 808 C839 808 934 684 934 515 C934 346 839 222 656 222 L656 222 Z M759 1434 L553 1434 L252 1143 L500 1143 L656 1252 L812 1143 L1060 1143 L759 1434 Z " />
<glyph glyph-name="otilde" unicode="&#xf5;" horiz-adv-x="1312" d="M656 -30 C1024 -30 1262 193 1262 515 C1262 838 1024 1060 656 1060 C288 1060 50 838 50 515 C50 193 288 -30 656 -30 L656 -30 Z M656 222 C473 222 378 346 378 515 C378 684 473 808 656 808 C839 808 934 684 934 515 C934 346 839 222 656 222 L656 222 Z M628 1207 C672 1172 722 1153 783 1153 C1047 1153 1048 1432 1048 1432 L843 1432 C843 1432 835 1354 778 1354 C751 1354 723 1367 685 1400 C641 1435 591 1454 530 1454 C266 1454 265 1175 265 1175 L470 1175 C470 1175 478 1253 535 1253 C562 1253 590 1240 628 1207 L628 1207 Z " />
<glyph glyph-name="odieresis" unicode="&#xf6;" horiz-adv-x="1312" d="M656 -30 C1024 -30 1262 193 1262 515 C1262 838 1024 1060 656 1060 C288 1060 50 838 50 515 C50 193 288 -30 656 -30 L656 -30 Z M656 222 C473 222 378 346 378 515 C378 684 473 808 656 808 C839 808 934 684 934 515 C934 346 839 222 656 222 L656 222 Z M246 1314 C246 1219 323 1142 418 1142 C513 1142 590 1219 590 1314 C590 1409 513 1486 418 1486 C323 1486 246 1409 246 1314 L246 1314 Z M723 1314 C723 1219 800 1142 895 1142 C990 1142 1067 1219 1067 1314 C1067 1409 990 1486 895 1486 C800 1486 723 1409 723 1314 L723 1314 Z " />
<glyph glyph-name="divide" unicode="&#xf7;" horiz-adv-x="1070" d="M70 534 L1000 534 L1000 823 L70 823 L70 534 Z M359 1059 C359 962 438 883 535 883 C632 883 711 962 711 1059 C711 1156 632 1235 535 1235 C438 1235 359 1156 359 1059 L359 1059 Z M359 298 C359 201 438 122 535 122 C632 122 711 201 711 298 C711 395 632 474 535 474 C438 474 359 395 359 298 L359 298 Z " />
<glyph glyph-name="oslash" unicode="&#xf8;" horiz-adv-x="1352" d="M676 -30 C1044 -30 1282 193 1282 515 C1282 729 1177 899 998 989 L1048 1091 L866 1091 L843 1043 C791 1054 735 1060 676 1060 C308 1060 70 838 70 515 C70 301 175 130 353 40 L304 -61 L486 -61 L509 -13 C561 -24 617 -30 676 -30 L676 -30 Z M398 515 C398 684 493 808 676 808 C693 808 710 806 726 804 L478 295 C425 347 398 425 398 515 L398 515 Z M676 222 C658 222 641 223 625 225 L874 735 C927 682 954 605 954 515 C954 346 859 222 676 222 L676 222 Z " />
<glyph glyph-name="ugrave" unicode="&#xf9;" horiz-adv-x="1530" d="M668 1434 L335 1434 L649 1124 L919 1124 L668 1434 Z M975 0 L1460 0 L1460 252 L1303 252 L1303 1030 L818 1030 L818 778 L975 778 L975 496 C975 326 924 222 765 222 C606 222 555 326 555 496 L555 1030 L70 1030 L70 778 L227 778 L227 496 C227 169 359 -30 700 -30 C826 -30 915 18 975 109 L975 0 Z " />
<glyph glyph-name="uacute" unicode="&#xfa;" horiz-adv-x="1530" d="M614 1124 L884 1124 L1198 1434 L865 1434 L614 1124 Z M975 0 L1460 0 L1460 252 L1303 252 L1303 1030 L818 1030 L818 778 L975 778 L975 496 C975 326 924 222 765 222 C606 222 555 326 555 496 L555 1030 L70 1030 L70 778 L227 778 L227 496 C227 169 359 -30 700 -30 C826 -30 915 18 975 109 L975 0 Z " />
<glyph glyph-name="ucircumflex" unicode="&#xfb;" horiz-adv-x="1530" d="M868 1434 L662 1434 L361 1143 L609 1143 L765 1252 L921 1143 L1169 1143 L868 1434 Z M975 0 L1460 0 L1460 252 L1303 252 L1303 1030 L818 1030 L818 778 L975 778 L975 496 C975 326 924 222 765 222 C606 222 555 326 555 496 L555 1030 L70 1030 L70 778 L227 778 L227 496 C227 169 359 -30 700 -30 C826 -30 915 18 975 109 L975 0 Z " />
<glyph glyph-name="udieresis" unicode="&#xfc;" horiz-adv-x="1530" d="M356 1334 C356 1239 433 1162 528 1162 C623 1162 700 1239 700 1334 C700 1429 623 1506 528 1506 C433 1506 356 1429 356 1334 L356 1334 Z M833 1334 C833 1239 910 1162 1005 1162 C1100 1162 1177 1239 1177 1334 C1177 1429 1100 1506 1005 1506 C910 1506 833 1429 833 1334 L833 1334 Z M975 0 L1460 0 L1460 252 L1303 252 L1303 1030 L818 1030 L818 778 L975 778 L975 496 C975 326 924 222 765 222 C606 222 555 326 555 496 L555 1030 L70 1030 L70 778 L227 778 L227 496 C227 169 359 -30 700 -30 C826 -30 915 18 975 109 L975 0 Z " />
<glyph glyph-name="yacute" unicode="&#xfd;" horiz-adv-x="1418" d="M568 1124 L838 1124 L1152 1434 L819 1434 L568 1124 Z M1348 778 L1348 1030 L786 1030 L786 778 L862 778 L709 358 L555 778 L632 778 L632 1030 L70 1030 L70 778 L229 778 L562 0 L489 -166 C457 -240 423 -280 333 -280 L184 -280 L184 -532 L347 -532 C570 -532 672 -428 733 -289 L856 0 L1189 778 L1348 778 Z " />
<glyph glyph-name="thorn" unicode="&#xfe;" horiz-adv-x="1469" d="M227 1264 L227 -280 L70 -280 L70 -532 L712 -532 L712 -280 L555 -280 L555 136 C616 44 728 -30 893 -30 C1209 -30 1419 173 1419 515 C1419 857 1209 1060 893 1060 C728 1060 616 986 555 894 L555 1516 L70 1516 L70 1264 L227 1264 Z M1091 515 C1091 346 996 222 823 222 C650 222 555 346 555 515 C555 684 650 808 823 808 C996 808 1091 684 1091 515 L1091 515 Z " />
<glyph glyph-name="ydieresis" unicode="&#xff;" horiz-adv-x="1418" d="M299 1334 C299 1239 376 1162 471 1162 C566 1162 643 1239 643 1334 C643 1429 566 1506 471 1506 C376 1506 299 1429 299 1334 L299 1334 Z M776 1334 C776 1239 853 1162 948 1162 C1043 1162 1120 1239 1120 1334 C1120 1429 1043 1506 948 1506 C853 1506 776 1429 776 1334 L776 1334 Z M1348 778 L1348 1030 L786 1030 L786 778 L862 778 L709 358 L555 778 L632 778 L632 1030 L70 1030 L70 778 L229 778 L562 0 L489 -166 C457 -240 423 -280 333 -280 L184 -280 L184 -532 L347 -532 C570 -532 672 -428 733 -289 L856 0 L1189 778 L1348 778 Z " />
<glyph glyph-name="Amacron" unicode="&#x100;" horiz-adv-x="1670" d="M399 1536 L1273 1536 L1273 1788 L399 1788 L399 1536 Z M1140 289 L993 289 L993 0 L1640 0 L1640 289 L1493 289 L1000 1434 L394 1434 L394 1145 L550 1145 L176 289 L30 289 L30 0 L677 0 L677 289 L529 289 L584 421 L1084 421 L1140 289 Z M835 1014 L967 700 L702 700 L835 1014 Z " />
<glyph glyph-name="amacron" unicode="&#x101;" horiz-adv-x="1311" d="M186 1182 L1060 1182 L1060 1434 L186 1434 L186 1182 Z M755 0 L1241 0 L1241 252 L1084 252 L1084 635 C1084 915 979 1060 593 1060 C462 1060 277 1036 136 963 L245 753 C361 802 464 818 573 818 C734 818 756 762 756 670 C411 701 50 637 50 319 C50 76 238 -24 445 -24 C577 -24 700 10 755 135 L755 0 Z M378 349 C378 494 635 498 755 488 L755 399 C755 310 673 228 525 228 C421 228 378 279 378 349 L378 349 Z " />
<glyph glyph-name="Abreve" unicode="&#x102;" horiz-adv-x="1670" d="M835 1536 C1083 1536 1191 1684 1209 1802 L1017 1802 C993 1743 937 1704 835 1704 C733 1704 677 1743 653 1802 L461 1802 C479 1684 587 1536 835 1536 L835 1536 Z M1140 289 L993 289 L993 0 L1640 0 L1640 289 L1493 289 L1000 1434 L394 1434 L394 1145 L550 1145 L176 289 L30 289 L30 0 L677 0 L677 289 L529 289 L584 421 L1084 421 L1140 289 Z M835 1014 L967 700 L702 700 L835 1014 Z " />
<glyph glyph-name="abreve" unicode="&#x103;" horiz-adv-x="1311" d="M627 1168 C875 1168 983 1316 1001 1434 L809 1434 C785 1375 729 1336 627 1336 C525 1336 469 1375 445 1434 L253 1434 C271 1316 379 1168 627 1168 L627 1168 Z M755 0 L1241 0 L1241 252 L1084 252 L1084 635 C1084 915 979 1060 593 1060 C462 1060 277 1036 136 963 L245 753 C361 802 464 818 573 818 C734 818 756 762 756 670 C411 701 50 637 50 319 C50 76 238 -24 445 -24 C577 -24 700 10 755 135 L755 0 Z M378 349 C378 494 635 498 755 488 L755 399 C755 310 673 228 525 228 C421 228 378 279 378 349 L378 349 Z " />
<glyph glyph-name="Aogonek" unicode="&#x104;" horiz-adv-x="1722" d="M1140 289 L993 289 L993 0 L1416 0 C1409 -2 1271 -58 1271 -217 C1271 -448 1521 -498 1692 -498 L1692 -251 C1692 -251 1510 -251 1510 -141 C1510 -34 1640 0 1640 0 L1640 289 L1493 289 L1000 1434 L394 1434 L394 1145 L550 1145 L176 289 L30 289 L30 0 L677 0 L677 289 L529 289 L584 421 L1084 421 L1140 289 Z M835 1014 L967 700 L702 700 L835 1014 Z " />
<glyph glyph-name="aogonek" unicode="&#x105;" horiz-adv-x="1363" d="M755 0 L1017 0 C1010 -2 872 -58 872 -217 C872 -448 1122 -498 1293 -498 L1293 -251 C1293 -251 1111 -251 1111 -141 C1111 -34 1241 0 1241 0 L1241 252 L1084 252 L1084 635 C1084 915 979 1060 593 1060 C462 1060 277 1036 136 963 L245 753 C361 802 464 818 573 818 C734 818 756 762 756 670 C411 701 50 637 50 319 C50 76 238 -24 445 -24 C577 -24 700 10 755 135 L755 0 Z M378 349 C378 494 635 498 755 488 L755 399 C755 310 673 228 525 228 C421 228 378 279 378 349 L378 349 Z " />
<glyph glyph-name="Cacute" unicode="&#x106;" horiz-adv-x="1517" d="M724 1536 L994 1536 L1308 1846 L975 1846 L724 1536 Z M1094 1008 L1427 1008 L1427 1364 C1427 1364 1180 1474 846 1474 C306 1474 70 1118 70 717 C70 316 306 -40 846 -40 C1123 -40 1286 24 1427 143 L1262 369 C1173 309 1057 249 846 249 C545 249 413 453 413 717 C413 981 545 1185 846 1185 C980 1185 1094 1159 1094 1159 L1094 1008 Z " />
<glyph glyph-name="cacute" unicode="&#x107;" horiz-adv-x="1193" d="M511 1124 L781 1124 L1095 1434 L762 1434 L511 1124 Z M775 657 L1103 657 L1103 1000 C1103 1000 890 1060 656 1060 C288 1060 50 838 50 515 C50 192 288 -30 656 -30 C850 -30 1000 22 1103 134 L946 325 C860 254 761 222 656 222 C483 222 378 336 378 515 C378 694 483 808 656 808 C716 808 775 800 775 800 L775 657 Z " />
<glyph glyph-name="Ccircumflex" unicode="&#x108;" horiz-adv-x="1517" d="M939 1827 L733 1827 L432 1536 L680 1536 L836 1645 L992 1536 L1240 1536 L939 1827 Z M1094 1008 L1427 1008 L1427 1364 C1427 1364 1180 1474 846 1474 C306 1474 70 1118 70 717 C70 316 306 -40 846 -40 C1123 -40 1286 24 1427 143 L1262 369 C1173 309 1057 249 846 249 C545 249 413 453 413 717 C413 981 545 1185 846 1185 C980 1185 1094 1159 1094 1159 L1094 1008 Z " />
<glyph glyph-name="ccircumflex" unicode="&#x109;" horiz-adv-x="1193" d="M732 1434 L526 1434 L225 1143 L473 1143 L629 1252 L785 1143 L1033 1143 L732 1434 Z M775 657 L1103 657 L1103 1000 C1103 1000 890 1060 656 1060 C288 1060 50 838 50 515 C50 192 288 -30 656 -30 C850 -30 1000 22 1103 134 L946 325 C860 254 761 222 656 222 C483 222 378 336 378 515 C378 694 483 808 656 808 C716 808 775 800 775 800 L775 657 Z " />
<glyph glyph-name="Cdotaccent" unicode="&#x10a;" horiz-adv-x="1517" d="M677 1708 C677 1613 754 1536 849 1536 C944 1536 1021 1613 1021 1708 C1021 1803 944 1880 849 1880 C754 1880 677 1803 677 1708 L677 1708 Z M1094 1008 L1427 1008 L1427 1364 C1427 1364 1180 1474 846 1474 C306 1474 70 1118 70 717 C70 316 306 -40 846 -40 C1123 -40 1286 24 1427 143 L1262 369 C1173 309 1057 249 846 249 C545 249 413 453 413 717 C413 981 545 1185 846 1185 C980 1185 1094 1159 1094 1159 L1094 1008 Z " />
<glyph glyph-name="cdotaccent" unicode="&#x10b;" horiz-adv-x="1193" d="M474 1334 C474 1239 551 1162 646 1162 C741 1162 818 1239 818 1334 C818 1429 741 1506 646 1506 C551 1506 474 1429 474 1334 L474 1334 Z M775 657 L1103 657 L1103 1000 C1103 1000 890 1060 656 1060 C288 1060 50 838 50 515 C50 192 288 -30 656 -30 C850 -30 1000 22 1103 134 L946 325 C860 254 761 222 656 222 C483 222 378 336 378 515 C378 694 483 808 656 808 C716 808 775 800 775 800 L775 657 Z " />
<glyph glyph-name="Ccaron" unicode="&#x10c;" horiz-adv-x="1517" d="M1253 1827 L1005 1827 L849 1718 L693 1827 L445 1827 L746 1536 L952 1536 L1253 1827 Z M1094 1008 L1427 1008 L1427 1364 C1427 1364 1180 1474 846 1474 C306 1474 70 1118 70 717 C70 316 306 -40 846 -40 C1123 -40 1286 24 1427 143 L1262 369 C1173 309 1057 249 846 249 C545 249 413 453 413 717 C413 981 545 1185 846 1185 C980 1185 1094 1159 1094 1159 L1094 1008 Z " />
<glyph glyph-name="ccaron" unicode="&#x10d;" horiz-adv-x="1193" d="M1052 1434 L804 1434 L648 1325 L492 1434 L244 1434 L545 1143 L751 1143 L1052 1434 Z M775 657 L1103 657 L1103 1000 C1103 1000 890 1060 656 1060 C288 1060 50 838 50 515 C50 192 288 -30 656 -30 C850 -30 1000 22 1103 134 L946 325 C860 254 761 222 656 222 C483 222 378 336 378 515 C378 694 483 808 656 808 C716 808 775 800 775 800 L775 657 Z " />
<glyph glyph-name="Dcaron" unicode="&#x10e;" horiz-adv-x="1620" d="M1157 1827 L909 1827 L753 1718 L597 1827 L349 1827 L650 1536 L856 1536 L1157 1827 Z M1570 717 C1570 1130 1337 1434 854 1434 L90 1434 L90 1145 L247 1145 L247 289 L90 289 L90 0 L854 0 C1337 0 1570 303 1570 717 L1570 717 Z M580 1145 L854 1145 C1130 1145 1227 939 1227 717 C1227 495 1130 289 854 289 L580 289 L580 1145 Z " />
<glyph glyph-name="dcaron" unicode="&#x10f;" horiz-adv-x="1524" d="M914 0 L1399 0 L1399 252 L1242 252 L1242 1516 L757 1516 L757 1264 L914 1264 L914 894 C853 986 741 1060 576 1060 C270 1060 50 857 50 515 C50 173 270 -30 576 -30 C741 -30 853 44 914 136 L914 0 Z M378 515 C378 684 473 808 646 808 C819 808 914 684 914 515 C914 346 819 222 646 222 C473 222 378 346 378 515 L378 515 Z M1295 1084 L1556 1084 L1655 1516 L1356 1516 L1295 1084 Z " />
<glyph glyph-name="Dcroat" unicode="&#x110;" horiz-adv-x="1683" d="M1633 717 C1633 1130 1400 1434 917 1434 L153 1434 L153 1145 L310 1145 L310 862 L90 862 L90 573 L310 573 L310 289 L153 289 L153 0 L917 0 C1400 0 1633 303 1633 717 L1633 717 Z M643 1145 L917 1145 C1193 1145 1290 939 1290 717 C1290 495 1193 289 917 289 L643 289 L643 573 L936 573 L936 862 L643 862 L643 1145 Z " />
<glyph glyph-name="dcroat" unicode="&#x111;" horiz-adv-x="1499" d="M914 0 L1399 0 L1399 252 L1242 252 L1242 1079 L1469 1079 L1469 1221 L1242 1221 L1242 1516 L757 1516 L757 1264 L914 1264 L914 1221 L612 1221 L612 1079 L914 1079 L914 894 C853 986 741 1060 576 1060 C270 1060 50 857 50 515 C50 173 270 -30 576 -30 C741 -30 853 44 914 136 L914 0 Z M378 515 C378 684 473 808 646 808 C819 808 914 684 914 515 C914 346 819 222 646 222 C473 222 378 346 378 515 L378 515 Z " />
<glyph glyph-name="Emacron" unicode="&#x112;" horiz-adv-x="1503" d="M308 1536 L1182 1536 L1182 1788 L308 1788 L308 1536 Z M90 0 L1413 0 L1413 426 L1080 426 L1080 289 L580 289 L580 587 L1090 587 L1090 876 L580 876 L580 1145 L1070 1145 L1070 1008 L1403 1008 L1403 1434 L90 1434 L90 1145 L247 1145 L247 289 L90 289 L90 0 Z " />
<glyph glyph-name="emacron" unicode="&#x113;" horiz-adv-x="1226" d="M949 306 C885 262 783 212 620 212 C443 212 391 306 391 394 L1170 394 C1210 811 1011 1060 620 1060 C217 1060 50 797 50 515 C50 233 207 -30 620 -30 C849 -30 1005 36 1111 122 L949 306 Z M392 606 C392 696 442 818 620 818 C798 818 848 696 848 606 L392 606 Z M187 1182 L1061 1182 L1061 1434 L187 1434 L187 1182 Z " />
<glyph glyph-name="Ebreve" unicode="&#x114;" horiz-adv-x="1503" d="M745 1536 C993 1536 1101 1684 1119 1802 L927 1802 C903 1743 847 1704 745 1704 C643 1704 587 1743 563 1802 L371 1802 C389 1684 497 1536 745 1536 L745 1536 Z M90 0 L1413 0 L1413 426 L1080 426 L1080 289 L580 289 L580 587 L1090 587 L1090 876 L580 876 L580 1145 L1070 1145 L1070 1008 L1403 1008 L1403 1434 L90 1434 L90 1145 L247 1145 L247 289 L90 289 L90 0 Z " />
<glyph glyph-name="ebreve" unicode="&#x115;" horiz-adv-x="1226" d="M949 306 C885 262 783 212 620 212 C443 212 391 306 391 394 L1170 394 C1210 811 1011 1060 620 1060 C217 1060 50 797 50 515 C50 233 207 -30 620 -30 C849 -30 1005 36 1111 122 L949 306 Z M392 606 C392 696 442 818 620 818 C798 818 848 696 848 606 L392 606 Z M624 1168 C872 1168 980 1316 998 1434 L806 1434 C782 1375 726 1336 624 1336 C522 1336 466 1375 442 1434 L250 1434 C268 1316 376 1168 624 1168 L624 1168 Z " />
<glyph glyph-name="Edotaccent" unicode="&#x116;" horiz-adv-x="1503" d="M573 1708 C573 1613 650 1536 745 1536 C840 1536 917 1613 917 1708 C917 1803 840 1880 745 1880 C650 1880 573 1803 573 1708 L573 1708 Z M90 0 L1413 0 L1413 426 L1080 426 L1080 289 L580 289 L580 587 L1090 587 L1090 876 L580 876 L580 1145 L1070 1145 L1070 1008 L1403 1008 L1403 1434 L90 1434 L90 1145 L247 1145 L247 289 L90 289 L90 0 Z " />
<glyph glyph-name="edotaccent" unicode="&#x117;" horiz-adv-x="1226" d="M949 306 C885 262 783 212 620 212 C443 212 391 306 391 394 L1170 394 C1210 811 1011 1060 620 1060 C217 1060 50 797 50 515 C50 233 207 -30 620 -30 C849 -30 1005 36 1111 122 L949 306 Z M392 606 C392 696 442 818 620 818 C798 818 848 696 848 606 L392 606 Z M452 1334 C452 1239 529 1162 624 1162 C719 1162 796 1239 796 1334 C796 1429 719 1506 624 1506 C529 1506 452 1429 452 1334 L452 1334 Z " />
<glyph glyph-name="Eogonek" unicode="&#x118;" horiz-adv-x="1555" d="M90 0 L1189 0 C1182 -2 1044 -58 1044 -217 C1044 -448 1294 -498 1465 -498 L1465 -251 C1465 -251 1283 -251 1283 -141 C1283 -34 1413 0 1413 0 L1413 426 L1080 426 L1080 289 L580 289 L580 587 L1090 587 L1090 876 L580 876 L580 1145 L1070 1145 L1070 1008 L1403 1008 L1403 1434 L90 1434 L90 1145 L247 1145 L247 289 L90 289 L90 0 Z " />
<glyph glyph-name="eogonek" unicode="&#x119;" horiz-adv-x="1226" d="M949 306 C885 262 783 212 620 212 C443 212 391 306 391 394 L1170 394 C1210 811 1011 1060 620 1060 C217 1060 50 797 50 515 C50 239 200 -17 591 -29 C549 -60 497 -119 497 -217 C497 -448 747 -498 918 -498 L918 -251 C918 -251 736 -251 736 -141 C736 -48 833 -10 859 -2 C965 25 1047 70 1111 122 L949 306 Z M392 606 C392 696 442 818 620 818 C798 818 848 696 848 606 L392 606 Z " />
<glyph glyph-name="Ecaron" unicode="&#x11a;" horiz-adv-x="1503" d="M1149 1827 L901 1827 L745 1718 L589 1827 L341 1827 L642 1536 L848 1536 L1149 1827 Z M90 0 L1413 0 L1413 426 L1080 426 L1080 289 L580 289 L580 587 L1090 587 L1090 876 L580 876 L580 1145 L1070 1145 L1070 1008 L1403 1008 L1403 1434 L90 1434 L90 1145 L247 1145 L247 289 L90 289 L90 0 Z " />
<glyph glyph-name="ecaron" unicode="&#x11b;" horiz-adv-x="1226" d="M949 306 C885 262 783 212 620 212 C443 212 391 306 391 394 L1170 394 C1210 811 1011 1060 620 1060 C217 1060 50 797 50 515 C50 233 207 -30 620 -30 C849 -30 1005 36 1111 122 L949 306 Z M392 606 C392 696 442 818 620 818 C798 818 848 696 848 606 L392 606 Z M1028 1434 L780 1434 L624 1325 L468 1434 L220 1434 L521 1143 L727 1143 L1028 1434 Z " />
<glyph glyph-name="Gcircumflex" unicode="&#x11c;" horiz-adv-x="1538" d="M944 1827 L738 1827 L437 1536 L685 1536 L841 1645 L997 1536 L1245 1536 L944 1827 Z M1115 1008 L1448 1008 L1448 1364 C1448 1364 1190 1474 846 1474 C306 1474 70 1118 70 717 C70 316 306 -40 846 -40 C1092 -40 1302 14 1448 130 L1448 846 L842 846 L842 567 L1115 567 L1115 296 C1070 274 974 249 846 249 C545 249 413 453 413 717 C413 981 545 1185 846 1185 C1000 1185 1115 1158 1115 1158 L1115 1008 Z " />
<glyph glyph-name="gcircumflex" unicode="&#x11d;" horiz-adv-x="1449" d="M729 1434 L523 1434 L222 1143 L470 1143 L626 1252 L782 1143 L1030 1143 L729 1434 Z M1222 0 L1222 778 L1379 778 L1379 1030 L894 1030 L894 894 C833 986 721 1060 556 1060 C250 1060 30 857 30 515 C30 173 250 -30 556 -30 C721 -30 833 44 894 136 L894 0 C894 -195 766 -280 585 -280 C459 -280 349 -256 221 -188 L96 -416 C255 -506 431 -532 585 -532 C898 -532 1223 -422 1222 0 L1222 0 Z M358 515 C358 684 453 808 626 808 C799 808 894 684 894 515 C894 346 799 222 626 222 C453 222 358 346 358 515 L358 515 Z " />
<glyph glyph-name="Gbreve" unicode="&#x11e;" horiz-adv-x="1538" d="M842 1536 C1090 1536 1198 1684 1216 1802 L1024 1802 C1000 1743 944 1704 842 1704 C740 1704 684 1743 660 1802 L468 1802 C486 1684 594 1536 842 1536 L842 1536 Z M1115 1008 L1448 1008 L1448 1364 C1448 1364 1190 1474 846 1474 C306 1474 70 1118 70 717 C70 316 306 -40 846 -40 C1092 -40 1302 14 1448 130 L1448 846 L842 846 L842 567 L1115 567 L1115 296 C1070 274 974 249 846 249 C545 249 413 453 413 717 C413 981 545 1185 846 1185 C1000 1185 1115 1158 1115 1158 L1115 1008 Z " />
<glyph glyph-name="gbreve" unicode="&#x11f;" horiz-adv-x="1469" d="M646 1168 C894 1168 1002 1316 1020 1434 L828 1434 C804 1375 748 1336 646 1336 C544 1336 488 1375 464 1434 L272 1434 C290 1316 398 1168 646 1168 L646 1168 Z M1242 0 L1242 778 L1399 778 L1399 1030 L914 1030 L914 894 C853 986 741 1060 576 1060 C270 1060 50 857 50 515 C50 173 270 -30 576 -30 C741 -30 853 44 914 136 L914 0 C914 -195 786 -280 605 -280 C479 -280 369 -256 241 -188 L116 -416 C275 -506 451 -532 605 -532 C918 -532 1243 -422 1242 0 L1242 0 Z M378 515 C378 684 473 808 646 808 C819 808 914 684 914 515 C914 346 819 222 646 222 C473 222 378 346 378 515 L378 515 Z " />
<glyph glyph-name="Gdotaccent" unicode="&#x120;" horiz-adv-x="1538" d="M679 1708 C679 1613 756 1536 851 1536 C946 1536 1023 1613 1023 1708 C1023 1803 946 1880 851 1880 C756 1880 679 1803 679 1708 L679 1708 Z M1115 1008 L1448 1008 L1448 1364 C1448 1364 1190 1474 846 1474 C306 1474 70 1118 70 717 C70 316 306 -40 846 -40 C1092 -40 1302 14 1448 130 L1448 846 L842 846 L842 567 L1115 567 L1115 296 C1070 274 974 249 846 249 C545 249 413 453 413 717 C413 981 545 1185 846 1185 C1000 1185 1115 1158 1115 1158 L1115 1008 Z " />
<glyph glyph-name="gdotaccent" unicode="&#x121;" horiz-adv-x="1469" d="M474 1334 C474 1239 551 1162 646 1162 C741 1162 818 1239 818 1334 C818 1429 741 1506 646 1506 C551 1506 474 1429 474 1334 L474 1334 Z M1242 0 L1242 778 L1399 778 L1399 1030 L914 1030 L914 894 C853 986 741 1060 576 1060 C270 1060 50 857 50 515 C50 173 270 -30 576 -30 C741 -30 853 44 914 136 L914 0 C914 -195 786 -280 605 -280 C479 -280 369 -256 241 -188 L116 -416 C275 -506 451 -532 605 -532 C918 -532 1243 -422 1242 0 L1242 0 Z M378 515 C378 684 473 808 646 808 C819 808 914 684 914 515 C914 346 819 222 646 222 C473 222 378 346 378 515 L378 515 Z " />
<glyph glyph-name="Gcommaaccent" unicode="&#x122;" horiz-adv-x="1538" d="M538 -532 L799 -532 L990 -108 L691 -108 L538 -532 Z M1115 1008 L1448 1008 L1448 1364 C1448 1364 1190 1474 846 1474 C306 1474 70 1118 70 717 C70 316 306 -40 846 -40 C1092 -40 1302 14 1448 130 L1448 846 L842 846 L842 567 L1115 567 L1115 296 C1070 274 974 249 846 249 C545 249 413 453 413 717 C413 981 545 1185 846 1185 C1000 1185 1115 1158 1115 1158 L1115 1008 Z " />
<glyph glyph-name="gcommaaccent" unicode="&#x123;" horiz-adv-x="1469" d="M936 1556 L675 1556 L484 1132 L783 1132 L936 1556 Z M1242 0 L1242 778 L1399 778 L1399 1030 L914 1030 L914 894 C853 986 741 1060 576 1060 C270 1060 50 857 50 515 C50 173 270 -30 576 -30 C741 -30 853 44 914 136 L914 0 C914 -195 786 -280 605 -280 C479 -280 369 -256 241 -188 L116 -416 C275 -506 451 -532 605 -532 C918 -532 1243 -422 1242 0 L1242 0 Z M378 515 C378 684 473 808 646 808 C819 808 914 684 914 515 C914 346 819 222 646 222 C473 222 378 346 378 515 L378 515 Z " />
<glyph glyph-name="Hcircumflex" unicode="&#x124;" horiz-adv-x="1785" d="M995 1827 L789 1827 L488 1536 L736 1536 L892 1645 L1048 1536 L1296 1536 L995 1827 Z M580 1145 L737 1145 L737 1434 L90 1434 L90 1145 L247 1145 L247 289 L90 289 L90 0 L737 0 L737 289 L580 289 L580 587 L1205 587 L1205 289 L1048 289 L1048 0 L1695 0 L1695 289 L1538 289 L1538 1145 L1695 1145 L1695 1434 L1048 1434 L1048 1145 L1205 1145 L1205 876 L580 876 L580 1145 Z " />
<glyph glyph-name="hcircumflex" unicode="&#x125;" horiz-adv-x="1530" d="M868 1827 L662 1827 L361 1536 L609 1536 L765 1645 L921 1536 L1169 1536 L868 1827 Z M70 1516 L70 1264 L227 1264 L227 252 L70 252 L70 0 L712 0 L712 252 L555 252 L555 534 C555 704 606 808 765 808 C924 808 975 704 975 534 L975 0 L1460 0 L1460 252 L1303 252 L1303 534 C1303 861 1171 1060 830 1060 C704 1060 615 1012 555 921 L555 1516 L70 1516 Z " />
<glyph glyph-name="Hbar" unicode="&#x126;" horiz-adv-x="1839" d="M607 1145 L764 1145 L764 1434 L117 1434 L117 1145 L274 1145 L274 1100 L90 1100 L90 932 L274 932 L274 289 L117 289 L117 0 L764 0 L764 289 L607 289 L607 587 L1232 587 L1232 289 L1075 289 L1075 0 L1722 0 L1722 289 L1565 289 L1565 932 L1749 932 L1749 1100 L1565 1100 L1565 1145 L1722 1145 L1722 1434 L1075 1434 L1075 1145 L1232 1145 L1232 1100 L607 1100 L607 1145 Z M607 876 L607 932 L1232 932 L1232 876 L607 876 Z " />
<glyph glyph-name="hbar" unicode="&#x127;" horiz-adv-x="1600" d="M140 1516 L140 1264 L297 1264 L297 1221 L70 1221 L70 1079 L297 1079 L297 252 L140 252 L140 0 L782 0 L782 252 L625 252 L625 534 C625 704 676 808 835 808 C994 808 1045 704 1045 534 L1045 0 L1530 0 L1530 252 L1373 252 L1373 534 C1373 861 1241 1060 900 1060 C774 1060 685 1012 625 921 L625 1079 L927 1079 L927 1221 L625 1221 L625 1516 L140 1516 Z " />
<glyph glyph-name="Itilde" unicode="&#x128;" horiz-adv-x="883" d="M413 1590 C457 1555 507 1536 568 1536 C832 1536 833 1815 833 1815 L628 1815 C628 1815 620 1737 563 1737 C536 1737 508 1750 470 1783 C426 1818 376 1837 315 1837 C51 1837 50 1558 50 1558 L255 1558 C255 1558 263 1636 320 1636 C347 1636 375 1623 413 1590 L413 1590 Z M608 1145 L765 1145 L765 1434 L118 1434 L118 1145 L275 1145 L275 289 L118 289 L118 0 L765 0 L765 289 L608 289 L608 1145 Z " />
<glyph glyph-name="itilde" unicode="&#x129;" horiz-adv-x="843" d="M393 1207 C437 1172 487 1153 548 1153 C812 1153 813 1432 813 1432 L608 1432 C608 1432 600 1354 543 1354 C516 1354 488 1367 450 1400 C406 1435 356 1454 295 1454 C31 1454 30 1175 30 1175 L235 1175 C235 1175 243 1253 300 1253 C327 1253 355 1240 393 1207 L393 1207 Z M257 778 L257 252 L100 252 L100 0 L742 0 L742 252 L585 252 L585 1030 L100 1030 L100 778 L257 778 Z " />
<glyph glyph-name="uni012A" unicode="&#x12a;" horiz-adv-x="974" d="M50 1536 L924 1536 L924 1788 L50 1788 L50 1536 Z M654 1145 L811 1145 L811 1434 L164 1434 L164 1145 L321 1145 L321 289 L164 289 L164 0 L811 0 L811 289 L654 289 L654 1145 Z " />
<glyph glyph-name="imacron" unicode="&#x12b;" horiz-adv-x="874" d="M0 1182 L874 1182 L874 1434 L0 1434 L0 1182 Z M273 778 L273 252 L116 252 L116 0 L758 0 L758 252 L601 252 L601 1030 L116 1030 L116 778 L273 778 Z " />
<glyph glyph-name="Ibreve" unicode="&#x12c;" horiz-adv-x="848" d="M424 1536 C672 1536 780 1684 798 1802 L606 1802 C582 1743 526 1704 424 1704 C322 1704 266 1743 242 1802 L50 1802 C68 1684 176 1536 424 1536 L424 1536 Z M591 1145 L748 1145 L748 1434 L101 1434 L101 1145 L258 1145 L258 289 L101 289 L101 0 L748 0 L748 289 L591 289 L591 1145 Z " />
<glyph glyph-name="uni012D" unicode="&#x12d;" horiz-adv-x="748" d="M374 1168 C622 1168 730 1316 748 1434 L556 1434 C532 1375 476 1336 374 1336 C272 1336 216 1375 192 1434 L0 1434 C18 1316 126 1168 374 1168 L374 1168 Z M210 778 L210 252 L53 252 L53 0 L695 0 L695 252 L538 252 L538 1030 L53 1030 L53 778 L210 778 Z " />
<glyph glyph-name="Iogonek" unicode="&#x12e;" horiz-adv-x="799" d="M540 1145 L697 1145 L697 1434 L50 1434 L50 1145 L207 1145 L207 289 L50 289 L50 0 L473 0 C466 -2 328 -58 328 -217 C328 -448 578 -498 749 -498 L749 -251 C749 -251 567 -251 567 -141 C567 -34 697 0 697 0 L697 289 L540 289 L540 1145 Z " />
<glyph glyph-name="iogonek" unicode="&#x12f;" horiz-adv-x="794" d="M227 778 L227 252 L70 252 L70 0 L488 0 C481 -2 343 -58 343 -217 C343 -448 593 -498 764 -498 L764 -251 C764 -251 582 -251 582 -141 C582 -34 712 0 712 0 L712 252 L555 252 L555 1030 L70 1030 L70 778 L227 778 Z M219 1334 C219 1239 296 1162 391 1162 C486 1162 563 1239 563 1334 C563 1429 486 1506 391 1506 C296 1506 219 1429 219 1334 L219 1334 Z " />
<glyph glyph-name="Idotaccent" unicode="&#x130;" horiz-adv-x="827" d="M241 1708 C241 1613 318 1536 413 1536 C508 1536 585 1613 585 1708 C585 1803 508 1880 413 1880 C318 1880 241 1803 241 1708 L241 1708 Z M580 1145 L737 1145 L737 1434 L90 1434 L90 1145 L247 1145 L247 289 L90 289 L90 0 L737 0 L737 289 L580 289 L580 1145 Z " />
<glyph glyph-name="dotlessi" unicode="&#x131;" horiz-adv-x="782" d="M227 778 L227 252 L70 252 L70 0 L712 0 L712 252 L555 252 L555 1030 L70 1030 L70 778 L227 778 Z " />
<glyph glyph-name="IJ" unicode="&#x132;" horiz-adv-x="2160" d="M1913 480 L1913 1145 L2070 1145 L2070 1434 L1423 1434 L1423 1145 L1580 1145 L1580 480 C1580 326 1529 249 1389 249 C1264 249 1207 312 1167 403 L859 318 C919 118 1052 -40 1389 -40 C1717 -40 1913 111 1913 480 L1913 480 Z M580 1145 L737 1145 L737 1434 L90 1434 L90 1145 L247 1145 L247 289 L90 289 L90 0 L737 0 L737 289 L580 289 L580 1145 Z " />
<glyph glyph-name="ij" unicode="&#x133;" horiz-adv-x="1389" d="M1291 -60 L1291 1030 L806 1030 L806 778 L963 778 L963 -60 C963 -149 963 -280 840 -280 C793 -280 746 -268 721 -259 L639 -488 C699 -520 782 -532 860 -532 C1185 -532 1291 -363 1291 -60 L1291 -60 Z M227 778 L227 252 L70 252 L70 0 L712 0 L712 252 L555 252 L555 1030 L70 1030 L70 778 L227 778 Z M218 1334 C218 1239 295 1162 390 1162 C485 1162 562 1239 562 1334 C562 1429 485 1506 390 1506 C295 1506 218 1429 218 1334 L218 1334 Z M955 1334 C955 1239 1032 1162 1127 1162 C1222 1162 1299 1239 1299 1334 C1299 1429 1222 1506 1127 1506 C1032 1506 955 1429 955 1334 L955 1334 Z " />
<glyph glyph-name="Jcircumflex" unicode="&#x134;" horiz-adv-x="1436" d="M1045 1827 L839 1827 L538 1536 L786 1536 L942 1645 L1098 1536 L1346 1536 L1045 1827 Z M1104 480 L1104 1145 L1261 1145 L1261 1434 L614 1434 L614 1145 L771 1145 L771 480 C771 326 720 249 580 249 C455 249 398 312 358 403 L50 318 C110 118 243 -40 580 -40 C908 -40 1104 111 1104 480 L1104 480 Z " />
<glyph glyph-name="jcircumflex" unicode="&#x135;" horiz-adv-x="705" d="M444 1434 L238 1434 L-63 1143 L185 1143 L341 1252 L497 1143 L745 1143 L444 1434 Z M502 -60 L502 1030 L17 1030 L17 778 L174 778 L174 -60 C174 -149 174 -280 51 -280 C4 -280 -43 -268 -68 -259 L-150 -488 C-90 -520 -7 -532 71 -532 C396 -532 502 -363 502 -60 L502 -60 Z " />
<glyph glyph-name="Kcommaaccent" unicode="&#x136;" horiz-adv-x="1619" d="M525 -532 L786 -532 L977 -108 L678 -108 L525 -532 Z M1382 1145 L1519 1145 L1519 1434 L872 1434 L872 1145 L963 1145 L580 840 L580 1145 L737 1145 L737 1434 L90 1434 L90 1145 L247 1145 L247 289 L90 289 L90 0 L737 0 L737 289 L580 289 L580 490 L724 607 L1172 0 L1529 0 L1529 289 L1372 289 L979 816 L1382 1145 Z " />
<glyph glyph-name="kcommaaccent" unicode="&#x137;" horiz-adv-x="1405" d="M418 -532 L679 -532 L870 -108 L571 -108 L418 -532 Z M1319 778 L1319 1030 L677 1030 L677 778 L785 778 L555 617 L555 1516 L70 1516 L70 1264 L227 1264 L227 252 L70 252 L70 0 L712 0 L712 252 L555 252 L555 332 L689 428 L996 0 L1335 0 L1335 252 L1178 252 L930 601 L1176 778 L1319 778 Z " />
<glyph glyph-name="kgreenlandic" unicode="&#x138;" horiz-adv-x="1617" d="M580 1145 L737 1145 L737 1434 L90 1434 L90 1145 L247 1145 L247 289 L90 289 L90 0 L737 0 L737 289 L580 289 L580 529 L672 609 C807 532 1002 276 1090 0 L1527 0 L1527 289 L1375 289 C1244 536 1088 722 918 816 C1133 998 1281 1119 1464 1119 L1464 1434 C1066 1437 849 1157 580 923 L580 1145 Z " />
<glyph glyph-name="Lacute" unicode="&#x139;" horiz-adv-x="1388" d="M277 1536 L547 1536 L861 1846 L528 1846 L277 1536 Z M90 0 L1298 0 L1298 426 L965 426 L965 289 L580 289 L580 1145 L737 1145 L737 1434 L90 1434 L90 1145 L247 1145 L247 289 L90 289 L90 0 Z " />
<glyph glyph-name="lacute" unicode="&#x13a;" horiz-adv-x="827" d="M213 1596 L483 1596 L797 1906 L464 1906 L213 1596 Z M187 1264 L187 252 L30 252 L30 0 L672 0 L672 252 L515 252 L515 1516 L30 1516 L30 1264 L187 1264 Z " />
<glyph glyph-name="Lcommaaccent" unicode="&#x13b;" horiz-adv-x="1388" d="M405 -532 L666 -532 L857 -108 L558 -108 L405 -532 Z M90 0 L1298 0 L1298 426 L965 426 L965 289 L580 289 L580 1145 L737 1145 L737 1434 L90 1434 L90 1145 L247 1145 L247 289 L90 289 L90 0 Z " />
<glyph glyph-name="lcommaaccent" unicode="&#x13c;" horiz-adv-x="702" d="M50 -532 L311 -532 L502 -108 L203 -108 L50 -532 Z M187 1264 L187 252 L30 252 L30 0 L672 0 L672 252 L515 252 L515 1516 L30 1516 L30 1264 L187 1264 Z " />
<glyph glyph-name="Lcaron" unicode="&#x13d;" horiz-adv-x="1388" d="M90 0 L1298 0 L1298 426 L965 426 L965 289 L580 289 L580 1145 L737 1145 L737 1434 L90 1434 L90 1145 L247 1145 L247 289 L90 289 L90 0 Z M788 1002 L1049 1002 L1148 1434 L849 1434 L788 1002 Z " />
<glyph glyph-name="lcaron" unicode="&#x13e;" horiz-adv-x="966" d="M187 1264 L187 252 L30 252 L30 0 L672 0 L672 252 L515 252 L515 1516 L30 1516 L30 1264 L187 1264 Z M568 1084 L829 1084 L928 1516 L629 1516 L568 1084 Z " />
<glyph glyph-name="Ldot" unicode="&#x13f;" horiz-adv-x="1388" d="M937 773 C937 678 1015 600 1110 600 C1205 600 1283 678 1283 773 C1283 868 1205 946 1110 946 C1015 946 937 868 937 773 L937 773 Z M90 0 L1298 0 L1298 426 L965 426 L965 289 L580 289 L580 1145 L737 1145 L737 1434 L90 1434 L90 1145 L247 1145 L247 289 L90 289 L90 0 Z " />
<glyph glyph-name="ldot" unicode="&#x140;" horiz-adv-x="969" d="M227 1264 L227 252 L70 252 L70 0 L712 0 L712 252 L555 252 L555 1516 L70 1516 L70 1264 L227 1264 Z M693 803 C693 708 771 630 866 630 C961 630 1039 708 1039 803 C1039 898 961 976 866 976 C771 976 693 898 693 803 L693 803 Z " />
<glyph glyph-name="Lslash" unicode="&#x141;" horiz-adv-x="1452" d="M154 0 L1362 0 L1362 426 L1029 426 L1029 289 L644 289 L644 683 L865 809 L865 1098 L644 972 L644 1145 L801 1145 L801 1434 L154 1434 L154 1145 L311 1145 L311 782 L90 656 L90 367 L311 493 L311 289 L154 289 L154 0 Z " />
<glyph glyph-name="lslash" unicode="&#x142;" horiz-adv-x="915" d="M293 1264 L293 859 L70 734 L70 445 L293 570 L293 252 L136 252 L136 0 L778 0 L778 252 L621 252 L621 753 L845 879 L845 1168 L621 1042 L621 1516 L136 1516 L136 1264 L293 1264 Z " />
<glyph glyph-name="Nacute" unicode="&#x143;" horiz-adv-x="1807" d="M728 1536 L998 1536 L1312 1846 L979 1846 L728 1536 Z M90 0 L737 0 L737 289 L580 289 L580 956 L1138 0 L1560 0 L1560 1145 L1717 1145 L1717 1434 L1070 1434 L1070 1145 L1227 1145 L1227 478 L669 1434 L90 1434 L90 1145 L247 1145 L247 289 L90 289 L90 0 Z " />
<glyph glyph-name="nacute" unicode="&#x144;" horiz-adv-x="1530" d="M598 1124 L868 1124 L1182 1434 L849 1434 L598 1124 Z M70 1030 L70 778 L227 778 L227 252 L70 252 L70 0 L712 0 L712 252 L555 252 L555 534 C555 704 606 808 765 808 C924 808 975 704 975 534 L975 0 L1460 0 L1460 252 L1303 252 L1303 534 C1303 861 1171 1060 830 1060 C704 1060 615 1012 555 921 L555 1030 L70 1030 Z " />
<glyph glyph-name="Ncommaaccent" unicode="&#x145;" horiz-adv-x="1807" d="M615 -532 L876 -532 L1067 -108 L768 -108 L615 -532 Z M90 0 L737 0 L737 289 L580 289 L580 956 L1138 0 L1560 0 L1560 1145 L1717 1145 L1717 1434 L1070 1434 L1070 1145 L1227 1145 L1227 478 L669 1434 L90 1434 L90 1145 L247 1145 L247 289 L90 289 L90 0 Z " />
<glyph glyph-name="ncommaaccent" unicode="&#x146;" horiz-adv-x="1530" d="M467 -532 L728 -532 L919 -108 L620 -108 L467 -532 Z M70 1030 L70 778 L227 778 L227 252 L70 252 L70 0 L712 0 L712 252 L555 252 L555 534 C555 704 606 808 765 808 C924 808 975 704 975 534 L975 0 L1460 0 L1460 252 L1303 252 L1303 534 C1303 861 1171 1060 830 1060 C704 1060 615 1012 555 921 L555 1030 L70 1030 Z " />
<glyph glyph-name="Ncaron" unicode="&#x147;" horiz-adv-x="1807" d="M1307 1827 L1059 1827 L903 1718 L747 1827 L499 1827 L800 1536 L1006 1536 L1307 1827 Z M90 0 L737 0 L737 289 L580 289 L580 956 L1138 0 L1560 0 L1560 1145 L1717 1145 L1717 1434 L1070 1434 L1070 1145 L1227 1145 L1227 478 L669 1434 L90 1434 L90 1145 L247 1145 L247 289 L90 289 L90 0 Z " />
<glyph glyph-name="ncaron" unicode="&#x148;" horiz-adv-x="1530" d="M1169 1434 L921 1434 L765 1325 L609 1434 L361 1434 L662 1143 L868 1143 L1169 1434 Z M70 1030 L70 778 L227 778 L227 252 L70 252 L70 0 L712 0 L712 252 L555 252 L555 534 C555 704 606 808 765 808 C924 808 975 704 975 534 L975 0 L1460 0 L1460 252 L1303 252 L1303 534 C1303 861 1171 1060 830 1060 C704 1060 615 1012 555 921 L555 1030 L70 1030 Z " />
<glyph glyph-name="napostrophe" unicode="&#x149;" horiz-adv-x="1767" d="M-30 1010 L231 1010 L422 1434 L123 1434 L-30 1010 Z M307 1030 L307 778 L464 778 L464 252 L307 252 L307 0 L949 0 L949 252 L792 252 L792 534 C792 704 843 808 1002 808 C1161 808 1212 704 1212 534 L1212 0 L1697 0 L1697 252 L1540 252 L1540 534 C1540 861 1408 1060 1067 1060 C941 1060 852 1012 792 921 L792 1030 L307 1030 Z " />
<glyph glyph-name="Eng" unicode="&#x14a;" horiz-adv-x="1807" d="M90 0 L737 0 L737 289 L580 289 L580 956 L1138 0 L1227 0 C1227 -156 1196 -243 1076 -243 C981 -243 932 -204 884 -149 L646 -316 C746 -476 875 -532 1076 -532 C1374 -532 1560 -369 1560 0 L1560 1145 L1717 1145 L1717 1434 L1070 1434 L1070 1145 L1227 1145 L1227 478 L669 1434 L90 1434 L90 1145 L247 1145 L247 289 L90 289 L90 0 Z " />
<glyph glyph-name="eng" unicode="&#x14b;" horiz-adv-x="1393" d="M70 1030 L70 778 L227 778 L227 252 L70 252 L70 0 L712 0 L712 252 L555 252 L555 534 C555 704 606 808 765 808 C924 808 975 704 975 534 L975 -60 C975 -149 975 -280 852 -280 C805 -280 758 -268 733 -259 L651 -488 C711 -520 794 -532 872 -532 C1197 -532 1303 -363 1303 -60 L1303 534 C1303 861 1171 1060 830 1060 C704 1060 615 1012 555 921 L555 1030 L70 1030 Z " />
<glyph glyph-name="Omacron" unicode="&#x14c;" horiz-adv-x="1692" d="M846 1474 C306 1474 70 1118 70 717 C70 316 306 -40 846 -40 C1386 -40 1622 316 1622 717 C1622 1118 1386 1474 846 1474 L846 1474 Z M846 1185 C1147 1185 1279 981 1279 717 C1279 453 1147 249 846 249 C545 249 413 453 413 717 C413 981 545 1185 846 1185 L846 1185 Z M409 1537 L1283 1537 L1283 1789 L409 1789 L409 1537 Z " />
<glyph glyph-name="omacron" unicode="&#x14d;" horiz-adv-x="1312" d="M656 -30 C1024 -30 1262 193 1262 515 C1262 838 1024 1060 656 1060 C288 1060 50 838 50 515 C50 193 288 -30 656 -30 L656 -30 Z M656 222 C473 222 378 346 378 515 C378 684 473 808 656 808 C839 808 934 684 934 515 C934 346 839 222 656 222 L656 222 Z M219 1182 L1093 1182 L1093 1434 L219 1434 L219 1182 Z " />
<glyph glyph-name="Obreve" unicode="&#x14e;" horiz-adv-x="1692" d="M846 1474 C306 1474 70 1118 70 717 C70 316 306 -40 846 -40 C1386 -40 1622 316 1622 717 C1622 1118 1386 1474 846 1474 L846 1474 Z M846 1185 C1147 1185 1279 981 1279 717 C1279 453 1147 249 846 249 C545 249 413 453 413 717 C413 981 545 1185 846 1185 L846 1185 Z M846 1536 C1094 1536 1202 1684 1220 1802 L1028 1802 C1004 1743 948 1704 846 1704 C744 1704 688 1743 664 1802 L472 1802 C490 1684 598 1536 846 1536 L846 1536 Z " />
<glyph glyph-name="obreve" unicode="&#x14f;" horiz-adv-x="1312" d="M656 -30 C1024 -30 1262 193 1262 515 C1262 838 1024 1060 656 1060 C288 1060 50 838 50 515 C50 193 288 -30 656 -30 L656 -30 Z M656 222 C473 222 378 346 378 515 C378 684 473 808 656 808 C839 808 934 684 934 515 C934 346 839 222 656 222 L656 222 Z M656 1168 C904 1168 1012 1316 1030 1434 L838 1434 C814 1375 758 1336 656 1336 C554 1336 498 1375 474 1434 L282 1434 C300 1316 408 1168 656 1168 L656 1168 Z " />
<glyph glyph-name="Ohungarumlaut" unicode="&#x150;" horiz-adv-x="1692" d="M846 1474 C306 1474 70 1118 70 717 C70 316 306 -40 846 -40 C1386 -40 1622 316 1622 717 C1622 1118 1386 1474 846 1474 L846 1474 Z M846 1185 C1147 1185 1279 981 1279 717 C1279 453 1147 249 846 249 C545 249 413 453 413 717 C413 981 545 1185 846 1185 L846 1185 Z M569 1536 L780 1536 L929 1878 L660 1878 L569 1536 Z M913 1536 L1124 1536 L1273 1878 L1004 1878 L913 1536 Z " />
<glyph glyph-name="ohungarumlaut" unicode="&#x151;" horiz-adv-x="1312" d="M656 -30 C1024 -30 1262 193 1262 515 C1262 838 1024 1060 656 1060 C288 1060 50 838 50 515 C50 193 288 -30 656 -30 L656 -30 Z M656 222 C473 222 378 346 378 515 C378 684 473 808 656 808 C839 808 934 684 934 515 C934 346 839 222 656 222 L656 222 Z M391 1174 L602 1174 L751 1516 L482 1516 L391 1174 Z M735 1174 L946 1174 L1095 1516 L826 1516 L735 1174 Z " />
<glyph glyph-name="OE" unicode="&#x152;" horiz-adv-x="2348" d="M1112 1434 C1028 1459 933 1474 826 1474 C286 1474 50 1118 50 717 C50 316 286 -40 826 -40 C933 -40 1028 -25 1112 0 L2278 0 L2278 426 L1945 426 L1945 289 L1445 289 L1445 587 L1935 587 L1935 876 L1445 876 L1445 1145 L1935 1145 L1935 1008 L2268 1008 L2268 1434 L1112 1434 Z M826 1185 C949 1185 1043 1151 1112 1093 L1112 341 C1043 283 948 249 826 249 C525 249 393 453 393 717 C393 981 525 1185 826 1185 L826 1185 Z " />
<glyph glyph-name="oe" unicode="&#x153;" horiz-adv-x="2110" d="M1833 306 C1769 262 1667 212 1504 212 C1327 212 1275 306 1275 394 L2054 394 C2094 811 1895 1060 1504 1060 C1317 1060 1182 1003 1089 915 C984 1007 835 1060 656 1060 C288 1060 50 838 50 515 C50 193 288 -30 656 -30 C834 -30 982 22 1087 113 C1178 25 1314 -30 1504 -30 C1733 -30 1889 36 1995 122 L1833 306 Z M656 222 C473 222 378 346 378 515 C378 684 473 808 656 808 C839 808 934 684 934 515 C934 346 839 222 656 222 L656 222 Z M1276 606 C1276 696 1326 818 1504 818 C1682 818 1732 696 1732 606 L1276 606 Z " />
<glyph glyph-name="Racute" unicode="&#x154;" horiz-adv-x="1557" d="M601 1536 L871 1536 L1185 1846 L852 1846 L601 1536 Z M737 0 L737 289 L580 289 L580 534 L758 534 L1103 0 L1467 0 L1467 289 L1310 289 L1127 557 C1286 610 1453 745 1453 969 C1453 1232 1278 1434 889 1434 L90 1434 L90 1145 L247 1145 L247 289 L90 289 L90 0 L737 0 Z M889 1145 C1062 1145 1116 1073 1116 969 C1116 865 1062 793 889 793 L580 793 L580 1145 L889 1145 Z " />
<glyph glyph-name="racute" unicode="&#x155;" horiz-adv-x="1075" d="M450 1124 L720 1124 L1034 1434 L701 1434 L450 1124 Z M1075 1012 C1010 1043 928 1060 830 1060 C704 1060 615 1012 555 921 L555 1030 L70 1030 L70 778 L227 778 L227 252 L70 252 L70 0 L712 0 L712 252 L555 252 L555 534 C555 704 606 808 765 808 C838 808 898 785 931 764 L1075 1012 Z " />
<glyph glyph-name="Rcommaaccent" unicode="&#x156;" horiz-adv-x="1557" d="M500 -532 L761 -532 L952 -108 L653 -108 L500 -532 Z M737 0 L737 289 L580 289 L580 534 L758 534 L1103 0 L1467 0 L1467 289 L1310 289 L1127 557 C1286 610 1453 745 1453 969 C1453 1232 1278 1434 889 1434 L90 1434 L90 1145 L247 1145 L247 289 L90 289 L90 0 L737 0 Z M889 1145 C1062 1145 1116 1073 1116 969 C1116 865 1062 793 889 793 L580 793 L580 1145 L889 1145 Z " />
<glyph glyph-name="rcommaaccent" unicode="&#x157;" horiz-adv-x="1075" d="M85 -532 L346 -532 L537 -108 L238 -108 L85 -532 Z M1075 1012 C1010 1043 928 1060 830 1060 C704 1060 615 1012 555 921 L555 1030 L70 1030 L70 778 L227 778 L227 252 L70 252 L70 0 L712 0 L712 252 L555 252 L555 534 C555 704 606 808 765 808 C838 808 898 785 931 764 L1075 1012 Z " />
<glyph glyph-name="Rcaron" unicode="&#x158;" horiz-adv-x="1557" d="M1127 1827 L879 1827 L723 1718 L567 1827 L319 1827 L620 1536 L826 1536 L1127 1827 Z M737 0 L737 289 L580 289 L580 534 L758 534 L1103 0 L1467 0 L1467 289 L1310 289 L1127 557 C1286 610 1453 745 1453 969 C1453 1232 1278 1434 889 1434 L90 1434 L90 1145 L247 1145 L247 289 L90 289 L90 0 L737 0 Z M889 1145 C1062 1145 1116 1073 1116 969 C1116 865 1062 793 889 793 L580 793 L580 1145 L889 1145 Z " />
<glyph glyph-name="rcaron" unicode="&#x159;" horiz-adv-x="1075" d="M1011 1434 L763 1434 L607 1325 L451 1434 L203 1434 L504 1143 L710 1143 L1011 1434 Z M1075 1012 C1010 1043 928 1060 830 1060 C704 1060 615 1012 555 921 L555 1030 L70 1030 L70 778 L227 778 L227 252 L70 252 L70 0 L712 0 L712 252 L555 252 L555 534 C555 704 606 808 765 808 C838 808 898 785 931 764 L1075 1012 Z " />
<glyph glyph-name="Sacute" unicode="&#x15a;" horiz-adv-x="1390" d="M536 1536 L806 1536 L1120 1846 L787 1846 L536 1536 Z M889 1008 L1222 1008 L1222 1374 C1222 1374 996 1474 666 1474 C254 1474 110 1266 110 1046 C110 815 271 651 651 572 C846 532 943 494 943 398 C943 304 867 249 666 249 C534 249 443 287 443 287 L443 439 L110 439 L110 132 C110 132 266 -40 666 -40 C1038 -40 1280 99 1280 398 C1280 667 1077 792 714 868 C540 904 447 949 447 1046 C447 1133 520 1185 666 1185 C774 1185 889 1165 889 1165 L889 1008 Z " />
<glyph glyph-name="sacute" unicode="&#x15b;" horiz-adv-x="1121" d="M398 1124 L668 1124 L982 1434 L649 1434 L398 1124 Z M398 332 L70 332 L70 95 C70 95 200 -30 544 -30 C818 -30 1051 57 1051 296 C1051 521 879 605 581 647 C469 663 398 684 398 736 C398 785 446 808 544 808 C612 808 672 799 672 799 L672 707 L1000 707 L1000 990 C1000 990 810 1060 544 1060 C240 1060 70 945 70 736 C70 550 212 443 527 395 C666 374 723 357 723 296 C723 238 662 222 544 222 C460 222 398 240 398 240 L398 332 Z " />
<glyph glyph-name="Scircumflex" unicode="&#x15c;" horiz-adv-x="1390" d="M791 1827 L585 1827 L284 1536 L532 1536 L688 1645 L844 1536 L1092 1536 L791 1827 Z M889 1008 L1222 1008 L1222 1374 C1222 1374 996 1474 666 1474 C254 1474 110 1266 110 1046 C110 815 271 651 651 572 C846 532 943 494 943 398 C943 304 867 249 666 249 C534 249 443 287 443 287 L443 439 L110 439 L110 132 C110 132 266 -40 666 -40 C1038 -40 1280 99 1280 398 C1280 667 1077 792 714 868 C540 904 447 949 447 1046 C447 1133 520 1185 666 1185 C774 1185 889 1165 889 1165 L889 1008 Z " />
<glyph glyph-name="scircumflex" unicode="&#x15d;" horiz-adv-x="1121" d="M661 1434 L455 1434 L154 1143 L402 1143 L558 1252 L714 1143 L962 1143 L661 1434 Z M398 332 L70 332 L70 95 C70 95 200 -30 544 -30 C818 -30 1051 57 1051 296 C1051 521 879 605 581 647 C469 663 398 684 398 736 C398 785 446 808 544 808 C612 808 672 799 672 799 L672 707 L1000 707 L1000 990 C1000 990 810 1060 544 1060 C240 1060 70 945 70 736 C70 550 212 443 527 395 C666 374 723 357 723 296 C723 238 662 222 544 222 C460 222 398 240 398 240 L398 332 Z " />
<glyph glyph-name="Scedilla" unicode="&#x15e;" horiz-adv-x="1390" d="M889 1008 L1222 1008 L1222 1374 C1222 1374 996 1474 666 1474 C254 1474 110 1266 110 1046 C110 815 271 651 651 572 C846 532 943 494 943 398 C943 304 867 249 666 249 C534 249 443 287 443 287 L443 439 L110 439 L110 132 C110 132 237 -8 557 -35 L486 -260 C590 -244 765 -223 754 -316 C743 -437 543 -400 472 -370 L419 -497 C579 -573 917 -583 937 -323 C947 -190 842 -128 718 -125 L746 -37 C1072 -18 1280 121 1280 398 C1280 667 1077 792 714 868 C540 904 447 949 447 1046 C447 1133 520 1185 666 1185 C774 1185 889 1165 889 1165 L889 1008 Z " />
<glyph glyph-name="scedilla" unicode="&#x15f;" horiz-adv-x="1121" d="M398 332 L70 332 L70 95 C70 95 171 -2 430 -25 L356 -260 C460 -244 635 -223 624 -316 C613 -437 413 -400 342 -370 L289 -497 C449 -573 787 -583 807 -323 C817 -190 712 -128 588 -125 L618 -28 C858 -13 1051 79 1051 296 C1051 521 879 605 581 647 C469 663 398 684 398 736 C398 785 446 808 544 808 C612 808 672 799 672 799 L672 707 L1000 707 L1000 990 C1000 990 810 1060 544 1060 C240 1060 70 945 70 736 C70 550 212 443 527 395 C666 374 723 357 723 296 C723 238 662 222 544 222 C460 222 398 240 398 240 L398 332 Z " />
<glyph glyph-name="Scaron" unicode="&#x160;" horiz-adv-x="1390" d="M1071 1827 L823 1827 L667 1718 L511 1827 L263 1827 L564 1536 L770 1536 L1071 1827 Z M889 1008 L1222 1008 L1222 1374 C1222 1374 996 1474 666 1474 C254 1474 110 1266 110 1046 C110 815 271 651 651 572 C846 532 943 494 943 398 C943 304 867 249 666 249 C534 249 443 287 443 287 L443 439 L110 439 L110 132 C110 132 266 -40 666 -40 C1038 -40 1280 99 1280 398 C1280 667 1077 792 714 868 C540 904 447 949 447 1046 C447 1133 520 1185 666 1185 C774 1185 889 1165 889 1165 L889 1008 Z " />
<glyph glyph-name="scaron" unicode="&#x161;" horiz-adv-x="1121" d="M946 1434 L698 1434 L542 1325 L386 1434 L138 1434 L439 1143 L645 1143 L946 1434 Z M398 332 L70 332 L70 95 C70 95 200 -30 544 -30 C818 -30 1051 57 1051 296 C1051 521 879 605 581 647 C469 663 398 684 398 736 C398 785 446 808 544 808 C612 808 672 799 672 799 L672 707 L1000 707 L1000 990 C1000 990 810 1060 544 1060 C240 1060 70 945 70 736 C70 550 212 443 527 395 C666 374 723 357 723 296 C723 238 662 222 544 222 C460 222 398 240 398 240 L398 332 Z " />
<glyph glyph-name="Tcommaaccent" unicode="&#x162;" horiz-adv-x="1545" d="M468 -532 L729 -532 L920 -108 L621 -108 L468 -532 Z M1455 1434 L90 1434 L90 1008 L423 1008 L423 1145 L606 1145 L606 289 L449 289 L449 0 L1096 0 L1096 289 L939 289 L939 1145 L1122 1145 L1122 1008 L1455 1008 L1455 1434 Z " />
<glyph glyph-name="tcommaaccent" unicode="&#x163;" horiz-adv-x="921" d="M30 778 L224 778 L224 428 C224 125 321 -30 658 -30 C729 -30 825 -14 891 13 L821 247 C777 233 734 222 678 222 C565 222 552 324 552 428 L552 778 L842 778 L842 1030 L552 1030 L552 1329 L224 1329 L224 1030 L30 1030 L30 778 Z M287 -532 L548 -532 L739 -108 L440 -108 L287 -532 Z " />
<glyph glyph-name="Tcaron" unicode="&#x164;" horiz-adv-x="1545" d="M1176 1827 L928 1827 L772 1718 L616 1827 L368 1827 L669 1536 L875 1536 L1176 1827 Z M1455 1434 L90 1434 L90 1008 L423 1008 L423 1145 L606 1145 L606 289 L449 289 L449 0 L1096 0 L1096 289 L939 289 L939 1145 L1122 1145 L1122 1008 L1455 1008 L1455 1434 Z " />
<glyph glyph-name="tcaron" unicode="&#x165;" horiz-adv-x="1304" d="M30 778 L224 778 L224 428 C224 125 321 -30 658 -30 C729 -30 825 -14 891 13 L821 247 C777 233 734 222 678 222 C565 222 552 324 552 428 L552 778 L842 778 L842 1030 L552 1030 L552 1329 L224 1329 L224 1030 L30 1030 L30 778 Z M842 1084 L1103 1084 L1202 1516 L903 1516 L842 1084 Z " />
<glyph glyph-name="Tbar" unicode="&#x166;" horiz-adv-x="1545" d="M1455 1434 L90 1434 L90 1008 L423 1008 L423 1145 L606 1145 L606 890 L323 890 L323 601 L606 601 L606 289 L449 289 L449 0 L1096 0 L1096 289 L939 289 L939 601 L1222 601 L1222 890 L939 890 L939 1145 L1122 1145 L1122 1008 L1455 1008 L1455 1434 Z " />
<glyph glyph-name="tbar" unicode="&#x167;" horiz-adv-x="921" d="M30 419 L224 419 C226 122 324 -30 658 -30 C729 -30 825 -14 891 13 L821 247 C777 233 734 222 678 222 C568 222 553 318 552 419 L842 419 L842 671 L552 671 L552 778 L842 778 L842 1030 L552 1030 L552 1329 L224 1329 L224 1030 L30 1030 L30 778 L224 778 L224 671 L30 671 L30 419 Z " />
<glyph glyph-name="Utilde" unicode="&#x168;" horiz-adv-x="1771" d="M857 1590 C901 1555 951 1536 1012 1536 C1276 1536 1277 1815 1277 1815 L1072 1815 C1072 1815 1064 1737 1007 1737 C980 1737 952 1750 914 1783 C870 1818 820 1837 759 1837 C495 1837 494 1558 494 1558 L699 1558 C699 1558 707 1636 764 1636 C791 1636 819 1623 857 1590 L857 1590 Z M580 651 L580 1145 L737 1145 L737 1434 L90 1434 L90 1145 L247 1145 L247 651 C247 231 427 -40 886 -40 C1344 -40 1524 231 1524 651 L1524 1145 L1681 1145 L1681 1434 L1034 1434 L1034 1145 L1191 1145 L1191 651 C1191 393 1128 249 886 249 C642 249 580 393 580 651 L580 651 Z " />
<glyph glyph-name="utilde" unicode="&#x169;" horiz-adv-x="1530" d="M737 1207 C781 1172 831 1153 892 1153 C1156 1153 1157 1432 1157 1432 L952 1432 C952 1432 944 1354 887 1354 C860 1354 832 1367 794 1400 C750 1435 700 1454 639 1454 C375 1454 374 1175 374 1175 L579 1175 C579 1175 587 1253 644 1253 C671 1253 699 1240 737 1207 L737 1207 Z M975 0 L1460 0 L1460 252 L1303 252 L1303 1030 L818 1030 L818 778 L975 778 L975 496 C975 326 924 222 765 222 C606 222 555 326 555 496 L555 1030 L70 1030 L70 778 L227 778 L227 496 C227 169 359 -30 700 -30 C826 -30 915 18 975 109 L975 0 Z " />
<glyph glyph-name="Umacron" unicode="&#x16a;" horiz-adv-x="1771" d="M448 1536 L1322 1536 L1322 1788 L448 1788 L448 1536 Z M580 651 L580 1145 L737 1145 L737 1434 L90 1434 L90 1145 L247 1145 L247 651 C247 231 427 -40 886 -40 C1344 -40 1524 231 1524 651 L1524 1145 L1681 1145 L1681 1434 L1034 1434 L1034 1145 L1191 1145 L1191 651 C1191 393 1128 249 886 249 C642 249 580 393 580 651 L580 651 Z " />
<glyph glyph-name="umacron" unicode="&#x16b;" horiz-adv-x="1530" d="M327 1182 L1201 1182 L1201 1434 L327 1434 L327 1182 Z M975 0 L1460 0 L1460 252 L1303 252 L1303 1030 L818 1030 L818 778 L975 778 L975 496 C975 326 924 222 765 222 C606 222 555 326 555 496 L555 1030 L70 1030 L70 778 L227 778 L227 496 C227 169 359 -30 700 -30 C826 -30 915 18 975 109 L975 0 Z " />
<glyph glyph-name="Ubreve" unicode="&#x16c;" horiz-adv-x="1771" d="M885 1536 C1133 1536 1241 1684 1259 1802 L1067 1802 C1043 1743 987 1704 885 1704 C783 1704 727 1743 703 1802 L511 1802 C529 1684 637 1536 885 1536 L885 1536 Z M580 651 L580 1145 L737 1145 L737 1434 L90 1434 L90 1145 L247 1145 L247 651 C247 231 427 -40 886 -40 C1344 -40 1524 231 1524 651 L1524 1145 L1681 1145 L1681 1434 L1034 1434 L1034 1145 L1191 1145 L1191 651 C1191 393 1128 249 886 249 C642 249 580 393 580 651 L580 651 Z " />
<glyph glyph-name="ubreve" unicode="&#x16d;" horiz-adv-x="1530" d="M765 1168 C1013 1168 1121 1316 1139 1434 L947 1434 C923 1375 867 1336 765 1336 C663 1336 607 1375 583 1434 L391 1434 C409 1316 517 1168 765 1168 L765 1168 Z M975 0 L1460 0 L1460 252 L1303 252 L1303 1030 L818 1030 L818 778 L975 778 L975 496 C975 326 924 222 765 222 C606 222 555 326 555 496 L555 1030 L70 1030 L70 778 L227 778 L227 496 C227 169 359 -30 700 -30 C826 -30 915 18 975 109 L975 0 Z " />
<glyph glyph-name="Uring" unicode="&#x16e;" horiz-adv-x="1771" d="M639 1782 C639 1646 749 1536 885 1536 C1021 1536 1131 1646 1131 1782 C1131 1918 1021 2028 885 2028 C749 2028 639 1918 639 1782 L639 1782 Z M801 1782 C801 1828 839 1866 885 1866 C931 1866 969 1828 969 1782 C969 1736 931 1698 885 1698 C839 1698 801 1736 801 1782 L801 1782 Z M580 651 L580 1145 L737 1145 L737 1434 L90 1434 L90 1145 L247 1145 L247 651 C247 231 427 -40 886 -40 C1344 -40 1524 231 1524 651 L1524 1145 L1681 1145 L1681 1434 L1034 1434 L1034 1145 L1191 1145 L1191 651 C1191 393 1128 249 886 249 C642 249 580 393 580 651 L580 651 Z " />
<glyph glyph-name="uring" unicode="&#x16f;" horiz-adv-x="1530" d="M519 1370 C519 1234 629 1124 765 1124 C901 1124 1011 1234 1011 1370 C1011 1506 901 1616 765 1616 C629 1616 519 1506 519 1370 L519 1370 Z M681 1370 C681 1416 719 1454 765 1454 C811 1454 849 1416 849 1370 C849 1324 811 1286 765 1286 C719 1286 681 1324 681 1370 L681 1370 Z M975 0 L1460 0 L1460 252 L1303 252 L1303 1030 L818 1030 L818 778 L975 778 L975 496 C975 326 924 222 765 222 C606 222 555 326 555 496 L555 1030 L70 1030 L70 778 L227 778 L227 496 C227 169 359 -30 700 -30 C826 -30 915 18 975 109 L975 0 Z " />
<glyph glyph-name="Uhungarumlaut" unicode="&#x170;" horiz-adv-x="1771" d="M602 1536 L813 1536 L962 1878 L693 1878 L602 1536 Z M946 1536 L1157 1536 L1306 1878 L1037 1878 L946 1536 Z M580 651 L580 1145 L737 1145 L737 1434 L90 1434 L90 1145 L247 1145 L247 651 C247 231 427 -40 886 -40 C1344 -40 1524 231 1524 651 L1524 1145 L1681 1145 L1681 1434 L1034 1434 L1034 1145 L1191 1145 L1191 651 C1191 393 1128 249 886 249 C642 249 580 393 580 651 L580 651 Z " />
<glyph glyph-name="uhungarumlaut" unicode="&#x171;" horiz-adv-x="1530" d="M485 1174 L696 1174 L845 1516 L576 1516 L485 1174 Z M829 1174 L1040 1174 L1189 1516 L920 1516 L829 1174 Z M975 0 L1460 0 L1460 252 L1303 252 L1303 1030 L818 1030 L818 778 L975 778 L975 496 C975 326 924 222 765 222 C606 222 555 326 555 496 L555 1030 L70 1030 L70 778 L227 778 L227 496 C227 169 359 -30 700 -30 C826 -30 915 18 975 109 L975 0 Z " />
<glyph glyph-name="Uogonek" unicode="&#x172;" horiz-adv-x="1771" d="M1524 651 L1524 1145 L1681 1145 L1681 1434 L1034 1434 L1034 1145 L1191 1145 L1191 651 C1191 393 1128 249 886 249 C642 249 580 393 580 651 L580 1145 L737 1145 L737 1434 L90 1434 L90 1145 L247 1145 L247 651 C247 237 422 -32 867 -39 C828 -72 785 -129 785 -217 C785 -448 1035 -498 1206 -498 L1206 -251 C1206 -251 1024 -251 1024 -141 C1024 -58 1101 -19 1136 -6 C1411 79 1524 318 1524 651 L1524 651 Z " />
<glyph glyph-name="uogonek" unicode="&#x173;" horiz-adv-x="1582" d="M975 0 L1236 0 C1229 -2 1091 -58 1091 -217 C1091 -448 1341 -498 1512 -498 L1512 -251 C1512 -251 1330 -251 1330 -141 C1330 -34 1460 0 1460 0 L1460 252 L1303 252 L1303 1030 L818 1030 L818 778 L975 778 L975 496 C975 326 924 222 765 222 C606 222 555 326 555 496 L555 1030 L70 1030 L70 778 L227 778 L227 496 C227 169 359 -30 700 -30 C826 -30 915 18 975 109 L975 0 Z " />
<glyph glyph-name="Wcircumflex" unicode="&#x174;" horiz-adv-x="2186" d="M1196 1827 L990 1827 L689 1536 L937 1536 L1093 1645 L1249 1536 L1497 1536 L1196 1827 Z M698 550 L529 1145 L677 1145 L677 1434 L30 1434 L30 1145 L177 1145 L526 0 L849 0 L1093 838 L1337 0 L1660 0 L2009 1145 L2156 1145 L2156 1434 L1509 1434 L1509 1145 L1657 1145 L1488 550 L1235 1434 L951 1434 L698 550 Z " />
<glyph glyph-name="wcircumflex" unicode="&#x175;" horiz-adv-x="1940" d="M1073 1434 L867 1434 L566 1143 L814 1143 L970 1252 L1126 1143 L1374 1143 L1073 1434 Z M1870 778 L1870 1030 L1268 1030 L1268 778 L1394 778 L1288 395 L1087 1030 L853 1030 L652 395 L546 778 L672 778 L672 1030 L70 1030 L70 778 L241 778 L497 0 L785 0 L970 583 L1155 0 L1443 0 L1699 778 L1870 778 Z " />
<glyph glyph-name="Ycircumflex" unicode="&#x176;" horiz-adv-x="1581" d="M893 1827 L687 1827 L386 1536 L634 1536 L790 1645 L946 1536 L1194 1536 L893 1827 Z M624 496 L624 289 L467 289 L467 0 L1114 0 L1114 289 L957 289 L957 496 L1395 1145 L1551 1145 L1551 1434 L904 1434 L904 1145 L1019 1145 L790 805 L561 1145 L677 1145 L677 1434 L30 1434 L30 1145 L185 1145 L624 496 Z " />
<glyph glyph-name="ycircumflex" unicode="&#x177;" horiz-adv-x="1418" d="M812 1434 L606 1434 L305 1143 L553 1143 L709 1252 L865 1143 L1113 1143 L812 1434 Z M1348 778 L1348 1030 L786 1030 L786 778 L862 778 L709 358 L555 778 L632 778 L632 1030 L70 1030 L70 778 L229 778 L562 0 L489 -166 C457 -240 423 -280 333 -280 L184 -280 L184 -532 L347 -532 C570 -532 672 -428 733 -289 L856 0 L1189 778 L1348 778 Z " />
<glyph glyph-name="Ydieresis" unicode="&#x178;" horiz-adv-x="1581" d="M380 1708 C380 1613 457 1536 552 1536 C647 1536 724 1613 724 1708 C724 1803 647 1880 552 1880 C457 1880 380 1803 380 1708 L380 1708 Z M857 1708 C857 1613 934 1536 1029 1536 C1124 1536 1201 1613 1201 1708 C1201 1803 1124 1880 1029 1880 C934 1880 857 1803 857 1708 L857 1708 Z M624 496 L624 289 L467 289 L467 0 L1114 0 L1114 289 L957 289 L957 496 L1395 1145 L1551 1145 L1551 1434 L904 1434 L904 1145 L1019 1145 L790 805 L561 1145 L677 1145 L677 1434 L30 1434 L30 1145 L185 1145 L624 496 Z " />
<glyph glyph-name="Zacute" unicode="&#x179;" horiz-adv-x="1401" d="M559 1536 L829 1536 L1143 1846 L810 1846 L559 1536 Z M1311 1434 L110 1434 L110 1008 L443 1008 L443 1145 L822 1145 L90 176 L90 0 L1311 0 L1311 426 L978 426 L978 289 L580 289 L1311 1258 L1311 1434 Z " />
<glyph glyph-name="zacute" unicode="&#x17a;" horiz-adv-x="1125" d="M425 1124 L695 1124 L1009 1434 L676 1434 L425 1124 Z M99 657 L427 657 L427 778 L610 778 L70 189 L70 0 L1055 0 L1055 373 L727 373 L727 252 L515 252 L1055 840 L1055 1030 L99 1030 L99 657 Z " />
<glyph glyph-name="Zdotaccent" unicode="&#x17b;" horiz-adv-x="1401" d="M542 1708 C542 1613 619 1536 714 1536 C809 1536 886 1613 886 1708 C886 1803 809 1880 714 1880 C619 1880 542 1803 542 1708 L542 1708 Z M1311 1434 L110 1434 L110 1008 L443 1008 L443 1145 L822 1145 L90 176 L90 0 L1311 0 L1311 426 L978 426 L978 289 L580 289 L1311 1258 L1311 1434 Z " />
<glyph glyph-name="zdotaccent" unicode="&#x17c;" horiz-adv-x="1125" d="M390 1334 C390 1239 467 1162 562 1162 C657 1162 734 1239 734 1334 C734 1429 657 1506 562 1506 C467 1506 390 1429 390 1334 L390 1334 Z M99 657 L427 657 L427 778 L610 778 L70 189 L70 0 L1055 0 L1055 373 L727 373 L727 252 L515 252 L1055 840 L1055 1030 L99 1030 L99 657 Z " />
<glyph glyph-name="Zcaron" unicode="&#x17d;" horiz-adv-x="1401" d="M1119 1826 L871 1826 L715 1717 L559 1826 L311 1826 L612 1535 L818 1535 L1119 1826 Z M1311 1434 L110 1434 L110 1008 L443 1008 L443 1145 L822 1145 L90 176 L90 0 L1311 0 L1311 426 L978 426 L978 289 L580 289 L1311 1258 L1311 1434 Z " />
<glyph glyph-name="zcaron" unicode="&#x17e;" horiz-adv-x="1125" d="M966 1434 L718 1434 L562 1325 L406 1434 L158 1434 L459 1143 L665 1143 L966 1434 Z M99 657 L427 657 L427 778 L610 778 L70 189 L70 0 L1055 0 L1055 373 L727 373 L727 252 L515 252 L1055 840 L1055 1030 L99 1030 L99 657 Z " />
<glyph glyph-name="longs" unicode="&#x17f;" horiz-adv-x="931" d="M248 252 L91 252 L91 0 L733 0 L733 252 L576 252 L576 1030 C577 1221 581 1294 714 1294 C762 1294 809 1284 846 1273 L931 1502 C858 1530 760 1546 674 1546 C301 1546 254 1304 248 1030 L248 252 Z " />
<glyph glyph-name="florin" unicode="&#x192;" horiz-adv-x="1180" d="M730 741 L993 741 L1048 1030 L773 1030 L785 1086 C794 1129 804 1208 900 1208 L1086 1208 L1140 1496 L906 1496 C536 1496 480 1216 459 1114 L442 1030 L189 1030 L134 741 L397 741 L235 -122 C226 -165 216 -244 120 -244 L-66 -244 L-120 -532 L114 -532 C484 -532 540 -252 561 -150 L730 741 Z " />
<glyph glyph-name="Ohorn" unicode="&#x1a0;" horiz-adv-x="1737" d="M846 1474 C306 1474 70 1118 70 717 C70 316 306 -40 846 -40 C1386 -40 1622 316 1622 717 C1622 900 1572 1073 1468 1208 C1586 1270 1667 1391 1667 1614 L1365 1614 C1365 1494 1306 1423 1224 1399 C1120 1447 994 1474 846 1474 L846 1474 Z M846 1185 C1147 1185 1279 981 1279 717 C1279 453 1147 249 846 249 C545 249 413 453 413 717 C413 981 545 1185 846 1185 L846 1185 Z " />
<glyph glyph-name="ohorn" unicode="&#x1a1;" horiz-adv-x="1353" d="M656 -30 C1024 -30 1262 193 1262 515 C1262 636 1228 744 1167 830 C1271 885 1353 994 1353 1209 L1060 1209 C1060 1095 1011 1029 938 1008 C857 1042 762 1060 656 1060 C288 1060 50 838 50 515 C50 193 288 -30 656 -30 L656 -30 Z M656 222 C473 222 378 346 378 515 C378 684 473 808 656 808 C839 808 934 684 934 515 C934 346 839 222 656 222 L656 222 Z " />
<glyph glyph-name="Uhorn" unicode="&#x1af;" horiz-adv-x="1961" d="M580 651 L580 1145 L737 1145 L737 1434 L90 1434 L90 1145 L247 1145 L247 651 C247 231 427 -40 886 -40 C1344 -40 1524 231 1524 651 L1524 1145 C1619 1145 1871 1221 1871 1588 L1558 1588 C1558 1448 1492 1435 1407 1434 L1034 1434 L1034 1145 L1191 1145 L1191 651 C1191 393 1128 249 886 249 C642 249 580 393 580 651 L580 651 Z " />
<glyph glyph-name="uhorn" unicode="&#x1b0;" horiz-adv-x="1787" d="M975 0 L1460 0 L1460 252 L1303 252 L1303 778 C1412 781 1717 800 1717 1170 L1434 1170 C1434 1029 1355 1030 1303 1030 L818 1030 L818 778 L975 778 L975 496 C975 326 924 222 765 222 C606 222 555 326 555 496 L555 1030 L70 1030 L70 778 L227 778 L227 496 C227 169 359 -30 700 -30 C826 -30 915 18 975 109 L975 0 Z " />
<glyph glyph-name="uni01CD" unicode="&#x1cd;" horiz-adv-x="1670" d="M1239 1827 L991 1827 L835 1718 L679 1827 L431 1827 L732 1536 L938 1536 L1239 1827 Z M1140 289 L993 289 L993 0 L1640 0 L1640 289 L1493 289 L1000 1434 L394 1434 L394 1145 L550 1145 L176 289 L30 289 L30 0 L677 0 L677 289 L529 289 L584 421 L1084 421 L1140 289 Z M835 1014 L967 700 L702 700 L835 1014 Z " />
<glyph glyph-name="uni01CE" unicode="&#x1ce;" horiz-adv-x="1311" d="M1032 1434 L784 1434 L628 1325 L472 1434 L224 1434 L525 1143 L731 1143 L1032 1434 Z M755 0 L1241 0 L1241 252 L1084 252 L1084 635 C1084 915 979 1060 593 1060 C462 1060 277 1036 136 963 L245 753 C361 802 464 818 573 818 C734 818 756 762 756 670 C411 701 50 637 50 319 C50 76 238 -24 445 -24 C577 -24 700 10 755 135 L755 0 Z M378 349 C378 494 635 498 755 488 L755 399 C755 310 673 228 525 228 C421 228 378 279 378 349 L378 349 Z " />
<glyph glyph-name="uni01CF" unicode="&#x1cf;" horiz-adv-x="908" d="M858 1827 L610 1827 L454 1718 L298 1827 L50 1827 L351 1536 L557 1536 L858 1827 Z M621 1145 L778 1145 L778 1434 L131 1434 L131 1145 L288 1145 L288 289 L131 289 L131 0 L778 0 L778 289 L621 289 L621 1145 Z " />
<glyph glyph-name="uni01D0" unicode="&#x1d0;" horiz-adv-x="868" d="M838 1434 L590 1434 L434 1325 L278 1434 L30 1434 L331 1143 L537 1143 L838 1434 Z M270 778 L270 252 L113 252 L113 0 L755 0 L755 252 L598 252 L598 1030 L113 1030 L113 778 L270 778 Z " />
<glyph glyph-name="uni01D1" unicode="&#x1d1;" horiz-adv-x="1692" d="M846 1474 C306 1474 70 1118 70 717 C70 316 306 -40 846 -40 C1386 -40 1622 316 1622 717 C1622 1118 1386 1474 846 1474 L846 1474 Z M846 1185 C1147 1185 1279 981 1279 717 C1279 453 1147 249 846 249 C545 249 413 453 413 717 C413 981 545 1185 846 1185 L846 1185 Z M1251 1827 L1003 1827 L847 1718 L691 1827 L443 1827 L744 1536 L950 1536 L1251 1827 Z " />
<glyph glyph-name="uni01D2" unicode="&#x1d2;" horiz-adv-x="1312" d="M656 -30 C1024 -30 1262 193 1262 515 C1262 838 1024 1060 656 1060 C288 1060 50 838 50 515 C50 193 288 -30 656 -30 L656 -30 Z M656 222 C473 222 378 346 378 515 C378 684 473 808 656 808 C839 808 934 684 934 515 C934 346 839 222 656 222 L656 222 Z M1060 1434 L812 1434 L656 1325 L500 1434 L252 1434 L553 1143 L759 1143 L1060 1434 Z " />
<glyph glyph-name="uni01D3" unicode="&#x1d3;" horiz-adv-x="1771" d="M1289 1827 L1041 1827 L885 1718 L729 1827 L481 1827 L782 1536 L988 1536 L1289 1827 Z M580 651 L580 1145 L737 1145 L737 1434 L90 1434 L90 1145 L247 1145 L247 651 C247 231 427 -40 886 -40 C1344 -40 1524 231 1524 651 L1524 1145 L1681 1145 L1681 1434 L1034 1434 L1034 1145 L1191 1145 L1191 651 C1191 393 1128 249 886 249 C642 249 580 393 580 651 L580 651 Z " />
<glyph glyph-name="uni01D4" unicode="&#x1d4;" horiz-adv-x="1530" d="M1170 1434 L922 1434 L766 1325 L610 1434 L362 1434 L663 1143 L869 1143 L1170 1434 Z M975 0 L1460 0 L1460 252 L1303 252 L1303 1030 L818 1030 L818 778 L975 778 L975 496 C975 326 924 222 765 222 C606 222 555 326 555 496 L555 1030 L70 1030 L70 778 L227 778 L227 496 C227 169 359 -30 700 -30 C826 -30 915 18 975 109 L975 0 Z " />
<glyph glyph-name="uni01D5" unicode="&#x1d5;" horiz-adv-x="1771" d="M476 1708 C476 1613 553 1536 648 1536 C743 1536 820 1613 820 1708 C820 1803 743 1880 648 1880 C553 1880 476 1803 476 1708 L476 1708 Z M953 1708 C953 1613 1030 1536 1125 1536 C1220 1536 1297 1613 1297 1708 C1297 1803 1220 1880 1125 1880 C1030 1880 953 1803 953 1708 L953 1708 Z M449 1940 L1323 1940 L1323 2192 L449 2192 L449 1940 Z M580 651 L580 1145 L737 1145 L737 1434 L90 1434 L90 1145 L247 1145 L247 651 C247 231 427 -40 886 -40 C1344 -40 1524 231 1524 651 L1524 1145 L1681 1145 L1681 1434 L1034 1434 L1034 1145 L1191 1145 L1191 651 C1191 393 1128 249 886 249 C642 249 580 393 580 651 L580 651 Z " />
<glyph glyph-name="uni01D6" unicode="&#x1d6;" horiz-adv-x="1530" d="M355 1334 C355 1239 432 1162 527 1162 C622 1162 699 1239 699 1334 C699 1429 622 1506 527 1506 C432 1506 355 1429 355 1334 L355 1334 Z M832 1334 C832 1239 909 1162 1004 1162 C1099 1162 1176 1239 1176 1334 C1176 1429 1099 1506 1004 1506 C909 1506 832 1429 832 1334 L832 1334 Z M328 1566 L1202 1566 L1202 1818 L328 1818 L328 1566 Z M975 0 L1460 0 L1460 252 L1303 252 L1303 1030 L818 1030 L818 778 L975 778 L975 496 C975 326 924 222 765 222 C606 222 555 326 555 496 L555 1030 L70 1030 L70 778 L227 778 L227 496 C227 169 359 -30 700 -30 C826 -30 915 18 975 109 L975 0 Z " />
<glyph glyph-name="uni01D7" unicode="&#x1d7;" horiz-adv-x="1771" d="M475 1708 C475 1613 552 1536 647 1536 C742 1536 819 1613 819 1708 C819 1803 742 1880 647 1880 C552 1880 475 1803 475 1708 L475 1708 Z M952 1708 C952 1613 1029 1536 1124 1536 C1219 1536 1296 1613 1296 1708 C1296 1803 1219 1880 1124 1880 C1029 1880 952 1803 952 1708 L952 1708 Z M745 1920 L1015 1920 L1329 2230 L996 2230 L745 1920 Z M580 651 L580 1145 L737 1145 L737 1434 L90 1434 L90 1145 L247 1145 L247 651 C247 231 427 -40 886 -40 C1344 -40 1524 231 1524 651 L1524 1145 L1681 1145 L1681 1434 L1034 1434 L1034 1145 L1191 1145 L1191 651 C1191 393 1128 249 886 249 C642 249 580 393 580 651 L580 651 Z " />
<glyph glyph-name="uni01D8" unicode="&#x1d8;" horiz-adv-x="1530" d="M355 1334 C355 1239 432 1162 527 1162 C622 1162 699 1239 699 1334 C699 1429 622 1506 527 1506 C432 1506 355 1429 355 1334 L355 1334 Z M832 1334 C832 1239 909 1162 1004 1162 C1099 1162 1176 1239 1176 1334 C1176 1429 1099 1506 1004 1506 C909 1506 832 1429 832 1334 L832 1334 Z M625 1546 L895 1546 L1209 1856 L876 1856 L625 1546 Z M975 0 L1460 0 L1460 252 L1303 252 L1303 1030 L818 1030 L818 778 L975 778 L975 496 C975 326 924 222 765 222 C606 222 555 326 555 496 L555 1030 L70 1030 L70 778 L227 778 L227 496 C227 169 359 -30 700 -30 C826 -30 915 18 975 109 L975 0 Z " />
<glyph glyph-name="uni01D9" unicode="&#x1d9;" horiz-adv-x="1771" d="M475 1708 C475 1613 552 1536 647 1536 C742 1536 819 1613 819 1708 C819 1803 742 1880 647 1880 C552 1880 475 1803 475 1708 L475 1708 Z M952 1708 C952 1613 1029 1536 1124 1536 C1219 1536 1296 1613 1296 1708 C1296 1803 1219 1880 1124 1880 C1029 1880 952 1803 952 1708 L952 1708 Z M580 651 L580 1145 L737 1145 L737 1434 L90 1434 L90 1145 L247 1145 L247 651 C247 231 427 -40 886 -40 C1344 -40 1524 231 1524 651 L1524 1145 L1681 1145 L1681 1434 L1034 1434 L1034 1145 L1191 1145 L1191 651 C1191 393 1128 249 886 249 C642 249 580 393 580 651 L580 651 Z " />
<glyph glyph-name="uni01DA" unicode="&#x1da;" horiz-adv-x="1530" d="M355 1334 C355 1239 432 1162 527 1162 C622 1162 699 1239 699 1334 C699 1429 622 1506 527 1506 C432 1506 355 1429 355 1334 L355 1334 Z M832 1334 C832 1239 909 1162 1004 1162 C1099 1162 1176 1239 1176 1334 C1176 1429 1099 1506 1004 1506 C909 1506 832 1429 832 1334 L832 1334 Z M975 0 L1460 0 L1460 252 L1303 252 L1303 1030 L818 1030 L818 778 L975 778 L975 496 C975 326 924 222 765 222 C606 222 555 326 555 496 L555 1030 L70 1030 L70 778 L227 778 L227 496 C227 169 359 -30 700 -30 C826 -30 915 18 975 109 L975 0 Z " />
<glyph glyph-name="uni01DB" unicode="&#x1db;" horiz-adv-x="1771" d="M475 1708 C475 1613 552 1536 647 1536 C742 1536 819 1613 819 1708 C819 1803 742 1880 647 1880 C552 1880 475 1803 475 1708 L475 1708 Z M952 1708 C952 1613 1029 1536 1124 1536 C1219 1536 1296 1613 1296 1708 C1296 1803 1219 1880 1124 1880 C1029 1880 952 1803 952 1708 L952 1708 Z M787 2230 L454 2230 L768 1920 L1038 1920 L787 2230 Z M580 651 L580 1145 L737 1145 L737 1434 L90 1434 L90 1145 L247 1145 L247 651 C247 231 427 -40 886 -40 C1344 -40 1524 231 1524 651 L1524 1145 L1681 1145 L1681 1434 L1034 1434 L1034 1145 L1191 1145 L1191 651 C1191 393 1128 249 886 249 C642 249 580 393 580 651 L580 651 Z " />
<glyph glyph-name="uni01DC" unicode="&#x1dc;" horiz-adv-x="1530" d="M355 1334 C355 1239 432 1162 527 1162 C622 1162 699 1239 699 1334 C699 1429 622 1506 527 1506 C432 1506 355 1429 355 1334 L355 1334 Z M832 1334 C832 1239 909 1162 1004 1162 C1099 1162 1176 1239 1176 1334 C1176 1429 1099 1506 1004 1506 C909 1506 832 1429 832 1334 L832 1334 Z M667 1856 L334 1856 L648 1546 L918 1546 L667 1856 Z M975 0 L1460 0 L1460 252 L1303 252 L1303 1030 L818 1030 L818 778 L975 778 L975 496 C975 326 924 222 765 222 C606 222 555 326 555 496 L555 1030 L70 1030 L70 778 L227 778 L227 496 C227 169 359 -30 700 -30 C826 -30 915 18 975 109 L975 0 Z " />
<glyph glyph-name="uni01DE" unicode="&#x1de;" horiz-adv-x="1670" d="M425 1708 C425 1613 502 1536 597 1536 C692 1536 769 1613 769 1708 C769 1803 692 1880 597 1880 C502 1880 425 1803 425 1708 L425 1708 Z M902 1708 C902 1613 979 1536 1074 1536 C1169 1536 1246 1613 1246 1708 C1246 1803 1169 1880 1074 1880 C979 1880 902 1803 902 1708 L902 1708 Z M398 1940 L1272 1940 L1272 2192 L398 2192 L398 1940 Z M1140 289 L993 289 L993 0 L1640 0 L1640 289 L1493 289 L1000 1434 L394 1434 L394 1145 L550 1145 L176 289 L30 289 L30 0 L677 0 L677 289 L529 289 L584 421 L1084 421 L1140 289 Z M835 1014 L967 700 L702 700 L835 1014 Z " />
<glyph glyph-name="uni01DF" unicode="&#x1df;" horiz-adv-x="1311" d="M201 1334 C201 1239 278 1162 373 1162 C468 1162 545 1239 545 1334 C545 1429 468 1506 373 1506 C278 1506 201 1429 201 1334 L201 1334 Z M678 1334 C678 1239 755 1162 850 1162 C945 1162 1022 1239 1022 1334 C1022 1429 945 1506 850 1506 C755 1506 678 1429 678 1334 L678 1334 Z M174 1566 L1048 1566 L1048 1818 L174 1818 L174 1566 Z M755 0 L1241 0 L1241 252 L1084 252 L1084 635 C1084 915 979 1060 593 1060 C462 1060 277 1036 136 963 L245 753 C361 802 464 818 573 818 C734 818 756 762 756 670 C411 701 50 637 50 319 C50 76 238 -24 445 -24 C577 -24 700 10 755 135 L755 0 Z M378 349 C378 494 635 498 755 488 L755 399 C755 310 673 228 525 228 C421 228 378 279 378 349 L378 349 Z " />
<glyph glyph-name="uni01E0" unicode="&#x1e0;" horiz-adv-x="1670" d="M663 1708 C663 1613 740 1536 835 1536 C930 1536 1007 1613 1007 1708 C1007 1803 930 1880 835 1880 C740 1880 663 1803 663 1708 L663 1708 Z M399 1940 L1273 1940 L1273 2192 L399 2192 L399 1940 Z M1140 289 L993 289 L993 0 L1640 0 L1640 289 L1493 289 L1000 1434 L394 1434 L394 1145 L550 1145 L176 289 L30 289 L30 0 L677 0 L677 289 L529 289 L584 421 L1084 421 L1140 289 Z M835 1014 L967 700 L702 700 L835 1014 Z " />
<glyph glyph-name="uni01E1" unicode="&#x1e1;" horiz-adv-x="1311" d="M444 1334 C444 1239 521 1162 616 1162 C711 1162 788 1239 788 1334 C788 1429 711 1506 616 1506 C521 1506 444 1429 444 1334 L444 1334 Z M180 1566 L1054 1566 L1054 1818 L180 1818 L180 1566 Z M755 0 L1241 0 L1241 252 L1084 252 L1084 635 C1084 915 979 1060 593 1060 C462 1060 277 1036 136 963 L245 753 C361 802 464 818 573 818 C734 818 756 762 756 670 C411 701 50 637 50 319 C50 76 238 -24 445 -24 C577 -24 700 10 755 135 L755 0 Z M378 349 C378 494 635 498 755 488 L755 399 C755 310 673 228 525 228 C421 228 378 279 378 349 L378 349 Z " />
<glyph glyph-name="uni01E2" unicode="&#x1e2;" horiz-adv-x="2315" d="M993 1535 L1867 1535 L1867 1787 L993 1787 L993 1535 Z M2225 0 L2225 426 L1892 426 L1892 289 L1392 289 L1392 587 L1902 587 L1902 876 L1392 876 L1392 1145 L1882 1145 L1882 1008 L2215 1008 L2215 1434 L643 1434 L643 1145 L799 1145 L235 289 L90 289 L90 0 L737 0 L737 289 L609 289 L673 386 L1059 386 L1059 0 L2225 0 Z M1059 972 L1059 675 L863 675 L1059 972 Z " />
<glyph glyph-name="uni01E3" unicode="&#x1e3;" horiz-adv-x="1931" d="M1654 306 C1590 262 1488 212 1325 212 C1148 212 1096 306 1096 394 L1875 394 C1915 811 1716 1060 1325 1060 C1175 1060 1058 1024 970 964 C895 1028 775 1060 593 1060 C462 1060 277 1036 136 963 L245 753 C361 802 464 818 573 818 C734 818 756 762 756 670 C411 701 50 637 50 319 C50 76 238 -24 445 -24 C544 -24 737 -16 916 105 C1007 22 1141 -30 1325 -30 C1554 -30 1710 36 1816 122 L1654 306 Z M378 349 C378 494 635 498 755 488 L755 399 C755 310 673 228 525 228 C421 228 378 279 378 349 L378 349 Z M1097 606 C1097 696 1147 818 1325 818 C1503 818 1553 696 1553 606 L1097 606 Z M542 1182 L1416 1182 L1416 1434 L542 1434 L542 1182 Z " />
<glyph glyph-name="uni01E4" unicode="&#x1e4;" horiz-adv-x="1634" d="M1115 1008 L1448 1008 L1448 1364 C1448 1364 1190 1474 846 1474 C306 1474 70 1118 70 717 C70 316 306 -40 846 -40 C1092 -40 1302 14 1448 130 L1448 304 L1584 304 L1584 523 L1448 523 L1448 846 L842 846 L842 567 L1115 567 L1115 523 L842 523 L842 304 L1115 304 L1115 296 C1070 274 974 249 846 249 C545 249 413 453 413 717 C413 981 545 1185 846 1185 C1000 1185 1115 1158 1115 1158 L1115 1008 Z " />
<glyph glyph-name="uni01E5" unicode="&#x1e5;" horiz-adv-x="1469" d="M1242 0 L1242 778 L1399 778 L1399 1030 L914 1030 L914 894 C853 986 741 1060 576 1060 C270 1060 50 857 50 515 C50 173 270 -30 576 -30 C741 -30 853 44 914 136 L914 0 C914 -12 913 -24 912 -36 L673 -36 L673 -241 L786 -241 C736 -267 674 -280 605 -280 C479 -280 369 -256 241 -188 L116 -416 C275 -506 451 -532 605 -532 C847 -532 1096 -466 1196 -241 L1371 -241 L1371 -36 L1241 -36 C1241 -24 1242 -12 1242 0 L1242 0 Z M378 515 C378 684 473 808 646 808 C819 808 914 684 914 515 C914 346 819 222 646 222 C473 222 378 346 378 515 L378 515 Z " />
<glyph glyph-name="Gcaron" unicode="&#x1e6;" horiz-adv-x="1538" d="M1264 1827 L1016 1827 L860 1718 L704 1827 L456 1827 L757 1536 L963 1536 L1264 1827 Z M1115 1008 L1448 1008 L1448 1364 C1448 1364 1190 1474 846 1474 C306 1474 70 1118 70 717 C70 316 306 -40 846 -40 C1092 -40 1302 14 1448 130 L1448 846 L842 846 L842 567 L1115 567 L1115 296 C1070 274 974 249 846 249 C545 249 413 453 413 717 C413 981 545 1185 846 1185 C1000 1185 1115 1158 1115 1158 L1115 1008 Z " />
<glyph glyph-name="gcaron" unicode="&#x1e7;" horiz-adv-x="1469" d="M1050 1434 L802 1434 L646 1325 L490 1434 L242 1434 L543 1143 L749 1143 L1050 1434 Z M1242 0 L1242 778 L1399 778 L1399 1030 L914 1030 L914 894 C853 986 741 1060 576 1060 C270 1060 50 857 50 515 C50 173 270 -30 576 -30 C741 -30 853 44 914 136 L914 0 C914 -195 786 -280 605 -280 C479 -280 369 -256 241 -188 L116 -416 C275 -506 451 -532 605 -532 C918 -532 1243 -422 1242 0 L1242 0 Z M378 515 C378 684 473 808 646 808 C819 808 914 684 914 515 C914 346 819 222 646 222 C473 222 378 346 378 515 L378 515 Z " />
<glyph glyph-name="uni01E8" unicode="&#x1e8;" horiz-adv-x="1619" d="M1213 1827 L965 1827 L809 1718 L653 1827 L405 1827 L706 1536 L912 1536 L1213 1827 Z M1382 1145 L1519 1145 L1519 1434 L872 1434 L872 1145 L963 1145 L580 840 L580 1145 L737 1145 L737 1434 L90 1434 L90 1145 L247 1145 L247 289 L90 289 L90 0 L737 0 L737 289 L580 289 L580 490 L724 607 L1172 0 L1529 0 L1529 289 L1372 289 L979 816 L1382 1145 Z " />
<glyph glyph-name="uni01E9" unicode="&#x1e9;" horiz-adv-x="1405" d="M1114 1827 L866 1827 L710 1718 L554 1827 L306 1827 L607 1536 L813 1536 L1114 1827 Z M1319 778 L1319 1030 L677 1030 L677 778 L785 778 L555 617 L555 1516 L70 1516 L70 1264 L227 1264 L227 252 L70 252 L70 0 L712 0 L712 252 L555 252 L555 332 L689 428 L996 0 L1335 0 L1335 252 L1178 252 L930 601 L1176 778 L1319 778 Z " />
<glyph glyph-name="uni01EA" unicode="&#x1ea;" horiz-adv-x="1692" d="M846 1474 C306 1474 70 1118 70 717 C70 316 306 -40 845 -40 C806 -73 764 -129 764 -217 C764 -448 1014 -498 1185 -498 L1185 -251 C1185 -251 1003 -251 1003 -141 C1003 -52 1092 -13 1122 -3 C1467 98 1622 392 1622 717 C1622 1118 1386 1474 846 1474 L846 1474 Z M846 1185 C1147 1185 1279 981 1279 717 C1279 453 1147 249 846 249 C545 249 413 453 413 717 C413 981 545 1185 846 1185 L846 1185 Z " />
<glyph glyph-name="uni01EB" unicode="&#x1eb;" horiz-adv-x="1312" d="M874 0 C1115 71 1262 262 1262 515 C1262 838 1024 1060 656 1060 C288 1060 50 838 50 515 C50 209 265 -7 602 -28 C559 -59 506 -118 506 -217 C506 -448 756 -498 927 -498 L927 -251 C927 -251 745 -251 745 -141 C745 -34 875 0 875 0 L874 0 Z M656 222 C473 222 378 346 378 515 C378 684 473 808 656 808 C839 808 934 684 934 515 C934 346 839 222 656 222 L656 222 Z " />
<glyph glyph-name="uni01EC" unicode="&#x1ec;" horiz-adv-x="1692" d="M846 1474 C306 1474 70 1118 70 717 C70 316 306 -40 845 -40 C806 -73 764 -129 764 -217 C764 -448 1014 -498 1185 -498 L1185 -251 C1185 -251 1003 -251 1003 -141 C1003 -52 1092 -13 1122 -3 C1467 98 1622 392 1622 717 C1622 1118 1386 1474 846 1474 L846 1474 Z M846 1185 C1147 1185 1279 981 1279 717 C1279 453 1147 249 846 249 C545 249 413 453 413 717 C413 981 545 1185 846 1185 L846 1185 Z M409 1536 L1283 1536 L1283 1788 L409 1788 L409 1536 Z " />
<glyph glyph-name="uni01ED" unicode="&#x1ed;" horiz-adv-x="1312" d="M874 0 C1115 71 1262 262 1262 515 C1262 838 1024 1060 656 1060 C288 1060 50 838 50 515 C50 209 265 -7 602 -28 C559 -59 506 -118 506 -217 C506 -448 756 -498 927 -498 L927 -251 C927 -251 745 -251 745 -141 C745 -34 875 0 875 0 L874 0 Z M656 222 C473 222 378 346 378 515 C378 684 473 808 656 808 C839 808 934 684 934 515 C934 346 839 222 656 222 L656 222 Z M220 1182 L1094 1182 L1094 1434 L220 1434 L220 1182 Z " />
<glyph glyph-name="uni01F0" unicode="&#x1f0;" horiz-adv-x="712" d="M742 1434 L494 1434 L338 1325 L182 1434 L-66 1434 L235 1143 L441 1143 L742 1434 Z M502 -60 L502 1030 L17 1030 L17 778 L174 778 L174 -60 C174 -149 174 -280 51 -280 C4 -280 -43 -268 -68 -259 L-150 -488 C-90 -520 -7 -532 71 -532 C396 -532 502 -363 502 -60 L502 -60 Z " />
<glyph glyph-name="uni01F4" unicode="&#x1f4;" horiz-adv-x="1538" d="M708 1536 L978 1536 L1292 1846 L959 1846 L708 1536 Z M1115 1008 L1448 1008 L1448 1364 C1448 1364 1190 1474 846 1474 C306 1474 70 1118 70 717 C70 316 306 -40 846 -40 C1092 -40 1302 14 1448 130 L1448 846 L842 846 L842 567 L1115 567 L1115 296 C1070 274 974 249 846 249 C545 249 413 453 413 717 C413 981 545 1185 846 1185 C1000 1185 1115 1158 1115 1158 L1115 1008 Z " />
<glyph glyph-name="uni01F5" unicode="&#x1f5;" horiz-adv-x="1469" d="M465 1124 L735 1124 L1049 1434 L716 1434 L465 1124 Z M1242 0 L1242 778 L1399 778 L1399 1030 L914 1030 L914 894 C853 986 741 1060 576 1060 C270 1060 50 857 50 515 C50 173 270 -30 576 -30 C741 -30 853 44 914 136 L914 0 C914 -195 786 -280 605 -280 C479 -280 369 -256 241 -188 L116 -416 C275 -506 451 -532 605 -532 C918 -532 1243 -422 1242 0 L1242 0 Z M378 515 C378 684 473 808 646 808 C819 808 914 684 914 515 C914 346 819 222 646 222 C473 222 378 346 378 515 L378 515 Z " />
<glyph glyph-name="uni01F8" unicode="&#x1f8;" horiz-adv-x="1807" d="M810 1846 L477 1846 L791 1536 L1061 1536 L810 1846 Z M90 0 L737 0 L737 289 L580 289 L580 956 L1138 0 L1560 0 L1560 1145 L1717 1145 L1717 1434 L1070 1434 L1070 1145 L1227 1145 L1227 478 L669 1434 L90 1434 L90 1145 L247 1145 L247 289 L90 289 L90 0 Z " />
<glyph glyph-name="uni01F9" unicode="&#x1f9;" horiz-adv-x="1530" d="M681 1434 L348 1434 L662 1124 L932 1124 L681 1434 Z M70 1030 L70 778 L227 778 L227 252 L70 252 L70 0 L712 0 L712 252 L555 252 L555 534 C555 704 606 808 765 808 C924 808 975 704 975 534 L975 0 L1460 0 L1460 252 L1303 252 L1303 534 C1303 861 1171 1060 830 1060 C704 1060 615 1012 555 921 L555 1030 L70 1030 Z " />
<glyph glyph-name="Aringacute" unicode="&#x1fa;" horiz-adv-x="1670" d="M589 1782 C589 1646 699 1536 835 1536 C971 1536 1081 1646 1081 1782 C1081 1865 1039 1939 975 1984 L1173 2179 L840 2179 L638 1930 C607 1889 589 1837 589 1782 L589 1782 Z M751 1782 C751 1828 789 1866 835 1866 C881 1866 919 1828 919 1782 C919 1736 881 1698 835 1698 C789 1698 751 1736 751 1782 L751 1782 Z M1140 289 L993 289 L993 0 L1640 0 L1640 289 L1493 289 L1000 1434 L394 1434 L394 1145 L550 1145 L176 289 L30 289 L30 0 L677 0 L677 289 L529 289 L584 421 L1084 421 L1140 289 Z M835 1014 L967 700 L702 700 L835 1014 Z " />
<glyph glyph-name="aringacute" unicode="&#x1fb;" horiz-adv-x="1311" d="M377 1370 C377 1234 487 1124 623 1124 C759 1124 869 1234 869 1370 C869 1453 827 1527 763 1572 L961 1767 L628 1767 L426 1518 C395 1477 377 1425 377 1370 L377 1370 Z M539 1370 C539 1416 577 1454 623 1454 C669 1454 707 1416 707 1370 C707 1324 669 1286 623 1286 C577 1286 539 1324 539 1370 L539 1370 Z M755 0 L1241 0 L1241 252 L1084 252 L1084 635 C1084 915 979 1060 593 1060 C462 1060 277 1036 136 963 L245 753 C361 802 464 818 573 818 C734 818 756 762 756 670 C411 701 50 637 50 319 C50 76 238 -24 445 -24 C577 -24 700 10 755 135 L755 0 Z M378 349 C378 494 635 498 755 488 L755 399 C755 310 673 228 525 228 C421 228 378 279 378 349 L378 349 Z " />
<glyph glyph-name="AEacute" unicode="&#x1fc;" horiz-adv-x="2315" d="M1052 1536 L1322 1536 L1636 1846 L1303 1846 L1052 1536 Z M2225 0 L2225 426 L1892 426 L1892 289 L1392 289 L1392 587 L1902 587 L1902 876 L1392 876 L1392 1145 L1882 1145 L1882 1008 L2215 1008 L2215 1434 L643 1434 L643 1145 L799 1145 L235 289 L90 289 L90 0 L737 0 L737 289 L609 289 L673 386 L1059 386 L1059 0 L2225 0 Z M1059 972 L1059 675 L863 675 L1059 972 Z " />
<glyph glyph-name="aeacute" unicode="&#x1fd;" horiz-adv-x="1931" d="M1654 306 C1590 262 1488 212 1325 212 C1148 212 1096 306 1096 394 L1875 394 C1915 811 1716 1060 1325 1060 C1175 1060 1058 1024 970 964 C895 1028 775 1060 593 1060 C462 1060 277 1036 136 963 L245 753 C361 802 464 818 573 818 C734 818 756 762 756 670 C411 701 50 637 50 319 C50 76 238 -24 445 -24 C544 -24 737 -16 916 105 C1007 22 1141 -30 1325 -30 C1554 -30 1710 36 1816 122 L1654 306 Z M378 349 C378 494 635 498 755 488 L755 399 C755 310 673 228 525 228 C421 228 378 279 378 349 L378 349 Z M1097 606 C1097 696 1147 818 1325 818 C1503 818 1553 696 1553 606 L1097 606 Z M841 1124 L1111 1124 L1425 1434 L1092 1434 L841 1124 Z " />
<glyph glyph-name="Oslashacute" unicode="&#x1fe;" horiz-adv-x="1692" d="M702 1536 L972 1536 L1286 1846 L953 1846 L702 1536 Z M846 1474 C306 1474 70 1118 70 717 C70 447 176 198 410 64 L349 -61 L577 -61 L601 -11 C674 -30 756 -40 846 -40 C1386 -40 1622 316 1622 717 C1622 988 1514 1239 1276 1373 L1336 1495 L1108 1495 L1084 1447 C1012 1464 933 1474 846 1474 L846 1474 Z M1279 717 C1279 453 1147 249 846 249 C805 249 768 253 733 260 L1137 1088 C1234 1004 1279 870 1279 717 L1279 717 Z M846 1185 C884 1185 919 1181 952 1175 L549 350 C456 435 413 566 413 717 C413 981 545 1185 846 1185 L846 1185 Z " />
<glyph glyph-name="oslashacute" unicode="&#x1ff;" horiz-adv-x="1352" d="M472 1124 L742 1124 L1056 1434 L723 1434 L472 1124 Z M676 -30 C1044 -30 1282 193 1282 515 C1282 729 1177 899 998 989 L1048 1091 L866 1091 L843 1043 C791 1054 735 1060 676 1060 C308 1060 70 838 70 515 C70 301 175 130 353 40 L304 -61 L486 -61 L509 -13 C561 -24 617 -30 676 -30 L676 -30 Z M398 515 C398 684 493 808 676 808 C693 808 710 806 726 804 L478 295 C425 347 398 425 398 515 L398 515 Z M676 222 C658 222 641 223 625 225 L874 735 C927 682 954 605 954 515 C954 346 859 222 676 222 L676 222 Z " />
<glyph glyph-name="uni0200" unicode="&#x200;" horiz-adv-x="1670" d="M1140 289 L993 289 L993 0 L1640 0 L1640 289 L1493 289 L1000 1434 L394 1434 L394 1145 L550 1145 L176 289 L30 289 L30 0 L677 0 L677 289 L529 289 L584 421 L1084 421 L1140 289 Z M835 1014 L967 700 L702 700 L835 1014 Z M479 1846 L146 1846 L460 1536 L730 1536 L479 1846 Z M869 1846 L536 1846 L850 1536 L1120 1536 L869 1846 Z " />
<glyph glyph-name="uni0201" unicode="&#x201;" horiz-adv-x="1411" d="M855 0 L1341 0 L1341 252 L1184 252 L1184 635 C1184 915 1079 1060 693 1060 C562 1060 377 1036 236 963 L345 753 C461 802 564 818 673 818 C834 818 856 762 856 670 C511 701 150 637 150 319 C150 76 338 -24 545 -24 C677 -24 800 10 855 135 L855 0 Z M478 349 C478 494 735 498 855 488 L855 399 C855 310 773 228 625 228 C521 228 478 279 478 349 L478 349 Z M383 1434 L50 1434 L364 1124 L634 1124 L383 1434 Z M773 1434 L440 1434 L754 1124 L1024 1124 L773 1434 Z " />
<glyph glyph-name="uni0202" unicode="&#x202;" horiz-adv-x="1670" d="M835 1802 C587 1802 479 1654 461 1536 L653 1536 C677 1595 733 1634 835 1634 C937 1634 993 1595 1017 1536 L1209 1536 C1191 1654 1083 1802 835 1802 L835 1802 Z M1140 289 L993 289 L993 0 L1640 0 L1640 289 L1493 289 L1000 1434 L394 1434 L394 1145 L550 1145 L176 289 L30 289 L30 0 L677 0 L677 289 L529 289 L584 421 L1084 421 L1140 289 Z M835 1014 L967 700 L702 700 L835 1014 Z " />
<glyph glyph-name="uni0203" unicode="&#x203;" horiz-adv-x="1311" d="M626 1434 C378 1434 270 1286 252 1168 L444 1168 C468 1227 524 1266 626 1266 C728 1266 784 1227 808 1168 L1000 1168 C982 1286 874 1434 626 1434 L626 1434 Z M755 0 L1241 0 L1241 252 L1084 252 L1084 635 C1084 915 979 1060 593 1060 C462 1060 277 1036 136 963 L245 753 C361 802 464 818 573 818 C734 818 756 762 756 670 C411 701 50 637 50 319 C50 76 238 -24 445 -24 C577 -24 700 10 755 135 L755 0 Z M378 349 C378 494 635 498 755 488 L755 399 C755 310 673 228 525 228 C421 228 378 279 378 349 L378 349 Z " />
<glyph glyph-name="uni0204" unicode="&#x204;" horiz-adv-x="1503" d="M90 0 L1413 0 L1413 426 L1080 426 L1080 289 L580 289 L580 587 L1090 587 L1090 876 L580 876 L580 1145 L1070 1145 L1070 1008 L1403 1008 L1403 1434 L90 1434 L90 1145 L247 1145 L247 289 L90 289 L90 0 Z M447 1846 L114 1846 L428 1536 L698 1536 L447 1846 Z M837 1846 L504 1846 L818 1536 L1088 1536 L837 1846 Z " />
<glyph glyph-name="uni0205" unicode="&#x205;" horiz-adv-x="1298" d="M1021 306 C957 262 855 212 692 212 C515 212 463 306 463 394 L1242 394 C1282 811 1083 1060 692 1060 C289 1060 122 797 122 515 C122 233 279 -30 692 -30 C921 -30 1077 36 1183 122 L1021 306 Z M464 606 C464 696 514 818 692 818 C870 818 920 696 920 606 L464 606 Z M383 1434 L50 1434 L364 1124 L634 1124 L383 1434 Z M773 1434 L440 1434 L754 1124 L1024 1124 L773 1434 Z " />
<glyph glyph-name="uni0206" unicode="&#x206;" horiz-adv-x="1503" d="M745 1802 C497 1802 389 1654 371 1536 L563 1536 C587 1595 643 1634 745 1634 C847 1634 903 1595 927 1536 L1119 1536 C1101 1654 993 1802 745 1802 L745 1802 Z M90 0 L1413 0 L1413 426 L1080 426 L1080 289 L580 289 L580 587 L1090 587 L1090 876 L580 876 L580 1145 L1070 1145 L1070 1008 L1403 1008 L1403 1434 L90 1434 L90 1145 L247 1145 L247 289 L90 289 L90 0 Z " />
<glyph glyph-name="uni0207" unicode="&#x207;" horiz-adv-x="1226" d="M949 306 C885 262 783 212 620 212 C443 212 391 306 391 394 L1170 394 C1210 811 1011 1060 620 1060 C217 1060 50 797 50 515 C50 233 207 -30 620 -30 C849 -30 1005 36 1111 122 L949 306 Z M392 606 C392 696 442 818 620 818 C798 818 848 696 848 606 L392 606 Z M623 1434 C375 1434 267 1286 249 1168 L441 1168 C465 1227 521 1266 623 1266 C725 1266 781 1227 805 1168 L997 1168 C979 1286 871 1434 623 1434 L623 1434 Z " />
<glyph glyph-name="uni0208" unicode="&#x208;" horiz-adv-x="987" d="M685 1145 L842 1145 L842 1434 L195 1434 L195 1145 L352 1145 L352 289 L195 289 L195 0 L842 0 L842 289 L685 289 L685 1145 Z M212 1846 L-121 1846 L193 1536 L463 1536 L212 1846 Z M602 1846 L269 1846 L583 1536 L853 1536 L602 1846 Z " />
<glyph glyph-name="uni0209" unicode="&#x209;" horiz-adv-x="859" d="M326 778 L326 252 L169 252 L169 0 L811 0 L811 252 L654 252 L654 1030 L169 1030 L169 778 L326 778 Z M170 1434 L-163 1434 L151 1124 L421 1124 L170 1434 Z M560 1434 L227 1434 L541 1124 L811 1124 L560 1434 Z " />
<glyph glyph-name="uni020A" unicode="&#x20a;" horiz-adv-x="848" d="M424 1802 C176 1802 68 1654 50 1536 L242 1536 C266 1595 322 1634 424 1634 C526 1634 582 1595 606 1536 L798 1536 C780 1654 672 1802 424 1802 L424 1802 Z M591 1145 L748 1145 L748 1434 L101 1434 L101 1145 L258 1145 L258 289 L101 289 L101 0 L748 0 L748 289 L591 289 L591 1145 Z " />
<glyph glyph-name="uni020B" unicode="&#x20b;" horiz-adv-x="808" d="M404 1434 C156 1434 48 1286 30 1168 L222 1168 C246 1227 302 1266 404 1266 C506 1266 562 1227 586 1168 L778 1168 C760 1286 652 1434 404 1434 L404 1434 Z M240 778 L240 252 L83 252 L83 0 L725 0 L725 252 L568 252 L568 1030 L83 1030 L83 778 L240 778 Z " />
<glyph glyph-name="uni020C" unicode="&#x20c;" horiz-adv-x="1692" d="M846 1474 C306 1474 70 1118 70 717 C70 316 306 -40 846 -40 C1386 -40 1622 316 1622 717 C1622 1118 1386 1474 846 1474 L846 1474 Z M846 1185 C1147 1185 1279 981 1279 717 C1279 453 1147 249 846 249 C545 249 413 453 413 717 C413 981 545 1185 846 1185 L846 1185 Z M531 1846 L198 1846 L512 1536 L782 1536 L531 1846 Z M921 1846 L588 1846 L902 1536 L1172 1536 L921 1846 Z " />
<glyph glyph-name="uni020D" unicode="&#x20d;" horiz-adv-x="1345" d="M689 -30 C1057 -30 1295 193 1295 515 C1295 838 1057 1060 689 1060 C321 1060 83 838 83 515 C83 193 321 -30 689 -30 L689 -30 Z M689 222 C506 222 411 346 411 515 C411 684 506 808 689 808 C872 808 967 684 967 515 C967 346 872 222 689 222 L689 222 Z M383 1434 L50 1434 L364 1124 L634 1124 L383 1434 Z M773 1434 L440 1434 L754 1124 L1024 1124 L773 1434 Z " />
<glyph glyph-name="uni020E" unicode="&#x20e;" horiz-adv-x="1692" d="M846 1474 C306 1474 70 1118 70 717 C70 316 306 -40 846 -40 C1386 -40 1622 316 1622 717 C1622 1118 1386 1474 846 1474 L846 1474 Z M846 1185 C1147 1185 1279 981 1279 717 C1279 453 1147 249 846 249 C545 249 413 453 413 717 C413 981 545 1185 846 1185 L846 1185 Z M846 1802 C598 1802 490 1654 472 1536 L664 1536 C688 1595 744 1634 846 1634 C948 1634 1004 1595 1028 1536 L1220 1536 C1202 1654 1094 1802 846 1802 L846 1802 Z " />
<glyph glyph-name="uni020F" unicode="&#x20f;" horiz-adv-x="1312" d="M656 -30 C1024 -30 1262 193 1262 515 C1262 838 1024 1060 656 1060 C288 1060 50 838 50 515 C50 193 288 -30 656 -30 L656 -30 Z M656 222 C473 222 378 346 378 515 C378 684 473 808 656 808 C839 808 934 684 934 515 C934 346 839 222 656 222 L656 222 Z M656 1434 C408 1434 300 1286 282 1168 L474 1168 C498 1227 554 1266 656 1266 C758 1266 814 1227 838 1168 L1030 1168 C1012 1286 904 1434 656 1434 L656 1434 Z " />
<glyph glyph-name="uni0210" unicode="&#x210;" horiz-adv-x="1559" d="M423 1846 L90 1846 L404 1536 L674 1536 L423 1846 Z M813 1846 L480 1846 L794 1536 L1064 1536 L813 1846 Z M737 0 L737 289 L580 289 L580 534 L758 534 L1103 0 L1467 0 L1467 289 L1310 289 L1127 557 C1286 610 1453 745 1453 969 C1453 1232 1278 1434 889 1434 L90 1434 L90 1145 L247 1145 L247 289 L90 289 L90 0 L737 0 Z M889 1145 C1062 1145 1116 1073 1116 969 C1116 865 1062 793 889 793 L580 793 L580 1145 L889 1145 Z " />
<glyph glyph-name="uni0211" unicode="&#x211;" horiz-adv-x="1228" d="M1228 1012 C1163 1043 1081 1060 983 1060 C857 1060 768 1012 708 921 L708 1030 L223 1030 L223 778 L380 778 L380 252 L223 252 L223 0 L865 0 L865 252 L708 252 L708 534 C708 704 759 808 918 808 C991 808 1051 785 1084 764 L1228 1012 Z M403 1434 L70 1434 L384 1124 L654 1124 L403 1434 Z M793 1434 L460 1434 L774 1124 L1044 1124 L793 1434 Z " />
<glyph glyph-name="uni0212" unicode="&#x212;" horiz-adv-x="1557" d="M760 1802 C512 1802 404 1654 386 1536 L578 1536 C602 1595 658 1634 760 1634 C862 1634 918 1595 942 1536 L1134 1536 C1116 1654 1008 1802 760 1802 L760 1802 Z M737 0 L737 289 L580 289 L580 534 L758 534 L1103 0 L1467 0 L1467 289 L1310 289 L1127 557 C1286 610 1453 745 1453 969 C1453 1232 1278 1434 889 1434 L90 1434 L90 1145 L247 1145 L247 289 L90 289 L90 0 L737 0 Z M889 1145 C1062 1145 1116 1073 1116 969 C1116 865 1062 793 889 793 L580 793 L580 1145 L889 1145 Z " />
<glyph glyph-name="uni0213" unicode="&#x213;" horiz-adv-x="1075" d="M608 1434 C360 1434 252 1286 234 1168 L426 1168 C450 1227 506 1266 608 1266 C710 1266 766 1227 790 1168 L982 1168 C964 1286 856 1434 608 1434 L608 1434 Z M1075 1012 C1010 1043 928 1060 830 1060 C704 1060 615 1012 555 921 L555 1030 L70 1030 L70 778 L227 778 L227 252 L70 252 L70 0 L712 0 L712 252 L555 252 L555 534 C555 704 606 808 765 808 C838 808 898 785 931 764 L1075 1012 Z " />
<glyph glyph-name="uni0214" unicode="&#x214;" horiz-adv-x="1771" d="M580 651 L580 1145 L737 1145 L737 1434 L90 1434 L90 1145 L247 1145 L247 651 C247 231 427 -40 886 -40 C1344 -40 1524 231 1524 651 L1524 1145 L1681 1145 L1681 1434 L1034 1434 L1034 1145 L1191 1145 L1191 651 C1191 393 1128 249 886 249 C642 249 580 393 580 651 L580 651 Z M571 1846 L238 1846 L552 1536 L822 1536 L571 1846 Z M961 1846 L628 1846 L942 1536 L1212 1536 L961 1846 Z " />
<glyph glyph-name="uni0215" unicode="&#x215;" horiz-adv-x="1533" d="M978 0 L1463 0 L1463 252 L1306 252 L1306 1030 L821 1030 L821 778 L978 778 L978 496 C978 326 927 222 768 222 C609 222 558 326 558 496 L558 1030 L73 1030 L73 778 L230 778 L230 496 C230 169 362 -30 703 -30 C829 -30 918 18 978 109 L978 0 Z M403 1434 L70 1434 L384 1124 L654 1124 L403 1434 Z M793 1434 L460 1434 L774 1124 L1044 1124 L793 1434 Z " />
<glyph glyph-name="uni0216" unicode="&#x216;" horiz-adv-x="1771" d="M885 1802 C637 1802 529 1654 511 1536 L703 1536 C727 1595 783 1634 885 1634 C987 1634 1043 1595 1067 1536 L1259 1536 C1241 1654 1133 1802 885 1802 L885 1802 Z M580 651 L580 1145 L737 1145 L737 1434 L90 1434 L90 1145 L247 1145 L247 651 C247 231 427 -40 886 -40 C1344 -40 1524 231 1524 651 L1524 1145 L1681 1145 L1681 1434 L1034 1434 L1034 1145 L1191 1145 L1191 651 C1191 393 1128 249 886 249 C642 249 580 393 580 651 L580 651 Z " />
<glyph glyph-name="uni0217" unicode="&#x217;" horiz-adv-x="1530" d="M765 1434 C517 1434 409 1286 391 1168 L583 1168 C607 1227 663 1266 765 1266 C867 1266 923 1227 947 1168 L1139 1168 C1121 1286 1013 1434 765 1434 L765 1434 Z M975 0 L1460 0 L1460 252 L1303 252 L1303 1030 L818 1030 L818 778 L975 778 L975 496 C975 326 924 222 765 222 C606 222 555 326 555 496 L555 1030 L70 1030 L70 778 L227 778 L227 496 C227 169 359 -30 700 -30 C826 -30 915 18 975 109 L975 0 Z " />
<glyph glyph-name="Scommaaccent" unicode="&#x218;" horiz-adv-x="1390" d="M367 -532 L628 -532 L819 -108 L520 -108 L367 -532 Z M889 1008 L1222 1008 L1222 1374 C1222 1374 996 1474 666 1474 C254 1474 110 1266 110 1046 C110 815 271 651 651 572 C846 532 943 494 943 398 C943 304 867 249 666 249 C534 249 443 287 443 287 L443 439 L110 439 L110 132 C110 132 266 -40 666 -40 C1038 -40 1280 99 1280 398 C1280 667 1077 792 714 868 C540 904 447 949 447 1046 C447 1133 520 1185 666 1185 C774 1185 889 1165 889 1165 L889 1008 Z " />
<glyph glyph-name="scommaaccent" unicode="&#x219;" horiz-adv-x="1121" d="M240 -532 L501 -532 L692 -108 L393 -108 L240 -532 Z M398 332 L70 332 L70 95 C70 95 200 -30 544 -30 C818 -30 1051 57 1051 296 C1051 521 879 605 581 647 C469 663 398 684 398 736 C398 785 446 808 544 808 C612 808 672 799 672 799 L672 707 L1000 707 L1000 990 C1000 990 810 1060 544 1060 C240 1060 70 945 70 736 C70 550 212 443 527 395 C666 374 723 357 723 296 C723 238 662 222 544 222 C460 222 398 240 398 240 L398 332 Z " />
<glyph glyph-name="uni021A" unicode="&#x21a;" horiz-adv-x="1545" d="M469 -532 L730 -532 L921 -108 L622 -108 L469 -532 Z M1455 1434 L90 1434 L90 1008 L423 1008 L423 1145 L606 1145 L606 289 L449 289 L449 0 L1096 0 L1096 289 L939 289 L939 1145 L1122 1145 L1122 1008 L1455 1008 L1455 1434 Z " />
<glyph glyph-name="uni021B" unicode="&#x21b;" horiz-adv-x="921" d="M30 778 L224 778 L224 428 C224 125 321 -30 658 -30 C729 -30 825 -14 891 13 L821 247 C777 233 734 222 678 222 C565 222 552 324 552 428 L552 778 L842 778 L842 1030 L552 1030 L552 1329 L224 1329 L224 1030 L30 1030 L30 778 Z M278 -532 L539 -532 L730 -108 L431 -108 L278 -532 Z " />
<glyph glyph-name="uni021E" unicode="&#x21e;" horiz-adv-x="1785" d="M580 1145 L737 1145 L737 1434 L90 1434 L90 1145 L247 1145 L247 289 L90 289 L90 0 L737 0 L737 289 L580 289 L580 587 L1205 587 L1205 289 L1048 289 L1048 0 L1695 0 L1695 289 L1538 289 L1538 1145 L1695 1145 L1695 1434 L1048 1434 L1048 1145 L1205 1145 L1205 876 L580 876 L580 1145 Z M1296 1827 L1048 1827 L892 1718 L736 1827 L488 1827 L789 1536 L995 1536 L1296 1827 Z " />
<glyph glyph-name="uni021F" unicode="&#x21f;" horiz-adv-x="1530" d="M1170 1827 L922 1827 L766 1718 L610 1827 L362 1827 L663 1536 L869 1536 L1170 1827 Z M70 1516 L70 1264 L227 1264 L227 252 L70 252 L70 0 L712 0 L712 252 L555 252 L555 534 C555 704 606 808 765 808 C924 808 975 704 975 534 L975 0 L1460 0 L1460 252 L1303 252 L1303 534 C1303 861 1171 1060 830 1060 C704 1060 615 1012 555 921 L555 1516 L70 1516 Z " />
<glyph glyph-name="uni0224" unicode="&#x224;" horiz-adv-x="1453" d="M1311 1434 L110 1434 L110 1008 L443 1008 L443 1145 L822 1145 L90 176 L90 0 L1087 0 C1080 -2 942 -58 942 -217 C942 -448 1192 -498 1363 -498 L1363 -251 C1363 -251 1181 -251 1181 -141 C1181 -34 1311 0 1311 0 L1311 426 L978 426 L978 289 L580 289 L1311 1258 L1311 1434 Z " />
<glyph glyph-name="uni0225" unicode="&#x225;" horiz-adv-x="1177" d="M99 657 L427 657 L427 778 L610 778 L70 189 L70 0 L831 0 C824 -2 686 -58 686 -217 C686 -448 936 -498 1107 -498 L1107 -251 C1107 -251 925 -251 925 -141 C925 -34 1055 0 1055 0 L1055 373 L727 373 L727 252 L515 252 L1055 840 L1055 1030 L99 1030 L99 657 Z M99 657 L427 657 L427 778 L610 778 L70 189 L70 0 L1055 0 L1055 373 L727 373 L727 252 L515 252 L1055 840 L1055 1030 L99 1030 L99 657 Z " />
<glyph glyph-name="uni0226" unicode="&#x226;" horiz-adv-x="1670" d="M663 1708 C663 1613 740 1536 835 1536 C930 1536 1007 1613 1007 1708 C1007 1803 930 1880 835 1880 C740 1880 663 1803 663 1708 L663 1708 Z M1140 289 L993 289 L993 0 L1640 0 L1640 289 L1493 289 L1000 1434 L394 1434 L394 1145 L550 1145 L176 289 L30 289 L30 0 L677 0 L677 289 L529 289 L584 421 L1084 421 L1140 289 Z M835 1014 L967 700 L702 700 L835 1014 Z " />
<glyph glyph-name="uni0227" unicode="&#x227;" horiz-adv-x="1311" d="M453 1334 C453 1239 530 1162 625 1162 C720 1162 797 1239 797 1334 C797 1429 720 1506 625 1506 C530 1506 453 1429 453 1334 L453 1334 Z M755 0 L1241 0 L1241 252 L1084 252 L1084 635 C1084 915 979 1060 593 1060 C462 1060 277 1036 136 963 L245 753 C361 802 464 818 573 818 C734 818 756 762 756 670 C411 701 50 637 50 319 C50 76 238 -24 445 -24 C577 -24 700 10 755 135 L755 0 Z M378 349 C378 494 635 498 755 488 L755 399 C755 310 673 228 525 228 C421 228 378 279 378 349 L378 349 Z " />
<glyph glyph-name="uni0228" unicode="&#x228;" horiz-adv-x="1503" d="M90 0 L659 0 L576 -260 C680 -244 855 -223 844 -316 C833 -437 633 -400 562 -370 L509 -497 C669 -573 1007 -583 1027 -323 C1037 -190 932 -128 808 -125 L848 0 L1413 0 L1413 426 L1080 426 L1080 289 L580 289 L580 587 L1090 587 L1090 876 L580 876 L580 1145 L1070 1145 L1070 1008 L1403 1008 L1403 1434 L90 1434 L90 1145 L247 1145 L247 289 L90 289 L90 0 Z " />
<glyph glyph-name="uni0229" unicode="&#x229;" horiz-adv-x="1226" d="M373 -497 C533 -573 871 -583 891 -323 C901 -190 796 -128 672 -125 L703 -27 C887 -13 1018 47 1111 122 L949 306 C885 262 783 212 620 212 C443 212 391 306 391 394 L1170 394 C1210 811 1011 1060 620 1060 C217 1060 50 797 50 515 C50 258 180 17 516 -24 L440 -260 C544 -244 719 -223 708 -316 C697 -437 497 -400 426 -370 L373 -497 Z M392 606 C392 696 442 818 620 818 C798 818 848 696 848 606 L392 606 Z " />
<glyph glyph-name="uni022A" unicode="&#x22a;" horiz-adv-x="1692" d="M846 1474 C306 1474 70 1118 70 717 C70 316 306 -40 846 -40 C1386 -40 1622 316 1622 717 C1622 1118 1386 1474 846 1474 L846 1474 Z M846 1185 C1147 1185 1279 981 1279 717 C1279 453 1147 249 846 249 C545 249 413 453 413 717 C413 981 545 1185 846 1185 L846 1185 Z M436 1708 C436 1613 513 1536 608 1536 C703 1536 780 1613 780 1708 C780 1803 703 1880 608 1880 C513 1880 436 1803 436 1708 L436 1708 Z M913 1708 C913 1613 990 1536 1085 1536 C1180 1536 1257 1613 1257 1708 C1257 1803 1180 1880 1085 1880 C990 1880 913 1803 913 1708 L913 1708 Z M409 1940 L1283 1940 L1283 2192 L409 2192 L409 1940 Z " />
<glyph glyph-name="uni022B" unicode="&#x22b;" horiz-adv-x="1312" d="M656 -30 C1024 -30 1262 193 1262 515 C1262 838 1024 1060 656 1060 C288 1060 50 838 50 515 C50 193 288 -30 656 -30 L656 -30 Z M656 222 C473 222 378 346 378 515 C378 684 473 808 656 808 C839 808 934 684 934 515 C934 346 839 222 656 222 L656 222 Z M246 1334 C246 1239 323 1162 418 1162 C513 1162 590 1239 590 1334 C590 1429 513 1506 418 1506 C323 1506 246 1429 246 1334 L246 1334 Z M723 1334 C723 1239 800 1162 895 1162 C990 1162 1067 1239 1067 1334 C1067 1429 990 1506 895 1506 C800 1506 723 1429 723 1334 L723 1334 Z M219 1566 L1093 1566 L1093 1818 L219 1818 L219 1566 Z " />
<glyph glyph-name="uni022C" unicode="&#x22c;" horiz-adv-x="1692" d="M846 1474 C306 1474 70 1118 70 717 C70 316 306 -40 846 -40 C1386 -40 1622 316 1622 717 C1622 1118 1386 1474 846 1474 L846 1474 Z M846 1185 C1147 1185 1279 981 1279 717 C1279 453 1147 249 846 249 C545 249 413 453 413 717 C413 981 545 1185 846 1185 L846 1185 Z M818 1590 C862 1555 912 1536 973 1536 C1237 1536 1238 1815 1238 1815 L1033 1815 C1033 1815 1025 1737 968 1737 C941 1737 913 1750 875 1783 C831 1818 781 1837 720 1837 C456 1837 455 1558 455 1558 L660 1558 C660 1558 668 1636 725 1636 C752 1636 780 1623 818 1590 L818 1590 Z M409 1877 L1283 1877 L1283 2129 L409 2129 L409 1877 Z " />
<glyph glyph-name="uni022D" unicode="&#x22d;" horiz-adv-x="1312" d="M656 -30 C1024 -30 1262 193 1262 515 C1262 838 1024 1060 656 1060 C288 1060 50 838 50 515 C50 193 288 -30 656 -30 L656 -30 Z M656 222 C473 222 378 346 378 515 C378 684 473 808 656 808 C839 808 934 684 934 515 C934 346 839 222 656 222 L656 222 Z M628 1207 C672 1172 722 1153 783 1153 C1047 1153 1048 1432 1048 1432 L843 1432 C843 1432 835 1354 778 1354 C751 1354 723 1367 685 1400 C641 1435 591 1454 530 1454 C266 1454 265 1175 265 1175 L470 1175 C470 1175 478 1253 535 1253 C562 1253 590 1240 628 1207 L628 1207 Z M219 1494 L1093 1494 L1093 1746 L219 1746 L219 1494 Z " />
<glyph glyph-name="uni022E" unicode="&#x22e;" horiz-adv-x="1692" d="M846 1474 C306 1474 70 1118 70 717 C70 316 306 -40 846 -40 C1386 -40 1622 316 1622 717 C1622 1118 1386 1474 846 1474 L846 1474 Z M846 1185 C1147 1185 1279 981 1279 717 C1279 453 1147 249 846 249 C545 249 413 453 413 717 C413 981 545 1185 846 1185 L846 1185 Z M673 1708 C673 1613 750 1536 845 1536 C940 1536 1017 1613 1017 1708 C1017 1803 940 1880 845 1880 C750 1880 673 1803 673 1708 L673 1708 Z " />
<glyph glyph-name="uni022F" unicode="&#x22f;" horiz-adv-x="1312" d="M656 -30 C1024 -30 1262 193 1262 515 C1262 838 1024 1060 656 1060 C288 1060 50 838 50 515 C50 193 288 -30 656 -30 L656 -30 Z M656 222 C473 222 378 346 378 515 C378 684 473 808 656 808 C839 808 934 684 934 515 C934 346 839 222 656 222 L656 222 Z M484 1334 C484 1239 561 1162 656 1162 C751 1162 828 1239 828 1334 C828 1429 751 1506 656 1506 C561 1506 484 1429 484 1334 L484 1334 Z " />
<glyph glyph-name="uni0230" unicode="&#x230;" horiz-adv-x="1692" d="M846 1474 C306 1474 70 1118 70 717 C70 316 306 -40 846 -40 C1386 -40 1622 316 1622 717 C1622 1118 1386 1474 846 1474 L846 1474 Z M846 1185 C1147 1185 1279 981 1279 717 C1279 453 1147 249 846 249 C545 249 413 453 413 717 C413 981 545 1185 846 1185 L846 1185 Z M675 1708 C675 1613 752 1536 847 1536 C942 1536 1019 1613 1019 1708 C1019 1803 942 1880 847 1880 C752 1880 675 1803 675 1708 L675 1708 Z M410 1940 L1284 1940 L1284 2192 L410 2192 L410 1940 Z " />
<glyph glyph-name="uni0231" unicode="&#x231;" horiz-adv-x="1312" d="M656 -30 C1024 -30 1262 193 1262 515 C1262 838 1024 1060 656 1060 C288 1060 50 838 50 515 C50 193 288 -30 656 -30 L656 -30 Z M656 222 C473 222 378 346 378 515 C378 684 473 808 656 808 C839 808 934 684 934 515 C934 346 839 222 656 222 L656 222 Z M484 1334 C484 1239 561 1162 656 1162 C751 1162 828 1239 828 1334 C828 1429 751 1506 656 1506 C561 1506 484 1429 484 1334 L484 1334 Z M219 1566 L1093 1566 L1093 1818 L219 1818 L219 1566 Z " />
<glyph glyph-name="uni0232" unicode="&#x232;" horiz-adv-x="1581" d="M353 1556 L1227 1556 L1227 1808 L353 1808 L353 1556 Z M624 496 L624 289 L467 289 L467 0 L1114 0 L1114 289 L957 289 L957 496 L1395 1145 L1551 1145 L1551 1434 L904 1434 L904 1145 L1019 1145 L790 805 L561 1145 L677 1145 L677 1434 L30 1434 L30 1145 L185 1145 L624 496 Z " />
<glyph glyph-name="uni0233" unicode="&#x233;" horiz-adv-x="1418" d="M272 1182 L1146 1182 L1146 1434 L272 1434 L272 1182 Z M1348 778 L1348 1030 L786 1030 L786 778 L862 778 L709 358 L555 778 L632 778 L632 1030 L70 1030 L70 778 L229 778 L562 0 L489 -166 C457 -240 423 -280 333 -280 L184 -280 L184 -532 L347 -532 C570 -532 672 -428 733 -289 L856 0 L1189 778 L1348 778 Z " />
<glyph glyph-name="uni0238" unicode="&#x238;" horiz-adv-x="2156" d="M2106 515 C2106 857 1886 1060 1580 1060 C1415 1060 1303 986 1242 894 L1242 1264 L1399 1264 L1399 1516 L757 1516 L757 1264 L914 1264 L914 894 C853 986 741 1060 576 1060 C270 1060 50 857 50 515 C50 173 270 -30 576 -30 C741 -30 853 44 914 136 L914 0 L1242 0 L1242 136 C1303 44 1415 -30 1580 -30 C1886 -30 2106 173 2106 515 L2106 515 Z M1778 515 C1778 346 1683 222 1510 222 C1337 222 1242 346 1242 515 C1242 684 1337 808 1510 808 C1683 808 1778 684 1778 515 L1778 515 Z M378 515 C378 684 473 808 646 808 C819 808 914 684 914 515 C914 346 819 222 646 222 C473 222 378 346 378 515 L378 515 Z " />
<glyph glyph-name="uni0239" unicode="&#x239;" horiz-adv-x="2156" d="M914 136 L914 -280 L757 -280 L757 -532 L1399 -532 L1399 -280 L1242 -280 L1242 136 C1303 44 1415 -30 1580 -30 C1886 -30 2106 173 2106 515 C2106 857 1886 1060 1580 1060 C1415 1060 1303 986 1242 894 L1242 1030 L914 1030 L914 894 C853 986 741 1060 576 1060 C270 1060 50 857 50 515 C50 173 270 -30 576 -30 C741 -30 853 44 914 136 L914 136 Z M378 515 C378 684 473 808 646 808 C819 808 914 684 914 515 C914 346 819 222 646 222 C473 222 378 346 378 515 L378 515 Z M1778 515 C1778 346 1683 222 1510 222 C1337 222 1242 346 1242 515 C1242 684 1337 808 1510 808 C1683 808 1778 684 1778 515 L1778 515 Z " />
<glyph glyph-name="uni024C" unicode="&#x24c;" horiz-adv-x="1650" d="M830 0 L830 289 L673 289 L673 534 L851 534 L1196 0 L1560 0 L1560 289 L1403 289 L1220 557 C1379 610 1546 745 1546 969 C1546 1232 1371 1434 982 1434 L183 1434 L183 1145 L340 1145 L340 793 L90 793 L90 534 L340 534 L340 289 L183 289 L183 0 L830 0 Z M982 1145 C1155 1145 1209 1073 1209 969 C1209 865 1155 793 982 793 L673 793 L673 1145 L982 1145 Z " />
<glyph glyph-name="uni024D" unicode="&#x24d;" horiz-adv-x="1155" d="M1155 1012 C1090 1043 1008 1060 910 1060 C784 1060 695 1012 635 921 L635 1030 L150 1030 L150 778 L307 778 L307 582 L70 582 L70 330 L307 330 L307 252 L150 252 L150 0 L792 0 L792 252 L635 252 L635 330 L873 330 L873 582 L636 582 C646 723 701 808 845 808 C918 808 978 785 1011 764 L1155 1012 Z " />
<glyph glyph-name="uni024E" unicode="&#x24e;" horiz-adv-x="1581" d="M126 796 L421 796 L624 496 L624 289 L467 289 L467 0 L1114 0 L1114 289 L957 289 L957 496 L1159 796 L1454 796 L1454 1045 L1327 1045 L1395 1145 L1551 1145 L1551 1434 L904 1434 L904 1145 L1019 1145 L951 1045 L628 1045 L561 1145 L677 1145 L677 1434 L30 1434 L30 1145 L185 1145 L252 1045 L126 1045 L126 796 Z " />
<glyph glyph-name="uni024F" unicode="&#x24f;" horiz-adv-x="1432" d="M1355 778 L1355 1030 L793 1030 L793 778 L869 778 L836 689 L594 689 L562 778 L639 778 L639 1030 L77 1030 L77 778 L236 778 L274 689 L70 689 L70 437 L382 437 L569 0 L496 -166 C464 -240 430 -280 340 -280 L191 -280 L191 -532 L354 -532 C577 -532 679 -428 740 -289 L863 0 L1050 437 L1362 437 L1362 689 L1158 689 L1196 778 L1355 778 Z M687 437 L745 437 L716 358 L687 437 Z " />
<glyph glyph-name="circumflex" unicode="&#x2c6;" horiz-adv-x="948" d="M577 1434 L371 1434 L70 1143 L318 1143 L474 1252 L630 1143 L878 1143 L577 1434 Z " />
<glyph glyph-name="caron" unicode="&#x2c7;" horiz-adv-x="908" d="M858 1434 L610 1434 L454 1325 L298 1434 L50 1434 L351 1143 L557 1143 L858 1434 Z " />
<glyph glyph-name="uni02C8" unicode="&#x2c8;" horiz-adv-x="468" d="M70 967 L398 967 L398 1434 L70 1434 L70 967 Z " />
<glyph glyph-name="uni02C9" unicode="&#x2c9;" horiz-adv-x="1054" d="M90 1182 L964 1182 L964 1434 L90 1434 L90 1182 Z " />
<glyph glyph-name="uni02CA" unicode="&#x2ca;" horiz-adv-x="724" d="M70 1124 L340 1124 L654 1434 L321 1434 L70 1124 Z " />
<glyph glyph-name="uni02CB" unicode="&#x2cb;" horiz-adv-x="724" d="M403 1434 L70 1434 L384 1124 L654 1124 L403 1434 Z " />
<glyph glyph-name="uni02CC" unicode="&#x2cc;" horiz-adv-x="468" d="M70 -532 L398 -532 L398 -65 L70 -65 L70 -532 Z " />
<glyph glyph-name="uni02CD" unicode="&#x2cd;" horiz-adv-x="1014" d="M70 -532 L944 -532 L944 -280 L70 -280 L70 -532 Z " />
<glyph glyph-name="uni02CE" unicode="&#x2ce;" horiz-adv-x="724" d="M403 -222 L70 -222 L384 -532 L654 -532 L403 -222 Z " />
<glyph glyph-name="uni02CF" unicode="&#x2cf;" horiz-adv-x="724" d="M70 -532 L340 -532 L654 -222 L321 -222 L70 -532 Z " />
<glyph glyph-name="uni02D0" unicode="&#x2d0;" horiz-adv-x="598" d="M70 1030 L299 642 L528 1030 L70 1030 Z M528 0 L299 388 L70 0 L528 0 Z " />
<glyph glyph-name="uni02D1" unicode="&#x2d1;" horiz-adv-x="598" d="M70 1030 L299 642 L528 1030 L70 1030 Z " />
<glyph glyph-name="uni02D2" unicode="&#x2d2;" horiz-adv-x="473" d="M279 715 C279 791 318 849 403 849 L403 1024 C185 1024 70 885 70 715 C70 545 185 406 403 406 L403 581 C318 581 279 639 279 715 L279 715 Z " />
<glyph glyph-name="uni02D3" unicode="&#x2d3;" horiz-adv-x="473" d="M194 715 C194 639 155 581 70 581 L70 406 C288 406 403 545 403 715 C403 885 288 1024 70 1024 L70 849 C155 849 194 791 194 715 L194 715 Z " />
<glyph glyph-name="uni02D4" unicode="&#x2d4;" horiz-adv-x="857" d="M70 557 L787 557 L787 782 L563 782 L563 1030 L294 1030 L294 782 L70 782 L70 557 Z " />
<glyph glyph-name="uni02D5" unicode="&#x2d5;" horiz-adv-x="857" d="M70 248 L294 248 L294 0 L563 0 L563 248 L787 248 L787 473 L70 473 L70 248 Z " />
<glyph glyph-name="uni02D6" unicode="&#x2d6;" horiz-adv-x="1063" d="M140 527 L407 527 L407 261 L656 261 L656 527 L923 527 L923 776 L656 776 L656 1042 L407 1042 L407 776 L140 776 L140 527 Z " />
<glyph glyph-name="uni02D7" unicode="&#x2d7;" horiz-adv-x="883" d="M70 527 L813 527 L813 776 L70 776 L70 527 Z " />
<glyph glyph-name="breve" unicode="&#x2d8;" horiz-adv-x="848" d="M424 1168 C672 1168 780 1316 798 1434 L606 1434 C582 1375 526 1336 424 1336 C322 1336 266 1375 242 1434 L50 1434 C68 1316 176 1168 424 1168 L424 1168 Z " />
<glyph glyph-name="dotaccent" unicode="&#x2d9;" horiz-adv-x="404" d="M30 1334 C30 1239 107 1162 202 1162 C297 1162 374 1239 374 1334 C374 1429 297 1506 202 1506 C107 1506 30 1429 30 1334 L30 1334 Z " />
<glyph glyph-name="ring" unicode="&#x2da;" horiz-adv-x="632" d="M70 1370 C70 1234 180 1124 316 1124 C452 1124 562 1234 562 1370 C562 1506 452 1616 316 1616 C180 1616 70 1506 70 1370 L70 1370 Z M232 1370 C232 1416 270 1454 316 1454 C362 1454 400 1416 400 1370 C400 1324 362 1286 316 1286 C270 1286 232 1324 232 1370 L232 1370 Z " />
<glyph glyph-name="ogonek" unicode="&#x2db;" horiz-adv-x="521" d="M196 0 C196 0 50 -54 50 -217 C50 -448 300 -498 471 -498 L471 -251 C471 -251 289 -251 289 -141 C289 -34 419 0 419 0 L196 0 Z " />
<glyph glyph-name="tilde" unicode="&#x2dc;" horiz-adv-x="923" d="M433 1207 C477 1172 527 1153 588 1153 C852 1153 853 1432 853 1432 L648 1432 C648 1432 640 1354 583 1354 C556 1354 528 1367 490 1400 C446 1435 396 1454 335 1454 C71 1454 70 1175 70 1175 L275 1175 C275 1175 283 1253 340 1253 C367 1253 395 1240 433 1207 L433 1207 Z " />
<glyph glyph-name="hungarumlaut" unicode="&#x2dd;" horiz-adv-x="844" d="M70 1174 L281 1174 L430 1516 L161 1516 L70 1174 Z M414 1174 L625 1174 L774 1516 L505 1516 L414 1174 Z " />
<glyph glyph-name="gravecomb" unicode="&#x300;" horiz-adv-x="764" d="M423 1434 L90 1434 L404 1124 L674 1124 L423 1434 Z " />
<glyph glyph-name="acutecomb" unicode="&#x301;" horiz-adv-x="764" d="M90 1124 L360 1124 L674 1434 L341 1434 L90 1124 Z " />
<glyph glyph-name="uni0302" unicode="&#x302;" horiz-adv-x="948" d="M577 1434 L371 1434 L70 1143 L318 1143 L474 1252 L630 1143 L878 1143 L577 1434 Z " />
<glyph glyph-name="tildecomb" unicode="&#x303;" horiz-adv-x="963" d="M453 1207 C497 1172 547 1153 608 1153 C872 1153 873 1432 873 1432 L668 1432 C668 1432 660 1354 603 1354 C576 1354 548 1367 510 1400 C466 1435 416 1454 355 1454 C91 1454 90 1175 90 1175 L295 1175 C295 1175 303 1253 360 1253 C387 1253 415 1240 453 1207 L453 1207 Z " />
<glyph glyph-name="uni0304" unicode="&#x304;" horiz-adv-x="1014" d="M70 1182 L944 1182 L944 1434 L70 1434 L70 1182 Z " />
<glyph glyph-name="uni0305" unicode="&#x305;" horiz-adv-x="1014" d="M70 1182 L944 1182 L944 1434 L70 1434 L70 1182 Z " />
<glyph glyph-name="uni0306" unicode="&#x306;" horiz-adv-x="888" d="M444 1168 C692 1168 800 1316 818 1434 L626 1434 C602 1375 546 1336 444 1336 C342 1336 286 1375 262 1434 L70 1434 C88 1316 196 1168 444 1168 L444 1168 Z " />
<glyph glyph-name="uni0307" unicode="&#x307;" horiz-adv-x="484" d="M70 1334 C70 1239 147 1162 242 1162 C337 1162 414 1239 414 1334 C414 1429 337 1506 242 1506 C147 1506 70 1429 70 1334 L70 1334 Z " />
<glyph glyph-name="uni0308" unicode="&#x308;" horiz-adv-x="961" d="M70 1334 C70 1239 147 1162 242 1162 C337 1162 414 1239 414 1334 C414 1429 337 1506 242 1506 C147 1506 70 1429 70 1334 L70 1334 Z M547 1334 C547 1239 624 1162 719 1162 C814 1162 891 1239 891 1334 C891 1429 814 1506 719 1506 C624 1506 547 1429 547 1334 L547 1334 Z " />
<glyph glyph-name="hookabovecomb" unicode="&#x309;" horiz-adv-x="653" d="M90 991 C293 991 563 1023 563 1434 L285 1434 C285 1295 196 1231 90 1231 L90 991 Z " />
<glyph glyph-name="uni030A" unicode="&#x30a;" horiz-adv-x="632" d="M70 1370 C70 1234 180 1124 316 1124 C452 1124 562 1234 562 1370 C562 1506 452 1616 316 1616 C180 1616 70 1506 70 1370 L70 1370 Z M232 1370 C232 1416 270 1454 316 1454 C362 1454 400 1416 400 1370 C400 1324 362 1286 316 1286 C270 1286 232 1324 232 1370 L232 1370 Z " />
<glyph glyph-name="uni030B" unicode="&#x30b;" horiz-adv-x="1069" d="M70 892 L351 892 L600 1434 L281 1434 L70 892 Z M469 892 L750 892 L999 1434 L680 1434 L469 892 Z " />
<glyph glyph-name="uni030C" unicode="&#x30c;" horiz-adv-x="948" d="M878 1434 L630 1434 L474 1325 L318 1434 L70 1434 L371 1143 L577 1143 L878 1434 Z " />
<glyph glyph-name="uni030D" unicode="&#x30d;" horiz-adv-x="468" d="M70 967 L398 967 L398 1434 L70 1434 L70 967 Z " />
<glyph glyph-name="uni030E" unicode="&#x30e;" horiz-adv-x="876" d="M70 967 L398 967 L398 1434 L70 1434 L70 967 Z M478 967 L806 967 L806 1434 L478 1434 L478 967 Z " />
<glyph glyph-name="uni030F" unicode="&#x30f;" horiz-adv-x="1069" d="M788 1434 L469 1434 L718 892 L999 892 L788 1434 Z M389 1434 L70 1434 L319 892 L600 892 L389 1434 Z " />
<glyph glyph-name="uni0310" unicode="&#x310;" horiz-adv-x="888" d="M318 1560 C318 1490 375 1434 445 1434 C514 1434 571 1490 571 1560 C571 1630 514 1687 445 1687 C375 1687 318 1630 318 1560 L318 1560 Z M444 1168 C692 1168 800 1316 818 1434 L626 1434 C602 1375 546 1336 444 1336 C342 1336 286 1375 262 1434 L70 1434 C88 1316 196 1168 444 1168 L444 1168 Z " />
<glyph glyph-name="uni0311" unicode="&#x311;" horiz-adv-x="888" d="M444 1434 C196 1434 88 1286 70 1168 L262 1168 C286 1227 342 1266 444 1266 C546 1266 602 1227 626 1168 L818 1168 C800 1286 692 1434 444 1434 L444 1434 Z " />
<glyph glyph-name="uni0312" unicode="&#x312;" horiz-adv-x="670" d="M600 1434 L319 1434 L70 892 L389 892 L600 1434 Z " />
<glyph glyph-name="uni0313" unicode="&#x313;" horiz-adv-x="670" d="M70 892 L351 892 L600 1434 L281 1434 L70 892 Z " />
<glyph glyph-name="uni0314" unicode="&#x314;" horiz-adv-x="670" d="M389 1434 L70 1434 L319 892 L600 892 L389 1434 Z " />
<glyph glyph-name="uni0315" unicode="&#x315;" horiz-adv-x="670" d="M70 892 L351 892 L600 1434 L281 1434 L70 892 Z " />
<glyph glyph-name="uni0316" unicode="&#x316;" horiz-adv-x="724" d="M403 -222 L70 -222 L384 -532 L654 -532 L403 -222 Z " />
<glyph glyph-name="uni0317" unicode="&#x317;" horiz-adv-x="724" d="M70 -532 L340 -532 L654 -222 L321 -222 L70 -532 Z " />
<glyph glyph-name="uni0318" unicode="&#x318;" horiz-adv-x="533" d="M255 -70 L255 -197 L70 -197 L70 -405 L255 -405 L255 -532 L463 -532 L463 -70 L255 -70 Z " />
<glyph glyph-name="uni0319" unicode="&#x319;" horiz-adv-x="533" d="M70 -70 L70 -532 L278 -532 L278 -405 L463 -405 L463 -197 L278 -197 L278 -70 L70 -70 Z " />
<glyph glyph-name="uni031A" unicode="&#x31a;" horiz-adv-x="559" d="M70 1434 L70 1246 L281 1246 L281 1042 L489 1042 L489 1434 L70 1434 Z " />
<glyph glyph-name="uni031B" unicode="&#x31b;" horiz-adv-x="562" d="M245 1434 C245 1358 222 1255 70 1255 L70 1031 C500 1031 491 1379 491 1434 L245 1434 Z " />
<glyph glyph-name="uni031C" unicode="&#x31c;" horiz-adv-x="473" d="M279 0 C279 76 318 134 403 134 L403 309 C185 309 70 170 70 0 C70 -170 185 -309 403 -309 L403 -134 C318 -134 279 -76 279 0 L279 0 Z " />
<glyph glyph-name="uni031D" unicode="&#x31d;" horiz-adv-x="658" d="M225 -177 L225 -344 L70 -344 L70 -532 L588 -532 L588 -344 L433 -344 L433 -177 L225 -177 Z " />
<glyph glyph-name="uni031E" unicode="&#x31e;" horiz-adv-x="658" d="M433 -532 L433 -365 L588 -365 L588 -177 L70 -177 L70 -365 L225 -365 L225 -532 L433 -532 Z " />
<glyph glyph-name="uni031F" unicode="&#x31f;" horiz-adv-x="634" d="M564 80 L401 80 L401 254 L233 254 L233 80 L70 80 L70 -77 L233 -77 L233 -251 L401 -251 L401 -77 L564 -77 L564 80 Z " />
<glyph glyph-name="uni0320" unicode="&#x320;" horiz-adv-x="594" d="M524 80 L70 80 L70 -77 L524 -77 L524 80 Z " />
<glyph glyph-name="uni0321" unicode="&#x321;" horiz-adv-x="668" d="M367 206 C367 -53 301 -157 70 -157 L70 -365 C472 -365 598 -200 598 206 L367 206 Z " />
<glyph glyph-name="uni0322" unicode="&#x322;" horiz-adv-x="668" d="M70 206 C70 -200 196 -365 598 -365 L598 -157 C367 -157 301 -53 301 206 L70 206 Z " />
<glyph glyph-name="dotbelowcomb" unicode="&#x323;" horiz-adv-x="524" d="M90 -320 C90 -415 167 -492 262 -492 C357 -492 434 -415 434 -320 C434 -225 357 -148 262 -148 C167 -148 90 -225 90 -320 L90 -320 Z " />
<glyph glyph-name="uni0324" unicode="&#x324;" horiz-adv-x="961" d="M70 -322 C70 -417 147 -494 242 -494 C337 -494 414 -417 414 -322 C414 -227 337 -150 242 -150 C147 -150 70 -227 70 -322 L70 -322 Z M547 -322 C547 -417 624 -494 719 -494 C814 -494 891 -417 891 -322 C891 -227 814 -150 719 -150 C624 -150 547 -227 547 -322 L547 -322 Z " />
<glyph glyph-name="uni0325" unicode="&#x325;" horiz-adv-x="632" d="M70 -286 C70 -422 180 -532 316 -532 C452 -532 562 -422 562 -286 C562 -150 452 -40 316 -40 C180 -40 70 -150 70 -286 L70 -286 Z M232 -286 C232 -240 270 -202 316 -202 C362 -202 400 -240 400 -286 C400 -332 362 -370 316 -370 C270 -370 232 -332 232 -286 L232 -286 Z " />
<glyph glyph-name="commaaccent" unicode="&#x326;" horiz-adv-x="632" d="M90 -532 L351 -532 L542 -108 L243 -108 L90 -532 Z " />
<glyph glyph-name="uni0327" unicode="&#x327;" horiz-adv-x="659" d="M70 -497 C230 -573 568 -583 588 -323 C598 -190 493 -128 369 -125 L433 73 L244 73 L137 -260 C241 -244 416 -223 405 -316 C394 -437 194 -400 123 -370 L70 -497 Z " />
<glyph glyph-name="uni0328" unicode="&#x328;" horiz-adv-x="561" d="M216 0 C216 0 70 -54 70 -217 C70 -448 320 -498 491 -498 L491 -251 C491 -251 309 -251 309 -141 C309 -34 439 0 439 0 L216 0 Z " />
<glyph glyph-name="uni0329" unicode="&#x329;" horiz-adv-x="468" d="M70 -532 L398 -532 L398 -65 L70 -65 L70 -532 Z " />
<glyph glyph-name="uni032A" unicode="&#x32a;" horiz-adv-x="906" d="M70 -532 L302 -532 L302 -394 L604 -394 L604 -532 L836 -532 L836 -205 L70 -205 L70 -532 Z " />
<glyph glyph-name="uni032B" unicode="&#x32b;" horiz-adv-x="846" d="M423 -478 C448 -534 495 -572 570 -572 C741 -572 776 -440 776 -309 L776 -173 L597 -173 L597 -309 C597 -361 578 -380 550 -380 C511 -380 500 -336 500 -237 L346 -237 C346 -336 335 -380 296 -380 C268 -380 249 -361 249 -309 L249 -173 L70 -173 L70 -309 C70 -440 105 -572 276 -572 C351 -572 398 -534 423 -478 L423 -478 Z " />
<glyph glyph-name="uni032C" unicode="&#x32c;" horiz-adv-x="948" d="M878 -241 L630 -241 L474 -350 L318 -241 L70 -241 L371 -532 L577 -532 L878 -241 Z " />
<glyph glyph-name="uni032D" unicode="&#x32d;" horiz-adv-x="948" d="M577 -241 L371 -241 L70 -532 L318 -532 L474 -423 L630 -532 L878 -532 L577 -241 Z " />
<glyph glyph-name="uni032E" unicode="&#x32e;" horiz-adv-x="888" d="M444 -532 C692 -532 800 -384 818 -266 L626 -266 C602 -325 546 -364 444 -364 C342 -364 286 -325 262 -266 L70 -266 C88 -384 196 -532 444 -532 L444 -532 Z " />
<glyph glyph-name="uni032F" unicode="&#x32f;" horiz-adv-x="888" d="M444 -266 C196 -266 88 -414 70 -532 L262 -532 C286 -473 342 -434 444 -434 C546 -434 602 -473 626 -532 L818 -532 C800 -414 692 -266 444 -266 L444 -266 Z " />
<glyph glyph-name="uni0330" unicode="&#x330;" horiz-adv-x="923" d="M433 -406 C477 -441 527 -460 588 -460 C852 -460 853 -181 853 -181 L648 -181 C648 -181 640 -259 583 -259 C556 -259 528 -246 490 -213 C446 -178 396 -159 335 -159 C71 -159 70 -438 70 -438 L275 -438 C275 -438 283 -360 340 -360 C367 -360 395 -373 433 -406 L433 -406 Z " />
<glyph glyph-name="uni0331" unicode="&#x331;" horiz-adv-x="1014" d="M70 -532 L944 -532 L944 -280 L70 -280 L70 -532 Z " />
<glyph glyph-name="uni0332" unicode="&#x332;" horiz-adv-x="1207" d="M90 -361 L1117 -361 L1117 -109 L90 -109 L90 -361 Z " />
<glyph glyph-name="uni0333" unicode="&#x333;" horiz-adv-x="1207" d="M90 -677 L1117 -677 L1117 -425 L90 -425 L90 -677 Z M90 -361 L1117 -361 L1117 -109 L90 -109 L90 -361 Z " />
<glyph glyph-name="uni0334" unicode="&#x334;" horiz-adv-x="923" d="M433 582 C477 547 527 528 588 528 C852 528 853 807 853 807 L648 807 C648 807 640 729 583 729 C556 729 528 742 490 775 C446 810 396 829 335 829 C71 829 70 550 70 550 L275 550 C275 550 283 628 340 628 C367 628 395 615 433 582 L433 582 Z " />
<glyph glyph-name="uni0335" unicode="&#x335;" horiz-adv-x="910" d="M840 806 L70 806 L70 554 L840 554 L840 806 Z " />
<glyph glyph-name="uni0336" unicode="&#x336;" horiz-adv-x="1148" d="M1078 806 L70 806 L70 554 L1078 554 L1078 806 Z " />
<glyph glyph-name="uni0337" unicode="&#x337;" horiz-adv-x="1323" d="M884 1143 L70 194 L439 194 L1253 1143 L884 1143 Z " />
<glyph glyph-name="uni0338" unicode="&#x338;" horiz-adv-x="1408" d="M70 0 L433 0 L1338 1434 L975 1434 L70 0 Z " />
<glyph glyph-name="uni0339" unicode="&#x339;" horiz-adv-x="473" d="M194 0 C194 -76 155 -134 70 -134 L70 -309 C288 -309 403 -170 403 0 C403 170 288 309 70 309 L70 134 C155 134 194 76 194 0 L194 0 Z " />
<glyph glyph-name="uni033A" unicode="&#x33a;" horiz-adv-x="906" d="M70 -532 L836 -532 L836 -205 L604 -205 L604 -343 L302 -343 L302 -205 L70 -205 L70 -532 Z " />
<glyph glyph-name="uni033B" unicode="&#x33b;" horiz-adv-x="578" d="M70 -532 L508 -532 L508 -104 L70 -104 L70 -532 Z M230 -264 L348 -264 L348 -372 L230 -372 L230 -264 Z " />
<glyph glyph-name="uni033C" unicode="&#x33c;" horiz-adv-x="846" d="M423 -291 C398 -235 351 -197 276 -197 C105 -197 70 -329 70 -460 L70 -489 L249 -489 L249 -460 C249 -408 268 -389 296 -389 C335 -389 346 -433 346 -532 L500 -532 C500 -433 511 -389 550 -389 C578 -389 597 -408 597 -460 L597 -489 L776 -489 L776 -460 C776 -329 741 -197 570 -197 C495 -197 448 -235 423 -291 L423 -291 Z " />
<glyph glyph-name="uni033D" unicode="&#x33d;" horiz-adv-x="1062" d="M697 1173 L992 1434 L660 1434 L531 1320 L402 1434 L70 1434 L365 1173 L70 912 L402 912 L531 1026 L660 912 L992 912 L697 1173 Z " />
<glyph glyph-name="uni033E" unicode="&#x33e;" horiz-adv-x="441" d="M317 1426 C352 1470 371 1520 371 1581 C371 1825 92 1826 92 1826 L92 1641 C92 1641 170 1633 170 1576 C170 1549 157 1521 124 1483 C89 1439 70 1389 70 1328 C70 1084 349 1083 349 1083 L349 1268 C349 1268 271 1276 271 1333 C271 1360 284 1388 317 1426 L317 1426 Z " />
<glyph glyph-name="uni033F" unicode="&#x33f;" horiz-adv-x="1207" d="M90 1516 L1117 1516 L1117 1768 L90 1768 L90 1516 Z M90 1832 L1117 1832 L1117 2084 L90 2084 L90 1832 Z " />
<glyph glyph-name="uni0340" unicode="&#x340;" horiz-adv-x="724" d="M403 1434 L70 1434 L384 1124 L654 1124 L403 1434 Z " />
<glyph glyph-name="uni0341" unicode="&#x341;" horiz-adv-x="724" d="M70 1124 L340 1124 L654 1434 L321 1434 L70 1124 Z " />
<glyph glyph-name="uni0342" unicode="&#x342;" horiz-adv-x="923" d="M433 1207 C477 1172 527 1153 588 1153 C852 1153 853 1432 853 1432 L648 1432 C648 1432 640 1354 583 1354 C556 1354 528 1367 490 1400 C446 1435 396 1454 335 1454 C71 1454 70 1175 70 1175 L275 1175 C275 1175 283 1253 340 1253 C367 1253 395 1240 433 1207 L433 1207 Z " />
<glyph glyph-name="uni0343" unicode="&#x343;" horiz-adv-x="670" d="M70 892 L351 892 L600 1434 L281 1434 L70 892 Z " />
<glyph glyph-name="uni0344" unicode="&#x344;" horiz-adv-x="961" d="M349 1566 L602 1566 L731 1944 L433 1944 L349 1566 Z M70 1334 C70 1239 147 1162 242 1162 C337 1162 414 1239 414 1334 C414 1429 337 1506 242 1506 C147 1506 70 1429 70 1334 L70 1334 Z M547 1334 C547 1239 624 1162 719 1162 C814 1162 891 1239 891 1334 C891 1429 814 1506 719 1506 C624 1506 547 1429 547 1334 L547 1334 Z " />
<glyph glyph-name="uni0345" unicode="&#x345;" horiz-adv-x="702" d="M513 -148 C478 -183 444 -204 399 -204 C356 -204 342 -174 342 -116 L342 56 L70 56 L70 -96 C70 -330 152 -444 368 -444 C464 -444 568 -407 632 -320 L513 -148 Z " />
<glyph glyph-name="uni0346" unicode="&#x346;" horiz-adv-x="906" d="M70 1107 L302 1107 L302 1245 L604 1245 L604 1107 L836 1107 L836 1434 L70 1434 L70 1107 Z " />
<glyph glyph-name="uni0347" unicode="&#x347;" horiz-adv-x="554" d="M484 -30 L70 -30 L70 -187 L484 -187 L484 -30 Z M484 187 L70 187 L70 30 L484 30 L484 187 Z " />
<glyph glyph-name="uni0348" unicode="&#x348;" horiz-adv-x="876" d="M70 -532 L398 -532 L398 -65 L70 -65 L70 -532 Z M478 -532 L806 -532 L806 -65 L478 -65 L478 -532 Z " />
<glyph glyph-name="uni0349" unicode="&#x349;" horiz-adv-x="559" d="M70 -140 L70 -328 L281 -328 L281 -532 L489 -532 L489 -140 L70 -140 Z " />
<glyph glyph-name="uni034A" unicode="&#x34a;" horiz-adv-x="923" d="M463 1563 L414 1441 C390 1449 364 1454 335 1454 C71 1454 70 1175 70 1175 L275 1175 C275 1175 283 1252 339 1253 L255 1044 L460 1044 L508 1165 C533 1157 559 1153 588 1153 C852 1153 853 1432 853 1432 L648 1432 C648 1432 640 1355 584 1354 L668 1563 L463 1563 Z " />
<glyph glyph-name="uni034B" unicode="&#x34b;" horiz-adv-x="923" d="M421 1578 C421 1508 478 1452 548 1452 C617 1452 674 1508 674 1578 C674 1648 617 1705 548 1705 C478 1705 421 1648 421 1578 L421 1578 Z M248 1028 C248 958 305 902 375 902 C444 902 501 958 501 1028 C501 1098 444 1155 375 1155 C305 1155 248 1098 248 1028 L248 1028 Z M433 1207 C477 1172 527 1153 588 1153 C852 1153 853 1432 853 1432 L648 1432 C648 1432 640 1354 583 1354 C556 1354 528 1367 490 1400 C446 1435 396 1454 335 1454 C71 1454 70 1175 70 1175 L275 1175 C275 1175 283 1253 340 1253 C367 1253 395 1240 433 1207 L433 1207 Z " />
<glyph glyph-name="uni034C" unicode="&#x34c;" horiz-adv-x="942" d="M415 1132 C466 1093 540 1057 626 1057 C734 1057 820 1100 872 1175 L872 1434 C791 1338 725 1306 646 1306 C603 1306 566 1319 527 1343 C476 1382 402 1418 316 1418 C208 1418 122 1375 70 1300 L70 1061 C151 1157 217 1169 296 1169 C339 1169 376 1156 415 1132 L415 1132 Z M415 765 C466 726 540 690 626 690 C734 690 820 733 872 808 L872 1067 C791 971 725 939 646 939 C603 939 566 952 527 976 C476 1015 402 1051 316 1051 C208 1051 122 1008 70 933 L70 674 C151 770 217 802 296 802 C339 802 376 789 415 765 L415 765 Z " />
<glyph glyph-name="uni034D" unicode="&#x34d;" horiz-adv-x="2376" d="M554 -81 L716 51 L716 335 L70 -215 L716 -765 L716 -481 L554 -349 L1822 -349 L1660 -481 L1660 -765 L2306 -215 L1660 335 L1660 51 L1822 -81 L554 -81 Z " />
<glyph glyph-name="uni034E" unicode="&#x34e;" horiz-adv-x="1240" d="M754 -532 L754 -202 L886 -364 L1170 -364 L620 282 L70 -364 L354 -364 L486 -202 L486 -532 L754 -532 Z " />
<glyph glyph-name="tonos" unicode="&#x384;" horiz-adv-x="522" d="M70 1056 L323 1056 L452 1434 L154 1434 L70 1056 Z " />
<glyph glyph-name="dieresistonos" unicode="&#x385;" horiz-adv-x="1001" d="M369 1566 L622 1566 L751 1944 L453 1944 L369 1566 Z M90 1334 C90 1239 167 1162 262 1162 C357 1162 434 1239 434 1334 C434 1429 357 1506 262 1506 C167 1506 90 1429 90 1334 L90 1334 Z M567 1334 C567 1239 644 1162 739 1162 C834 1162 911 1239 911 1334 C911 1429 834 1506 739 1506 C644 1506 567 1429 567 1334 L567 1334 Z " />
<glyph glyph-name="Alphatonos" unicode="&#x386;" horiz-adv-x="1731" d="M30 1056 L283 1056 L412 1434 L114 1434 L30 1056 Z M1201 289 L1054 289 L1054 0 L1701 0 L1701 289 L1554 289 L1061 1434 L455 1434 L455 1145 L611 1145 L237 289 L91 289 L91 0 L738 0 L738 289 L590 289 L645 421 L1145 421 L1201 289 Z M896 1014 L1028 700 L763 700 L896 1014 Z " />
<glyph glyph-name="Epsilontonos" unicode="&#x388;" horiz-adv-x="1925" d="M90 1056 L343 1056 L472 1434 L174 1434 L90 1056 Z M512 0 L1835 0 L1835 426 L1502 426 L1502 289 L1002 289 L1002 587 L1512 587 L1512 876 L1002 876 L1002 1145 L1492 1145 L1492 1008 L1825 1008 L1825 1434 L512 1434 L512 1145 L669 1145 L669 289 L512 289 L512 0 Z " />
<glyph glyph-name="Etatonos" unicode="&#x389;" horiz-adv-x="2137" d="M20 1056 L273 1056 L402 1434 L104 1434 L20 1056 Z M932 1145 L1089 1145 L1089 1434 L442 1434 L442 1145 L599 1145 L599 289 L442 289 L442 0 L1089 0 L1089 289 L932 289 L932 587 L1557 587 L1557 289 L1400 289 L1400 0 L2047 0 L2047 289 L1890 289 L1890 1145 L2047 1145 L2047 1434 L1400 1434 L1400 1145 L1557 1145 L1557 876 L932 876 L932 1145 Z " />
<glyph glyph-name="Iotatonos" unicode="&#x38a;" horiz-adv-x="1179" d="M20 1056 L273 1056 L402 1434 L104 1434 L20 1056 Z M932 1145 L1089 1145 L1089 1434 L442 1434 L442 1145 L599 1145 L599 289 L442 289 L442 0 L1089 0 L1089 289 L932 289 L932 1145 Z " />
<glyph glyph-name="Omicrontonos" unicode="&#x38c;" horiz-adv-x="1933" d="M70 1056 L323 1056 L452 1434 L154 1434 L70 1056 Z M1087 1474 C547 1474 311 1118 311 717 C311 316 547 -40 1087 -40 C1627 -40 1863 316 1863 717 C1863 1118 1627 1474 1087 1474 L1087 1474 Z M1087 1185 C1388 1185 1520 981 1520 717 C1520 453 1388 249 1087 249 C786 249 654 453 654 717 C654 981 786 1185 1087 1185 L1087 1185 Z " />
<glyph glyph-name="Upsilontonos" unicode="&#x38e;" horiz-adv-x="1986" d="M30 1056 L283 1056 L412 1434 L114 1434 L30 1056 Z M1029 496 L1029 289 L872 289 L872 0 L1519 0 L1519 289 L1362 289 L1362 496 L1800 1145 L1956 1145 L1956 1434 L1309 1434 L1309 1145 L1424 1145 L1195 805 L966 1145 L1082 1145 L1082 1434 L435 1434 L435 1145 L590 1145 L1029 496 Z " />
<glyph glyph-name="Omegatonos" unicode="&#x38f;" horiz-adv-x="1976" d="M70 1056 L323 1056 L452 1434 L154 1434 L70 1056 Z M1125 1185 C1401 1185 1573 1034 1573 795 C1573 563 1434 393 1194 269 L1194 0 L1906 0 L1906 336 L1673 336 L1673 289 L1523 289 C1739 376 1906 556 1906 815 C1906 1201 1608 1474 1125 1474 C642 1474 344 1201 344 815 C344 556 511 376 727 289 L577 289 L577 336 L344 336 L344 0 L1056 0 L1056 269 C816 393 677 563 677 795 C677 1034 849 1185 1125 1185 L1125 1185 Z " />
<glyph glyph-name="iotadieresistonos" unicode="&#x390;" horiz-adv-x="881" d="M604 420 L604 1030 L119 1030 L119 778 L276 778 L276 390 C276 257 276 0 617 0 L723 0 L723 252 L684 252 C604 252 604 335 604 420 L604 420 Z M309 1566 L562 1566 L691 1944 L393 1944 L309 1566 Z M507 1334 C507 1239 584 1162 679 1162 C774 1162 851 1239 851 1334 C851 1429 774 1506 679 1506 C584 1506 507 1429 507 1334 L507 1334 Z M30 1334 C30 1239 107 1162 202 1162 C297 1162 374 1239 374 1334 C374 1429 297 1506 202 1506 C107 1506 30 1429 30 1334 L30 1334 Z " />
<glyph glyph-name="Alpha" unicode="&#x391;" horiz-adv-x="1670" d="M1140 289 L993 289 L993 0 L1640 0 L1640 289 L1493 289 L1000 1434 L394 1434 L394 1145 L550 1145 L176 289 L30 289 L30 0 L677 0 L677 289 L529 289 L584 421 L1084 421 L1140 289 Z M835 1014 L967 700 L702 700 L835 1014 Z " />
<glyph glyph-name="Beta" unicode="&#x392;" horiz-adv-x="1579" d="M930 0 C1384 0 1509 227 1509 430 C1509 599 1401 719 1213 759 C1350 787 1458 902 1458 1051 C1458 1239 1364 1434 914 1434 L90 1434 L90 1145 L247 1145 L247 289 L90 289 L90 0 L930 0 Z M922 602 C1115 602 1169 553 1169 445 C1169 338 1115 289 922 289 L580 289 L580 602 L922 602 Z M580 871 L580 1145 L922 1145 C1078 1145 1122 1089 1122 1008 C1122 927 1078 871 922 871 L580 871 Z " />
<glyph glyph-name="Gamma" unicode="&#x393;" horiz-adv-x="1493" d="M580 1145 L1070 1145 L1070 1008 L1403 1008 L1403 1434 L90 1434 L90 1145 L247 1145 L247 289 L90 289 L90 0 L737 0 L737 289 L580 289 L580 1145 Z " />
<glyph glyph-name="uni0394" unicode="&#x394;" horiz-adv-x="1670" d="M1640 0 L1640 289 L1493 289 L1000 1434 L394 1434 L394 1145 L550 1145 L176 289 L30 289 L30 0 L1640 0 Z M835 1014 L1140 289 L529 289 L835 1014 Z " />
<glyph glyph-name="Epsilon" unicode="&#x395;" horiz-adv-x="1503" d="M90 0 L1413 0 L1413 426 L1080 426 L1080 289 L580 289 L580 587 L1090 587 L1090 876 L580 876 L580 1145 L1070 1145 L1070 1008 L1403 1008 L1403 1434 L90 1434 L90 1145 L247 1145 L247 289 L90 289 L90 0 Z " />
<glyph glyph-name="Zeta" unicode="&#x396;" horiz-adv-x="1401" d="M1311 1434 L110 1434 L110 1008 L443 1008 L443 1145 L822 1145 L90 176 L90 0 L1311 0 L1311 426 L978 426 L978 289 L580 289 L1311 1258 L1311 1434 Z " />
<glyph glyph-name="Eta" unicode="&#x397;" horiz-adv-x="1785" d="M580 1145 L737 1145 L737 1434 L90 1434 L90 1145 L247 1145 L247 289 L90 289 L90 0 L737 0 L737 289 L580 289 L580 587 L1205 587 L1205 289 L1048 289 L1048 0 L1695 0 L1695 289 L1538 289 L1538 1145 L1695 1145 L1695 1434 L1048 1434 L1048 1145 L1205 1145 L1205 876 L580 876 L580 1145 Z " />
<glyph glyph-name="Theta" unicode="&#x398;" horiz-adv-x="1692" d="M563 573 L1130 573 L1130 862 L563 862 L563 573 Z M846 1474 C306 1474 70 1118 70 717 C70 316 306 -40 846 -40 C1386 -40 1622 316 1622 717 C1622 1118 1386 1474 846 1474 L846 1474 Z M846 1185 C1147 1185 1279 981 1279 717 C1279 453 1147 249 846 249 C545 249 413 453 413 717 C413 981 545 1185 846 1185 L846 1185 Z " />
<glyph glyph-name="Iota" unicode="&#x399;" horiz-adv-x="767" d="M550 1145 L707 1145 L707 1434 L60 1434 L60 1145 L217 1145 L217 289 L60 289 L60 0 L707 0 L707 289 L550 289 L550 1145 Z " />
<glyph glyph-name="Kappa" unicode="&#x39a;" horiz-adv-x="1619" d="M1382 1145 L1519 1145 L1519 1434 L872 1434 L872 1145 L963 1145 L580 840 L580 1145 L737 1145 L737 1434 L90 1434 L90 1145 L247 1145 L247 289 L90 289 L90 0 L737 0 L737 289 L580 289 L580 490 L724 607 L1172 0 L1529 0 L1529 289 L1372 289 L979 816 L1382 1145 Z " />
<glyph glyph-name="Lambda" unicode="&#x39b;" horiz-adv-x="1670" d="M835 1014 L1140 289 L993 289 L993 0 L1640 0 L1640 289 L1493 289 L1000 1434 L394 1434 L394 1145 L550 1145 L176 289 L30 289 L30 0 L677 0 L677 289 L529 289 L835 1014 Z " />
<glyph glyph-name="Mu" unicode="&#x39c;" horiz-adv-x="2136" d="M1556 289 L1399 289 L1399 0 L2046 0 L2046 289 L1889 289 L1889 1145 L2046 1145 L2046 1434 L1432 1434 L1068 526 L704 1434 L90 1434 L90 1145 L247 1145 L247 289 L90 289 L90 0 L737 0 L737 289 L580 289 L580 910 L945 0 L1191 0 L1556 910 L1556 289 Z " />
<glyph glyph-name="Nu" unicode="&#x39d;" horiz-adv-x="1807" d="M90 0 L737 0 L737 289 L580 289 L580 956 L1138 0 L1560 0 L1560 1145 L1717 1145 L1717 1434 L1070 1434 L1070 1145 L1227 1145 L1227 478 L669 1434 L90 1434 L90 1145 L247 1145 L247 289 L90 289 L90 0 Z " />
<glyph glyph-name="Xi" unicode="&#x39e;" horiz-adv-x="1242" d="M70 1145 L1172 1145 L1172 1434 L70 1434 L70 1145 Z M70 0 L1172 0 L1172 289 L70 289 L70 0 Z M168 585 L1074 585 L1074 864 L168 864 L168 585 Z " />
<glyph glyph-name="Omicron" unicode="&#x39f;" horiz-adv-x="1692" d="M846 1474 C306 1474 70 1118 70 717 C70 316 306 -40 846 -40 C1386 -40 1622 316 1622 717 C1622 1118 1386 1474 846 1474 L846 1474 Z M846 1185 C1147 1185 1279 981 1279 717 C1279 453 1147 249 846 249 C545 249 413 453 413 717 C413 981 545 1185 846 1185 L846 1185 Z " />
<glyph glyph-name="Pi" unicode="&#x3a0;" horiz-adv-x="1760" d="M1513 1145 L1670 1145 L1670 1434 L90 1434 L90 1145 L247 1145 L247 289 L90 289 L90 0 L737 0 L737 289 L580 289 L580 1145 L1180 1145 L1180 289 L1023 289 L1023 0 L1670 0 L1670 289 L1513 289 L1513 1145 Z " />
<glyph glyph-name="Rho" unicode="&#x3a1;" horiz-adv-x="1555" d="M737 0 L737 289 L580 289 L580 430 L909 430 C1263 430 1485 612 1485 932 C1485 1252 1263 1434 909 1434 L90 1434 L90 1145 L247 1145 L247 289 L90 289 L90 0 L737 0 Z M909 1145 C1070 1145 1148 1066 1148 932 C1148 798 1070 719 909 719 L580 719 L580 1145 L909 1145 Z " />
<glyph glyph-name="Sigma" unicode="&#x3a3;" horiz-adv-x="1326" d="M90 0 L1236 0 L1236 426 L903 426 L903 289 L528 289 L841 717 L529 1145 L893 1145 L893 1008 L1226 1008 L1226 1434 L90 1434 L90 1239 L466 717 L90 196 L90 0 Z " />
<glyph glyph-name="Tau" unicode="&#x3a4;" horiz-adv-x="1545" d="M1455 1434 L90 1434 L90 1008 L423 1008 L423 1145 L606 1145 L606 289 L449 289 L449 0 L1096 0 L1096 289 L939 289 L939 1145 L1122 1145 L1122 1008 L1455 1008 L1455 1434 Z " />
<glyph glyph-name="Upsilon" unicode="&#x3a5;" horiz-adv-x="1581" d="M624 496 L624 289 L467 289 L467 0 L1114 0 L1114 289 L957 289 L957 496 L1395 1145 L1551 1145 L1551 1434 L904 1434 L904 1145 L1019 1145 L790 805 L561 1145 L677 1145 L677 1434 L30 1434 L30 1145 L185 1145 L624 496 Z " />
<glyph glyph-name="Phi" unicode="&#x3a6;" horiz-adv-x="1579" d="M623 189 L466 189 L466 0 L1113 0 L1113 189 L956 189 L956 235 C1282 235 1509 399 1509 717 C1509 1035 1282 1199 956 1199 L956 1245 L1113 1245 L1113 1434 L466 1434 L466 1245 L623 1245 L623 1199 C297 1199 70 1035 70 717 C70 399 297 235 623 235 L623 189 Z M956 524 L956 910 C1094 910 1176 850 1176 717 C1176 584 1094 524 956 524 L956 524 Z M623 524 C485 524 403 584 403 717 C403 850 485 910 623 910 L623 524 Z " />
<glyph glyph-name="Chi" unicode="&#x3a7;" horiz-adv-x="1474" d="M942 738 L1235 1145 L1396 1145 L1396 1434 L749 1434 L749 1145 L844 1145 L726 980 L401 1434 L39 1434 L39 1145 L215 1145 L509 738 L185 289 L30 289 L30 0 L677 0 L677 289 L577 289 L726 496 L1083 0 L1444 0 L1444 289 L1266 289 L942 738 Z " />
<glyph glyph-name="Psi" unicode="&#x3a8;" horiz-adv-x="1867" d="M1680 1145 L1837 1145 L1837 1434 L1359 1434 C1369 1038 1267 832 1100 766 L1100 1145 L1257 1145 L1257 1434 L610 1434 L610 1145 L767 1145 L767 766 C600 832 498 1038 508 1434 L30 1434 L30 1145 L187 1145 C254 668 531 503 767 459 L767 289 L610 289 L610 0 L1257 0 L1257 289 L1100 289 L1100 459 C1335 503 1612 668 1680 1145 L1680 1145 Z " />
<glyph glyph-name="uni03A9" unicode="&#x3a9;" horiz-adv-x="1702" d="M851 1185 C1127 1185 1299 1034 1299 795 C1299 563 1160 393 920 269 L920 0 L1632 0 L1632 336 L1399 336 L1399 289 L1249 289 C1465 376 1632 556 1632 815 C1632 1201 1334 1474 851 1474 C368 1474 70 1201 70 815 C70 556 237 376 453 289 L303 289 L303 336 L70 336 L70 0 L782 0 L782 269 C542 393 403 563 403 795 C403 1034 575 1185 851 1185 L851 1185 Z " />
<glyph glyph-name="Iotadieresis" unicode="&#x3aa;" horiz-adv-x="921" d="M50 1708 C50 1613 127 1536 222 1536 C317 1536 394 1613 394 1708 C394 1803 317 1880 222 1880 C127 1880 50 1803 50 1708 L50 1708 Z M527 1708 C527 1613 604 1536 699 1536 C794 1536 871 1613 871 1708 C871 1803 794 1880 699 1880 C604 1880 527 1803 527 1708 L527 1708 Z M627 1145 L784 1145 L784 1434 L137 1434 L137 1145 L294 1145 L294 289 L137 289 L137 0 L784 0 L784 289 L627 289 L627 1145 Z " />
<glyph glyph-name="Upsilondieresis" unicode="&#x3ab;" horiz-adv-x="1581" d="M380 1708 C380 1613 457 1536 552 1536 C647 1536 724 1613 724 1708 C724 1803 647 1880 552 1880 C457 1880 380 1803 380 1708 L380 1708 Z M857 1708 C857 1613 934 1536 1029 1536 C1124 1536 1201 1613 1201 1708 C1201 1803 1124 1880 1029 1880 C934 1880 857 1803 857 1708 L857 1708 Z M624 496 L624 289 L467 289 L467 0 L1114 0 L1114 289 L957 289 L957 496 L1395 1145 L1551 1145 L1551 1434 L904 1434 L904 1145 L1019 1145 L790 805 L561 1145 L677 1145 L677 1434 L30 1434 L30 1145 L185 1145 L624 496 Z " />
<glyph glyph-name="alphatonos" unicode="&#x3ac;" horiz-adv-x="1453" d="M576 -30 C732 -30 877 27 955 161 C970 101 997 37 1025 0 L1403 0 C1403 0 1242 186 1242 515 C1242 844 1403 1030 1403 1030 L1025 1030 C997 993 970 929 955 869 C877 1003 732 1060 576 1060 C270 1060 50 857 50 515 C50 173 270 -30 576 -30 L576 -30 Z M646 222 C473 222 378 346 378 515 C378 684 473 808 646 808 C819 808 914 684 914 515 C914 346 819 222 646 222 L646 222 Z M512 1138 L765 1138 L894 1516 L596 1516 L512 1138 Z " />
<glyph glyph-name="epsilontonos" unicode="&#x3ad;" horiz-adv-x="1086" d="M407 1138 L660 1138 L789 1516 L491 1516 L407 1138 Z M838 295 C763 246 676 222 561 222 C434 222 380 248 380 310 C380 379 469 389 729 389 L729 641 C470 641 409 652 409 727 C409 766 439 808 561 808 C595 808 628 804 658 798 L658 717 L986 717 L986 961 C986 961 796 1060 561 1060 C316 1060 79 983 79 737 C79 663 123 568 224 524 C128 493 50 404 50 300 C50 57 258 -30 561 -30 C778 -30 920 22 1016 109 L838 295 Z " />
</font>
</svg>
