<?xml version="1.0" encoding="UTF-8"?>
<svg xmlns="http://www.w3.org/2000/svg" xmlns:xlink="http://www.w3.org/1999/xlink" version="1.2" >
<font id="Artegra Slab Regular">
<font-face  font-family="Artegra Slab" units-per-em="2048" ascent="1516" descent="-532" font-style="normal" font-weight="400" font-stretch="normal" cap-height="1434" x-height="1006" underline-position="-154" underline-thickness="102" />
<missing-glyph  horiz-adv-x="922" d="" />
<glyph glyph-name="NULL" d="" />
<glyph glyph-name="CR" unicode="&#xd;" horiz-adv-x="922" d="" />
<glyph glyph-name="space" unicode="&#x20;" horiz-adv-x="573" d="" />
<glyph glyph-name="exclam" unicode="&#x21;" horiz-adv-x="526" d="M192 311 L335 311 L345 1434 L182 1434 L192 311 Z M160 93 C160 37 206 -10 263 -10 C320 -10 366 37 366 93 C366 149 320 196 263 196 C206 196 160 149 160 93 L160 93 Z " />
<glyph glyph-name="quotedbl" unicode="&#x22;" horiz-adv-x="523" d="M67 997 L205 997 L221 1434 L50 1434 L67 997 Z M319 997 L458 997 L473 1434 L303 1434 L319 997 Z " />
<glyph glyph-name="numbersign" unicode="&#x23;" horiz-adv-x="1319" d="M686 0 L839 0 L901 388 L1137 388 L1137 532 L923 532 L983 902 L1219 902 L1219 1046 L1005 1046 L1067 1434 L914 1434 L852 1046 L571 1046 L633 1434 L479 1434 L417 1046 L182 1046 L182 902 L394 902 L335 532 L100 532 L100 388 L312 388 L251 0 L404 0 L465 388 L747 388 L686 0 Z M548 902 L829 902 L770 532 L488 532 L548 902 Z " />
<glyph glyph-name="dollar" unicode="&#x24;" horiz-adv-x="1358" d="M987 1127 L1149 1127 L1149 1376 C1149 1376 998 1440 753 1452 L753 1641 L609 1641 L609 1452 C330 1433 181 1289 181 1083 C181 867 346 743 678 666 C958 601 1054 521 1054 375 C1054 215 951 124 690 124 C438 124 312 199 312 199 L312 307 L150 307 L150 123 C150 123 280 0 609 -17 L609 -207 L753 -207 L753 -18 C1055 -2 1218 131 1218 375 C1218 627 1041 744 706 822 C460 880 345 946 345 1083 C345 1239 479 1310 673 1310 C880 1310 987 1274 987 1274 L987 1127 Z " />
<glyph glyph-name="ampersand" unicode="&#x26;" horiz-adv-x="1501" d="M586 1454 C372 1454 259 1300 259 1113 C259 986 306 896 378 784 C193 658 87 528 102 321 C123 73 333 -20 553 -20 C693 -20 841 5 960 122 C1041 66 1134 0 1347 0 L1401 0 L1401 145 L1362 145 C1163 145 1056 256 1056 256 C1092 324 1138 460 1156 585 L1335 585 L1335 730 L1028 730 C1008 592 970 442 934 366 C810 487 689 626 596 748 C767 850 903 963 903 1152 C903 1366 772 1454 586 1454 L586 1454 Z M266 323 C242 488 339 579 460 660 C583 504 694 377 844 227 C771 156 667 125 550 125 C415 125 287 178 266 323 L266 323 Z M510 868 C465 941 421 1021 421 1113 C421 1243 504 1309 586 1309 C690 1309 741 1247 741 1152 C741 1033 667 970 510 868 L510 868 Z " />
<glyph glyph-name="quotesingle" unicode="&#x27;" horiz-adv-x="271" d="M68 997 L205 997 L221 1434 L50 1434 L68 997 Z " />
<glyph glyph-name="parenleft" unicode="&#x28;" horiz-adv-x="790" d="M282 589 C282 1256 710 1363 710 1363 L660 1507 C660 1507 120 1377 120 589 C120 -198 660 -328 660 -328 L710 -184 C710 -184 282 -77 282 589 L282 589 Z " />
<glyph glyph-name="parenright" unicode="&#x29;" horiz-adv-x="790" d="M508 589 C508 -77 80 -184 80 -184 L130 -328 C130 -328 670 -198 670 589 C670 1377 130 1507 130 1507 L80 1363 C80 1363 508 1256 508 589 L508 589 Z " />
<glyph glyph-name="asterisk" unicode="&#x2a;" horiz-adv-x="903" d="M375 1434 L385 1161 L123 1254 L80 1107 L348 1026 L173 816 L296 725 L451 945 L607 725 L730 816 L555 1026 L823 1107 L780 1254 L518 1161 L528 1434 L375 1434 Z " />
<glyph glyph-name="plus" unicode="&#x2b;" horiz-adv-x="1142" d="M1042 776 L646 776 L646 1172 L496 1172 L496 776 L100 776 L100 627 L496 627 L496 231 L646 231 L646 627 L1042 627 L1042 776 Z " />
<glyph glyph-name="comma" unicode="&#x2c;" horiz-adv-x="525" d="M80 -200 L226 -200 L425 236 L247 236 L80 -200 Z " />
<glyph glyph-name="hyphen" unicode="&#x2d;" horiz-adv-x="844" d="M100 482 L744 482 L744 614 L100 614 L100 482 Z " />
<glyph glyph-name="period" unicode="&#x2e;" horiz-adv-x="406" d="M100 93 C100 37 146 -10 203 -10 C260 -10 306 37 306 93 C306 149 260 196 203 196 C146 196 100 149 100 93 L100 93 Z " />
<glyph glyph-name="slash" unicode="&#x2f;" horiz-adv-x="1057" d="M120 0 L279 0 L937 1434 L778 1434 L120 0 Z " />
<glyph glyph-name="zero" unicode="0" horiz-adv-x="1336" d="M668 -20 C1049 -20 1236 314 1236 717 C1236 1120 1049 1454 668 1454 C287 1454 100 1120 100 717 C100 314 287 -20 668 -20 L668 -20 Z M668 125 C386 125 262 394 262 717 C262 1040 386 1309 668 1309 C950 1309 1074 1040 1074 717 C1074 394 950 125 668 125 L668 125 Z " />
<glyph glyph-name="one" unicode="1" horiz-adv-x="797" d="M371 1184 L371 144 L207 144 L207 0 L697 0 L697 144 L533 144 L533 1434 L408 1434 L50 1107 L160 991 L371 1184 Z " />
<glyph glyph-name="two" unicode="2" horiz-adv-x="1192" d="M284 1078 C284 1078 372 1309 603 1309 C791 1309 889 1232 889 1085 C889 966 811 873 710 759 C654 695 121 112 121 112 L120 0 L1072 0 L1072 304 L910 304 L910 144 L360 144 C360 144 772 596 817 646 C940 784 1052 909 1052 1085 C1052 1324 873 1454 603 1454 C226 1454 135 1133 135 1133 L284 1078 Z " />
<glyph glyph-name="three" unicode="3" horiz-adv-x="1189" d="M131 1206 L131 1048 L293 1048 L293 1173 C323 1216 407 1310 579 1310 C766 1310 888 1225 888 1071 C888 875 708 809 466 809 L466 665 C748 665 925 612 925 401 C925 209 775 124 579 124 C383 124 293 219 262 262 L262 386 L100 386 L100 224 C100 224 206 -20 579 -20 C863 -20 1089 120 1089 401 C1089 624 928 710 789 743 C921 782 1052 886 1052 1071 C1052 1323 847 1454 579 1454 C228 1454 131 1206 131 1206 L131 1206 Z " />
<glyph glyph-name="four" unicode="4" horiz-adv-x="1298" d="M837 375 L837 144 L673 144 L673 0 L1163 0 L1163 144 L999 144 L999 375 L1198 375 L1198 519 L999 519 L999 1434 L844 1434 L120 492 L120 375 L837 375 Z M328 519 C502 744 664 955 837 1180 L837 519 L328 519 Z " />
<glyph glyph-name="five" unicode="5" horiz-adv-x="1218" d="M1011 1434 L193 1434 L149 662 C149 662 386 790 608 790 C858 790 934 634 934 456 C934 281 858 124 608 124 C460 124 344 174 282 221 L282 359 L120 359 L120 153 C120 153 262 -20 608 -20 C970 -20 1098 212 1098 456 C1098 704 970 934 608 934 C490 934 390 908 325 881 L349 1290 L1011 1290 L1011 1434 Z " />
<glyph glyph-name="six" unicode="6" horiz-adv-x="1254" d="M1014 1410 C406 1596 54 1150 131 469 C154 281 250 -20 633 -20 C993 -20 1134 223 1134 474 C1134 712 993 968 633 968 C490 968 359 901 286 788 C312 1186 547 1348 852 1299 L852 1206 L1014 1206 L1014 1410 Z M972 474 C972 277 859 124 633 124 C405 124 293 277 293 474 C293 671 405 824 633 824 C859 824 972 671 972 474 L972 474 Z " />
<glyph glyph-name="seven" unicode="7" horiz-adv-x="1216" d="M120 1434 L120 1127 L282 1127 L282 1290 L911 1290 L445 144 L291 144 L291 0 L781 0 L781 144 L614 144 L1096 1332 L1096 1434 L120 1434 Z " />
<glyph glyph-name="eight" unicode="8" horiz-adv-x="1236" d="M618 -20 C896 -20 1136 114 1136 400 C1136 594 1014 699 875 753 C1006 805 1099 918 1099 1065 C1099 1311 889 1454 618 1454 C347 1454 137 1311 137 1065 C137 918 230 805 361 753 C222 699 100 594 100 400 C100 114 340 -20 618 -20 L618 -20 Z M618 124 C400 124 264 224 264 400 C264 576 400 676 618 676 C836 676 972 576 972 400 C972 224 836 124 618 124 L618 124 Z M618 820 C431 820 301 904 301 1065 C301 1226 431 1310 618 1310 C805 1310 935 1226 935 1065 C935 904 805 820 618 820 L618 820 Z " />
<glyph glyph-name="nine" unicode="9" horiz-adv-x="1254" d="M240 24 C848 -162 1200 284 1123 965 C1100 1153 1004 1454 621 1454 C261 1454 120 1211 120 960 C120 722 261 466 621 466 C764 466 895 533 968 646 C942 248 707 86 402 135 L402 228 L240 228 L240 24 Z M282 960 C282 1157 395 1310 621 1310 C849 1310 961 1157 961 960 C961 763 849 610 621 610 C395 610 282 763 282 960 L282 960 Z " />
<glyph glyph-name="colon" unicode="&#x3a;" horiz-adv-x="406" d="M100 93 C100 37 146 -10 203 -10 C260 -10 306 37 306 93 C306 149 260 196 203 196 C146 196 100 149 100 93 L100 93 Z M100 913 C100 857 146 810 203 810 C260 810 306 857 306 913 C306 969 260 1016 203 1016 C146 1016 100 969 100 913 L100 913 Z " />
<glyph glyph-name="semicolon" unicode="&#x3b;" horiz-adv-x="455" d="M149 913 C149 857 195 810 252 810 C309 810 355 857 355 913 C355 969 309 1016 252 1016 C195 1016 149 969 149 913 L149 913 Z M0 -200 L146 -200 L345 236 L167 236 L0 -200 Z " />
<glyph glyph-name="less" unicode="&#x3c;" horiz-adv-x="1139" d="M100 666 L100 548 L1019 77 L1019 239 L294 607 L1019 975 L1019 1137 L100 666 Z " />
<glyph glyph-name="equal" unicode="&#x3d;" horiz-adv-x="993" d="M100 493 L893 493 L893 643 L100 643 L100 493 Z M100 761 L893 761 L893 910 L100 910 L100 761 Z " />
<glyph glyph-name="greater" unicode="&#x3e;" horiz-adv-x="1139" d="M120 1137 L120 975 L845 607 L120 239 L120 77 L1039 548 L1039 666 L120 1137 Z " />
<glyph glyph-name="question" unicode="&#x3f;" horiz-adv-x="1103" d="M211 1116 C211 1116 313 1310 540 1310 C754 1310 859 1214 859 1069 C859 863 656 782 426 777 L426 311 L588 311 L588 661 C846 701 1023 820 1023 1069 C1023 1263 887 1454 540 1454 C207 1454 80 1191 80 1191 L211 1116 Z M404 93 C404 37 450 -10 507 -10 C564 -10 610 37 610 93 C610 149 564 196 507 196 C450 196 404 149 404 93 L404 93 Z " />
<glyph glyph-name="at" unicode="&#x40;" horiz-adv-x="1667" d="M1287 86 C1287 86 1085 -76 833 -76 C496 -76 264 153 264 516 C264 881 496 1110 833 1110 C1171 1110 1403 881 1403 516 C1403 391 1360 317 1268 317 C1176 317 1152 404 1151 522 C1151 623 1156 729 1163 844 C1078 910 975 934 877 934 C739 934 470 858 434 523 C413 293 522 98 781 98 C959 98 1035 224 1060 381 C1073 274 1134 173 1268 173 C1447 173 1567 296 1567 516 C1567 972 1247 1254 833 1254 C420 1254 100 972 100 516 C100 62 420 -220 833 -220 C1199 -220 1394 -25 1394 -25 L1287 86 Z M877 790 C937 790 978 782 1007 769 L989 523 C976 342 911 242 783 242 C625 242 579 372 596 521 C631 744 774 790 877 790 L877 790 Z " />
<glyph glyph-name="A" unicode="A" horiz-adv-x="1656" d="M893 1434 L538 1434 L538 1290 L702 1290 L219 144 L60 144 L60 0 L550 0 L550 144 L391 144 L512 436 L1144 436 L1265 144 L1106 144 L1106 0 L1596 0 L1596 144 L1437 144 L893 1434 Z M828 1198 L1084 580 L571 580 L828 1198 Z " />
<glyph glyph-name="B" unicode="B" horiz-adv-x="1500" d="M880 0 C1273 0 1400 210 1400 413 C1400 578 1312 706 1144 757 C1264 796 1342 916 1342 1052 C1342 1240 1244 1434 860 1434 L120 1434 L120 1290 L284 1290 L284 144 L120 144 L120 0 L880 0 Z M963 676 C1149 676 1234 551 1234 413 C1234 277 1155 144 880 144 L446 144 L446 676 L963 676 Z M446 820 L446 1290 L860 1290 C1126 1290 1176 1180 1176 1052 C1176 919 1101 820 963 820 L446 820 Z " />
<glyph glyph-name="C" unicode="C" horiz-adv-x="1409" d="M1127 1127 L1289 1127 L1289 1349 C1289 1349 1124 1454 807 1454 C347 1454 100 1119 100 717 C100 315 347 -20 807 -20 C1131 -20 1289 113 1289 113 L1204 231 C1204 231 1034 124 807 124 C442 124 266 391 266 717 C266 1043 442 1310 807 1310 C1020 1310 1127 1263 1127 1263 L1127 1127 Z " />
<glyph glyph-name="D" unicode="D" horiz-adv-x="1524" d="M1444 717 C1444 1130 1236 1434 744 1434 L120 1434 L120 1290 L284 1290 L284 144 L120 144 L120 0 L744 0 C1236 0 1444 304 1444 717 L1444 717 Z M744 1290 C1139 1290 1278 1036 1278 717 C1278 398 1139 144 744 144 L446 144 L446 1290 L744 1290 Z " />
<glyph glyph-name="E" unicode="E" horiz-adv-x="1368" d="M1076 1127 L1238 1127 L1238 1434 L120 1434 L120 1290 L284 1290 L284 144 L120 144 L120 0 L1248 0 L1248 307 L1086 307 L1086 144 L446 144 L446 661 L1081 661 L1081 805 L446 805 L446 1290 L1076 1290 L1076 1127 Z " />
<glyph glyph-name="F" unicode="F" horiz-adv-x="1358" d="M446 1290 L1076 1290 L1076 1127 L1238 1127 L1238 1434 L120 1434 L120 1290 L284 1290 L284 144 L120 144 L120 0 L610 0 L610 144 L446 144 L446 661 L1081 661 L1081 805 L446 805 L446 1290 Z " />
<glyph glyph-name="G" unicode="G" horiz-adv-x="1484" d="M1193 1127 L1355 1127 L1355 1337 C1355 1337 1166 1454 807 1454 C347 1454 100 1119 100 717 C100 315 347 -20 807 -20 C1167 -20 1364 149 1364 149 L1364 805 L837 805 L837 661 L1212 661 L1212 230 C1212 230 1061 124 807 124 C442 124 266 391 266 717 C266 1043 442 1310 807 1310 C1048 1310 1193 1249 1193 1249 L1193 1127 Z " />
<glyph glyph-name="H" unicode="H" horiz-adv-x="1688" d="M284 1290 L284 144 L120 144 L120 0 L610 0 L610 144 L446 144 L446 661 L1242 661 L1242 144 L1078 144 L1078 0 L1568 0 L1568 144 L1404 144 L1404 1290 L1568 1290 L1568 1434 L1078 1434 L1078 1290 L1242 1290 L1242 805 L446 805 L446 1290 L610 1290 L610 1434 L120 1434 L120 1290 L284 1290 Z " />
<glyph glyph-name="I" unicode="I" horiz-adv-x="730" d="M284 1290 L284 144 L120 144 L120 0 L610 0 L610 144 L446 144 L446 1290 L610 1290 L610 1434 L120 1434 L120 1290 L284 1290 Z " />
<glyph glyph-name="J" unicode="J" horiz-adv-x="1211" d="M80 249 C80 249 147 -20 498 -20 C752 -20 927 117 927 444 L927 1290 L1091 1290 L1091 1434 L601 1434 L601 1290 L765 1290 L765 444 C765 234 684 124 498 124 C300 124 229 296 229 296 L80 249 Z " />
<glyph glyph-name="K" unicode="K" horiz-adv-x="1532" d="M446 722 L446 1290 L610 1290 L610 1434 L120 1434 L120 1290 L284 1290 L284 144 L120 144 L120 0 L610 0 L610 144 L446 144 L446 518 L654 718 L1160 0 L1412 0 L1412 144 L1248 144 L768 825 L1258 1290 L1402 1290 L1402 1434 L912 1434 L912 1290 L1041 1290 L446 722 Z " />
<glyph glyph-name="L" unicode="L" horiz-adv-x="1299" d="M120 0 L1179 0 L1179 307 L1017 307 L1017 144 L446 144 L446 1290 L610 1290 L610 1434 L120 1434 L120 1290 L284 1290 L284 144 L120 144 L120 0 Z " />
<glyph glyph-name="M" unicode="M" horiz-adv-x="2006" d="M284 1290 L284 144 L120 144 L120 0 L610 0 L610 144 L446 144 L446 1179 L931 0 L1075 0 L1560 1179 L1560 144 L1396 144 L1396 0 L1886 0 L1886 144 L1722 144 L1722 1290 L1886 1290 L1886 1434 L1496 1434 L1003 236 L510 1434 L120 1434 L120 1290 L284 1290 Z " />
<glyph glyph-name="N" unicode="N" horiz-adv-x="1702" d="M284 1290 L284 144 L120 144 L120 0 L610 0 L610 144 L446 144 L446 1195 L1228 0 L1418 0 L1418 1290 L1582 1290 L1582 1434 L1092 1434 L1092 1290 L1256 1290 L1256 239 L474 1434 L120 1434 L120 1290 L284 1290 Z " />
<glyph glyph-name="O" unicode="O" horiz-adv-x="1614" d="M100 717 C100 315 347 -20 807 -20 C1267 -20 1514 315 1514 717 C1514 1119 1267 1454 807 1454 C347 1454 100 1119 100 717 L100 717 Z M1348 717 C1348 391 1172 124 807 124 C442 124 266 391 266 717 C266 1043 442 1310 807 1310 C1172 1310 1348 1043 1348 717 L1348 717 Z " />
<glyph glyph-name="P" unicode="P" horiz-adv-x="1458" d="M284 1290 L284 144 L120 144 L120 0 L610 0 L610 144 L446 144 L446 546 L881 546 C1183 546 1358 714 1358 990 C1358 1266 1183 1434 881 1434 L120 1434 L120 1290 L284 1290 Z M881 1290 C1093 1290 1194 1172 1194 990 C1194 808 1093 690 881 690 L446 690 L446 1290 L881 1290 Z " />
<glyph glyph-name="Q" unicode="Q" horiz-adv-x="1614" d="M100 717 C100 315 347 -20 807 -20 C923 -20 1025 1 1113 39 L1206 -68 L1413 -68 L1244 116 C1421 250 1514 471 1514 717 C1514 1119 1267 1454 807 1454 C347 1454 100 1119 100 717 L100 717 Z M1348 717 C1348 514 1280 335 1141 228 L1029 351 L844 351 L1011 157 C951 136 883 124 807 124 C442 124 266 391 266 717 C266 1043 442 1310 807 1310 C1172 1310 1348 1043 1348 717 L1348 717 Z " />
<glyph glyph-name="R" unicode="R" horiz-adv-x="1496" d="M284 1290 L284 144 L120 144 L120 0 L610 0 L610 144 L446 144 L446 602 L824 602 L1138 0 L1396 0 L1396 144 L1232 144 L990 608 C1210 644 1353 795 1353 1018 C1353 1270 1185 1434 910 1434 L120 1434 L120 1290 L284 1290 Z M910 1290 C1102 1290 1189 1176 1189 1018 C1189 860 1102 746 910 746 L446 746 L446 1290 L910 1290 Z " />
<glyph glyph-name="S" unicode="S" horiz-adv-x="1348" d="M977 1127 L1139 1127 L1139 1376 C1139 1376 955 1454 663 1454 C343 1454 171 1304 171 1083 C171 867 336 743 668 666 C948 601 1044 521 1044 375 C1044 215 941 124 680 124 C428 124 302 199 302 199 L302 307 L140 307 L140 123 C140 123 292 -20 680 -20 C1022 -20 1208 115 1208 375 C1208 627 1031 744 696 822 C450 880 335 946 335 1083 C335 1239 469 1310 663 1310 C870 1310 977 1274 977 1274 L977 1127 Z " />
<glyph glyph-name="T" unicode="T" horiz-adv-x="1470" d="M1188 1127 L1350 1127 L1350 1434 L120 1434 L120 1127 L282 1127 L282 1290 L654 1290 L654 144 L490 144 L490 0 L980 0 L980 144 L816 144 L816 1290 L1188 1290 L1188 1127 Z " />
<glyph glyph-name="U" unicode="U" horiz-adv-x="1720" d="M446 614 L446 1290 L610 1290 L610 1434 L120 1434 L120 1290 L284 1290 L284 614 C284 205 481 -20 860 -20 C1239 -20 1436 205 1436 614 L1436 1290 L1600 1290 L1600 1434 L1110 1434 L1110 1290 L1274 1290 L1274 614 C1274 290 1146 124 860 124 C574 124 446 290 446 614 L446 614 Z " />
<glyph glyph-name="V" unicode="V" horiz-adv-x="1616" d="M808 236 L391 1290 L550 1290 L550 1434 L60 1434 L60 1290 L219 1290 L743 0 L873 0 L1397 1290 L1556 1290 L1556 1434 L1066 1434 L1066 1290 L1225 1290 L808 236 Z " />
<glyph glyph-name="W" unicode="W" horiz-adv-x="2210" d="M388 1290 L550 1290 L550 1434 L60 1434 L60 1290 L223 1290 L637 0 L772 0 L1105 1195 L1438 0 L1573 0 L1987 1290 L2150 1290 L2150 1434 L1660 1434 L1660 1290 L1821 1290 L1509 299 L1192 1434 L1018 1434 L701 299 L388 1290 Z " />
<glyph glyph-name="X" unicode="X" horiz-adv-x="1511" d="M655 749 L209 144 L60 144 L60 0 L550 0 L550 144 L399 144 L755 627 L1217 0 L1451 0 L1451 144 L1301 144 L855 749 L1251 1290 L1401 1290 L1401 1434 L911 1434 L911 1290 L1061 1290 L755 872 L343 1434 L103 1434 L103 1290 L258 1290 L655 749 Z " />
<glyph glyph-name="Y" unicode="Y" horiz-adv-x="1508" d="M673 597 L673 144 L509 144 L509 0 L999 0 L999 144 L835 144 L835 597 L1297 1290 L1448 1290 L1448 1434 L958 1434 L958 1290 L1107 1290 L754 760 L401 1290 L550 1290 L550 1434 L60 1434 L60 1290 L211 1290 L673 597 Z " />
<glyph glyph-name="Z" unicode="Z" horiz-adv-x="1324" d="M1200 1434 L131 1434 L131 1127 L293 1127 L293 1290 L969 1290 L120 91 L120 0 L1204 0 L1204 307 L1042 307 L1042 144 L351 144 L1200 1343 L1200 1434 Z " />
<glyph glyph-name="bracketleft" unicode="&#x5b;" horiz-adv-x="715" d="M312 1290 L605 1290 L605 1434 L150 1434 L150 -319 L605 -319 L605 -175 L312 -175 L312 1290 Z " />
<glyph glyph-name="backslash" unicode="&#x5c;" horiz-adv-x="1057" d="M279 1434 L120 1434 L778 0 L937 0 L279 1434 Z " />
<glyph glyph-name="bracketright" unicode="&#x5d;" horiz-adv-x="715" d="M403 -175 L110 -175 L110 -319 L565 -319 L565 1434 L110 1434 L110 1290 L403 1290 L403 -175 Z " />
<glyph glyph-name="asciicircum" unicode="&#x5e;" horiz-adv-x="1016" d="M744 849 L916 849 L565 1434 L451 1434 L100 849 L272 849 L508 1219 L744 849 Z " />
<glyph glyph-name="underscore" unicode="&#x5f;" horiz-adv-x="1171" d="M120 -252 L1051 -252 L1051 -120 L120 -120 L120 -252 Z " />
<glyph glyph-name="grave" unicode="&#x60;" horiz-adv-x="642" d="M289 1434 L80 1434 L389 1129 L562 1129 L289 1434 Z " />
<glyph glyph-name="a" unicode="a" horiz-adv-x="1225" d="M804 0 L1125 0 L1125 132 L958 132 L958 591 C958 843 915 1026 558 1026 C317 1026 169 931 169 931 L233 813 C233 813 381 894 558 894 C775 894 800 798 804 650 C537 678 80 664 80 308 C80 88 236 -20 471 -20 C751 -20 801 172 804 181 L804 0 Z M238 308 C238 533 577 545 804 530 L804 431 C804 266 700 112 471 112 C306 112 238 199 238 308 L238 308 Z " />
<glyph glyph-name="b" unicode="b" horiz-adv-x="1357" d="M421 0 L421 200 C425 190 518 -20 769 -20 C1109 -20 1277 222 1277 503 C1277 784 1109 1026 769 1026 C518 1026 425 816 421 805 L421 1516 L100 1516 L100 1384 L267 1384 L267 0 L421 0 Z M769 894 C998 894 1117 712 1117 503 C1117 294 998 112 769 112 C540 112 421 294 421 503 C421 712 540 894 769 894 L769 894 Z " />
<glyph glyph-name="c" unicode="c" horiz-adv-x="1081" d="M827 714 L981 714 L981 960 C981 960 816 1026 604 1026 C280 1026 80 806 80 503 C80 200 280 -20 604 -20 C853 -20 981 106 981 106 L899 210 C899 210 771 112 604 112 C363 112 240 283 240 503 C240 723 363 894 604 894 C726 894 827 867 827 867 L827 714 Z " />
<glyph glyph-name="d" unicode="d" horiz-adv-x="1357" d="M1090 1516 L769 1516 L769 1384 L936 1384 L936 805 C936 805 845 1026 588 1026 C248 1026 80 784 80 503 C80 222 248 -20 588 -20 C838 -20 931 190 936 200 L936 0 L1257 0 L1257 132 L1090 132 L1090 1516 Z M588 894 C817 894 936 712 936 503 C936 294 817 112 588 112 C359 112 240 294 240 503 C240 712 359 894 588 894 L588 894 Z " />
<glyph glyph-name="e" unicode="e" horiz-adv-x="1129" d="M564 112 C370 112 251 253 244 437 L1049 437 C1049 834 849 1026 564 1026 C260 1026 80 804 80 503 C80 202 260 -20 564 -20 C848 -20 988 141 988 141 L890 237 C890 237 747 112 564 112 L564 112 Z M244 569 C261 752 371 894 564 894 C758 894 869 753 885 569 L244 569 Z " />
<glyph glyph-name="f" unicode="f" horiz-adv-x="845" d="M118 0 L606 0 L606 132 L439 132 L439 874 L738 874 L738 1006 L439 1006 L439 1069 C439 1320 476 1404 621 1404 C691 1404 766 1377 766 1377 L815 1496 C815 1496 741 1536 611 1536 C364 1536 285 1376 285 1069 L285 1006 L80 1006 L80 874 L285 874 L285 132 L118 132 L118 0 Z " />
<glyph glyph-name="g" unicode="g" horiz-adv-x="1357" d="M1090 0 L1090 874 L1257 874 L1257 1006 L936 1006 L936 805 C931 816 838 1026 588 1026 C248 1026 80 784 80 503 C80 222 248 -20 588 -20 C838 -20 931 190 936 200 L936 0 C936 -272 801 -400 587 -400 C397 -400 249 -301 249 -301 L161 -409 C161 -409 317 -532 587 -532 C819 -532 1090 -423 1090 0 L1090 0 Z M588 894 C817 894 936 712 936 503 C936 294 817 112 588 112 C359 112 240 294 240 503 C240 712 359 894 588 894 L588 894 Z " />
<glyph glyph-name="h" unicode="h" horiz-adv-x="1424" d="M1003 559 L1003 0 L1324 0 L1324 132 L1157 132 L1157 559 C1157 853 1001 1026 712 1026 C483 1026 424 842 421 833 L421 1516 L100 1516 L100 1384 L267 1384 L267 132 L100 132 L100 0 L588 0 L588 132 L421 132 L421 559 C421 756 507 894 712 894 C917 894 1003 756 1003 559 L1003 559 Z " />
<glyph glyph-name="i" unicode="i" horiz-adv-x="688" d="M241 1285 C241 1228 288 1183 344 1183 C400 1183 447 1228 447 1285 C447 1341 400 1387 344 1387 C288 1387 241 1341 241 1285 L241 1285 Z M421 1006 L100 1006 L100 874 L267 874 L267 132 L100 132 L100 0 L588 0 L588 132 L421 132 L421 1006 Z " />
<glyph glyph-name="j" unicode="j" horiz-adv-x="507" d="M361 1006 L40 1006 L40 874 L207 874 L207 -68 C207 -251 199 -400 70 -400 C-10 -400 -72 -371 -72 -371 L-120 -491 C-120 -491 -55 -532 70 -532 C313 -532 361 -365 361 -68 L361 1006 Z M181 1285 C181 1228 228 1183 284 1183 C340 1183 387 1228 387 1285 C387 1341 340 1387 284 1387 C228 1387 181 1341 181 1285 L181 1285 Z " />
<glyph glyph-name="k" unicode="k" horiz-adv-x="1286" d="M421 1516 L100 1516 L100 1384 L267 1384 L267 132 L100 132 L100 0 L588 0 L588 132 L421 132 L421 382 L566 498 L946 0 L1186 0 L1186 132 L1030 132 L681 590 L1036 874 L1182 874 L1182 1006 L694 1006 L694 874 L815 874 L421 559 L421 1516 Z " />
<glyph glyph-name="l" unicode="l" horiz-adv-x="688" d="M421 1516 L100 1516 L100 1384 L267 1384 L267 132 L100 132 L100 0 L588 0 L588 132 L421 132 L421 1516 Z " />
<glyph glyph-name="m" unicode="m" horiz-adv-x="2008" d="M927 0 L1248 0 L1248 132 L1081 132 L1081 538 C1081 740 1155 894 1334 894 C1513 894 1587 740 1587 538 L1587 0 L1908 0 L1908 132 L1741 132 L1741 538 C1741 853 1599 1026 1334 1026 C1103 1026 1031 816 1031 816 C981 920 881 1026 674 1026 C476 1026 423 861 421 853 L421 1006 L100 1006 L100 874 L267 874 L267 132 L100 132 L100 0 L588 0 L588 132 L421 132 L421 538 C421 740 495 894 674 894 C853 894 927 740 927 538 L927 0 Z " />
<glyph glyph-name="n" unicode="n" horiz-adv-x="1424" d="M1003 559 L1003 0 L1324 0 L1324 132 L1157 132 L1157 559 C1157 853 1001 1026 712 1026 C483 1026 424 842 421 833 L421 1006 L100 1006 L100 874 L267 874 L267 132 L100 132 L100 0 L588 0 L588 132 L421 132 L421 559 C421 756 507 894 712 894 C917 894 1003 756 1003 559 L1003 559 Z " />
<glyph glyph-name="o" unicode="o" horiz-adv-x="1208" d="M604 1026 C280 1026 80 806 80 503 C80 200 280 -20 604 -20 C928 -20 1128 200 1128 503 C1128 806 928 1026 604 1026 L604 1026 Z M968 503 C968 283 845 112 604 112 C363 112 240 283 240 503 C240 723 363 894 604 894 C845 894 968 723 968 503 L968 503 Z " />
<glyph glyph-name="p" unicode="p" horiz-adv-x="1357" d="M421 200 C425 190 518 -20 769 -20 C1109 -20 1277 222 1277 503 C1277 784 1109 1026 769 1026 C518 1026 425 816 421 805 L421 1006 L100 1006 L100 874 L267 874 L267 -400 L100 -400 L100 -532 L588 -532 L588 -400 L421 -400 L421 200 Z M769 112 C540 112 421 294 421 503 C421 712 540 894 769 894 C998 894 1117 712 1117 503 C1117 294 998 112 769 112 L769 112 Z " />
<glyph glyph-name="q" unicode="q" horiz-adv-x="1357" d="M936 -400 L769 -400 L769 -532 L1257 -532 L1257 -400 L1090 -400 L1090 874 L1257 874 L1257 1006 L936 1006 L936 805 C932 816 839 1026 588 1026 C248 1026 80 784 80 503 C80 222 248 -20 588 -20 C839 -20 932 190 936 200 L936 -400 Z M588 112 C359 112 240 294 240 503 C240 712 359 894 588 894 C817 894 936 712 936 503 C936 294 817 112 588 112 L588 112 Z " />
<glyph glyph-name="r" unicode="r" horiz-adv-x="974" d="M100 1006 L100 874 L267 874 L267 132 L100 132 L100 0 L588 0 L588 132 L421 132 L421 559 C421 756 507 894 713 894 C803 894 869 856 869 856 L944 976 C944 976 863 1026 712 1026 C483 1026 424 842 421 833 L421 1006 L100 1006 Z " />
<glyph glyph-name="s" unicode="s" horiz-adv-x="1025" d="M716 714 L870 714 L870 966 C870 966 721 1026 497 1026 C233 1026 112 900 112 750 C112 598 216 508 496 454 C692 418 767 377 767 273 C767 165 667 112 523 112 C358 112 254 163 254 163 L254 292 L100 292 L100 90 C100 90 222 -20 523 -20 C758 -20 925 79 925 273 C925 466 789 537 523 589 C339 623 270 666 270 750 C270 834 327 894 497 894 C608 894 716 868 716 868 L716 714 Z " />
<glyph glyph-name="t" unicode="t" horiz-adv-x="810" d="M60 874 L265 874 L265 441 C265 134 300 -20 583 -20 C681 -20 750 6 750 6 L710 132 C710 132 640 112 583 112 C428 112 419 221 419 441 L419 874 L719 874 L719 1006 L419 1006 L419 1300 L265 1300 L265 1006 L60 1006 L60 874 Z " />
<glyph glyph-name="u" unicode="u" horiz-adv-x="1424" d="M421 1006 L100 1006 L100 874 L267 874 L267 447 C267 153 423 -20 712 -20 C941 -20 1000 164 1003 173 L1003 0 L1324 0 L1324 132 L1157 132 L1157 1006 L836 1006 L836 874 L1003 874 L1003 447 C1003 250 917 112 712 112 C507 112 421 250 421 447 L421 1006 Z " />
<glyph glyph-name="v" unicode="v" horiz-adv-x="1408" d="M704 186 L429 874 L588 874 L588 1006 L100 1006 L100 874 L260 874 L625 0 L783 0 L1148 874 L1308 874 L1308 1006 L820 1006 L820 874 L979 874 L704 186 Z " />
<glyph glyph-name="w" unicode="w" horiz-adv-x="1866" d="M623 238 L427 874 L588 874 L588 1006 L100 1006 L100 874 L261 874 L550 0 L694 0 L933 771 L1172 0 L1316 0 L1604 874 L1766 874 L1766 1006 L1278 1006 L1278 874 L1438 874 L1243 238 L1005 1006 L861 1006 L623 238 Z " />
<glyph glyph-name="x" unicode="x" horiz-adv-x="1323" d="M660 423 L985 0 L1223 0 L1223 132 L1071 132 L758 532 L1028 874 L1183 874 L1183 1006 L695 1006 L695 874 L842 874 L660 639 L376 1006 L138 1006 L138 874 L291 874 L562 532 L249 132 L100 132 L100 0 L588 0 L588 132 L436 132 L660 423 Z " />
<glyph glyph-name="y" unicode="y" horiz-adv-x="1408" d="M704 186 L429 874 L588 874 L588 1006 L100 1006 L100 874 L260 874 L625 0 L521 -254 C484 -340 456 -400 323 -400 L215 -400 L215 -532 L340 -532 C511 -532 587 -464 654 -308 L1148 874 L1308 874 L1308 1006 L820 1006 L820 874 L979 874 L704 186 Z " />
<glyph glyph-name="z" unicode="z" horiz-adv-x="1053" d="M123 714 L277 714 L277 874 L723 874 L100 78 L100 0 L953 0 L953 292 L799 292 L799 132 L330 132 L953 928 L953 1006 L123 1006 L123 714 Z " />
<glyph glyph-name="braceleft" unicode="&#x7b;" horiz-adv-x="829" d="M100 666 L100 522 C258 495 360 429 360 181 C360 -102 497 -266 729 -266 L729 -121 C589 -121 522 -7 522 187 C522 433 424 551 311 594 C424 637 522 755 522 1001 C522 1195 589 1309 729 1309 L729 1454 C497 1454 360 1290 360 1007 C360 759 258 693 100 666 L100 666 Z " />
<glyph glyph-name="bar" unicode="&#x7c;" horiz-adv-x="402" d="M120 -532 L282 -532 L282 1434 L120 1434 L120 -532 Z " />
<glyph glyph-name="braceright" unicode="&#x7d;" horiz-adv-x="829" d="M729 666 C571 693 469 759 469 1007 C469 1290 332 1454 100 1454 L100 1309 C240 1309 307 1195 307 1001 C307 755 405 637 518 594 C405 551 307 433 307 187 C307 -7 240 -121 100 -121 L100 -266 C332 -266 469 -102 469 181 C469 429 571 495 729 522 L729 666 Z " />
<glyph glyph-name="asciitilde" unicode="&#x7e;" horiz-adv-x="1032" d="M477 686 C533 631 591 575 694 575 C933 575 931 842 931 842 L779 842 C779 842 776 716 694 716 C644 716 617 744 555 808 C499 863 441 919 338 919 C99 919 101 652 101 652 L253 652 C253 652 256 778 338 778 C388 778 415 750 477 686 L477 686 Z " />
<glyph glyph-name="uni00A0" unicode="&#xa0;" horiz-adv-x="573" d="" />
<glyph glyph-name="exclamdown" unicode="&#xa1;" horiz-adv-x="446" d="M142 -532 L305 -532 L295 591 L152 591 L142 -532 Z M120 809 C120 753 166 706 223 706 C280 706 326 753 326 809 C326 865 280 912 223 912 C166 912 120 865 120 809 L120 809 Z " />
<glyph glyph-name="cent" unicode="&#xa2;" horiz-adv-x="1041" d="M827 714 L981 714 L981 960 C981 960 847 1013 666 1024 L666 1228 L520 1228 L520 1021 C245 986 80 779 80 503 C80 227 245 20 520 -15 L520 -218 L666 -218 L666 -17 C873 1 981 106 981 106 L899 210 C899 210 771 112 604 112 C363 112 240 283 240 503 C240 723 363 894 604 894 C726 894 827 867 827 867 L827 714 Z " />
<glyph glyph-name="sterling" unicode="&#xa3;" horiz-adv-x="1326" d="M120 641 L289 641 C313 525 324 438 324 390 C324 241 204 114 204 114 L204 0 L1193 0 L1193 144 L413 144 C413 144 486 263 486 390 C486 447 474 510 464 571 C461 592 455 618 451 641 L936 641 L936 785 L426 785 C420 831 414 907 414 965 C414 1131 490 1310 734 1310 C953 1310 1032 1202 1081 1119 L1206 1186 C1150 1316 1006 1454 734 1454 C344 1454 252 1157 252 965 C252 908 256 828 263 785 L120 785 L120 641 Z " />
<glyph glyph-name="currency" unicode="&#xa4;" horiz-adv-x="1102" d="M877 829 C920 892 949 974 949 1056 C949 1137 920 1220 877 1284 L1002 1408 L903 1507 L777 1382 C713 1426 632 1454 550 1454 C468 1454 386 1425 323 1383 L199 1506 L100 1408 L225 1284 C182 1220 153 1137 153 1056 C153 974 182 891 225 828 L100 704 L199 606 L323 730 C386 687 468 659 550 659 C631 659 714 687 777 730 L902 606 L1001 704 L877 829 Z M285 1056 C285 1204 404 1322 551 1322 C698 1322 817 1204 817 1056 C817 909 698 790 551 790 C404 790 285 909 285 1056 L285 1056 Z " />
<glyph glyph-name="yen" unicode="&#xa5;" horiz-adv-x="1588" d="M389 374 L389 235 L713 235 L713 144 L549 144 L549 0 L1039 0 L1039 144 L875 144 L875 235 L1200 235 L1200 374 L875 374 L875 469 L1200 469 L1200 607 L881 607 L1337 1290 L1488 1290 L1488 1434 L998 1434 L998 1290 L1147 1290 L794 760 L441 1290 L590 1290 L590 1434 L100 1434 L100 1290 L251 1290 L706 607 L389 607 L389 469 L713 469 L713 374 L389 374 Z " />
<glyph glyph-name="brokenbar" unicode="&#xa6;" horiz-adv-x="402" d="M120 612 L282 612 L282 1434 L120 1434 L120 612 Z M120 -532 L282 -532 L282 290 L120 290 L120 -532 Z " />
<glyph glyph-name="section" unicode="&#xa7;" horiz-adv-x="1348" d="M1208 375 C1208 627 1031 744 696 822 C450 880 335 946 335 1083 C335 1239 469 1310 663 1310 C870 1310 977 1274 977 1274 L977 1127 L1139 1127 L1139 1376 C1139 1376 955 1454 663 1454 C343 1454 171 1304 171 1083 C171 984 205 905 274 840 C186 774 140 676 140 547 C140 295 317 178 652 100 C898 42 1013 -24 1013 -161 C1013 -317 879 -388 685 -388 C478 -388 371 -352 371 -352 L371 -205 L209 -205 L209 -454 C209 -454 393 -532 685 -532 C1005 -532 1177 -382 1177 -161 C1177 -62 1142 17 1074 81 C1162 147 1208 246 1208 375 L1208 375 Z M668 666 C948 601 1044 521 1044 375 C1044 284 1010 215 933 173 C864 205 779 233 680 256 C400 321 304 401 304 547 C304 638 337 706 414 749 C484 716 568 689 668 666 L668 666 Z " />
<glyph glyph-name="dieresis" unicode="&#xa8;" horiz-adv-x="776" d="M100 1285 C100 1228 147 1183 203 1183 C259 1183 306 1228 306 1285 C306 1341 259 1387 203 1387 C147 1387 100 1341 100 1285 L100 1285 Z M470 1285 C470 1228 517 1183 573 1183 C629 1183 676 1228 676 1285 C676 1341 629 1387 573 1387 C517 1387 470 1341 470 1285 L470 1285 Z " />
<glyph glyph-name="copyright" unicode="&#xa9;" horiz-adv-x="1673" d="M564 717 C564 885 647 1027 834 1027 C913 1027 1003 1004 1065 950 L1144 1048 C1062 1122 962 1159 834 1159 C562 1159 409 961 409 717 C409 473 562 275 834 275 C962 275 1062 312 1144 386 L1065 484 C1003 430 913 407 834 407 C647 407 564 549 564 717 L564 717 Z M100 717 C100 311 430 -20 836 -20 C1243 -20 1573 311 1573 717 C1573 1123 1243 1454 836 1454 C430 1454 100 1123 100 717 L100 717 Z M244 717 C244 1044 509 1309 836 1309 C1164 1309 1429 1044 1429 717 C1429 390 1164 125 836 125 C509 125 244 390 244 717 L244 717 Z " />
<glyph glyph-name="ordfeminine" unicode="&#xaa;" horiz-adv-x="835" d="M371 1316 C495 1316 538 1270 538 1179 C347 1194 60 1185 60 941 C60 776 169 704 335 704 C506 704 540 824 540 824 L540 714 L775 714 L775 842 L676 842 L676 1133 C676 1364 590 1444 371 1444 C211 1444 127 1393 127 1393 L176 1279 C176 1279 260 1316 371 1316 L371 1316 Z M196 941 C196 1080 402 1074 540 1068 L540 1035 C540 907 470 832 335 832 C241 832 196 874 196 941 L196 941 Z " />
<glyph glyph-name="guillemotleft" unicode="&#xab;" horiz-adv-x="1388" d="M741 971 L741 1158 L100 660 L100 554 L741 56 L741 243 L270 607 L741 971 Z M1268 971 L1268 1158 L627 660 L627 554 L1268 56 L1268 243 L797 607 L1268 971 Z " />
<glyph glyph-name="logicalnot" unicode="&#xac;" horiz-adv-x="1160" d="M100 661 L899 661 L899 275 L1060 275 L1060 806 L100 806 L100 661 Z " />
<glyph glyph-name="uni00AD" unicode="&#xad;" horiz-adv-x="975" d="M100 560 L875 560 L875 704 L100 704 L100 560 Z " />
<glyph glyph-name="registered" unicode="&#xae;" horiz-adv-x="1050" d="M173 1009 C173 1204 330 1361 525 1361 C720 1361 877 1204 877 1009 C877 814 720 657 525 657 C330 657 173 814 173 1009 L173 1009 Z M80 1009 C80 763 280 564 525 564 C770 564 970 763 970 1009 C970 1254 770 1454 525 1454 C280 1454 80 1254 80 1009 L80 1009 Z M462 771 L462 952 L524 952 L620 771 L719 771 L618 962 C689 980 709 1046 709 1103 C709 1179 670 1255 563 1255 L371 1255 L371 771 L462 771 Z M563 1173 C603 1173 618 1140 618 1103 C618 1067 603 1034 563 1034 L462 1034 L462 1173 L563 1173 Z " />
<glyph glyph-name="macron" unicode="&#xaf;" horiz-adv-x="904" d="M100 1301 L804 1301 L804 1434 L100 1434 L100 1301 Z " />
<glyph glyph-name="degree" unicode="&#xb0;" horiz-adv-x="536" d="M30 1216 C30 1084 137 978 268 978 C401 978 506 1084 506 1216 C506 1348 401 1454 268 1454 C137 1454 30 1348 30 1216 L30 1216 Z M157 1216 C157 1279 206 1328 268 1328 C331 1328 379 1279 379 1216 C379 1154 331 1104 268 1104 C206 1104 157 1154 157 1216 L157 1216 Z " />
<glyph glyph-name="plusminus" unicode="&#xb1;" horiz-adv-x="1142" d="M1042 294 L100 294 L100 145 L1042 145 L1042 294 Z M1042 904 L646 904 L646 1300 L496 1300 L496 904 L100 904 L100 755 L496 755 L496 359 L646 359 L646 755 L1042 755 L1042 904 Z " />
<glyph glyph-name="twosuperior" unicode="&#xb2;" horiz-adv-x="627" d="M180 1202 C196 1251 234 1316 323 1316 C393 1316 421 1270 421 1229 C421 1174 387 1130 331 1074 L68 804 L68 714 L567 714 L567 904 L431 904 L431 842 L290 842 L419 975 C481 1036 557 1108 557 1229 C557 1364 462 1444 323 1444 C135 1444 78 1317 60 1247 L180 1202 Z " />
<glyph glyph-name="threesuperior" unicode="&#xb3;" horiz-adv-x="632" d="M77 1219 L213 1219 L213 1271 C231 1291 266 1316 321 1316 C386 1316 419 1287 419 1239 C419 1162 351 1139 228 1139 L228 1015 C376 1015 436 997 436 926 C436 862 396 832 321 832 C254 832 216 855 196 873 L196 924 L60 924 L60 820 C60 820 113 704 321 704 C462 704 572 768 572 926 C572 1032 499 1074 432 1086 C511 1110 555 1163 555 1239 C555 1372 463 1444 321 1444 C134 1444 77 1319 77 1319 L77 1219 Z " />
<glyph glyph-name="acute" unicode="&#xb4;" horiz-adv-x="642" d="M80 1129 L252 1129 L562 1434 L353 1434 L80 1129 Z " />
<glyph glyph-name="mu" unicode="&#xb5;" horiz-adv-x="1424" d="M421 447 L421 1006 L100 1006 L100 874 L267 874 L267 -400 L100 -400 L100 -532 L588 -532 L588 -400 L421 -400 L421 172 C424 163 483 -20 712 -20 C941 -20 1000 163 1003 172 L1003 0 L1324 0 L1324 132 L1157 132 L1157 1006 L836 1006 L836 874 L1003 874 L1003 447 C1003 250 917 112 712 112 C507 112 421 250 421 447 L421 447 Z " />
<glyph glyph-name="paragraph" unicode="&#xb6;" horiz-adv-x="1229" d="M483 1434 C223 1434 100 1243 100 1035 C100 828 223 637 483 637 L602 637 L602 0 L764 0 L764 1290 L852 1290 L852 0 L1014 0 L1014 1290 L1129 1290 L1129 1434 L483 1434 Z M602 1290 L602 781 L483 781 C322 781 262 908 262 1035 C262 1162 322 1290 483 1290 L602 1290 Z " />
<glyph glyph-name="periodcentered" unicode="&#xb7;" horiz-adv-x="406" d="M100 660 C100 604 146 557 203 557 C260 557 306 604 306 660 C306 716 260 763 203 763 C146 763 100 716 100 660 L100 660 Z " />
<glyph glyph-name="cedilla" unicode="&#xb8;" horiz-adv-x="590" d="M80 -415 C80 -415 153 -463 275 -463 C397 -463 495 -407 509 -278 C517 -165 433 -105 322 -103 L380 61 L250 61 L153 -213 C214 -205 399 -171 385 -276 C377 -332 333 -349 281 -349 C199 -349 134 -318 134 -318 L80 -415 Z " />
<glyph glyph-name="onesuperior" unicode="&#xb9;" horiz-adv-x="491" d="M97 714 L431 714 L431 842 L332 842 L332 1434 L234 1434 L30 1239 L124 1142 L196 1211 L196 842 L97 842 L97 714 Z " />
<glyph glyph-name="ordmasculine" unicode="&#xba;" horiz-adv-x="812" d="M406 694 C630 694 752 842 752 1069 C752 1297 630 1444 406 1444 C182 1444 60 1297 60 1069 C60 842 182 694 406 694 L406 694 Z M406 822 C266 822 201 921 201 1069 C201 1217 266 1316 406 1316 C546 1316 611 1217 611 1069 C611 921 546 822 406 822 L406 822 Z " />
<glyph glyph-name="guillemotright" unicode="&#xbb;" horiz-adv-x="1388" d="M1118 607 L647 243 L647 56 L1288 554 L1288 660 L647 1158 L647 971 L1118 607 Z M591 607 L120 243 L120 56 L761 554 L761 660 L120 1158 L120 971 L591 607 Z " />
<glyph glyph-name="onequarter" unicode="&#xbc;" horiz-adv-x="1397" d="M208 0 L377 0 L1200 1434 L1031 1434 L208 0 Z M197 714 L531 714 L531 842 L432 842 L432 1434 L334 1434 L130 1239 L224 1142 L296 1211 L296 842 L197 842 L197 714 Z M1267 0 L1267 128 L1168 128 L1168 185 L1267 185 L1267 313 L1168 313 L1168 720 L1059 720 L707 281 L707 185 L1032 185 L1032 128 L933 128 L933 0 L1267 0 Z M897 313 L1032 482 L1032 313 L897 313 Z " />
<glyph glyph-name="onehalf" unicode="&#xbd;" horiz-adv-x="1493" d="M208 0 L377 0 L1200 1434 L1031 1434 L208 0 Z M197 714 L531 714 L531 842 L432 842 L432 1434 L334 1434 L130 1239 L224 1142 L296 1211 L296 842 L197 842 L197 714 Z M976 488 C992 537 1030 602 1119 602 C1189 602 1217 556 1217 515 C1217 460 1183 416 1127 360 L864 90 L864 0 L1363 0 L1363 190 L1227 190 L1227 128 L1086 128 L1215 261 C1277 322 1353 394 1353 515 C1353 650 1258 730 1119 730 C931 730 874 603 856 533 L976 488 Z " />
<glyph glyph-name="threequarters" unicode="&#xbe;" horiz-adv-x="1484" d="M295 0 L464 0 L1287 1434 L1118 1434 L295 0 Z M147 1219 L283 1219 L283 1271 C301 1291 336 1316 391 1316 C456 1316 489 1287 489 1239 C489 1162 421 1139 298 1139 L298 1015 C446 1015 506 997 506 926 C506 862 466 832 391 832 C324 832 286 855 266 873 L266 924 L130 924 L130 820 C130 820 183 704 391 704 C532 704 642 768 642 926 C642 1032 569 1074 502 1086 C581 1110 625 1163 625 1239 C625 1372 533 1444 391 1444 C204 1444 147 1319 147 1319 L147 1219 Z M1354 0 L1354 128 L1255 128 L1255 185 L1354 185 L1354 313 L1255 313 L1255 720 L1146 720 L794 281 L794 185 L1119 185 L1119 128 L1020 128 L1020 0 L1354 0 Z M984 313 L1119 482 L1119 313 L984 313 Z " />
<glyph glyph-name="questiondown" unicode="&#xbf;" horiz-adv-x="943" d="M812 -214 C812 -214 710 -408 483 -408 C269 -408 164 -312 164 -167 C164 39 367 120 597 125 L597 591 L435 591 L435 241 C177 201 0 82 0 -167 C0 -361 136 -552 483 -552 C816 -552 943 -289 943 -289 L812 -214 Z M619 809 C619 865 573 912 516 912 C459 912 413 865 413 809 C413 753 459 706 516 706 C573 706 619 753 619 809 L619 809 Z " />
<glyph glyph-name="Agrave" unicode="&#xc0;" horiz-adv-x="1656" d="M617 1824 L408 1824 L718 1519 L890 1519 L617 1824 Z M893 1434 L538 1434 L538 1290 L702 1290 L219 144 L60 144 L60 0 L550 0 L550 144 L391 144 L512 436 L1144 436 L1265 144 L1106 144 L1106 0 L1596 0 L1596 144 L1437 144 L893 1434 Z M828 1198 L1084 580 L571 580 L828 1198 Z " />
<glyph glyph-name="Aacute" unicode="&#xc1;" horiz-adv-x="1656" d="M728 1519 L900 1519 L1210 1824 L1001 1824 L728 1519 Z M893 1434 L538 1434 L538 1290 L702 1290 L219 144 L60 144 L60 0 L550 0 L550 144 L391 144 L512 436 L1144 436 L1265 144 L1106 144 L1106 0 L1596 0 L1596 144 L1437 144 L893 1434 Z M828 1198 L1084 580 L571 580 L828 1198 Z " />
<glyph glyph-name="Acircumflex" unicode="&#xc2;" horiz-adv-x="1656" d="M498 1519 L656 1519 L828 1699 L1000 1519 L1158 1519 L877 1843 L779 1843 L498 1519 Z M893 1434 L538 1434 L538 1290 L702 1290 L219 144 L60 144 L60 0 L550 0 L550 144 L391 144 L512 436 L1144 436 L1265 144 L1106 144 L1106 0 L1596 0 L1596 144 L1437 144 L893 1434 Z M828 1198 L1084 580 L571 580 L828 1198 Z " />
<glyph glyph-name="Atilde" unicode="&#xc3;" horiz-adv-x="1656" d="M783 1604 C817 1568 852 1519 934 1519 C1122 1519 1122 1739 1122 1739 L977 1739 C977 1739 975 1656 934 1656 C914 1656 898 1676 873 1703 C839 1739 804 1788 722 1788 C534 1788 534 1568 534 1568 L679 1568 C679 1568 681 1651 722 1651 C742 1651 758 1631 783 1604 L783 1604 Z M893 1434 L538 1434 L538 1290 L702 1290 L219 144 L60 144 L60 0 L550 0 L550 144 L391 144 L512 436 L1144 436 L1265 144 L1106 144 L1106 0 L1596 0 L1596 144 L1437 144 L893 1434 Z M828 1198 L1084 580 L571 580 L828 1198 Z " />
<glyph glyph-name="Adieresis" unicode="&#xc4;" horiz-adv-x="1656" d="M540 1641 C540 1584 587 1539 643 1539 C699 1539 746 1584 746 1641 C746 1697 699 1743 643 1743 C587 1743 540 1697 540 1641 L540 1641 Z M910 1641 C910 1584 957 1539 1013 1539 C1069 1539 1116 1584 1116 1641 C1116 1697 1069 1743 1013 1743 C957 1743 910 1697 910 1641 L910 1641 Z M893 1434 L538 1434 L538 1290 L702 1290 L219 144 L60 144 L60 0 L550 0 L550 144 L391 144 L512 436 L1144 436 L1265 144 L1106 144 L1106 0 L1596 0 L1596 144 L1437 144 L893 1434 Z M828 1198 L1084 580 L571 580 L828 1198 Z " />
<glyph glyph-name="Aring" unicode="&#xc5;" horiz-adv-x="1656" d="M637 1710 C637 1607 725 1519 828 1519 C931 1519 1019 1607 1019 1710 C1019 1814 931 1901 828 1901 C725 1901 637 1814 637 1710 L637 1710 Z M748 1710 C748 1754 783 1790 828 1790 C873 1790 908 1754 908 1710 C908 1665 873 1630 828 1630 C783 1630 748 1665 748 1710 L748 1710 Z M893 1434 L538 1434 L538 1290 L702 1290 L219 144 L60 144 L60 0 L550 0 L550 144 L391 144 L512 436 L1144 436 L1265 144 L1106 144 L1106 0 L1596 0 L1596 144 L1437 144 L893 1434 Z M828 1198 L1084 580 L571 580 L828 1198 Z " />
<glyph glyph-name="AE" unicode="&#xc6;" horiz-adv-x="2216" d="M2096 0 L2096 307 L1934 307 L1934 144 L1294 144 L1294 661 L1929 661 L1929 805 L1294 805 L1294 1290 L1924 1290 L1924 1127 L2086 1127 L2086 1434 L879 1434 L879 1290 L1038 1290 L268 144 L120 144 L120 0 L610 0 L610 144 L458 144 L683 478 L1132 478 L1132 0 L2096 0 Z M1132 1146 L1132 622 L780 622 L1132 1146 Z " />
<glyph glyph-name="Ccedilla" unicode="&#xc7;" horiz-adv-x="1409" d="M1127 1127 L1289 1127 L1289 1349 C1289 1349 1124 1454 807 1454 C347 1454 100 1119 100 717 C100 344 312 30 709 -14 L639 -213 C700 -205 885 -171 871 -276 C863 -332 819 -349 767 -349 C685 -349 620 -318 620 -318 L566 -415 C566 -415 639 -463 761 -463 C883 -463 981 -407 995 -278 C1003 -165 919 -105 808 -103 L837 -19 C1141 -11 1289 113 1289 113 L1204 231 C1204 231 1034 124 807 124 C442 124 266 391 266 717 C266 1043 442 1310 807 1310 C1020 1310 1127 1263 1127 1263 L1127 1127 Z " />
<glyph glyph-name="Egrave" unicode="&#xc8;" horiz-adv-x="1368" d="M516 1824 L307 1824 L616 1519 L789 1519 L516 1824 Z M1076 1127 L1238 1127 L1238 1434 L120 1434 L120 1290 L284 1290 L284 144 L120 144 L120 0 L1248 0 L1248 307 L1086 307 L1086 144 L446 144 L446 661 L1081 661 L1081 805 L446 805 L446 1290 L1076 1290 L1076 1127 Z " />
<glyph glyph-name="Eacute" unicode="&#xc9;" horiz-adv-x="1368" d="M602 1519 L774 1519 L1083 1824 L875 1824 L602 1519 Z M1076 1127 L1238 1127 L1238 1434 L120 1434 L120 1290 L284 1290 L284 144 L120 144 L120 0 L1248 0 L1248 307 L1086 307 L1086 144 L446 144 L446 661 L1081 661 L1081 805 L446 805 L446 1290 L1076 1290 L1076 1127 Z " />
<glyph glyph-name="Ecircumflex" unicode="&#xca;" horiz-adv-x="1368" d="M366 1519 L524 1519 L696 1699 L868 1519 L1026 1519 L745 1843 L647 1843 L366 1519 Z M1076 1127 L1238 1127 L1238 1434 L120 1434 L120 1290 L284 1290 L284 144 L120 144 L120 0 L1248 0 L1248 307 L1086 307 L1086 144 L446 144 L446 661 L1081 661 L1081 805 L446 805 L446 1290 L1076 1290 L1076 1127 Z " />
<glyph glyph-name="Edieresis" unicode="&#xcb;" horiz-adv-x="1368" d="M409 1641 C409 1584 456 1539 512 1539 C568 1539 615 1584 615 1641 C615 1697 568 1743 512 1743 C456 1743 409 1697 409 1641 L409 1641 Z M779 1641 C779 1584 826 1539 882 1539 C938 1539 985 1584 985 1641 C985 1697 938 1743 882 1743 C826 1743 779 1697 779 1641 L779 1641 Z M1076 1127 L1238 1127 L1238 1434 L120 1434 L120 1290 L284 1290 L284 144 L120 144 L120 0 L1248 0 L1248 307 L1086 307 L1086 144 L446 144 L446 661 L1081 661 L1081 805 L446 805 L446 1290 L1076 1290 L1076 1127 Z " />
<glyph glyph-name="Igrave" unicode="&#xcc;" horiz-adv-x="802" d="M289 1824 L80 1824 L390 1519 L562 1519 L289 1824 Z M396 1290 L396 144 L232 144 L232 0 L722 0 L722 144 L558 144 L558 1290 L722 1290 L722 1434 L232 1434 L232 1290 L396 1290 Z " />
<glyph glyph-name="Iacute" unicode="&#xcd;" horiz-adv-x="840" d="M279 1519 L451 1519 L760 1824 L552 1824 L279 1519 Z M284 1290 L284 144 L120 144 L120 0 L610 0 L610 144 L446 144 L446 1290 L610 1290 L610 1434 L120 1434 L120 1290 L284 1290 Z " />
<glyph glyph-name="Icircumflex" unicode="&#xce;" horiz-adv-x="820" d="M80 1519 L238 1519 L410 1699 L582 1519 L740 1519 L459 1843 L361 1843 L80 1519 Z M329 1290 L329 144 L165 144 L165 0 L655 0 L655 144 L491 144 L491 1290 L655 1290 L655 1434 L165 1434 L165 1290 L329 1290 Z " />
<glyph glyph-name="Idieresis" unicode="&#xcf;" horiz-adv-x="736" d="M80 1641 C80 1584 127 1539 183 1539 C239 1539 286 1584 286 1641 C286 1697 239 1743 183 1743 C127 1743 80 1697 80 1641 L80 1641 Z M450 1641 C450 1584 497 1539 553 1539 C609 1539 656 1584 656 1641 C656 1697 609 1743 553 1743 C497 1743 450 1697 450 1641 L450 1641 Z M287 1290 L287 144 L123 144 L123 0 L613 0 L613 144 L449 144 L449 1290 L613 1290 L613 1434 L123 1434 L123 1290 L287 1290 Z " />
<glyph glyph-name="Eth" unicode="&#xd0;" horiz-adv-x="1569" d="M1489 717 C1489 1130 1281 1434 789 1434 L165 1434 L165 1290 L329 1290 L329 785 L120 785 L120 645 L329 645 L329 144 L165 144 L165 0 L789 0 C1281 0 1489 304 1489 717 L1489 717 Z M789 1290 C1184 1290 1323 1036 1323 717 C1323 398 1184 144 789 144 L491 144 L491 645 L818 645 L818 785 L491 785 L491 1290 L789 1290 Z " />
<glyph glyph-name="Ntilde" unicode="&#xd1;" horiz-adv-x="1702" d="M806 1604 C840 1568 875 1519 957 1519 C1145 1519 1145 1739 1145 1739 L1000 1739 C1000 1739 998 1656 957 1656 C937 1656 921 1676 896 1703 C862 1739 827 1788 745 1788 C557 1788 557 1568 557 1568 L702 1568 C702 1568 704 1651 745 1651 C765 1651 781 1631 806 1604 L806 1604 Z M284 1290 L284 144 L120 144 L120 0 L610 0 L610 144 L446 144 L446 1195 L1228 0 L1418 0 L1418 1290 L1582 1290 L1582 1434 L1092 1434 L1092 1290 L1256 1290 L1256 239 L474 1434 L120 1434 L120 1290 L284 1290 Z " />
<glyph glyph-name="Ograve" unicode="&#xd2;" horiz-adv-x="1614" d="M624 1824 L416 1824 L725 1519 L897 1519 L624 1824 Z M100 717 C100 315 347 -20 807 -20 C1267 -20 1514 315 1514 717 C1514 1119 1267 1454 807 1454 C347 1454 100 1119 100 717 L100 717 Z M1348 717 C1348 391 1172 124 807 124 C442 124 266 391 266 717 C266 1043 442 1310 807 1310 C1172 1310 1348 1043 1348 717 L1348 717 Z " />
<glyph glyph-name="Oacute" unicode="&#xd3;" horiz-adv-x="1614" d="M721 1519 L893 1519 L1202 1824 L994 1824 L721 1519 Z M100 717 C100 315 347 -20 807 -20 C1267 -20 1514 315 1514 717 C1514 1119 1267 1454 807 1454 C347 1454 100 1119 100 717 L100 717 Z M1348 717 C1348 391 1172 124 807 124 C442 124 266 391 266 717 C266 1043 442 1310 807 1310 C1172 1310 1348 1043 1348 717 L1348 717 Z " />
<glyph glyph-name="Ocircumflex" unicode="&#xd4;" horiz-adv-x="1614" d="M100 717 C100 315 347 -20 807 -20 C1267 -20 1514 315 1514 717 C1514 1119 1267 1454 807 1454 C347 1454 100 1119 100 717 L100 717 Z M1348 717 C1348 391 1172 124 807 124 C442 124 266 391 266 717 C266 1043 442 1310 807 1310 C1172 1310 1348 1043 1348 717 L1348 717 Z M477 1519 L635 1519 L807 1699 L979 1519 L1137 1519 L856 1843 L758 1843 L477 1519 Z " />
<glyph glyph-name="Otilde" unicode="&#xd5;" horiz-adv-x="1614" d="M100 717 C100 315 347 -20 807 -20 C1267 -20 1514 315 1514 717 C1514 1119 1267 1454 807 1454 C347 1454 100 1119 100 717 L100 717 Z M1348 717 C1348 391 1172 124 807 124 C442 124 266 391 266 717 C266 1043 442 1310 807 1310 C1172 1310 1348 1043 1348 717 L1348 717 Z M762 1604 C796 1568 831 1519 913 1519 C1101 1519 1101 1739 1101 1739 L956 1739 C956 1739 954 1656 913 1656 C893 1656 877 1676 852 1703 C818 1739 783 1788 701 1788 C513 1788 513 1568 513 1568 L658 1568 C658 1568 660 1651 701 1651 C721 1651 737 1631 762 1604 L762 1604 Z " />
<glyph glyph-name="Odieresis" unicode="&#xd6;" horiz-adv-x="1614" d="M100 717 C100 315 347 -20 807 -20 C1267 -20 1514 315 1514 717 C1514 1119 1267 1454 807 1454 C347 1454 100 1119 100 717 L100 717 Z M1348 717 C1348 391 1172 124 807 124 C442 124 266 391 266 717 C266 1043 442 1310 807 1310 C1172 1310 1348 1043 1348 717 L1348 717 Z M519 1641 C519 1584 566 1539 622 1539 C678 1539 725 1584 725 1641 C725 1697 678 1743 622 1743 C566 1743 519 1697 519 1641 L519 1641 Z M889 1641 C889 1584 936 1539 992 1539 C1048 1539 1095 1584 1095 1641 C1095 1697 1048 1743 992 1743 C936 1743 889 1697 889 1641 L889 1641 Z " />
<glyph glyph-name="multiply" unicode="&#xd7;" horiz-adv-x="973" d="M766 1050 L486 770 L207 1050 L100 942 L379 663 L100 384 L206 277 L486 557 L767 277 L873 384 L593 663 L873 942 L766 1050 Z " />
<glyph glyph-name="Oslash" unicode="&#xd8;" horiz-adv-x="1614" d="M100 717 C100 449 209 211 419 82 L351 -60 L514 -60 L552 19 C628 -6 713 -20 807 -20 C1267 -20 1514 315 1514 717 C1514 985 1403 1224 1193 1353 L1261 1494 L1099 1494 L1061 1414 C985 1440 900 1454 807 1454 C347 1454 100 1119 100 717 L100 717 Z M1348 717 C1348 391 1172 124 807 124 C736 124 673 134 616 152 L1127 1216 C1275 1111 1348 926 1348 717 L1348 717 Z M266 717 C266 1043 442 1310 807 1310 C877 1310 940 1300 997 1281 L485 218 C338 324 266 508 266 717 L266 717 Z " />
<glyph glyph-name="Ugrave" unicode="&#xd9;" horiz-adv-x="1720" d="M678 1824 L469 1824 L779 1519 L951 1519 L678 1824 Z M446 614 L446 1290 L610 1290 L610 1434 L120 1434 L120 1290 L284 1290 L284 614 C284 205 481 -20 860 -20 C1239 -20 1436 205 1436 614 L1436 1290 L1600 1290 L1600 1434 L1110 1434 L1110 1290 L1274 1290 L1274 614 C1274 290 1146 124 860 124 C574 124 446 290 446 614 L446 614 Z " />
<glyph glyph-name="Uacute" unicode="&#xda;" horiz-adv-x="1720" d="M769 1519 L941 1519 L1251 1824 L1042 1824 L769 1519 Z M446 614 L446 1290 L610 1290 L610 1434 L120 1434 L120 1290 L284 1290 L284 614 C284 205 481 -20 860 -20 C1239 -20 1436 205 1436 614 L1436 1290 L1600 1290 L1600 1434 L1110 1434 L1110 1290 L1274 1290 L1274 614 C1274 290 1146 124 860 124 C574 124 446 290 446 614 L446 614 Z " />
<glyph glyph-name="Ucircumflex" unicode="&#xdb;" horiz-adv-x="1720" d="M529 1519 L687 1519 L859 1699 L1031 1519 L1189 1519 L908 1843 L810 1843 L529 1519 Z M446 614 L446 1290 L610 1290 L610 1434 L120 1434 L120 1290 L284 1290 L284 614 C284 205 481 -20 860 -20 C1239 -20 1436 205 1436 614 L1436 1290 L1600 1290 L1600 1434 L1110 1434 L1110 1290 L1274 1290 L1274 614 C1274 290 1146 124 860 124 C574 124 446 290 446 614 L446 614 Z " />
<glyph glyph-name="Udieresis" unicode="&#xdc;" horiz-adv-x="1720" d="M572 1641 C572 1584 619 1539 675 1539 C731 1539 778 1584 778 1641 C778 1697 731 1743 675 1743 C619 1743 572 1697 572 1641 L572 1641 Z M942 1641 C942 1584 989 1539 1045 1539 C1101 1539 1148 1584 1148 1641 C1148 1697 1101 1743 1045 1743 C989 1743 942 1697 942 1641 L942 1641 Z M446 614 L446 1290 L610 1290 L610 1434 L120 1434 L120 1290 L284 1290 L284 614 C284 205 481 -20 860 -20 C1239 -20 1436 205 1436 614 L1436 1290 L1600 1290 L1600 1434 L1110 1434 L1110 1290 L1274 1290 L1274 614 C1274 290 1146 124 860 124 C574 124 446 290 446 614 L446 614 Z " />
<glyph glyph-name="Yacute" unicode="&#xdd;" horiz-adv-x="1508" d="M652 1519 L824 1519 L1133 1824 L924 1824 L652 1519 Z M673 597 L673 144 L509 144 L509 0 L999 0 L999 144 L835 144 L835 597 L1297 1290 L1448 1290 L1448 1434 L958 1434 L958 1290 L1107 1290 L754 760 L401 1290 L550 1290 L550 1434 L60 1434 L60 1290 L211 1290 L673 597 Z " />
<glyph glyph-name="Thorn" unicode="&#xde;" horiz-adv-x="1132" d="M100 0 L590 0 L590 144 L426 144 L426 313 L662 313 C926 313 1052 485 1052 717 C1052 951 926 1121 662 1121 L426 1121 L426 1290 L590 1290 L590 1434 L100 1434 L100 1290 L264 1290 L264 144 L100 144 L100 0 Z M662 977 C816 977 890 876 890 717 C890 560 816 457 662 457 L426 457 L426 977 L662 977 Z " />
<glyph glyph-name="germandbls" unicode="&#xdf;" horiz-adv-x="1400" d="M284 883 L284 144 L120 144 L120 0 L446 0 L446 883 C446 1259 610 1310 760 1310 C997 1310 1081 1204 1081 1055 C1081 918 1001 820 835 820 L623 820 L623 676 L837 676 C1021 676 1136 587 1136 395 C1136 222 1049 124 855 124 C674 124 538 197 538 197 L538 40 C538 40 635 -20 855 -20 C1149 -20 1300 138 1300 395 C1300 600 1180 710 1039 754 C1148 792 1245 904 1245 1055 C1245 1276 1083 1454 760 1454 C611 1454 284 1418 284 883 L284 883 Z " />
<glyph glyph-name="agrave" unicode="&#xe0;" horiz-adv-x="1225" d="M368 1434 L160 1434 L468 1131 L640 1131 L368 1434 Z M804 0 L1125 0 L1125 132 L958 132 L958 591 C958 843 915 1026 558 1026 C317 1026 169 931 169 931 L233 813 C233 813 381 894 558 894 C775 894 800 798 804 650 C537 678 80 664 80 308 C80 88 236 -20 471 -20 C751 -20 801 172 804 181 L804 0 Z M238 308 C238 533 577 545 804 530 L804 431 C804 266 700 112 471 112 C306 112 238 199 238 308 L238 308 Z " />
<glyph glyph-name="aacute" unicode="&#xe1;" horiz-adv-x="1225" d="M461 1131 L632 1131 L940 1434 L733 1434 L461 1131 Z M804 0 L1125 0 L1125 132 L958 132 L958 591 C958 843 915 1026 558 1026 C317 1026 169 931 169 931 L233 813 C233 813 381 894 558 894 C775 894 800 798 804 650 C537 678 80 664 80 308 C80 88 236 -20 471 -20 C751 -20 801 172 804 181 L804 0 Z M238 308 C238 533 577 545 804 530 L804 431 C804 266 700 112 471 112 C306 112 238 199 238 308 L238 308 Z " />
<glyph glyph-name="acircumflex" unicode="&#xe2;" horiz-adv-x="1225" d="M227 1110 L385 1110 L557 1290 L729 1110 L887 1110 L606 1434 L508 1434 L227 1110 Z M804 0 L1125 0 L1125 132 L958 132 L958 591 C958 843 915 1026 558 1026 C317 1026 169 931 169 931 L233 813 C233 813 381 894 558 894 C775 894 800 798 804 650 C537 678 80 664 80 308 C80 88 236 -20 471 -20 C751 -20 801 172 804 181 L804 0 Z M238 308 C238 533 577 545 804 530 L804 431 C804 266 700 112 471 112 C306 112 238 199 238 308 L238 308 Z " />
<glyph glyph-name="atilde" unicode="&#xe3;" horiz-adv-x="1225" d="M505 1250 C539 1214 574 1165 656 1165 C844 1165 844 1385 844 1385 L699 1385 C699 1385 697 1302 656 1302 C636 1302 620 1322 595 1349 C561 1385 526 1434 444 1434 C256 1434 256 1214 256 1214 L401 1214 C401 1214 403 1297 444 1297 C464 1297 480 1277 505 1250 L505 1250 Z M804 0 L1125 0 L1125 132 L958 132 L958 591 C958 843 915 1026 558 1026 C317 1026 169 931 169 931 L233 813 C233 813 381 894 558 894 C775 894 800 798 804 650 C537 678 80 664 80 308 C80 88 236 -20 471 -20 C751 -20 801 172 804 181 L804 0 Z M238 308 C238 533 577 545 804 530 L804 431 C804 266 700 112 471 112 C306 112 238 199 238 308 L238 308 Z " />
<glyph glyph-name="adieresis" unicode="&#xe4;" horiz-adv-x="1225" d="M281 1285 C281 1228 328 1183 384 1183 C440 1183 487 1228 487 1285 C487 1341 440 1387 384 1387 C328 1387 281 1341 281 1285 L281 1285 Z M651 1285 C651 1228 698 1183 754 1183 C810 1183 857 1228 857 1285 C857 1341 810 1387 754 1387 C698 1387 651 1341 651 1285 L651 1285 Z M804 0 L1125 0 L1125 132 L958 132 L958 591 C958 843 915 1026 558 1026 C317 1026 169 931 169 931 L233 813 C233 813 381 894 558 894 C775 894 800 798 804 650 C537 678 80 664 80 308 C80 88 236 -20 471 -20 C751 -20 801 172 804 181 L804 0 Z M238 308 C238 533 577 545 804 530 L804 431 C804 266 700 112 471 112 C306 112 238 199 238 308 L238 308 Z " />
<glyph glyph-name="aring" unicode="&#xe5;" horiz-adv-x="1225" d="M371 1297 C371 1194 459 1106 562 1106 C665 1106 753 1194 753 1297 C753 1401 665 1488 562 1488 C459 1488 371 1401 371 1297 L371 1297 Z M482 1297 C482 1341 517 1377 562 1377 C607 1377 642 1341 642 1297 C642 1252 607 1217 562 1217 C517 1217 482 1252 482 1297 L482 1297 Z M804 0 L1125 0 L1125 132 L958 132 L958 591 C958 843 915 1026 558 1026 C317 1026 169 931 169 931 L233 813 C233 813 381 894 558 894 C775 894 800 798 804 650 C537 678 80 664 80 308 C80 88 236 -20 471 -20 C751 -20 801 172 804 181 L804 0 Z M238 308 C238 533 577 545 804 530 L804 431 C804 266 700 112 471 112 C306 112 238 199 238 308 L238 308 Z " />
<glyph glyph-name="ae" unicode="&#xe6;" horiz-adv-x="1853" d="M1288 112 C1094 112 975 253 968 437 L1773 437 C1773 834 1573 1026 1288 1026 C1126 1026 1000 963 917 859 C869 962 767 1026 558 1026 C317 1026 169 931 169 931 L233 813 C233 813 381 894 558 894 C775 894 800 798 804 650 C537 678 80 664 80 308 C80 88 236 -20 471 -20 C696 -20 825 89 893 178 C975 55 1110 -20 1288 -20 C1572 -20 1712 141 1712 141 L1614 237 C1614 237 1471 112 1288 112 L1288 112 Z M238 308 C238 533 577 545 804 530 L804 431 C804 266 700 112 471 112 C306 112 238 199 238 308 L238 308 Z M968 569 C985 752 1095 894 1288 894 C1482 894 1593 753 1609 569 L968 569 Z " />
<glyph glyph-name="ccedilla" unicode="&#xe7;" horiz-adv-x="1101" d="M827 714 L981 714 L981 960 C981 960 816 1026 604 1026 C280 1026 80 806 80 503 C80 230 242 24 511 -13 L441 -213 C502 -205 687 -171 673 -276 C665 -332 621 -349 569 -349 C487 -349 422 -318 422 -318 L368 -415 C368 -415 441 -463 563 -463 C685 -463 783 -407 797 -278 C805 -165 721 -105 610 -103 L639 -19 C864 -8 981 106 981 106 L899 210 C899 210 771 112 604 112 C363 112 240 283 240 503 C240 723 363 894 604 894 C726 894 827 867 827 867 L827 714 Z " />
<glyph glyph-name="egrave" unicode="&#xe8;" horiz-adv-x="1129" d="M374 1434 L166 1434 L474 1131 L646 1131 L374 1434 Z M564 112 C370 112 251 253 244 437 L1049 437 C1049 834 849 1026 564 1026 C260 1026 80 804 80 503 C80 202 260 -20 564 -20 C848 -20 988 141 988 141 L890 237 C890 237 747 112 564 112 L564 112 Z M244 569 C261 752 371 894 564 894 C758 894 869 753 885 569 L244 569 Z " />
<glyph glyph-name="eacute" unicode="&#xe9;" horiz-adv-x="1129" d="M480 1131 L651 1131 L959 1434 L752 1434 L480 1131 Z M564 112 C370 112 251 253 244 437 L1049 437 C1049 834 849 1026 564 1026 C260 1026 80 804 80 503 C80 202 260 -20 564 -20 C848 -20 988 141 988 141 L890 237 C890 237 747 112 564 112 L564 112 Z M244 569 C261 752 371 894 564 894 C758 894 869 753 885 569 L244 569 Z " />
<glyph glyph-name="ecircumflex" unicode="&#xea;" horiz-adv-x="1129" d="M564 112 C370 112 251 253 244 437 L1049 437 C1049 834 849 1026 564 1026 C260 1026 80 804 80 503 C80 202 260 -20 564 -20 C848 -20 988 141 988 141 L890 237 C890 237 747 112 564 112 L564 112 Z M244 569 C261 752 371 894 564 894 C758 894 869 753 885 569 L244 569 Z M234 1110 L392 1110 L564 1290 L736 1110 L894 1110 L613 1434 L515 1434 L234 1110 Z " />
<glyph glyph-name="edieresis" unicode="&#xeb;" horiz-adv-x="1129" d="M564 112 C370 112 251 253 244 437 L1049 437 C1049 834 849 1026 564 1026 C260 1026 80 804 80 503 C80 202 260 -20 564 -20 C848 -20 988 141 988 141 L890 237 C890 237 747 112 564 112 L564 112 Z M244 569 C261 752 371 894 564 894 C758 894 869 753 885 569 L244 569 Z M277 1285 C277 1228 324 1183 380 1183 C436 1183 483 1228 483 1285 C483 1341 436 1387 380 1387 C324 1387 277 1341 277 1285 L277 1285 Z M647 1285 C647 1228 694 1183 750 1183 C806 1183 853 1228 853 1285 C853 1341 806 1387 750 1387 C694 1387 647 1341 647 1285 L647 1285 Z " />
<glyph glyph-name="igrave" unicode="&#xec;" horiz-adv-x="799" d="M268 1434 L60 1434 L368 1131 L540 1131 L268 1434 Z M532 1006 L211 1006 L211 874 L378 874 L378 132 L211 132 L211 0 L699 0 L699 132 L532 132 L532 1006 Z " />
<glyph glyph-name="iacute" unicode="&#xed;" horiz-adv-x="799" d="M259 1131 L431 1131 L739 1434 L531 1434 L259 1131 Z M421 1006 L100 1006 L100 874 L267 874 L267 132 L100 132 L100 0 L588 0 L588 132 L421 132 L421 1006 Z " />
<glyph glyph-name="icircumflex" unicode="&#xee;" horiz-adv-x="780" d="M60 1110 L218 1110 L390 1290 L562 1110 L720 1110 L439 1434 L341 1434 L60 1110 Z M467 1006 L146 1006 L146 874 L313 874 L313 132 L146 132 L146 0 L634 0 L634 132 L467 132 L467 1006 Z " />
<glyph glyph-name="idieresis" unicode="&#xef;" horiz-adv-x="696" d="M60 1285 C60 1228 107 1183 163 1183 C219 1183 266 1228 266 1285 C266 1341 219 1387 163 1387 C107 1387 60 1341 60 1285 L60 1285 Z M430 1285 C430 1228 477 1183 533 1183 C589 1183 636 1228 636 1285 C636 1341 589 1387 533 1387 C477 1387 430 1341 430 1285 L430 1285 Z M425 1006 L104 1006 L104 874 L271 874 L271 132 L104 132 L104 0 L592 0 L592 132 L425 132 L425 1006 Z " />
<glyph glyph-name="eth" unicode="&#xf0;" horiz-adv-x="1197" d="M1018 1420 L940 1527 L771 1401 C674 1465 557 1508 420 1529 L384 1376 C462 1365 551 1342 635 1300 L502 1201 L582 1096 L753 1223 C859 1134 936 1001 936 805 C931 816 838 1026 588 1026 C249 1026 80 784 80 503 C80 222 249 -20 588 -20 C867 -20 1057 138 1090 502 C1095 558 1097 614 1097 669 C1097 955 1021 1170 877 1315 L1018 1420 Z M588 894 C817 894 936 712 936 503 C936 294 817 112 588 112 C359 112 240 294 240 503 C240 712 359 894 588 894 L588 894 Z " />
<glyph glyph-name="ntilde" unicode="&#xf1;" horiz-adv-x="1424" d="M667 1250 C701 1214 736 1165 818 1165 C1006 1165 1006 1385 1006 1385 L861 1385 C861 1385 859 1302 818 1302 C798 1302 782 1322 757 1349 C723 1385 688 1434 606 1434 C418 1434 418 1214 418 1214 L563 1214 C563 1214 565 1297 606 1297 C626 1297 642 1277 667 1250 L667 1250 Z M1003 559 L1003 0 L1324 0 L1324 132 L1157 132 L1157 559 C1157 853 1001 1026 712 1026 C483 1026 424 842 421 833 L421 1006 L100 1006 L100 874 L267 874 L267 132 L100 132 L100 0 L588 0 L588 132 L421 132 L421 559 C421 756 507 894 712 894 C917 894 1003 756 1003 559 L1003 559 Z " />
<glyph glyph-name="ograve" unicode="&#xf2;" horiz-adv-x="1208" d="M410 1434 L202 1434 L510 1131 L682 1131 L410 1434 Z M604 1026 C280 1026 80 806 80 503 C80 200 280 -20 604 -20 C928 -20 1128 200 1128 503 C1128 806 928 1026 604 1026 L604 1026 Z M968 503 C968 283 845 112 604 112 C363 112 240 283 240 503 C240 723 363 894 604 894 C845 894 968 723 968 503 L968 503 Z " />
<glyph glyph-name="oacute" unicode="&#xf3;" horiz-adv-x="1208" d="M526 1131 L698 1131 L1006 1434 L798 1434 L526 1131 Z M604 1026 C280 1026 80 806 80 503 C80 200 280 -20 604 -20 C928 -20 1128 200 1128 503 C1128 806 928 1026 604 1026 L604 1026 Z M240 503 C240 723 363 894 604 894 C845 894 968 723 968 503 C968 283 845 112 604 112 C363 112 240 283 240 503 L240 503 Z " />
<glyph glyph-name="ocircumflex" unicode="&#xf4;" horiz-adv-x="1208" d="M604 1026 C280 1026 80 806 80 503 C80 200 280 -20 604 -20 C928 -20 1128 200 1128 503 C1128 806 928 1026 604 1026 L604 1026 Z M968 503 C968 283 845 112 604 112 C363 112 240 283 240 503 C240 723 363 894 604 894 C845 894 968 723 968 503 L968 503 Z M274 1110 L432 1110 L604 1290 L776 1110 L934 1110 L653 1434 L555 1434 L274 1110 Z " />
<glyph glyph-name="otilde" unicode="&#xf5;" horiz-adv-x="1208" d="M604 1026 C280 1026 80 806 80 503 C80 200 280 -20 604 -20 C928 -20 1128 200 1128 503 C1128 806 928 1026 604 1026 L604 1026 Z M968 503 C968 283 845 112 604 112 C363 112 240 283 240 503 C240 723 363 894 604 894 C845 894 968 723 968 503 L968 503 Z M559 1250 C593 1214 628 1165 710 1165 C898 1165 898 1385 898 1385 L753 1385 C753 1385 751 1302 710 1302 C690 1302 674 1322 649 1349 C615 1385 580 1434 498 1434 C310 1434 310 1214 310 1214 L455 1214 C455 1214 457 1297 498 1297 C518 1297 534 1277 559 1250 L559 1250 Z " />
<glyph glyph-name="odieresis" unicode="&#xf6;" horiz-adv-x="1208" d="M604 1026 C280 1026 80 806 80 503 C80 200 280 -20 604 -20 C928 -20 1128 200 1128 503 C1128 806 928 1026 604 1026 L604 1026 Z M968 503 C968 283 845 112 604 112 C363 112 240 283 240 503 C240 723 363 894 604 894 C845 894 968 723 968 503 L968 503 Z M316 1285 C316 1228 363 1183 419 1183 C475 1183 522 1228 522 1285 C522 1341 475 1387 419 1387 C363 1387 316 1341 316 1285 L316 1285 Z M686 1285 C686 1228 733 1183 789 1183 C845 1183 892 1228 892 1285 C892 1341 845 1387 789 1387 C733 1387 686 1341 686 1285 L686 1285 Z " />
<glyph glyph-name="divide" unicode="&#xf7;" horiz-adv-x="966" d="M100 627 L866 627 L866 776 L100 776 L100 627 Z M376 966 C376 906 423 859 483 859 C543 859 590 906 590 966 C590 1026 543 1073 483 1073 C423 1073 376 1026 376 966 L376 966 Z M590 437 C590 497 543 544 483 544 C423 544 376 497 376 437 C376 377 423 330 483 330 C543 330 590 377 590 437 L590 437 Z " />
<glyph glyph-name="oslash" unicode="&#xf8;" horiz-adv-x="1248" d="M624 1026 C300 1026 100 806 100 503 C100 304 186 140 337 52 L284 -60 L427 -60 L456 2 C507 -12 564 -20 624 -20 C948 -20 1148 200 1148 503 C1148 702 1061 865 910 954 L964 1066 L821 1066 L791 1004 C740 1018 684 1026 624 1026 L624 1026 Z M260 503 C260 723 383 894 624 894 C663 894 699 889 732 881 L399 181 C307 251 260 367 260 503 L260 503 Z M988 503 C988 283 865 112 624 112 C584 112 548 116 515 125 L849 825 C941 755 988 638 988 503 L988 503 Z " />
<glyph glyph-name="ugrave" unicode="&#xf9;" horiz-adv-x="1424" d="M513 1434 L305 1434 L613 1131 L785 1131 L513 1434 Z M421 1006 L100 1006 L100 874 L267 874 L267 447 C267 153 423 -20 712 -20 C941 -20 1000 164 1003 173 L1003 0 L1324 0 L1324 132 L1157 132 L1157 1006 L836 1006 L836 874 L1003 874 L1003 447 C1003 250 917 112 712 112 C507 112 421 250 421 447 L421 1006 Z " />
<glyph glyph-name="uacute" unicode="&#xfa;" horiz-adv-x="1424" d="M629 1131 L801 1131 L1109 1434 L901 1434 L629 1131 Z M421 1006 L100 1006 L100 874 L267 874 L267 447 C267 153 423 -20 712 -20 C941 -20 1000 164 1003 173 L1003 0 L1324 0 L1324 132 L1157 132 L1157 1006 L836 1006 L836 874 L1003 874 L1003 447 C1003 250 917 112 712 112 C507 112 421 250 421 447 L421 1006 Z " />
<glyph glyph-name="ucircumflex" unicode="&#xfb;" horiz-adv-x="1424" d="M382 1110 L540 1110 L712 1290 L884 1110 L1042 1110 L761 1434 L663 1434 L382 1110 Z M421 1006 L100 1006 L100 874 L267 874 L267 447 C267 153 423 -20 712 -20 C941 -20 1000 164 1003 173 L1003 0 L1324 0 L1324 132 L1157 132 L1157 1006 L836 1006 L836 874 L1003 874 L1003 447 C1003 250 917 112 712 112 C507 112 421 250 421 447 L421 1006 Z " />
<glyph glyph-name="udieresis" unicode="&#xfc;" horiz-adv-x="1424" d="M424 1285 C424 1228 471 1183 527 1183 C583 1183 630 1228 630 1285 C630 1341 583 1387 527 1387 C471 1387 424 1341 424 1285 L424 1285 Z M794 1285 C794 1228 841 1183 897 1183 C953 1183 1000 1228 1000 1285 C1000 1341 953 1387 897 1387 C841 1387 794 1341 794 1285 L794 1285 Z M421 1006 L100 1006 L100 874 L267 874 L267 447 C267 153 423 -20 712 -20 C941 -20 1000 164 1003 173 L1003 0 L1324 0 L1324 132 L1157 132 L1157 1006 L836 1006 L836 874 L1003 874 L1003 447 C1003 250 917 112 712 112 C507 112 421 250 421 447 L421 1006 Z " />
<glyph glyph-name="yacute" unicode="&#xfd;" horiz-adv-x="1408" d="M616 1131 L788 1131 L1096 1434 L888 1434 L616 1131 Z M704 186 L429 874 L588 874 L588 1006 L100 1006 L100 874 L260 874 L625 0 L521 -254 C484 -340 456 -400 323 -400 L215 -400 L215 -532 L340 -532 C511 -532 587 -464 654 -308 L1148 874 L1308 874 L1308 1006 L820 1006 L820 874 L979 874 L704 186 Z " />
<glyph glyph-name="thorn" unicode="&#xfe;" horiz-adv-x="1357" d="M267 1384 L267 -400 L100 -400 L100 -532 L588 -532 L588 -400 L421 -400 L421 200 C425 190 518 -20 769 -20 C1109 -20 1277 222 1277 503 C1277 784 1109 1026 769 1026 C518 1026 425 816 421 805 L421 1516 L100 1516 L100 1384 L267 1384 Z M769 894 C998 894 1117 712 1117 503 C1117 294 998 112 769 112 C540 112 421 294 421 503 C421 712 540 894 769 894 L769 894 Z " />
<glyph glyph-name="ydieresis" unicode="&#xff;" horiz-adv-x="1408" d="M416 1285 C416 1228 463 1183 519 1183 C575 1183 622 1228 622 1285 C622 1341 575 1387 519 1387 C463 1387 416 1341 416 1285 L416 1285 Z M786 1285 C786 1228 833 1183 889 1183 C945 1183 992 1228 992 1285 C992 1341 945 1387 889 1387 C833 1387 786 1341 786 1285 L786 1285 Z M704 186 L429 874 L588 874 L588 1006 L100 1006 L100 874 L260 874 L625 0 L521 -254 C484 -340 456 -400 323 -400 L215 -400 L215 -532 L340 -532 C511 -532 587 -464 654 -308 L1148 874 L1308 874 L1308 1006 L820 1006 L820 874 L979 874 L704 186 Z " />
<glyph glyph-name="Amacron" unicode="&#x100;" horiz-adv-x="1656" d="M477 1519 L1179 1519 L1179 1652 L477 1652 L477 1519 Z M893 1434 L538 1434 L538 1290 L702 1290 L219 144 L60 144 L60 0 L550 0 L550 144 L391 144 L512 436 L1144 436 L1265 144 L1106 144 L1106 0 L1596 0 L1596 144 L1437 144 L893 1434 Z M828 1198 L1084 580 L571 580 L828 1198 Z " />
<glyph glyph-name="amacron" unicode="&#x101;" horiz-adv-x="1225" d="M214 1302 L914 1302 L914 1434 L214 1434 L214 1302 Z M804 0 L1125 0 L1125 132 L958 132 L958 591 C958 843 915 1026 558 1026 C317 1026 169 931 169 931 L233 813 C233 813 381 894 558 894 C775 894 800 798 804 650 C537 678 80 664 80 308 C80 88 236 -20 471 -20 C751 -20 801 172 804 181 L804 0 Z M238 308 C238 533 577 545 804 530 L804 431 C804 266 700 112 471 112 C306 112 238 199 238 308 L238 308 Z " />
<glyph glyph-name="Abreve" unicode="&#x102;" horiz-adv-x="1656" d="M828 1539 C1127 1539 1168 1786 1168 1786 L1047 1786 C1047 1786 998 1660 828 1660 C658 1660 609 1786 609 1786 L488 1786 C488 1786 529 1539 828 1539 L828 1539 Z M893 1434 L538 1434 L538 1290 L702 1290 L219 144 L60 144 L60 0 L550 0 L550 144 L391 144 L512 436 L1144 436 L1265 144 L1106 144 L1106 0 L1596 0 L1596 144 L1437 144 L893 1434 Z M828 1198 L1084 580 L571 580 L828 1198 Z " />
<glyph glyph-name="abreve" unicode="&#x103;" horiz-adv-x="1225" d="M558 1187 C857 1187 898 1434 898 1434 L777 1434 C777 1434 728 1308 558 1308 C388 1308 339 1434 339 1434 L218 1434 C218 1434 259 1187 558 1187 L558 1187 Z M804 0 L1125 0 L1125 132 L958 132 L958 591 C958 843 915 1026 558 1026 C317 1026 169 931 169 931 L233 813 C233 813 381 894 558 894 C775 894 800 798 804 650 C537 678 80 664 80 308 C80 88 236 -20 471 -20 C751 -20 801 172 804 181 L804 0 Z M238 308 C238 533 577 545 804 530 L804 431 C804 266 700 112 471 112 C306 112 238 199 238 308 L238 308 Z " />
<glyph glyph-name="Aogonek" unicode="&#x104;" horiz-adv-x="1656" d="M893 1434 L538 1434 L538 1290 L702 1290 L219 144 L60 144 L60 0 L550 0 L550 144 L391 144 L512 436 L1144 436 L1265 144 L1106 144 L1106 0 L1434 0 C1372 -20 1295 -79 1298 -189 C1303 -347 1471 -390 1593 -377 L1593 -239 C1535 -239 1435 -235 1435 -146 C1435 -35 1580 -3 1596 0 L1596 144 L1437 144 L893 1434 Z M828 1198 L1084 580 L571 580 L828 1198 Z " />
<glyph glyph-name="aogonek" unicode="&#x105;" horiz-adv-x="1225" d="M804 0 L971 0 C909 -20 824 -79 827 -189 C832 -347 1000 -390 1122 -377 L1122 -239 C1064 -239 964 -235 964 -146 C964 -35 1109 -3 1125 0 L1125 132 L958 132 L958 591 C958 843 915 1026 558 1026 C317 1026 169 931 169 931 L233 813 C233 813 381 894 558 894 C775 894 800 798 804 650 C537 678 80 664 80 308 C80 88 236 -20 471 -20 C751 -20 801 172 804 181 L804 0 Z M238 308 C238 533 577 545 804 530 L804 431 C804 266 700 112 471 112 C306 112 238 199 238 308 L238 308 Z " />
<glyph glyph-name="Cacute" unicode="&#x106;" horiz-adv-x="1409" d="M722 1519 L894 1519 L1203 1824 L995 1824 L722 1519 Z M1127 1127 L1289 1127 L1289 1349 C1289 1349 1124 1454 807 1454 C347 1454 100 1119 100 717 C100 315 347 -20 807 -20 C1131 -20 1289 113 1289 113 L1204 231 C1204 231 1034 124 807 124 C442 124 266 391 266 717 C266 1043 442 1310 807 1310 C1020 1310 1127 1263 1127 1263 L1127 1127 Z " />
<glyph glyph-name="cacute" unicode="&#x107;" horiz-adv-x="1116" d="M516 1124 L687 1124 L996 1427 L788 1427 L516 1124 Z M827 714 L981 714 L981 960 C981 960 816 1026 604 1026 C280 1026 80 806 80 503 C80 200 280 -20 604 -20 C853 -20 981 106 981 106 L899 210 C899 210 771 112 604 112 C363 112 240 283 240 503 C240 723 363 894 604 894 C726 894 827 867 827 867 L827 714 Z " />
<glyph glyph-name="Ccircumflex" unicode="&#x108;" horiz-adv-x="1409" d="M466 1519 L624 1519 L796 1699 L968 1519 L1126 1519 L845 1843 L747 1843 L466 1519 Z M1127 1127 L1289 1127 L1289 1349 C1289 1349 1124 1454 807 1454 C347 1454 100 1119 100 717 C100 315 347 -20 807 -20 C1131 -20 1289 113 1289 113 L1204 231 C1204 231 1034 124 807 124 C442 124 266 391 266 717 C266 1043 442 1310 807 1310 C1020 1310 1127 1263 1127 1263 L1127 1127 Z " />
<glyph glyph-name="ccircumflex" unicode="&#x109;" horiz-adv-x="1101" d="M266 1110 L424 1110 L596 1290 L768 1110 L926 1110 L645 1434 L547 1434 L266 1110 Z M827 714 L981 714 L981 960 C981 960 816 1026 604 1026 C280 1026 80 806 80 503 C80 200 280 -20 604 -20 C853 -20 981 106 981 106 L899 210 C899 210 771 112 604 112 C363 112 240 283 240 503 C240 723 363 894 604 894 C726 894 827 867 827 867 L827 714 Z " />
<glyph glyph-name="Cdotaccent" unicode="&#x10a;" horiz-adv-x="1409" d="M704 1641 C704 1584 751 1539 807 1539 C863 1539 910 1584 910 1641 C910 1697 863 1743 807 1743 C751 1743 704 1697 704 1641 L704 1641 Z M1127 1127 L1289 1127 L1289 1349 C1289 1349 1124 1454 807 1454 C347 1454 100 1119 100 717 C100 315 347 -20 807 -20 C1131 -20 1289 113 1289 113 L1204 231 C1204 231 1034 124 807 124 C442 124 266 391 266 717 C266 1043 442 1310 807 1310 C1020 1310 1127 1263 1127 1263 L1127 1127 Z " />
<glyph glyph-name="cdotaccent" unicode="&#x10b;" horiz-adv-x="1101" d="M501 1285 C501 1228 548 1183 604 1183 C660 1183 707 1228 707 1285 C707 1341 660 1387 604 1387 C548 1387 501 1341 501 1285 L501 1285 Z M827 714 L981 714 L981 960 C981 960 816 1026 604 1026 C280 1026 80 806 80 503 C80 200 280 -20 604 -20 C853 -20 981 106 981 106 L899 210 C899 210 771 112 604 112 C363 112 240 283 240 503 C240 723 363 894 604 894 C726 894 827 867 827 867 L827 714 Z " />
<glyph glyph-name="Ccaron" unicode="&#x10c;" horiz-adv-x="1409" d="M747 1519 L845 1519 L1126 1843 L968 1843 L796 1663 L624 1843 L466 1843 L747 1519 Z M1127 1127 L1289 1127 L1289 1349 C1289 1349 1124 1454 807 1454 C347 1454 100 1119 100 717 C100 315 347 -20 807 -20 C1131 -20 1289 113 1289 113 L1204 231 C1204 231 1034 124 807 124 C442 124 266 391 266 717 C266 1043 442 1310 807 1310 C1020 1310 1127 1263 1127 1263 L1127 1127 Z " />
<glyph glyph-name="ccaron" unicode="&#x10d;" horiz-adv-x="1101" d="M547 1110 L645 1110 L926 1434 L768 1434 L596 1254 L424 1434 L266 1434 L547 1110 Z M827 714 L981 714 L981 960 C981 960 816 1026 604 1026 C280 1026 80 806 80 503 C80 200 280 -20 604 -20 C853 -20 981 106 981 106 L899 210 C899 210 771 112 604 112 C363 112 240 283 240 503 C240 723 363 894 604 894 C726 894 827 867 827 867 L827 714 Z " />
<glyph glyph-name="Dcaron" unicode="&#x10e;" horiz-adv-x="1524" d="M681 1519 L779 1519 L1060 1843 L902 1843 L730 1663 L558 1843 L400 1843 L681 1519 Z M1444 717 C1444 1130 1236 1434 744 1434 L120 1434 L120 1290 L284 1290 L284 144 L120 144 L120 0 L744 0 C1236 0 1444 304 1444 717 L1444 717 Z M744 1290 C1139 1290 1278 1036 1278 717 C1278 398 1139 144 744 144 L446 144 L446 1290 L744 1290 Z " />
<glyph glyph-name="dcaron" unicode="&#x10f;" horiz-adv-x="1294" d="M1122 1082 L1258 1082 L1395 1516 L1226 1516 L1122 1082 Z M1090 1516 L769 1516 L769 1384 L936 1384 L936 805 C936 805 845 1026 588 1026 C248 1026 80 784 80 503 C80 222 248 -20 588 -20 C838 -20 931 190 936 200 L936 0 L1257 0 L1257 132 L1090 132 L1090 1516 Z M588 894 C817 894 936 712 936 503 C936 294 817 112 588 112 C359 112 240 294 240 503 C240 712 359 894 588 894 L588 894 Z " />
<glyph glyph-name="Dcroat" unicode="&#x110;" horiz-adv-x="1569" d="M1489 717 C1489 1130 1281 1434 789 1434 L165 1434 L165 1290 L329 1290 L329 785 L120 785 L120 645 L329 645 L329 144 L165 144 L165 0 L789 0 C1281 0 1489 304 1489 717 L1489 717 Z M789 1290 C1184 1290 1323 1036 1323 717 C1323 398 1184 144 789 144 L491 144 L491 645 L818 645 L818 785 L491 785 L491 1290 L789 1290 Z " />
<glyph glyph-name="dcroat" unicode="&#x111;" horiz-adv-x="1344" d="M1284 1159 L1284 1292 L1090 1292 L1090 1516 L769 1516 L769 1384 L936 1384 L936 1292 L640 1292 L640 1159 L936 1159 L936 805 C931 816 838 1026 588 1026 C248 1026 80 784 80 503 C80 222 248 -20 588 -20 C838 -20 931 190 936 200 L936 0 L1257 0 L1257 132 L1090 132 L1090 1159 L1284 1159 Z M588 894 C817 894 936 712 936 503 C936 294 817 112 588 112 C359 112 240 294 240 503 C240 712 359 894 588 894 L588 894 Z " />
<glyph glyph-name="Emacron" unicode="&#x112;" horiz-adv-x="1368" d="M346 1539 L1048 1539 L1048 1671 L346 1671 L346 1539 Z M1076 1127 L1238 1127 L1238 1434 L120 1434 L120 1290 L284 1290 L284 144 L120 144 L120 0 L1248 0 L1248 307 L1086 307 L1086 144 L446 144 L446 661 L1081 661 L1081 805 L446 805 L446 1290 L1076 1290 L1076 1127 Z " />
<glyph glyph-name="emacron" unicode="&#x113;" horiz-adv-x="1129" d="M215 1295 L915 1295 L915 1427 L215 1427 L215 1295 Z M564 112 C370 112 251 253 244 437 L1049 437 C1049 834 849 1026 564 1026 C260 1026 80 804 80 503 C80 202 260 -20 564 -20 C848 -20 988 141 988 141 L890 237 C890 237 747 112 564 112 L564 112 Z M244 569 C261 752 371 894 564 894 C758 894 869 753 885 569 L244 569 Z " />
<glyph glyph-name="Ebreve" unicode="&#x114;" horiz-adv-x="1368" d="M697 1539 C996 1539 1037 1786 1037 1786 L916 1786 C916 1786 867 1660 697 1660 C527 1660 478 1786 478 1786 L357 1786 C357 1786 398 1539 697 1539 L697 1539 Z M1076 1127 L1238 1127 L1238 1434 L120 1434 L120 1290 L284 1290 L284 144 L120 144 L120 0 L1248 0 L1248 307 L1086 307 L1086 144 L446 144 L446 661 L1081 661 L1081 805 L446 805 L446 1290 L1076 1290 L1076 1127 Z " />
<glyph glyph-name="ebreve" unicode="&#x115;" horiz-adv-x="1129" d="M564 112 C370 112 251 253 244 437 L1049 437 C1049 834 849 1026 564 1026 C260 1026 80 804 80 503 C80 202 260 -20 564 -20 C848 -20 988 141 988 141 L890 237 C890 237 747 112 564 112 L564 112 Z M244 569 C261 752 371 894 564 894 C758 894 869 753 885 569 L244 569 Z M564 1187 C863 1187 904 1434 904 1434 L783 1434 C783 1434 734 1308 564 1308 C394 1308 345 1434 345 1434 L224 1434 C224 1434 265 1187 564 1187 L564 1187 Z " />
<glyph glyph-name="Edotaccent" unicode="&#x116;" horiz-adv-x="1368" d="M599 1641 C599 1584 646 1539 702 1539 C758 1539 805 1584 805 1641 C805 1697 758 1743 702 1743 C646 1743 599 1697 599 1641 L599 1641 Z M1076 1127 L1238 1127 L1238 1434 L120 1434 L120 1290 L284 1290 L284 144 L120 144 L120 0 L1248 0 L1248 307 L1086 307 L1086 144 L446 144 L446 661 L1081 661 L1081 805 L446 805 L446 1290 L1076 1290 L1076 1127 Z " />
<glyph glyph-name="edotaccent" unicode="&#x117;" horiz-adv-x="1129" d="M564 112 C370 112 251 253 244 437 L1049 437 C1049 834 849 1026 564 1026 C260 1026 80 804 80 503 C80 202 260 -20 564 -20 C848 -20 988 141 988 141 L890 237 C890 237 747 112 564 112 L564 112 Z M244 569 C261 752 371 894 564 894 C758 894 869 753 885 569 L244 569 Z M461 1285 C461 1228 508 1183 564 1183 C620 1183 667 1228 667 1285 C667 1341 620 1387 564 1387 C508 1387 461 1341 461 1285 L461 1285 Z " />
<glyph glyph-name="Eogonek" unicode="&#x118;" horiz-adv-x="1368" d="M1076 1127 L1238 1127 L1238 1434 L120 1434 L120 1290 L284 1290 L284 144 L120 144 L120 0 L1086 0 C1024 -20 947 -79 950 -189 C955 -347 1123 -390 1245 -377 L1245 -239 C1187 -239 1087 -235 1087 -146 C1087 -35 1232 -3 1248 0 L1248 307 L1086 307 L1086 144 L446 144 L446 661 L1081 661 L1081 805 L446 805 L446 1290 L1076 1290 L1076 1127 Z " />
<glyph glyph-name="eogonek" unicode="&#x119;" horiz-adv-x="1129" d="M564 112 C370 112 251 253 244 437 L1049 437 C1049 834 849 1026 564 1026 C260 1026 80 804 80 503 C80 212 248 -4 533 -19 C481 -48 430 -103 433 -189 C438 -347 606 -390 728 -377 L728 -239 C670 -239 570 -235 570 -146 C570 -55 666 -17 710 -5 C896 35 988 141 988 141 L890 237 C890 237 747 112 564 112 L564 112 Z M244 569 C261 752 371 894 564 894 C758 894 869 753 885 569 L244 569 Z " />
<glyph glyph-name="Ecaron" unicode="&#x11a;" horiz-adv-x="1368" d="M647 1519 L745 1519 L1026 1843 L868 1843 L696 1663 L524 1843 L366 1843 L647 1519 Z M1076 1127 L1238 1127 L1238 1434 L120 1434 L120 1290 L284 1290 L284 144 L120 144 L120 0 L1248 0 L1248 307 L1086 307 L1086 144 L446 144 L446 661 L1081 661 L1081 805 L446 805 L446 1290 L1076 1290 L1076 1127 Z " />
<glyph glyph-name="ecaron" unicode="&#x11b;" horiz-adv-x="1129" d="M564 112 C370 112 251 253 244 437 L1049 437 C1049 834 849 1026 564 1026 C260 1026 80 804 80 503 C80 202 260 -20 564 -20 C848 -20 988 141 988 141 L890 237 C890 237 747 112 564 112 L564 112 Z M244 569 C261 752 371 894 564 894 C758 894 869 753 885 569 L244 569 Z M515 1110 L613 1110 L894 1434 L736 1434 L564 1254 L392 1434 L234 1434 L515 1110 Z " />
<glyph glyph-name="Gcircumflex" unicode="&#x11c;" horiz-adv-x="1484" d="M466 1519 L624 1519 L796 1699 L968 1519 L1126 1519 L845 1843 L747 1843 L466 1519 Z M1193 1127 L1355 1127 L1355 1337 C1355 1337 1166 1454 807 1454 C347 1454 100 1119 100 717 C100 315 347 -20 807 -20 C1167 -20 1364 149 1364 149 L1364 805 L837 805 L837 661 L1212 661 L1212 230 C1212 230 1061 124 807 124 C442 124 266 391 266 717 C266 1043 442 1310 807 1310 C1048 1310 1193 1249 1193 1249 L1193 1127 Z " />
<glyph glyph-name="gcircumflex" unicode="&#x11d;" horiz-adv-x="1337" d="M238 1110 L396 1110 L568 1290 L740 1110 L898 1110 L617 1434 L519 1434 L238 1110 Z M1070 0 L1070 874 L1237 874 L1237 1006 L916 1006 L916 805 C911 816 818 1026 568 1026 C228 1026 60 784 60 503 C60 222 228 -20 568 -20 C818 -20 911 190 916 200 L916 0 C916 -272 781 -400 567 -400 C377 -400 229 -301 229 -301 L141 -409 C141 -409 297 -532 567 -532 C799 -532 1070 -423 1070 0 L1070 0 Z M568 894 C797 894 916 712 916 503 C916 294 797 112 568 112 C339 112 220 294 220 503 C220 712 339 894 568 894 L568 894 Z " />
<glyph glyph-name="Gbreve" unicode="&#x11e;" horiz-adv-x="1484" d="M807 1539 C1106 1539 1147 1786 1147 1786 L1026 1786 C1026 1786 977 1660 807 1660 C637 1660 588 1786 588 1786 L467 1786 C467 1786 508 1539 807 1539 L807 1539 Z M1193 1127 L1355 1127 L1355 1337 C1355 1337 1166 1454 807 1454 C347 1454 100 1119 100 717 C100 315 347 -20 807 -20 C1167 -20 1364 149 1364 149 L1364 805 L837 805 L837 661 L1212 661 L1212 230 C1212 230 1061 124 807 124 C442 124 266 391 266 717 C266 1043 442 1310 807 1310 C1048 1310 1193 1249 1193 1249 L1193 1127 Z " />
<glyph glyph-name="gbreve" unicode="&#x11f;" horiz-adv-x="1357" d="M588 1187 C887 1187 928 1434 928 1434 L807 1434 C807 1434 758 1308 588 1308 C418 1308 369 1434 369 1434 L248 1434 C248 1434 289 1187 588 1187 L588 1187 Z M1090 0 L1090 874 L1257 874 L1257 1006 L936 1006 L936 805 C931 816 838 1026 588 1026 C248 1026 80 784 80 503 C80 222 248 -20 588 -20 C838 -20 931 190 936 200 L936 0 C936 -272 801 -400 587 -400 C397 -400 249 -301 249 -301 L161 -409 C161 -409 317 -532 587 -532 C819 -532 1090 -423 1090 0 L1090 0 Z M588 894 C817 894 936 712 936 503 C936 294 817 112 588 112 C359 112 240 294 240 503 C240 712 359 894 588 894 L588 894 Z " />
<glyph glyph-name="Gdotaccent" unicode="&#x120;" horiz-adv-x="1484" d="M704 1641 C704 1584 751 1539 807 1539 C863 1539 910 1584 910 1641 C910 1697 863 1743 807 1743 C751 1743 704 1697 704 1641 L704 1641 Z M1193 1127 L1355 1127 L1355 1337 C1355 1337 1166 1454 807 1454 C347 1454 100 1119 100 717 C100 315 347 -20 807 -20 C1167 -20 1364 149 1364 149 L1364 805 L837 805 L837 661 L1212 661 L1212 230 C1212 230 1061 124 807 124 C442 124 266 391 266 717 C266 1043 442 1310 807 1310 C1048 1310 1193 1249 1193 1249 L1193 1127 Z " />
<glyph glyph-name="gdotaccent" unicode="&#x121;" horiz-adv-x="1357" d="M485 1285 C485 1228 532 1183 588 1183 C644 1183 691 1228 691 1285 C691 1341 644 1387 588 1387 C532 1387 485 1341 485 1285 L485 1285 Z M1090 0 L1090 874 L1257 874 L1257 1006 L936 1006 L936 805 C931 816 838 1026 588 1026 C248 1026 80 784 80 503 C80 222 248 -20 588 -20 C838 -20 931 190 936 200 L936 0 C936 -272 801 -400 587 -400 C397 -400 249 -301 249 -301 L161 -409 C161 -409 317 -532 587 -532 C819 -532 1090 -423 1090 0 L1090 0 Z M588 894 C817 894 936 712 936 503 C936 294 817 112 588 112 C359 112 240 294 240 503 C240 712 359 894 588 894 L588 894 Z " />
<glyph glyph-name="Gcommaaccent" unicode="&#x122;" horiz-adv-x="1484" d="M554 -532 L700 -532 L899 -96 L721 -96 L554 -532 Z M1193 1127 L1355 1127 L1355 1337 C1355 1337 1166 1454 807 1454 C347 1454 100 1119 100 717 C100 315 347 -20 807 -20 C1167 -20 1364 149 1364 149 L1364 805 L837 805 L837 661 L1212 661 L1212 230 C1212 230 1061 124 807 124 C442 124 266 391 266 717 C266 1043 442 1310 807 1310 C1048 1310 1193 1249 1193 1249 L1193 1127 Z " />
<glyph glyph-name="gcommaaccent" unicode="&#x123;" horiz-adv-x="1357" d="M833 1516 L688 1516 L490 1082 L667 1082 L833 1516 Z M1090 0 L1090 874 L1257 874 L1257 1006 L936 1006 L936 805 C931 816 838 1026 588 1026 C248 1026 80 784 80 503 C80 222 248 -20 588 -20 C838 -20 931 190 936 200 L936 0 C936 -272 801 -400 587 -400 C397 -400 249 -301 249 -301 L161 -409 C161 -409 317 -532 587 -532 C819 -532 1090 -423 1090 0 L1090 0 Z M588 894 C817 894 936 712 936 503 C936 294 817 112 588 112 C359 112 240 294 240 503 C240 712 359 894 588 894 L588 894 Z " />
<glyph glyph-name="Hcircumflex" unicode="&#x124;" horiz-adv-x="1688" d="M514 1519 L671 1519 L844 1699 L1016 1519 L1174 1519 L894 1843 L795 1843 L514 1519 Z M284 1290 L284 144 L120 144 L120 0 L610 0 L610 144 L446 144 L446 661 L1242 661 L1242 144 L1078 144 L1078 0 L1568 0 L1568 144 L1404 144 L1404 1290 L1568 1290 L1568 1434 L1078 1434 L1078 1290 L1242 1290 L1242 805 L446 805 L446 1290 L610 1290 L610 1434 L120 1434 L120 1290 L284 1290 Z " />
<glyph glyph-name="hcircumflex" unicode="&#x125;" horiz-adv-x="1424" d="M382 1519 L540 1519 L712 1699 L884 1519 L1042 1519 L761 1843 L663 1843 L382 1519 Z M1003 559 L1003 0 L1324 0 L1324 132 L1157 132 L1157 559 C1157 853 1001 1026 712 1026 C483 1026 424 842 421 833 L421 1516 L100 1516 L100 1384 L267 1384 L267 132 L100 132 L100 0 L588 0 L588 132 L421 132 L421 559 C421 756 507 894 712 894 C917 894 1003 756 1003 559 L1003 559 Z " />
<glyph glyph-name="Hbar" unicode="&#x126;" horiz-adv-x="1730" d="M120 1005 L305 1005 L305 144 L141 144 L141 0 L631 0 L631 144 L467 144 L467 661 L1263 661 L1263 144 L1099 144 L1099 0 L1589 0 L1589 144 L1425 144 L1425 1005 L1610 1005 L1610 1139 L1425 1139 L1425 1290 L1589 1290 L1589 1434 L1099 1434 L1099 1290 L1263 1290 L1263 1139 L467 1139 L467 1290 L631 1290 L631 1434 L141 1434 L141 1290 L305 1290 L305 1139 L120 1139 L120 1005 Z M1263 805 L467 805 L467 1005 L1263 1005 L1263 805 Z " />
<glyph glyph-name="hbar" unicode="&#x127;" horiz-adv-x="1451" d="M1030 559 L1030 0 L1351 0 L1351 132 L1184 132 L1184 559 C1184 853 1028 1026 739 1026 C510 1026 451 842 448 833 L448 1154 L742 1154 L742 1286 L448 1286 L448 1516 L127 1516 L127 1384 L294 1384 L294 1286 L100 1286 L100 1154 L294 1154 L294 132 L127 132 L127 0 L615 0 L615 132 L448 132 L448 559 C448 756 534 894 739 894 C944 894 1030 756 1030 559 L1030 559 Z " />
<glyph glyph-name="Itilde" unicode="&#x128;" horiz-adv-x="748" d="M329 1604 C363 1568 398 1519 480 1519 C668 1519 668 1739 668 1739 L523 1739 C523 1739 521 1656 480 1656 C460 1656 444 1676 419 1703 C385 1739 350 1788 268 1788 C80 1788 80 1568 80 1568 L225 1568 C225 1568 227 1651 268 1651 C288 1651 304 1631 329 1604 L329 1604 Z M293 1290 L293 144 L129 144 L129 0 L619 0 L619 144 L455 144 L455 1290 L619 1290 L619 1434 L129 1434 L129 1290 L293 1290 Z " />
<glyph glyph-name="itilde" unicode="&#x129;" horiz-adv-x="708" d="M309 1250 C343 1214 378 1165 460 1165 C648 1165 648 1385 648 1385 L503 1385 C503 1385 501 1302 460 1302 C440 1302 424 1322 399 1349 C365 1385 330 1434 248 1434 C60 1434 60 1214 60 1214 L205 1214 C205 1214 207 1297 248 1297 C268 1297 284 1277 309 1250 L309 1250 Z M431 1006 L110 1006 L110 874 L277 874 L277 132 L110 132 L110 0 L598 0 L598 132 L431 132 L431 1006 Z " />
<glyph glyph-name="uni012A" unicode="&#x12a;" horiz-adv-x="862" d="M80 1519 L782 1519 L782 1652 L80 1652 L80 1519 Z M350 1290 L350 144 L186 144 L186 0 L676 0 L676 144 L512 144 L512 1290 L676 1290 L676 1434 L186 1434 L186 1290 L350 1290 Z " />
<glyph glyph-name="imacron" unicode="&#x12b;" horiz-adv-x="760" d="M30 1302 L730 1302 L730 1434 L30 1434 L30 1302 Z M457 1006 L136 1006 L136 874 L303 874 L303 132 L136 132 L136 0 L624 0 L624 132 L457 132 L457 1006 Z " />
<glyph glyph-name="Ibreve" unicode="&#x12c;" horiz-adv-x="840" d="M420 1539 C719 1539 760 1786 760 1786 L639 1786 C639 1786 590 1660 420 1660 C250 1660 201 1786 201 1786 L80 1786 C80 1786 121 1539 420 1539 L420 1539 Z M339 1290 L339 144 L175 144 L175 0 L665 0 L665 144 L501 144 L501 1290 L665 1290 L665 1434 L175 1434 L175 1290 L339 1290 Z " />
<glyph glyph-name="uni012D" unicode="&#x12d;" horiz-adv-x="740" d="M370 1187 C669 1187 710 1434 710 1434 L589 1434 C589 1434 540 1308 370 1308 C200 1308 151 1434 151 1434 L30 1434 C30 1434 71 1187 370 1187 L370 1187 Z M447 1006 L126 1006 L126 874 L293 874 L293 132 L126 132 L126 0 L614 0 L614 132 L447 132 L447 1006 Z " />
<glyph glyph-name="Iogonek" unicode="&#x12e;" horiz-adv-x="650" d="M244 1290 L244 144 L80 144 L80 0 L408 0 C346 -20 269 -79 272 -189 C277 -347 445 -390 567 -377 L567 -239 C509 -239 409 -235 409 -146 C409 -35 554 -3 570 0 L570 144 L406 144 L406 1290 L570 1290 L570 1434 L80 1434 L80 1290 L244 1290 Z " />
<glyph glyph-name="iogonek" unicode="&#x12f;" horiz-adv-x="648" d="M421 1006 L100 1006 L100 874 L267 874 L267 132 L100 132 L100 0 L434 0 C372 -20 287 -79 290 -189 C295 -347 463 -390 585 -377 L585 -239 C527 -239 427 -235 427 -146 C427 -35 572 -3 588 0 L588 132 L421 132 L421 1006 Z M241 1285 C241 1228 288 1183 344 1183 C400 1183 447 1228 447 1285 C447 1341 400 1387 344 1387 C288 1387 241 1341 241 1285 L241 1285 Z " />
<glyph glyph-name="Idotaccent" unicode="&#x130;" horiz-adv-x="730" d="M262 1641 C262 1584 309 1539 365 1539 C421 1539 468 1584 468 1641 C468 1697 421 1743 365 1743 C309 1743 262 1697 262 1641 L262 1641 Z M284 1290 L284 144 L120 144 L120 0 L610 0 L610 144 L446 144 L446 1290 L610 1290 L610 1434 L120 1434 L120 1290 L284 1290 Z " />
<glyph glyph-name="dotlessi" unicode="&#x131;" horiz-adv-x="688" d="M421 1006 L100 1006 L100 874 L267 874 L267 132 L100 132 L100 0 L588 0 L588 132 L421 132 L421 1006 Z " />
<glyph glyph-name="IJ" unicode="&#x132;" horiz-adv-x="1874" d="M1590 444 L1590 1290 L1754 1290 L1754 1434 L1264 1434 L1264 1290 L1428 1290 L1428 444 C1428 234 1347 124 1161 124 C963 124 892 296 892 296 L743 249 C743 249 810 -20 1161 -20 C1415 -20 1590 117 1590 444 L1590 444 Z M284 1290 L284 144 L120 144 L120 0 L610 0 L610 144 L446 144 L446 1290 L610 1290 L610 1434 L120 1434 L120 1290 L284 1290 Z " />
<glyph glyph-name="ij" unicode="&#x133;" horiz-adv-x="1103" d="M476 -491 C476 -491 541 -532 666 -532 C909 -532 957 -365 957 -68 L957 1006 L636 1006 L636 874 L803 874 L803 -68 C803 -251 795 -400 666 -400 C586 -400 524 -371 524 -371 L476 -491 Z M421 1006 L100 1006 L100 874 L267 874 L267 132 L100 132 L100 0 L588 0 L588 132 L421 132 L421 1006 Z M777 1285 C777 1228 824 1183 880 1183 C936 1183 983 1228 983 1285 C983 1341 936 1387 880 1387 C824 1387 777 1341 777 1285 L777 1285 Z M241 1285 C241 1228 288 1183 344 1183 C400 1183 447 1228 447 1285 C447 1341 400 1387 344 1387 C288 1387 241 1341 241 1285 L241 1285 Z " />
<glyph glyph-name="Jcircumflex" unicode="&#x134;" horiz-adv-x="1296" d="M516 1519 L674 1519 L846 1699 L1018 1519 L1176 1519 L895 1843 L797 1843 L516 1519 Z M80 249 C80 249 147 -20 498 -20 C752 -20 927 117 927 444 L927 1290 L1091 1290 L1091 1434 L601 1434 L601 1290 L765 1290 L765 444 C765 234 684 124 498 124 C300 124 229 296 229 296 L80 249 Z " />
<glyph glyph-name="jcircumflex" unicode="&#x135;" horiz-adv-x="604" d="M-46 1110 L112 1110 L284 1290 L456 1110 L614 1110 L333 1434 L235 1434 L-46 1110 Z M361 1006 L40 1006 L40 874 L207 874 L207 -68 C207 -251 199 -400 70 -400 C-10 -400 -72 -371 -72 -371 L-120 -491 C-120 -491 -55 -532 70 -532 C313 -532 361 -365 361 -68 L361 1006 Z " />
<glyph glyph-name="Kcommaaccent" unicode="&#x136;" horiz-adv-x="1579" d="M546 -532 L692 -532 L891 -96 L713 -96 L546 -532 Z M446 726 L446 1290 L610 1290 L610 1434 L120 1434 L120 1290 L284 1290 L284 144 L120 144 L120 0 L610 0 L610 144 L446 144 L446 518 L656 720 L1116 144 L969 144 L969 0 L1459 0 L1459 144 L1313 144 L768 825 L1258 1290 L1402 1290 L1402 1434 L912 1434 L912 1290 L1040 1290 L446 726 Z " />
<glyph glyph-name="kcommaaccent" unicode="&#x137;" horiz-adv-x="1286" d="M428 -532 L574 -532 L771 -98 L594 -98 L428 -532 Z M421 1516 L100 1516 L100 1384 L267 1384 L267 132 L100 132 L100 0 L588 0 L588 132 L421 132 L421 382 L566 498 L946 0 L1186 0 L1186 132 L1030 132 L681 590 L1036 874 L1182 874 L1182 1006 L694 1006 L694 874 L815 874 L421 559 L421 1516 Z " />
<glyph glyph-name="kgreenlandic" unicode="&#x138;" horiz-adv-x="1497" d="M1087 0 L1377 0 L1377 144 L1226 144 C1058 502 832 718 672 816 C960 1089 1142 1259 1320 1272 L1320 1434 C1059 1418 882 1236 446 817 L446 1290 L610 1290 L610 1434 L120 1434 L120 1290 L284 1290 L284 144 L120 144 L120 0 L610 0 L610 144 L446 144 L446 617 L548 711 C685 637 956 368 1087 0 L1087 0 Z " />
<glyph glyph-name="Lacute" unicode="&#x139;" horiz-adv-x="1299" d="M278 1519 L450 1519 L759 1824 L551 1824 L278 1519 Z M120 0 L1179 0 L1179 307 L1017 307 L1017 144 L446 144 L446 1290 L610 1290 L610 1434 L120 1434 L120 1290 L284 1290 L284 144 L120 144 L120 0 Z " />
<glyph glyph-name="lacute" unicode="&#x13a;" horiz-adv-x="756" d="M217 1571 L388 1571 L696 1874 L489 1874 L217 1571 Z M381 1516 L60 1516 L60 1384 L227 1384 L227 132 L60 132 L60 0 L548 0 L548 132 L381 132 L381 1516 Z " />
<glyph glyph-name="Lcommaaccent" unicode="&#x13b;" horiz-adv-x="1299" d="M419 -532 L566 -532 L764 -96 L586 -96 L419 -532 Z M120 0 L1179 0 L1179 307 L1017 307 L1017 144 L446 144 L446 1290 L610 1290 L610 1434 L120 1434 L120 1290 L284 1290 L284 144 L120 144 L120 0 Z " />
<glyph glyph-name="lcommaaccent" unicode="&#x13c;" horiz-adv-x="619" d="M60 -532 L206 -532 L404 -98 L227 -98 L60 -532 Z M392 1516 L71 1516 L71 1384 L238 1384 L238 132 L71 132 L71 0 L559 0 L559 132 L392 132 L392 1516 Z " />
<glyph glyph-name="Lcaron" unicode="&#x13d;" horiz-adv-x="1299" d="M517 998 L654 998 L791 1434 L622 1434 L517 998 Z M120 0 L1179 0 L1179 307 L1017 307 L1017 144 L446 144 L446 1290 L610 1290 L610 1434 L120 1434 L120 1290 L284 1290 L284 144 L120 144 L120 0 Z " />
<glyph glyph-name="lcaron" unicode="&#x13e;" horiz-adv-x="771" d="M431 1082 L566 1082 L703 1516 L535 1516 L431 1082 Z M381 1516 L60 1516 L60 1384 L227 1384 L227 132 L60 132 L60 0 L548 0 L548 132 L381 132 L381 1516 Z " />
<glyph glyph-name="Ldot" unicode="&#x13f;" horiz-adv-x="1299" d="M913 793 C913 737 959 690 1016 690 C1073 690 1119 737 1119 793 C1119 849 1073 896 1016 896 C959 896 913 849 913 793 L913 793 Z M120 0 L1179 0 L1179 307 L1017 307 L1017 144 L446 144 L446 1290 L610 1290 L610 1434 L120 1434 L120 1290 L284 1290 L284 144 L120 144 L120 0 Z " />
<glyph glyph-name="ldot" unicode="&#x140;" horiz-adv-x="695" d="M579 788 C579 732 625 685 682 685 C739 685 785 732 785 788 C785 844 739 891 682 891 C625 891 579 844 579 788 L579 788 Z M421 1516 L100 1516 L100 1384 L267 1384 L267 132 L100 132 L100 0 L588 0 L588 132 L421 132 L421 1516 Z " />
<glyph glyph-name="Lslash" unicode="&#x141;" horiz-adv-x="1349" d="M170 0 L1229 0 L1229 307 L1067 307 L1067 144 L496 144 L496 709 L711 830 L711 997 L496 876 L496 1290 L660 1290 L660 1434 L170 1434 L170 1290 L334 1290 L334 784 L120 664 L120 497 L334 617 L334 144 L170 144 L170 0 Z " />
<glyph glyph-name="lslash" unicode="&#x142;" horiz-adv-x="711" d="M432 1516 L111 1516 L111 1384 L278 1384 L278 825 L100 689 L100 514 L278 650 L278 132 L111 132 L111 0 L599 0 L599 132 L432 132 L432 768 L611 905 L611 1080 L432 943 L432 1516 Z " />
<glyph glyph-name="Nacute" unicode="&#x143;" horiz-adv-x="1702" d="M726 1519 L898 1519 L1207 1824 L999 1824 L726 1519 Z M284 1290 L284 144 L120 144 L120 0 L610 0 L610 144 L446 144 L446 1195 L1228 0 L1418 0 L1418 1290 L1582 1290 L1582 1434 L1092 1434 L1092 1290 L1256 1290 L1256 239 L474 1434 L120 1434 L120 1290 L284 1290 Z " />
<glyph glyph-name="nacute" unicode="&#x144;" horiz-adv-x="1424" d="M626 1131 L797 1131 L1105 1434 L898 1434 L626 1131 Z M1003 559 L1003 0 L1324 0 L1324 132 L1157 132 L1157 559 C1157 853 1001 1026 712 1026 C483 1026 424 842 421 833 L421 1006 L100 1006 L100 874 L267 874 L267 132 L100 132 L100 0 L588 0 L588 132 L421 132 L421 559 C421 756 507 894 712 894 C917 894 1003 756 1003 559 L1003 559 Z " />
<glyph glyph-name="Ncommaaccent" unicode="&#x145;" horiz-adv-x="1702" d="M603 -532 L749 -532 L948 -96 L770 -96 L603 -532 Z M284 1290 L284 144 L120 144 L120 0 L610 0 L610 144 L446 144 L446 1195 L1228 0 L1418 0 L1418 1290 L1582 1290 L1582 1434 L1092 1434 L1092 1290 L1256 1290 L1256 239 L474 1434 L120 1434 L120 1290 L284 1290 Z " />
<glyph glyph-name="ncommaaccent" unicode="&#x146;" horiz-adv-x="1424" d="M455 -532 L601 -532 L799 -98 L622 -98 L455 -532 Z M1003 559 L1003 0 L1324 0 L1324 132 L1157 132 L1157 559 C1157 853 1001 1026 712 1026 C483 1026 424 842 421 833 L421 1006 L100 1006 L100 874 L267 874 L267 132 L100 132 L100 0 L588 0 L588 132 L421 132 L421 559 C421 756 507 894 712 894 C917 894 1003 756 1003 559 L1003 559 Z " />
<glyph glyph-name="Ncaron" unicode="&#x147;" horiz-adv-x="1702" d="M802 1519 L900 1519 L1181 1843 L1023 1843 L851 1663 L679 1843 L521 1843 L802 1519 Z M284 1290 L284 144 L120 144 L120 0 L610 0 L610 144 L446 144 L446 1195 L1228 0 L1418 0 L1418 1290 L1582 1290 L1582 1434 L1092 1434 L1092 1290 L1256 1290 L1256 239 L474 1434 L120 1434 L120 1290 L284 1290 Z " />
<glyph glyph-name="ncaron" unicode="&#x148;" horiz-adv-x="1424" d="M663 1110 L761 1110 L1042 1434 L884 1434 L712 1254 L540 1434 L382 1434 L663 1110 Z M1003 559 L1003 0 L1324 0 L1324 132 L1157 132 L1157 559 C1157 853 1001 1026 712 1026 C483 1026 424 842 421 833 L421 1006 L100 1006 L100 874 L267 874 L267 132 L100 132 L100 0 L588 0 L588 132 L421 132 L421 559 C421 756 507 894 712 894 C917 894 1003 756 1003 559 L1003 559 Z " />
<glyph glyph-name="napostrophe" unicode="&#x149;" horiz-adv-x="1513" d="M0 1000 L146 1000 L344 1434 L167 1434 L0 1000 Z M1092 559 L1092 0 L1413 0 L1413 132 L1246 132 L1246 559 C1246 853 1090 1026 801 1026 C572 1026 513 842 510 833 L510 1006 L189 1006 L189 874 L356 874 L356 132 L189 132 L189 0 L677 0 L677 132 L510 132 L510 559 C510 756 596 894 801 894 C1006 894 1092 756 1092 559 L1092 559 Z " />
<glyph glyph-name="Eng" unicode="&#x14a;" horiz-adv-x="1702" d="M284 1290 L284 144 L120 144 L120 0 L610 0 L610 144 L446 144 L446 1195 L1228 0 L1256 0 L1256 -68 C1256 -278 1202 -388 1008 -388 C854 -388 767 -265 767 -265 L649 -351 C649 -351 743 -532 1008 -532 C1263 -532 1418 -396 1418 -68 L1418 1290 L1582 1290 L1582 1434 L1092 1434 L1092 1290 L1256 1290 L1256 239 L474 1434 L120 1434 L120 1290 L284 1290 Z " />
<glyph glyph-name="eng" unicode="&#x14b;" horiz-adv-x="1277" d="M1003 559 L1003 -68 C1003 -251 995 -400 866 -400 C786 -400 724 -371 724 -371 L676 -491 C676 -491 741 -532 866 -532 C1109 -532 1157 -365 1157 -68 L1157 559 C1157 853 1001 1026 712 1026 C483 1026 424 842 421 833 L421 1006 L100 1006 L100 874 L267 874 L267 132 L100 132 L100 0 L588 0 L588 132 L421 132 L421 559 C421 756 507 894 712 894 C917 894 1003 756 1003 559 L1003 559 Z " />
<glyph glyph-name="Omacron" unicode="&#x14c;" horiz-adv-x="1614" d="M455 1519 L1159 1519 L1159 1652 L455 1652 L455 1519 Z M100 717 C100 315 347 -20 807 -20 C1267 -20 1514 315 1514 717 C1514 1119 1267 1454 807 1454 C347 1454 100 1119 100 717 L100 717 Z M1348 717 C1348 391 1172 124 807 124 C442 124 266 391 266 717 C266 1043 442 1310 807 1310 C1172 1310 1348 1043 1348 717 L1348 717 Z " />
<glyph glyph-name="omacron" unicode="&#x14d;" horiz-adv-x="1208" d="M254 1302 L954 1302 L954 1434 L254 1434 L254 1302 Z M604 1026 C280 1026 80 806 80 503 C80 200 280 -20 604 -20 C928 -20 1128 200 1128 503 C1128 806 928 1026 604 1026 L604 1026 Z M968 503 C968 283 845 112 604 112 C363 112 240 283 240 503 C240 723 363 894 604 894 C845 894 968 723 968 503 L968 503 Z " />
<glyph glyph-name="Obreve" unicode="&#x14e;" horiz-adv-x="1614" d="M100 717 C100 315 347 -20 807 -20 C1267 -20 1514 315 1514 717 C1514 1119 1267 1454 807 1454 C347 1454 100 1119 100 717 L100 717 Z M1348 717 C1348 391 1172 124 807 124 C442 124 266 391 266 717 C266 1043 442 1310 807 1310 C1172 1310 1348 1043 1348 717 L1348 717 Z M807 1539 C1106 1539 1147 1786 1147 1786 L1026 1786 C1026 1786 977 1660 807 1660 C637 1660 588 1786 588 1786 L467 1786 C467 1786 508 1539 807 1539 L807 1539 Z " />
<glyph glyph-name="obreve" unicode="&#x14f;" horiz-adv-x="1208" d="M604 1026 C280 1026 80 806 80 503 C80 200 280 -20 604 -20 C928 -20 1128 200 1128 503 C1128 806 928 1026 604 1026 L604 1026 Z M968 503 C968 283 845 112 604 112 C363 112 240 283 240 503 C240 723 363 894 604 894 C845 894 968 723 968 503 L968 503 Z M604 1187 C903 1187 944 1434 944 1434 L823 1434 C823 1434 774 1308 604 1308 C434 1308 385 1434 385 1434 L264 1434 C264 1434 305 1187 604 1187 L604 1187 Z " />
<glyph glyph-name="Ohungarumlaut" unicode="&#x150;" horiz-adv-x="1614" d="M844 1519 L986 1519 L1145 1867 L970 1867 L844 1519 Z M597 1519 L738 1519 L898 1867 L722 1867 L597 1519 Z M100 717 C100 315 347 -20 807 -20 C1267 -20 1514 315 1514 717 C1514 1119 1267 1454 807 1454 C347 1454 100 1119 100 717 L100 717 Z M1348 717 C1348 391 1172 124 807 124 C442 124 266 391 266 717 C266 1043 442 1310 807 1310 C1172 1310 1348 1043 1348 717 L1348 717 Z " />
<glyph glyph-name="ohungarumlaut" unicode="&#x151;" horiz-adv-x="1208" d="M652 1170 L793 1170 L952 1516 L777 1516 L652 1170 Z M406 1170 L547 1170 L705 1516 L531 1516 L406 1170 Z M604 1026 C280 1026 80 806 80 503 C80 200 280 -20 604 -20 C928 -20 1128 200 1128 503 C1128 806 928 1026 604 1026 L604 1026 Z M968 503 C968 283 845 112 604 112 C363 112 240 283 240 503 C240 723 363 894 604 894 C845 894 968 723 968 503 L968 503 Z " />
<glyph glyph-name="OE" unicode="&#x152;" horiz-adv-x="2154" d="M1090 0 L2054 0 L2054 307 L1892 307 L1892 144 L1252 144 L1252 661 L1887 661 L1887 805 L1252 805 L1252 1290 L1882 1290 L1882 1127 L2044 1127 L2044 1434 L1090 1434 L1090 1395 C1002 1433 901 1454 787 1454 C327 1454 80 1119 80 717 C80 315 327 -20 787 -20 C901 -20 1002 1 1090 38 L1090 0 Z M787 124 C422 124 246 391 246 717 C246 1043 422 1310 787 1310 C909 1310 1009 1280 1090 1228 L1090 206 C1009 154 909 124 787 124 L787 124 Z " />
<glyph glyph-name="oe" unicode="&#x153;" horiz-adv-x="2017" d="M1452 112 C1258 112 1139 253 1132 437 L1937 437 C1937 834 1737 1026 1452 1026 C1264 1026 1124 941 1044 806 C957 942 804 1026 604 1026 C280 1026 80 806 80 503 C80 200 280 -20 604 -20 C804 -20 957 64 1044 199 C1124 64 1264 -20 1452 -20 C1736 -20 1876 141 1876 141 L1778 237 C1778 237 1635 112 1452 112 L1452 112 Z M968 503 C968 283 845 112 604 112 C363 112 240 283 240 503 C240 723 363 894 604 894 C845 894 968 723 968 503 L968 503 Z M1132 569 C1149 752 1259 894 1452 894 C1646 894 1757 753 1773 569 L1132 569 Z " />
<glyph glyph-name="Racute" unicode="&#x154;" horiz-adv-x="1496" d="M605 1519 L777 1519 L1086 1824 L878 1824 L605 1519 Z M284 1290 L284 144 L120 144 L120 0 L610 0 L610 144 L446 144 L446 602 L824 602 L1138 0 L1396 0 L1396 144 L1232 144 L990 608 C1210 644 1353 795 1353 1018 C1353 1270 1185 1434 910 1434 L120 1434 L120 1290 L284 1290 Z M910 1290 C1102 1290 1189 1176 1189 1018 C1189 860 1102 746 910 746 L446 746 L446 1290 L910 1290 Z " />
<glyph glyph-name="racute" unicode="&#x155;" horiz-adv-x="974" d="M445 1131 L616 1131 L925 1434 L717 1434 L445 1131 Z M100 1006 L100 874 L267 874 L267 132 L100 132 L100 0 L588 0 L588 132 L421 132 L421 559 C421 756 507 894 713 894 C803 894 869 856 869 856 L944 976 C944 976 863 1026 712 1026 C483 1026 424 842 421 833 L421 1006 L100 1006 Z " />
<glyph glyph-name="Rcommaaccent" unicode="&#x156;" horiz-adv-x="1496" d="M527 -532 L673 -532 L872 -96 L694 -96 L527 -532 Z M284 1290 L284 144 L120 144 L120 0 L610 0 L610 144 L446 144 L446 602 L824 602 L1138 0 L1396 0 L1396 144 L1232 144 L990 608 C1210 644 1353 795 1353 1018 C1353 1270 1185 1434 910 1434 L120 1434 L120 1290 L284 1290 Z M910 1290 C1102 1290 1189 1176 1189 1018 C1189 860 1102 746 910 746 L446 746 L446 1290 L910 1290 Z " />
<glyph glyph-name="rcommaaccent" unicode="&#x157;" horiz-adv-x="985" d="M100 -532 L246 -532 L444 -98 L267 -98 L100 -532 Z M111 1006 L111 874 L278 874 L278 132 L111 132 L111 0 L599 0 L599 132 L432 132 L432 559 C432 756 518 894 724 894 C814 894 880 856 880 856 L955 976 C955 976 874 1026 723 1026 C494 1026 435 842 432 833 L432 1006 L111 1006 Z " />
<glyph glyph-name="Rcaron" unicode="&#x158;" horiz-adv-x="1496" d="M639 1519 L737 1519 L1018 1843 L860 1843 L688 1663 L516 1843 L358 1843 L639 1519 Z M284 1290 L284 144 L120 144 L120 0 L610 0 L610 144 L446 144 L446 602 L824 602 L1138 0 L1396 0 L1396 144 L1232 144 L990 608 C1210 644 1353 795 1353 1018 C1353 1270 1185 1434 910 1434 L120 1434 L120 1290 L284 1290 Z M910 1290 C1102 1290 1189 1176 1189 1018 C1189 860 1102 746 910 746 L446 746 L446 1290 L910 1290 Z " />
<glyph glyph-name="rcaron" unicode="&#x159;" horiz-adv-x="974" d="M869 1434 L713 1434 L540 1255 L369 1434 L212 1434 L491 1111 L590 1111 L869 1434 Z M100 1006 L100 874 L267 874 L267 132 L100 132 L100 0 L588 0 L588 132 L421 132 L421 559 C421 756 507 894 713 894 C803 894 869 856 869 856 L944 976 C944 976 863 1026 712 1026 C483 1026 424 842 421 833 L421 1006 L100 1006 Z " />
<glyph glyph-name="Sacute" unicode="&#x15a;" horiz-adv-x="1348" d="M574 1519 L746 1519 L1055 1824 L847 1824 L574 1519 Z M977 1127 L1139 1127 L1139 1376 C1139 1376 955 1454 663 1454 C343 1454 171 1304 171 1083 C171 867 336 743 668 666 C948 601 1044 521 1044 375 C1044 215 941 124 680 124 C428 124 302 199 302 199 L302 307 L140 307 L140 123 C140 123 292 -20 680 -20 C1022 -20 1208 115 1208 375 C1208 627 1031 744 696 822 C450 880 335 946 335 1083 C335 1239 469 1310 663 1310 C870 1310 977 1274 977 1274 L977 1127 Z " />
<glyph glyph-name="sacute" unicode="&#x15b;" horiz-adv-x="1025" d="M413 1131 L584 1131 L892 1434 L684 1434 L413 1131 Z M716 714 L870 714 L870 966 C870 966 721 1026 497 1026 C233 1026 112 900 112 750 C112 598 216 508 496 454 C692 418 767 377 767 273 C767 165 667 112 523 112 C358 112 254 163 254 163 L254 292 L100 292 L100 90 C100 90 222 -20 523 -20 C758 -20 925 79 925 273 C925 466 789 537 523 589 C339 623 270 666 270 750 C270 834 327 894 497 894 C608 894 716 868 716 868 L716 714 Z " />
<glyph glyph-name="Scircumflex" unicode="&#x15c;" horiz-adv-x="1348" d="M332 1519 L490 1519 L662 1699 L834 1519 L992 1519 L711 1843 L613 1843 L332 1519 Z M977 1127 L1139 1127 L1139 1376 C1139 1376 955 1454 663 1454 C343 1454 171 1304 171 1083 C171 867 336 743 668 666 C948 601 1044 521 1044 375 C1044 215 941 124 680 124 C428 124 302 199 302 199 L302 307 L140 307 L140 123 C140 123 292 -20 680 -20 C1022 -20 1208 115 1208 375 C1208 627 1031 744 696 822 C450 880 335 946 335 1083 C335 1239 469 1310 663 1310 C870 1310 977 1274 977 1274 L977 1127 Z " />
<glyph glyph-name="scircumflex" unicode="&#x15d;" horiz-adv-x="1025" d="M179 1111 L336 1111 L508 1291 L679 1111 L837 1111 L557 1434 L459 1434 L179 1111 Z M716 714 L870 714 L870 966 C870 966 721 1026 497 1026 C233 1026 112 900 112 750 C112 598 216 508 496 454 C692 418 767 377 767 273 C767 165 667 112 523 112 C358 112 254 163 254 163 L254 292 L100 292 L100 90 C100 90 222 -20 523 -20 C758 -20 925 79 925 273 C925 466 789 537 523 589 C339 623 270 666 270 750 C270 834 327 894 497 894 C608 894 716 868 716 868 L716 714 Z " />
<glyph glyph-name="Scedilla" unicode="&#x15e;" horiz-adv-x="1348" d="M977 1127 L1139 1127 L1139 1376 C1139 1376 955 1454 663 1454 C343 1454 171 1304 171 1083 C171 867 336 743 668 666 C948 601 1044 521 1044 375 C1044 215 941 124 680 124 C428 124 302 199 302 199 L302 307 L140 307 L140 123 C140 123 272 -1 603 -18 L535 -213 C596 -205 781 -171 767 -276 C759 -332 715 -349 663 -349 C581 -349 516 -318 516 -318 L462 -415 C462 -415 535 -463 657 -463 C779 -463 877 -407 891 -278 C899 -165 815 -105 704 -103 L733 -19 C1041 -5 1208 129 1208 375 C1208 627 1031 744 696 822 C450 880 335 946 335 1083 C335 1239 469 1310 663 1310 C870 1310 977 1274 977 1274 L977 1127 Z " />
<glyph glyph-name="scedilla" unicode="&#x15f;" horiz-adv-x="1025" d="M716 714 L870 714 L870 966 C870 966 721 1026 497 1026 C233 1026 112 900 112 750 C112 598 216 508 496 454 C692 418 767 377 767 273 C767 165 667 112 523 112 C358 112 254 163 254 163 L254 292 L100 292 L100 90 C100 90 198 1 436 -17 L367 -213 C428 -205 613 -171 599 -276 C591 -332 547 -349 495 -349 C413 -349 348 -318 348 -318 L294 -415 C294 -415 367 -463 489 -463 C611 -463 709 -407 723 -278 C731 -165 647 -105 536 -103 L565 -19 C777 -7 925 91 925 273 C925 466 789 537 523 589 C339 623 270 666 270 750 C270 834 327 894 497 894 C608 894 716 868 716 868 L716 714 Z " />
<glyph glyph-name="Scaron" unicode="&#x160;" horiz-adv-x="1348" d="M619 1519 L717 1519 L998 1843 L840 1843 L668 1663 L496 1843 L338 1843 L619 1519 Z M977 1127 L1139 1127 L1139 1376 C1139 1376 955 1454 663 1454 C343 1454 171 1304 171 1083 C171 867 336 743 668 666 C948 601 1044 521 1044 375 C1044 215 941 124 680 124 C428 124 302 199 302 199 L302 307 L140 307 L140 123 C140 123 292 -20 680 -20 C1022 -20 1208 115 1208 375 C1208 627 1031 744 696 822 C450 880 335 946 335 1083 C335 1239 469 1310 663 1310 C870 1310 977 1274 977 1274 L977 1127 Z " />
<glyph glyph-name="scaron" unicode="&#x161;" horiz-adv-x="1025" d="M836 1434 L679 1434 L507 1255 L336 1434 L178 1434 L458 1111 L556 1111 L836 1434 Z M716 714 L870 714 L870 966 C870 966 721 1026 497 1026 C233 1026 112 900 112 750 C112 598 216 508 496 454 C692 418 767 377 767 273 C767 165 667 112 523 112 C358 112 254 163 254 163 L254 292 L100 292 L100 90 C100 90 222 -20 523 -20 C758 -20 925 79 925 273 C925 466 789 537 523 589 C339 623 270 666 270 750 C270 834 327 894 497 894 C608 894 716 868 716 868 L716 714 Z " />
<glyph glyph-name="Tcommaaccent" unicode="&#x162;" horiz-adv-x="1470" d="M484 -532 L631 -532 L829 -96 L651 -96 L484 -532 Z M1188 1127 L1350 1127 L1350 1434 L120 1434 L120 1127 L282 1127 L282 1290 L654 1290 L654 144 L490 144 L490 0 L980 0 L980 144 L816 144 L816 1290 L1188 1290 L1188 1127 Z " />
<glyph glyph-name="tcommaaccent" unicode="&#x163;" horiz-adv-x="810" d="M271 -532 L417 -532 L614 -98 L437 -98 L271 -532 Z M60 874 L265 874 L265 441 C265 134 300 -20 583 -20 C681 -20 750 6 750 6 L710 132 C710 132 640 112 583 112 C428 112 419 221 419 441 L419 874 L719 874 L719 1006 L419 1006 L419 1300 L265 1300 L265 1006 L60 1006 L60 874 Z " />
<glyph glyph-name="Tcaron" unicode="&#x164;" horiz-adv-x="1470" d="M686 1519 L784 1519 L1065 1843 L907 1843 L735 1663 L563 1843 L405 1843 L686 1519 Z M1188 1127 L1350 1127 L1350 1434 L120 1434 L120 1127 L282 1127 L282 1290 L654 1290 L654 144 L490 144 L490 0 L980 0 L980 144 L816 144 L816 1290 L1188 1290 L1188 1127 Z " />
<glyph glyph-name="tcaron" unicode="&#x165;" horiz-adv-x="1126" d="M722 1082 L857 1082 L994 1516 L826 1516 L722 1082 Z M60 874 L265 874 L265 441 C265 134 300 -20 583 -20 C681 -20 750 6 750 6 L710 132 C710 132 640 112 583 112 C428 112 419 221 419 441 L419 874 L719 874 L719 1006 L419 1006 L419 1300 L265 1300 L265 1006 L60 1006 L60 874 Z " />
<glyph glyph-name="Tbar" unicode="&#x166;" horiz-adv-x="1470" d="M1188 1127 L1350 1127 L1350 1434 L120 1434 L120 1127 L282 1127 L282 1290 L654 1290 L654 918 L329 918 L329 772 L654 772 L654 144 L490 144 L490 0 L980 0 L980 144 L816 144 L816 772 L1141 772 L1141 918 L816 918 L816 1290 L1188 1290 L1188 1127 Z " />
<glyph glyph-name="tbar" unicode="&#x167;" horiz-adv-x="810" d="M60 874 L265 874 L265 675 L60 675 L60 543 L265 543 L265 441 C265 134 300 -20 583 -20 C681 -20 750 6 750 6 L710 132 C710 132 640 112 583 112 C428 112 419 221 419 441 L419 543 L719 543 L719 675 L419 675 L419 874 L719 874 L719 1006 L419 1006 L419 1300 L265 1300 L265 1006 L60 1006 L60 874 Z " />
<glyph glyph-name="Utilde" unicode="&#x168;" horiz-adv-x="1720" d="M815 1604 C848 1568 900 1519 975 1519 C1155 1519 1153 1739 1153 1739 L1008 1739 C1008 1739 1006 1657 975 1657 C949 1657 930 1676 913 1694 L905 1704 L905 1703 C871 1739 820 1788 744 1788 C564 1788 566 1568 566 1568 L711 1568 C711 1568 713 1651 744 1651 C770 1651 789 1631 806 1613 L815 1604 Z M446 614 L446 1290 L610 1290 L610 1434 L120 1434 L120 1290 L284 1290 L284 614 C284 205 481 -20 860 -20 C1239 -20 1436 205 1436 614 L1436 1290 L1600 1290 L1600 1434 L1110 1434 L1110 1290 L1274 1290 L1274 614 C1274 290 1146 124 860 124 C574 124 446 290 446 614 L446 614 Z " />
<glyph glyph-name="utilde" unicode="&#x169;" horiz-adv-x="1424" d="M667 1250 C701 1214 736 1165 818 1165 C1006 1165 1006 1385 1006 1385 L861 1385 C861 1385 859 1302 818 1302 C798 1302 782 1322 757 1349 C723 1385 688 1434 606 1434 C418 1434 418 1214 418 1214 L563 1214 C563 1214 565 1297 606 1297 C626 1297 642 1277 667 1250 L667 1250 Z M421 1006 L100 1006 L100 874 L267 874 L267 447 C267 153 423 -20 712 -20 C941 -20 1000 164 1003 173 L1003 0 L1324 0 L1324 132 L1157 132 L1157 1006 L836 1006 L836 874 L1003 874 L1003 447 C1003 250 917 112 712 112 C507 112 421 250 421 447 L421 1006 Z " />
<glyph glyph-name="Umacron" unicode="&#x16a;" horiz-adv-x="1720" d="M509 1519 L1212 1519 L1212 1652 L509 1652 L509 1519 Z M446 614 L446 1290 L610 1290 L610 1434 L120 1434 L120 1290 L284 1290 L284 614 C284 205 481 -20 860 -20 C1239 -20 1436 205 1436 614 L1436 1290 L1600 1290 L1600 1434 L1110 1434 L1110 1290 L1274 1290 L1274 614 C1274 290 1146 124 860 124 C574 124 446 290 446 614 L446 614 Z " />
<glyph glyph-name="umacron" unicode="&#x16b;" horiz-adv-x="1424" d="M363 1302 L1061 1302 L1061 1434 L363 1434 L363 1302 Z M421 1006 L100 1006 L100 874 L267 874 L267 447 C267 153 423 -20 712 -20 C941 -20 1000 164 1003 173 L1003 0 L1324 0 L1324 132 L1157 132 L1157 1006 L836 1006 L836 874 L1003 874 L1003 447 C1003 250 917 112 712 112 C507 112 421 250 421 447 L421 1006 Z " />
<glyph glyph-name="Ubreve" unicode="&#x16c;" horiz-adv-x="1720" d="M860 1539 C1159 1539 1200 1786 1200 1786 L1079 1786 C1079 1786 1030 1660 860 1660 C690 1660 641 1786 641 1786 L520 1786 C520 1786 561 1539 860 1539 L860 1539 Z M446 614 L446 1290 L610 1290 L610 1434 L120 1434 L120 1290 L284 1290 L284 614 C284 205 481 -20 860 -20 C1239 -20 1436 205 1436 614 L1436 1290 L1600 1290 L1600 1434 L1110 1434 L1110 1290 L1274 1290 L1274 614 C1274 290 1146 124 860 124 C574 124 446 290 446 614 L446 614 Z " />
<glyph glyph-name="ubreve" unicode="&#x16d;" horiz-adv-x="1424" d="M712 1187 C1011 1187 1052 1434 1052 1434 L931 1434 C931 1434 882 1308 712 1308 C542 1308 493 1434 493 1434 L372 1434 C372 1434 413 1187 712 1187 L712 1187 Z M421 1006 L100 1006 L100 874 L267 874 L267 447 C267 153 423 -20 712 -20 C941 -20 1000 164 1003 173 L1003 0 L1324 0 L1324 132 L1157 132 L1157 1006 L836 1006 L836 874 L1003 874 L1003 447 C1003 250 917 112 712 112 C507 112 421 250 421 447 L421 1006 Z " />
<glyph glyph-name="Uring" unicode="&#x16e;" horiz-adv-x="1720" d="M668 1710 C668 1607 756 1519 859 1519 C963 1519 1050 1607 1050 1710 C1050 1814 963 1901 859 1901 C756 1901 668 1814 668 1710 L668 1710 Z M779 1710 C779 1754 815 1790 859 1790 C904 1790 939 1754 939 1710 C939 1665 904 1630 859 1630 C815 1630 779 1665 779 1710 L779 1710 Z M446 614 L446 1290 L610 1290 L610 1434 L120 1434 L120 1290 L284 1290 L284 614 C284 205 481 -20 860 -20 C1239 -20 1436 205 1436 614 L1436 1290 L1600 1290 L1600 1434 L1110 1434 L1110 1290 L1274 1290 L1274 614 C1274 290 1146 124 860 124 C574 124 446 290 446 614 L446 614 Z " />
<glyph glyph-name="uring" unicode="&#x16f;" horiz-adv-x="1424" d="M521 1297 C521 1194 609 1106 712 1106 C815 1106 903 1194 903 1297 C903 1401 815 1488 712 1488 C609 1488 521 1401 521 1297 L521 1297 Z M632 1297 C632 1341 667 1377 712 1377 C757 1377 792 1341 792 1297 C792 1252 757 1217 712 1217 C667 1217 632 1252 632 1297 L632 1297 Z M421 1006 L100 1006 L100 874 L267 874 L267 447 C267 153 423 -20 712 -20 C941 -20 1000 164 1003 173 L1003 0 L1324 0 L1324 132 L1157 132 L1157 1006 L836 1006 L836 874 L1003 874 L1003 447 C1003 250 917 112 712 112 C507 112 421 250 421 447 L421 1006 Z " />
<glyph glyph-name="Uhungarumlaut" unicode="&#x170;" horiz-adv-x="1720" d="M899 1519 L1040 1519 L1199 1867 L1024 1867 L899 1519 Z M651 1519 L793 1519 L952 1867 L777 1867 L651 1519 Z M446 614 L446 1290 L610 1290 L610 1434 L120 1434 L120 1290 L284 1290 L284 614 C284 205 481 -20 860 -20 C1239 -20 1436 205 1436 614 L1436 1290 L1600 1290 L1600 1434 L1110 1434 L1110 1290 L1274 1290 L1274 614 C1274 290 1146 124 860 124 C574 124 446 290 446 614 L446 614 Z " />
<glyph glyph-name="uhungarumlaut" unicode="&#x171;" horiz-adv-x="1424" d="M759 1170 L899 1170 L1058 1516 L884 1516 L759 1170 Z M513 1170 L653 1170 L812 1516 L638 1516 L513 1170 Z M421 1006 L100 1006 L100 874 L267 874 L267 447 C267 153 423 -20 712 -20 C941 -20 1000 164 1003 173 L1003 0 L1324 0 L1324 132 L1157 132 L1157 1006 L836 1006 L836 874 L1003 874 L1003 447 C1003 250 917 112 712 112 C507 112 421 250 421 447 L421 1006 Z " />
<glyph glyph-name="Uogonek" unicode="&#x172;" horiz-adv-x="1720" d="M446 614 L446 1290 L610 1290 L610 1434 L120 1434 L120 1290 L284 1290 L284 614 C284 210 475 -13 844 -19 C797 -46 752 -104 751 -182 C753 -340 905 -390 1045 -376 L1045 -238 C989 -238 888 -234 888 -145 C888 -62 967 -22 1012 -6 C1291 49 1436 264 1436 614 L1436 1290 L1600 1290 L1600 1434 L1110 1434 L1110 1290 L1274 1290 L1274 614 C1274 290 1146 124 860 124 C574 124 446 290 446 614 L446 614 Z " />
<glyph glyph-name="uogonek" unicode="&#x173;" horiz-adv-x="1424" d="M421 1006 L100 1006 L100 874 L267 874 L267 447 C267 153 423 -20 712 -20 C941 -20 1000 164 1003 173 L1003 0 L1170 0 C1108 -20 1023 -79 1026 -189 C1031 -347 1199 -390 1321 -377 L1321 -239 C1263 -239 1163 -235 1163 -146 C1163 -35 1308 -3 1324 0 L1324 132 L1157 132 L1157 1006 L836 1006 L836 874 L1003 874 L1003 447 C1003 250 917 112 712 112 C507 112 421 250 421 447 L421 1006 Z " />
<glyph glyph-name="Wcircumflex" unicode="&#x174;" horiz-adv-x="2210" d="M775 1519 L933 1519 L1105 1699 L1277 1519 L1435 1519 L1154 1843 L1056 1843 L775 1519 Z M388 1290 L550 1290 L550 1434 L60 1434 L60 1290 L223 1290 L637 0 L772 0 L1105 1195 L1438 0 L1573 0 L1987 1290 L2150 1290 L2150 1434 L1660 1434 L1660 1290 L1821 1290 L1509 299 L1192 1434 L1018 1434 L701 299 L388 1290 Z " />
<glyph glyph-name="wcircumflex" unicode="&#x175;" horiz-adv-x="1866" d="M603 1110 L761 1110 L933 1290 L1105 1110 L1263 1110 L982 1434 L884 1434 L603 1110 Z M623 238 L427 874 L588 874 L588 1006 L100 1006 L100 874 L261 874 L550 0 L694 0 L933 771 L1172 0 L1316 0 L1604 874 L1766 874 L1766 1006 L1278 1006 L1278 874 L1438 874 L1243 238 L1005 1006 L861 1006 L623 238 Z " />
<glyph glyph-name="Ycircumflex" unicode="&#x176;" horiz-adv-x="1508" d="M425 1519 L583 1519 L755 1699 L927 1519 L1085 1519 L804 1843 L706 1843 L425 1519 Z M673 597 L673 144 L509 144 L509 0 L999 0 L999 144 L835 144 L835 597 L1297 1290 L1448 1290 L1448 1434 L958 1434 L958 1290 L1107 1290 L754 760 L401 1290 L550 1290 L550 1434 L60 1434 L60 1290 L211 1290 L673 597 Z " />
<glyph glyph-name="ycircumflex" unicode="&#x177;" horiz-adv-x="1408" d="M374 1110 L532 1110 L704 1290 L876 1110 L1034 1110 L753 1434 L655 1434 L374 1110 Z M704 186 L429 874 L588 874 L588 1006 L100 1006 L100 874 L260 874 L625 0 L521 -254 C484 -340 456 -400 323 -400 L215 -400 L215 -532 L340 -532 C511 -532 587 -464 654 -308 L1148 874 L1308 874 L1308 1006 L820 1006 L820 874 L979 874 L704 186 Z " />
<glyph glyph-name="Ydieresis" unicode="&#x178;" horiz-adv-x="1508" d="M466 1641 C466 1584 513 1539 569 1539 C625 1539 672 1584 672 1641 C672 1697 625 1743 569 1743 C513 1743 466 1697 466 1641 L466 1641 Z M836 1641 C836 1584 883 1539 939 1539 C995 1539 1042 1584 1042 1641 C1042 1697 995 1743 939 1743 C883 1743 836 1697 836 1641 L836 1641 Z M673 597 L673 144 L509 144 L509 0 L999 0 L999 144 L835 144 L835 597 L1297 1290 L1448 1290 L1448 1434 L958 1434 L958 1290 L1107 1290 L754 760 L401 1290 L550 1290 L550 1434 L60 1434 L60 1290 L211 1290 L673 597 Z " />
<glyph glyph-name="Zacute" unicode="&#x179;" horiz-adv-x="1324" d="M558 1519 L730 1519 L1039 1824 L830 1824 L558 1519 Z M1200 1434 L131 1434 L131 1127 L293 1127 L293 1290 L969 1290 L120 91 L120 0 L1204 0 L1204 307 L1042 307 L1042 144 L351 144 L1200 1343 L1200 1434 Z " />
<glyph glyph-name="zacute" unicode="&#x17a;" horiz-adv-x="1053" d="M441 1131 L612 1131 L920 1434 L712 1434 L441 1131 Z M123 714 L277 714 L277 874 L723 874 L100 78 L100 0 L953 0 L953 292 L799 292 L799 132 L330 132 L953 928 L953 1006 L123 1006 L123 714 Z " />
<glyph glyph-name="Zdotaccent" unicode="&#x17b;" horiz-adv-x="1324" d="M559 1641 C559 1584 606 1539 662 1539 C718 1539 765 1584 765 1641 C765 1697 718 1743 662 1743 C606 1743 559 1697 559 1641 L559 1641 Z M1200 1434 L131 1434 L131 1127 L293 1127 L293 1290 L969 1290 L120 91 L120 0 L1204 0 L1204 307 L1042 307 L1042 144 L351 144 L1200 1343 L1200 1434 Z " />
<glyph glyph-name="zdotaccent" unicode="&#x17c;" horiz-adv-x="1053" d="M423 1285 C423 1228 470 1183 526 1183 C582 1183 629 1228 629 1285 C629 1341 582 1387 526 1387 C470 1387 423 1341 423 1285 L423 1285 Z M123 714 L277 714 L277 874 L723 874 L100 78 L100 0 L953 0 L953 292 L799 292 L799 132 L330 132 L953 928 L953 1006 L123 1006 L123 714 Z " />
<glyph glyph-name="Zcaron" unicode="&#x17d;" horiz-adv-x="1324" d="M614 1519 L712 1519 L993 1843 L835 1843 L663 1663 L491 1843 L333 1843 L614 1519 Z M1200 1434 L131 1434 L131 1127 L293 1127 L293 1290 L969 1290 L120 91 L120 0 L1204 0 L1204 307 L1042 307 L1042 144 L351 144 L1200 1343 L1200 1434 Z " />
<glyph glyph-name="zcaron" unicode="&#x17e;" horiz-adv-x="1053" d="M486 1110 L584 1110 L865 1434 L707 1434 L535 1254 L363 1434 L205 1434 L486 1110 Z M123 714 L277 714 L277 874 L723 874 L100 78 L100 0 L953 0 L953 292 L799 292 L799 132 L330 132 L953 928 L953 1006 L123 1006 L123 714 Z " />
<glyph glyph-name="longs" unicode="&#x17f;" horiz-adv-x="848" d="M121 0 L609 0 L609 132 L442 132 L442 1069 C442 1320 479 1404 624 1404 C694 1404 769 1377 769 1377 L818 1496 C818 1496 744 1536 614 1536 C367 1536 288 1376 288 1069 L288 132 L121 132 L121 0 Z " />
<glyph glyph-name="florin" unicode="&#x192;" horiz-adv-x="1100" d="M624 861 L892 861 L921 1006 L648 1006 C654 1042 663 1078 669 1113 C684 1188 710 1291 861 1291 L1004 1291 L1030 1434 L870 1434 C574 1434 527 1207 513 1129 C507 1092 497 1043 490 1006 L223 1006 L195 861 L464 861 L271 -212 C257 -287 234 -388 79 -388 L-63 -388 L-90 -532 L71 -532 C367 -532 413 -305 428 -228 L624 861 Z " />
<glyph glyph-name="Ohorn" unicode="&#x1a0;" horiz-adv-x="1614" d="M100 717 C100 315 347 -20 807 -20 C1267 -20 1514 315 1514 717 C1514 931 1443 1127 1308 1262 C1407 1302 1494 1391 1494 1563 L1332 1563 C1332 1437 1265 1371 1199 1349 C1094 1416 962 1454 807 1454 C347 1454 100 1119 100 717 L100 717 Z M1348 717 C1348 391 1172 124 807 124 C442 124 266 391 266 717 C266 1043 442 1310 807 1310 C1172 1310 1348 1043 1348 717 L1348 717 Z " />
<glyph glyph-name="ohorn" unicode="&#x1a1;" horiz-adv-x="1218" d="M604 1026 C280 1026 80 806 80 503 C80 200 280 -20 604 -20 C928 -20 1128 200 1128 503 C1128 646 1083 771 1001 863 C1094 897 1188 976 1188 1162 L1035 1162 C1035 1032 961 970 898 949 C818 998 719 1026 604 1026 L604 1026 Z M968 503 C968 283 845 112 604 112 C363 112 240 283 240 503 C240 723 363 894 604 894 C845 894 968 723 968 503 L968 503 Z " />
<glyph glyph-name="Uhorn" unicode="&#x1af;" horiz-adv-x="1804" d="M446 614 L446 1290 L610 1290 L610 1434 L120 1434 L120 1290 L284 1290 L284 614 C284 205 481 -20 860 -20 C1239 -20 1436 205 1436 614 L1436 1290 C1555 1290 1684 1371 1684 1612 L1521 1612 C1521 1454 1461 1434 1385 1434 L1110 1434 L1110 1290 L1274 1290 L1274 614 C1274 290 1146 124 860 124 C574 124 446 290 446 614 L446 614 Z " />
<glyph glyph-name="uhorn" unicode="&#x1b0;" horiz-adv-x="1551" d="M421 1006 L100 1006 L100 874 L267 874 L267 447 C267 153 423 -20 712 -20 C941 -20 1000 164 1003 173 L1003 0 L1324 0 L1324 132 L1157 132 L1157 874 C1233 874 1451 885 1451 1176 L1306 1176 C1306 1010 1213 1006 1157 1006 L836 1006 L836 874 L1003 874 L1003 447 C1003 250 917 112 712 112 C507 112 421 250 421 447 L421 1006 Z " />
<glyph glyph-name="uni01CD" unicode="&#x1cd;" horiz-adv-x="1656" d="M1158 1843 L1000 1843 L828 1663 L656 1843 L498 1843 L779 1519 L877 1519 L1158 1843 Z M893 1434 L538 1434 L538 1290 L702 1290 L219 144 L60 144 L60 0 L550 0 L550 144 L391 144 L512 436 L1144 436 L1265 144 L1106 144 L1106 0 L1596 0 L1596 144 L1437 144 L893 1434 Z M828 1198 L1084 580 L571 580 L828 1198 Z " />
<glyph glyph-name="uni01CE" unicode="&#x1ce;" horiz-adv-x="1225" d="M505 1110 L603 1110 L884 1434 L726 1434 L554 1254 L382 1434 L224 1434 L505 1110 Z M804 0 L1125 0 L1125 132 L958 132 L958 591 C958 843 915 1026 558 1026 C317 1026 169 931 169 931 L233 813 C233 813 381 894 558 894 C775 894 800 798 804 650 C537 678 80 664 80 308 C80 88 236 -20 471 -20 C751 -20 801 172 804 181 L804 0 Z M238 308 C238 533 577 545 804 530 L804 431 C804 266 700 112 471 112 C306 112 238 199 238 308 L238 308 Z " />
<glyph glyph-name="uni01CF" unicode="&#x1cf;" horiz-adv-x="820" d="M361 1519 L459 1519 L740 1843 L582 1843 L410 1663 L238 1843 L80 1843 L361 1519 Z M329 1290 L329 144 L165 144 L165 0 L655 0 L655 144 L491 144 L491 1290 L655 1290 L655 1434 L165 1434 L165 1290 L329 1290 Z " />
<glyph glyph-name="uni01D0" unicode="&#x1d0;" horiz-adv-x="780" d="M341 1110 L439 1110 L720 1434 L562 1434 L390 1254 L218 1434 L60 1434 L341 1110 Z M467 1006 L146 1006 L146 874 L313 874 L313 132 L146 132 L146 0 L634 0 L634 132 L467 132 L467 1006 Z " />
<glyph glyph-name="uni01D1" unicode="&#x1d1;" horiz-adv-x="1614" d="M100 717 C100 315 347 -20 807 -20 C1267 -20 1514 315 1514 717 C1514 1119 1267 1454 807 1454 C347 1454 100 1119 100 717 L100 717 Z M1348 717 C1348 391 1172 124 807 124 C442 124 266 391 266 717 C266 1043 442 1310 807 1310 C1172 1310 1348 1043 1348 717 L1348 717 Z M758 1519 L856 1519 L1137 1843 L979 1843 L807 1663 L635 1843 L477 1843 L758 1519 Z " />
<glyph glyph-name="uni01D2" unicode="&#x1d2;" horiz-adv-x="1208" d="M604 1026 C280 1026 80 806 80 503 C80 200 280 -20 604 -20 C928 -20 1128 200 1128 503 C1128 806 928 1026 604 1026 L604 1026 Z M968 503 C968 283 845 112 604 112 C363 112 240 283 240 503 C240 723 363 894 604 894 C845 894 968 723 968 503 L968 503 Z M555 1110 L653 1110 L934 1434 L776 1434 L604 1254 L432 1434 L274 1434 L555 1110 Z " />
<glyph glyph-name="uni01D3" unicode="&#x1d3;" horiz-adv-x="1720" d="M810 1519 L908 1519 L1189 1843 L1031 1843 L859 1663 L687 1843 L529 1843 L810 1519 Z M446 614 L446 1290 L610 1290 L610 1434 L120 1434 L120 1290 L284 1290 L284 614 C284 205 481 -20 860 -20 C1239 -20 1436 205 1436 614 L1436 1290 L1600 1290 L1600 1434 L1110 1434 L1110 1290 L1274 1290 L1274 614 C1274 290 1146 124 860 124 C574 124 446 290 446 614 L446 614 Z " />
<glyph glyph-name="uni01D4" unicode="&#x1d4;" horiz-adv-x="1424" d="M663 1110 L761 1110 L1042 1434 L884 1434 L712 1254 L540 1434 L382 1434 L663 1110 Z M421 1006 L100 1006 L100 874 L267 874 L267 447 C267 153 423 -20 712 -20 C941 -20 1000 164 1003 173 L1003 0 L1324 0 L1324 132 L1157 132 L1157 1006 L836 1006 L836 874 L1003 874 L1003 447 C1003 250 917 112 712 112 C507 112 421 250 421 447 L421 1006 Z " />
<glyph glyph-name="uni01D5" unicode="&#x1d5;" horiz-adv-x="1720" d="M509 1808 L1211 1808 L1211 1940 L509 1940 L509 1808 Z M572 1641 C572 1584 619 1539 675 1539 C731 1539 778 1584 778 1641 C778 1697 731 1743 675 1743 C619 1743 572 1697 572 1641 L572 1641 Z M942 1641 C942 1584 989 1539 1045 1539 C1101 1539 1148 1584 1148 1641 C1148 1697 1101 1743 1045 1743 C989 1743 942 1697 942 1641 L942 1641 Z M446 614 L446 1290 L610 1290 L610 1434 L120 1434 L120 1290 L284 1290 L284 614 C284 205 481 -20 860 -20 C1239 -20 1436 205 1436 614 L1436 1290 L1600 1290 L1600 1434 L1110 1434 L1110 1290 L1274 1290 L1274 614 C1274 290 1146 124 860 124 C574 124 446 290 446 614 L446 614 Z " />
<glyph glyph-name="uni01D6" unicode="&#x1d6;" horiz-adv-x="1424" d="M362 1460 L1062 1460 L1062 1592 L362 1592 L362 1460 Z M424 1285 C424 1228 471 1183 527 1183 C583 1183 630 1228 630 1285 C630 1341 583 1387 527 1387 C471 1387 424 1341 424 1285 L424 1285 Z M794 1285 C794 1228 841 1183 897 1183 C953 1183 1000 1228 1000 1285 C1000 1341 953 1387 897 1387 C841 1387 794 1341 794 1285 L794 1285 Z M421 1006 L100 1006 L100 874 L267 874 L267 447 C267 153 423 -20 712 -20 C941 -20 1000 164 1003 173 L1003 0 L1324 0 L1324 132 L1157 132 L1157 1006 L836 1006 L836 874 L1003 874 L1003 447 C1003 250 917 112 712 112 C507 112 421 250 421 447 L421 1006 Z " />
<glyph glyph-name="uni01D7" unicode="&#x1d7;" horiz-adv-x="1720" d="M764 1828 L936 1828 L1246 2132 L1037 2132 L764 1828 Z M572 1641 C572 1584 619 1539 675 1539 C731 1539 778 1584 778 1641 C778 1697 731 1743 675 1743 C619 1743 572 1697 572 1641 L572 1641 Z M942 1641 C942 1584 989 1539 1045 1539 C1101 1539 1148 1584 1148 1641 C1148 1697 1101 1743 1045 1743 C989 1743 942 1697 942 1641 L942 1641 Z M446 614 L446 1290 L610 1290 L610 1434 L120 1434 L120 1290 L284 1290 L284 614 C284 205 481 -20 860 -20 C1239 -20 1436 205 1436 614 L1436 1290 L1600 1290 L1600 1434 L1110 1434 L1110 1290 L1274 1290 L1274 614 C1274 290 1146 124 860 124 C574 124 446 290 446 614 L446 614 Z " />
<glyph glyph-name="uni01D8" unicode="&#x1d8;" horiz-adv-x="1424" d="M625 1470 L796 1470 L1104 1773 L897 1773 L625 1470 Z M424 1285 C424 1228 471 1183 527 1183 C583 1183 630 1228 630 1285 C630 1341 583 1387 527 1387 C471 1387 424 1341 424 1285 L424 1285 Z M794 1285 C794 1228 841 1183 897 1183 C953 1183 1000 1228 1000 1285 C1000 1341 953 1387 897 1387 C841 1387 794 1341 794 1285 L794 1285 Z M421 1006 L100 1006 L100 874 L267 874 L267 447 C267 153 423 -20 712 -20 C941 -20 1000 164 1003 173 L1003 0 L1324 0 L1324 132 L1157 132 L1157 1006 L836 1006 L836 874 L1003 874 L1003 447 C1003 250 917 112 712 112 C507 112 421 250 421 447 L421 1006 Z " />
<glyph glyph-name="uni01D9" unicode="&#x1d9;" horiz-adv-x="1720" d="M572 1641 C572 1584 619 1539 675 1539 C731 1539 778 1584 778 1641 C778 1697 731 1743 675 1743 C619 1743 572 1697 572 1641 L572 1641 Z M942 1641 C942 1584 989 1539 1045 1539 C1101 1539 1148 1584 1148 1641 C1148 1697 1101 1743 1045 1743 C989 1743 942 1697 942 1641 L942 1641 Z M446 614 L446 1290 L610 1290 L610 1434 L120 1434 L120 1290 L284 1290 L284 614 C284 205 481 -20 860 -20 C1239 -20 1436 205 1436 614 L1436 1290 L1600 1290 L1600 1434 L1110 1434 L1110 1290 L1274 1290 L1274 614 C1274 290 1146 124 860 124 C574 124 446 290 446 614 L446 614 Z " />
<glyph glyph-name="uni01DA" unicode="&#x1da;" horiz-adv-x="1424" d="M424 1285 C424 1228 471 1183 527 1183 C583 1183 630 1228 630 1285 C630 1341 583 1387 527 1387 C471 1387 424 1341 424 1285 L424 1285 Z M794 1285 C794 1228 841 1183 897 1183 C953 1183 1000 1228 1000 1285 C1000 1341 953 1387 897 1387 C841 1387 794 1341 794 1285 L794 1285 Z M421 1006 L100 1006 L100 874 L267 874 L267 447 C267 153 423 -20 712 -20 C941 -20 1000 164 1003 173 L1003 0 L1324 0 L1324 132 L1157 132 L1157 1006 L836 1006 L836 874 L1003 874 L1003 447 C1003 250 917 112 712 112 C507 112 421 250 421 447 L421 1006 Z " />
<glyph glyph-name="uni01DB" unicode="&#x1db;" horiz-adv-x="1720" d="M668 2132 L459 2132 L769 1828 L941 1828 L668 2132 Z M572 1641 C572 1584 619 1539 675 1539 C731 1539 778 1584 778 1641 C778 1697 731 1743 675 1743 C619 1743 572 1697 572 1641 L572 1641 Z M942 1641 C942 1584 989 1539 1045 1539 C1101 1539 1148 1584 1148 1641 C1148 1697 1101 1743 1045 1743 C989 1743 942 1697 942 1641 L942 1641 Z M446 614 L446 1290 L610 1290 L610 1434 L120 1434 L120 1290 L284 1290 L284 614 C284 205 481 -20 860 -20 C1239 -20 1436 205 1436 614 L1436 1290 L1600 1290 L1600 1434 L1110 1434 L1110 1290 L1274 1290 L1274 614 C1274 290 1146 124 860 124 C574 124 446 290 446 614 L446 614 Z " />
<glyph glyph-name="uni01DC" unicode="&#x1dc;" horiz-adv-x="1424" d="M523 1773 L315 1773 L624 1470 L795 1470 L523 1773 Z M424 1285 C424 1228 471 1183 527 1183 C583 1183 630 1228 630 1285 C630 1341 583 1387 527 1387 C471 1387 424 1341 424 1285 L424 1285 Z M794 1285 C794 1228 841 1183 897 1183 C953 1183 1000 1228 1000 1285 C1000 1341 953 1387 897 1387 C841 1387 794 1341 794 1285 L794 1285 Z M421 1006 L100 1006 L100 874 L267 874 L267 447 C267 153 423 -20 712 -20 C941 -20 1000 164 1003 173 L1003 0 L1324 0 L1324 132 L1157 132 L1157 1006 L836 1006 L836 874 L1003 874 L1003 447 C1003 250 917 112 712 112 C507 112 421 250 421 447 L421 1006 Z " />
<glyph glyph-name="uni01DE" unicode="&#x1de;" horiz-adv-x="1656" d="M477 1808 L1179 1808 L1179 1940 L477 1940 L477 1808 Z M540 1641 C540 1584 587 1539 643 1539 C699 1539 746 1584 746 1641 C746 1697 699 1743 643 1743 C587 1743 540 1697 540 1641 L540 1641 Z M910 1641 C910 1584 957 1539 1013 1539 C1069 1539 1116 1584 1116 1641 C1116 1697 1069 1743 1013 1743 C957 1743 910 1697 910 1641 L910 1641 Z M893 1434 L538 1434 L538 1290 L702 1290 L219 144 L60 144 L60 0 L550 0 L550 144 L391 144 L512 436 L1144 436 L1265 144 L1106 144 L1106 0 L1596 0 L1596 144 L1437 144 L893 1434 Z M828 1198 L1084 580 L571 580 L828 1198 Z " />
<glyph glyph-name="uni01DF" unicode="&#x1df;" horiz-adv-x="1225" d="M221 1460 L920 1460 L920 1592 L221 1592 L221 1460 Z M281 1285 C281 1228 328 1183 384 1183 C440 1183 487 1228 487 1285 C487 1341 440 1387 384 1387 C328 1387 281 1341 281 1285 L281 1285 Z M651 1285 C651 1228 698 1183 754 1183 C810 1183 857 1228 857 1285 C857 1341 810 1387 754 1387 C698 1387 651 1341 651 1285 L651 1285 Z M804 0 L1125 0 L1125 132 L958 132 L958 591 C958 843 915 1026 558 1026 C317 1026 169 931 169 931 L233 813 C233 813 381 894 558 894 C775 894 800 798 804 650 C537 678 80 664 80 308 C80 88 236 -20 471 -20 C751 -20 801 172 804 181 L804 0 Z M238 308 C238 533 577 545 804 530 L804 431 C804 266 700 112 471 112 C306 112 238 199 238 308 L238 308 Z " />
<glyph glyph-name="uni01E0" unicode="&#x1e0;" horiz-adv-x="1656" d="M477 1808 L1179 1808 L1179 1940 L477 1940 L477 1808 Z M725 1641 C725 1584 772 1539 828 1539 C884 1539 931 1584 931 1641 C931 1697 884 1743 828 1743 C772 1743 725 1697 725 1641 L725 1641 Z M893 1434 L538 1434 L538 1290 L702 1290 L219 144 L60 144 L60 0 L550 0 L550 144 L391 144 L512 436 L1144 436 L1265 144 L1106 144 L1106 0 L1596 0 L1596 144 L1437 144 L893 1434 Z M828 1198 L1084 580 L571 580 L828 1198 Z " />
<glyph glyph-name="uni01E1" unicode="&#x1e1;" horiz-adv-x="1225" d="M221 1460 L920 1460 L920 1592 L221 1592 L221 1460 Z M467 1285 C467 1228 514 1183 570 1183 C626 1183 673 1228 673 1285 C673 1341 626 1387 570 1387 C514 1387 467 1341 467 1285 L467 1285 Z M804 0 L1125 0 L1125 132 L958 132 L958 591 C958 843 915 1026 558 1026 C317 1026 169 931 169 931 L233 813 C233 813 381 894 558 894 C775 894 800 798 804 650 C537 678 80 664 80 308 C80 88 236 -20 471 -20 C751 -20 801 172 804 181 L804 0 Z M238 308 C238 533 577 545 804 530 L804 431 C804 266 700 112 471 112 C306 112 238 199 238 308 L238 308 Z " />
<glyph glyph-name="uni01E2" unicode="&#x1e2;" horiz-adv-x="2216" d="M1133 1519 L1837 1519 L1837 1652 L1133 1652 L1133 1519 Z M2096 0 L2096 307 L1934 307 L1934 144 L1294 144 L1294 661 L1929 661 L1929 805 L1294 805 L1294 1290 L1924 1290 L1924 1127 L2086 1127 L2086 1434 L879 1434 L879 1290 L1038 1290 L268 144 L120 144 L120 0 L610 0 L610 144 L458 144 L683 478 L1132 478 L1132 0 L2096 0 Z M1132 1146 L1132 622 L780 622 L1132 1146 Z " />
<glyph glyph-name="uni01E3" unicode="&#x1e3;" horiz-adv-x="1853" d="M566 1302 L1266 1302 L1266 1434 L566 1434 L566 1302 Z M1288 112 C1094 112 975 253 968 437 L1773 437 C1773 834 1573 1026 1288 1026 C1126 1026 1000 963 917 859 C869 962 767 1026 558 1026 C317 1026 169 931 169 931 L233 813 C233 813 381 894 558 894 C775 894 800 798 804 650 C537 678 80 664 80 308 C80 88 236 -20 471 -20 C696 -20 825 89 893 178 C975 55 1110 -20 1288 -20 C1572 -20 1712 141 1712 141 L1614 237 C1614 237 1471 112 1288 112 L1288 112 Z M238 308 C238 533 577 545 804 530 L804 431 C804 266 700 112 471 112 C306 112 238 199 238 308 L238 308 Z M968 569 C985 752 1095 894 1288 894 C1482 894 1593 753 1609 569 L968 569 Z " />
<glyph glyph-name="uni01E4" unicode="&#x1e4;" horiz-adv-x="1593" d="M1193 1127 L1355 1127 L1355 1337 C1355 1337 1166 1454 807 1454 C347 1454 100 1119 100 717 C100 315 347 -20 807 -20 C1167 -20 1364 149 1364 149 L1364 374 L1513 374 L1513 518 L1364 518 L1364 805 L837 805 L837 661 L1212 661 L1212 518 L837 518 L837 374 L1212 374 L1212 230 C1212 230 1061 124 807 124 C442 124 266 391 266 717 C266 1043 442 1310 807 1310 C1048 1310 1193 1249 1193 1249 L1193 1127 Z " />
<glyph glyph-name="uni01E5" unicode="&#x1e5;" horiz-adv-x="1357" d="M1090 0 L1090 874 L1257 874 L1257 1006 L936 1006 L936 805 C931 816 838 1026 588 1026 C248 1026 80 784 80 503 C80 222 248 -20 588 -20 C838 -20 931 190 936 200 L936 0 C936 -49 931 -94 923 -134 L607 -134 L607 -266 L870 -266 C810 -356 712 -400 587 -400 C397 -400 249 -301 249 -301 L161 -409 C161 -409 317 -532 587 -532 C759 -532 954 -471 1042 -266 L1250 -266 L1250 -134 L1079 -134 C1086 -93 1090 -49 1090 0 L1090 0 Z M588 894 C817 894 936 712 936 503 C936 294 817 112 588 112 C359 112 240 294 240 503 C240 712 359 894 588 894 L588 894 Z " />
<glyph glyph-name="Gcaron" unicode="&#x1e6;" horiz-adv-x="1484" d="M747 1519 L845 1519 L1126 1843 L968 1843 L796 1663 L624 1843 L466 1843 L747 1519 Z M1193 1127 L1355 1127 L1355 1337 C1355 1337 1166 1454 807 1454 C347 1454 100 1119 100 717 C100 315 347 -20 807 -20 C1167 -20 1364 149 1364 149 L1364 805 L837 805 L837 661 L1212 661 L1212 230 C1212 230 1061 124 807 124 C442 124 266 391 266 717 C266 1043 442 1310 807 1310 C1048 1310 1193 1249 1193 1249 L1193 1127 Z " />
<glyph glyph-name="gcaron" unicode="&#x1e7;" horiz-adv-x="1357" d="M539 1110 L637 1110 L918 1434 L760 1434 L588 1254 L416 1434 L258 1434 L539 1110 Z M1090 0 L1090 874 L1257 874 L1257 1006 L936 1006 L936 805 C931 816 838 1026 588 1026 C248 1026 80 784 80 503 C80 222 248 -20 588 -20 C838 -20 931 190 936 200 L936 0 C936 -272 801 -400 587 -400 C397 -400 249 -301 249 -301 L161 -409 C161 -409 317 -532 587 -532 C819 -532 1090 -423 1090 0 L1090 0 Z M588 894 C817 894 936 712 936 503 C936 294 817 112 588 112 C359 112 240 294 240 503 C240 712 359 894 588 894 L588 894 Z " />
<glyph glyph-name="uni01E8" unicode="&#x1e8;" horiz-adv-x="1579" d="M711 1519 L809 1519 L1090 1843 L932 1843 L760 1663 L588 1843 L430 1843 L711 1519 Z M446 726 L446 1290 L610 1290 L610 1434 L120 1434 L120 1290 L284 1290 L284 144 L120 144 L120 0 L610 0 L610 144 L446 144 L446 518 L656 720 L1116 144 L969 144 L969 0 L1459 0 L1459 144 L1313 144 L768 825 L1258 1290 L1402 1290 L1402 1434 L912 1434 L912 1290 L1040 1290 L446 726 Z " />
<glyph glyph-name="uni01E9" unicode="&#x1e9;" horiz-adv-x="1286" d="M584 1519 L682 1519 L963 1843 L805 1843 L633 1663 L461 1843 L303 1843 L584 1519 Z M421 1516 L100 1516 L100 1384 L267 1384 L267 132 L100 132 L100 0 L588 0 L588 132 L421 132 L421 382 L566 498 L946 0 L1186 0 L1186 132 L1030 132 L681 590 L1036 874 L1182 874 L1182 1006 L694 1006 L694 874 L815 874 L421 559 L421 1516 Z " />
<glyph glyph-name="uni01EA" unicode="&#x1ea;" horiz-adv-x="1614" d="M100 717 C100 319 342 -13 792 -20 C748 -49 703 -104 702 -182 C704 -340 856 -390 996 -376 L996 -238 C940 -238 839 -234 839 -145 C839 -60 923 -20 967 -5 C1324 63 1514 364 1514 717 C1514 1119 1267 1454 807 1454 C347 1454 100 1119 100 717 L100 717 Z M1348 717 C1348 391 1172 124 807 124 C442 124 266 391 266 717 C266 1043 442 1310 807 1310 C1172 1310 1348 1043 1348 717 L1348 717 Z " />
<glyph glyph-name="uni01EB" unicode="&#x1eb;" horiz-adv-x="1208" d="M604 1026 C280 1026 80 806 80 503 C80 212 265 -3 567 -19 C515 -48 463 -103 466 -189 C471 -347 639 -390 761 -377 L761 -239 C703 -239 603 -235 603 -146 C603 -57 695 -19 741 -5 C983 48 1128 245 1128 503 C1128 806 928 1026 604 1026 L604 1026 Z M968 503 C968 283 845 112 604 112 C363 112 240 283 240 503 C240 723 363 894 604 894 C845 894 968 723 968 503 L968 503 Z " />
<glyph glyph-name="uni01EC" unicode="&#x1ec;" horiz-adv-x="1614" d="M456 1519 L1158 1519 L1158 1652 L456 1652 L456 1519 Z M100 717 C100 319 342 -13 792 -20 C748 -49 703 -104 702 -182 C704 -340 856 -390 996 -376 L996 -238 C940 -238 839 -234 839 -145 C839 -60 923 -20 967 -5 C1324 63 1514 364 1514 717 C1514 1119 1267 1454 807 1454 C347 1454 100 1119 100 717 L100 717 Z M1348 717 C1348 391 1172 124 807 124 C442 124 266 391 266 717 C266 1043 442 1310 807 1310 C1172 1310 1348 1043 1348 717 L1348 717 Z " />
<glyph glyph-name="uni01ED" unicode="&#x1ed;" horiz-adv-x="1208" d="M604 1026 C280 1026 80 806 80 503 C80 212 265 -3 567 -19 C515 -48 463 -103 466 -189 C471 -347 639 -390 761 -377 L761 -239 C703 -239 603 -235 603 -146 C603 -57 695 -19 741 -5 C983 48 1128 245 1128 503 C1128 806 928 1026 604 1026 L604 1026 Z M968 503 C968 283 845 112 604 112 C363 112 240 283 240 503 C240 723 363 894 604 894 C845 894 968 723 968 503 L968 503 Z M255 1302 L955 1302 L955 1434 L255 1434 L255 1302 Z " />
<glyph glyph-name="uni01F0" unicode="&#x1f0;" horiz-adv-x="614" d="M235 1110 L333 1110 L614 1434 L456 1434 L284 1254 L112 1434 L-46 1434 L235 1110 Z M361 1006 L40 1006 L40 874 L207 874 L207 -68 C207 -251 199 -400 70 -400 C-10 -400 -72 -371 -72 -371 L-120 -491 C-120 -491 -55 -532 70 -532 C313 -532 361 -365 361 -68 L361 1006 Z " />
<glyph glyph-name="uni01F4" unicode="&#x1f4;" horiz-adv-x="1484" d="M725 1519 L897 1519 L1207 1824 L998 1824 L725 1519 Z M1193 1127 L1355 1127 L1355 1337 C1355 1337 1166 1454 807 1454 C347 1454 100 1119 100 717 C100 315 347 -20 807 -20 C1167 -20 1364 149 1364 149 L1364 805 L837 805 L837 661 L1212 661 L1212 230 C1212 230 1061 124 807 124 C442 124 266 391 266 717 C266 1043 442 1310 807 1310 C1048 1310 1193 1249 1193 1249 L1193 1127 Z " />
<glyph glyph-name="uni01F5" unicode="&#x1f5;" horiz-adv-x="1357" d="M504 1131 L675 1131 L983 1434 L775 1434 L504 1131 Z M1090 0 L1090 874 L1257 874 L1257 1006 L936 1006 L936 805 C931 816 838 1026 588 1026 C248 1026 80 784 80 503 C80 222 248 -20 588 -20 C838 -20 931 190 936 200 L936 0 C936 -272 801 -400 587 -400 C397 -400 249 -301 249 -301 L161 -409 C161 -409 317 -532 587 -532 C819 -532 1090 -423 1090 0 L1090 0 Z M588 894 C817 894 936 712 936 503 C936 294 817 112 588 112 C359 112 240 294 240 503 C240 712 359 894 588 894 L588 894 Z " />
<glyph glyph-name="uni01F8" unicode="&#x1f8;" horiz-adv-x="1702" d="M652 1824 L443 1824 L753 1519 L925 1519 L652 1824 Z M284 1290 L284 144 L120 144 L120 0 L610 0 L610 144 L446 144 L446 1195 L1228 0 L1418 0 L1418 1290 L1582 1290 L1582 1434 L1092 1434 L1092 1290 L1256 1290 L1256 239 L474 1434 L120 1434 L120 1290 L284 1290 Z " />
<glyph glyph-name="uni01F9" unicode="&#x1f9;" horiz-adv-x="1424" d="M527 1434 L319 1434 L627 1131 L799 1131 L527 1434 Z M1003 559 L1003 0 L1324 0 L1324 132 L1157 132 L1157 559 C1157 853 1001 1026 712 1026 C483 1026 424 842 421 833 L421 1006 L100 1006 L100 874 L267 874 L267 132 L100 132 L100 0 L588 0 L588 132 L421 132 L421 559 C421 756 507 894 712 894 C917 894 1003 756 1003 559 L1003 559 Z " />
<glyph glyph-name="Aringacute" unicode="&#x1fa;" horiz-adv-x="1656" d="M637 1710 C637 1607 725 1519 828 1519 C931 1519 1019 1607 1019 1710 C1019 1791 966 1861 894 1889 L1066 2057 L884 2057 L689 1839 C657 1805 637 1759 637 1710 L637 1710 Z M748 1710 C748 1754 783 1790 828 1790 C873 1790 908 1754 908 1710 C908 1665 873 1630 828 1630 C783 1630 748 1665 748 1710 L748 1710 Z M893 1434 L538 1434 L538 1290 L702 1290 L219 144 L60 144 L60 0 L550 0 L550 144 L391 144 L512 436 L1144 436 L1265 144 L1106 144 L1106 0 L1596 0 L1596 144 L1437 144 L893 1434 Z M828 1198 L1084 580 L571 580 L828 1198 Z " />
<glyph glyph-name="aringacute" unicode="&#x1fb;" horiz-adv-x="1225" d="M371 1297 C371 1194 459 1106 562 1106 C665 1106 753 1194 753 1297 C753 1378 700 1448 628 1476 L800 1644 L618 1644 L423 1426 C391 1392 371 1346 371 1297 L371 1297 Z M482 1297 C482 1341 517 1377 562 1377 C607 1377 642 1341 642 1297 C642 1252 607 1217 562 1217 C517 1217 482 1252 482 1297 L482 1297 Z M804 0 L1125 0 L1125 132 L958 132 L958 591 C958 843 915 1026 558 1026 C317 1026 169 931 169 931 L233 813 C233 813 381 894 558 894 C775 894 800 798 804 650 C537 678 80 664 80 308 C80 88 236 -20 471 -20 C751 -20 801 172 804 181 L804 0 Z M238 308 C238 533 577 545 804 530 L804 431 C804 266 700 112 471 112 C306 112 238 199 238 308 L238 308 Z " />
<glyph glyph-name="AEacute" unicode="&#x1fc;" horiz-adv-x="2216" d="M1165 1519 L1337 1519 L1647 1824 L1438 1824 L1165 1519 Z M2096 0 L2096 307 L1934 307 L1934 144 L1294 144 L1294 661 L1929 661 L1929 805 L1294 805 L1294 1290 L1924 1290 L1924 1127 L2086 1127 L2086 1434 L879 1434 L879 1290 L1038 1290 L268 144 L120 144 L120 0 L610 0 L610 144 L458 144 L683 478 L1132 478 L1132 0 L2096 0 Z M1132 1146 L1132 622 L780 622 L1132 1146 Z " />
<glyph glyph-name="aeacute" unicode="&#x1fd;" horiz-adv-x="1853" d="M828 1131 L999 1131 L1307 1434 L1100 1434 L828 1131 Z M1288 112 C1094 112 975 253 968 437 L1773 437 C1773 834 1573 1026 1288 1026 C1126 1026 1000 963 917 859 C869 962 767 1026 558 1026 C317 1026 169 931 169 931 L233 813 C233 813 381 894 558 894 C775 894 800 798 804 650 C537 678 80 664 80 308 C80 88 236 -20 471 -20 C696 -20 825 89 893 178 C975 55 1110 -20 1288 -20 C1572 -20 1712 141 1712 141 L1614 237 C1614 237 1471 112 1288 112 L1288 112 Z M238 308 C238 533 577 545 804 530 L804 431 C804 266 700 112 471 112 C306 112 238 199 238 308 L238 308 Z M968 569 C985 752 1095 894 1288 894 C1482 894 1593 753 1609 569 L968 569 Z " />
<glyph glyph-name="Oslashacute" unicode="&#x1fe;" horiz-adv-x="1614" d="M100 717 C100 449 209 211 419 82 L351 -60 L514 -60 L552 19 C628 -6 713 -20 807 -20 C1267 -20 1514 315 1514 717 C1514 985 1403 1224 1193 1353 L1261 1494 L1099 1494 L1061 1414 C985 1440 900 1454 807 1454 C347 1454 100 1119 100 717 L100 717 Z M1348 717 C1348 391 1172 124 807 124 C736 124 673 134 616 152 L1127 1216 C1275 1111 1348 926 1348 717 L1348 717 Z M266 717 C266 1043 442 1310 807 1310 C877 1310 940 1300 997 1281 L485 218 C338 324 266 508 266 717 L266 717 Z M721 1519 L893 1519 L1202 1824 L994 1824 L721 1519 Z " />
<glyph glyph-name="oslashacute" unicode="&#x1ff;" horiz-adv-x="1248" d="M520 1124 L691 1124 L999 1427 L791 1427 L520 1124 Z M624 1026 C300 1026 100 806 100 503 C100 304 186 140 337 52 L284 -60 L427 -60 L456 2 C507 -12 564 -20 624 -20 C948 -20 1148 200 1148 503 C1148 702 1061 865 910 954 L964 1066 L821 1066 L791 1004 C740 1018 684 1026 624 1026 L624 1026 Z M260 503 C260 723 383 894 624 894 C663 894 699 889 732 881 L399 181 C307 251 260 367 260 503 L260 503 Z M988 503 C988 283 865 112 624 112 C584 112 548 116 515 125 L849 825 C941 755 988 638 988 503 L988 503 Z " />
<glyph glyph-name="uni0200" unicode="&#x200;" horiz-adv-x="1656" d="M483 1824 L274 1824 L584 1519 L756 1519 L483 1824 Z M760 1824 L551 1824 L860 1519 L1033 1519 L760 1824 Z M893 1434 L538 1434 L538 1290 L702 1290 L219 144 L60 144 L60 0 L550 0 L550 144 L391 144 L512 436 L1144 436 L1265 144 L1106 144 L1106 0 L1596 0 L1596 144 L1437 144 L893 1434 Z M828 1198 L1084 580 L571 580 L828 1198 Z " />
<glyph glyph-name="uni0201" unicode="&#x201;" horiz-adv-x="1265" d="M288 1434 L80 1434 L388 1131 L560 1131 L288 1434 Z M564 1434 L356 1434 L664 1131 L835 1131 L564 1434 Z M844 0 L1165 0 L1165 132 L998 132 L998 591 C998 843 955 1026 598 1026 C357 1026 209 931 209 931 L273 813 C273 813 421 894 598 894 C815 894 840 798 844 650 C577 678 120 664 120 308 C120 88 276 -20 511 -20 C791 -20 841 172 844 181 L844 0 Z M278 308 C278 533 617 545 844 530 L844 431 C844 266 740 112 511 112 C346 112 278 199 278 308 L278 308 Z " />
<glyph glyph-name="uni0202" unicode="&#x202;" horiz-adv-x="1656" d="M828 1786 C529 1786 488 1539 488 1539 L609 1539 C609 1539 658 1665 828 1665 C998 1665 1047 1539 1047 1539 L1168 1539 C1168 1539 1127 1786 828 1786 L828 1786 Z M893 1434 L538 1434 L538 1290 L702 1290 L219 144 L60 144 L60 0 L550 0 L550 144 L391 144 L512 436 L1144 436 L1265 144 L1106 144 L1106 0 L1596 0 L1596 144 L1437 144 L893 1434 Z M828 1198 L1084 580 L571 580 L828 1198 Z " />
<glyph glyph-name="uni0203" unicode="&#x203;" horiz-adv-x="1225" d="M558 1434 C259 1434 218 1187 218 1187 L339 1187 C339 1187 388 1313 558 1313 C728 1313 777 1187 777 1187 L898 1187 C898 1187 857 1434 558 1434 L558 1434 Z M804 0 L1125 0 L1125 132 L958 132 L958 591 C958 843 915 1026 558 1026 C317 1026 169 931 169 931 L233 813 C233 813 381 894 558 894 C775 894 800 798 804 650 C537 678 80 664 80 308 C80 88 236 -20 471 -20 C751 -20 801 172 804 181 L804 0 Z M238 308 C238 533 577 545 804 530 L804 431 C804 266 700 112 471 112 C306 112 238 199 238 308 L238 308 Z " />
<glyph glyph-name="uni0204" unicode="&#x204;" horiz-adv-x="1368" d="M377 1824 L169 1824 L478 1519 L650 1519 L377 1824 Z M654 1824 L445 1824 L755 1519 L927 1519 L654 1824 Z M1076 1127 L1238 1127 L1238 1434 L120 1434 L120 1290 L284 1290 L284 144 L120 144 L120 0 L1248 0 L1248 307 L1086 307 L1086 144 L446 144 L446 661 L1081 661 L1081 805 L446 805 L446 1290 L1076 1290 L1076 1127 Z " />
<glyph glyph-name="uni0205" unicode="&#x205;" horiz-adv-x="1176" d="M287 1434 L80 1434 L388 1131 L559 1131 L287 1434 Z M563 1434 L355 1434 L663 1131 L835 1131 L563 1434 Z M611 112 C417 112 298 253 291 437 L1096 437 C1096 834 896 1026 611 1026 C307 1026 127 804 127 503 C127 202 307 -20 611 -20 C895 -20 1035 141 1035 141 L937 237 C937 237 794 112 611 112 L611 112 Z M291 569 C308 752 418 894 611 894 C805 894 916 753 932 569 L291 569 Z " />
<glyph glyph-name="uni0206" unicode="&#x206;" horiz-adv-x="1368" d="M697 1786 C398 1786 357 1539 357 1539 L478 1539 C478 1539 527 1665 697 1665 C867 1665 916 1539 916 1539 L1037 1539 C1037 1539 996 1786 697 1786 L697 1786 Z M1076 1127 L1238 1127 L1238 1434 L120 1434 L120 1290 L284 1290 L284 144 L120 144 L120 0 L1248 0 L1248 307 L1086 307 L1086 144 L446 144 L446 661 L1081 661 L1081 805 L446 805 L446 1290 L1076 1290 L1076 1127 Z " />
<glyph glyph-name="uni0207" unicode="&#x207;" horiz-adv-x="1129" d="M564 112 C370 112 251 253 244 437 L1049 437 C1049 834 849 1026 564 1026 C260 1026 80 804 80 503 C80 202 260 -20 564 -20 C848 -20 988 141 988 141 L890 237 C890 237 747 112 564 112 L564 112 Z M244 569 C261 752 371 894 564 894 C758 894 869 753 885 569 L244 569 Z M564 1434 C265 1434 224 1187 224 1187 L345 1187 C345 1187 394 1313 564 1313 C734 1313 783 1187 783 1187 L904 1187 C904 1187 863 1434 564 1434 L564 1434 Z " />
<glyph glyph-name="uni0208" unicode="&#x208;" horiz-adv-x="852" d="M117 1824 L-91 1824 L218 1519 L390 1519 L117 1824 Z M394 1824 L186 1824 L495 1519 L667 1519 L394 1824 Z M362 1290 L362 144 L198 144 L198 0 L688 0 L688 144 L524 144 L524 1290 L688 1290 L688 1434 L198 1434 L198 1290 L362 1290 Z " />
<glyph glyph-name="uni0209" unicode="&#x209;" horiz-adv-x="719" d="M75 1434 L-133 1434 L175 1131 L346 1131 L75 1434 Z M350 1434 L143 1434 L451 1131 L622 1131 L350 1434 Z M474 1006 L153 1006 L153 874 L320 874 L320 132 L153 132 L153 0 L641 0 L641 132 L474 132 L474 1006 Z " />
<glyph glyph-name="uni020A" unicode="&#x20a;" horiz-adv-x="840" d="M420 1786 C121 1786 80 1539 80 1539 L201 1539 C201 1539 250 1665 420 1665 C590 1665 639 1539 639 1539 L760 1539 C760 1539 719 1786 420 1786 L420 1786 Z M339 1290 L339 144 L175 144 L175 0 L665 0 L665 144 L501 144 L501 1290 L665 1290 L665 1434 L175 1434 L175 1290 L339 1290 Z " />
<glyph glyph-name="uni020B" unicode="&#x20b;" horiz-adv-x="800" d="M400 1434 C101 1434 60 1187 60 1187 L181 1187 C181 1187 230 1313 400 1313 C570 1313 619 1187 619 1187 L740 1187 C740 1187 699 1434 400 1434 L400 1434 Z M477 1006 L156 1006 L156 874 L323 874 L323 132 L156 132 L156 0 L644 0 L644 132 L477 132 L477 1006 Z " />
<glyph glyph-name="uni020C" unicode="&#x20c;" horiz-adv-x="1614" d="M489 1824 L280 1824 L590 1519 L762 1519 L489 1824 Z M766 1824 L557 1824 L867 1519 L1039 1519 L766 1824 Z M100 717 C100 315 347 -20 807 -20 C1267 -20 1514 315 1514 717 C1514 1119 1267 1454 807 1454 C347 1454 100 1119 100 717 L100 717 Z M1348 717 C1348 391 1172 124 807 124 C442 124 266 391 266 717 C266 1043 442 1310 807 1310 C1172 1310 1348 1043 1348 717 L1348 717 Z " />
<glyph glyph-name="uni020D" unicode="&#x20d;" horiz-adv-x="1218" d="M287 1427 L80 1427 L388 1124 L559 1124 L287 1427 Z M563 1427 L355 1427 L663 1124 L835 1124 L563 1427 Z M614 1026 C290 1026 90 806 90 503 C90 200 290 -20 614 -20 C938 -20 1138 200 1138 503 C1138 806 938 1026 614 1026 L614 1026 Z M978 503 C978 283 855 112 614 112 C373 112 250 283 250 503 C250 723 373 894 614 894 C855 894 978 723 978 503 L978 503 Z " />
<glyph glyph-name="uni020E" unicode="&#x20e;" horiz-adv-x="1614" d="M100 717 C100 315 347 -20 807 -20 C1267 -20 1514 315 1514 717 C1514 1119 1267 1454 807 1454 C347 1454 100 1119 100 717 L100 717 Z M1348 717 C1348 391 1172 124 807 124 C442 124 266 391 266 717 C266 1043 442 1310 807 1310 C1172 1310 1348 1043 1348 717 L1348 717 Z M807 1786 C508 1786 467 1539 467 1539 L588 1539 C588 1539 637 1665 807 1665 C977 1665 1026 1539 1026 1539 L1147 1539 C1147 1539 1106 1786 807 1786 L807 1786 Z " />
<glyph glyph-name="uni020F" unicode="&#x20f;" horiz-adv-x="1208" d="M604 1026 C280 1026 80 806 80 503 C80 200 280 -20 604 -20 C928 -20 1128 200 1128 503 C1128 806 928 1026 604 1026 L604 1026 Z M968 503 C968 283 845 112 604 112 C363 112 240 283 240 503 C240 723 363 894 604 894 C845 894 968 723 968 503 L968 503 Z M604 1434 C305 1434 264 1187 264 1187 L385 1187 C385 1187 434 1313 604 1313 C774 1313 823 1187 823 1187 L944 1187 C944 1187 903 1434 604 1434 L604 1434 Z " />
<glyph glyph-name="uni0210" unicode="&#x210;" horiz-adv-x="1496" d="M398 1824 L189 1824 L498 1519 L670 1519 L398 1824 Z M674 1824 L466 1824 L775 1519 L947 1519 L674 1824 Z M284 1290 L284 144 L120 144 L120 0 L610 0 L610 144 L446 144 L446 602 L824 602 L1138 0 L1396 0 L1396 144 L1232 144 L990 608 C1210 644 1353 795 1353 1018 C1353 1270 1185 1434 910 1434 L120 1434 L120 1290 L284 1290 Z M910 1290 C1102 1290 1189 1176 1189 1018 C1189 860 1102 746 910 746 L446 746 L446 1290 L910 1290 Z " />
<glyph glyph-name="uni0211" unicode="&#x211;" horiz-adv-x="1073" d="M307 1434 L100 1434 L408 1131 L579 1131 L307 1434 Z M583 1434 L375 1434 L683 1131 L855 1131 L583 1434 Z M199 1006 L199 874 L366 874 L366 132 L199 132 L199 0 L687 0 L687 132 L520 132 L520 559 C520 756 606 894 812 894 C902 894 968 856 968 856 L1043 976 C1043 976 962 1026 811 1026 C582 1026 523 842 520 833 L520 1006 L199 1006 Z " />
<glyph glyph-name="uni0212" unicode="&#x212;" horiz-adv-x="1496" d="M702 1786 C403 1786 362 1539 362 1539 L483 1539 C483 1539 532 1665 702 1665 C872 1665 921 1539 921 1539 L1042 1539 C1042 1539 1001 1786 702 1786 L702 1786 Z M284 1290 L284 144 L120 144 L120 0 L610 0 L610 144 L446 144 L446 602 L824 602 L1138 0 L1396 0 L1396 144 L1232 144 L990 608 C1210 644 1353 795 1353 1018 C1353 1270 1185 1434 910 1434 L120 1434 L120 1290 L284 1290 Z M910 1290 C1102 1290 1189 1176 1189 1018 C1189 860 1102 746 910 746 L446 746 L446 1290 L910 1290 Z " />
<glyph glyph-name="uni0213" unicode="&#x213;" horiz-adv-x="974" d="M535 1434 C243 1434 197 1188 197 1188 L318 1188 C369 1292 454 1313 535 1313 C617 1313 702 1292 753 1188 L874 1188 C874 1188 828 1434 535 1434 L535 1434 Z M100 1006 L100 874 L267 874 L267 132 L100 132 L100 0 L588 0 L588 132 L421 132 L421 559 C421 756 507 894 713 894 C803 894 869 856 869 856 L944 976 C944 976 863 1026 712 1026 C483 1026 424 842 421 833 L421 1006 L100 1006 Z " />
<glyph glyph-name="uni0214" unicode="&#x214;" horiz-adv-x="1720" d="M535 1824 L326 1824 L635 1519 L808 1519 L535 1824 Z M811 1824 L603 1824 L912 1519 L1084 1519 L811 1824 Z M446 614 L446 1290 L610 1290 L610 1434 L120 1434 L120 1290 L284 1290 L284 614 C284 205 481 -20 860 -20 C1239 -20 1436 205 1436 614 L1436 1290 L1600 1290 L1600 1434 L1110 1434 L1110 1290 L1274 1290 L1274 614 C1274 290 1146 124 860 124 C574 124 446 290 446 614 L446 614 Z " />
<glyph glyph-name="uni0215" unicode="&#x215;" horiz-adv-x="1424" d="M386 1434 L178 1434 L486 1131 L658 1131 L386 1434 Z M662 1434 L454 1434 L762 1131 L933 1131 L662 1434 Z M421 1006 L100 1006 L100 874 L267 874 L267 447 C267 153 423 -20 712 -20 C941 -20 1000 164 1003 173 L1003 0 L1324 0 L1324 132 L1157 132 L1157 1006 L836 1006 L836 874 L1003 874 L1003 447 C1003 250 917 112 712 112 C507 112 421 250 421 447 L421 1006 Z " />
<glyph glyph-name="uni0216" unicode="&#x216;" horiz-adv-x="1720" d="M860 1786 C561 1786 520 1539 520 1539 L641 1539 C641 1539 690 1665 860 1665 C1030 1665 1079 1539 1079 1539 L1200 1539 C1200 1539 1159 1786 860 1786 L860 1786 Z M446 614 L446 1290 L610 1290 L610 1434 L120 1434 L120 1290 L284 1290 L284 614 C284 205 481 -20 860 -20 C1239 -20 1436 205 1436 614 L1436 1290 L1600 1290 L1600 1434 L1110 1434 L1110 1290 L1274 1290 L1274 614 C1274 290 1146 124 860 124 C574 124 446 290 446 614 L446 614 Z " />
<glyph glyph-name="uni0217" unicode="&#x217;" horiz-adv-x="1424" d="M712 1434 C413 1434 372 1187 372 1187 L493 1187 C493 1187 542 1313 712 1313 C882 1313 931 1187 931 1187 L1052 1187 C1052 1187 1011 1434 712 1434 L712 1434 Z M421 1006 L100 1006 L100 874 L267 874 L267 447 C267 153 423 -20 712 -20 C941 -20 1000 164 1003 173 L1003 0 L1324 0 L1324 132 L1157 132 L1157 1006 L836 1006 L836 874 L1003 874 L1003 447 C1003 250 917 112 712 112 C507 112 421 250 421 447 L421 1006 Z " />
<glyph glyph-name="Scommaaccent" unicode="&#x218;" horiz-adv-x="1348" d="M423 -532 L570 -532 L768 -96 L590 -96 L423 -532 Z M977 1127 L1139 1127 L1139 1376 C1139 1376 955 1454 663 1454 C343 1454 171 1304 171 1083 C171 867 336 743 668 666 C948 601 1044 521 1044 375 C1044 215 941 124 680 124 C428 124 302 199 302 199 L302 307 L140 307 L140 123 C140 123 292 -20 680 -20 C1022 -20 1208 115 1208 375 C1208 627 1031 744 696 822 C450 880 335 946 335 1083 C335 1239 469 1310 663 1310 C870 1310 977 1274 977 1274 L977 1127 Z " />
<glyph glyph-name="scommaaccent" unicode="&#x219;" horiz-adv-x="1025" d="M260 -532 L406 -532 L604 -98 L426 -98 L260 -532 Z M716 714 L870 714 L870 966 C870 966 721 1026 497 1026 C233 1026 112 900 112 750 C112 598 216 508 496 454 C692 418 767 377 767 273 C767 165 667 112 523 112 C358 112 254 163 254 163 L254 292 L100 292 L100 90 C100 90 222 -20 523 -20 C758 -20 925 79 925 273 C925 466 789 537 523 589 C339 623 270 666 270 750 C270 834 327 894 497 894 C608 894 716 868 716 868 L716 714 Z " />
<glyph glyph-name="uni021A" unicode="&#x21a;" horiz-adv-x="1470" d="M483 -532 L630 -532 L828 -96 L650 -96 L483 -532 Z M1188 1127 L1350 1127 L1350 1434 L120 1434 L120 1127 L282 1127 L282 1290 L654 1290 L654 144 L490 144 L490 0 L980 0 L980 144 L816 144 L816 1290 L1188 1290 L1188 1127 Z " />
<glyph glyph-name="uni021B" unicode="&#x21b;" horiz-adv-x="810" d="M271 -532 L417 -532 L614 -98 L437 -98 L271 -532 Z M60 874 L265 874 L265 441 C265 134 300 -20 583 -20 C681 -20 750 6 750 6 L710 132 C710 132 640 112 583 112 C428 112 419 221 419 441 L419 874 L719 874 L719 1006 L419 1006 L419 1300 L265 1300 L265 1006 L60 1006 L60 874 Z " />
<glyph glyph-name="uni021E" unicode="&#x21e;" horiz-adv-x="1688" d="M1174 1842 L1017 1842 L844 1662 L672 1842 L514 1842 L795 1518 L894 1518 L1174 1842 Z M284 1290 L284 144 L120 144 L120 0 L610 0 L610 144 L446 144 L446 661 L1242 661 L1242 144 L1078 144 L1078 0 L1568 0 L1568 144 L1404 144 L1404 1290 L1568 1290 L1568 1434 L1078 1434 L1078 1290 L1242 1290 L1242 805 L446 805 L446 1290 L610 1290 L610 1434 L120 1434 L120 1290 L284 1290 Z " />
<glyph glyph-name="uni021F" unicode="&#x21f;" horiz-adv-x="1424" d="M663 1519 L761 1519 L1042 1843 L884 1843 L712 1663 L540 1843 L382 1843 L663 1519 Z M1003 559 L1003 0 L1324 0 L1324 132 L1157 132 L1157 559 C1157 853 1001 1026 712 1026 C483 1026 424 842 421 833 L421 1516 L100 1516 L100 1384 L267 1384 L267 132 L100 132 L100 0 L588 0 L588 132 L421 132 L421 559 C421 756 507 894 712 894 C917 894 1003 756 1003 559 L1003 559 Z " />
<glyph glyph-name="uni0224" unicode="&#x224;" horiz-adv-x="1324" d="M1200 1434 L131 1434 L131 1127 L293 1127 L293 1290 L969 1290 L120 91 L120 0 L1042 0 C980 -20 903 -79 906 -189 C911 -347 1079 -390 1201 -377 L1201 -239 C1143 -239 1043 -235 1043 -146 C1043 -35 1188 -3 1204 0 L1204 307 L1042 307 L1042 144 L351 144 L1200 1343 L1200 1434 Z " />
<glyph glyph-name="uni0225" unicode="&#x225;" horiz-adv-x="1053" d="M123 714 L277 714 L277 874 L723 874 L100 78 L100 0 L799 0 C737 -20 652 -79 655 -189 C660 -347 828 -390 950 -377 L950 -239 C892 -239 792 -235 792 -146 C792 -35 937 -3 953 0 L953 292 L799 292 L799 132 L330 132 L953 928 L953 1006 L123 1006 L123 714 Z " />
<glyph glyph-name="uni0226" unicode="&#x226;" horiz-adv-x="1656" d="M725 1641 C725 1584 772 1539 828 1539 C884 1539 931 1584 931 1641 C931 1697 884 1743 828 1743 C772 1743 725 1697 725 1641 L725 1641 Z M893 1434 L538 1434 L538 1290 L702 1290 L219 144 L60 144 L60 0 L550 0 L550 144 L391 144 L512 436 L1144 436 L1265 144 L1106 144 L1106 0 L1596 0 L1596 144 L1437 144 L893 1434 Z M828 1198 L1084 580 L571 580 L828 1198 Z " />
<glyph glyph-name="uni0227" unicode="&#x227;" horiz-adv-x="1225" d="M467 1285 C467 1228 514 1183 570 1183 C626 1183 673 1228 673 1285 C673 1341 626 1387 570 1387 C514 1387 467 1341 467 1285 L467 1285 Z M804 0 L1125 0 L1125 132 L958 132 L958 591 C958 843 915 1026 558 1026 C317 1026 169 931 169 931 L233 813 C233 813 381 894 558 894 C775 894 800 798 804 650 C537 678 80 664 80 308 C80 88 236 -20 471 -20 C751 -20 801 172 804 181 L804 0 Z M238 308 C238 533 577 545 804 530 L804 431 C804 266 700 112 471 112 C306 112 238 199 238 308 L238 308 Z " />
<glyph glyph-name="uni0228" unicode="&#x228;" horiz-adv-x="1368" d="M1076 1127 L1238 1127 L1238 1434 L120 1434 L120 1290 L284 1290 L284 144 L120 144 L120 0 L634 0 L559 -213 C620 -205 805 -171 791 -276 C783 -332 739 -349 687 -349 C605 -349 540 -318 540 -318 L486 -415 C486 -415 559 -463 681 -463 C803 -463 901 -407 915 -278 C923 -165 839 -105 728 -103 L764 0 L1248 0 L1248 307 L1086 307 L1086 144 L446 144 L446 661 L1191 661 L1191 805 L446 805 L446 1290 L1076 1290 L1076 1127 Z " />
<glyph glyph-name="uni0229" unicode="&#x229;" horiz-adv-x="1129" d="M347 -415 C347 -415 420 -463 542 -463 C664 -463 762 -407 776 -278 C784 -165 700 -105 589 -103 L619 -18 C866 0 988 141 988 141 L890 237 C890 237 747 112 564 112 C370 112 251 253 244 437 L1049 437 C1049 834 849 1026 564 1026 C260 1026 80 804 80 503 C80 227 231 17 490 -15 L420 -213 C481 -205 666 -171 652 -276 C644 -332 600 -349 548 -349 C466 -349 401 -318 401 -318 L347 -415 Z M244 569 C261 752 371 894 564 894 C758 894 869 753 885 569 L244 569 Z " />
<glyph glyph-name="uni022A" unicode="&#x22a;" horiz-adv-x="1614" d="M455 1808 L1159 1808 L1159 1940 L455 1940 L455 1808 Z M100 717 C100 315 347 -20 807 -20 C1267 -20 1514 315 1514 717 C1514 1119 1267 1454 807 1454 C347 1454 100 1119 100 717 L100 717 Z M1348 717 C1348 391 1172 124 807 124 C442 124 266 391 266 717 C266 1043 442 1310 807 1310 C1172 1310 1348 1043 1348 717 L1348 717 Z M519 1641 C519 1584 566 1539 622 1539 C678 1539 725 1584 725 1641 C725 1697 678 1743 622 1743 C566 1743 519 1697 519 1641 L519 1641 Z M889 1641 C889 1584 936 1539 992 1539 C1048 1539 1095 1584 1095 1641 C1095 1697 1048 1743 992 1743 C936 1743 889 1697 889 1641 L889 1641 Z " />
<glyph glyph-name="uni022B" unicode="&#x22b;" horiz-adv-x="1208" d="M319 1285 C319 1228 365 1182 421 1182 C477 1182 523 1228 523 1285 C523 1341 477 1387 421 1387 C365 1387 319 1341 319 1285 L319 1285 Z M686 1285 C686 1228 732 1182 788 1182 C844 1182 891 1228 891 1285 C891 1341 844 1387 788 1387 C732 1387 686 1341 686 1285 L686 1285 Z M255 1460 L955 1460 L955 1592 L255 1592 L255 1460 Z M604 1026 C280 1026 80 806 80 503 C80 200 280 -20 604 -20 C928 -20 1128 200 1128 503 C1128 806 928 1026 604 1026 L604 1026 Z M968 503 C968 283 845 112 604 112 C363 112 240 283 240 503 C240 723 363 894 604 894 C845 894 968 723 968 503 L968 503 Z " />
<glyph glyph-name="uni022C" unicode="&#x22c;" horiz-adv-x="1614" d="M455 1832 L1159 1832 L1159 1964 L455 1964 L455 1832 Z M100 717 C100 315 347 -20 807 -20 C1267 -20 1514 315 1514 717 C1514 1119 1267 1454 807 1454 C347 1454 100 1119 100 717 L100 717 Z M1348 717 C1348 391 1172 124 807 124 C442 124 266 391 266 717 C266 1043 442 1310 807 1310 C1172 1310 1348 1043 1348 717 L1348 717 Z M762 1604 C796 1568 831 1519 913 1519 C1101 1519 1101 1739 1101 1739 L956 1739 C956 1739 954 1656 913 1656 C893 1656 877 1676 852 1703 C818 1739 783 1788 701 1788 C513 1788 513 1568 513 1568 L658 1568 C658 1568 660 1651 701 1651 C721 1651 737 1631 762 1604 L762 1604 Z " />
<glyph glyph-name="uni022D" unicode="&#x22d;" horiz-adv-x="1208" d="M255 1460 L955 1460 L955 1592 L255 1592 L255 1460 Z M604 1026 C280 1026 80 806 80 503 C80 200 280 -20 604 -20 C928 -20 1128 200 1128 503 C1128 806 928 1026 604 1026 L604 1026 Z M968 503 C968 283 845 112 604 112 C363 112 240 283 240 503 C240 723 363 894 604 894 C845 894 968 723 968 503 L968 503 Z M559 1199 C593 1163 628 1114 710 1114 C898 1114 898 1334 898 1334 L753 1334 C753 1334 751 1251 710 1251 C690 1251 674 1271 649 1298 C615 1334 580 1383 498 1383 C310 1383 310 1163 310 1163 L455 1163 C455 1163 457 1246 498 1246 C518 1246 534 1226 559 1199 L559 1199 Z " />
<glyph glyph-name="uni022E" unicode="&#x22e;" horiz-adv-x="1614" d="M100 717 C100 315 347 -20 807 -20 C1267 -20 1514 315 1514 717 C1514 1119 1267 1454 807 1454 C347 1454 100 1119 100 717 L100 717 Z M1348 717 C1348 391 1172 124 807 124 C442 124 266 391 266 717 C266 1043 442 1310 807 1310 C1172 1310 1348 1043 1348 717 L1348 717 Z M704 1641 C704 1584 751 1539 807 1539 C863 1539 910 1584 910 1641 C910 1697 863 1743 807 1743 C751 1743 704 1697 704 1641 L704 1641 Z " />
<glyph glyph-name="uni022F" unicode="&#x22f;" horiz-adv-x="1208" d="M604 1026 C280 1026 80 806 80 503 C80 200 280 -20 604 -20 C928 -20 1128 200 1128 503 C1128 806 928 1026 604 1026 L604 1026 Z M968 503 C968 283 845 112 604 112 C363 112 240 283 240 503 C240 723 363 894 604 894 C845 894 968 723 968 503 L968 503 Z M501 1285 C501 1228 548 1183 604 1183 C660 1183 707 1228 707 1285 C707 1341 660 1387 604 1387 C548 1387 501 1341 501 1285 L501 1285 Z " />
<glyph glyph-name="uni0230" unicode="&#x230;" horiz-adv-x="1614" d="M455 1808 L1159 1808 L1159 1940 L455 1940 L455 1808 Z M100 717 C100 315 347 -20 807 -20 C1267 -20 1514 315 1514 717 C1514 1119 1267 1454 807 1454 C347 1454 100 1119 100 717 L100 717 Z M1348 717 C1348 391 1172 124 807 124 C442 124 266 391 266 717 C266 1043 442 1310 807 1310 C1172 1310 1348 1043 1348 717 L1348 717 Z M704 1641 C704 1584 751 1539 807 1539 C863 1539 910 1584 910 1641 C910 1697 863 1743 807 1743 C751 1743 704 1697 704 1641 L704 1641 Z " />
<glyph glyph-name="uni0231" unicode="&#x231;" horiz-adv-x="1208" d="M255 1460 L955 1460 L955 1592 L255 1592 L255 1460 Z M604 1026 C280 1026 80 806 80 503 C80 200 280 -20 604 -20 C928 -20 1128 200 1128 503 C1128 806 928 1026 604 1026 L604 1026 Z M968 503 C968 283 845 112 604 112 C363 112 240 283 240 503 C240 723 363 894 604 894 C845 894 968 723 968 503 L968 503 Z M501 1285 C501 1228 548 1183 604 1183 C660 1183 707 1228 707 1285 C707 1341 660 1387 604 1387 C548 1387 501 1341 501 1285 L501 1285 Z " />
<glyph glyph-name="uni0232" unicode="&#x232;" horiz-adv-x="1508" d="M403 1519 L1106 1519 L1106 1652 L403 1652 L403 1519 Z M673 597 L673 144 L509 144 L509 0 L999 0 L999 144 L835 144 L835 597 L1297 1290 L1448 1290 L1448 1434 L958 1434 L958 1290 L1107 1290 L754 760 L401 1290 L550 1290 L550 1434 L60 1434 L60 1290 L211 1290 L673 597 Z " />
<glyph glyph-name="uni0233" unicode="&#x233;" horiz-adv-x="1408" d="M354 1302 L1054 1302 L1054 1434 L354 1434 L354 1302 Z M704 186 L429 874 L588 874 L588 1006 L100 1006 L100 874 L260 874 L625 0 L521 -254 C484 -340 456 -400 323 -400 L215 -400 L215 -532 L340 -532 C511 -532 587 -464 654 -308 L1148 874 L1308 874 L1308 1006 L820 1006 L820 874 L979 874 L704 186 Z " />
<glyph glyph-name="uni0238" unicode="&#x238;" horiz-adv-x="2026" d="M1090 805 L1090 1384 L1257 1384 L1257 1516 L769 1516 L769 1384 L936 1384 L936 805 C931 816 838 1026 588 1026 C248 1026 80 784 80 503 C80 222 248 -20 588 -20 C838 -20 931 190 936 200 L936 0 L1090 0 L1090 200 C1094 190 1187 -20 1438 -20 C1778 -20 1946 222 1946 503 C1946 784 1778 1026 1438 1026 C1187 1026 1094 816 1090 805 L1090 805 Z M588 894 C817 894 936 712 936 503 C936 294 817 112 588 112 C359 112 240 294 240 503 C240 712 359 894 588 894 L588 894 Z M1438 894 C1667 894 1786 712 1786 503 C1786 294 1667 112 1438 112 C1209 112 1090 294 1090 503 C1090 712 1209 894 1438 894 L1438 894 Z " />
<glyph glyph-name="uni0239" unicode="&#x239;" horiz-adv-x="2026" d="M936 1006 L936 806 C931 816 838 1026 588 1026 C248 1026 80 784 80 503 C80 222 248 -20 588 -20 C838 -20 931 190 936 200 L936 -400 L769 -400 L769 -532 L1257 -532 L1257 -400 L1090 -400 L1090 201 C1094 190 1187 -20 1438 -20 C1778 -20 1946 222 1946 503 C1946 784 1778 1026 1438 1026 C1187 1026 1094 816 1090 806 L1090 1006 L936 1006 Z M588 112 C359 112 240 294 240 503 C240 712 359 894 588 894 C817 894 936 712 936 503 C936 294 817 112 588 112 L588 112 Z M1438 112 C1209 112 1090 294 1090 503 C1090 712 1209 894 1438 894 C1667 894 1786 712 1786 503 C1786 294 1667 112 1438 112 L1438 112 Z " />
<glyph glyph-name="uni024C" unicode="&#x24c;" horiz-adv-x="1587" d="M375 1290 L375 746 L120 746 L120 602 L375 602 L375 144 L211 144 L211 0 L701 0 L701 144 L537 144 L537 602 L915 602 L1229 0 L1487 0 L1487 144 L1323 144 L1081 608 C1301 644 1444 795 1444 1018 C1444 1270 1276 1434 1001 1434 L211 1434 L211 1290 L375 1290 Z M1001 1290 C1193 1290 1280 1176 1280 1018 C1280 860 1193 746 1001 746 L537 746 L537 1290 L1001 1290 Z " />
<glyph glyph-name="uni024D" unicode="&#x24d;" horiz-adv-x="1009" d="M135 1006 L135 874 L302 874 L302 520 L100 520 L100 388 L302 388 L302 132 L135 132 L135 0 L623 0 L623 132 L456 132 L456 388 L658 388 L658 520 L456 520 L456 559 C456 756 542 894 748 894 C838 894 904 856 904 856 L979 976 C979 976 898 1026 747 1026 C518 1026 459 842 456 833 L456 1006 L135 1006 Z " />
<glyph glyph-name="uni024E" unicode="&#x24e;" horiz-adv-x="1508" d="M673 597 L673 144 L509 144 L509 0 L999 0 L999 144 L835 144 L835 597 L1093 985 L1313 985 L1313 1129 L1189 1129 L1297 1290 L1448 1290 L1448 1434 L958 1434 L958 1290 L1107 1290 L1000 1129 L508 1129 L401 1290 L550 1290 L550 1434 L60 1434 L60 1290 L211 1290 L318 1129 L195 1129 L195 985 L414 985 L673 597 Z M604 985 L904 985 L754 760 L604 985 Z " />
<glyph glyph-name="uni024F" unicode="&#x24f;" horiz-adv-x="1408" d="M147 469 L429 469 L625 0 L521 -254 C484 -340 456 -400 323 -400 L215 -400 L215 -532 L340 -532 C511 -532 587 -464 654 -308 L978 469 L1261 469 L1261 600 L1033 600 L1148 874 L1308 874 L1308 1006 L820 1006 L820 874 L979 874 L869 600 L538 600 L429 874 L588 874 L588 1006 L100 1006 L100 874 L260 874 L374 600 L147 600 L147 469 Z M704 186 L591 469 L817 469 L704 186 Z " />
<glyph glyph-name="circumflex" unicode="&#x2c6;" horiz-adv-x="860" d="M100 1110 L258 1110 L430 1290 L602 1110 L760 1110 L479 1434 L381 1434 L100 1110 Z " />
<glyph glyph-name="caron" unicode="&#x2c7;" horiz-adv-x="820" d="M361 1110 L459 1110 L740 1434 L582 1434 L410 1254 L238 1434 L80 1434 L361 1110 Z " />
<glyph glyph-name="uni02C8" unicode="&#x2c8;" horiz-adv-x="355" d="M100 1034 L255 1034 L255 1434 L100 1434 L100 1034 Z " />
<glyph glyph-name="uni02C9" unicode="&#x2c9;" horiz-adv-x="943" d="M120 1301 L823 1301 L823 1434 L120 1434 L120 1301 Z " />
<glyph glyph-name="uni02CA" unicode="&#x2ca;" horiz-adv-x="682" d="M100 1129 L272 1129 L582 1434 L373 1434 L100 1129 Z " />
<glyph glyph-name="uni02CB" unicode="&#x2cb;" horiz-adv-x="682" d="M309 1434 L100 1434 L409 1129 L582 1129 L309 1434 Z " />
<glyph glyph-name="uni02CC" unicode="&#x2cc;" horiz-adv-x="355" d="M100 -532 L255 -532 L255 -133 L100 -133 L100 -532 Z " />
<glyph glyph-name="uni02CD" unicode="&#x2cd;" horiz-adv-x="904" d="M100 -532 L804 -532 L804 -400 L100 -400 L100 -532 Z " />
<glyph glyph-name="uni02CE" unicode="&#x2ce;" horiz-adv-x="682" d="M309 -228 L100 -228 L409 -532 L582 -532 L309 -228 Z " />
<glyph glyph-name="uni02CF" unicode="&#x2cf;" horiz-adv-x="682" d="M100 -532 L272 -532 L582 -228 L373 -228 L100 -532 Z " />
<glyph glyph-name="uni02D0" unicode="&#x2d0;" horiz-adv-x="565" d="M100 1006 L283 683 L465 1006 L100 1006 Z M465 0 L283 322 L100 0 L465 0 Z " />
<glyph glyph-name="uni02D1" unicode="&#x2d1;" horiz-adv-x="565" d="M100 1006 L283 683 L465 1006 L100 1006 Z " />
<glyph glyph-name="uni02D2" unicode="&#x2d2;" horiz-adv-x="485" d="M246 763 C246 820 286 880 385 880 L385 1011 C213 1011 100 898 100 763 C100 629 213 516 385 516 L385 647 C286 647 246 707 246 763 L246 763 Z " />
<glyph glyph-name="uni02D3" unicode="&#x2d3;" horiz-adv-x="485" d="M240 763 C240 707 199 647 100 647 L100 516 C272 516 385 629 385 763 C385 898 272 1011 100 1011 L100 880 C199 880 240 820 240 763 L240 763 Z " />
<glyph glyph-name="uni02D4" unicode="&#x2d4;" horiz-adv-x="867" d="M100 569 L767 569 L767 714 L515 714 L515 1006 L353 1006 L353 714 L100 714 L100 569 Z " />
<glyph glyph-name="uni02D5" unicode="&#x2d5;" horiz-adv-x="867" d="M100 292 L353 292 L353 0 L515 0 L515 292 L767 292 L767 437 L100 437 L100 292 Z " />
<glyph glyph-name="uni02D6" unicode="&#x2d6;" horiz-adv-x="1007" d="M170 554 L422 554 L422 268 L584 268 L584 554 L837 554 L837 711 L584 711 L584 997 L422 997 L422 711 L170 711 L170 554 Z " />
<glyph glyph-name="uni02D7" unicode="&#x2d7;" horiz-adv-x="867" d="M100 554 L767 554 L767 711 L100 711 L100 554 Z " />
<glyph glyph-name="breve" unicode="&#x2d8;" horiz-adv-x="840" d="M420 1187 C719 1187 760 1434 760 1434 L639 1434 C639 1434 590 1308 420 1308 C250 1308 201 1434 201 1434 L80 1434 C80 1434 121 1187 420 1187 L420 1187 Z " />
<glyph glyph-name="dotaccent" unicode="&#x2d9;" horiz-adv-x="326" d="M60 1291 C60 1234 106 1188 163 1188 C219 1188 266 1234 266 1291 C266 1347 219 1393 163 1393 C106 1393 60 1347 60 1291 L60 1291 Z " />
<glyph glyph-name="ring" unicode="&#x2da;" horiz-adv-x="582" d="M100 1297 C100 1194 188 1106 291 1106 C394 1106 482 1194 482 1297 C482 1401 394 1488 291 1488 C188 1488 100 1401 100 1297 L100 1297 Z M211 1297 C211 1341 246 1377 291 1377 C336 1377 371 1341 371 1297 C371 1252 336 1217 291 1217 C246 1217 211 1252 211 1297 L211 1297 Z " />
<glyph glyph-name="ogonek" unicode="&#x2db;" horiz-adv-x="459" d="M217 0 C155 -20 78 -79 81 -189 C86 -347 254 -390 376 -377 L376 -239 C318 -239 218 -235 218 -146 C218 -35 363 -3 379 0 L217 0 Z " />
<glyph glyph-name="tilde" unicode="&#x2dc;" horiz-adv-x="788" d="M349 1250 C383 1214 418 1165 500 1165 C688 1165 688 1385 688 1385 L543 1385 C543 1385 541 1302 500 1302 C480 1302 464 1322 439 1349 C405 1385 370 1434 288 1434 C100 1434 100 1214 100 1214 L245 1214 C245 1214 247 1297 288 1297 C308 1297 324 1277 349 1250 L349 1250 Z " />
<glyph glyph-name="hungarumlaut" unicode="&#x2dd;" horiz-adv-x="748" d="M347 1086 L489 1086 L648 1434 L473 1434 L347 1086 Z M100 1086 L241 1086 L401 1434 L226 1434 L100 1086 Z " />
<glyph glyph-name="gravecomb" unicode="&#x300;" horiz-adv-x="721" d="M328 1434 L120 1434 L429 1129 L601 1129 L328 1434 Z " />
<glyph glyph-name="acutecomb" unicode="&#x301;" horiz-adv-x="721" d="M120 1129 L292 1129 L601 1434 L393 1434 L120 1129 Z " />
<glyph glyph-name="uni0302" unicode="&#x302;" horiz-adv-x="860" d="M100 1110 L258 1110 L430 1290 L602 1110 L760 1110 L479 1434 L381 1434 L100 1110 Z " />
<glyph glyph-name="tildecomb" unicode="&#x303;" horiz-adv-x="828" d="M369 1250 C403 1214 438 1165 520 1165 C708 1165 708 1385 708 1385 L563 1385 C563 1385 561 1302 520 1302 C500 1302 484 1322 459 1349 C425 1385 390 1434 308 1434 C120 1434 120 1214 120 1214 L265 1214 C265 1214 267 1297 308 1297 C328 1297 344 1277 369 1250 L369 1250 Z " />
<glyph glyph-name="uni0304" unicode="&#x304;" horiz-adv-x="904" d="M100 1301 L804 1301 L804 1434 L100 1434 L100 1301 Z " />
<glyph glyph-name="uni0305" unicode="&#x305;" horiz-adv-x="1086" d="M100 1301 L986 1301 L986 1434 L100 1434 L100 1301 Z " />
<glyph glyph-name="uni0306" unicode="&#x306;" horiz-adv-x="880" d="M440 1187 C739 1187 780 1434 780 1434 L659 1434 C659 1434 610 1308 440 1308 C270 1308 221 1434 221 1434 L100 1434 C100 1434 141 1187 440 1187 L440 1187 Z " />
<glyph glyph-name="uni0307" unicode="&#x307;" horiz-adv-x="406" d="M100 1285 C100 1228 147 1183 203 1183 C259 1183 306 1228 306 1285 C306 1341 259 1387 203 1387 C147 1387 100 1341 100 1285 L100 1285 Z " />
<glyph glyph-name="uni0308" unicode="&#x308;" horiz-adv-x="776" d="M100 1285 C100 1228 147 1183 203 1183 C259 1183 306 1228 306 1285 C306 1341 259 1387 203 1387 C147 1387 100 1341 100 1285 L100 1285 Z M470 1285 C470 1228 517 1183 573 1183 C629 1183 676 1228 676 1285 C676 1341 629 1387 573 1387 C517 1387 470 1341 470 1285 L470 1285 Z " />
<glyph glyph-name="hookabovecomb" unicode="&#x309;" horiz-adv-x="600" d="M120 1110 C219 1110 480 1133 480 1434 L332 1434 C332 1261 185 1249 120 1249 L120 1110 Z " />
<glyph glyph-name="uni030A" unicode="&#x30a;" horiz-adv-x="582" d="M100 1297 C100 1194 188 1106 291 1106 C394 1106 482 1194 482 1297 C482 1401 394 1488 291 1488 C188 1488 100 1401 100 1297 L100 1297 Z M211 1297 C211 1341 246 1377 291 1377 C336 1377 371 1341 371 1297 C371 1252 336 1217 291 1217 C246 1217 211 1252 211 1297 L211 1297 Z " />
<glyph glyph-name="uni030B" unicode="&#x30b;" horiz-adv-x="800" d="M100 998 L247 998 L445 1434 L267 1434 L100 998 Z M355 998 L502 998 L700 1434 L522 1434 L355 998 Z " />
<glyph glyph-name="uni030C" unicode="&#x30c;" horiz-adv-x="860" d="M381 1110 L479 1110 L760 1434 L602 1434 L430 1254 L258 1434 L100 1434 L381 1110 Z " />
<glyph glyph-name="uni030D" unicode="&#x30d;" horiz-adv-x="355" d="M100 1034 L255 1034 L255 1434 L100 1434 L100 1034 Z " />
<glyph glyph-name="uni030E" unicode="&#x30e;" horiz-adv-x="580" d="M100 1034 L255 1034 L255 1434 L100 1434 L100 1034 Z M325 1034 L480 1034 L480 1434 L325 1434 L325 1034 Z " />
<glyph glyph-name="uni030F" unicode="&#x30f;" horiz-adv-x="800" d="M533 1434 L355 1434 L554 998 L700 998 L533 1434 Z M278 1434 L100 1434 L299 998 L445 998 L278 1434 Z " />
<glyph glyph-name="uni0310" unicode="&#x310;" horiz-adv-x="880" d="M440 1187 C739 1187 780 1434 780 1434 L659 1434 C659 1434 610 1308 440 1308 C270 1308 221 1434 221 1434 L100 1434 C100 1434 141 1187 440 1187 L440 1187 Z M337 1520 C337 1463 384 1418 440 1418 C496 1418 543 1463 543 1520 C543 1576 496 1622 440 1622 C384 1622 337 1576 337 1520 L337 1520 Z " />
<glyph glyph-name="uni0311" unicode="&#x311;" horiz-adv-x="880" d="M440 1434 C141 1434 100 1187 100 1187 L221 1187 C221 1187 270 1313 440 1313 C610 1313 659 1187 659 1187 L780 1187 C780 1187 739 1434 440 1434 L440 1434 Z " />
<glyph glyph-name="uni0312" unicode="&#x312;" horiz-adv-x="546" d="M446 1434 L299 1434 L100 998 L278 998 L446 1434 Z " />
<glyph glyph-name="uni0313" unicode="&#x313;" horiz-adv-x="546" d="M100 998 L247 998 L446 1434 L268 1434 L100 998 Z " />
<glyph glyph-name="uni0314" unicode="&#x314;" horiz-adv-x="546" d="M278 1434 L100 1434 L299 998 L446 998 L278 1434 Z " />
<glyph glyph-name="uni0315" unicode="&#x315;" horiz-adv-x="546" d="M100 998 L247 998 L446 1434 L268 1434 L100 998 Z " />
<glyph glyph-name="uni0316" unicode="&#x316;" horiz-adv-x="682" d="M309 -228 L100 -228 L409 -532 L582 -532 L309 -228 Z " />
<glyph glyph-name="uni0317" unicode="&#x317;" horiz-adv-x="682" d="M100 -532 L272 -532 L582 -228 L373 -228 L100 -532 Z " />
<glyph glyph-name="uni0318" unicode="&#x318;" horiz-adv-x="492" d="M258 -185 L258 -293 L100 -293 L100 -423 L258 -423 L258 -532 L392 -532 L392 -185 L258 -185 Z " />
<glyph glyph-name="uni0319" unicode="&#x319;" horiz-adv-x="492" d="M100 -185 L100 -532 L235 -532 L235 -423 L392 -423 L392 -293 L235 -293 L235 -185 L100 -185 Z " />
<glyph glyph-name="uni031A" unicode="&#x31a;" horiz-adv-x="549" d="M100 1434 L100 1303 L314 1303 L314 1111 L449 1111 L449 1434 L100 1434 Z " />
<glyph glyph-name="uni031B" unicode="&#x31b;" horiz-adv-x="526" d="M275 1434 C275 1377 273 1223 100 1223 L100 1075 C432 1075 425 1384 425 1434 L275 1434 Z " />
<glyph glyph-name="uni031C" unicode="&#x31c;" horiz-adv-x="485" d="M246 -285 C246 -229 286 -168 385 -168 L385 -38 C213 -38 100 -150 100 -285 C100 -419 213 -532 385 -532 L385 -402 C286 -402 246 -341 246 -285 L246 -285 Z " />
<glyph glyph-name="uni031D" unicode="&#x31d;" horiz-adv-x="589" d="M227 -264 L227 -402 L100 -402 L100 -532 L489 -532 L489 -402 L362 -402 L362 -264 L227 -264 Z " />
<glyph glyph-name="uni031E" unicode="&#x31e;" horiz-adv-x="589" d="M362 -532 L362 -395 L489 -395 L489 -264 L100 -264 L100 -395 L227 -395 L227 -532 L362 -532 Z " />
<glyph glyph-name="uni031F" unicode="&#x31f;" horiz-adv-x="589" d="M358 -195 L358 -55 L489 -55 L489 71 L358 71 L358 211 L231 211 L231 71 L100 71 L100 -55 L231 -55 L231 -195 L358 -195 Z " />
<glyph glyph-name="uni0320" unicode="&#x320;" horiz-adv-x="589" d="M489 -55 L489 71 L100 71 L100 -55 L489 -55 Z " />
<glyph glyph-name="uni0321" unicode="&#x321;" horiz-adv-x="645" d="M399 103 C399 -163 326 -248 100 -248 L100 -390 C434 -390 545 -241 545 103 L399 103 Z " />
<glyph glyph-name="uni0322" unicode="&#x322;" horiz-adv-x="645" d="M100 103 C100 -241 210 -390 545 -390 L545 -248 C318 -248 245 -163 245 103 L100 103 Z " />
<glyph glyph-name="dotbelowcomb" unicode="&#x323;" horiz-adv-x="446" d="M120 -300 C120 -357 167 -402 223 -402 C279 -402 326 -357 326 -300 C326 -244 279 -198 223 -198 C167 -198 120 -244 120 -300 L120 -300 Z " />
<glyph glyph-name="uni0324" unicode="&#x324;" horiz-adv-x="776" d="M100 -300 C100 -357 147 -402 203 -402 C259 -402 306 -357 306 -300 C306 -244 259 -198 203 -198 C147 -198 100 -244 100 -300 L100 -300 Z M470 -300 C470 -357 517 -402 573 -402 C629 -402 676 -357 676 -300 C676 -244 629 -198 573 -198 C517 -198 470 -244 470 -300 L470 -300 Z " />
<glyph glyph-name="uni0325" unicode="&#x325;" horiz-adv-x="582" d="M100 -341 C100 -444 188 -532 291 -532 C394 -532 482 -444 482 -341 C482 -237 394 -150 291 -150 C188 -150 100 -237 100 -341 L100 -341 Z M211 -341 C211 -297 246 -261 291 -261 C336 -261 371 -297 371 -341 C371 -386 336 -421 291 -421 C246 -421 211 -386 211 -341 L211 -341 Z " />
<glyph glyph-name="commaaccent" unicode="&#x326;" horiz-adv-x="586" d="M120 -532 L267 -532 L466 -96 L287 -96 L120 -532 Z " />
<glyph glyph-name="uni0327" unicode="&#x327;" horiz-adv-x="630" d="M100 -415 C100 -415 173 -463 295 -463 C417 -463 515 -407 529 -278 C537 -165 453 -105 342 -103 L400 61 L270 61 L173 -213 C234 -205 419 -171 405 -276 C397 -332 353 -349 301 -349 C219 -349 154 -318 154 -318 L100 -415 Z " />
<glyph glyph-name="uni0328" unicode="&#x328;" horiz-adv-x="499" d="M237 0 C175 -20 98 -79 101 -189 C106 -347 274 -390 396 -377 L396 -239 C338 -239 238 -235 238 -146 C238 -35 383 -3 399 0 L237 0 Z " />
<glyph glyph-name="uni0329" unicode="&#x329;" horiz-adv-x="355" d="M100 -532 L255 -532 L255 -133 L100 -133 L100 -532 Z " />
<glyph glyph-name="uni032A" unicode="&#x32a;" horiz-adv-x="850" d="M100 -532 L256 -532 L256 -424 L595 -424 L595 -532 L750 -532 L750 -292 L100 -292 L100 -532 Z " />
<glyph glyph-name="uni032B" unicode="&#x32b;" horiz-adv-x="744" d="M480 -532 C587 -532 644 -441 644 -340 L644 -177 L510 -177 L510 -340 C510 -377 497 -397 480 -397 C440 -397 433 -341 433 -242 L311 -242 C311 -341 304 -397 264 -397 C247 -397 234 -377 234 -340 L234 -177 L100 -177 L100 -340 C100 -441 157 -532 264 -532 C298 -532 349 -514 372 -469 C395 -514 446 -532 480 -532 L480 -532 Z " />
<glyph glyph-name="uni032C" unicode="&#x32c;" horiz-adv-x="860" d="M381 -532 L479 -532 L760 -208 L602 -208 L430 -388 L258 -208 L100 -208 L381 -532 Z " />
<glyph glyph-name="uni032D" unicode="&#x32d;" horiz-adv-x="860" d="M100 -532 L258 -532 L430 -352 L602 -532 L760 -532 L479 -208 L381 -208 L100 -532 Z " />
<glyph glyph-name="uni032E" unicode="&#x32e;" horiz-adv-x="880" d="M440 -532 C739 -532 780 -285 780 -285 L659 -285 C659 -285 610 -411 440 -411 C270 -411 221 -285 221 -285 L100 -285 C100 -285 141 -532 440 -532 L440 -532 Z " />
<glyph glyph-name="uni032F" unicode="&#x32f;" horiz-adv-x="880" d="M440 -285 C141 -285 100 -532 100 -532 L221 -532 C221 -532 270 -406 440 -406 C610 -406 659 -532 659 -532 L780 -532 C780 -532 739 -285 440 -285 L440 -285 Z " />
<glyph glyph-name="uni0330" unicode="&#x330;" horiz-adv-x="788" d="M349 -354 C383 -390 418 -439 500 -439 C688 -439 688 -219 688 -219 L543 -219 C543 -219 541 -302 500 -302 C480 -302 464 -282 439 -255 C405 -219 370 -170 288 -170 C100 -170 100 -390 100 -390 L245 -390 C245 -390 247 -307 288 -307 C308 -307 324 -327 349 -354 L349 -354 Z " />
<glyph glyph-name="uni0331" unicode="&#x331;" horiz-adv-x="904" d="M100 -532 L804 -532 L804 -400 L100 -400 L100 -532 Z " />
<glyph glyph-name="uni0332" unicode="&#x332;" horiz-adv-x="1171" d="M120 -252 L1051 -252 L1051 -120 L120 -120 L120 -252 Z " />
<glyph glyph-name="uni0333" unicode="&#x333;" horiz-adv-x="1171" d="M120 -460 L1051 -460 L1051 -328 L120 -328 L120 -460 Z M120 -252 L1051 -252 L1051 -120 L120 -120 L120 -252 Z " />
<glyph glyph-name="uni0334" unicode="&#x334;" horiz-adv-x="788" d="M349 631 C383 595 418 546 500 546 C688 546 688 766 688 766 L543 766 C543 766 541 683 500 683 C480 683 464 703 439 730 C405 766 370 815 288 815 C100 815 100 595 100 595 L245 595 C245 595 247 678 288 678 C308 678 324 658 349 631 L349 631 Z " />
<glyph glyph-name="uni0335" unicode="&#x335;" horiz-adv-x="752" d="M100 651 L652 651 L652 783 L100 783 L100 651 Z " />
<glyph glyph-name="uni0336" unicode="&#x336;" horiz-adv-x="975" d="M100 651 L875 651 L875 783 L100 783 L100 651 Z " />
<glyph glyph-name="uni0337" unicode="&#x337;" horiz-adv-x="1052" d="M763 992 L100 219 L289 219 L952 992 L763 992 Z " />
<glyph glyph-name="uni0338" unicode="&#x338;" horiz-adv-x="1281" d="M100 0 L276 0 L1181 1434 L1005 1434 L100 0 Z " />
<glyph glyph-name="uni0339" unicode="&#x339;" horiz-adv-x="485" d="M240 -285 C240 -341 199 -402 100 -402 L100 -532 C272 -532 385 -419 385 -285 C385 -150 272 -38 100 -38 L100 -168 C199 -168 240 -229 240 -285 L240 -285 Z " />
<glyph glyph-name="uni033A" unicode="&#x33a;" horiz-adv-x="850" d="M100 -532 L750 -532 L750 -292 L595 -292 L595 -400 L256 -400 L256 -292 L100 -292 L100 -532 Z " />
<glyph glyph-name="uni033B" unicode="&#x33b;" horiz-adv-x="546" d="M100 -532 L446 -532 L446 -189 L100 -189 L100 -532 Z M227 -315 L319 -315 L319 -407 L227 -407 L227 -315 Z " />
<glyph glyph-name="uni033C" unicode="&#x33c;" horiz-adv-x="744" d="M234 -509 C234 -468 247 -445 264 -445 C296 -445 311 -483 311 -532 L433 -532 C433 -483 448 -445 480 -445 C497 -445 510 -468 510 -509 L644 -509 C644 -405 587 -310 480 -310 C446 -310 395 -328 372 -374 C349 -328 298 -310 264 -310 C157 -310 100 -405 100 -509 L234 -509 Z " />
<glyph glyph-name="uni033D" unicode="&#x33d;" horiz-adv-x="838" d="M507 1227 L738 1434 L563 1434 L418 1304 L275 1434 L100 1434 L332 1227 L100 1022 L275 1022 L419 1149 L563 1022 L738 1022 L507 1227 Z " />
<glyph glyph-name="uni033E" unicode="&#x33e;" horiz-adv-x="469" d="M284 1331 C320 1365 369 1400 369 1482 C369 1670 149 1670 149 1670 L149 1525 C149 1525 232 1523 232 1482 C232 1462 212 1446 185 1421 C149 1387 100 1352 100 1270 C100 1082 320 1082 320 1082 L320 1227 C320 1227 237 1229 237 1270 C237 1290 257 1306 284 1331 L284 1331 Z " />
<glyph glyph-name="uni033F" unicode="&#x33f;" horiz-adv-x="1171" d="M120 1516 L1051 1516 L1051 1648 L120 1648 L120 1516 Z M120 1724 L1051 1724 L1051 1856 L120 1856 L120 1724 Z " />
<glyph glyph-name="uni0340" unicode="&#x340;" horiz-adv-x="682" d="M309 1434 L100 1434 L409 1129 L582 1129 L309 1434 Z " />
<glyph glyph-name="uni0341" unicode="&#x341;" horiz-adv-x="682" d="M100 1129 L272 1129 L582 1434 L373 1434 L100 1129 Z " />
<glyph glyph-name="uni0342" unicode="&#x342;" horiz-adv-x="788" d="M349 1250 C383 1214 418 1165 500 1165 C688 1165 688 1385 688 1385 L543 1385 C543 1385 541 1302 500 1302 C480 1302 464 1322 439 1349 C405 1385 370 1434 288 1434 C100 1434 100 1214 100 1214 L245 1214 C245 1214 247 1297 288 1297 C308 1297 324 1277 349 1250 L349 1250 Z " />
<glyph glyph-name="uni0343" unicode="&#x343;" horiz-adv-x="546" d="M100 998 L247 998 L446 1434 L268 1434 L100 998 Z " />
<glyph glyph-name="uni0344" unicode="&#x344;" horiz-adv-x="776" d="M314 1431 L457 1431 L598 1784 L420 1784 L314 1431 Z M100 1285 C100 1228 147 1183 203 1183 C259 1183 306 1228 306 1285 C306 1341 259 1387 203 1387 C147 1387 100 1341 100 1285 L100 1285 Z M470 1285 C470 1228 517 1183 573 1183 C629 1183 676 1228 676 1285 C676 1341 629 1387 573 1387 C517 1387 470 1341 470 1285 L470 1285 Z " />
<glyph glyph-name="uni0345" unicode="&#x345;" horiz-adv-x="631" d="M465 -166 C427 -198 383 -225 335 -225 C277 -225 255 -187 255 -121 L255 63 L100 63 L100 -121 C100 -302 194 -358 334 -358 C402 -358 479 -332 531 -277 L465 -166 Z " />
<glyph glyph-name="uni0346" unicode="&#x346;" horiz-adv-x="850" d="M100 1194 L256 1194 L256 1301 L595 1301 L595 1194 L750 1194 L750 1434 L100 1434 L100 1194 Z " />
<glyph glyph-name="uni0347" unicode="&#x347;" horiz-adv-x="589" d="M489 -144 L489 -18 L100 -18 L100 -144 L489 -144 Z M489 34 L489 160 L100 160 L100 34 L489 34 Z " />
<glyph glyph-name="uni0348" unicode="&#x348;" horiz-adv-x="580" d="M100 -532 L255 -532 L255 -133 L100 -133 L100 -532 Z M325 -532 L480 -532 L480 -133 L325 -133 L325 -532 Z " />
<glyph glyph-name="uni0349" unicode="&#x349;" horiz-adv-x="549" d="M100 -209 L100 -339 L314 -339 L314 -532 L449 -532 L449 -209 L100 -209 Z " />
<glyph glyph-name="uni034A" unicode="&#x34a;" horiz-adv-x="789" d="M462 1498 C441 1467 413 1426 391 1393 C361 1416 326 1434 279 1434 C99 1434 101 1214 101 1214 L246 1214 C246 1214 247 1297 279 1297 C293 1297 307 1291 317 1283 L194 1101 L327 1101 C347 1132 375 1172 397 1205 C427 1182 462 1165 510 1165 C690 1165 688 1385 688 1385 L543 1385 C543 1385 541 1302 510 1302 C494 1302 484 1307 472 1316 L595 1498 L462 1498 Z " />
<glyph glyph-name="uni034B" unicode="&#x34b;" horiz-adv-x="788" d="M349 1250 C383 1214 418 1165 500 1165 C688 1165 688 1385 688 1385 L543 1385 C543 1385 541 1302 500 1302 C480 1302 464 1322 439 1349 C405 1385 370 1434 288 1434 C100 1434 100 1214 100 1214 L245 1214 C245 1214 247 1297 288 1297 C308 1297 324 1277 349 1250 L349 1250 Z M383 1511 C383 1454 430 1409 486 1409 C542 1409 589 1454 589 1511 C589 1567 542 1613 486 1613 C430 1613 383 1567 383 1511 L383 1511 Z M200 1088 C200 1031 247 986 303 986 C359 986 406 1031 406 1088 C406 1144 359 1190 303 1190 C247 1190 200 1144 200 1088 L200 1088 Z " />
<glyph glyph-name="uni034C" unicode="&#x34c;" horiz-adv-x="925" d="M497 1358 C448 1394 385 1434 293 1434 C205 1434 143 1390 100 1345 L100 1175 C189 1274 252 1293 293 1293 C339 1293 389 1269 428 1239 C477 1203 540 1163 632 1163 C720 1163 782 1207 825 1252 L825 1422 C736 1323 673 1304 632 1304 C586 1304 536 1328 497 1358 L497 1358 Z M497 1094 C448 1130 385 1170 293 1170 C205 1170 143 1126 100 1081 L100 911 C189 1010 252 1029 293 1029 C339 1029 389 1005 428 975 C477 939 540 899 632 899 C720 899 782 942 825 988 L825 1158 C736 1059 673 1040 632 1040 C586 1040 536 1064 497 1094 L497 1094 Z " />
<glyph glyph-name="uni034D" unicode="&#x34d;" horiz-adv-x="1871" d="M1339 -422 L1339 -598 L1771 -260 L1339 78 L1339 -98 L1476 -188 L394 -188 L531 -98 L531 78 L100 -260 L531 -598 L531 -422 L394 -332 L1477 -332 L1339 -422 Z " />
<glyph glyph-name="uni034E" unicode="&#x34e;" horiz-adv-x="877" d="M511 -532 L511 -289 L601 -426 L777 -426 L439 5 L100 -426 L276 -426 L366 -290 L366 -532 L511 -532 Z " />
<glyph glyph-name="tonos" unicode="&#x384;" horiz-adv-x="485" d="M100 1080 L244 1080 L385 1434 L206 1434 L100 1080 Z " />
<glyph glyph-name="dieresistonos" unicode="&#x385;" horiz-adv-x="816" d="M334 1431 L477 1431 L618 1784 L440 1784 L334 1431 Z M120 1285 C120 1228 167 1183 223 1183 C279 1183 326 1228 326 1285 C326 1341 279 1387 223 1387 C167 1387 120 1341 120 1285 L120 1285 Z M490 1285 C490 1228 537 1183 593 1183 C649 1183 696 1228 696 1285 C696 1341 649 1387 593 1387 C537 1387 490 1341 490 1285 L490 1285 Z " />
<glyph glyph-name="Alphatonos" unicode="&#x386;" horiz-adv-x="1656" d="M215 1080 L358 1080 L500 1434 L321 1434 L215 1080 Z M893 1434 L538 1434 L538 1290 L702 1290 L219 144 L60 144 L60 0 L550 0 L550 144 L391 144 L512 436 L1144 436 L1265 144 L1106 144 L1106 0 L1596 0 L1596 144 L1437 144 L893 1434 Z M828 1198 L1084 580 L571 580 L828 1198 Z " />
<glyph glyph-name="Epsilontonos" unicode="&#x388;" horiz-adv-x="1680" d="M120 1080 L264 1080 L405 1434 L226 1434 L120 1080 Z M1388 1127 L1550 1127 L1550 1434 L432 1434 L432 1290 L596 1290 L596 144 L432 144 L432 0 L1560 0 L1560 307 L1398 307 L1398 144 L758 144 L758 661 L1393 661 L1393 805 L758 805 L758 1290 L1388 1290 L1388 1127 Z " />
<glyph glyph-name="Etatonos" unicode="&#x389;" horiz-adv-x="1929" d="M50 1080 L193 1080 L335 1434 L156 1434 L50 1080 Z M525 1290 L525 144 L361 144 L361 0 L851 0 L851 144 L687 144 L687 661 L1483 661 L1483 144 L1319 144 L1319 0 L1809 0 L1809 144 L1645 144 L1645 1290 L1809 1290 L1809 1434 L1319 1434 L1319 1290 L1483 1290 L1483 805 L687 805 L687 1290 L851 1290 L851 1434 L361 1434 L361 1290 L525 1290 Z " />
<glyph glyph-name="Iotatonos" unicode="&#x38a;" horiz-adv-x="972" d="M50 1080 L194 1080 L335 1434 L156 1434 L50 1080 Z M526 1290 L526 144 L362 144 L362 0 L852 0 L852 144 L688 144 L688 1290 L852 1290 L852 1434 L362 1434 L362 1290 L526 1290 Z " />
<glyph glyph-name="Omicrontonos" unicode="&#x38c;" horiz-adv-x="1737" d="M100 1080 L243 1080 L385 1434 L206 1434 L100 1080 Z M223 717 C223 315 470 -20 930 -20 C1390 -20 1637 315 1637 717 C1637 1119 1390 1454 930 1454 C470 1454 223 1119 223 717 L223 717 Z M1471 717 C1471 391 1295 124 930 124 C565 124 389 391 389 717 C389 1043 565 1310 930 1310 C1295 1310 1471 1043 1471 717 L1471 717 Z " />
<glyph glyph-name="Upsilontonos" unicode="&#x38e;" horiz-adv-x="1805" d="M60 1080 L204 1080 L345 1434 L166 1434 L60 1080 Z M970 597 L970 144 L806 144 L806 0 L1296 0 L1296 144 L1132 144 L1132 597 L1594 1290 L1745 1290 L1745 1434 L1255 1434 L1255 1290 L1404 1290 L1051 760 L698 1290 L847 1290 L847 1434 L357 1434 L357 1290 L508 1290 L970 597 Z " />
<glyph glyph-name="Omegatonos" unicode="&#x38f;" horiz-adv-x="1680" d="M100 1080 L243 1080 L385 1434 L206 1434 L100 1080 Z M969 0 L1580 0 L1580 247 L1418 247 L1418 144 L1184 144 C1184 144 1580 306 1580 777 C1580 1162 1314 1454 903 1454 C492 1454 226 1162 226 777 C226 306 622 144 622 144 L388 144 L388 247 L226 247 L226 0 L837 0 L837 125 C629 225 392 432 392 777 C392 1077 576 1310 903 1310 C1230 1310 1414 1077 1414 777 C1414 432 1177 225 969 125 L969 0 Z " />
<glyph glyph-name="iotadieresistonos" unicode="&#x390;" horiz-adv-x="696" d="M274 1431 L417 1431 L558 1784 L380 1784 L274 1431 Z M60 1285 C60 1228 107 1183 163 1183 C219 1183 266 1228 266 1285 C266 1341 219 1387 163 1387 C107 1387 60 1341 60 1285 L60 1285 Z M430 1285 C430 1228 477 1183 533 1183 C589 1183 636 1228 636 1285 C636 1341 589 1387 533 1387 C477 1387 430 1341 430 1285 L430 1285 Z M425 229 L425 1006 L104 1006 L104 874 L271 874 L271 229 C271 125 291 0 471 0 L530 0 L530 132 L471 132 C427 132 425 175 425 229 L425 229 Z " />
<glyph glyph-name="Alpha" unicode="&#x391;" horiz-adv-x="1656" d="M893 1434 L538 1434 L538 1290 L702 1290 L219 144 L60 144 L60 0 L550 0 L550 144 L391 144 L512 436 L1144 436 L1265 144 L1106 144 L1106 0 L1596 0 L1596 144 L1437 144 L893 1434 Z M828 1198 L1084 580 L571 580 L828 1198 Z " />
<glyph glyph-name="Beta" unicode="&#x392;" horiz-adv-x="1500" d="M880 0 C1273 0 1400 210 1400 413 C1400 578 1312 706 1144 757 C1264 796 1342 916 1342 1052 C1342 1240 1244 1434 860 1434 L120 1434 L120 1290 L284 1290 L284 144 L120 144 L120 0 L880 0 Z M963 676 C1149 676 1234 551 1234 413 C1234 277 1155 144 880 144 L446 144 L446 676 L963 676 Z M446 820 L446 1290 L860 1290 C1126 1290 1176 1180 1176 1052 C1176 919 1101 820 963 820 L446 820 Z " />
<glyph glyph-name="Gamma" unicode="&#x393;" horiz-adv-x="1383" d="M446 1290 L1101 1290 L1101 1127 L1263 1127 L1263 1434 L120 1434 L120 1290 L284 1290 L284 144 L120 144 L120 0 L610 0 L610 144 L446 144 L446 1290 Z " />
<glyph glyph-name="uni0394" unicode="&#x394;" horiz-adv-x="1656" d="M1596 0 L1596 144 L1437 144 L893 1434 L538 1434 L538 1290 L702 1290 L219 144 L60 144 L60 0 L1596 0 Z M828 1198 L1265 144 L391 144 L828 1198 Z " />
<glyph glyph-name="Epsilon" unicode="&#x395;" horiz-adv-x="1368" d="M1076 1127 L1238 1127 L1238 1434 L120 1434 L120 1290 L284 1290 L284 144 L120 144 L120 0 L1248 0 L1248 307 L1086 307 L1086 144 L446 144 L446 661 L1081 661 L1081 805 L446 805 L446 1290 L1076 1290 L1076 1127 Z " />
<glyph glyph-name="Zeta" unicode="&#x396;" horiz-adv-x="1324" d="M1200 1434 L131 1434 L131 1127 L293 1127 L293 1290 L969 1290 L120 91 L120 0 L1204 0 L1204 307 L1042 307 L1042 144 L351 144 L1200 1343 L1200 1434 Z " />
<glyph glyph-name="Eta" unicode="&#x397;" horiz-adv-x="1688" d="M284 1290 L284 144 L120 144 L120 0 L610 0 L610 144 L446 144 L446 661 L1242 661 L1242 144 L1078 144 L1078 0 L1568 0 L1568 144 L1404 144 L1404 1290 L1568 1290 L1568 1434 L1078 1434 L1078 1290 L1242 1290 L1242 805 L446 805 L446 1290 L610 1290 L610 1434 L120 1434 L120 1290 L284 1290 Z " />
<glyph glyph-name="Theta" unicode="&#x398;" horiz-adv-x="1614" d="M457 650 L1155 650 L1155 794 L457 794 L457 650 Z M100 717 C100 315 347 -20 807 -20 C1267 -20 1514 315 1514 717 C1514 1119 1267 1454 807 1454 C347 1454 100 1119 100 717 L100 717 Z M1348 717 C1348 391 1172 124 807 124 C442 124 266 391 266 717 C266 1043 442 1310 807 1310 C1172 1310 1348 1043 1348 717 L1348 717 Z " />
<glyph glyph-name="Iota" unicode="&#x399;" horiz-adv-x="730" d="M284 1290 L284 144 L120 144 L120 0 L610 0 L610 144 L446 144 L446 1290 L610 1290 L610 1434 L120 1434 L120 1290 L284 1290 Z " />
<glyph glyph-name="Kappa" unicode="&#x39a;" horiz-adv-x="1579" d="M446 726 L446 1290 L610 1290 L610 1434 L120 1434 L120 1290 L284 1290 L284 144 L120 144 L120 0 L610 0 L610 144 L446 144 L446 518 L656 720 L1116 144 L969 144 L969 0 L1459 0 L1459 144 L1313 144 L768 825 L1258 1290 L1402 1290 L1402 1434 L912 1434 L912 1290 L1040 1290 L446 726 Z " />
<glyph glyph-name="Lambda" unicode="&#x39b;" horiz-adv-x="1656" d="M828 1198 L1265 144 L1106 144 L1106 0 L1596 0 L1596 144 L1437 144 L893 1434 L538 1434 L538 1290 L702 1290 L219 144 L60 144 L60 0 L550 0 L550 144 L391 144 L828 1198 Z " />
<glyph glyph-name="Mu" unicode="&#x39c;" horiz-adv-x="2006" d="M284 1290 L284 144 L120 144 L120 0 L610 0 L610 144 L446 144 L446 1179 L931 0 L1075 0 L1560 1179 L1560 144 L1396 144 L1396 0 L1886 0 L1886 144 L1722 144 L1722 1290 L1886 1290 L1886 1434 L1496 1434 L1003 236 L510 1434 L120 1434 L120 1290 L284 1290 Z " />
<glyph glyph-name="Nu" unicode="&#x39d;" horiz-adv-x="1702" d="M284 1290 L284 144 L120 144 L120 0 L610 0 L610 144 L446 144 L446 1195 L1228 0 L1418 0 L1418 1290 L1582 1290 L1582 1434 L1092 1434 L1092 1290 L1256 1290 L1256 239 L474 1434 L120 1434 L120 1290 L284 1290 Z " />
<glyph glyph-name="Xi" unicode="&#x39e;" horiz-adv-x="1183" d="M100 1290 L1083 1290 L1083 1434 L100 1434 L100 1290 Z M100 0 L1083 0 L1083 144 L100 144 L100 0 Z M215 661 L969 661 L969 805 L215 805 L215 661 Z " />
<glyph glyph-name="Omicron" unicode="&#x39f;" horiz-adv-x="1614" d="M100 717 C100 315 347 -20 807 -20 C1267 -20 1514 315 1514 717 C1514 1119 1267 1454 807 1454 C347 1454 100 1119 100 717 L100 717 Z M1348 717 C1348 391 1172 124 807 124 C442 124 266 391 266 717 C266 1043 442 1310 807 1310 C1172 1310 1348 1043 1348 717 L1348 717 Z " />
<glyph glyph-name="Pi" unicode="&#x3a0;" horiz-adv-x="1682" d="M120 0 L610 0 L610 144 L446 144 L446 1290 L1236 1290 L1236 144 L1072 144 L1072 0 L1562 0 L1562 144 L1398 144 L1398 1290 L1562 1290 L1562 1434 L120 1434 L120 1290 L284 1290 L284 144 L120 144 L120 0 Z " />
<glyph glyph-name="Rho" unicode="&#x3a1;" horiz-adv-x="1458" d="M284 1290 L284 144 L120 144 L120 0 L610 0 L610 144 L446 144 L446 546 L881 546 C1183 546 1358 714 1358 990 C1358 1266 1183 1434 881 1434 L120 1434 L120 1290 L284 1290 Z M881 1290 C1093 1290 1194 1172 1194 990 C1194 808 1093 690 881 690 L446 690 L446 1290 L881 1290 Z " />
<glyph glyph-name="Sigma" unicode="&#x3a3;" horiz-adv-x="1266" d="M120 0 L1146 0 L1146 307 L984 307 L984 144 L374 144 L802 717 L376 1290 L974 1290 L974 1127 L1136 1127 L1136 1434 L129 1434 L129 1348 L599 717 L120 86 L120 0 Z " />
<glyph glyph-name="Tau" unicode="&#x3a4;" horiz-adv-x="1470" d="M1188 1127 L1350 1127 L1350 1434 L120 1434 L120 1127 L282 1127 L282 1290 L654 1290 L654 144 L490 144 L490 0 L980 0 L980 144 L816 144 L816 1290 L1188 1290 L1188 1127 Z " />
<glyph glyph-name="Upsilon" unicode="&#x3a5;" horiz-adv-x="1508" d="M673 597 L673 144 L509 144 L509 0 L999 0 L999 144 L835 144 L835 597 L1297 1290 L1448 1290 L1448 1434 L958 1434 L958 1290 L1107 1290 L754 760 L401 1290 L550 1290 L550 1434 L60 1434 L60 1290 L211 1290 L673 597 Z " />
<glyph glyph-name="Phi" unicode="&#x3a6;" horiz-adv-x="1504" d="M833 1290 L997 1290 L997 1434 L507 1434 L507 1290 L671 1290 L671 1216 C324 1195 100 1037 100 717 C100 397 324 239 671 218 L671 144 L507 144 L507 0 L997 0 L997 144 L833 144 L833 218 C1180 239 1404 397 1404 717 C1404 1037 1180 1195 833 1216 L833 1290 Z M833 362 L833 1072 C1057 1062 1240 978 1240 717 C1240 456 1057 372 833 362 L833 362 Z M671 362 C447 372 264 456 264 717 C264 978 447 1062 671 1072 L671 362 Z " />
<glyph glyph-name="Chi" unicode="&#x3a7;" horiz-adv-x="1511" d="M655 749 L209 144 L60 144 L60 0 L550 0 L550 144 L399 144 L755 627 L1217 0 L1451 0 L1451 144 L1301 144 L855 749 L1251 1290 L1401 1290 L1401 1434 L911 1434 L911 1290 L1061 1290 L755 872 L343 1434 L103 1434 L103 1290 L258 1290 L655 749 Z " />
<glyph glyph-name="Psi" unicode="&#x3a8;" horiz-adv-x="1706" d="M1482 1290 L1646 1290 L1646 1434 L1324 1434 C1324 931 1215 669 934 640 L934 1290 L1098 1290 L1098 1434 L608 1434 L608 1290 L772 1290 L772 640 C491 669 382 931 382 1434 L60 1434 L60 1290 L224 1290 C255 711 479 515 772 495 L772 144 L608 144 L608 0 L1098 0 L1098 144 L934 144 L934 495 C1228 515 1451 711 1482 1290 L1482 1290 Z " />
<glyph glyph-name="uni03A9" unicode="&#x3a9;" horiz-adv-x="1554" d="M843 0 L1454 0 L1454 247 L1292 247 L1292 144 L1058 144 C1058 144 1454 306 1454 777 C1454 1162 1188 1454 777 1454 C366 1454 100 1162 100 777 C100 306 496 144 496 144 L262 144 L262 247 L100 247 L100 0 L711 0 L711 125 C503 225 266 432 266 777 C266 1077 450 1310 777 1310 C1104 1310 1288 1077 1288 777 C1288 432 1051 225 843 125 L843 0 Z " />
</font>
</svg>
