<?xml version="1.0" encoding="UTF-8"?>
<svg xmlns="http://www.w3.org/2000/svg" xmlns:xlink="http://www.w3.org/1999/xlink" version="1.2" >
<font id="Isidora Sans Light">
<font-face  font-family="Isidora Sans" units-per-em="1000" ascent="682" descent="-150" font-style="normal" font-weight="300" font-stretch="normal" cap-height="650" x-height="500" underline-position="-75" underline-thickness="50" />
<missing-glyph  horiz-adv-x="600" d="" />
<glyph glyph-name="NULL" d="" />
<glyph glyph-name="CR" unicode="&#xd;" horiz-adv-x="250" d="" />
<glyph glyph-name="space" unicode="&#x20;" horiz-adv-x="260" d="" />
<glyph glyph-name="exclam" unicode="&#x21;" horiz-adv-x="233" d="M102 119 L131 119 L134 123 L139 647 L136 650 L97 650 L94 647 L100 123 L102 119 Z M116 -12 C139 -12 157 6 157 29 C157 51 139 69 116 69 C94 69 76 51 76 29 C76 6 94 -12 116 -12 L116 -12 Z " />
<glyph glyph-name="quotedbl" unicode="&#x22;" horiz-adv-x="279" d="M74 422 L98 422 L107 650 L65 650 L74 422 Z M181 422 L205 422 L214 650 L172 650 L181 422 Z " />
<glyph glyph-name="numbersign" unicode="&#x23;" horiz-adv-x="555" d="M126 0 L162 0 L189 198 L348 198 L320 0 L356 0 L383 198 L488 198 L493 230 L388 230 L413 420 L516 420 L521 452 L419 452 L446 649 L410 649 L383 452 L225 452 L252 649 L216 649 L189 452 L66 452 L61 420 L185 420 L158 230 L39 230 L34 198 L154 198 L126 0 Z M194 230 L220 420 L378 420 L352 230 L194 230 Z " />
<glyph glyph-name="dollar" unicode="&#x24;" horiz-adv-x="444" d="M400 193 C400 301 302 327 215 363 C152 391 105 419 105 480 C105 541 155 583 227 583 C284 583 329 560 357 521 L361 521 L384 542 L384 546 C353 587 304 613 245 617 L245 685 L210 685 L210 617 C123 611 65 555 65 478 C65 391 132 357 197 330 C276 296 360 276 360 192 C360 125 306 78 228 78 C164 78 100 115 63 169 L59 169 L34 149 L34 144 C71 88 139 49 210 43 L210 -24 L245 -24 L245 43 C336 49 400 108 400 193 L400 193 Z " />
<glyph glyph-name="percent" unicode="&#x25;" horiz-adv-x="736" d="M178 287 C258 287 314 362 314 474 C314 588 257 662 178 662 C99 662 43 588 43 474 C43 362 99 287 178 287 L178 287 Z M98 4 L100 0 L135 0 L634 646 L632 650 L597 650 L98 4 Z M178 321 C117 321 78 382 78 474 C78 567 117 629 178 629 C239 629 279 567 279 474 C279 382 239 321 178 321 L178 321 Z M559 -12 C638 -12 694 62 694 175 C694 288 638 363 559 363 C480 363 423 288 423 175 C423 62 480 -12 559 -12 L559 -12 Z M559 21 C498 21 458 83 458 175 C458 267 498 329 559 329 C620 329 659 267 659 175 C659 83 620 21 559 21 L559 21 Z " />
<glyph glyph-name="ampersand" unicode="&#x26;" horiz-adv-x="619" d="M599 27 L596 29 C588 24 577 22 568 22 C545 22 525 36 498 70 C534 110 556 161 556 217 C556 272 536 322 500 361 L496 361 L470 340 L470 335 C499 305 517 262 517 216 C517 172 501 132 474 100 L241 385 C205 430 178 470 178 517 C178 579 227 625 300 626 C353 626 395 600 425 563 L429 563 L454 584 L454 588 C417 632 366 662 302 662 C206 662 138 602 138 516 C138 498 141 482 146 465 C152 449 160 432 174 412 C96 373 45 303 45 217 C45 89 159 -14 301 -14 C366 -14 424 8 469 43 C499 9 530 -12 566 -12 C580 -12 595 -9 606 -3 L607 1 L599 27 Z M84 216 C84 288 130 351 194 384 L253 310 L446 72 C408 41 358 22 302 22 C182 22 84 109 84 216 L84 216 Z " />
<glyph glyph-name="quotesingle" unicode="&#x27;" horiz-adv-x="172" d="M74 422 L98 422 L107 650 L65 650 L74 422 Z " />
<glyph glyph-name="parenleft" unicode="&#x28;" horiz-adv-x="258" d="M90 311 C90 464 142 616 241 738 L197 738 C101 610 50 460 50 311 C50 162 101 12 197 -116 L241 -116 C142 6 90 159 90 311 L90 311 Z " />
<glyph glyph-name="parenright" unicode="&#x29;" horiz-adv-x="258" d="M16 -116 L61 -116 C157 12 208 162 208 311 C208 460 157 610 61 738 L16 738 C115 616 167 464 167 311 C167 159 115 6 16 -116 L16 -116 Z " />
<glyph glyph-name="asterisk" unicode="&#x2a;" horiz-adv-x="450" d="M209 670 L209 518 L77 594 L60 566 L192 490 L60 413 L77 385 L209 461 L209 309 L241 309 L241 461 L373 385 L389 413 L257 490 L389 566 L373 594 L241 518 L241 670 L209 670 Z " />
<glyph glyph-name="plus" unicode="&#x2b;" horiz-adv-x="527" d="M495 317 L282 317 L282 520 L246 520 L246 317 L33 317 L33 284 L246 284 L246 79 L282 79 L282 284 L495 284 L495 317 Z " />
<glyph glyph-name="comma" unicode="&#x2c;" horiz-adv-x="189" d="M53 -131 L57 -131 C116 -56 138 -5 138 25 C137 51 119 69 96 69 C73 69 54 51 54 29 C54 7 70 -10 92 -12 C91 -35 72 -68 38 -116 L38 -120 L53 -131 Z " />
<glyph glyph-name="hyphen" unicode="&#x2d;" horiz-adv-x="477" d="M70 316 L70 284 L407 284 L407 316 L70 316 Z " />
<glyph glyph-name="period" unicode="&#x2e;" horiz-adv-x="199" d="M100 -12 C122 -12 140 6 140 29 C140 51 122 69 100 69 C77 69 59 51 59 29 C59 6 77 -12 100 -12 L100 -12 Z " />
<glyph glyph-name="slash" unicode="&#x2f;" horiz-adv-x="485" d="M425 704 L24 -49 L26 -53 L61 -53 L462 700 L459 704 L425 704 Z " />
<glyph glyph-name="zero" unicode="0" horiz-adv-x="591" d="M534 325 C534 527 438 662 295 662 C152 662 56 527 56 325 C56 123 152 -12 295 -12 C438 -12 534 123 534 325 L534 325 Z M96 325 C96 504 175 625 295 625 C415 625 495 504 495 325 C495 146 415 25 295 25 C175 25 96 146 96 325 L96 325 Z " />
<glyph glyph-name="one" unicode="1" horiz-adv-x="272" d="M26 650 L26 614 L132 614 L132 0 L170 0 L170 650 L26 650 Z " />
<glyph glyph-name="two" unicode="2" horiz-adv-x="487" d="M92 34 C177 120 247 189 301 248 C381 339 425 410 425 485 C425 595 344 662 237 662 C158 662 92 623 48 571 L48 567 L72 547 L76 547 C115 593 170 626 236 626 C320 626 386 574 386 485 C386 417 345 352 267 266 C211 202 132 127 35 30 L35 0 L444 0 L444 34 L92 34 Z " />
<glyph glyph-name="three" unicode="3" horiz-adv-x="503" d="M314 355 C378 380 423 435 423 505 C423 599 344 662 242 662 C172 662 111 633 64 584 L64 580 L87 559 L91 559 C126 598 178 626 239 626 C321 626 383 576 383 503 C383 423 306 368 226 368 L184 368 L184 337 L222 337 C328 337 410 278 410 178 C410 85 337 24 238 24 C174 24 107 48 59 103 L55 103 L32 82 L32 78 C88 15 165 -12 238 -12 C361 -12 449 65 449 177 C449 267 394 331 314 355 L314 355 Z " />
<glyph glyph-name="four" unicode="4" horiz-adv-x="525" d="M366 0 L404 0 L404 174 L487 174 L487 208 L404 208 L404 650 L385 650 L20 204 L20 174 L366 174 L366 0 Z M69 208 L367 571 L367 208 L69 208 Z " />
<glyph glyph-name="five" unicode="5" horiz-adv-x="526" d="M267 421 C210 421 155 404 106 367 L144 614 L431 614 L431 650 L112 650 L61 321 L90 307 L94 307 C123 347 188 385 264 385 C375 385 446 309 446 208 C446 100 362 24 251 24 C190 24 120 49 75 103 L71 103 L48 82 L48 77 C99 17 181 -12 254 -12 C385 -12 485 79 485 207 C485 327 403 421 267 421 L267 421 Z " />
<glyph glyph-name="six" unicode="6" horiz-adv-x="536" d="M285 419 C222 419 165 398 119 351 C139 395 167 442 201 488 C240 542 284 595 329 640 L329 644 L303 664 L299 664 C254 617 209 564 171 510 C100 410 50 304 50 208 C50 159 64 109 95 70 C136 19 200 -12 277 -12 C408 -12 504 78 504 204 C504 329 411 419 285 419 L285 419 Z M277 24 C168 24 89 100 89 203 C89 307 170 383 278 383 C386 383 465 307 465 203 C465 100 386 24 277 24 L277 24 Z " />
<glyph glyph-name="seven" unicode="7" horiz-adv-x="441" d="M15 650 L15 614 L377 614 L104 3 L106 0 L144 0 L424 626 L424 650 L15 650 Z " />
<glyph glyph-name="eight" unicode="8" horiz-adv-x="555" d="M365 368 C421 394 457 444 457 505 C457 595 380 662 277 662 C174 662 98 595 98 505 C98 444 134 394 190 368 C106 340 50 271 50 186 C50 72 147 -12 277 -12 C408 -12 505 72 505 186 C505 271 449 340 365 368 L365 368 Z M138 505 C138 574 198 626 277 626 C357 626 416 574 416 505 C416 435 357 383 277 383 C198 383 138 435 138 505 L138 505 Z M277 24 C170 24 89 93 89 186 C89 279 170 349 277 349 C385 349 465 279 465 186 C465 93 385 24 277 24 L277 24 Z " />
<glyph glyph-name="nine" unicode="9" horiz-adv-x="536" d="M259 662 C129 662 33 575 32 445 C32 322 128 231 259 231 C313 231 372 252 418 300 C395 249 360 194 320 141 C285 96 246 50 207 10 L207 6 L232 -15 L236 -15 C278 30 319 77 355 127 C431 230 486 342 486 441 C485 575 390 662 259 662 L259 662 Z M259 267 C151 267 71 343 71 446 C71 550 150 626 259 626 C368 626 447 550 447 446 C447 343 366 267 259 267 L259 267 Z " />
<glyph glyph-name="colon" unicode="&#x3a;" horiz-adv-x="222" d="M111 422 C133 422 152 441 152 463 C152 485 133 504 111 504 C89 504 71 485 71 463 C71 441 89 422 111 422 L111 422 Z M111 -13 C133 -13 152 5 152 27 C152 50 133 68 111 68 C89 68 71 50 71 27 C71 5 89 -13 111 -13 L111 -13 Z " />
<glyph glyph-name="semicolon" unicode="&#x3b;" horiz-adv-x="249" d="M129 422 C152 422 170 441 170 463 C170 486 152 504 129 504 C107 504 88 486 88 463 C88 441 107 422 129 422 L129 422 Z M85 -131 L89 -131 C149 -56 170 -6 170 25 C170 51 152 69 128 69 C106 69 87 51 87 29 C87 7 103 -10 125 -12 C123 -35 105 -68 71 -116 L71 -120 L85 -131 Z " />
<glyph glyph-name="less" unicode="&#x3c;" horiz-adv-x="467" d="M406 551 L403 554 L30 335 L30 309 L403 90 L406 93 L406 129 L79 322 L406 515 L406 551 Z " />
<glyph glyph-name="equal" unicode="&#x3d;" horiz-adv-x="604" d="M72 417 L72 384 L532 384 L532 417 L72 417 Z M72 217 L72 183 L532 183 L532 217 L72 217 Z " />
<glyph glyph-name="greater" unicode="&#x3e;" horiz-adv-x="467" d="M65 554 L61 551 L61 515 L389 322 L61 129 L61 93 L65 90 L437 309 L437 335 L65 554 Z " />
<glyph glyph-name="question" unicode="&#x3f;" horiz-adv-x="481" d="M221 124 L259 124 L259 175 C259 227 281 261 319 298 C370 349 436 399 436 486 C436 592 354 662 231 662 C135 662 52 595 28 501 L30 497 L60 489 L64 490 C85 570 155 626 230 626 C330 626 397 570 397 486 C397 411 339 369 292 321 C249 281 221 239 221 174 L221 124 Z M240 -12 C262 -12 280 6 280 29 C280 51 262 69 240 69 C218 69 199 51 199 29 C199 6 218 -12 240 -12 L240 -12 Z " />
<glyph glyph-name="at" unicode="&#x40;" horiz-adv-x="857" d="M426 -121 C507 -121 584 -96 636 -56 L636 -51 L618 -29 L614 -29 C563 -66 501 -88 425 -88 C227 -88 86 55 86 251 C86 447 231 588 429 588 C623 588 765 450 765 259 C765 157 726 93 659 93 C617 93 587 120 587 186 L587 426 L556 426 L556 342 C530 395 480 431 409 431 C300 431 230 351 230 249 C230 146 300 66 407 66 C479 66 533 102 560 157 C564 96 602 62 660 62 C744 62 802 133 802 259 C802 467 645 621 428 621 C209 621 50 465 50 250 C50 35 214 -121 426 -121 L426 -121 Z M409 95 C322 95 264 164 264 248 C264 332 322 401 410 401 C494 401 555 337 555 249 C555 159 492 95 409 95 L409 95 Z " />
<glyph glyph-name="A" unicode="A" horiz-adv-x="651" d="M338 650 L314 650 L23 4 L26 0 L62 0 L134 161 L516 161 L588 0 L625 0 L628 4 L338 650 Z M150 196 L325 590 L501 196 L150 196 Z " />
<glyph glyph-name="B" unicode="B" horiz-adv-x="605" d="M423 339 C484 362 527 412 527 485 C527 591 452 650 325 650 L100 650 L100 0 L342 0 C468 0 551 71 551 177 C551 259 501 316 423 339 L423 339 Z M330 615 C427 615 488 568 488 485 C488 404 431 354 338 354 L140 354 L140 615 L330 615 Z M343 35 L140 35 L140 321 L341 321 C443 321 511 265 511 178 C511 90 447 35 343 35 L343 35 Z " />
<glyph glyph-name="C" unicode="C" horiz-adv-x="693" d="M391 -12 C500 -12 596 36 656 112 L656 116 L630 136 L626 136 C573 68 487 25 390 25 C221 25 90 155 90 325 C90 495 221 625 390 625 C487 625 573 582 626 514 L630 514 L656 534 L656 538 C596 614 500 662 391 662 C196 662 50 515 50 325 C50 135 196 -12 391 -12 L391 -12 Z " />
<glyph glyph-name="D" unicode="D" horiz-adv-x="719" d="M334 650 L100 650 L100 0 L334 0 C541 0 667 131 667 325 C667 519 541 650 334 650 L334 650 Z M335 35 L140 35 L140 615 L335 615 C517 615 628 499 628 325 C628 151 517 35 335 35 L335 35 Z " />
<glyph glyph-name="E" unicode="E" horiz-adv-x="559" d="M516 615 L516 650 L100 650 L100 0 L516 0 L516 35 L140 35 L140 311 L438 311 L438 346 L140 346 L140 615 L516 615 Z " />
<glyph glyph-name="F" unicode="F" horiz-adv-x="510" d="M492 615 L492 650 L100 650 L100 0 L140 0 L140 312 L419 312 L419 346 L140 346 L140 615 L492 615 Z " />
<glyph glyph-name="G" unicode="G" horiz-adv-x="744" d="M709 331 L705 335 L387 335 L387 300 L669 300 C668 228 640 164 596 116 C542 59 466 25 382 25 C219 25 90 154 90 325 C90 496 221 625 383 625 C475 625 561 582 614 514 L617 514 L645 536 L645 539 C584 615 488 662 384 662 C197 662 50 516 50 325 C50 134 195 -12 382 -12 C477 -12 562 27 622 89 C677 146 710 224 710 310 C710 317 710 323 709 331 L709 331 Z " />
<glyph glyph-name="H" unicode="H" horiz-adv-x="703" d="M564 650 L564 346 L140 346 L140 650 L100 650 L100 0 L140 0 L140 311 L564 311 L564 0 L602 0 L602 650 L564 650 Z " />
<glyph glyph-name="I" unicode="I" horiz-adv-x="240" d="M100 650 L100 0 L140 0 L140 650 L100 650 Z " />
<glyph glyph-name="J" unicode="J" horiz-adv-x="478" d="M346 650 L346 176 C346 82 284 24 199 24 C132 24 81 57 46 110 L42 110 L17 89 L17 85 C54 26 114 -12 199 -12 C303 -12 385 57 385 174 L385 650 L346 650 Z " />
<glyph glyph-name="K" unicode="K" horiz-adv-x="570" d="M559 646 L556 650 L510 650 L140 288 L140 650 L100 650 L100 0 L140 0 L140 237 L236 331 L508 0 L553 0 L555 4 L264 359 L559 646 Z " />
<glyph glyph-name="L" unicode="L" horiz-adv-x="495" d="M479 35 L140 35 L140 650 L100 650 L100 0 L479 0 L479 35 Z " />
<glyph glyph-name="M" unicode="M" horiz-adv-x="804" d="M737 0 L665 650 L641 650 L401 62 L163 650 L138 650 L67 0 L105 0 L165 555 L389 0 L414 0 L638 553 L699 0 L737 0 Z " />
<glyph glyph-name="N" unicode="N" horiz-adv-x="701" d="M563 650 L563 64 L125 650 L100 650 L100 0 L139 0 L139 576 L577 -10 L601 -10 L601 650 L563 650 Z " />
<glyph glyph-name="O" unicode="O" horiz-adv-x="786" d="M393 -12 C590 -12 736 135 736 325 C736 515 590 662 393 662 C196 662 50 515 50 325 C50 135 196 -12 393 -12 L393 -12 Z M393 25 C220 25 89 155 89 325 C89 495 220 625 393 625 C566 625 696 495 696 325 C696 155 566 25 393 25 L393 25 Z " />
<glyph glyph-name="P" unicode="P" horiz-adv-x="566" d="M323 650 L100 650 L100 0 L140 0 L140 271 L323 271 C454 271 533 344 533 460 C533 577 454 650 323 650 L323 650 Z M331 305 L140 305 L140 615 L331 615 C431 615 493 554 493 460 C493 365 431 305 331 305 L331 305 Z " />
<glyph glyph-name="Q" unicode="Q" horiz-adv-x="786" d="M736 325 C736 515 590 662 393 662 C196 662 50 515 50 325 C50 135 196 -12 393 -12 C428 -12 461 -7 492 1 L616 -135 L661 -135 L663 -131 L531 14 C654 65 736 183 736 325 L736 325 Z M89 325 C89 495 220 625 393 625 C566 625 696 495 696 325 C696 155 566 25 393 25 C220 25 89 155 89 325 L89 325 Z " />
<glyph glyph-name="R" unicode="R" horiz-adv-x="603" d="M550 470 C550 580 470 650 339 650 L100 650 L100 0 L140 0 L140 288 L339 288 L354 288 L503 0 L539 0 L542 4 L393 292 C492 310 550 375 550 470 L550 470 Z M140 322 L140 615 L346 615 C447 615 510 556 510 470 C510 383 447 322 346 322 L140 322 Z " />
<glyph glyph-name="S" unicode="S" horiz-adv-x="520" d="M270 -12 C389 -12 476 59 476 164 C476 290 355 321 250 363 C170 396 111 429 111 501 C111 572 174 625 266 625 C329 625 387 599 427 548 L431 548 L455 570 L455 574 C408 634 341 662 266 662 C149 662 70 592 70 498 C70 399 152 360 231 327 C330 287 435 263 435 161 C435 83 366 25 266 25 C186 25 108 68 63 134 L59 134 L33 112 L33 108 C81 35 176 -12 270 -12 L270 -12 Z " />
<glyph glyph-name="T" unicode="T" horiz-adv-x="522" d="M279 615 L507 615 L507 650 L14 650 L14 615 L240 615 L240 0 L279 0 L279 615 Z " />
<glyph glyph-name="U" unicode="U" horiz-adv-x="707" d="M91 650 L91 254 C91 94 196 -12 354 -12 C511 -12 616 94 616 254 L616 650 L578 650 L578 255 C578 117 488 24 354 24 C220 24 130 117 130 255 L130 650 L91 650 Z " />
<glyph glyph-name="V" unicode="V" horiz-adv-x="636" d="M610 650 L571 650 L318 66 L66 650 L27 650 L24 646 L306 0 L330 0 L612 646 L610 650 Z " />
<glyph glyph-name="W" unicode="W" horiz-adv-x="939" d="M910 650 L874 650 L666 72 L482 650 L457 650 L275 75 L68 650 L29 650 L26 646 L263 0 L287 0 L469 570 L652 0 L676 0 L913 646 L910 650 Z " />
<glyph glyph-name="X" unicode="X" horiz-adv-x="561" d="M305 328 L535 646 L533 650 L491 650 L282 359 L71 650 L29 650 L26 646 L257 328 L14 4 L16 0 L58 0 L279 298 L502 0 L545 0 L547 4 L305 328 Z " />
<glyph glyph-name="Y" unicode="Y" horiz-adv-x="606" d="M573 646 L571 650 L532 650 L304 285 L75 650 L33 650 L31 646 L284 248 L284 0 L323 0 L323 249 L573 646 Z " />
<glyph glyph-name="Z" unicode="Z" horiz-adv-x="534" d="M76 34 L491 626 L491 650 L45 650 L45 616 L440 616 L24 24 L24 0 L512 0 L512 34 L76 34 Z " />
<glyph glyph-name="bracketleft" unicode="&#x5b;" horiz-adv-x="262" d="M235 705 L235 738 L96 738 L96 -116 L235 -116 L235 -83 L134 -83 L134 705 L235 705 Z " />
<glyph glyph-name="backslash" unicode="&#x5c;" horiz-adv-x="484" d="M60 704 L26 704 L23 700 L424 -53 L459 -53 L461 -49 L60 704 Z " />
<glyph glyph-name="bracketright" unicode="&#x5d;" horiz-adv-x="262" d="M27 705 L128 705 L128 -83 L27 -83 L27 -116 L166 -116 L166 738 L27 738 L27 705 Z " />
<glyph glyph-name="asciicircum" unicode="&#x5e;" horiz-adv-x="572" d="M299 650 L275 650 L35 276 L38 272 L74 272 L286 604 L497 272 L534 272 L536 276 L299 650 Z " />
<glyph glyph-name="underscore" unicode="&#x5f;" horiz-adv-x="506" d="M41 -66 L41 -98 L465 -98 L465 -66 L41 -66 Z " />
<glyph glyph-name="grave" unicode="&#x60;" horiz-adv-x="267" d="M67 711 L64 711 L40 682 L40 679 L209 559 L212 559 L227 579 L227 582 L67 711 Z " />
<glyph glyph-name="a" unicode="a" horiz-adv-x="536" d="M258 512 C184 512 112 480 65 433 L65 429 L82 406 L87 406 C131 449 194 477 258 477 C356 477 420 416 420 328 L420 259 C372 286 309 305 243 305 C122 305 39 241 39 145 C39 51 117 -12 230 -12 C309 -12 382 22 420 84 L420 0 L457 0 L457 323 C457 438 382 512 258 512 L258 512 Z M231 23 C140 23 78 72 78 144 C78 221 145 271 244 271 C311 271 379 247 420 223 L420 178 C420 79 328 23 231 23 L231 23 Z " />
<glyph glyph-name="b" unicode="b" horiz-adv-x="635" d="M337 512 C242 512 166 464 124 391 L124 679 L119 682 L86 677 L86 0 L124 0 L124 112 C165 38 241 -12 337 -12 C485 -12 588 103 588 250 C588 397 485 512 337 512 L337 512 Z M335 23 C212 23 121 115 121 250 C121 386 212 477 335 477 C462 477 549 376 549 250 C549 123 462 23 335 23 L335 23 Z " />
<glyph glyph-name="c" unicode="c" horiz-adv-x="547" d="M305 -12 C396 -12 471 30 514 89 L514 93 L491 111 L487 111 C446 56 382 23 308 23 C175 23 85 122 85 250 C85 379 177 477 307 477 C384 477 446 442 487 389 L491 389 L514 407 L514 411 C471 470 396 512 305 512 C155 512 46 398 46 250 C46 102 155 -12 305 -12 L305 -12 Z " />
<glyph glyph-name="d" unicode="d" horiz-adv-x="634" d="M544 682 L511 677 L511 390 C469 464 392 512 297 512 C150 512 46 397 46 250 C46 103 150 -12 297 -12 C394 -12 470 39 511 114 L511 0 L548 0 L548 679 L544 682 Z M299 23 C172 23 85 123 85 250 C85 376 172 477 300 477 C422 477 513 386 513 250 C513 115 422 23 299 23 L299 23 Z " />
<glyph glyph-name="e" unicode="e" horiz-adv-x="574" d="M532 237 C532 242 533 247 533 254 C533 315 515 371 483 414 C444 474 378 512 293 512 C147 512 47 398 47 250 C47 89 165 -12 302 -12 C387 -12 473 28 519 92 L519 97 L496 116 L492 116 C452 60 376 23 302 23 C187 23 92 106 86 237 L532 237 Z M294 477 C370 477 425 442 458 387 C478 355 490 316 493 272 L86 272 C93 392 176 477 294 477 L294 477 Z " />
<glyph glyph-name="f" unicode="f" horiz-adv-x="314" d="M353 669 C327 683 297 692 264 692 C183 692 112 641 112 519 L112 500 L24 500 L24 466 L112 466 L112 0 L150 0 L150 466 L310 466 L310 500 L150 500 L150 519 C150 617 199 658 265 658 C290 658 313 651 336 638 L340 640 L354 665 L353 669 Z " />
<glyph glyph-name="g" unicode="g" horiz-adv-x="602" d="M480 500 L480 403 C441 468 370 512 282 512 C147 512 48 410 48 281 C48 151 147 50 282 50 C369 50 440 93 479 158 L479 66 C479 -56 402 -125 286 -125 C198 -125 130 -86 91 -27 L87 -27 L63 -46 L63 -50 C109 -119 189 -160 284 -160 C420 -160 517 -82 517 66 L517 500 L480 500 Z M283 85 C166 85 87 169 87 281 C87 392 167 477 283 477 C399 477 480 392 480 281 C480 168 399 85 283 85 L283 85 Z " />
<glyph glyph-name="h" unicode="h" horiz-adv-x="587" d="M308 512 C224 512 158 472 124 412 L124 679 L119 682 L86 677 L86 0 L124 0 L124 303 C124 402 196 477 303 477 C404 477 471 411 471 309 L471 0 L509 0 L509 311 C509 432 427 512 308 512 L308 512 Z " />
<glyph glyph-name="i" unicode="i" horiz-adv-x="215" d="M107 589 C129 589 148 607 148 630 C148 652 129 670 107 670 C85 670 66 652 66 630 C66 607 85 589 107 589 L107 589 Z M88 0 L126 0 L126 500 L88 500 L88 0 Z " />
<glyph glyph-name="j" unicode="j" horiz-adv-x="209" d="M105 589 C127 589 146 607 146 630 C146 652 127 670 105 670 C83 670 64 652 64 630 C64 607 83 589 105 589 L105 589 Z M86 500 L86 2 C86 -71 59 -102 15 -130 L15 -134 L29 -160 L33 -160 C88 -127 124 -88 124 4 L124 500 L86 500 Z " />
<glyph glyph-name="k" unicode="k" horiz-adv-x="481" d="M247 279 L464 496 L461 500 L419 500 L124 204 L124 679 L119 682 L86 677 L86 0 L124 0 L124 155 L221 252 L429 0 L470 0 L472 4 L247 279 Z " />
<glyph glyph-name="l" unicode="l" horiz-adv-x="215" d="M88 0 L126 0 L126 679 L122 682 L88 677 L88 0 Z " />
<glyph glyph-name="m" unicode="m" horiz-adv-x="953" d="M682 512 C589 512 518 462 487 389 C462 465 398 512 307 512 C221 512 155 470 122 407 L122 500 L86 500 L86 0 L124 0 L124 303 C124 402 197 477 303 477 C402 477 461 411 461 309 L461 0 L499 0 L499 303 C499 402 572 477 678 477 C777 477 836 411 836 309 L836 0 L875 0 L875 311 C875 432 801 512 682 512 L682 512 Z " />
<glyph glyph-name="n" unicode="n" horiz-adv-x="587" d="M308 512 C221 512 155 470 122 407 L122 500 L86 500 L86 0 L124 0 L124 303 C124 402 196 477 303 477 C404 477 471 411 471 309 L471 0 L509 0 L509 311 C509 432 428 512 308 512 L308 512 Z " />
<glyph glyph-name="o" unicode="o" horiz-adv-x="622" d="M311 -12 C463 -12 576 102 576 250 C576 398 463 512 311 512 C159 512 46 398 46 250 C46 102 159 -12 311 -12 L311 -12 Z M311 23 C180 23 85 121 85 250 C85 379 181 477 311 477 C441 477 537 379 537 250 C537 121 441 23 311 23 L311 23 Z " />
<glyph glyph-name="p" unicode="p" horiz-adv-x="635" d="M337 512 C241 512 164 463 122 387 L122 500 L86 500 L86 -150 L124 -150 L124 110 C166 37 241 -12 337 -12 C485 -12 588 103 588 250 C588 397 485 512 337 512 L337 512 Z M335 23 C212 23 121 115 121 250 C121 386 212 477 335 477 C462 477 549 376 549 250 C549 123 462 23 335 23 L335 23 Z " />
<glyph glyph-name="q" unicode="q" horiz-adv-x="634" d="M512 500 L512 387 C470 463 393 512 297 512 C150 512 46 397 46 250 C46 103 150 -12 297 -12 C394 -12 470 38 511 112 L511 -150 L548 -150 L548 500 L512 500 Z M299 23 C172 23 85 123 85 250 C85 376 172 477 299 477 C422 477 513 386 513 250 C513 115 422 23 299 23 L299 23 Z " />
<glyph glyph-name="r" unicode="r" horiz-adv-x="336" d="M332 499 C313 508 292 512 270 512 C207 512 151 471 122 403 L122 500 L86 500 L86 0 L124 0 L124 288 C124 400 191 476 266 476 C284 476 301 473 316 465 L320 467 L333 495 L332 499 Z " />
<glyph glyph-name="s" unicode="s" horiz-adv-x="421" d="M208 -12 C309 -12 378 42 378 123 C378 225 285 254 199 289 C145 310 101 335 101 388 C101 441 148 477 213 477 C266 477 311 452 341 409 L345 409 L369 427 L369 431 C337 481 278 512 214 512 C129 512 63 462 63 385 C63 314 121 282 180 258 C256 227 339 202 339 123 C339 62 285 23 206 23 C139 23 88 54 58 103 L54 103 L30 85 L30 81 C67 24 127 -12 208 -12 L208 -12 Z " />
<glyph glyph-name="t" unicode="t" horiz-adv-x="329" d="M313 46 L309 47 C291 30 265 23 241 23 C178 23 143 61 143 134 L143 466 L307 466 L307 500 L143 500 L143 659 L138 662 L105 657 L105 500 L15 500 L15 466 L105 466 L105 132 C105 39 155 -12 239 -12 C275 -12 303 -1 326 17 L327 22 L313 46 Z " />
<glyph glyph-name="u" unicode="u" horiz-adv-x="576" d="M452 500 L452 197 C452 98 382 23 275 23 C183 23 116 89 116 189 L116 500 L78 500 L78 189 C78 66 160 -12 270 -12 C355 -12 420 29 453 91 L453 0 L490 0 L490 500 L452 500 Z " />
<glyph glyph-name="v" unicode="v" horiz-adv-x="513" d="M491 500 L456 500 L257 61 L60 500 L22 500 L20 496 L246 0 L268 0 L493 496 L491 500 Z " />
<glyph glyph-name="w" unicode="w" horiz-adv-x="737" d="M713 500 L676 500 L529 71 L381 500 L356 500 L208 73 L61 500 L25 500 L22 496 L197 0 L219 0 L368 429 L517 0 L539 0 L715 496 L713 500 Z " />
<glyph glyph-name="x" unicode="x" horiz-adv-x="473" d="M258 253 L449 496 L446 500 L408 500 L238 279 L67 500 L27 500 L25 496 L213 253 L16 4 L18 0 L56 0 L234 226 L416 0 L455 0 L458 4 L258 253 Z " />
<glyph glyph-name="y" unicode="y" horiz-adv-x="505" d="M482 500 L446 500 L254 61 L62 500 L25 500 L22 496 L233 16 L197 -64 C177 -111 151 -127 120 -127 C103 -127 85 -120 70 -110 L66 -111 L53 -137 L54 -141 C70 -152 94 -160 120 -160 C168 -160 203 -137 233 -70 L485 496 L482 500 Z " />
<glyph glyph-name="z" unicode="z" horiz-adv-x="454" d="M26 0 L430 0 L430 32 L75 32 L411 473 L411 500 L43 500 L43 468 L363 468 L26 27 L26 0 Z " />
<glyph glyph-name="braceleft" unicode="&#x7b;" horiz-adv-x="267" d="M230 -116 L248 -116 L248 -83 L231 -83 C151 -83 128 -53 128 51 L128 239 C128 282 112 311 89 311 C112 311 128 340 128 383 L128 571 C128 675 151 705 231 705 L248 705 L248 738 L230 738 C125 738 90 696 90 570 L90 427 C90 360 90 326 35 326 L35 296 C90 296 90 262 90 195 L90 52 C90 -74 125 -116 230 -116 L230 -116 Z " />
<glyph glyph-name="bar" unicode="&#x7c;" horiz-adv-x="227" d="M96 -146 L131 -146 L131 708 L96 708 L96 -146 Z " />
<glyph glyph-name="braceright" unicode="&#x7d;" horiz-adv-x="267" d="M139 383 C139 340 154 311 178 311 C154 311 139 282 139 239 L139 51 C139 -53 116 -83 35 -83 L19 -83 L19 -116 L36 -116 C142 -116 177 -74 177 52 L177 195 C177 262 177 296 232 296 L232 326 C177 326 177 360 177 427 L177 570 C177 696 142 738 36 738 L19 738 L19 705 L35 705 C116 705 139 675 139 571 L139 383 Z " />
<glyph glyph-name="asciitilde" unicode="&#x7e;" horiz-adv-x="567" d="M405 290 C458 290 478 312 494 331 L494 334 L474 360 L471 360 C458 340 438 325 405 325 C324 325 247 360 167 360 C116 360 90 338 74 319 L74 316 L94 290 L97 290 C110 310 139 325 167 325 C242 325 324 290 405 290 L405 290 Z " />
<glyph glyph-name="exclamdown" unicode="&#xa1;" horiz-adv-x="223" d="M111 431 C134 431 152 449 152 471 C152 494 134 512 111 512 C89 512 71 494 71 471 C71 449 89 431 111 431 L111 431 Z M92 -150 L131 -150 L134 -147 L129 377 L126 381 L97 381 L95 377 L89 -147 L92 -150 Z " />
<glyph glyph-name="cent" unicode="&#xa2;" horiz-adv-x="558" d="M308 551 C385 551 447 517 488 464 L492 464 L515 482 L515 486 C473 543 402 585 315 587 L315 660 L280 660 L280 586 C145 572 48 464 48 325 C48 186 144 77 280 64 L280 -12 L315 -12 L315 63 C401 66 473 107 515 164 L515 168 L492 187 L488 187 C447 131 384 100 310 100 C177 100 88 198 88 325 C88 453 179 551 308 551 L308 551 Z " />
<glyph glyph-name="sterling" unicode="&#xa3;" horiz-adv-x="515" d="M303 626 C365 626 413 599 451 557 L455 557 L478 578 L478 582 C431 634 373 662 303 662 C197 662 111 596 111 475 L111 349 L51 349 L51 314 L111 314 L111 35 L45 35 L45 0 L478 0 L478 35 L150 35 L150 314 L353 314 L353 349 L150 349 L150 477 C150 574 217 626 303 626 L303 626 Z " />
<glyph glyph-name="currency" unicode="&#xa4;" horiz-adv-x="657" d="M522 168 C562 214 581 270 581 328 C581 385 562 441 523 488 L586 550 L559 576 L497 514 C449 556 389 578 328 578 C268 578 208 557 160 515 L99 576 L72 550 L133 489 C95 442 76 385 76 327 C76 270 95 213 134 167 L71 105 L99 79 L161 141 C208 99 267 78 328 78 C389 78 448 99 497 141 L559 79 L586 105 L522 168 Z M328 115 C208 115 115 208 115 328 C115 448 208 541 328 541 C450 541 541 448 541 328 C541 208 450 115 328 115 L328 115 Z " />
<glyph glyph-name="yen" unicode="&#xa5;" horiz-adv-x="594" d="M568 646 L566 650 L527 650 L299 285 L70 650 L28 650 L26 646 L270 261 L137 261 L137 232 L279 232 L279 145 L137 145 L137 115 L279 115 L279 0 L318 0 L318 115 L459 115 L459 145 L318 145 L318 232 L459 232 L459 261 L325 261 L568 646 Z " />
<glyph glyph-name="brokenbar" unicode="&#xa6;" horiz-adv-x="227" d="M96 708 L96 341 L131 341 L131 708 L96 708 Z M96 241 L96 -146 L131 -146 L131 241 L96 241 Z " />
<glyph glyph-name="section" unicode="&#xa7;" horiz-adv-x="530" d="M427 559 L431 559 L453 581 L453 585 C403 637 337 662 265 662 C158 662 78 607 78 523 C78 477 104 444 140 418 C101 394 78 357 78 311 C78 221 172 181 268 141 C360 103 435 70 435 -2 C435 -68 372 -117 266 -117 C176 -117 106 -82 62 -23 L58 -23 L34 -44 L34 -48 C82 -115 173 -152 270 -152 C396 -152 476 -92 476 -2 C476 44 454 77 422 102 C456 127 476 165 476 210 C476 303 389 342 293 382 C203 421 119 453 119 525 C119 588 185 628 264 628 C327 628 385 603 427 559 L427 559 Z M119 313 C119 350 142 380 178 397 C284 337 435 311 435 209 C435 176 418 145 386 124 C281 188 119 213 119 313 L119 313 Z " />
<glyph glyph-name="dieresis" unicode="&#xa8;" horiz-adv-x="340" d="M98 589 C120 589 138 607 138 630 C138 652 120 670 98 670 C75 670 57 652 57 630 C57 607 75 589 98 589 L98 589 Z M243 589 C265 589 283 607 283 630 C283 652 265 670 243 670 C220 670 202 652 202 630 C202 607 220 589 243 589 L243 589 Z " />
<glyph glyph-name="copyright" unicode="&#xa9;" horiz-adv-x="777" d="M389 -12 C584 -12 727 139 727 325 C727 511 584 662 389 662 C193 662 51 511 51 325 C51 139 193 -12 389 -12 L389 -12 Z M389 22 C214 22 86 157 86 325 C86 493 214 628 389 628 C563 628 691 493 691 325 C691 157 563 22 389 22 L389 22 Z M393 127 C460 127 519 157 553 204 L552 208 L531 226 L527 226 C497 184 453 162 394 162 C293 162 232 232 232 325 C232 419 294 489 394 489 C452 489 496 467 527 425 L531 425 L552 443 L553 447 C519 494 460 523 393 523 C278 523 195 437 195 325 C195 213 278 127 393 127 L393 127 Z " />
<glyph glyph-name="ordfeminine" unicode="&#xaa;" horiz-adv-x="388" d="M191 661 C137 661 88 635 63 604 L63 601 L79 583 L83 583 C104 608 144 629 191 629 C243 629 286 598 286 543 L286 516 C256 528 218 537 181 537 C115 537 53 506 53 438 C53 379 103 339 173 339 C220 339 263 359 286 393 L286 343 L318 343 L318 549 C318 622 258 661 191 661 L191 661 Z M174 370 C122 370 88 397 88 438 C88 482 128 507 181 507 C221 507 259 497 284 485 L284 463 C284 407 233 370 174 370 L174 370 Z " />
<glyph glyph-name="guillemotleft" unicode="&#xab;" horiz-adv-x="428" d="M212 444 L212 446 L191 467 L187 467 L46 305 L46 295 L187 134 L191 134 L212 154 L212 157 L88 301 L212 444 Z M362 446 L341 467 L337 467 L196 305 L196 295 L337 134 L341 134 L362 154 L362 157 L238 301 L362 444 L362 446 Z " />
<glyph glyph-name="registered" unicode="&#xae;" horiz-adv-x="446" d="M223 663 C124 663 51 587 51 492 C51 396 124 320 223 320 C322 320 396 396 396 492 C396 587 322 663 223 663 L223 663 Z M223 346 C140 346 78 410 78 492 C78 573 140 637 223 637 C307 637 368 573 368 492 C368 410 307 346 223 346 L223 346 Z M298 536 C298 573 272 595 228 595 L154 595 L154 395 L181 395 L181 479 L229 479 L273 395 L304 395 L258 482 C281 490 298 511 298 536 L298 536 Z M181 571 L231 571 C256 571 270 556 270 536 C270 516 255 501 231 501 L181 501 L181 571 Z " />
<glyph glyph-name="macron" unicode="&#xaf;" horiz-adv-x="528" d="M129 634 L129 601 L399 601 L399 634 L129 634 Z " />
<glyph glyph-name="degree" unicode="&#xb0;" horiz-adv-x="353" d="M177 404 C250 404 306 463 306 533 C306 605 249 662 177 662 C106 662 48 605 48 533 C48 462 106 404 177 404 L177 404 Z M177 436 C124 436 81 480 81 533 C81 586 124 630 177 630 C230 630 272 586 272 533 C272 479 230 436 177 436 L177 436 Z " />
<glyph glyph-name="plusminus" unicode="&#xb1;" horiz-adv-x="569" d="M303 331 L303 534 L267 534 L267 331 L53 331 L53 298 L267 298 L267 93 L303 93 L303 298 L515 298 L515 331 L303 331 Z M53 0 L515 0 L515 34 L53 34 L53 0 Z " />
<glyph glyph-name="acute" unicode="&#xb4;" horiz-adv-x="267" d="M201 711 L40 582 L40 579 L55 559 L58 559 L227 679 L227 682 L204 711 L201 711 Z " />
<glyph glyph-name="paragraph" unicode="&#xb6;" horiz-adv-x="608" d="M577 674 L577 708 L293 708 C142 708 31 655 31 499 C31 343 142 286 293 286 L320 286 L320 -143 L354 -143 L354 674 L577 674 Z M494 586 L494 -143 L460 -143 L460 586 L494 586 Z " />
<glyph glyph-name="periodcentered" unicode="&#xb7;" horiz-adv-x="225" d="M113 236 C137 236 157 256 157 281 C157 305 137 325 113 325 C88 325 68 305 68 281 C68 256 88 236 113 236 L113 236 Z " />
<glyph glyph-name="cedilla" unicode="&#xb8;" horiz-adv-x="285" d="M132 -194 C191 -194 226 -165 226 -121 C226 -74 188 -51 128 -53 L140 -1 L140 12 L101 12 L101 -1 L80 -77 L95 -85 C143 -77 188 -86 188 -122 C188 -148 167 -163 130 -163 C103 -163 79 -154 61 -139 L57 -139 L42 -161 L42 -165 C65 -183 100 -194 132 -194 L132 -194 Z " />
<glyph glyph-name="ordmasculine" unicode="&#xba;" horiz-adv-x="420" d="M210 340 C304 340 374 408 374 501 C374 593 304 662 210 662 C117 662 47 593 47 501 C47 408 117 340 210 340 L210 340 Z M210 372 C136 372 82 427 82 501 C82 575 136 630 210 630 C285 630 338 575 338 501 C338 427 284 372 210 372 L210 372 Z " />
<glyph glyph-name="guillemotright" unicode="&#xbb;" horiz-adv-x="428" d="M232 305 L91 467 L87 467 L66 446 L66 444 L190 301 L66 157 L66 154 L87 134 L91 134 L232 295 L232 305 Z M241 467 L237 467 L216 446 L216 444 L340 301 L216 157 L216 154 L237 134 L241 134 L382 295 L382 305 L241 467 Z " />
<glyph glyph-name="onequarter" unicode="&#xbc;" horiz-adv-x="627" d="M116 280 L154 280 L154 650 L44 650 L44 617 L116 617 L116 280 Z M45 4 L47 0 L82 0 L581 646 L579 650 L544 650 L45 4 Z M496 0 L530 0 L530 90 L576 90 L576 122 L530 122 L530 366 L504 366 L306 115 L306 90 L496 90 L496 0 Z M348 122 L496 305 L496 122 L348 122 Z " />
<glyph glyph-name="onehalf" unicode="&#xbd;" horiz-adv-x="683" d="M38 4 L40 0 L75 0 L574 646 L572 650 L537 650 L38 4 Z M131 280 L169 280 L169 650 L59 650 L59 617 L131 617 L131 280 Z M398 0 L642 0 L642 33 L459 33 C498 71 531 104 557 131 C605 182 632 219 632 259 C632 323 588 366 521 366 C474 366 432 342 404 313 L404 309 L423 290 L427 290 C452 316 483 333 520 333 C565 333 597 304 597 260 C597 227 572 195 531 152 C498 118 453 77 398 22 L398 0 Z " />
<glyph glyph-name="threequarters" unicode="&#xbe;" horiz-adv-x="714" d="M206 485 C241 501 265 530 265 569 C265 624 220 662 155 662 C116 662 76 645 50 618 L50 614 L66 598 L70 598 C90 618 121 632 153 632 C200 632 230 606 230 567 C230 526 193 496 150 496 L119 496 L119 469 L146 469 C204 469 245 436 245 388 C245 341 207 308 154 308 C118 308 77 326 55 353 L51 353 L34 336 L34 332 C61 300 110 278 154 278 C229 278 280 323 280 387 C280 434 251 470 206 485 L206 485 Z M134 4 L136 0 L171 0 L670 646 L668 650 L633 650 L134 4 Z M584 0 L618 0 L618 90 L663 90 L663 122 L618 122 L618 366 L592 366 L394 115 L394 90 L584 90 L584 0 Z M436 122 L584 305 L584 122 L436 122 Z " />
<glyph glyph-name="questiondown" unicode="&#xbf;" horiz-adv-x="473" d="M236 437 C258 437 276 455 276 477 C276 500 258 518 236 518 C213 518 195 500 195 477 C195 455 213 437 236 437 L236 437 Z M245 -156 C341 -156 424 -89 447 5 L446 9 L415 17 L411 16 C390 -64 321 -120 245 -120 C146 -120 79 -64 79 20 C79 95 137 137 184 185 C226 225 254 267 254 332 L254 382 L217 382 L217 331 C217 279 195 245 156 208 C105 157 39 108 39 20 C39 -86 122 -156 245 -156 L245 -156 Z " />
<glyph glyph-name="Agrave" unicode="&#xc0;" horiz-adv-x="651" d="M404 708 L418 728 L418 731 L243 844 L239 844 L220 814 L220 811 L401 708 L404 708 Z M338 650 L314 650 L23 4 L26 0 L62 0 L134 161 L516 161 L588 0 L625 0 L628 4 L338 650 Z M150 196 L325 590 L501 196 L150 196 Z " />
<glyph glyph-name="Aacute" unicode="&#xc1;" horiz-adv-x="651" d="M244 708 L426 811 L426 814 L406 844 L403 844 L228 731 L228 728 L241 708 L244 708 Z M338 650 L314 650 L23 4 L26 0 L62 0 L134 161 L516 161 L588 0 L625 0 L628 4 L338 650 Z M150 196 L325 590 L501 196 L150 196 Z " />
<glyph glyph-name="Acircumflex" unicode="&#xc2;" horiz-adv-x="651" d="M198 719 L326 791 L453 719 L456 719 L471 741 L471 744 L328 833 L322 833 L179 744 L179 741 L195 719 L198 719 Z M338 650 L314 650 L23 4 L26 0 L62 0 L134 161 L516 161 L588 0 L625 0 L628 4 L338 650 Z M150 196 L325 590 L501 196 L150 196 Z " />
<glyph glyph-name="Atilde" unicode="&#xc3;" horiz-adv-x="651" d="M196 730 C205 753 229 766 255 766 C307 766 349 730 397 730 C427 730 454 742 465 764 L465 798 L461 801 L458 801 C449 779 425 765 399 765 C356 765 308 801 257 801 C227 801 200 789 190 767 L190 733 L193 730 L196 730 Z M338 650 L314 650 L23 4 L26 0 L62 0 L134 161 L516 161 L588 0 L625 0 L628 4 L338 650 Z M150 196 L325 590 L501 196 L150 196 Z " />
<glyph glyph-name="Adieresis" unicode="&#xc4;" horiz-adv-x="651" d="M243 731 C266 731 285 749 285 772 C285 795 266 813 243 813 C220 813 202 795 202 772 C202 749 220 731 243 731 L243 731 Z M408 731 C431 731 450 749 450 772 C450 795 431 813 408 813 C385 813 367 795 367 772 C367 749 385 731 408 731 L408 731 Z M338 650 L314 650 L23 4 L26 0 L62 0 L134 161 L516 161 L588 0 L625 0 L628 4 L338 650 Z M150 196 L325 590 L501 196 L150 196 Z " />
<glyph glyph-name="Aring" unicode="&#xc5;" horiz-adv-x="651" d="M326 704 C374 704 412 741 412 788 C412 834 374 871 326 871 C278 871 240 834 240 788 C240 741 278 704 326 704 L326 704 Z M326 843 C360 843 381 816 381 788 C381 760 360 732 326 732 C292 732 271 760 271 788 C271 816 292 843 326 843 L326 843 Z M338 650 L314 650 L23 4 L26 0 L62 0 L134 161 L516 161 L588 0 L625 0 L628 4 L338 650 Z M150 196 L325 590 L501 196 L150 196 Z " />
<glyph glyph-name="AE" unicode="&#xc6;" horiz-adv-x="923" d="M881 615 L881 650 L447 650 L-9 4 L-7 0 L32 0 L147 161 L465 161 L465 0 L881 0 L881 35 L505 35 L505 311 L803 311 L803 346 L505 346 L505 615 L881 615 Z M171 196 L465 609 L465 196 L171 196 Z " />
<glyph glyph-name="Ccedilla" unicode="&#xc7;" horiz-adv-x="693" d="M390 625 C487 625 573 582 626 514 L630 514 L656 534 L656 538 C596 614 500 662 391 662 C196 662 50 515 50 325 C50 144 183 2 364 -11 L346 -76 L361 -84 C409 -76 454 -85 454 -121 C454 -147 433 -162 396 -162 C369 -162 345 -153 327 -138 L323 -138 L308 -160 L308 -164 C331 -182 366 -193 398 -193 C457 -193 492 -164 492 -120 C492 -73 454 -50 394 -52 L403 -12 C507 -8 598 39 656 112 L656 116 L630 136 L626 136 C573 68 487 25 390 25 C221 25 90 155 90 325 C90 495 221 625 390 625 L390 625 Z " />
<glyph glyph-name="Egrave" unicode="&#xc8;" horiz-adv-x="559" d="M232 844 L228 844 L209 814 L209 811 L390 708 L393 708 L407 728 L407 731 L232 844 Z M516 615 L516 650 L100 650 L100 0 L516 0 L516 35 L140 35 L140 311 L438 311 L438 346 L140 346 L140 615 L516 615 Z " />
<glyph glyph-name="Eacute" unicode="&#xc9;" horiz-adv-x="559" d="M388 844 L213 731 L213 728 L226 708 L229 708 L411 811 L411 814 L391 844 L388 844 Z M516 615 L516 650 L100 650 L100 0 L516 0 L516 35 L140 35 L140 311 L438 311 L438 346 L140 346 L140 615 L516 615 Z " />
<glyph glyph-name="Ecircumflex" unicode="&#xca;" horiz-adv-x="559" d="M180 719 L308 791 L435 719 L438 719 L453 741 L453 744 L310 833 L304 833 L161 744 L161 741 L177 719 L180 719 Z M516 615 L516 650 L100 650 L100 0 L516 0 L516 35 L140 35 L140 311 L438 311 L438 346 L140 346 L140 615 L516 615 Z " />
<glyph glyph-name="Edieresis" unicode="&#xcb;" horiz-adv-x="559" d="M225 731 C248 731 267 749 267 772 C267 795 248 813 225 813 C202 813 184 795 184 772 C184 749 202 731 225 731 L225 731 Z M390 731 C413 731 432 749 432 772 C432 795 413 813 390 813 C367 813 349 795 349 772 C349 749 367 731 390 731 L390 731 Z M516 615 L516 650 L100 650 L100 0 L516 0 L516 35 L140 35 L140 311 L438 311 L438 346 L140 346 L140 615 L516 615 Z " />
<glyph glyph-name="Igrave" unicode="&#xcc;" horiz-adv-x="240" d="M44 844 L40 844 L21 814 L21 811 L202 708 L205 708 L219 728 L219 731 L44 844 Z M100 650 L100 0 L140 0 L140 650 L100 650 Z " />
<glyph glyph-name="Iacute" unicode="&#xcd;" horiz-adv-x="240" d="M190 844 L15 731 L15 728 L28 708 L31 708 L213 811 L213 814 L193 844 L190 844 Z M100 650 L100 0 L140 0 L140 650 L100 650 Z " />
<glyph glyph-name="Icircumflex" unicode="&#xce;" horiz-adv-x="240" d="M121 833 L115 833 L-28 744 L-28 741 L-12 719 L-9 719 L119 791 L246 719 L249 719 L264 741 L264 744 L121 833 Z M100 0 L140 0 L140 650 L100 650 L100 0 Z " />
<glyph glyph-name="Idieresis" unicode="&#xcf;" horiz-adv-x="240" d="M37 731 C60 731 79 749 79 772 C79 795 60 813 37 813 C14 813 -4 795 -4 772 C-4 749 14 731 37 731 L37 731 Z M202 731 C225 731 244 749 244 772 C244 795 225 813 202 813 C179 813 161 795 161 772 C161 749 179 731 202 731 L202 731 Z M100 650 L100 0 L140 0 L140 650 L100 650 Z " />
<glyph glyph-name="Eth" unicode="&#xd0;" horiz-adv-x="726" d="M341 650 L107 650 L107 345 L18 345 L18 311 L107 311 L107 0 L341 0 C548 0 674 131 674 325 C674 519 548 650 341 650 L341 650 Z M342 35 L147 35 L147 311 L355 311 L355 345 L147 345 L147 615 L342 615 C524 615 635 499 635 325 C635 151 524 35 342 35 L342 35 Z " />
<glyph glyph-name="Ntilde" unicode="&#xd1;" horiz-adv-x="701" d="M215 730 C224 753 249 766 276 766 C330 766 373 730 423 730 C454 730 482 742 493 764 L493 798 L489 801 L486 801 C477 779 452 765 425 765 C380 765 331 801 278 801 C247 801 219 789 208 767 L208 733 L212 730 L215 730 Z M563 650 L563 64 L125 650 L100 650 L100 0 L139 0 L139 576 L577 -10 L601 -10 L601 650 L563 650 Z " />
<glyph glyph-name="Ograve" unicode="&#xd2;" horiz-adv-x="786" d="M317 844 L313 844 L294 814 L294 811 L475 708 L478 708 L492 728 L492 731 L317 844 Z M393 -12 C590 -12 736 135 736 325 C736 515 590 662 393 662 C196 662 50 515 50 325 C50 135 196 -12 393 -12 L393 -12 Z M393 25 C220 25 89 155 89 325 C89 495 220 625 393 625 C566 625 696 495 696 325 C696 155 566 25 393 25 L393 25 Z " />
<glyph glyph-name="Oacute" unicode="&#xd3;" horiz-adv-x="786" d="M473 844 L298 731 L298 728 L311 708 L314 708 L496 811 L496 814 L476 844 L473 844 Z M393 -12 C590 -12 736 135 736 325 C736 515 590 662 393 662 C196 662 50 515 50 325 C50 135 196 -12 393 -12 L393 -12 Z M393 25 C220 25 89 155 89 325 C89 495 220 625 393 625 C566 625 696 495 696 325 C696 155 566 25 393 25 L393 25 Z " />
<glyph glyph-name="Ocircumflex" unicode="&#xd4;" horiz-adv-x="786" d="M265 719 L393 791 L520 719 L523 719 L538 741 L538 744 L395 833 L389 833 L246 744 L246 741 L262 719 L265 719 Z M393 662 C196 662 50 515 50 325 C50 135 196 -12 393 -12 C590 -12 736 135 736 325 C736 515 590 662 393 662 L393 662 Z M393 25 C220 25 89 155 89 325 C89 495 220 625 393 625 C566 625 696 495 696 325 C696 155 566 25 393 25 L393 25 Z " />
<glyph glyph-name="Otilde" unicode="&#xd5;" horiz-adv-x="786" d="M465 730 C496 730 524 742 535 764 L535 798 L531 801 L528 801 C519 779 494 765 467 765 C422 765 373 801 320 801 C289 801 261 789 250 767 L250 733 L254 730 L257 730 C266 753 291 766 318 766 C372 766 415 730 465 730 L465 730 Z M393 -12 C590 -12 736 135 736 325 C736 515 590 662 393 662 C196 662 50 515 50 325 C50 135 196 -12 393 -12 L393 -12 Z M393 25 C220 25 89 155 89 325 C89 495 220 625 393 625 C566 625 696 495 696 325 C696 155 566 25 393 25 L393 25 Z " />
<glyph glyph-name="Odieresis" unicode="&#xd6;" horiz-adv-x="786" d="M310 731 C333 731 352 749 352 772 C352 795 333 813 310 813 C287 813 269 795 269 772 C269 749 287 731 310 731 L310 731 Z M475 731 C498 731 517 749 517 772 C517 795 498 813 475 813 C452 813 434 795 434 772 C434 749 452 731 475 731 L475 731 Z M393 -12 C590 -12 736 135 736 325 C736 515 590 662 393 662 C196 662 50 515 50 325 C50 135 196 -12 393 -12 L393 -12 Z M393 25 C220 25 89 155 89 325 C89 495 220 625 393 625 C566 625 696 495 696 325 C696 155 566 25 393 25 L393 25 Z " />
<glyph glyph-name="multiply" unicode="&#xd7;" horiz-adv-x="518" d="M76 120 L259 303 L443 119 L467 145 L284 328 L466 510 L443 534 L260 352 L77 535 L52 510 L235 326 L52 143 L76 120 Z " />
<glyph glyph-name="Oslash" unicode="&#xd8;" horiz-adv-x="786" d="M595 601 L664 704 L661 708 L624 708 L565 619 C515 647 457 662 393 662 C196 662 50 515 50 325 C50 210 103 111 189 51 L125 -45 L127 -49 L165 -49 L219 32 C269 4 328 -12 393 -12 C590 -12 736 135 736 325 C736 441 682 540 595 601 L595 601 Z M89 325 C89 495 220 625 393 625 C449 625 500 611 544 587 L210 83 C135 137 89 224 89 325 L89 325 Z M393 25 C336 25 284 39 240 64 L574 568 C649 515 696 427 696 325 C696 155 566 25 393 25 L393 25 Z " />
<glyph glyph-name="Ugrave" unicode="&#xd9;" horiz-adv-x="707" d="M278 844 L274 844 L255 814 L255 811 L436 708 L439 708 L453 728 L453 731 L278 844 Z M91 650 L91 254 C91 94 196 -12 354 -12 C511 -12 616 94 616 254 L616 650 L578 650 L578 255 C578 117 488 24 354 24 C220 24 130 117 130 255 L130 650 L91 650 Z " />
<glyph glyph-name="Uacute" unicode="&#xda;" horiz-adv-x="707" d="M433 844 L258 731 L258 728 L271 708 L274 708 L456 811 L456 814 L436 844 L433 844 Z M91 650 L91 254 C91 94 196 -12 354 -12 C511 -12 616 94 616 254 L616 650 L578 650 L578 255 C578 117 488 24 354 24 C220 24 130 117 130 255 L130 650 L91 650 Z " />
<glyph glyph-name="Ucircumflex" unicode="&#xdb;" horiz-adv-x="707" d="M226 719 L354 791 L481 719 L484 719 L499 741 L499 744 L356 833 L350 833 L207 744 L207 741 L223 719 L226 719 Z M578 650 L578 255 C578 117 488 24 354 24 C220 24 130 117 130 255 L130 650 L91 650 L91 254 C91 94 196 -12 354 -12 C511 -12 616 94 616 254 L616 650 L578 650 Z " />
<glyph glyph-name="Udieresis" unicode="&#xdc;" horiz-adv-x="707" d="M271 731 C294 731 313 749 313 772 C313 795 294 813 271 813 C248 813 230 795 230 772 C230 749 248 731 271 731 L271 731 Z M436 731 C459 731 478 749 478 772 C478 795 459 813 436 813 C413 813 395 795 395 772 C395 749 413 731 436 731 L436 731 Z M91 650 L91 254 C91 94 196 -12 354 -12 C511 -12 616 94 616 254 L616 650 L578 650 L578 255 C578 117 488 24 354 24 C220 24 130 117 130 255 L130 650 L91 650 Z " />
<glyph glyph-name="Yacute" unicode="&#xdd;" horiz-adv-x="606" d="M224 708 L406 811 L406 814 L386 844 L383 844 L208 731 L208 728 L221 708 L224 708 Z M573 646 L571 650 L532 650 L304 285 L75 650 L33 650 L31 646 L284 248 L284 0 L323 0 L323 249 L573 646 Z " />
<glyph glyph-name="Thorn" unicode="&#xde;" horiz-adv-x="578" d="M100 0 L140 0 L140 135 L323 135 C454 135 533 208 533 325 C533 442 454 515 323 515 L140 515 L140 650 L100 650 L100 0 Z M140 170 L140 480 L331 480 C431 480 493 419 493 325 C493 230 431 170 331 170 L140 170 Z " />
<glyph glyph-name="germandbls" unicode="&#xdf;" horiz-adv-x="576" d="M389 369 C449 395 488 449 488 520 C488 621 409 692 293 692 C171 692 86 604 86 478 L86 0 L124 0 L124 476 C124 583 193 657 292 657 C385 657 449 600 449 518 C449 437 386 382 299 382 L272 382 L272 350 L300 350 C411 350 491 292 491 187 C491 84 418 22 315 22 C272 22 232 34 197 62 L193 61 L178 37 L180 33 C216 4 263 -12 317 -12 C441 -12 530 65 530 188 C530 282 477 346 389 369 L389 369 Z " />
<glyph glyph-name="agrave" unicode="&#xe0;" horiz-adv-x="536" d="M338 559 L353 579 L353 582 L193 711 L190 711 L166 682 L166 679 L335 559 L338 559 Z M258 512 C184 512 112 480 65 433 L65 429 L82 406 L87 406 C131 449 194 477 258 477 C356 477 420 416 420 328 L420 259 C372 286 309 305 243 305 C122 305 39 241 39 145 C39 51 117 -12 230 -12 C309 -12 382 22 420 84 L420 0 L457 0 L457 323 C457 438 382 512 258 512 L258 512 Z M231 23 C140 23 78 72 78 144 C78 221 145 271 244 271 C311 271 379 247 420 223 L420 178 C420 79 328 23 231 23 L231 23 Z " />
<glyph glyph-name="aacute" unicode="&#xe1;" horiz-adv-x="536" d="M184 559 L353 679 L353 682 L330 711 L327 711 L166 582 L166 579 L181 559 L184 559 Z M258 512 C184 512 112 480 65 433 L65 429 L82 406 L87 406 C131 449 194 477 258 477 C356 477 420 416 420 328 L420 259 C372 286 309 305 243 305 C122 305 39 241 39 145 C39 51 117 -12 230 -12 C309 -12 382 22 420 84 L420 0 L457 0 L457 323 C457 438 382 512 258 512 L258 512 Z M231 23 C140 23 78 72 78 144 C78 221 145 271 244 271 C311 271 379 247 420 223 L420 178 C420 79 328 23 231 23 L231 23 Z " />
<glyph glyph-name="acircumflex" unicode="&#xe2;" horiz-adv-x="536" d="M139 568 L260 641 L380 568 L384 568 L401 589 L401 592 L264 683 L255 683 L119 592 L119 589 L136 568 L139 568 Z M258 512 C184 512 112 480 65 433 L65 429 L82 406 L87 406 C131 449 194 477 258 477 C356 477 420 416 420 328 L420 259 C372 286 309 305 243 305 C122 305 39 241 39 145 C39 51 117 -12 230 -12 C309 -12 382 22 420 84 L420 0 L457 0 L457 323 C457 438 382 512 258 512 L258 512 Z M231 23 C140 23 78 72 78 144 C78 221 145 271 244 271 C311 271 379 247 420 223 L420 178 C420 79 328 23 231 23 L231 23 Z " />
<glyph glyph-name="atilde" unicode="&#xe3;" horiz-adv-x="536" d="M126 599 C135 619 161 633 191 633 C242 633 282 599 327 599 C360 599 387 612 398 632 L398 665 L395 667 L392 667 C384 647 361 633 328 633 C286 633 241 668 191 668 C161 668 131 655 120 634 L120 601 L124 599 L126 599 Z M258 512 C184 512 112 480 65 433 L65 429 L82 406 L87 406 C131 449 194 477 258 477 C356 477 420 416 420 328 L420 259 C372 286 309 305 243 305 C122 305 39 241 39 145 C39 51 117 -12 230 -12 C309 -12 382 22 420 84 L420 0 L457 0 L457 323 C457 438 382 512 258 512 L258 512 Z M231 23 C140 23 78 72 78 144 C78 221 145 271 244 271 C311 271 379 247 420 223 L420 178 C420 79 328 23 231 23 L231 23 Z " />
<glyph glyph-name="adieresis" unicode="&#xe4;" horiz-adv-x="536" d="M187 589 C209 589 227 607 227 630 C227 652 209 670 187 670 C164 670 146 652 146 630 C146 607 164 589 187 589 L187 589 Z M332 589 C354 589 372 607 372 630 C372 652 354 670 332 670 C309 670 291 652 291 630 C291 607 309 589 332 589 L332 589 Z M258 512 C184 512 112 480 65 433 L65 429 L82 406 L87 406 C131 449 194 477 258 477 C356 477 420 416 420 328 L420 259 C372 286 309 305 243 305 C122 305 39 241 39 145 C39 51 117 -12 230 -12 C309 -12 382 22 420 84 L420 0 L457 0 L457 323 C457 438 382 512 258 512 L258 512 Z M231 23 C140 23 78 72 78 144 C78 221 145 271 244 271 C311 271 379 247 420 223 L420 178 C420 79 328 23 231 23 L231 23 Z " />
<glyph glyph-name="aring" unicode="&#xe5;" horiz-adv-x="536" d="M260 552 C309 552 346 589 346 636 C346 683 309 720 260 720 C211 720 174 683 174 636 C174 589 211 552 260 552 L260 552 Z M260 690 C294 690 313 663 313 636 C313 609 294 582 260 582 C225 582 206 609 206 636 C206 663 225 690 260 690 L260 690 Z M258 512 C184 512 112 480 65 433 L65 429 L82 406 L87 406 C131 449 194 477 258 477 C356 477 420 416 420 328 L420 259 C372 286 309 305 243 305 C122 305 39 241 39 145 C39 51 117 -12 230 -12 C309 -12 382 22 420 84 L420 0 L457 0 L457 323 C457 438 382 512 258 512 L258 512 Z M231 23 C140 23 78 72 78 144 C78 221 145 271 244 271 C311 271 379 247 420 223 L420 178 C420 79 328 23 231 23 L231 23 Z " />
<glyph glyph-name="ae" unicode="&#xe6;" horiz-adv-x="949" d="M907 237 C907 242 908 247 908 254 C908 315 890 371 858 414 C819 474 753 512 668 512 C568 512 490 459 451 378 C430 461 361 512 258 512 C188 512 112 482 65 433 L65 429 L82 406 L87 406 C129 450 197 477 258 477 C356 477 420 417 420 329 L420 259 C371 285 307 305 243 305 C122 305 39 241 39 145 C39 51 117 -12 230 -12 C337 -12 421 51 446 133 C488 42 577 -12 677 -12 C762 -12 848 28 894 92 L894 97 L871 116 L867 116 C827 60 751 23 677 23 C562 23 467 106 461 237 L907 237 Z M669 477 C745 477 800 442 833 387 C853 355 865 316 868 272 L461 272 C468 392 551 477 669 477 L669 477 Z M420 185 C420 97 338 23 231 23 C141 23 79 72 79 144 C79 220 145 271 244 271 C311 271 379 247 420 223 L420 185 Z " />
<glyph glyph-name="ccedilla" unicode="&#xe7;" horiz-adv-x="547" d="M307 477 C384 477 446 442 487 389 L491 389 L514 407 L514 411 C471 470 396 512 305 512 C155 512 46 398 46 250 C46 109 145 -1 284 -11 L266 -76 L281 -84 C329 -76 374 -85 374 -121 C374 -147 353 -162 316 -162 C289 -162 265 -153 247 -138 L243 -138 L228 -160 L228 -164 C251 -182 286 -193 318 -193 C377 -193 412 -164 412 -120 C412 -73 374 -50 314 -52 L323 -11 C406 -6 474 34 514 89 L514 93 L491 111 L487 111 C446 56 382 23 308 23 C175 23 85 122 85 250 C85 379 177 477 307 477 L307 477 Z " />
<glyph glyph-name="egrave" unicode="&#xe8;" horiz-adv-x="574" d="M370 559 L385 579 L385 582 L225 711 L222 711 L198 682 L198 679 L367 559 L370 559 Z M532 237 C532 242 533 247 533 254 C533 315 515 371 483 414 C444 474 378 512 293 512 C147 512 47 398 47 250 C47 89 165 -12 302 -12 C387 -12 473 28 519 92 L519 97 L496 116 L492 116 C452 60 376 23 302 23 C187 23 92 106 86 237 L532 237 Z M294 477 C370 477 425 442 458 387 C478 355 490 316 493 272 L86 272 C93 392 176 477 294 477 L294 477 Z " />
<glyph glyph-name="eacute" unicode="&#xe9;" horiz-adv-x="574" d="M216 559 L385 679 L385 682 L362 711 L359 711 L198 582 L198 579 L213 559 L216 559 Z M532 237 C532 242 533 247 533 254 C533 315 515 371 483 414 C444 474 378 512 293 512 C147 512 47 398 47 250 C47 89 165 -12 302 -12 C387 -12 473 28 519 92 L519 97 L496 116 L492 116 C452 60 376 23 302 23 C187 23 92 106 86 237 L532 237 Z M294 477 C370 477 425 442 458 387 C478 355 490 316 493 272 L86 272 C93 392 176 477 294 477 L294 477 Z " />
<glyph glyph-name="ecircumflex" unicode="&#xea;" horiz-adv-x="574" d="M171 568 L292 641 L412 568 L416 568 L433 589 L433 592 L296 683 L287 683 L151 592 L151 589 L168 568 L171 568 Z M532 237 C532 242 533 247 533 254 C533 315 515 371 483 414 C444 474 378 512 293 512 C147 512 47 398 47 250 C47 89 165 -12 302 -12 C387 -12 473 28 519 92 L519 97 L496 116 L492 116 C452 60 376 23 302 23 C187 23 92 106 86 237 L532 237 Z M294 477 C370 477 425 442 458 387 C478 355 490 316 493 272 L86 272 C93 392 176 477 294 477 L294 477 Z " />
<glyph glyph-name="edieresis" unicode="&#xeb;" horiz-adv-x="574" d="M220 589 C242 589 260 607 260 630 C260 652 242 670 220 670 C197 670 179 652 179 630 C179 607 197 589 220 589 L220 589 Z M365 589 C387 589 405 607 405 630 C405 652 387 670 365 670 C342 670 324 652 324 630 C324 607 342 589 365 589 L365 589 Z M532 237 C532 242 533 247 533 254 C533 315 515 371 483 414 C444 474 378 512 293 512 C147 512 47 398 47 250 C47 89 165 -12 302 -12 C387 -12 473 28 519 92 L519 97 L496 116 L492 116 C452 60 376 23 302 23 C187 23 92 106 86 237 L532 237 Z M294 477 C370 477 425 442 458 387 C478 355 490 316 493 272 L86 272 C93 392 176 477 294 477 L294 477 Z " />
<glyph glyph-name="igrave" unicode="&#xec;" horiz-adv-x="215" d="M41 711 L38 711 L14 682 L14 679 L183 559 L186 559 L201 579 L201 582 L41 711 Z M88 0 L126 0 L126 500 L88 500 L88 0 Z " />
<glyph glyph-name="iacute" unicode="&#xed;" horiz-adv-x="215" d="M175 711 L14 582 L14 579 L29 559 L32 559 L201 679 L201 682 L178 711 L175 711 Z M88 0 L126 0 L126 500 L88 500 L88 0 Z " />
<glyph glyph-name="icircumflex" unicode="&#xee;" horiz-adv-x="215" d="M111 683 L103 683 L-19 592 L-19 589 L-4 568 L-1 568 L108 641 L216 568 L219 568 L235 589 L235 592 L111 683 Z M88 0 L126 0 L126 500 L88 500 L88 0 Z " />
<glyph glyph-name="idieresis" unicode="&#xef;" horiz-adv-x="215" d="M35 589 C57 589 75 607 75 630 C75 652 57 670 35 670 C12 670 -6 652 -6 630 C-6 607 12 589 35 589 L35 589 Z M180 589 C202 589 220 607 220 630 C220 652 202 670 180 670 C157 670 139 652 139 630 C139 607 157 589 180 589 L180 589 Z M88 0 L126 0 L126 500 L88 500 L88 0 Z " />
<glyph glyph-name="eth" unicode="&#xf0;" horiz-adv-x="569" d="M383 550 L493 590 L493 619 L489 622 L363 575 C335 610 305 645 272 679 L268 679 L244 660 L244 656 C273 626 302 595 328 562 L230 526 L230 498 L233 495 L348 537 C379 496 407 455 430 414 C391 443 341 460 285 460 C147 460 47 358 47 224 C47 91 147 -11 285 -11 C424 -11 522 90 522 224 L522 225 C523 323 469 437 383 550 L383 550 Z M285 24 C168 24 86 111 86 224 C86 337 168 424 286 424 C402 424 483 338 483 224 C483 111 402 24 285 24 L285 24 Z " />
<glyph glyph-name="ntilde" unicode="&#xf1;" horiz-adv-x="587" d="M174 599 C183 619 209 633 239 633 C290 633 330 599 375 599 C408 599 435 612 446 632 L446 665 L443 667 L440 667 C432 647 409 633 376 633 C334 633 289 668 239 668 C209 668 179 655 168 634 L168 601 L172 599 L174 599 Z M308 512 C221 512 155 470 122 407 L122 500 L86 500 L86 0 L124 0 L124 303 C124 402 196 477 303 477 C404 477 471 411 471 309 L471 0 L509 0 L509 311 C509 432 428 512 308 512 L308 512 Z " />
<glyph glyph-name="ograve" unicode="&#xf2;" horiz-adv-x="622" d="M244 711 L241 711 L217 682 L217 679 L386 559 L389 559 L404 579 L404 582 L244 711 Z M311 -12 C463 -12 576 102 576 250 C576 398 463 512 311 512 C159 512 46 398 46 250 C46 102 159 -12 311 -12 L311 -12 Z M311 23 C180 23 85 121 85 250 C85 379 181 477 311 477 C441 477 537 379 537 250 C537 121 441 23 311 23 L311 23 Z " />
<glyph glyph-name="oacute" unicode="&#xf3;" horiz-adv-x="622" d="M378 711 L217 582 L217 579 L232 559 L235 559 L404 679 L404 682 L381 711 L378 711 Z M311 -12 C463 -12 576 102 576 250 C576 398 463 512 311 512 C159 512 46 398 46 250 C46 102 159 -12 311 -12 L311 -12 Z M311 23 C180 23 85 121 85 250 C85 379 181 477 311 477 C441 477 537 379 537 250 C537 121 441 23 311 23 L311 23 Z " />
<glyph glyph-name="ocircumflex" unicode="&#xf4;" horiz-adv-x="622" d="M190 568 L311 641 L431 568 L435 568 L452 589 L452 592 L315 683 L306 683 L170 592 L170 589 L187 568 L190 568 Z M311 512 C159 512 46 398 46 250 C46 102 159 -12 311 -12 C463 -12 576 102 576 250 C576 398 463 512 311 512 L311 512 Z M311 23 C180 23 85 121 85 250 C85 379 181 477 311 477 C441 477 537 379 537 250 C537 121 441 23 311 23 L311 23 Z " />
<glyph glyph-name="otilde" unicode="&#xf5;" horiz-adv-x="622" d="M379 599 C412 599 439 612 450 632 L450 665 L447 667 L444 667 C436 647 413 633 380 633 C338 633 293 668 243 668 C213 668 183 655 172 634 L172 601 L176 599 L178 599 C187 619 213 633 243 633 C294 633 334 599 379 599 L379 599 Z M311 -12 C463 -12 576 102 576 250 C576 398 463 512 311 512 C159 512 46 398 46 250 C46 102 159 -12 311 -12 L311 -12 Z M311 23 C180 23 85 121 85 250 C85 379 181 477 311 477 C441 477 537 379 537 250 C537 121 441 23 311 23 L311 23 Z " />
<glyph glyph-name="odieresis" unicode="&#xf6;" horiz-adv-x="622" d="M239 589 C261 589 279 607 279 630 C279 652 261 670 239 670 C216 670 198 652 198 630 C198 607 216 589 239 589 L239 589 Z M384 589 C406 589 424 607 424 630 C424 652 406 670 384 670 C361 670 343 652 343 630 C343 607 361 589 384 589 L384 589 Z M311 -12 C463 -12 576 102 576 250 C576 398 463 512 311 512 C159 512 46 398 46 250 C46 102 159 -12 311 -12 L311 -12 Z M311 23 C180 23 85 121 85 250 C85 379 181 477 311 477 C441 477 537 379 537 250 C537 121 441 23 311 23 L311 23 Z " />
<glyph glyph-name="divide" unicode="&#xf7;" horiz-adv-x="538" d="M272 419 C294 419 312 437 312 460 C312 482 294 500 272 500 C250 500 231 482 231 460 C231 437 250 419 272 419 L272 419 Z M67 318 L67 284 L472 284 L472 318 L67 318 Z M272 98 C294 98 312 117 312 139 C312 161 294 180 272 180 C250 180 231 161 231 139 C231 117 250 98 272 98 L272 98 Z " />
<glyph glyph-name="oslash" unicode="&#xf8;" horiz-adv-x="622" d="M477 457 L545 555 L543 559 L506 559 L448 476 C409 499 362 512 311 512 C159 512 46 398 46 250 C46 164 84 90 146 42 L87 -42 L89 -46 L125 -46 L174 24 C213 1 260 -12 311 -12 C463 -12 576 102 576 250 C576 336 538 410 477 457 L477 457 Z M85 250 C85 379 181 477 311 477 C354 477 394 466 428 447 L167 72 C116 113 85 177 85 250 L85 250 Z M311 23 C267 23 228 34 194 53 L456 427 C506 386 537 323 537 250 C537 121 441 23 311 23 L311 23 Z " />
<glyph glyph-name="ugrave" unicode="&#xf9;" horiz-adv-x="576" d="M361 559 L376 579 L376 582 L216 711 L213 711 L189 682 L189 679 L358 559 L361 559 Z M452 500 L452 197 C452 98 382 23 275 23 C183 23 116 89 116 189 L116 500 L78 500 L78 189 C78 66 160 -12 270 -12 C355 -12 420 29 453 91 L453 0 L490 0 L490 500 L452 500 Z " />
<glyph glyph-name="uacute" unicode="&#xfa;" horiz-adv-x="576" d="M207 559 L376 679 L376 682 L353 711 L350 711 L189 582 L189 579 L204 559 L207 559 Z M452 500 L452 197 C452 98 382 23 275 23 C183 23 116 89 116 189 L116 500 L78 500 L78 189 C78 66 160 -12 270 -12 C355 -12 420 29 453 91 L453 0 L490 0 L490 500 L452 500 Z " />
<glyph glyph-name="ucircumflex" unicode="&#xfb;" horiz-adv-x="576" d="M162 568 L283 641 L403 568 L407 568 L424 589 L424 592 L287 683 L278 683 L142 592 L142 589 L159 568 L162 568 Z M452 500 L452 197 C452 98 382 23 275 23 C183 23 116 89 116 189 L116 500 L78 500 L78 189 C78 66 160 -12 270 -12 C355 -12 420 29 453 91 L453 0 L490 0 L490 500 L452 500 Z " />
<glyph glyph-name="udieresis" unicode="&#xfc;" horiz-adv-x="576" d="M211 589 C233 589 251 607 251 630 C251 652 233 670 211 670 C188 670 170 652 170 630 C170 607 188 589 211 589 L211 589 Z M356 589 C378 589 396 607 396 630 C396 652 378 670 356 670 C333 670 315 652 315 630 C315 607 333 589 356 589 L356 589 Z M452 500 L452 197 C452 98 382 23 275 23 C183 23 116 89 116 189 L116 500 L78 500 L78 189 C78 66 160 -12 270 -12 C355 -12 420 29 453 91 L453 0 L490 0 L490 500 L452 500 Z " />
<glyph glyph-name="yacute" unicode="&#xfd;" horiz-adv-x="505" d="M178 559 L347 679 L347 682 L324 711 L321 711 L160 582 L160 579 L175 559 L178 559 Z M482 500 L446 500 L254 61 L62 500 L25 500 L22 496 L233 16 L197 -64 C177 -111 151 -127 120 -127 C103 -127 85 -120 70 -110 L66 -111 L53 -137 L54 -141 C70 -152 94 -160 120 -160 C168 -160 203 -137 233 -70 L485 496 L482 500 Z " />
<glyph glyph-name="thorn" unicode="&#xfe;" horiz-adv-x="635" d="M337 512 C241 512 164 463 122 387 L122 650 L86 650 L86 -150 L124 -150 L124 110 C166 37 241 -12 337 -12 C485 -12 588 103 588 250 C588 397 485 512 337 512 L337 512 Z M335 23 C212 23 121 115 121 250 C121 386 212 477 335 477 C462 477 549 376 549 250 C549 123 462 23 335 23 L335 23 Z " />
<glyph glyph-name="ydieresis" unicode="&#xff;" horiz-adv-x="505" d="M182 589 C204 589 222 607 222 630 C222 652 204 670 182 670 C159 670 141 652 141 630 C141 607 159 589 182 589 L182 589 Z M327 589 C349 589 367 607 367 630 C367 652 349 670 327 670 C304 670 286 652 286 630 C286 607 304 589 327 589 L327 589 Z M482 500 L446 500 L254 61 L62 500 L25 500 L22 496 L233 16 L197 -64 C177 -111 151 -127 120 -127 C103 -127 85 -120 70 -110 L66 -111 L53 -137 L54 -141 C70 -152 94 -160 120 -160 C168 -160 203 -137 233 -70 L485 496 L482 500 Z " />
<glyph glyph-name="Amacron" unicode="&#x100;" horiz-adv-x="651" d="M463 769 L189 769 L189 737 L463 737 L463 769 Z M338 650 L314 650 L23 4 L26 0 L62 0 L134 161 L516 161 L588 0 L625 0 L628 4 L338 650 Z M150 196 L325 590 L501 196 L150 196 Z " />
<glyph glyph-name="amacron" unicode="&#x101;" horiz-adv-x="536" d="M395 634 L125 634 L125 601 L395 601 L395 634 Z M258 512 C184 512 112 480 65 433 L65 429 L82 406 L87 406 C131 449 194 477 258 477 C356 477 420 416 420 328 L420 259 C372 286 309 305 243 305 C122 305 39 241 39 145 C39 51 117 -12 230 -12 C309 -12 382 22 420 84 L420 0 L457 0 L457 323 C457 438 382 512 258 512 L258 512 Z M231 23 C140 23 78 72 78 144 C78 221 145 271 244 271 C311 271 379 247 420 223 L420 178 C420 79 328 23 231 23 L231 23 Z " />
<glyph glyph-name="Abreve" unicode="&#x102;" horiz-adv-x="651" d="M325 707 C390 707 445 754 454 826 L419 826 C410 773 373 739 325 739 C278 739 241 773 232 826 L197 826 C206 754 261 707 325 707 L325 707 Z M338 650 L314 650 L23 4 L26 0 L62 0 L134 161 L516 161 L588 0 L625 0 L628 4 L338 650 Z M150 196 L325 590 L501 196 L150 196 Z " />
<glyph glyph-name="abreve" unicode="&#x103;" horiz-adv-x="536" d="M259 573 C330 573 384 621 393 692 L358 692 C349 639 310 604 259 604 C208 604 169 639 160 692 L125 692 C134 621 188 573 259 573 L259 573 Z M258 512 C184 512 112 480 65 433 L65 429 L82 406 L87 406 C131 449 194 477 258 477 C356 477 420 416 420 328 L420 259 C372 286 309 305 243 305 C122 305 39 241 39 145 C39 51 117 -12 230 -12 C309 -12 382 22 420 84 L420 0 L457 0 L457 323 C457 438 382 512 258 512 L258 512 Z M231 23 C140 23 78 72 78 144 C78 221 145 271 244 271 C311 271 379 247 420 223 L420 178 C420 79 328 23 231 23 L231 23 Z " />
<glyph glyph-name="Aogonek" unicode="&#x104;" horiz-adv-x="651" d="M675 -141 L671 -140 C657 -146 644 -151 622 -151 C584 -151 559 -128 559 -94 C559 -38 619 -6 625 0 L628 4 L338 650 L314 650 L23 4 L26 0 L62 0 L134 161 L516 161 L586 5 C563 -11 525 -48 525 -97 C525 -147 562 -180 617 -180 C643 -180 664 -175 684 -165 L685 -161 L675 -141 Z M150 196 L325 590 L501 196 L150 196 Z " />
<glyph glyph-name="aogonek" unicode="&#x105;" horiz-adv-x="536" d="M506 -141 L502 -140 C488 -146 475 -151 453 -151 C415 -151 390 -128 390 -94 C390 -38 450 -6 456 0 L457 0 L457 323 C457 438 382 512 258 512 C184 512 112 480 65 433 L65 429 L82 406 L87 406 C131 449 194 477 258 477 C356 477 420 416 420 328 L420 259 C372 286 309 305 243 305 C122 305 39 241 39 145 C39 51 117 -12 230 -12 C309 -12 382 22 420 84 L420 7 C398 -8 356 -45 356 -97 C356 -147 393 -180 448 -180 C474 -180 495 -175 515 -165 L516 -161 L506 -141 Z M231 23 C140 23 78 72 78 144 C78 221 145 271 244 271 C311 271 379 247 420 223 L420 178 C420 79 328 23 231 23 L231 23 Z " />
<glyph glyph-name="Cacute" unicode="&#x106;" horiz-adv-x="693" d="M470 844 L295 731 L295 728 L308 708 L311 708 L493 811 L493 814 L473 844 L470 844 Z M391 -12 C500 -12 596 36 656 112 L656 116 L630 136 L626 136 C573 68 487 25 390 25 C221 25 90 155 90 325 C90 495 221 625 390 625 C487 625 573 582 626 514 L630 514 L656 534 L656 538 C596 614 500 662 391 662 C196 662 50 515 50 325 C50 135 196 -12 391 -12 L391 -12 Z " />
<glyph glyph-name="cacute" unicode="&#x107;" horiz-adv-x="547" d="M373 711 L212 582 L212 579 L227 559 L230 559 L399 679 L399 682 L376 711 L373 711 Z M305 -12 C396 -12 471 30 514 89 L514 93 L491 111 L487 111 C446 56 382 23 308 23 C175 23 85 122 85 250 C85 379 177 477 307 477 C384 477 446 442 487 389 L491 389 L514 407 L514 411 C471 470 396 512 305 512 C155 512 46 398 46 250 C46 102 155 -12 305 -12 L305 -12 Z " />
<glyph glyph-name="Cdotaccent" unicode="&#x10a;" horiz-adv-x="693" d="M391 731 C412 731 431 749 431 771 C431 792 412 811 391 811 C369 811 350 792 350 771 C350 749 369 731 391 731 L391 731 Z M391 -12 C500 -12 596 36 656 112 L656 116 L630 136 L626 136 C573 68 487 25 390 25 C221 25 90 155 90 325 C90 495 221 625 390 625 C487 625 573 582 626 514 L630 514 L656 534 L656 538 C596 614 500 662 391 662 C196 662 50 515 50 325 C50 135 196 -12 391 -12 L391 -12 Z " />
<glyph glyph-name="cdotaccent" unicode="&#x10b;" horiz-adv-x="547" d="M305 589 C327 589 346 607 346 630 C346 652 327 670 305 670 C283 670 264 652 264 630 C264 607 283 589 305 589 L305 589 Z M305 -12 C396 -12 471 30 514 89 L514 93 L491 111 L487 111 C446 56 382 23 308 23 C175 23 85 122 85 250 C85 379 177 477 307 477 C384 477 446 442 487 389 L491 389 L514 407 L514 411 C471 470 396 512 305 512 C155 512 46 398 46 250 C46 102 155 -12 305 -12 L305 -12 Z " />
<glyph glyph-name="Ccaron" unicode="&#x10c;" horiz-adv-x="693" d="M393 716 L536 806 L536 809 L521 831 L518 831 L391 759 L263 831 L260 831 L245 809 L245 806 L388 716 L393 716 Z M390 625 C487 625 573 582 626 514 L630 514 L656 534 L656 538 C596 614 500 662 391 662 C196 662 50 515 50 325 C50 135 196 -12 391 -12 C500 -12 596 36 656 112 L656 116 L630 136 L626 136 C573 68 487 25 390 25 C221 25 90 155 90 325 C90 495 221 625 390 625 L390 625 Z " />
<glyph glyph-name="ccaron" unicode="&#x10d;" horiz-adv-x="547" d="M310 559 L447 650 L447 653 L430 674 L426 674 L306 601 L185 674 L182 674 L165 653 L165 650 L301 559 L310 559 Z M307 477 C384 477 446 442 487 389 L491 389 L514 407 L514 411 C471 470 396 512 305 512 C155 512 46 398 46 250 C46 102 155 -12 305 -12 C396 -12 471 30 514 89 L514 93 L491 111 L487 111 C446 56 382 23 308 23 C175 23 85 122 85 250 C85 379 177 477 307 477 L307 477 Z " />
<glyph glyph-name="Dcaron" unicode="&#x10e;" horiz-adv-x="719" d="M328 716 L471 806 L471 809 L456 831 L453 831 L326 759 L198 831 L195 831 L180 809 L180 806 L323 716 L328 716 Z M334 650 L100 650 L100 0 L334 0 C541 0 667 131 667 325 C667 519 541 650 334 650 L334 650 Z M335 35 L140 35 L140 615 L335 615 C517 615 628 499 628 325 C628 151 517 35 335 35 L335 35 Z " />
<glyph glyph-name="dcaron" unicode="&#x10f;" horiz-adv-x="634" d="M673 702 L636 702 L633 698 L603 533 L605 530 L627 530 L630 533 L675 698 L673 702 Z M511 677 L511 390 C469 464 392 512 297 512 C150 512 46 397 46 250 C46 103 150 -12 297 -12 C394 -12 470 39 511 114 L511 0 L548 0 L548 679 L544 682 L511 677 Z M299 23 C172 23 85 123 85 250 C85 376 172 477 300 477 C422 477 513 386 513 250 C513 115 422 23 299 23 L299 23 Z " />
<glyph glyph-name="Dcroat" unicode="&#x110;" horiz-adv-x="726" d="M341 650 L107 650 L107 345 L18 345 L18 311 L107 311 L107 0 L341 0 C548 0 674 131 674 325 C674 519 548 650 341 650 L341 650 Z M342 35 L147 35 L147 311 L355 311 L355 345 L147 345 L147 615 L342 615 C524 615 635 499 635 325 C635 151 524 35 342 35 L342 35 Z " />
<glyph glyph-name="dcroat" unicode="&#x111;" horiz-adv-x="635" d="M612 601 L549 601 L549 679 L544 682 L511 678 L511 601 L351 601 L351 569 L511 569 L511 391 C469 464 393 512 297 512 C150 512 46 397 46 250 C46 103 150 -12 297 -12 C393 -12 470 38 511 112 L511 0 L549 0 L549 569 L612 569 L612 601 Z M300 23 C172 23 85 123 85 250 C85 376 172 477 300 477 C422 477 514 386 514 250 C514 115 422 23 300 23 L300 23 Z " />
<glyph glyph-name="Emacron" unicode="&#x112;" horiz-adv-x="559" d="M171 769 L171 737 L445 737 L445 769 L171 769 Z M516 615 L516 650 L100 650 L100 0 L516 0 L516 35 L140 35 L140 311 L438 311 L438 346 L140 346 L140 615 L516 615 Z " />
<glyph glyph-name="emacron" unicode="&#x113;" horiz-adv-x="574" d="M427 634 L157 634 L157 601 L427 601 L427 634 Z M532 237 C532 242 533 247 533 254 C533 315 515 371 483 414 C444 474 378 512 293 512 C147 512 47 398 47 250 C47 89 165 -12 302 -12 C387 -12 473 28 519 92 L519 97 L496 116 L492 116 C452 60 376 23 302 23 C187 23 92 106 86 237 L532 237 Z M294 477 C370 477 425 442 458 387 C478 355 490 316 493 272 L86 272 C93 392 176 477 294 477 L294 477 Z " />
<glyph glyph-name="Edotaccent" unicode="&#x116;" horiz-adv-x="559" d="M308 731 C329 731 348 749 348 771 C348 792 329 811 308 811 C286 811 267 792 267 771 C267 749 286 731 308 731 L308 731 Z M516 615 L516 650 L100 650 L100 0 L516 0 L516 35 L140 35 L140 311 L438 311 L438 346 L140 346 L140 615 L516 615 Z " />
<glyph glyph-name="edotaccent" unicode="&#x117;" horiz-adv-x="574" d="M292 589 C314 589 333 607 333 630 C333 652 314 670 292 670 C270 670 251 652 251 630 C251 607 270 589 292 589 L292 589 Z M532 237 C532 242 533 247 533 254 C533 315 515 371 483 414 C444 474 378 512 293 512 C147 512 47 398 47 250 C47 89 165 -12 302 -12 C387 -12 473 28 519 92 L519 97 L496 116 L492 116 C452 60 376 23 302 23 C187 23 92 106 86 237 L532 237 Z M294 477 C370 477 425 442 458 387 C478 355 490 316 493 272 L86 272 C93 392 176 477 294 477 L294 477 Z " />
<glyph glyph-name="Eogonek" unicode="&#x118;" horiz-adv-x="559" d="M565 -141 L561 -140 C547 -146 534 -151 512 -151 C474 -151 449 -128 449 -94 C449 -38 509 -6 515 0 L516 0 L516 35 L140 35 L140 311 L438 311 L438 346 L140 346 L140 615 L516 615 L516 650 L100 650 L100 0 L469 0 C446 -18 415 -52 415 -97 C415 -147 452 -180 507 -180 C533 -180 554 -175 574 -165 L575 -161 L565 -141 Z " />
<glyph glyph-name="eogonek" unicode="&#x119;" horiz-adv-x="574" d="M532 237 C532 242 533 247 533 254 C533 315 515 371 483 414 C444 474 378 512 293 512 C147 512 47 398 47 250 C47 89 165 -12 302 -12 C317 -12 331 -11 345 -9 C329 -27 314 -53 314 -84 C314 -134 351 -167 406 -167 C432 -167 453 -162 473 -152 L474 -148 L464 -128 L460 -127 C446 -133 433 -138 411 -138 C373 -138 348 -115 348 -81 C348 -33 391 -3 408 9 C453 26 493 55 519 92 L519 97 L496 116 L492 116 C452 60 376 23 302 23 C187 23 92 106 86 237 L532 237 Z M294 477 C370 477 425 442 458 387 C478 355 490 316 493 272 L86 272 C93 392 176 477 294 477 L294 477 Z " />
<glyph glyph-name="Ecaron" unicode="&#x11a;" horiz-adv-x="559" d="M311 716 L454 806 L454 809 L439 831 L436 831 L309 759 L181 831 L178 831 L163 809 L163 806 L306 716 L311 716 Z M516 615 L516 650 L100 650 L100 0 L516 0 L516 35 L140 35 L140 311 L438 311 L438 346 L140 346 L140 615 L516 615 Z " />
<glyph glyph-name="ecaron" unicode="&#x11b;" horiz-adv-x="574" d="M296 559 L433 650 L433 653 L416 674 L412 674 L292 601 L171 674 L168 674 L151 653 L151 650 L287 559 L296 559 Z M532 237 C532 242 533 247 533 254 C533 315 515 371 483 414 C444 474 378 512 293 512 C147 512 47 398 47 250 C47 89 165 -12 302 -12 C387 -12 473 28 519 92 L519 97 L496 116 L492 116 C452 60 376 23 302 23 C187 23 92 106 86 237 L532 237 Z M294 477 C370 477 425 442 458 387 C478 355 490 316 493 272 L86 272 C93 392 176 477 294 477 L294 477 Z " />
<glyph glyph-name="Gbreve" unicode="&#x11e;" horiz-adv-x="744" d="M385 707 C450 707 505 754 514 826 L479 826 C470 773 433 739 385 739 C338 739 301 773 292 826 L257 826 C266 754 321 707 385 707 L385 707 Z M709 331 L705 335 L387 335 L387 300 L669 300 C668 228 640 164 596 116 C542 59 466 25 382 25 C219 25 90 154 90 325 C90 496 221 625 383 625 C475 625 561 582 614 514 L617 514 L645 536 L645 539 C584 615 488 662 384 662 C197 662 50 516 50 325 C50 134 195 -12 382 -12 C477 -12 562 27 622 89 C677 146 710 224 710 310 C710 317 710 323 709 331 L709 331 Z " />
<glyph glyph-name="gbreve" unicode="&#x11f;" horiz-adv-x="602" d="M293 573 C364 573 418 621 427 692 L392 692 C383 639 344 604 293 604 C242 604 203 639 194 692 L159 692 C168 621 222 573 293 573 L293 573 Z M480 500 L480 403 C441 468 370 512 282 512 C147 512 48 410 48 281 C48 151 147 50 282 50 C369 50 440 93 479 158 L479 66 C479 -56 402 -125 286 -125 C198 -125 130 -86 91 -27 L87 -27 L63 -46 L63 -50 C109 -119 189 -160 284 -160 C420 -160 517 -82 517 66 L517 500 L480 500 Z M283 85 C166 85 87 169 87 281 C87 392 167 477 283 477 C399 477 480 392 480 281 C480 168 399 85 283 85 L283 85 Z " />
<glyph glyph-name="Gdotaccent" unicode="&#x120;" horiz-adv-x="744" d="M385 731 C406 731 425 749 425 771 C425 792 406 811 385 811 C363 811 344 792 344 771 C344 749 363 731 385 731 L385 731 Z M709 331 L705 335 L387 335 L387 300 L669 300 C668 228 640 164 596 116 C542 59 466 25 382 25 C219 25 90 154 90 325 C90 496 221 625 383 625 C475 625 561 582 614 514 L617 514 L645 536 L645 539 C584 615 488 662 384 662 C197 662 50 516 50 325 C50 134 195 -12 382 -12 C477 -12 562 27 622 89 C677 146 710 224 710 310 C710 317 710 323 709 331 L709 331 Z " />
<glyph glyph-name="gdotaccent" unicode="&#x121;" horiz-adv-x="602" d="M293 589 C315 589 334 607 334 630 C334 652 315 670 293 670 C271 670 252 652 252 630 C252 607 271 589 293 589 L293 589 Z M480 500 L480 403 C441 468 370 512 282 512 C147 512 48 410 48 281 C48 151 147 50 282 50 C369 50 440 93 479 158 L479 66 C479 -56 402 -125 286 -125 C198 -125 130 -86 91 -27 L87 -27 L63 -46 L63 -50 C109 -119 189 -160 284 -160 C420 -160 517 -82 517 66 L517 500 L480 500 Z M283 85 C166 85 87 169 87 281 C87 392 167 477 283 477 C399 477 480 392 480 281 C480 168 399 85 283 85 L283 85 Z " />
<glyph glyph-name="Gcommaaccent" unicode="&#x122;" horiz-adv-x="744" d="M709 331 L705 335 L387 335 L387 300 L669 300 C668 228 640 164 596 116 C542 59 466 25 382 25 C219 25 90 154 90 325 C90 496 221 625 383 625 C475 625 561 582 614 514 L617 514 L645 536 L645 539 C584 615 488 662 384 662 C197 662 50 516 50 325 C50 134 195 -12 382 -12 C477 -12 562 27 622 89 C677 146 710 224 710 310 C710 317 710 323 709 331 L709 331 Z M361 -53 L336 -195 L338 -198 L360 -198 L363 -195 L402 -53 L400 -50 L365 -50 L361 -53 Z " />
<glyph glyph-name="gcommaaccent" unicode="&#x123;" horiz-adv-x="602" d="M310 562 L314 565 L339 707 L337 710 L315 710 L312 707 L273 565 L275 562 L310 562 Z M480 500 L480 403 C441 468 370 512 282 512 C147 512 48 410 48 281 C48 151 147 50 282 50 C369 50 440 93 479 158 L479 66 C479 -56 402 -125 286 -125 C198 -125 130 -86 91 -27 L87 -27 L63 -46 L63 -50 C109 -119 189 -160 284 -160 C420 -160 517 -82 517 66 L517 500 L480 500 Z M283 85 C166 85 87 169 87 281 C87 392 167 477 283 477 C399 477 480 392 480 281 C480 168 399 85 283 85 L283 85 Z " />
<glyph glyph-name="Hbar" unicode="&#x126;" horiz-adv-x="703" d="M663 498 L602 498 L602 650 L564 650 L564 498 L140 498 L140 650 L100 650 L100 498 L41 498 L41 467 L100 467 L100 0 L140 0 L140 311 L564 311 L564 0 L602 0 L602 467 L663 467 L663 498 Z M564 346 L140 346 L140 467 L564 467 L564 346 Z " />
<glyph glyph-name="hbar" unicode="&#x127;" horiz-adv-x="587" d="M308 512 C224 512 158 472 124 412 L124 555 L279 555 L279 587 L124 587 L124 679 L119 682 L86 677 L86 587 L16 587 L16 555 L86 555 L86 0 L124 0 L124 303 C124 402 196 477 303 477 C404 477 471 411 471 309 L471 0 L509 0 L509 311 C509 432 427 512 308 512 L308 512 Z " />
<glyph glyph-name="Itilde" unicode="&#x128;" horiz-adv-x="240" d="M181 730 C207 730 230 742 239 764 L239 798 L236 801 L233 801 C226 779 205 765 182 765 C145 765 104 801 60 801 C34 801 11 789 2 767 L2 733 L5 730 L8 730 C15 753 36 766 58 766 C103 766 139 730 181 730 L181 730 Z M100 650 L100 0 L140 0 L140 650 L100 650 Z " />
<glyph glyph-name="itilde" unicode="&#x129;" horiz-adv-x="215" d="M168 599 C198 599 222 612 232 632 L232 665 L230 667 L227 667 C220 647 199 633 169 633 C132 633 91 668 46 668 C19 668 -8 655 -18 634 L-18 601 L-14 599 L-12 599 C-4 619 19 633 46 633 C92 633 128 599 168 599 L168 599 Z M88 0 L126 0 L126 500 L88 500 L88 0 Z " />
<glyph glyph-name="Imacron" unicode="&#x12a;" horiz-adv-x="240" d="M-3 769 L-3 737 L244 737 L244 769 L-3 769 Z M100 650 L100 0 L140 0 L140 650 L100 650 Z " />
<glyph glyph-name="imacron" unicode="&#x12b;" horiz-adv-x="215" d="M-14 634 L-14 601 L229 601 L229 634 L-14 634 Z M88 0 L126 0 L126 500 L88 500 L88 0 Z " />
<glyph glyph-name="Iogonek" unicode="&#x12e;" horiz-adv-x="240" d="M189 -141 L185 -140 C171 -146 158 -151 136 -151 C98 -151 73 -128 73 -94 C73 -38 133 -6 139 0 L140 0 L140 650 L100 650 L100 5 C77 -11 39 -47 39 -97 C39 -147 76 -180 131 -180 C157 -180 178 -175 198 -165 L199 -161 L189 -141 Z " />
<glyph glyph-name="iogonek" unicode="&#x12f;" horiz-adv-x="215" d="M107 589 C129 589 148 607 148 630 C148 652 129 670 107 670 C85 670 66 652 66 630 C66 607 85 589 107 589 L107 589 Z M176 -141 L172 -140 C158 -146 145 -151 123 -151 C85 -151 60 -128 60 -94 C60 -38 120 -6 126 0 L126 500 L88 500 L88 6 C65 -10 26 -47 26 -97 C26 -147 63 -180 118 -180 C144 -180 165 -175 185 -165 L186 -161 L176 -141 Z " />
<glyph glyph-name="Idotaccent" unicode="&#x130;" horiz-adv-x="240" d="M120 731 C141 731 160 749 160 771 C160 792 141 811 120 811 C98 811 79 792 79 771 C79 749 98 731 120 731 L120 731 Z M100 650 L100 0 L140 0 L140 650 L100 650 Z " />
<glyph glyph-name="dotlessi" unicode="&#x131;" horiz-adv-x="215" d="M88 0 L126 0 L126 500 L88 500 L88 0 Z " />
<glyph glyph-name="IJ" unicode="&#x132;" horiz-adv-x="650" d="M100 650 L100 0 L140 0 L140 650 L100 650 Z M519 650 L519 176 C519 82 456 24 372 24 C305 24 253 57 219 110 L215 110 L190 89 L190 85 C227 26 287 -12 372 -12 C476 -12 558 57 558 174 L558 650 L519 650 Z " />
<glyph glyph-name="ij" unicode="&#x133;" horiz-adv-x="413" d="M107 589 C130 589 148 607 148 630 C148 652 130 670 107 670 C85 670 67 652 67 630 C67 607 85 589 107 589 L107 589 Z M308 589 C331 589 349 607 349 630 C349 652 331 670 308 670 C286 670 268 652 268 630 C268 607 286 589 308 589 L308 589 Z M88 0 L126 0 L126 500 L88 500 L88 0 Z M233 -160 L237 -160 C291 -127 327 -88 327 4 L327 500 L289 500 L289 2 C289 -71 263 -102 219 -130 L219 -134 L233 -160 Z " />
<glyph glyph-name="Kcommaaccent" unicode="&#x136;" horiz-adv-x="570" d="M559 646 L556 650 L510 650 L140 288 L140 650 L100 650 L100 0 L140 0 L140 237 L236 331 L508 0 L553 0 L555 4 L264 359 L559 646 Z M300 -50 L296 -53 L271 -195 L273 -198 L295 -198 L298 -195 L337 -53 L335 -50 L300 -50 Z " />
<glyph glyph-name="kcommaaccent" unicode="&#x137;" horiz-adv-x="481" d="M247 279 L464 496 L461 500 L419 500 L124 204 L124 679 L119 682 L86 677 L86 0 L124 0 L124 155 L221 252 L429 0 L470 0 L472 4 L247 279 Z M252 -50 L248 -53 L223 -195 L225 -198 L247 -198 L250 -195 L289 -53 L287 -50 L252 -50 Z " />
<glyph glyph-name="kgreenlandic" unicode="&#x138;" horiz-adv-x="481" d="M247 279 L464 496 L461 500 L419 500 L124 204 L124 500 L86 500 L86 0 L124 0 L124 155 L221 252 L429 0 L470 0 L472 4 L247 279 Z " />
<glyph glyph-name="Lacute" unicode="&#x139;" horiz-adv-x="495" d="M197 844 L22 731 L22 728 L35 708 L38 708 L220 811 L220 814 L200 844 L197 844 Z M479 35 L140 35 L140 650 L100 650 L100 0 L479 0 L479 35 Z " />
<glyph glyph-name="lacute" unicode="&#x13a;" horiz-adv-x="215" d="M178 845 L3 732 L3 729 L16 709 L19 709 L201 812 L201 815 L181 845 L178 845 Z M88 0 L126 0 L126 679 L122 682 L88 677 L88 0 Z " />
<glyph glyph-name="Lcommaaccent" unicode="&#x13b;" horiz-adv-x="495" d="M479 35 L140 35 L140 650 L100 650 L100 0 L479 0 L479 35 Z M269 -53 L244 -195 L246 -198 L268 -198 L271 -195 L310 -53 L308 -50 L273 -50 L269 -53 Z " />
<glyph glyph-name="lcommaaccent" unicode="&#x13c;" horiz-adv-x="215" d="M88 0 L126 0 L126 679 L122 682 L88 677 L88 0 Z M87 -53 L62 -195 L64 -198 L86 -198 L89 -195 L128 -53 L126 -50 L91 -50 L87 -53 Z " />
<glyph glyph-name="Lcaron" unicode="&#x13d;" horiz-adv-x="496" d="M291 705 L261 540 L263 537 L285 537 L289 540 L334 705 L332 708 L295 708 L291 705 Z M479 35 L140 35 L140 650 L100 650 L100 0 L479 0 L479 35 Z " />
<glyph glyph-name="lcaron" unicode="&#x13e;" horiz-adv-x="212" d="M217 698 L187 533 L189 530 L211 530 L215 533 L260 698 L258 702 L221 702 L217 698 Z M88 0 L126 0 L126 679 L122 682 L88 677 L88 0 Z " />
<glyph glyph-name="Ldot" unicode="&#x13f;" horiz-adv-x="498" d="M479 35 L140 35 L140 650 L100 650 L100 0 L479 0 L479 35 Z M344 285 C366 285 384 303 384 325 C384 348 366 366 344 366 C321 366 303 348 303 325 C303 303 321 285 344 285 L344 285 Z " />
<glyph glyph-name="ldot" unicode="&#x140;" horiz-adv-x="222" d="M88 0 L126 0 L126 679 L122 682 L88 677 L88 0 Z M203 312 C225 312 243 330 243 352 C243 375 225 393 203 393 C180 393 162 375 162 352 C162 330 180 312 203 312 L203 312 Z " />
<glyph glyph-name="Lslash" unicode="&#x141;" horiz-adv-x="516" d="M160 35 L160 272 L296 339 L296 370 L291 372 L160 307 L160 650 L120 650 L120 287 L14 235 L14 205 L18 203 L120 253 L120 0 L499 0 L499 35 L160 35 Z " />
<glyph glyph-name="lslash" unicode="&#x142;" horiz-adv-x="270" d="M240 410 L236 413 L155 372 L155 679 L150 682 L117 677 L117 352 L31 308 L31 278 L35 276 L117 318 L117 0 L155 0 L155 337 L240 381 L240 410 Z " />
<glyph glyph-name="Nacute" unicode="&#x143;" horiz-adv-x="701" d="M271 708 L453 811 L453 814 L433 844 L430 844 L255 731 L255 728 L268 708 L271 708 Z M563 650 L563 64 L125 650 L100 650 L100 0 L139 0 L139 576 L577 -10 L601 -10 L601 650 L563 650 Z " />
<glyph glyph-name="nacute" unicode="&#x144;" horiz-adv-x="587" d="M231 559 L400 679 L400 682 L377 711 L374 711 L213 582 L213 579 L228 559 L231 559 Z M308 512 C221 512 155 470 122 407 L122 500 L86 500 L86 0 L124 0 L124 303 C124 402 196 477 303 477 C404 477 471 411 471 309 L471 0 L509 0 L509 311 C509 432 428 512 308 512 L308 512 Z " />
<glyph glyph-name="Ncommaaccent" unicode="&#x145;" horiz-adv-x="701" d="M563 650 L563 64 L125 650 L100 650 L100 0 L139 0 L139 576 L577 -10 L601 -10 L601 650 L563 650 Z M337 -50 L333 -53 L308 -195 L310 -198 L332 -198 L335 -195 L374 -53 L372 -50 L337 -50 Z " />
<glyph glyph-name="ncommaaccent" unicode="&#x146;" horiz-adv-x="587" d="M308 512 C221 512 155 470 122 407 L122 500 L86 500 L86 0 L124 0 L124 303 C124 402 196 477 303 477 C404 477 471 411 471 309 L471 0 L509 0 L509 311 C509 432 428 512 308 512 L308 512 Z M282 -50 L278 -53 L253 -195 L255 -198 L277 -198 L280 -195 L319 -53 L317 -50 L282 -50 Z " />
<glyph glyph-name="Ncaron" unicode="&#x147;" horiz-adv-x="701" d="M353 716 L496 806 L496 809 L481 831 L478 831 L351 759 L223 831 L220 831 L205 809 L205 806 L348 716 L353 716 Z M563 650 L563 64 L125 650 L100 650 L100 0 L139 0 L139 576 L577 -10 L601 -10 L601 650 L563 650 Z " />
<glyph glyph-name="ncaron" unicode="&#x148;" horiz-adv-x="587" d="M311 559 L448 650 L448 653 L431 674 L427 674 L307 601 L186 674 L183 674 L166 653 L166 650 L302 559 L311 559 Z M308 512 C221 512 155 470 122 407 L122 500 L86 500 L86 0 L124 0 L124 303 C124 402 196 477 303 477 C404 477 471 411 471 309 L471 0 L509 0 L509 311 C509 432 428 512 308 512 L308 512 Z " />
<glyph glyph-name="napostrophe" unicode="&#x149;" horiz-adv-x="583" d="M93 562 L138 708 L136 711 L99 711 L96 708 L66 562 L68 559 L90 559 L93 562 Z M303 512 C217 512 152 471 118 408 L118 500 L81 500 L81 0 L119 0 L119 303 C119 402 192 477 299 477 C399 477 466 411 466 309 L466 0 L504 0 L504 311 C504 432 423 512 303 512 L303 512 Z " />
<glyph glyph-name="Eng" unicode="&#x14a;" horiz-adv-x="701" d="M563 650 L563 64 L125 650 L100 650 L100 0 L139 0 L139 576 L563 7 L563 -29 C563 -108 513 -160 439 -160 C387 -160 336 -133 310 -93 L306 -93 L283 -113 L283 -117 C311 -164 373 -194 438 -194 C532 -194 601 -132 601 -32 L601 650 L563 650 Z " />
<glyph glyph-name="eng" unicode="&#x14b;" horiz-adv-x="587" d="M308 512 C221 512 155 470 122 407 L122 500 L86 500 L86 0 L124 0 L124 303 C124 402 196 477 303 477 C404 477 471 411 471 309 L471 24 C470 -57 446 -91 393 -119 L392 -123 L406 -150 L411 -150 C473 -118 508 -72 509 25 L509 311 C509 432 428 512 308 512 L308 512 Z " />
<glyph glyph-name="Omacron" unicode="&#x14c;" horiz-adv-x="786" d="M256 769 L256 737 L530 737 L530 769 L256 769 Z M393 -12 C590 -12 736 135 736 325 C736 515 590 662 393 662 C196 662 50 515 50 325 C50 135 196 -12 393 -12 L393 -12 Z M393 25 C220 25 89 155 89 325 C89 495 220 625 393 625 C566 625 696 495 696 325 C696 155 566 25 393 25 L393 25 Z " />
<glyph glyph-name="omacron" unicode="&#x14d;" horiz-adv-x="622" d="M176 634 L176 601 L446 601 L446 634 L176 634 Z M311 -12 C463 -12 576 102 576 250 C576 398 463 512 311 512 C159 512 46 398 46 250 C46 102 159 -12 311 -12 L311 -12 Z M311 23 C180 23 85 121 85 250 C85 379 181 477 311 477 C441 477 537 379 537 250 C537 121 441 23 311 23 L311 23 Z " />
<glyph glyph-name="Ohungarumlaut" unicode="&#x150;" horiz-adv-x="786" d="M381 857 L300 711 L302 708 L331 708 L425 853 L423 857 L381 857 Z M499 857 L418 711 L419 708 L449 708 L543 853 L541 857 L499 857 Z M393 -12 C590 -12 736 135 736 325 C736 515 590 662 393 662 C196 662 50 515 50 325 C50 135 196 -12 393 -12 L393 -12 Z M393 25 C220 25 89 155 89 325 C89 495 220 625 393 625 C566 625 696 495 696 325 C696 155 566 25 393 25 L393 25 Z " />
<glyph glyph-name="ohungarumlaut" unicode="&#x151;" horiz-adv-x="622" d="M294 708 L228 562 L230 559 L254 559 L258 562 L340 708 L338 711 L298 711 L294 708 Z M407 708 L341 562 L343 559 L367 559 L370 562 L453 708 L451 711 L411 711 L407 708 Z M311 -12 C463 -12 576 102 576 250 C576 398 463 512 311 512 C159 512 46 398 46 250 C46 102 159 -12 311 -12 L311 -12 Z M311 23 C180 23 85 121 85 250 C85 379 181 477 311 477 C441 477 537 379 537 250 C537 121 441 23 311 23 L311 23 Z " />
<glyph glyph-name="OE" unicode="&#x152;" horiz-adv-x="1155" d="M1112 615 L1112 650 L696 650 L696 488 C640 593 528 662 393 662 C196 662 50 515 50 325 C50 135 196 -12 393 -12 C528 -12 640 57 696 162 L696 0 L1112 0 L1112 35 L736 35 L736 311 L1034 311 L1034 346 L736 346 L736 615 L1112 615 Z M393 25 C220 25 89 155 89 325 C89 495 220 625 393 625 C566 625 696 495 696 325 C696 155 566 25 393 25 L393 25 Z " />
<glyph glyph-name="oe" unicode="&#x153;" horiz-adv-x="1064" d="M1023 254 C1023 317 1005 374 972 419 C932 476 867 512 783 512 C716 512 659 487 617 447 C590 422 569 390 556 354 C517 448 425 512 311 512 C159 512 46 398 46 250 C46 102 159 -12 311 -12 C425 -12 517 52 556 146 C594 47 688 -12 792 -12 C877 -12 963 28 1009 92 L1009 97 L986 116 L982 116 C942 60 866 23 792 23 C676 23 582 107 576 237 L1022 237 C1022 242 1023 247 1023 254 L1023 254 Z M311 23 C180 23 85 121 85 250 C85 379 181 477 311 477 C441 477 537 379 537 250 C537 121 441 23 311 23 L311 23 Z M577 271 C579 330 601 381 637 417 C674 454 724 477 784 477 C855 477 909 447 942 399 C967 364 982 320 984 271 L577 271 Z " />
<glyph glyph-name="Racute" unicode="&#x154;" horiz-adv-x="603" d="M205 708 L387 811 L387 814 L367 844 L364 844 L189 731 L189 728 L202 708 L205 708 Z M550 470 C550 580 470 650 339 650 L100 650 L100 0 L140 0 L140 288 L339 288 L354 288 L503 0 L539 0 L542 4 L393 292 C492 310 550 375 550 470 L550 470 Z M140 322 L140 615 L346 615 C447 615 510 556 510 470 C510 383 447 322 346 322 L140 322 Z " />
<glyph glyph-name="racute" unicode="&#x155;" horiz-adv-x="336" d="M135 559 L304 679 L304 682 L281 711 L278 711 L117 582 L117 579 L132 559 L135 559 Z M332 499 C313 508 292 512 270 512 C207 512 151 471 122 403 L122 500 L86 500 L86 0 L124 0 L124 288 C124 400 191 476 266 476 C284 476 301 473 316 465 L320 467 L333 495 L332 499 Z " />
<glyph glyph-name="Rcommaaccent" unicode="&#x156;" horiz-adv-x="603" d="M550 470 C550 580 470 650 339 650 L100 650 L100 0 L140 0 L140 288 L339 288 L354 288 L503 0 L539 0 L542 4 L393 292 C492 310 550 375 550 470 L550 470 Z M140 322 L140 615 L346 615 C447 615 510 556 510 470 C510 383 447 322 346 322 L140 322 Z M288 -50 L284 -53 L259 -195 L261 -198 L283 -198 L286 -195 L325 -53 L323 -50 L288 -50 Z " />
<glyph glyph-name="rcommaaccent" unicode="&#x157;" horiz-adv-x="336" d="M332 499 C313 508 292 512 270 512 C207 512 151 471 122 403 L122 500 L86 500 L86 0 L124 0 L124 288 C124 400 191 476 266 476 C284 476 301 473 316 465 L320 467 L333 495 L332 499 Z M88 -50 L84 -53 L59 -195 L61 -198 L83 -198 L86 -195 L125 -53 L123 -50 L88 -50 Z " />
<glyph glyph-name="Rcaron" unicode="&#x158;" horiz-adv-x="603" d="M287 716 L430 806 L430 809 L415 831 L412 831 L285 759 L157 831 L154 831 L139 809 L139 806 L282 716 L287 716 Z M550 470 C550 580 470 650 339 650 L100 650 L100 0 L140 0 L140 288 L339 288 L354 288 L503 0 L539 0 L542 4 L393 292 C492 310 550 375 550 470 L550 470 Z M140 322 L140 615 L346 615 C447 615 510 556 510 470 C510 383 447 322 346 322 L140 322 Z " />
<glyph glyph-name="rcaron" unicode="&#x159;" horiz-adv-x="336" d="M335 674 L331 674 L211 601 L90 674 L87 674 L70 653 L70 650 L206 559 L215 559 L352 650 L352 653 L335 674 Z M270 512 C207 512 151 471 122 403 L122 500 L86 500 L86 0 L124 0 L124 288 C124 400 191 476 266 476 C284 476 301 473 316 465 L320 467 L333 495 L332 499 C313 508 292 512 270 512 L270 512 Z " />
<glyph glyph-name="Sacute" unicode="&#x15a;" horiz-adv-x="520" d="M347 844 L172 731 L172 728 L185 708 L188 708 L370 811 L370 814 L350 844 L347 844 Z M270 -12 C389 -12 476 59 476 164 C476 290 355 321 250 363 C170 396 111 429 111 501 C111 572 174 625 266 625 C329 625 387 599 427 548 L431 548 L455 570 L455 574 C408 634 341 662 266 662 C149 662 70 592 70 498 C70 399 152 360 231 327 C330 287 435 263 435 161 C435 83 366 25 266 25 C186 25 108 68 63 134 L59 134 L33 112 L33 108 C81 35 176 -12 270 -12 L270 -12 Z " />
<glyph glyph-name="sacute" unicode="&#x15b;" horiz-adv-x="421" d="M283 711 L122 582 L122 579 L137 559 L140 559 L309 679 L309 682 L286 711 L283 711 Z M208 -12 C309 -12 378 42 378 123 C378 225 285 254 199 289 C145 310 101 335 101 388 C101 441 148 477 213 477 C266 477 311 452 341 409 L345 409 L369 427 L369 431 C337 481 278 512 214 512 C129 512 63 462 63 385 C63 314 121 282 180 258 C256 227 339 202 339 123 C339 62 285 23 206 23 C139 23 88 54 58 103 L54 103 L30 85 L30 81 C67 24 127 -12 208 -12 L208 -12 Z " />
<glyph glyph-name="Scedilla" unicode="&#x15e;" horiz-adv-x="520" d="M476 164 C476 290 355 321 250 363 C170 396 111 429 111 501 C111 572 174 625 266 625 C329 625 387 599 427 548 L431 548 L455 570 L455 574 C408 634 341 662 266 662 C149 662 70 592 70 498 C70 399 152 360 231 327 C330 287 435 263 435 161 C435 83 366 25 266 25 C186 25 108 68 63 134 L59 134 L33 112 L33 108 C76 42 157 -2 241 -11 L223 -76 L238 -84 C286 -76 331 -85 331 -121 C331 -147 310 -162 273 -162 C246 -162 222 -153 204 -138 L200 -138 L185 -160 L185 -164 C208 -182 243 -193 275 -193 C334 -193 369 -164 369 -120 C369 -73 331 -50 271 -52 L280 -12 C394 -8 476 62 476 164 L476 164 Z " />
<glyph glyph-name="scedilla" unicode="&#x15f;" horiz-adv-x="421" d="M378 123 C378 225 285 254 199 289 C145 310 101 335 101 388 C101 441 148 477 213 477 C266 477 311 452 341 409 L345 409 L369 427 L369 431 C337 481 278 512 214 512 C129 512 63 462 63 385 C63 314 121 282 180 258 C256 227 339 202 339 123 C339 62 285 23 206 23 C139 23 88 54 58 103 L54 103 L30 85 L30 81 C63 30 116 -5 185 -11 L167 -76 L182 -84 C230 -76 275 -85 275 -121 C275 -147 254 -162 217 -162 C190 -162 166 -153 148 -138 L144 -138 L129 -160 L129 -164 C152 -182 187 -193 219 -193 C278 -193 313 -164 313 -120 C313 -73 275 -50 215 -52 L224 -12 C316 -6 378 46 378 123 L378 123 Z " />
<glyph glyph-name="Scaron" unicode="&#x160;" horiz-adv-x="520" d="M270 716 L413 806 L413 809 L398 831 L395 831 L268 759 L140 831 L137 831 L122 809 L122 806 L265 716 L270 716 Z M250 363 C170 396 111 429 111 501 C111 572 174 625 266 625 C329 625 387 599 427 548 L431 548 L455 570 L455 574 C408 634 341 662 266 662 C149 662 70 592 70 498 C70 399 152 360 231 327 C330 287 435 263 435 161 C435 83 366 25 266 25 C186 25 108 68 63 134 L59 134 L33 112 L33 108 C81 35 176 -12 270 -12 C389 -12 476 59 476 164 C476 290 355 321 250 363 L250 363 Z " />
<glyph glyph-name="scaron" unicode="&#x161;" horiz-adv-x="421" d="M220 559 L357 650 L357 653 L340 674 L336 674 L216 601 L95 674 L92 674 L75 653 L75 650 L211 559 L220 559 Z M199 289 C145 310 101 335 101 388 C101 441 148 477 213 477 C266 477 311 452 341 409 L345 409 L369 427 L369 431 C337 481 278 512 214 512 C129 512 63 462 63 385 C63 314 121 282 180 258 C256 227 339 202 339 123 C339 62 285 23 206 23 C139 23 88 54 58 103 L54 103 L30 85 L30 81 C67 24 127 -12 208 -12 C309 -12 378 42 378 123 C378 225 285 254 199 289 L199 289 Z " />
<glyph glyph-name="uni0162" unicode="&#x162;" horiz-adv-x="522" d="M279 0 L279 615 L507 615 L507 650 L14 650 L14 615 L240 615 L240 0 L219 -76 L234 -84 C282 -76 327 -85 327 -121 C327 -147 306 -162 269 -162 C242 -162 218 -153 200 -138 L196 -138 L181 -160 L181 -164 C204 -182 239 -193 271 -193 C330 -193 365 -164 365 -120 C365 -73 327 -50 267 -52 L279 0 Z " />
<glyph glyph-name="uni0163" unicode="&#x163;" horiz-adv-x="329" d="M239 -12 C275 -12 303 -1 326 17 L327 22 L313 46 L309 47 C291 30 265 23 241 23 C178 23 143 61 143 134 L143 466 L307 466 L307 500 L143 500 L143 659 L138 662 L105 657 L105 500 L15 500 L15 466 L105 466 L105 132 C105 58 137 10 192 -6 L173 -76 L188 -84 C236 -76 281 -85 281 -121 C281 -147 260 -162 223 -162 C196 -162 172 -153 154 -138 L150 -138 L135 -160 L135 -164 C158 -182 193 -193 225 -193 C284 -193 319 -164 319 -120 C319 -73 281 -50 221 -52 L230 -12 L239 -12 Z " />
<glyph glyph-name="Tcaron" unicode="&#x164;" horiz-adv-x="522" d="M262 716 L405 806 L405 809 L390 831 L387 831 L260 759 L132 831 L129 831 L114 809 L114 806 L257 716 L262 716 Z M14 650 L14 615 L240 615 L240 0 L279 0 L279 615 L507 615 L507 650 L14 650 Z " />
<glyph glyph-name="tcaron" unicode="&#x165;" horiz-adv-x="329" d="M221 545 L225 548 L270 713 L268 716 L231 716 L227 713 L197 548 L199 545 L221 545 Z M313 46 L309 47 C291 30 265 23 241 23 C178 23 143 61 143 134 L143 466 L307 466 L307 500 L143 500 L143 659 L138 662 L105 657 L105 500 L15 500 L15 466 L105 466 L105 132 C105 39 155 -12 239 -12 C275 -12 303 -1 326 17 L327 22 L313 46 Z " />
<glyph glyph-name="Tbar" unicode="&#x166;" horiz-adv-x="533" d="M513 615 L513 650 L20 650 L20 615 L246 615 L246 342 L134 342 L134 310 L246 310 L246 0 L285 0 L285 310 L397 310 L397 342 L285 342 L285 615 L513 615 Z " />
<glyph glyph-name="tbar" unicode="&#x167;" horiz-adv-x="340" d="M322 46 L318 47 C300 30 274 23 250 23 C187 23 152 61 152 134 L152 252 L286 252 L286 284 L152 284 L152 466 L316 466 L316 500 L152 500 L152 659 L147 662 L114 657 L114 500 L24 500 L24 466 L114 466 L114 284 L23 284 L23 252 L114 252 L114 132 C114 39 164 -12 248 -12 C284 -12 312 -1 335 17 L336 22 L322 46 Z " />
<glyph glyph-name="Utilde" unicode="&#x168;" horiz-adv-x="707" d="M426 730 C457 730 485 742 496 764 L496 798 L492 801 L489 801 C480 779 455 765 428 765 C383 765 334 801 281 801 C250 801 222 789 211 767 L211 733 L215 730 L218 730 C227 753 252 766 279 766 C333 766 376 730 426 730 L426 730 Z M91 650 L91 254 C91 94 196 -12 354 -12 C511 -12 616 94 616 254 L616 650 L578 650 L578 255 C578 117 488 24 354 24 C220 24 130 117 130 255 L130 650 L91 650 Z " />
<glyph glyph-name="utilde" unicode="&#x169;" horiz-adv-x="576" d="M150 599 C159 619 185 633 215 633 C266 633 306 599 351 599 C384 599 411 612 422 632 L422 665 L419 667 L416 667 C408 647 385 633 352 633 C310 633 265 668 215 668 C185 668 155 655 144 634 L144 601 L148 599 L150 599 Z M452 500 L452 197 C452 98 382 23 275 23 C183 23 116 89 116 189 L116 500 L78 500 L78 189 C78 66 160 -12 270 -12 C355 -12 420 29 453 91 L453 0 L490 0 L490 500 L452 500 Z " />
<glyph glyph-name="Umacron" unicode="&#x16a;" horiz-adv-x="707" d="M217 769 L217 737 L491 737 L491 769 L217 769 Z M91 650 L91 254 C91 94 196 -12 354 -12 C511 -12 616 94 616 254 L616 650 L578 650 L578 255 C578 117 488 24 354 24 C220 24 130 117 130 255 L130 650 L91 650 Z " />
<glyph glyph-name="umacron" unicode="&#x16b;" horiz-adv-x="576" d="M418 634 L148 634 L148 601 L418 601 L418 634 Z M452 500 L452 197 C452 98 382 23 275 23 C183 23 116 89 116 189 L116 500 L78 500 L78 189 C78 66 160 -12 270 -12 C355 -12 420 29 453 91 L453 0 L490 0 L490 500 L452 500 Z " />
<glyph glyph-name="Uring" unicode="&#x16e;" horiz-adv-x="707" d="M354 704 C402 704 440 741 440 788 C440 834 402 871 354 871 C306 871 268 834 268 788 C268 741 306 704 354 704 L354 704 Z M354 732 C320 732 299 760 299 788 C299 816 320 843 354 843 C388 843 409 816 409 788 C409 760 388 732 354 732 L354 732 Z M91 650 L91 254 C91 94 196 -12 354 -12 C511 -12 616 94 616 254 L616 650 L578 650 L578 255 C578 117 488 24 354 24 C220 24 130 117 130 255 L130 650 L91 650 Z " />
<glyph glyph-name="uring" unicode="&#x16f;" horiz-adv-x="576" d="M283 552 C332 552 369 589 369 636 C369 683 332 720 283 720 C234 720 197 683 197 636 C197 589 234 552 283 552 L283 552 Z M283 690 C317 690 336 663 336 636 C336 609 317 582 283 582 C248 582 229 609 229 636 C229 663 248 690 283 690 L283 690 Z M452 500 L452 197 C452 98 382 23 275 23 C183 23 116 89 116 189 L116 500 L78 500 L78 189 C78 66 160 -12 270 -12 C355 -12 420 29 453 91 L453 0 L490 0 L490 500 L452 500 Z " />
<glyph glyph-name="Uhungarumlaut" unicode="&#x170;" horiz-adv-x="707" d="M342 857 L261 711 L263 708 L292 708 L386 853 L384 857 L342 857 Z M460 857 L379 711 L380 708 L410 708 L504 853 L502 857 L460 857 Z M91 650 L91 254 C91 94 196 -12 354 -12 C511 -12 616 94 616 254 L616 650 L578 650 L578 255 C578 117 488 24 354 24 C220 24 130 117 130 255 L130 650 L91 650 Z " />
<glyph glyph-name="uhungarumlaut" unicode="&#x171;" horiz-adv-x="576" d="M226 559 L230 562 L312 708 L310 711 L270 711 L266 708 L200 562 L202 559 L226 559 Z M339 559 L342 562 L425 708 L423 711 L383 711 L379 708 L313 562 L315 559 L339 559 Z M452 500 L452 197 C452 98 382 23 275 23 C183 23 116 89 116 189 L116 500 L78 500 L78 189 C78 66 160 -12 270 -12 C355 -12 420 29 453 91 L453 0 L490 0 L490 500 L452 500 Z " />
<glyph glyph-name="Uogonek" unicode="&#x172;" horiz-adv-x="707" d="M578 650 L578 255 C578 117 488 24 354 24 C220 24 130 117 130 255 L130 650 L91 650 L91 254 C91 94 196 -12 354 -12 C372 -12 389 -11 405 -8 C389 -27 374 -52 374 -83 C374 -133 411 -166 466 -166 C492 -166 513 -161 533 -151 L534 -147 L524 -127 L520 -126 C506 -132 493 -137 471 -137 C433 -137 408 -114 408 -80 C408 -31 453 -1 469 10 C560 49 616 137 616 254 L616 650 L578 650 Z " />
<glyph glyph-name="uogonek" unicode="&#x173;" horiz-adv-x="576" d="M539 -141 L535 -140 C521 -146 508 -151 486 -151 C448 -151 423 -128 423 -94 C423 -38 483 -6 489 0 L490 0 L490 500 L452 500 L452 197 C452 98 382 23 275 23 C183 23 116 89 116 189 L116 500 L78 500 L78 189 C78 66 160 -12 270 -12 C355 -12 420 29 453 91 L453 7 C431 -8 389 -45 389 -97 C389 -147 426 -180 481 -180 C507 -180 528 -175 548 -165 L549 -161 L539 -141 Z " />
<glyph glyph-name="Wcircumflex" unicode="&#x174;" horiz-adv-x="939" d="M341 719 L469 791 L596 719 L599 719 L614 741 L614 744 L471 833 L465 833 L322 744 L322 741 L338 719 L341 719 Z M910 650 L874 650 L666 72 L482 650 L457 650 L275 75 L68 650 L29 650 L26 646 L263 0 L287 0 L469 570 L652 0 L676 0 L913 646 L910 650 Z " />
<glyph glyph-name="wcircumflex" unicode="&#x175;" horiz-adv-x="737" d="M248 568 L369 641 L489 568 L493 568 L510 589 L510 592 L373 683 L364 683 L228 592 L228 589 L245 568 L248 568 Z M713 500 L676 500 L529 71 L381 500 L356 500 L208 73 L61 500 L25 500 L22 496 L197 0 L219 0 L368 429 L517 0 L539 0 L715 496 L713 500 Z " />
<glyph glyph-name="Ycircumflex" unicode="&#x176;" horiz-adv-x="606" d="M175 719 L303 791 L430 719 L433 719 L448 741 L448 744 L305 833 L299 833 L156 744 L156 741 L172 719 L175 719 Z M573 646 L571 650 L532 650 L304 285 L75 650 L33 650 L31 646 L284 248 L284 0 L323 0 L323 249 L573 646 Z " />
<glyph glyph-name="ycircumflex" unicode="&#x177;" horiz-adv-x="505" d="M133 568 L254 641 L374 568 L378 568 L395 589 L395 592 L258 683 L249 683 L113 592 L113 589 L130 568 L133 568 Z M482 500 L446 500 L254 61 L62 500 L25 500 L22 496 L233 16 L197 -64 C177 -111 151 -127 120 -127 C103 -127 85 -120 70 -110 L66 -111 L53 -137 L54 -141 C70 -152 94 -160 120 -160 C168 -160 203 -137 233 -70 L485 496 L482 500 Z " />
<glyph glyph-name="Ydieresis" unicode="&#x178;" horiz-adv-x="606" d="M221 731 C244 731 263 749 263 772 C263 795 244 813 221 813 C198 813 180 795 180 772 C180 749 198 731 221 731 L221 731 Z M386 731 C409 731 428 749 428 772 C428 795 409 813 386 813 C363 813 345 795 345 772 C345 749 363 731 386 731 L386 731 Z M573 646 L571 650 L532 650 L304 285 L75 650 L33 650 L31 646 L284 248 L284 0 L323 0 L323 249 L573 646 Z " />
<glyph glyph-name="Zacute" unicode="&#x179;" horiz-adv-x="534" d="M189 708 L371 811 L371 814 L351 844 L348 844 L173 731 L173 728 L186 708 L189 708 Z M76 34 L491 626 L491 650 L45 650 L45 616 L440 616 L24 24 L24 0 L512 0 L512 34 L76 34 Z " />
<glyph glyph-name="zacute" unicode="&#x17a;" horiz-adv-x="454" d="M295 711 L134 582 L134 579 L149 559 L152 559 L321 679 L321 682 L298 711 L295 711 Z M26 0 L430 0 L430 32 L75 32 L411 473 L411 500 L43 500 L43 468 L363 468 L26 27 L26 0 Z " />
<glyph glyph-name="Zdotaccent" unicode="&#x17b;" horiz-adv-x="534" d="M268 731 C289 731 308 749 308 771 C308 792 289 811 268 811 C246 811 227 792 227 771 C227 749 246 731 268 731 L268 731 Z M76 34 L491 626 L491 650 L45 650 L45 616 L440 616 L24 24 L24 0 L512 0 L512 34 L76 34 Z " />
<glyph glyph-name="zdotaccent" unicode="&#x17c;" horiz-adv-x="454" d="M228 589 C250 589 269 607 269 630 C269 652 250 670 228 670 C206 670 187 652 187 630 C187 607 206 589 228 589 L228 589 Z M26 0 L430 0 L430 32 L75 32 L411 473 L411 500 L43 500 L43 468 L363 468 L26 27 L26 0 Z " />
<glyph glyph-name="Zcaron" unicode="&#x17d;" horiz-adv-x="534" d="M270 716 L413 806 L413 809 L398 831 L395 831 L268 759 L140 831 L137 831 L122 809 L122 806 L265 716 L270 716 Z M76 34 L491 626 L491 650 L45 650 L45 616 L440 616 L24 24 L24 0 L512 0 L512 34 L76 34 Z " />
<glyph glyph-name="zcaron" unicode="&#x17e;" horiz-adv-x="454" d="M232 559 L369 650 L369 653 L352 674 L348 674 L228 601 L107 674 L104 674 L87 653 L87 650 L223 559 L232 559 Z M75 32 L411 473 L411 500 L43 500 L43 468 L363 468 L26 27 L26 0 L430 0 L430 32 L75 32 Z " />
<glyph glyph-name="uni01EA" unicode="&#x1ea;" horiz-adv-x="786" d="M538 18 C658 70 736 186 736 325 C736 515 590 662 393 662 C196 662 50 515 50 325 C50 135 196 -12 393 -12 C420 -12 445 -9 470 -4 C454 -23 440 -48 440 -78 C440 -128 477 -161 532 -161 C558 -161 579 -156 599 -146 L600 -142 L590 -122 L586 -121 C572 -127 559 -132 537 -132 C499 -132 474 -109 474 -75 C474 -23 526 9 538 18 L538 18 Z M89 325 C89 495 220 625 393 625 C566 625 696 495 696 325 C696 155 566 25 393 25 C220 25 89 155 89 325 L89 325 Z " />
<glyph glyph-name="uni01EB" unicode="&#x1eb;" horiz-adv-x="622" d="M404 3 C507 39 576 134 576 250 C576 398 463 512 311 512 C159 512 46 398 46 250 C46 102 159 -12 311 -12 C322 -12 333 -11 343 -10 C324 -30 306 -58 306 -92 C306 -142 343 -175 398 -175 C424 -175 445 -170 465 -160 L466 -156 L456 -136 L452 -135 C438 -141 425 -146 403 -146 C365 -146 340 -123 340 -89 C340 -37 392 -5 404 3 L404 3 Z M85 250 C85 379 181 477 311 477 C441 477 537 379 537 250 C537 121 441 23 311 23 C180 23 85 121 85 250 L85 250 Z " />
<glyph glyph-name="AEacute" unicode="&#x1fc;" horiz-adv-x="923" d="M597 708 L779 811 L779 814 L759 844 L756 844 L581 731 L581 728 L594 708 L597 708 Z M881 615 L881 650 L447 650 L-9 4 L-7 0 L32 0 L147 161 L465 161 L465 0 L881 0 L881 35 L505 35 L505 311 L803 311 L803 346 L505 346 L505 615 L881 615 Z M171 196 L465 609 L465 196 L171 196 Z " />
<glyph glyph-name="aeacute" unicode="&#x1fd;" horiz-adv-x="949" d="M396 559 L565 679 L565 682 L542 711 L539 711 L378 582 L378 579 L393 559 L396 559 Z M907 237 C907 242 908 247 908 254 C908 315 890 371 858 414 C819 474 753 512 668 512 C568 512 490 459 451 378 C430 461 361 512 258 512 C188 512 112 482 65 433 L65 429 L82 406 L87 406 C129 450 197 477 258 477 C356 477 420 417 420 329 L420 259 C371 285 307 305 243 305 C122 305 39 241 39 145 C39 51 117 -12 230 -12 C337 -12 421 51 446 133 C488 42 577 -12 677 -12 C762 -12 848 28 894 92 L894 97 L871 116 L867 116 C827 60 751 23 677 23 C562 23 467 106 461 237 L907 237 Z M669 477 C745 477 800 442 833 387 C853 355 865 316 868 272 L461 272 C468 392 551 477 669 477 L669 477 Z M420 185 C420 97 338 23 231 23 C141 23 79 72 79 144 C79 220 145 271 244 271 C311 271 379 247 420 223 L420 185 Z " />
<glyph glyph-name="Oslashacute" unicode="&#x1fe;" horiz-adv-x="786" d="M314 708 L496 811 L496 814 L476 844 L473 844 L298 731 L298 728 L311 708 L314 708 Z M595 601 L664 704 L661 708 L624 708 L565 619 C515 647 457 662 393 662 C196 662 50 515 50 325 C50 210 103 111 189 51 L125 -45 L127 -49 L165 -49 L219 32 C269 4 328 -12 393 -12 C590 -12 736 135 736 325 C736 441 682 540 595 601 L595 601 Z M89 325 C89 495 220 625 393 625 C449 625 500 611 544 587 L210 83 C135 137 89 224 89 325 L89 325 Z M393 25 C336 25 284 39 240 64 L574 568 C649 515 696 427 696 325 C696 155 566 25 393 25 L393 25 Z " />
<glyph glyph-name="oslashacute" unicode="&#x1ff;" horiz-adv-x="622" d="M235 559 L404 679 L404 682 L381 711 L378 711 L217 582 L217 579 L232 559 L235 559 Z M477 457 L545 555 L543 559 L506 559 L448 476 C409 499 362 512 311 512 C159 512 46 398 46 250 C46 164 84 90 146 42 L87 -42 L89 -46 L125 -46 L174 24 C213 1 260 -12 311 -12 C463 -12 576 102 576 250 C576 336 538 410 477 457 L477 457 Z M85 250 C85 379 181 477 311 477 C354 477 394 466 428 447 L167 72 C116 113 85 177 85 250 L85 250 Z M311 23 C267 23 228 34 194 53 L456 427 C506 386 537 323 537 250 C537 121 441 23 311 23 L311 23 Z " />
<glyph glyph-name="Scommaaccent" unicode="&#x218;" horiz-adv-x="520" d="M270 -12 C389 -12 476 59 476 164 C476 290 355 321 250 363 C170 396 111 429 111 501 C111 572 174 625 266 625 C329 625 387 599 427 548 L431 548 L455 570 L455 574 C408 634 341 662 266 662 C149 662 70 592 70 498 C70 399 152 360 231 327 C330 287 435 263 435 161 C435 83 366 25 266 25 C186 25 108 68 63 134 L59 134 L33 112 L33 108 C81 35 176 -12 270 -12 L270 -12 Z M243 -53 L218 -195 L220 -198 L242 -198 L245 -195 L284 -53 L282 -50 L247 -50 L243 -53 Z " />
<glyph glyph-name="scommaaccent" unicode="&#x219;" horiz-adv-x="421" d="M208 -12 C309 -12 378 42 378 123 C378 225 285 254 199 289 C145 310 101 335 101 388 C101 441 148 477 213 477 C266 477 311 452 341 409 L345 409 L369 427 L369 431 C337 481 278 512 214 512 C129 512 63 462 63 385 C63 314 121 282 180 258 C256 227 339 202 339 123 C339 62 285 23 206 23 C139 23 88 54 58 103 L54 103 L30 85 L30 81 C67 24 127 -12 208 -12 L208 -12 Z M186 -53 L161 -195 L163 -198 L185 -198 L188 -195 L227 -53 L225 -50 L190 -50 L186 -53 Z " />
<glyph glyph-name="uni021A" unicode="&#x21a;" horiz-adv-x="522" d="M279 615 L507 615 L507 650 L14 650 L14 615 L240 615 L240 0 L279 0 L279 615 Z M238 -53 L213 -195 L215 -198 L237 -198 L240 -195 L279 -53 L277 -50 L242 -50 L238 -53 Z " />
<glyph glyph-name="uni021B" unicode="&#x21b;" horiz-adv-x="329" d="M313 46 L309 47 C291 30 265 23 241 23 C178 23 143 61 143 134 L143 466 L307 466 L307 500 L143 500 L143 659 L138 662 L105 657 L105 500 L15 500 L15 466 L105 466 L105 132 C105 39 155 -12 239 -12 C275 -12 303 -1 326 17 L327 22 L313 46 Z M197 -50 L193 -53 L168 -195 L170 -198 L192 -198 L195 -195 L234 -53 L232 -50 L197 -50 Z " />
<glyph glyph-name="uni0237" unicode="&#x237;" horiz-adv-x="209" d="M86 500 L86 2 C86 -71 59 -102 15 -130 L15 -134 L29 -160 L33 -160 C88 -127 124 -88 124 4 L124 500 L86 500 Z " />
<glyph glyph-name="uni02BC" unicode="&#x2bc;" horiz-adv-x="161" d="M82 708 L52 562 L54 559 L76 559 L79 562 L124 708 L122 711 L85 711 L82 708 Z " />
<glyph glyph-name="circumflex" unicode="&#x2c6;" horiz-adv-x="355" d="M185 683 L176 683 L40 592 L40 589 L57 568 L60 568 L181 641 L301 568 L305 568 L322 589 L322 592 L185 683 Z " />
<glyph glyph-name="caron" unicode="&#x2c7;" horiz-adv-x="358" d="M305 674 L301 674 L181 601 L60 674 L57 674 L40 653 L40 650 L176 559 L185 559 L322 650 L322 653 L305 674 Z " />
<glyph glyph-name="breve" unicode="&#x2d8;" horiz-adv-x="362" d="M180 573 C251 573 305 621 314 692 L279 692 C270 639 231 604 180 604 C129 604 90 639 81 692 L46 692 C55 621 109 573 180 573 L180 573 Z " />
<glyph glyph-name="dotaccent" unicode="&#x2d9;" horiz-adv-x="114" d="M58 589 C80 589 99 607 99 630 C99 652 80 670 58 670 C36 670 17 652 17 630 C17 607 36 589 58 589 L58 589 Z " />
<glyph glyph-name="ring" unicode="&#x2da;" horiz-adv-x="251" d="M126 552 C175 552 212 589 212 636 C212 683 175 720 126 720 C77 720 40 683 40 636 C40 589 77 552 126 552 L126 552 Z M126 582 C91 582 72 609 72 636 C72 663 91 690 126 690 C160 690 179 663 179 636 C179 609 160 582 126 582 L126 582 Z " />
<glyph glyph-name="ogonek" unicode="&#x2db;" horiz-adv-x="242" d="M147 -175 C173 -175 194 -170 214 -160 L215 -156 L205 -136 L201 -135 C187 -141 174 -146 152 -146 C114 -146 89 -123 89 -89 C89 -33 149 -1 155 5 L127 17 C109 7 55 -33 55 -92 C55 -142 92 -175 147 -175 L147 -175 Z " />
<glyph glyph-name="tilde" unicode="&#x2dc;" horiz-adv-x="370" d="M255 599 C288 599 315 612 326 632 L326 665 L323 667 L320 667 C312 647 289 633 256 633 C214 633 169 668 119 668 C89 668 59 655 48 634 L48 601 L52 599 L54 599 C63 619 89 633 119 633 C170 633 210 599 255 599 L255 599 Z " />
<glyph glyph-name="hungarumlaut" unicode="&#x2dd;" horiz-adv-x="360" d="M115 708 L49 562 L51 559 L75 559 L79 562 L161 708 L159 711 L119 711 L115 708 Z M228 708 L162 562 L164 559 L188 559 L191 562 L274 708 L272 711 L232 711 L228 708 Z " />
<glyph glyph-name="uni0326" unicode="&#x326;" d="M-108 -53 L-133 -195 L-131 -198 L-109 -198 L-106 -195 L-67 -53 L-69 -50 L-104 -50 L-108 -53 Z " />
<glyph glyph-name="Wgrave" unicode="&#x1e80;" horiz-adv-x="939" d="M555 708 L569 728 L569 731 L394 844 L390 844 L371 814 L371 811 L552 708 L555 708 Z M910 650 L874 650 L666 72 L482 650 L457 650 L275 75 L68 650 L29 650 L26 646 L263 0 L287 0 L469 570 L652 0 L676 0 L913 646 L910 650 Z " />
<glyph glyph-name="wgrave" unicode="&#x1e81;" horiz-adv-x="737" d="M447 559 L462 579 L462 582 L302 711 L299 711 L275 682 L275 679 L444 559 L447 559 Z M713 500 L676 500 L529 71 L381 500 L356 500 L208 73 L61 500 L25 500 L22 496 L197 0 L219 0 L368 429 L517 0 L539 0 L715 496 L713 500 Z " />
<glyph glyph-name="Wacute" unicode="&#x1e82;" horiz-adv-x="939" d="M390 708 L572 811 L572 814 L552 844 L549 844 L374 731 L374 728 L387 708 L390 708 Z M910 650 L874 650 L666 72 L482 650 L457 650 L275 75 L68 650 L29 650 L26 646 L263 0 L287 0 L469 570 L652 0 L676 0 L913 646 L910 650 Z " />
<glyph glyph-name="wacute" unicode="&#x1e83;" horiz-adv-x="737" d="M293 559 L462 679 L462 682 L439 711 L436 711 L275 582 L275 579 L290 559 L293 559 Z M713 500 L676 500 L529 71 L381 500 L356 500 L208 73 L61 500 L25 500 L22 496 L197 0 L219 0 L368 429 L517 0 L539 0 L715 496 L713 500 Z " />
<glyph glyph-name="Wdieresis" unicode="&#x1e84;" horiz-adv-x="939" d="M387 731 C410 731 429 749 429 772 C429 795 410 813 387 813 C364 813 346 795 346 772 C346 749 364 731 387 731 L387 731 Z M552 731 C575 731 594 749 594 772 C594 795 575 813 552 813 C529 813 511 795 511 772 C511 749 529 731 552 731 L552 731 Z M910 650 L874 650 L666 72 L482 650 L457 650 L275 75 L68 650 L29 650 L26 646 L263 0 L287 0 L469 570 L652 0 L676 0 L913 646 L910 650 Z " />
<glyph glyph-name="wdieresis" unicode="&#x1e85;" horiz-adv-x="737" d="M296 589 C318 589 336 607 336 630 C336 652 318 670 296 670 C273 670 255 652 255 630 C255 607 273 589 296 589 L296 589 Z M441 589 C463 589 481 607 481 630 C481 652 463 670 441 670 C418 670 400 652 400 630 C400 607 418 589 441 589 L441 589 Z M713 500 L676 500 L529 71 L381 500 L356 500 L208 73 L61 500 L25 500 L22 496 L197 0 L219 0 L368 429 L517 0 L539 0 L715 496 L713 500 Z " />
<glyph glyph-name="uni1E9E" unicode="&#x1e9e;" horiz-adv-x="629" d="M372 375 L533 563 C486 630 408 662 331 662 C190 662 92 561 92 416 L92 0 L131 0 L131 415 C131 539 212 625 330 625 C384 625 443 607 484 562 L322 375 L322 339 L366 339 C474 339 543 272 543 183 C543 94 474 25 367 25 C317 25 273 40 237 66 L233 65 L216 39 L217 35 C259 6 312 -12 370 -12 C499 -12 583 74 583 182 C583 288 502 374 372 375 L372 375 Z " />
<glyph glyph-name="Ygrave" unicode="&#x1ef2;" horiz-adv-x="606" d="M388 708 L402 728 L402 731 L227 844 L223 844 L204 814 L204 811 L385 708 L388 708 Z M573 646 L571 650 L532 650 L304 285 L75 650 L33 650 L31 646 L284 248 L284 0 L323 0 L323 249 L573 646 Z " />
<glyph glyph-name="ygrave" unicode="&#x1ef3;" horiz-adv-x="505" d="M332 559 L347 579 L347 582 L187 711 L184 711 L160 682 L160 679 L329 559 L332 559 Z M482 500 L446 500 L254 61 L62 500 L25 500 L22 496 L233 16 L197 -64 C177 -111 151 -127 120 -127 C103 -127 85 -120 70 -110 L66 -111 L53 -137 L54 -141 C70 -152 94 -160 120 -160 C168 -160 203 -137 233 -70 L485 496 L482 500 Z " />
<glyph glyph-name="uni1EF8" unicode="&#x1ef8;" horiz-adv-x="606" d="M168 730 C177 753 202 766 229 766 C283 766 326 730 376 730 C407 730 435 742 446 764 L446 798 L442 801 L439 801 C430 779 405 765 378 765 C333 765 284 801 231 801 C200 801 172 789 161 767 L161 733 L165 730 L168 730 Z M573 646 L571 650 L532 650 L304 285 L75 650 L33 650 L31 646 L284 248 L284 0 L323 0 L323 249 L573 646 Z " />
<glyph glyph-name="uni1EF9" unicode="&#x1ef9;" horiz-adv-x="505" d="M121 599 C130 619 156 633 186 633 C237 633 277 599 322 599 C355 599 382 612 393 632 L393 665 L390 667 L387 667 C379 647 356 633 323 633 C281 633 236 668 186 668 C156 668 126 655 115 634 L115 601 L119 599 L121 599 Z M482 500 L446 500 L254 61 L62 500 L25 500 L22 496 L233 16 L197 -64 C177 -111 151 -127 120 -127 C103 -127 85 -120 70 -110 L66 -111 L53 -137 L54 -141 C70 -152 94 -160 120 -160 C168 -160 203 -137 233 -70 L485 496 L482 500 Z " />
<glyph glyph-name="endash" unicode="&#x2013;" horiz-adv-x="563" d="M70 316 L70 284 L493 284 L493 316 L70 316 Z " />
<glyph glyph-name="emdash" unicode="&#x2014;" horiz-adv-x="710" d="M70 316 L70 284 L641 284 L641 316 L70 316 Z " />
<glyph glyph-name="quoteleft" unicode="&#x2018;" horiz-adv-x="193" d="M127 676 L123 676 C64 601 51 560 51 529 C51 502 69 484 92 484 C116 484 134 501 134 525 C134 547 118 563 96 565 C98 588 107 613 142 661 L142 664 L127 676 Z " />
<glyph glyph-name="quoteright" unicode="&#x2019;" horiz-adv-x="192" d="M72 487 L76 487 C135 562 148 603 148 634 C148 661 130 679 107 679 C84 679 66 661 66 638 C66 617 81 600 103 598 C102 575 92 550 57 502 L57 499 L72 487 Z " />
<glyph glyph-name="quotesinglbase" unicode="&#x201a;" horiz-adv-x="191" d="M61 -123 L65 -123 C124 -48 137 -7 137 25 C137 51 119 69 96 69 C73 69 54 51 54 29 C54 7 70 -10 92 -12 C90 -35 80 -60 46 -107 L46 -111 L61 -123 Z " />
<glyph glyph-name="quotedblleft" unicode="&#x201c;" horiz-adv-x="316" d="M127 680 L124 680 C64 605 51 564 52 532 C52 506 70 488 93 488 C116 488 134 506 134 528 C134 550 118 567 97 569 C98 592 108 617 142 664 L142 668 L127 680 Z M249 680 L245 680 C186 605 173 564 173 532 C173 506 191 488 215 488 C238 488 256 506 256 528 C256 550 240 567 218 569 C220 592 230 617 264 664 L264 668 L249 680 Z " />
<glyph glyph-name="quotedblright" unicode="&#x201d;" horiz-adv-x="313" d="M72 487 L76 487 C135 562 148 603 148 634 C148 661 130 679 107 679 C84 679 66 661 66 638 C66 617 81 600 103 598 C102 575 92 550 57 502 L57 499 L72 487 Z M194 487 L198 487 C257 562 270 603 270 634 C270 661 252 679 228 679 C205 679 187 661 187 638 C187 617 203 600 225 598 C223 575 213 550 179 502 L179 499 L194 487 Z " />
<glyph glyph-name="quotedblbase" unicode="&#x201e;" horiz-adv-x="312" d="M61 -123 L65 -123 C124 -48 137 -7 137 24 C137 51 119 69 96 69 C73 69 54 51 54 28 C54 7 70 -10 92 -12 C90 -35 80 -60 46 -108 L46 -112 L61 -123 Z M183 -123 L186 -123 C246 -48 259 -7 258 24 C258 51 240 69 217 69 C194 69 176 51 176 28 C176 7 192 -10 213 -12 C212 -35 202 -60 168 -108 L168 -112 L183 -123 Z " />
<glyph glyph-name="dagger" unicode="&#x2020;" horiz-adv-x="463" d="M409 439 L251 439 L251 660 L212 660 L212 439 L55 439 L55 406 L212 406 L212 -156 L251 -156 L251 406 L409 406 L409 439 Z " />
<glyph glyph-name="daggerdbl" unicode="&#x2021;" horiz-adv-x="463" d="M409 406 L409 439 L251 439 L251 660 L212 660 L212 439 L55 439 L55 406 L212 406 L212 98 L55 98 L55 65 L212 65 L212 -156 L251 -156 L251 65 L409 65 L409 98 L251 98 L251 406 L409 406 Z " />
<glyph glyph-name="bullet" unicode="&#x2022;" horiz-adv-x="335" d="M168 216 C211 216 247 251 247 295 C247 338 211 374 168 374 C124 374 89 338 89 295 C89 251 124 216 168 216 L168 216 Z " />
<glyph glyph-name="ellipsis" unicode="&#x2026;" horiz-adv-x="485" d="M100 -12 C122 -12 140 6 140 29 C140 51 122 69 100 69 C77 69 59 51 59 29 C59 6 77 -12 100 -12 L100 -12 Z M243 -12 C265 -12 283 6 283 29 C283 51 265 69 243 69 C220 69 202 51 202 29 C202 6 220 -12 243 -12 L243 -12 Z M385 -12 C407 -12 426 6 426 29 C426 51 407 69 385 69 C363 69 345 51 345 29 C345 6 363 -12 385 -12 L385 -12 Z " />
<glyph glyph-name="perthousand" unicode="&#x2030;" horiz-adv-x="1062" d="M178 287 C258 287 314 362 314 474 C314 588 257 662 178 662 C99 662 43 588 43 474 C43 362 99 287 178 287 L178 287 Z M98 4 L100 0 L135 0 L634 646 L632 650 L597 650 L98 4 Z M178 321 C117 321 78 382 78 474 C78 567 117 629 178 629 C239 629 279 567 279 474 C279 382 239 321 178 321 L178 321 Z M559 -12 C638 -12 694 62 694 175 C694 288 638 363 559 363 C480 363 423 288 423 175 C423 62 480 -12 559 -12 L559 -12 Z M893 -12 C972 -12 1028 62 1028 175 C1028 288 972 363 893 363 C814 363 757 288 757 175 C757 62 814 -12 893 -12 L893 -12 Z M559 21 C498 21 458 83 458 175 C458 267 498 329 559 329 C620 329 659 267 659 175 C659 83 620 21 559 21 L559 21 Z M893 21 C832 21 792 83 792 175 C792 267 832 329 893 329 C954 329 993 267 993 175 C993 83 954 21 893 21 L893 21 Z " />
<glyph glyph-name="guilsinglleft" unicode="&#x2039;" horiz-adv-x="278" d="M212 446 L191 467 L187 467 L46 305 L46 295 L187 134 L191 134 L212 154 L212 157 L88 301 L212 444 L212 446 Z " />
<glyph glyph-name="guilsinglright" unicode="&#x203a;" horiz-adv-x="278" d="M91 467 L87 467 L66 446 L66 444 L190 301 L66 157 L66 154 L87 134 L91 134 L232 295 L232 305 L91 467 Z " />
<glyph glyph-name="fraction" unicode="&#x2044;" horiz-adv-x="503" d="M-16 4 L-14 0 L21 0 L520 646 L518 650 L483 650 L-16 4 Z " />
<glyph glyph-name="Euro" unicode="&#x20ac;" horiz-adv-x="702" d="M412 625 C501 625 579 582 628 514 L631 514 L658 534 L658 538 C602 614 514 662 413 662 C261 662 140 554 108 404 L55 404 L41 375 L44 371 L103 371 C101 356 100 341 100 325 C100 304 102 284 105 264 L48 264 L34 235 L37 231 L112 231 C148 89 266 -12 413 -12 C514 -12 602 36 658 112 L658 116 L631 136 L628 136 C579 68 501 25 412 25 C288 25 187 109 153 231 L471 231 L485 260 L482 264 L145 264 C142 284 140 304 140 325 C140 341 141 356 143 371 L478 371 L492 400 L489 404 L149 404 C179 534 283 625 412 625 L412 625 Z " />
<glyph glyph-name="trademark" unicode="&#x2122;" horiz-adv-x="697" d="M32 621 L135 621 L135 325 L170 325 L170 621 L274 621 L274 650 L32 650 L32 621 Z M625 325 L590 650 L562 650 L452 372 L341 650 L313 650 L278 325 L312 325 L338 574 L437 325 L465 325 L565 575 L592 325 L625 325 Z " />
<glyph glyph-name="minus" unicode="&#x2212;" horiz-adv-x="606" d="M73 342 L73 308 L533 308 L533 342 L73 342 Z " />
<glyph glyph-name="approxequal" unicode="&#x2248;" horiz-adv-x="567" d="M405 363 C458 363 479 385 494 404 L494 407 L474 433 L471 433 C458 413 438 398 405 398 C324 398 247 433 167 433 C116 433 90 411 74 391 L74 388 L94 363 L97 363 C110 383 139 398 167 398 C243 398 324 363 405 363 L405 363 Z M405 218 C458 218 479 239 494 259 L494 262 L474 288 L471 288 C458 268 438 253 405 253 C324 253 247 288 167 288 C116 288 90 266 74 246 L74 243 L94 218 L97 218 C110 238 139 253 167 253 C243 253 324 218 405 218 L405 218 Z " />
<glyph glyph-name="notequal" unicode="&#x2260;" horiz-adv-x="604" d="M534 390 L534 422 L382 422 L462 555 L460 559 L425 559 L343 422 L74 422 L74 390 L324 390 L247 261 L74 261 L74 229 L228 229 L148 96 L150 92 L185 92 L267 229 L534 229 L534 261 L286 261 L363 390 L534 390 Z " />
<glyph glyph-name="uniF8FF" unicode="&#xf8ff;" horiz-adv-x="1347" d="M701 573 C736 573 760 599 760 634 C760 666 736 693 701 693 C666 693 642 666 642 634 C642 599 666 573 701 573 L701 573 Z M62 327 L178 327 C178 412 176 488 173 544 C171 576 169 606 168 634 L73 634 L67 545 C63 489 62 414 62 327 L62 327 Z M458 554 L458 471 L481 471 C481 465 479 410 479 385 C479 344 501 321 557 321 C584 321 600 325 609 329 C614 332 618 335 619 338 L619 410 L615 408 C611 407 607 406 602 406 C597 406 594 406 593 407 C592 407 591 407 591 408 L589 471 L646 471 C643 436 644 390 644 327 L758 327 C758 412 757 470 754 507 C753 529 751 547 750 560 L578 560 L574 590 L458 554 Z M360 385 L369 327 L445 327 L445 452 C445 524 409 564 329 564 C233 564 197 517 197 433 C197 357 230 321 286 321 C333 321 352 344 360 385 L360 385 Z M781 327 L894 327 C894 372 889 394 889 421 C889 440 895 446 906 446 C917 446 921 440 921 421 C921 394 919 372 919 327 L1031 327 L1029 463 C1028 535 1008 564 955 564 C886 564 877 491 874 486 C874 502 872 520 871 535 L868 560 L792 560 C790 547 788 530 786 508 C783 471 781 414 781 327 L781 327 Z M1046 440 C1046 369 1083 321 1166 321 C1250 321 1287 369 1287 440 C1287 507 1266 564 1166 564 C1073 564 1046 507 1046 440 L1046 440 Z M324 399 C312 399 303 410 303 429 C303 448 312 456 324 456 C340 456 348 447 348 429 C348 409 340 399 324 399 L324 399 Z M1166 399 C1151 399 1143 409 1143 429 C1143 447 1151 456 1166 456 C1182 456 1190 447 1190 429 C1190 409 1182 399 1166 399 L1166 399 Z M60 277 L60 194 L87 194 C87 189 85 137 85 112 C85 72 107 48 158 48 C182 48 199 52 210 56 C217 59 222 62 225 65 L225 139 L218 136 C213 134 206 133 197 133 L195 194 L240 194 L240 186 C240 130 276 112 333 112 C356 112 370 115 379 119 C384 122 387 124 390 127 C389 120 385 114 379 109 C368 100 351 91 318 91 C294 91 276 95 264 100 C257 103 251 106 246 110 L246 27 C251 22 257 19 266 16 C281 11 304 6 339 6 C443 6 489 47 489 143 C489 186 488 223 486 248 L483 288 L377 288 C377 269 377 251 378 236 C378 209 379 185 379 182 C379 165 374 156 364 156 C353 156 348 165 348 182 C348 185 348 209 349 236 C349 251 349 269 350 288 L185 288 L181 317 L60 277 Z M508 6 L635 6 C635 19 634 30 634 37 C633 41 633 45 633 48 C714 48 760 95 760 184 C760 256 729 296 682 296 C623 296 609 242 604 213 C604 225 603 243 600 259 L597 288 L519 288 L513 211 C509 162 508 91 508 6 L508 6 Z M982 64 L982 137 C979 134 975 132 970 129 C961 124 948 122 931 122 C910 122 900 127 893 134 C890 137 888 141 887 146 L1007 146 L1009 156 C1010 163 1012 171 1012 182 C1012 254 969 296 900 296 C818 296 777 254 777 169 C777 97 817 48 910 48 C935 48 953 52 965 56 C972 59 978 61 982 64 L982 64 Z M1035 253 C1035 233 1052 216 1072 216 C1092 216 1109 233 1109 253 C1109 273 1092 290 1072 290 C1052 290 1035 273 1035 253 L1035 253 Z M1072 223 C1056 223 1042 237 1042 253 C1042 269 1056 283 1072 283 C1088 283 1102 269 1102 253 C1102 237 1088 223 1072 223 L1072 223 Z M1058 272 L1058 235 L1066 235 L1066 246 L1073 246 L1080 235 L1089 235 L1081 248 C1086 250 1089 254 1089 260 C1089 268 1084 272 1074 272 L1058 272 Z M1074 253 L1066 253 L1066 265 L1074 265 C1079 265 1081 263 1081 259 C1081 255 1079 253 1074 253 L1074 253 Z M920 171 L881 171 C881 189 888 198 903 198 C915 198 921 192 921 179 C921 176 920 174 920 173 L920 171 Z M618 129 L616 137 C615 142 614 148 614 156 C614 176 622 186 637 186 C650 186 656 179 656 165 C656 148 646 139 637 134 C631 131 625 130 618 129 L618 129 Z " />
<glyph glyph-name="fi" unicode="&#xfb01;" horiz-adv-x="494" d="M406 500 L150 500 L150 519 C150 617 195 658 260 658 C279 658 293 654 309 648 L313 649 L325 674 L324 678 C304 687 284 692 259 692 C178 692 112 641 112 519 L112 500 L24 500 L24 466 L112 466 L112 0 L150 0 L150 466 L368 466 L368 0 L406 0 L406 500 Z M387 663 C365 663 347 645 347 623 C347 601 365 582 387 582 C410 582 428 601 428 623 C428 645 410 663 387 663 L387 663 Z " />
<glyph glyph-name="fl" unicode="&#xfb02;" horiz-adv-x="507" d="M414 684 L381 680 L381 647 C354 677 314 692 270 692 C178 692 112 631 112 528 L112 500 L24 500 L24 467 L112 467 L112 0 L150 0 L150 467 L310 467 L310 500 L150 500 L150 528 C150 610 200 658 268 658 C319 658 360 637 381 599 L381 0 L418 0 L418 681 L414 684 Z " />
</font>
</svg>
