<?xml version="1.0" encoding="UTF-8"?>
<svg xmlns="http://www.w3.org/2000/svg" xmlns:xlink="http://www.w3.org/1999/xlink" version="1.2" >
<font id="Isidora Sans Bold">
<font-face  font-family="Isidora Sans" units-per-em="1000" ascent="682" descent="-154" font-style="normal" font-weight="700" font-stretch="normal" cap-height="650" x-height="500" underline-position="-75" underline-thickness="50" />
<missing-glyph  horiz-adv-x="600" d="" />
<glyph glyph-name="NULL" d="" />
<glyph glyph-name="CR" unicode="&#xd;" horiz-adv-x="250" d="" />
<glyph glyph-name="space" unicode="&#x20;" horiz-adv-x="217" d="" />
<glyph glyph-name="exclam" unicode="&#x21;" horiz-adv-x="283" d="M91 227 L192 227 L202 237 L218 653 L209 663 L74 663 L65 653 L82 237 L91 227 Z M141 -12 C194 -12 237 31 237 83 C237 136 194 179 141 179 C89 179 46 136 46 83 C46 31 89 -12 141 -12 L141 -12 Z " />
<glyph glyph-name="quotedbl" unicode="&#x22;" horiz-adv-x="377" d="M65 389 L145 389 L168 650 L42 650 L65 389 Z M232 389 L312 389 L335 650 L209 650 L232 389 Z " />
<glyph glyph-name="numbersign" unicode="&#x23;" horiz-adv-x="654" d="M110 0 L227 0 L251 171 L376 171 L352 0 L469 0 L493 171 L580 171 L592 257 L505 257 L524 393 L611 393 L623 479 L536 479 L560 650 L442 650 L419 479 L294 479 L318 650 L200 650 L177 479 L73 479 L61 393 L165 393 L146 257 L42 257 L30 171 L134 171 L110 0 Z M263 257 L282 393 L407 393 L388 257 L263 257 Z " />
<glyph glyph-name="dollar" unicode="&#x24;" horiz-adv-x="518" d="M480 207 C480 333 372 361 279 393 C236 408 195 424 195 462 C195 493 224 513 266 513 C322 513 368 480 393 451 L405 451 L470 527 L470 538 C440 575 387 604 325 616 L325 691 L210 691 L210 617 C117 600 56 537 56 455 C56 350 150 306 225 281 C290 260 340 254 340 207 C340 173 307 151 257 151 C203 151 141 186 106 224 L95 224 L30 148 L30 137 C70 88 135 52 210 40 L210 -33 L325 -33 L325 41 C414 58 480 113 480 207 L480 207 Z " />
<glyph glyph-name="percent" unicode="&#x25;" horiz-adv-x="889" d="M194 286 C290 286 360 364 360 481 C360 598 290 676 194 676 C98 676 28 598 28 481 C28 364 98 286 194 286 L194 286 Z M123 5 L130 -7 L248 -7 L764 652 L757 663 L639 663 L123 5 Z M194 377 C155 377 129 418 129 481 C129 544 155 585 194 585 C234 585 260 544 260 481 C260 419 230 377 194 377 L194 377 Z M694 -19 C790 -19 860 59 860 176 C860 292 790 371 694 371 C598 371 528 292 528 176 C528 59 598 -19 694 -19 L694 -19 Z M694 72 C654 72 628 113 628 176 C628 238 654 279 694 279 C733 279 759 238 759 176 C759 113 733 72 694 72 L694 72 Z " />
<glyph glyph-name="ampersand" unicode="&#x26;" horiz-adv-x="684" d="M653 94 L643 99 C628 86 595 73 576 73 L570 73 C605 115 625 166 625 224 C625 290 596 360 553 403 L542 403 L451 342 L451 331 C475 306 492 267 492 228 C492 202 485 178 474 157 L297 411 C268 452 247 484 247 512 C247 549 275 576 319 577 C354 578 383 557 403 524 L414 524 L487 582 L487 593 C448 648 389 685 309 685 C195 685 118 614 118 511 C118 492 121 474 128 456 C132 445 137 433 143 422 C73 377 31 309 31 225 C31 81 152 -28 328 -28 C376 -28 420 -20 459 -4 C491 -23 526 -32 563 -32 C610 -32 657 -18 682 1 L686 12 L653 94 Z M170 230 C170 267 184 299 209 324 L238 279 L375 86 C361 83 347 81 331 81 C238 81 170 145 170 230 L170 230 Z " />
<glyph glyph-name="quotesingle" unicode="&#x27;" horiz-adv-x="210" d="M65 389 L145 389 L168 650 L42 650 L65 389 Z " />
<glyph glyph-name="parenleft" unicode="&#x28;" horiz-adv-x="340" d="M184 310 C184 467 244 625 335 738 L181 738 C93 621 35 465 35 310 C35 155 93 1 181 -116 L335 -116 C244 -3 184 153 184 310 L184 310 Z " />
<glyph glyph-name="parenright" unicode="&#x29;" horiz-adv-x="340" d="M6 -116 L160 -116 C247 1 305 155 305 310 C305 465 247 621 160 738 L6 738 C97 625 156 467 156 310 C156 153 97 -3 6 -116 L6 -116 Z " />
<glyph glyph-name="asterisk" unicode="&#x2a;" horiz-adv-x="431" d="M172 670 L172 566 L81 619 L37 542 L128 490 L37 438 L81 361 L172 413 L172 309 L260 309 L260 413 L350 361 L394 438 L304 490 L394 542 L350 619 L260 566 L260 670 L172 670 Z " />
<glyph glyph-name="plus" unicode="&#x2b;" horiz-adv-x="565" d="M537 357 L347 357 L347 545 L218 545 L218 357 L28 357 L28 240 L218 240 L218 51 L347 51 L347 240 L537 240 L537 357 Z " />
<glyph glyph-name="comma" unicode="&#x2c;" horiz-adv-x="273" d="M76 -188 L88 -188 C169 -109 234 -4 234 77 C233 138 194 179 135 179 C81 179 38 136 38 81 C38 33 72 -6 118 -14 C118 -43 87 -89 43 -140 L43 -151 L76 -188 Z " />
<glyph glyph-name="hyphen" unicode="&#x2d;" horiz-adv-x="494" d="M55 360 L55 240 L439 240 L439 360 L55 360 Z " />
<glyph glyph-name="period" unicode="&#x2e;" horiz-adv-x="262" d="M131 -12 C184 -12 226 31 226 83 C226 136 184 179 131 179 C78 179 35 136 35 83 C35 31 78 -12 131 -12 L131 -12 Z " />
<glyph glyph-name="slash" unicode="&#x2f;" horiz-adv-x="580" d="M418 704 L18 -42 L25 -53 L163 -53 L563 693 L556 704 L418 704 Z " />
<glyph glyph-name="zero" unicode="0" horiz-adv-x="650" d="M611 329 C611 538 495 677 325 677 C155 677 40 538 40 329 C40 120 155 -19 325 -19 C495 -19 611 120 611 329 L611 329 Z M194 329 C194 460 246 547 325 547 C404 547 457 460 457 329 C457 198 404 111 325 111 C246 111 194 198 194 329 L194 329 Z " />
<glyph glyph-name="one" unicode="1" horiz-adv-x="390" d="M15 665 L15 539 L150 539 L150 -7 L305 -7 L305 665 L15 665 Z " />
<glyph glyph-name="two" unicode="2" horiz-adv-x="557" d="M253 120 C318 181 370 232 410 279 C467 348 497 407 497 475 C497 595 407 677 275 677 C175 677 91 636 32 566 L32 554 L105 478 L116 478 C154 526 200 554 254 554 C309 554 348 520 348 468 C348 424 319 381 263 324 C210 267 132 198 37 102 L37 -7 L520 -7 L520 120 L253 120 Z " />
<glyph glyph-name="three" unicode="3" horiz-adv-x="560" d="M412 346 C467 379 501 431 501 492 C501 601 407 677 274 677 C188 677 108 648 49 595 L49 583 L113 503 L125 503 C160 537 206 555 253 555 C308 555 347 523 347 478 C347 430 303 395 244 395 L175 395 L175 290 L235 290 C310 290 363 251 363 193 C363 140 319 103 257 103 C200 103 141 134 103 182 L92 182 L16 105 L16 93 C68 24 166 -19 266 -19 C417 -19 521 63 521 182 C521 254 479 312 412 346 L412 346 Z " />
<glyph glyph-name="four" unicode="4" horiz-adv-x="596" d="M317 -7 L474 -7 L474 131 L563 131 L562 249 L474 249 L474 665 L346 665 L16 237 L16 131 L317 131 L317 -7 Z M176 249 L327 448 L327 249 L176 249 Z " />
<glyph glyph-name="five" unicode="5" horiz-adv-x="586" d="M306 447 C264 447 228 439 197 427 L215 539 L503 539 L503 665 L110 665 L53 321 L149 278 L161 278 C184 306 228 327 275 327 C348 327 396 283 396 215 C396 149 346 103 274 103 C218 103 156 134 118 179 L107 179 L31 102 L31 91 C80 25 182 -19 285 -19 C443 -19 552 77 552 217 C552 356 451 447 306 447 L306 447 Z " />
<glyph glyph-name="six" unicode="6" horiz-adv-x="581" d="M316 446 C293 446 271 442 251 434 C266 456 282 477 300 499 C332 536 368 574 407 610 L407 621 L319 702 L308 702 C262 656 221 611 184 566 C91 452 35 345 35 230 C36 166 56 106 96 62 C142 11 213 -19 299 -19 C455 -19 562 77 562 215 C562 354 461 446 316 446 L316 446 Z M299 101 C234 101 188 148 188 213 C188 279 235 326 299 326 C363 326 410 279 410 213 C410 148 363 101 299 101 L299 101 Z " />
<glyph glyph-name="seven" unicode="7" horiz-adv-x="506" d="M490 665 L18 665 L18 539 L315 539 L86 4 L93 -7 L243 -7 L490 580 L490 665 Z " />
<glyph glyph-name="eight" unicode="8" horiz-adv-x="610" d="M467 365 C508 396 530 442 530 496 C530 603 437 677 305 677 C173 677 80 603 80 496 C80 442 102 396 143 365 C74 329 35 267 35 191 C35 67 147 -19 305 -19 C464 -19 575 67 575 191 C575 267 536 329 467 365 L467 365 Z M305 566 C353 566 388 534 388 489 C388 443 353 410 305 410 C257 410 222 443 222 489 C222 534 257 566 305 566 L305 566 Z M305 95 C238 95 190 139 190 201 C190 264 238 309 305 309 C372 309 420 264 420 201 C420 139 372 95 305 95 L305 95 Z " />
<glyph glyph-name="nine" unicode="9" horiz-adv-x="581" d="M545 428 C545 577 438 677 282 677 C127 677 20 582 19 441 C19 305 121 212 269 212 C290 212 311 216 330 223 C316 202 300 181 282 160 C250 123 213 85 174 49 L174 37 L261 -44 L272 -44 C328 13 378 68 420 122 C498 225 546 323 545 428 L545 428 Z M171 445 C171 510 218 557 282 557 C347 557 393 510 393 445 C393 379 346 332 282 332 C218 332 171 380 171 445 L171 445 Z " />
<glyph glyph-name="colon" unicode="&#x3a;" horiz-adv-x="285" d="M143 321 C195 321 238 364 238 417 C238 469 195 512 143 512 C90 512 47 469 47 417 C47 364 90 321 143 321 L143 321 Z M143 -12 C195 -12 238 31 238 83 C238 136 195 179 143 179 C90 179 47 136 47 83 C47 31 90 -12 143 -12 L143 -12 Z " />
<glyph glyph-name="semicolon" unicode="&#x3b;" horiz-adv-x="296" d="M148 317 C202 317 246 361 246 415 C246 469 202 512 148 512 C95 512 52 469 52 415 C52 361 95 317 148 317 L148 317 Z M89 -188 L100 -188 C181 -109 246 -5 245 77 C245 138 206 179 148 179 C94 179 50 136 50 81 C50 33 84 -6 130 -14 C130 -43 99 -89 55 -140 L55 -151 L89 -188 Z " />
<glyph glyph-name="less" unicode="&#x3c;" horiz-adv-x="508" d="M451 608 L442 615 L27 366 L27 276 L442 32 L451 39 L451 163 L184 322 L451 485 L451 608 Z " />
<glyph glyph-name="equal" unicode="&#x3d;" horiz-adv-x="615" d="M58 453 L58 345 L558 345 L558 453 L58 453 Z M58 255 L58 147 L558 147 L558 255 L58 255 Z " />
<glyph glyph-name="greater" unicode="&#x3e;" horiz-adv-x="508" d="M66 615 L57 608 L57 485 L324 322 L57 163 L57 39 L66 32 L480 276 L480 366 L66 615 Z " />
<glyph glyph-name="question" unicode="&#x3f;" horiz-adv-x="504" d="M177 201 L311 201 L311 226 C311 248 316 267 343 296 C384 341 463 399 463 490 C463 591 374 662 248 662 C137 662 49 594 23 511 L26 499 L126 463 L138 468 C153 511 196 538 235 538 C289 538 323 509 323 466 C323 415 261 373 228 337 C197 303 177 273 177 226 L177 201 Z M244 -25 C293 -25 333 15 333 63 C333 112 293 152 244 152 C196 152 156 112 156 63 C156 15 196 -25 244 -25 L244 -25 Z " />
<glyph glyph-name="at" unicode="&#x40;" horiz-adv-x="891" d="M438 -141 C526 -141 609 -115 663 -75 L663 -64 L622 -2 L611 -2 C557 -35 507 -52 443 -52 C268 -52 138 74 138 250 C138 428 270 552 447 552 C611 552 747 448 747 280 C747 190 709 153 670 153 C635 153 628 184 628 221 L628 436 L526 436 L526 393 C493 423 454 442 403 442 C301 442 219 362 219 252 C219 144 300 68 404 68 C461 68 510 91 543 126 C562 87 604 65 663 65 C770 65 852 138 852 280 C852 485 678 641 445 641 C208 641 35 476 35 251 C35 23 215 -141 438 -141 L438 -141 Z M426 159 C374 159 340 201 340 255 C340 309 374 350 426 350 C474 350 511 314 511 255 C511 196 474 159 426 159 L426 159 Z " />
<glyph glyph-name="A" unicode="A" horiz-adv-x="700" d="M398 650 L303 650 L3 12 L10 0 L162 0 L210 114 L485 114 L532 0 L690 0 L697 12 L398 650 Z M256 222 L350 443 L441 222 L256 222 Z " />
<glyph glyph-name="B" unicode="B" horiz-adv-x="636" d="M485 344 C536 370 570 416 570 479 C570 584 487 650 352 650 L75 650 L75 0 L365 0 C508 0 603 71 603 182 C603 267 547 320 485 344 L485 344 Z M420 458 C420 411 386 382 331 382 L231 382 L231 534 L331 534 C387 534 420 507 420 458 L420 458 Z M342 116 L231 116 L231 282 L349 282 C409 282 449 249 449 199 C449 146 410 116 342 116 L342 116 Z " />
<glyph glyph-name="C" unicode="C" horiz-adv-x="682" d="M387 -12 C505 -12 600 40 661 115 L661 126 L565 206 L554 206 C516 160 456 129 389 129 C280 129 195 211 195 325 C195 439 280 521 389 521 C456 521 516 490 554 444 L565 444 L661 524 L661 535 C599 612 501 662 389 662 C189 662 36 518 36 325 C36 132 190 -12 387 -12 L387 -12 Z " />
<glyph glyph-name="D" unicode="D" horiz-adv-x="738" d="M359 650 L75 650 L75 0 L359 0 C569 0 701 130 701 326 C701 520 569 650 359 650 L359 650 Z M354 128 L231 128 L231 522 L354 522 C466 522 542 448 542 325 C542 202 466 128 354 128 L354 128 Z " />
<glyph glyph-name="E" unicode="E" horiz-adv-x="593" d="M549 522 L549 650 L75 650 L75 0 L551 0 L551 128 L231 128 L231 265 L477 265 L477 387 L231 387 L231 522 L549 522 Z " />
<glyph glyph-name="F" unicode="F" horiz-adv-x="552" d="M532 522 L532 650 L75 650 L75 0 L231 0 L231 255 L462 255 L462 377 L231 377 L231 522 L532 522 Z " />
<glyph glyph-name="G" unicode="G" horiz-adv-x="748" d="M716 365 L704 375 L384 375 L384 260 L558 260 C552 226 535 197 510 174 C478 145 434 129 386 129 C276 129 195 210 195 324 C195 440 280 521 383 521 C449 521 505 490 542 444 L554 444 L650 525 L650 537 C589 612 490 662 379 662 C187 662 36 519 36 325 C36 131 183 -12 378 -12 C476 -12 561 25 621 84 C682 143 718 225 718 317 C718 331 718 350 716 365 L716 365 Z " />
<glyph glyph-name="H" unicode="H" horiz-adv-x="732" d="M502 650 L502 389 L231 389 L231 650 L75 650 L75 0 L231 0 L231 261 L502 261 L502 0 L658 0 L658 650 L502 650 Z " />
<glyph glyph-name="I" unicode="I" horiz-adv-x="306" d="M75 650 L75 0 L231 0 L231 650 L75 650 Z " />
<glyph glyph-name="J" unicode="J" horiz-adv-x="520" d="M297 650 L297 237 C297 166 259 128 201 128 C149 128 114 161 96 187 L84 187 L-3 100 L-3 89 C41 28 128 -12 211 -12 C368 -12 453 72 453 263 L453 650 L297 650 Z " />
<glyph glyph-name="K" unicode="K" horiz-adv-x="650" d="M393 356 L640 638 L633 650 L463 650 L231 385 L231 650 L75 650 L75 0 L231 0 L231 209 L279 264 L479 0 L645 0 L652 12 L393 356 Z " />
<glyph glyph-name="L" unicode="L" horiz-adv-x="516" d="M504 128 L231 128 L231 650 L75 650 L75 0 L504 0 L504 128 Z " />
<glyph glyph-name="M" unicode="M" horiz-adv-x="849" d="M811 0 L721 650 L631 650 L428 202 L220 650 L129 650 L38 0 L192 0 L233 351 L385 0 L472 0 L627 351 L667 0 L811 0 Z " />
<glyph glyph-name="N" unicode="N" horiz-adv-x="732" d="M501 650 L501 263 L172 650 L75 650 L75 0 L230 0 L230 384 L560 -3 L657 -3 L657 650 L501 650 Z " />
<glyph glyph-name="O" unicode="O" horiz-adv-x="783" d="M392 -12 C594 -12 748 133 748 325 C748 518 594 662 392 662 C189 662 35 518 35 325 C35 132 189 -12 392 -12 L392 -12 Z M392 129 C282 129 195 211 195 325 C195 440 282 521 392 521 C502 521 589 440 589 325 C589 211 502 129 392 129 L392 129 Z " />
<glyph glyph-name="P" unicode="P" horiz-adv-x="632" d="M358 650 L75 650 L75 0 L231 0 L231 224 L358 224 C523 224 610 306 610 437 C610 568 521 650 358 650 L358 650 Z M360 345 L231 345 L231 522 L360 522 C413 522 450 490 450 433 C450 376 413 345 360 345 L360 345 Z " />
<glyph glyph-name="Q" unicode="Q" horiz-adv-x="783" d="M748 325 C748 518 594 662 392 662 C189 662 35 518 35 325 C35 132 189 -12 392 -12 C407 -12 421 -11 435 -10 L547 -135 L717 -135 L724 -123 L586 40 C685 98 748 202 748 325 L748 325 Z M195 325 C195 440 282 521 392 521 C502 521 589 440 589 325 C589 211 502 129 392 129 C282 129 195 211 195 325 L195 325 Z " />
<glyph glyph-name="R" unicode="R" horiz-adv-x="650" d="M478 264 C556 294 606 355 606 443 C606 571 519 650 355 650 L75 650 L75 0 L231 0 L231 244 L322 244 L453 0 L608 0 L615 12 L478 264 Z M231 522 L356 522 C409 522 447 488 447 435 C447 383 409 351 356 351 L231 351 L231 522 Z " />
<glyph glyph-name="S" unicode="S" horiz-adv-x="595" d="M303 -12 C443 -12 558 58 558 185 C558 331 429 365 318 400 C265 418 216 435 216 478 C216 514 252 536 304 536 C372 536 426 498 458 465 L469 465 L546 553 L546 564 C499 620 408 662 302 662 C157 662 57 583 57 470 C57 349 166 299 255 271 C335 246 398 239 398 184 C398 146 358 120 294 120 C230 120 155 159 114 206 L103 206 L26 117 L26 105 C84 34 187 -12 303 -12 L303 -12 Z " />
<glyph glyph-name="T" unicode="T" horiz-adv-x="589" d="M373 522 L577 522 L577 650 L12 650 L12 522 L216 522 L216 0 L373 0 L373 522 Z " />
<glyph glyph-name="U" unicode="U" horiz-adv-x="731" d="M65 650 L65 289 C65 108 186 -12 367 -12 C546 -12 666 108 666 289 L666 650 L513 650 L513 281 C513 189 454 128 367 128 C280 128 221 189 221 281 L221 650 L65 650 Z " />
<glyph glyph-name="V" unicode="V" horiz-adv-x="686" d="M675 650 L521 650 L343 232 L171 650 L11 650 L4 638 L297 0 L389 0 L682 638 L675 650 Z " />
<glyph glyph-name="W" unicode="W" horiz-adv-x="973" d="M961 650 L812 650 L674 241 L532 650 L441 650 L300 244 L165 650 L13 650 L6 638 L246 0 L337 0 L486 403 L636 0 L727 0 L968 638 L961 650 Z " />
<glyph glyph-name="X" unicode="X" horiz-adv-x="651" d="M419 335 L637 638 L630 650 L464 650 L328 448 L197 650 L23 650 L16 638 L232 328 L4 12 L11 0 L177 0 L324 218 L465 0 L639 0 L646 12 L419 335 Z " />
<glyph glyph-name="Y" unicode="Y" horiz-adv-x="659" d="M645 638 L638 650 L488 650 L332 372 L170 650 L16 650 L9 638 L253 237 L253 0 L409 0 L409 241 L645 638 Z " />
<glyph glyph-name="Z" unicode="Z" horiz-adv-x="607" d="M233 126 L562 546 L562 650 L46 650 L46 524 L363 524 L32 104 L32 0 L578 0 L578 126 L233 126 Z " />
<glyph glyph-name="bracketleft" unicode="&#x5b;" horiz-adv-x="350" d="M320 631 L320 738 L72 738 L72 -116 L320 -116 L320 -9 L216 -9 L216 631 L320 631 Z " />
<glyph glyph-name="backslash" unicode="&#x5c;" horiz-adv-x="579" d="M162 704 L24 704 L17 693 L417 -53 L555 -53 L562 -42 L162 704 Z " />
<glyph glyph-name="bracketright" unicode="&#x5d;" horiz-adv-x="350" d="M30 631 L135 631 L135 -9 L30 -9 L30 -116 L278 -116 L278 738 L30 738 L30 631 Z " />
<glyph glyph-name="asciicircum" unicode="&#x5e;" horiz-adv-x="646" d="M369 650 L280 650 L27 279 L34 272 L162 272 L324 509 L483 272 L613 272 L619 279 L369 650 Z " />
<glyph glyph-name="underscore" unicode="&#x5f;" horiz-adv-x="598" d="M51 -19 L51 -138 L546 -138 L546 -19 L51 -19 Z " />
<glyph glyph-name="grave" unicode="&#x60;" horiz-adv-x="350" d="M100 780 L92 780 L34 678 L34 670 L267 568 L275 568 L315 636 L315 644 L100 780 Z " />
<glyph glyph-name="a" unicode="a" horiz-adv-x="561" d="M268 512 C203 512 118 491 63 448 L63 436 L113 358 L124 358 C156 383 203 399 246 399 C311 399 361 366 361 316 L361 293 C323 307 282 317 239 317 C110 317 24 249 24 147 C24 52 103 -12 221 -12 C282 -12 337 10 379 47 L379 0 L504 0 L504 301 C504 455 394 512 268 512 L268 512 Z M257 86 C205 86 170 113 170 154 C170 196 206 225 262 225 C303 225 342 210 364 200 L364 173 C364 127 317 86 257 86 L257 86 Z " />
<glyph glyph-name="b" unicode="b" horiz-adv-x="636" d="M355 512 C303 512 257 497 218 471 L218 675 L206 682 L63 666 L63 0 L194 0 L194 55 C234 15 288 -12 355 -12 C500 -12 605 103 605 250 C605 397 501 512 355 512 L355 512 Z M330 120 C262 120 209 169 209 250 C209 331 263 380 330 380 C404 380 453 323 453 250 C453 177 404 120 330 120 L330 120 Z " />
<glyph glyph-name="c" unicode="c" horiz-adv-x="529" d="M303 -12 C395 -12 465 26 510 76 L510 87 L424 166 L412 166 C387 135 350 120 310 120 C234 120 184 175 184 250 C184 325 235 380 309 380 C351 380 387 363 412 334 L424 334 L510 413 L510 424 C465 474 395 512 303 512 C147 512 31 401 31 250 C31 99 147 -12 303 -12 L303 -12 Z " />
<glyph glyph-name="d" unicode="d" horiz-adv-x="636" d="M561 682 L419 666 L419 470 C380 496 334 512 282 512 C136 512 31 397 31 250 C31 103 136 -12 282 -12 C349 -12 403 15 443 56 L443 0 L573 0 L573 675 L561 682 Z M306 120 C233 120 184 177 184 250 C184 323 233 380 306 380 C374 380 427 331 427 250 C427 169 374 120 306 120 L306 120 Z " />
<glyph glyph-name="e" unicode="e" horiz-adv-x="586" d="M553 216 C555 228 556 241 556 256 C556 332 529 396 483 442 C437 486 373 512 299 512 C142 512 32 401 32 249 C32 93 151 -12 308 -12 C385 -12 477 13 533 79 L533 91 L464 157 L453 157 C419 121 366 102 315 102 C246 102 189 140 182 216 L553 216 Z M295 403 C327 403 355 392 375 371 C391 355 402 331 406 304 L183 304 C191 364 233 403 295 403 L295 403 Z " />
<glyph glyph-name="f" unicode="f" horiz-adv-x="417" d="M344 589 C361 589 382 585 399 575 L410 582 L440 674 L433 685 C402 701 362 708 325 708 C219 708 112 646 112 507 L112 500 L26 500 L26 386 L112 386 L112 0 L267 0 L267 386 L406 386 L406 500 L267 500 L267 507 C267 563 303 589 344 589 L344 589 Z " />
<glyph glyph-name="g" unicode="g" horiz-adv-x="615" d="M428 500 L428 454 C387 489 333 512 270 512 C134 512 32 412 32 277 C32 143 134 43 270 43 C324 43 373 60 411 88 L411 57 C411 -19 349 -52 279 -52 C213 -52 152 -21 117 20 L106 20 L42 -59 L42 -70 C92 -127 173 -165 278 -165 C431 -165 553 -85 553 84 L553 500 L428 500 Z M303 157 C233 157 184 207 184 277 C184 347 233 398 302 398 C372 398 421 347 421 277 C421 207 373 157 303 157 L303 157 Z " />
<glyph glyph-name="h" unicode="h" horiz-adv-x="613" d="M349 512 C293 512 249 493 216 463 L216 675 L205 682 L63 666 L63 0 L216 0 L216 285 C216 342 253 381 310 381 C367 381 402 342 402 285 L402 0 L556 0 L556 296 C556 427 472 512 349 512 L349 512 Z " />
<glyph glyph-name="i" unicode="i" horiz-adv-x="282" d="M141 579 C194 579 237 622 237 674 C237 727 194 770 141 770 C88 770 46 727 46 674 C46 622 88 579 141 579 L141 579 Z M64 0 L218 0 L218 500 L64 500 L64 0 Z " />
<glyph glyph-name="j" unicode="j" horiz-adv-x="284" d="M144 579 C197 579 240 622 240 674 C240 727 197 770 144 770 C91 770 49 727 49 674 C49 622 91 579 144 579 L144 579 Z M67 500 L67 116 C67 11 59 -13 -10 -51 L-10 -62 L48 -173 L60 -173 C198 -111 222 -54 222 102 L222 500 L67 500 Z " />
<glyph glyph-name="k" unicode="k" horiz-adv-x="570" d="M373 273 L563 489 L556 500 L395 500 L218 289 L218 675 L206 682 L63 666 L63 0 L218 0 L218 152 L257 196 L395 0 L563 0 L570 11 L373 273 Z " />
<glyph glyph-name="l" unicode="l" horiz-adv-x="282" d="M64 0 L218 0 L218 675 L207 682 L64 666 L64 0 Z " />
<glyph glyph-name="m" unicode="m" horiz-adv-x="941" d="M677 512 C604 512 547 483 508 440 C473 486 419 512 350 512 C280 512 228 481 193 437 L193 500 L63 500 L63 0 L218 0 L218 285 C218 343 255 381 309 381 C364 381 396 343 396 285 L396 0 L551 0 L551 285 C551 343 588 381 643 381 C697 381 729 343 729 285 L729 0 L884 0 L884 296 C884 427 801 512 677 512 L677 512 Z " />
<glyph glyph-name="n" unicode="n" horiz-adv-x="615" d="M350 512 C280 512 228 481 193 437 L193 500 L63 500 L63 0 L218 0 L218 285 C218 343 256 381 311 381 C370 381 403 341 403 285 L403 0 L558 0 L558 296 C558 423 475 512 350 512 L350 512 Z " />
<glyph glyph-name="o" unicode="o" horiz-adv-x="615" d="M308 -12 C468 -12 584 99 584 250 C584 401 468 512 308 512 C148 512 31 401 31 250 C31 99 148 -12 308 -12 L308 -12 Z M308 120 C235 120 184 175 184 250 C184 325 236 380 308 380 C380 380 432 325 432 250 C432 175 380 120 308 120 L308 120 Z " />
<glyph glyph-name="p" unicode="p" horiz-adv-x="636" d="M355 512 C291 512 236 489 193 452 L193 500 L63 500 L63 -154 L218 -154 L218 30 C256 4 303 -12 355 -12 C501 -12 605 103 605 250 C605 397 500 512 355 512 L355 512 Z M330 120 C262 120 209 169 209 250 C209 331 263 380 330 380 C404 380 453 323 453 250 C453 177 404 120 330 120 L330 120 Z " />
<glyph glyph-name="q" unicode="q" horiz-adv-x="636" d="M444 500 L444 451 C401 489 346 512 282 512 C136 512 31 397 31 250 C31 103 136 -12 282 -12 C334 -12 381 4 419 30 L419 -154 L573 -154 L573 500 L444 500 Z M306 120 C233 120 184 177 184 250 C184 323 233 380 306 380 C374 380 427 331 427 250 C427 169 374 120 306 120 L306 120 Z " />
<glyph glyph-name="r" unicode="r" horiz-adv-x="419" d="M415 495 C389 506 362 512 331 512 C273 512 226 483 193 435 L193 500 L63 500 L63 0 L218 0 L218 268 C218 334 258 380 319 380 C341 380 360 378 379 368 L390 375 L422 483 L415 495 Z " />
<glyph glyph-name="s" unicode="s" horiz-adv-x="489" d="M246 -13 C370 -13 453 47 453 139 C453 235 389 272 304 305 C243 328 198 339 198 367 C198 387 220 401 252 401 C291 401 338 383 374 348 L385 348 L453 420 L453 431 C415 481 336 513 252 513 C129 513 51 454 51 361 C51 258 149 225 232 199 C272 185 307 173 307 142 C307 119 284 103 247 103 C192 103 132 133 102 167 L91 167 L22 90 L22 79 C67 23 153 -13 246 -13 L246 -13 Z " />
<glyph glyph-name="t" unicode="t" horiz-adv-x="429" d="M377 133 L365 138 C351 126 331 119 315 119 C280 119 255 138 255 190 L255 386 L402 386 L402 500 L255 500 L255 656 L243 663 L102 648 L102 500 L15 500 L15 386 L102 386 L102 175 C102 44 190 -12 288 -12 C336 -12 380 3 414 28 L419 40 L377 133 Z " />
<glyph glyph-name="u" unicode="u" horiz-adv-x="604" d="M386 500 L386 215 C386 158 352 119 297 119 C245 119 212 158 212 212 L212 500 L57 500 L57 204 C57 72 142 -12 262 -12 C330 -12 379 16 411 57 L411 0 L540 0 L540 500 L386 500 Z " />
<glyph glyph-name="v" unicode="v" horiz-adv-x="558" d="M546 500 L410 500 L280 167 L158 500 L12 500 L5 489 L224 0 L335 0 L554 489 L546 500 Z " />
<glyph glyph-name="w" unicode="w" horiz-adv-x="800" d="M788 500 L645 500 L550 192 L442 500 L357 500 L251 183 L161 500 L16 500 L9 489 L181 0 L292 0 L399 297 L506 0 L617 0 L795 489 L788 500 Z " />
<glyph glyph-name="x" unicode="x" horiz-adv-x="555" d="M364 252 L545 489 L538 500 L390 500 L285 348 L178 500 L17 500 L10 489 L191 251 L4 11 L11 0 L159 0 L270 156 L382 0 L543 0 L550 11 L364 252 Z " />
<glyph glyph-name="y" unicode="y" horiz-adv-x="553" d="M541 500 L407 500 L287 186 L166 500 L14 500 L7 489 L213 39 L192 -5 C176 -40 153 -45 133 -45 C114 -45 95 -40 83 -33 L72 -38 L44 -133 L49 -143 C73 -157 104 -165 141 -165 C210 -165 278 -138 323 -33 L549 489 L541 500 Z " />
<glyph glyph-name="z" unicode="z" horiz-adv-x="512" d="M35 0 L482 0 L482 113 L223 113 L467 390 L467 500 L41 500 L41 387 L289 387 L35 109 L35 0 Z " />
<glyph glyph-name="braceleft" unicode="&#x7b;" horiz-adv-x="372" d="M303 -116 L348 -116 L348 -9 L324 -9 C255 -9 233 -2 233 89 L233 207 C233 271 194 311 141 311 C194 311 233 351 233 415 L233 533 C233 624 255 631 324 631 L348 631 L348 738 L303 738 C142 738 89 689 89 527 L89 454 C89 393 87 359 25 359 L25 263 C87 263 89 229 89 168 L89 96 C89 -67 142 -116 303 -116 L303 -116 Z " />
<glyph glyph-name="bar" unicode="&#x7c;" horiz-adv-x="257" d="M72 -146 L185 -146 L185 708 L72 708 L72 -146 Z " />
<glyph glyph-name="braceright" unicode="&#x7d;" horiz-adv-x="372" d="M139 415 C139 351 178 311 231 311 C178 311 139 271 139 207 L139 89 C139 -2 117 -9 48 -9 L24 -9 L24 -116 L69 -116 C230 -116 283 -67 283 96 L283 168 C283 229 285 263 347 263 L347 359 C285 359 283 393 283 454 L283 527 C283 689 230 738 69 738 L24 738 L24 631 L48 631 C117 631 139 624 139 533 L139 415 Z " />
<glyph glyph-name="asciitilde" unicode="&#x7e;" horiz-adv-x="592" d="M406 255 C500 255 527 286 546 310 L546 321 L501 397 L490 397 C477 377 448 362 406 362 C359 362 264 397 186 397 C94 397 66 366 47 342 L47 331 L92 255 L103 255 C116 275 149 290 186 290 C257 290 335 255 406 255 L406 255 Z " />
<glyph glyph-name="exclamdown" unicode="&#xa1;" horiz-adv-x="273" d="M136 321 C189 321 232 364 232 417 C232 469 189 512 136 512 C84 512 41 469 41 417 C41 364 84 321 136 321 L136 321 Z M69 -163 L204 -163 L213 -153 L197 263 L187 273 L86 273 L77 263 L60 -153 L69 -163 Z " />
<glyph glyph-name="cent" unicode="&#xa2;" horiz-adv-x="524" d="M300 453 C340 453 375 436 399 408 L411 408 L491 481 L491 493 C455 534 402 566 333 575 L333 660 L219 660 L219 567 C110 538 36 446 36 327 C36 208 110 116 219 87 L219 -12 L333 -12 L333 79 C402 88 455 120 491 161 L491 173 L411 246 L399 246 C375 216 339 201 301 201 C227 201 179 254 179 327 C179 400 229 453 300 453 L300 453 Z " />
<glyph glyph-name="sterling" unicode="&#xa3;" horiz-adv-x="585" d="M354 539 C396 539 432 520 463 485 L475 485 L554 555 L554 566 C506 625 430 662 342 662 C224 662 108 593 108 449 L108 388 L47 388 L47 273 L108 273 L108 115 L45 115 L45 0 L548 0 L548 115 L263 115 L263 273 L439 273 L439 388 L263 388 L263 449 C263 505 298 539 354 539 L354 539 Z " />
<glyph glyph-name="currency" unicode="&#xa4;" horiz-adv-x="688" d="M573 199 C600 238 613 282 613 328 C613 374 600 418 573 457 L647 528 L553 619 L473 541 C434 563 390 573 345 573 C299 573 256 563 215 542 L136 619 L43 528 L115 458 C88 419 75 374 75 328 C75 282 88 238 115 198 L42 128 L136 38 L216 114 C254 94 298 83 344 83 C389 83 433 94 473 114 L553 38 L646 128 L573 199 Z M344 200 C271 200 215 254 215 328 C215 402 271 456 344 456 C418 456 473 402 473 328 C473 254 418 200 344 200 L344 200 Z " />
<glyph glyph-name="yen" unicode="&#xa5;" horiz-adv-x="679" d="M657 638 L650 650 L500 650 L344 372 L182 650 L28 650 L21 638 L244 272 L143 272 L143 194 L265 194 L265 148 L143 148 L143 70 L265 70 L265 0 L421 0 L421 70 L541 70 L541 148 L421 148 L421 194 L541 194 L541 272 L440 272 L657 638 Z " />
<glyph glyph-name="brokenbar" unicode="&#xa6;" horiz-adv-x="257" d="M72 708 L72 341 L185 341 L185 708 L72 708 Z M72 241 L72 -146 L185 -146 L185 241 L72 241 Z " />
<glyph glyph-name="section" unicode="&#xa7;" horiz-adv-x="574" d="M437 498 L448 498 L524 566 L524 578 C466 633 387 662 298 662 C170 662 67 603 67 495 C67 452 85 421 117 394 C75 367 46 321 46 267 C46 169 140 123 250 90 C302 74 356 58 356 19 C356 -12 321 -36 269 -36 C211 -36 150 -5 115 33 L103 33 L33 -43 L33 -54 C92 -119 179 -152 275 -152 C401 -152 515 -97 515 14 C515 53 500 86 473 117 C512 145 536 188 536 241 C536 358 421 395 321 426 C271 443 229 462 229 499 C229 531 263 552 310 552 C365 552 409 525 437 498 L437 498 Z M198 279 C198 305 217 326 245 335 C313 310 390 295 390 242 C390 219 375 199 350 187 C276 218 198 227 198 279 L198 279 Z " />
<glyph glyph-name="dieresis" unicode="&#xa8;" horiz-adv-x="478" d="M130 578 C178 578 217 616 217 664 C217 712 178 751 130 751 C82 751 43 712 43 664 C43 616 82 578 130 578 L130 578 Z M348 578 C396 578 434 616 434 664 C434 712 396 751 348 751 C300 751 261 712 261 664 C261 616 300 578 348 578 L348 578 Z " />
<glyph glyph-name="copyright" unicode="&#xa9;" horiz-adv-x="756" d="M378 -12 C571 -12 720 133 720 324 C720 516 571 662 378 662 C185 662 36 516 36 324 C36 133 185 -12 378 -12 L378 -12 Z M378 57 C227 57 109 172 109 325 C109 477 226 593 378 593 C530 593 647 477 647 325 C647 173 531 57 378 57 L378 57 Z M387 130 C454 130 512 156 549 195 L549 205 L484 268 L475 268 C458 246 432 231 397 231 C338 231 304 272 304 325 C304 380 340 422 397 422 C429 422 458 408 475 386 L484 386 L549 449 L549 458 C512 498 454 523 387 523 C268 523 181 440 181 327 C181 213 268 130 387 130 L387 130 Z " />
<glyph glyph-name="ordfeminine" unicode="&#xaa;" horiz-adv-x="388" d="M189 661 C132 661 87 640 57 610 L57 602 L93 558 L101 558 C117 573 145 588 179 588 C215 588 240 568 240 538 L240 527 C220 534 198 538 170 538 C91 538 33 502 33 440 C33 379 85 339 160 339 C197 339 230 353 254 374 L254 344 L336 344 L336 543 C336 624 265 661 189 661 L189 661 Z M180 403 C151 403 133 417 133 440 C133 463 154 478 185 478 C208 478 227 473 238 469 L238 453 C238 429 217 403 180 403 L180 403 Z " />
<glyph glyph-name="guillemotleft" unicode="&#xab;" horiz-adv-x="557" d="M291 434 L291 443 L220 511 L212 511 L30 307 L30 291 L212 87 L220 87 L291 155 L291 163 L172 299 L291 434 Z M514 443 L443 511 L435 511 L253 307 L253 291 L435 87 L443 87 L514 155 L514 163 L395 299 L514 434 L514 443 Z " />
<glyph glyph-name="registered" unicode="&#xae;" horiz-adv-x="450" d="M226 677 C119 677 35 597 35 489 C35 383 119 302 226 302 C332 302 416 383 416 489 C416 597 332 677 226 677 L226 677 Z M226 350 C147 350 85 410 85 490 C85 570 147 629 226 629 C304 629 366 570 366 489 C366 410 304 350 226 350 L226 350 Z M309 523 C309 562 283 585 234 585 L151 585 L151 399 L205 399 L205 465 L220 465 L256 399 L317 399 L276 473 C296 482 309 500 309 523 L309 523 Z M205 540 L232 540 C244 540 252 532 252 521 C252 510 244 503 232 503 L205 503 L205 540 Z " />
<glyph glyph-name="macron" unicode="&#xaf;" horiz-adv-x="544" d="M107 703 L107 603 L437 603 L437 703 L107 703 Z " />
<glyph glyph-name="degree" unicode="&#xb0;" horiz-adv-x="320" d="M160 404 C232 404 289 462 289 533 C289 605 232 662 160 662 C89 662 31 605 31 533 C31 462 89 404 160 404 L160 404 Z M160 484 C133 484 113 505 113 533 C113 561 133 582 160 582 C188 582 207 561 207 533 C207 505 188 484 160 484 L160 484 Z " />
<glyph glyph-name="plusminus" unicode="&#xb1;" horiz-adv-x="599" d="M365 432 L365 620 L235 620 L235 432 L45 432 L45 315 L235 315 L235 127 L365 127 L365 315 L554 315 L554 432 L365 432 Z M45 -45 L554 -45 L554 71 L45 71 L45 -45 Z " />
<glyph glyph-name="acute" unicode="&#xb4;" horiz-adv-x="350" d="M242 780 L27 644 L27 636 L67 568 L75 568 L308 670 L308 678 L250 780 L242 780 Z " />
<glyph glyph-name="paragraph" unicode="&#xb6;" horiz-adv-x="715" d="M674 614 L674 708 L281 708 C143 708 26 642 26 486 C26 330 143 259 281 259 L327 259 L327 -132 L433 -132 L433 614 L674 614 Z M620 534 L620 -132 L513 -132 L513 534 L620 534 Z " />
<glyph glyph-name="periodcentered" unicode="&#xb7;" horiz-adv-x="281" d="M141 178 C195 178 240 222 240 277 C240 332 195 376 141 376 C86 376 41 332 41 277 C41 222 86 178 141 178 L141 178 Z " />
<glyph glyph-name="cedilla" unicode="&#xb8;" horiz-adv-x="361" d="M190 -280 C280 -280 342 -228 342 -153 C342 -89 292 -47 213 -47 L233 16 L233 35 L138 34 L138 16 L102 -99 L121 -111 C187 -98 236 -112 236 -152 C236 -180 212 -195 175 -195 C145 -195 113 -184 92 -171 L81 -171 L44 -223 L44 -235 C81 -262 139 -280 190 -280 L190 -280 Z " />
<glyph glyph-name="ordmasculine" unicode="&#xba;" horiz-adv-x="400" d="M200 341 C299 341 369 407 369 502 C369 594 299 662 200 662 C101 662 31 594 31 502 C31 408 101 341 200 341 L200 341 Z M200 427 C159 427 129 458 129 502 C129 545 159 576 200 576 C241 576 271 545 271 502 C271 458 240 427 200 427 L200 427 Z " />
<glyph glyph-name="guillemotright" unicode="&#xbb;" horiz-adv-x="557" d="M304 307 L121 511 L114 511 L43 443 L43 434 L162 299 L43 163 L43 155 L114 87 L121 87 L304 291 L304 307 Z M344 511 L337 511 L266 443 L266 434 L385 299 L266 163 L266 155 L337 87 L344 87 L527 291 L527 307 L344 511 Z " />
<glyph glyph-name="onequarter" unicode="&#xbc;" horiz-adv-x="795" d="M121 285 L244 285 L244 665 L27 665 L27 568 L121 568 L121 285 Z M91 5 L98 -7 L216 -7 L732 652 L725 663 L607 663 L91 5 Z M606 -7 L712 -7 L712 63 L754 63 L754 145 L712 145 L712 371 L604 371 L428 134 L428 63 L606 63 L606 -7 Z M527 145 L611 259 L611 145 L527 145 Z " />
<glyph glyph-name="onehalf" unicode="&#xbd;" horiz-adv-x="874" d="M121 285 L244 285 L244 665 L27 665 L27 572 L121 572 L121 285 Z M90 5 L97 -7 L215 -7 L731 652 L724 663 L606 663 L90 5 Z M539 -7 L839 -7 L839 87 L706 87 C730 107 749 125 766 141 C812 186 830 217 830 258 C830 335 763 377 685 377 C628 377 564 346 528 306 L528 297 L570 242 L579 242 C601 266 637 287 664 287 C691 287 713 271 713 243 C713 222 696 199 671 174 C641 144 595 110 539 66 L539 -7 Z " />
<glyph glyph-name="threequarters" unicode="&#xbe;" horiz-adv-x="833" d="M263 489 C292 507 310 536 310 570 C310 634 256 677 176 677 C129 677 77 659 46 631 L46 622 L83 568 L92 568 C110 585 137 595 162 595 C192 595 213 580 213 557 C213 534 192 518 162 518 L118 518 L118 451 L155 451 C191 451 218 434 218 406 C218 380 196 365 167 365 C134 365 98 380 80 402 L71 402 L27 352 L27 344 C55 304 118 280 172 280 C265 280 326 327 326 395 C326 436 303 470 263 489 L263 489 Z M131 5 L138 -7 L256 -7 L772 652 L765 663 L647 663 L131 5 Z M642 -7 L748 -7 L748 63 L790 63 L790 145 L748 145 L748 371 L640 371 L464 134 L464 63 L642 63 L642 -7 Z M563 145 L647 259 L647 145 L563 145 Z " />
<glyph glyph-name="questiondown" unicode="&#xbf;" horiz-adv-x="497" d="M254 347 C303 347 343 387 343 436 C343 485 303 525 254 525 C206 525 166 485 166 436 C166 387 206 347 254 347 L254 347 Z M251 -163 C361 -163 450 -95 476 -11 L472 0 L373 36 L361 31 C346 -12 303 -38 264 -38 C210 -38 176 -10 176 33 C176 85 238 126 270 162 C302 196 321 227 321 273 L321 298 L188 298 L188 274 C188 251 183 232 156 204 C115 158 36 100 36 9 C36 -92 125 -163 251 -163 L251 -163 Z " />
<glyph glyph-name="Agrave" unicode="&#xc0;" horiz-adv-x="700" d="M461 716 L498 778 L498 789 L279 929 L268 929 L211 831 L211 820 L450 716 L461 716 Z M398 650 L303 650 L3 12 L10 0 L162 0 L210 114 L485 114 L532 0 L690 0 L697 12 L398 650 Z M256 222 L350 443 L441 222 L256 222 Z " />
<glyph glyph-name="Aacute" unicode="&#xc1;" horiz-adv-x="700" d="M256 716 L496 820 L496 831 L438 929 L427 929 L208 789 L208 778 L245 716 L256 716 Z M398 650 L303 650 L3 12 L10 0 L162 0 L210 114 L485 114 L532 0 L690 0 L697 12 L398 650 Z M256 222 L350 443 L441 222 L256 222 Z " />
<glyph glyph-name="Acircumflex" unicode="&#xc2;" horiz-adv-x="700" d="M206 728 L349 796 L492 728 L503 728 L544 797 L544 808 L355 915 L342 915 L153 808 L153 797 L195 728 L206 728 Z M398 650 L303 650 L3 12 L10 0 L162 0 L210 114 L485 114 L532 0 L690 0 L697 12 L398 650 Z M256 222 L350 443 L441 222 L256 222 Z " />
<glyph glyph-name="Atilde" unicode="&#xc3;" horiz-adv-x="700" d="M183 735 C195 760 223 775 255 775 C307 775 378 735 441 735 C482 735 510 749 531 781 L531 882 L522 888 L516 888 C504 864 477 849 443 849 C392 849 319 889 257 889 C217 889 189 875 168 843 L168 741 L176 735 L183 735 Z M398 650 L303 650 L3 12 L10 0 L162 0 L210 114 L485 114 L532 0 L690 0 L697 12 L398 650 Z M256 222 L350 443 L441 222 L256 222 Z " />
<glyph glyph-name="Adieresis" unicode="&#xc4;" horiz-adv-x="700" d="M229 723 C279 723 321 764 321 814 C321 865 279 906 229 906 C179 906 138 865 138 814 C138 764 179 723 229 723 L229 723 Z M470 723 C520 723 561 764 561 814 C561 865 520 906 470 906 C420 906 379 865 379 814 C379 764 420 723 470 723 L470 723 Z M398 650 L303 650 L3 12 L10 0 L162 0 L210 114 L485 114 L532 0 L690 0 L697 12 L398 650 Z M256 222 L350 443 L441 222 L256 222 Z " />
<glyph glyph-name="Aring" unicode="&#xc5;" horiz-adv-x="700" d="M351 703 C419 703 475 757 475 825 C475 893 419 947 351 947 C283 947 227 893 227 825 C227 757 283 703 351 703 L351 703 Z M351 866 C372 866 391 848 391 825 C391 802 372 784 351 784 C329 784 311 802 311 825 C311 848 329 866 351 866 L351 866 Z M398 650 L303 650 L3 12 L10 0 L162 0 L210 114 L485 114 L532 0 L690 0 L697 12 L398 650 Z M256 222 L350 443 L441 222 L256 222 Z " />
<glyph glyph-name="AE" unicode="&#xc6;" horiz-adv-x="1024" d="M662 128 L662 265 L908 265 L908 387 L662 387 L662 522 L980 522 L980 650 L445 650 L-16 12 L-9 0 L158 0 L238 114 L506 114 L506 0 L982 0 L982 128 L662 128 Z M313 222 L506 498 L506 222 L313 222 Z " />
<glyph glyph-name="Ccedilla" unicode="&#xc7;" horiz-adv-x="682" d="M389 521 C456 521 516 490 554 444 L565 444 L661 524 L661 535 C599 612 501 662 389 662 C189 662 36 518 36 325 C36 149 164 14 335 -9 L310 -90 L329 -102 C395 -89 444 -103 444 -143 C444 -171 420 -186 383 -186 C353 -186 321 -175 300 -162 L289 -162 L252 -214 L252 -226 C289 -253 347 -271 398 -271 C488 -271 550 -219 550 -144 C550 -80 500 -38 421 -38 L430 -10 C528 1 608 49 661 115 L661 126 L565 206 L554 206 C516 160 456 129 389 129 C280 129 195 211 195 325 C195 439 280 521 389 521 L389 521 Z " />
<glyph glyph-name="Egrave" unicode="&#xc8;" horiz-adv-x="593" d="M241 929 L230 929 L173 831 L173 820 L412 716 L423 716 L460 778 L460 789 L241 929 Z M549 522 L549 650 L75 650 L75 0 L551 0 L551 128 L231 128 L231 265 L477 265 L477 387 L231 387 L231 522 L549 522 Z " />
<glyph glyph-name="Eacute" unicode="&#xc9;" horiz-adv-x="593" d="M399 929 L180 789 L180 778 L217 716 L228 716 L468 820 L468 831 L410 929 L399 929 Z M549 522 L549 650 L75 650 L75 0 L551 0 L551 128 L231 128 L231 265 L477 265 L477 387 L231 387 L231 522 L549 522 Z " />
<glyph glyph-name="Ecircumflex" unicode="&#xca;" horiz-adv-x="593" d="M169 728 L312 796 L455 728 L466 728 L507 797 L507 808 L318 915 L305 915 L116 808 L116 797 L158 728 L169 728 Z M231 128 L231 265 L477 265 L477 387 L231 387 L231 522 L549 522 L549 650 L75 650 L75 0 L551 0 L551 128 L231 128 Z " />
<glyph glyph-name="Edieresis" unicode="&#xcb;" horiz-adv-x="593" d="M191 723 C241 723 283 764 283 814 C283 865 241 906 191 906 C141 906 100 865 100 814 C100 764 141 723 191 723 L191 723 Z M432 723 C482 723 523 764 523 814 C523 865 482 906 432 906 C382 906 341 865 341 814 C341 764 382 723 432 723 L432 723 Z M549 522 L549 650 L75 650 L75 0 L551 0 L551 128 L231 128 L231 265 L477 265 L477 387 L231 387 L231 522 L549 522 Z " />
<glyph glyph-name="Igrave" unicode="&#xcc;" horiz-adv-x="306" d="M93 929 L82 929 L25 831 L25 820 L264 716 L275 716 L312 778 L312 789 L93 929 Z M75 650 L75 0 L231 0 L231 650 L75 650 Z " />
<glyph glyph-name="Iacute" unicode="&#xcd;" horiz-adv-x="306" d="M217 929 L-2 789 L-2 778 L35 716 L46 716 L286 820 L286 831 L228 929 L217 929 Z M75 650 L75 0 L231 0 L231 650 L75 650 Z " />
<glyph glyph-name="Icircumflex" unicode="&#xce;" horiz-adv-x="306" d="M158 915 L145 915 L-44 808 L-44 797 L-2 728 L9 728 L152 796 L295 728 L306 728 L347 797 L347 808 L158 915 Z M75 0 L231 0 L231 650 L75 650 L75 0 Z " />
<glyph glyph-name="Idieresis" unicode="&#xcf;" horiz-adv-x="306" d="M32 723 C82 723 124 764 124 814 C124 865 82 906 32 906 C-18 906 -59 865 -59 814 C-59 764 -18 723 32 723 L32 723 Z M273 723 C323 723 364 764 364 814 C364 865 323 906 273 906 C223 906 182 865 182 814 C182 764 223 723 273 723 L273 723 Z M75 650 L75 0 L231 0 L231 650 L75 650 Z " />
<glyph glyph-name="Eth" unicode="&#xd0;" horiz-adv-x="754" d="M374 650 L90 650 L90 382 L22 382 L22 268 L90 268 L90 0 L374 0 C584 0 716 130 716 326 C716 520 584 650 374 650 L374 650 Z M369 128 L246 128 L246 268 L401 268 L401 382 L246 382 L246 522 L369 522 C481 522 557 448 557 325 C557 202 481 128 369 128 L369 128 Z " />
<glyph glyph-name="Ntilde" unicode="&#xd1;" horiz-adv-x="732" d="M191 735 C203 760 232 775 265 775 C319 775 393 735 458 735 C500 735 529 749 551 781 L551 882 L542 888 L535 888 C523 864 495 849 460 849 C407 849 332 889 267 889 C226 889 197 875 175 843 L175 741 L184 735 L191 735 Z M501 650 L501 263 L172 650 L75 650 L75 0 L230 0 L230 384 L560 -3 L657 -3 L657 650 L501 650 Z " />
<glyph glyph-name="Ograve" unicode="&#xd2;" horiz-adv-x="783" d="M321 929 L310 929 L253 831 L253 820 L492 716 L503 716 L540 778 L540 789 L321 929 Z M392 -12 C594 -12 748 133 748 325 C748 518 594 662 392 662 C189 662 35 518 35 325 C35 132 189 -12 392 -12 L392 -12 Z M392 129 C282 129 195 211 195 325 C195 440 282 521 392 521 C502 521 589 440 589 325 C589 211 502 129 392 129 L392 129 Z " />
<glyph glyph-name="Oacute" unicode="&#xd3;" horiz-adv-x="783" d="M479 929 L260 789 L260 778 L297 716 L308 716 L548 820 L548 831 L490 929 L479 929 Z M392 -12 C594 -12 748 133 748 325 C748 518 594 662 392 662 C189 662 35 518 35 325 C35 132 189 -12 392 -12 L392 -12 Z M392 129 C282 129 195 211 195 325 C195 440 282 521 392 521 C502 521 589 440 589 325 C589 211 502 129 392 129 L392 129 Z " />
<glyph glyph-name="Ocircumflex" unicode="&#xd4;" horiz-adv-x="783" d="M248 728 L391 796 L534 728 L545 728 L586 797 L586 808 L397 915 L384 915 L195 808 L195 797 L237 728 L248 728 Z M392 662 C189 662 35 518 35 325 C35 132 189 -12 392 -12 C594 -12 748 133 748 325 C748 518 594 662 392 662 L392 662 Z M392 129 C282 129 195 211 195 325 C195 440 282 521 392 521 C502 521 589 440 589 325 C589 211 502 129 392 129 L392 129 Z " />
<glyph glyph-name="Otilde" unicode="&#xd5;" horiz-adv-x="783" d="M487 735 C529 735 558 749 580 781 L580 882 L571 888 L564 888 C552 864 524 849 489 849 C436 849 361 889 296 889 C255 889 226 875 204 843 L204 741 L213 735 L220 735 C232 760 261 775 294 775 C348 775 422 735 487 735 L487 735 Z M392 -12 C594 -12 748 133 748 325 C748 518 594 662 392 662 C189 662 35 518 35 325 C35 132 189 -12 392 -12 L392 -12 Z M392 129 C282 129 195 211 195 325 C195 440 282 521 392 521 C502 521 589 440 589 325 C589 211 502 129 392 129 L392 129 Z " />
<glyph glyph-name="Odieresis" unicode="&#xd6;" horiz-adv-x="783" d="M271 723 C321 723 363 764 363 814 C363 865 321 906 271 906 C221 906 180 865 180 814 C180 764 221 723 271 723 L271 723 Z M512 723 C562 723 603 764 603 814 C603 865 562 906 512 906 C462 906 421 865 421 814 C421 764 462 723 512 723 L512 723 Z M392 -12 C594 -12 748 133 748 325 C748 518 594 662 392 662 C189 662 35 518 35 325 C35 132 189 -12 392 -12 L392 -12 Z M392 129 C282 129 195 211 195 325 C195 440 282 521 392 521 C502 521 589 440 589 325 C589 211 502 129 392 129 L392 129 Z " />
<glyph glyph-name="multiply" unicode="&#xd7;" horiz-adv-x="596" d="M128 66 L296 238 L466 65 L561 160 L388 331 L560 500 L469 592 L299 421 L133 591 L36 497 L207 327 L36 157 L128 66 Z " />
<glyph glyph-name="Oslash" unicode="&#xd8;" horiz-adv-x="783" d="M636 575 L725 709 L718 721 L574 721 L521 641 C481 655 438 662 392 662 C189 662 35 518 35 325 C35 224 77 137 146 76 L66 -44 L73 -56 L218 -56 L261 10 C302 -4 345 -12 392 -12 C594 -12 748 133 748 325 C748 426 706 514 636 575 L636 575 Z M195 325 C195 440 282 521 392 521 C408 521 423 519 438 516 L233 207 C209 239 195 279 195 325 L195 325 Z M392 129 C375 129 359 131 344 134 L550 445 C575 413 589 372 589 325 C589 211 502 129 392 129 L392 129 Z " />
<glyph glyph-name="Ugrave" unicode="&#xd9;" horiz-adv-x="731" d="M296 929 L285 929 L228 831 L228 820 L467 716 L478 716 L515 778 L515 789 L296 929 Z M65 650 L65 289 C65 108 186 -12 367 -12 C546 -12 666 108 666 289 L666 650 L513 650 L513 281 C513 189 454 128 367 128 C280 128 221 189 221 281 L221 650 L65 650 Z " />
<glyph glyph-name="Uacute" unicode="&#xda;" horiz-adv-x="731" d="M454 929 L235 789 L235 778 L272 716 L283 716 L523 820 L523 831 L465 929 L454 929 Z M65 650 L65 289 C65 108 186 -12 367 -12 C546 -12 666 108 666 289 L666 650 L513 650 L513 281 C513 189 454 128 367 128 C280 128 221 189 221 281 L221 650 L65 650 Z " />
<glyph glyph-name="Ucircumflex" unicode="&#xdb;" horiz-adv-x="731" d="M224 728 L367 796 L510 728 L521 728 L562 797 L562 808 L373 915 L360 915 L171 808 L171 797 L213 728 L224 728 Z M513 650 L513 281 C513 189 454 128 367 128 C280 128 221 189 221 281 L221 650 L65 650 L65 289 C65 108 186 -12 367 -12 C546 -12 666 108 666 289 L666 650 L513 650 Z " />
<glyph glyph-name="Udieresis" unicode="&#xdc;" horiz-adv-x="731" d="M246 723 C296 723 338 764 338 814 C338 865 296 906 246 906 C196 906 155 865 155 814 C155 764 196 723 246 723 L246 723 Z M487 723 C537 723 578 764 578 814 C578 865 537 906 487 906 C437 906 396 865 396 814 C396 764 437 723 487 723 L487 723 Z M65 650 L65 289 C65 108 186 -12 367 -12 C546 -12 666 108 666 289 L666 650 L513 650 L513 281 C513 189 454 128 367 128 C280 128 221 189 221 281 L221 650 L65 650 Z " />
<glyph glyph-name="Yacute" unicode="&#xdd;" horiz-adv-x="659" d="M247 716 L487 820 L487 831 L429 929 L418 929 L199 789 L199 778 L236 716 L247 716 Z M645 638 L638 650 L488 650 L332 372 L170 650 L16 650 L9 638 L253 237 L253 0 L409 0 L409 241 L645 638 Z " />
<glyph glyph-name="Thorn" unicode="&#xde;" horiz-adv-x="642" d="M75 0 L231 0 L231 116 L358 116 C523 114 610 198 610 329 C610 460 521 542 358 542 L231 542 L231 650 L75 650 L75 0 Z M231 237 L231 413 L360 413 C411 413 450 383 450 325 C450 268 414 237 360 237 L231 237 Z " />
<glyph glyph-name="germandbls" unicode="&#xdf;" horiz-adv-x="628" d="M475 367 C515 396 540 441 540 498 C540 611 444 692 309 692 C163 692 63 601 63 445 L63 0 L218 0 L218 462 C218 521 255 562 309 562 C360 562 396 531 396 486 C396 441 363 409 314 409 L292 409 L292 312 L344 312 C408 312 454 273 454 213 C454 153 413 116 358 116 C339 116 318 123 302 134 L290 127 L246 33 L253 22 C287 -3 336 -12 380 -12 C505 -12 598 68 598 188 C598 273 552 340 475 367 L475 367 Z " />
<glyph glyph-name="agrave" unicode="&#xe0;" horiz-adv-x="561" d="M382 568 L422 636 L422 644 L207 780 L199 780 L141 678 L141 670 L374 568 L382 568 Z M268 512 C203 512 118 491 63 448 L63 436 L113 358 L124 358 C156 383 203 399 246 399 C311 399 361 366 361 316 L361 293 C323 307 282 317 239 317 C110 317 24 249 24 147 C24 52 103 -12 221 -12 C282 -12 337 10 379 47 L379 0 L504 0 L504 301 C504 455 394 512 268 512 L268 512 Z M257 86 C205 86 170 113 170 154 C170 196 206 225 262 225 C303 225 342 210 364 200 L364 173 C364 127 317 86 257 86 L257 86 Z " />
<glyph glyph-name="aacute" unicode="&#xe1;" horiz-adv-x="561" d="M182 568 L415 670 L415 678 L357 780 L349 780 L134 644 L134 636 L174 568 L182 568 Z M268 512 C203 512 118 491 63 448 L63 436 L113 358 L124 358 C156 383 203 399 246 399 C311 399 361 366 361 316 L361 293 C323 307 282 317 239 317 C110 317 24 249 24 147 C24 52 103 -12 221 -12 C282 -12 337 10 379 47 L379 0 L504 0 L504 301 C504 455 394 512 268 512 L268 512 Z M257 86 C205 86 170 113 170 154 C170 196 206 225 262 225 C303 225 342 210 364 200 L364 173 C364 127 317 86 257 86 L257 86 Z " />
<glyph glyph-name="acircumflex" unicode="&#xe2;" horiz-adv-x="561" d="M149 577 L283 643 L416 577 L424 577 L467 641 L467 650 L290 758 L274 758 L97 650 L97 641 L140 577 L149 577 Z M268 512 C203 512 118 491 63 448 L63 436 L113 358 L124 358 C156 383 203 399 246 399 C311 399 361 366 361 316 L361 293 C323 307 282 317 239 317 C110 317 24 249 24 147 C24 52 103 -12 221 -12 C282 -12 337 10 379 47 L379 0 L504 0 L504 301 C504 455 394 512 268 512 L268 512 Z M257 86 C205 86 170 113 170 154 C170 196 206 225 262 225 C303 225 342 210 364 200 L364 173 C364 127 317 86 257 86 L257 86 Z " />
<glyph glyph-name="atilde" unicode="&#xe3;" horiz-adv-x="561" d="M127 593 C139 615 167 630 202 630 C248 630 301 593 358 593 C401 593 431 608 452 636 L452 727 L443 733 L437 733 C425 711 398 696 359 696 C314 696 263 734 206 734 C165 734 133 719 112 690 L112 599 L120 593 L127 593 Z M268 512 C203 512 118 491 63 448 L63 436 L113 358 L124 358 C156 383 203 399 246 399 C311 399 361 366 361 316 L361 293 C323 307 282 317 239 317 C110 317 24 249 24 147 C24 52 103 -12 221 -12 C282 -12 337 10 379 47 L379 0 L504 0 L504 301 C504 455 394 512 268 512 L268 512 Z M257 86 C205 86 170 113 170 154 C170 196 206 225 262 225 C303 225 342 210 364 200 L364 173 C364 127 317 86 257 86 L257 86 Z " />
<glyph glyph-name="adieresis" unicode="&#xe4;" horiz-adv-x="561" d="M173 578 C221 578 260 616 260 664 C260 712 221 751 173 751 C125 751 86 712 86 664 C86 616 125 578 173 578 L173 578 Z M391 578 C439 578 477 616 477 664 C477 712 439 751 391 751 C343 751 304 712 304 664 C304 616 343 578 391 578 L391 578 Z M268 512 C203 512 118 491 63 448 L63 436 L113 358 L124 358 C156 383 203 399 246 399 C311 399 361 366 361 316 L361 293 C323 307 282 317 239 317 C110 317 24 249 24 147 C24 52 103 -12 221 -12 C282 -12 337 10 379 47 L379 0 L504 0 L504 301 C504 455 394 512 268 512 L268 512 Z M257 86 C205 86 170 113 170 154 C170 196 206 225 262 225 C303 225 342 210 364 200 L364 173 C364 127 317 86 257 86 L257 86 Z " />
<glyph glyph-name="aring" unicode="&#xe5;" horiz-adv-x="561" d="M282 547 C353 547 410 602 410 670 C410 737 354 793 282 793 C211 793 155 737 155 670 C155 602 211 547 282 547 L282 547 Z M282 709 C306 709 322 691 322 670 C322 648 306 630 282 630 C259 630 243 648 243 670 C243 691 259 709 282 709 L282 709 Z M268 512 C203 512 118 491 63 448 L63 436 L113 358 L124 358 C156 383 203 399 246 399 C311 399 361 366 361 316 L361 293 C323 307 282 317 239 317 C110 317 24 249 24 147 C24 52 103 -12 221 -12 C282 -12 337 10 379 47 L379 0 L504 0 L504 301 C504 455 394 512 268 512 L268 512 Z M257 86 C205 86 170 113 170 154 C170 196 206 225 262 225 C303 225 342 210 364 200 L364 173 C364 127 317 86 257 86 L257 86 Z " />
<glyph glyph-name="ae" unicode="&#xe6;" horiz-adv-x="923" d="M891 216 C893 228 894 241 894 256 C894 332 867 396 821 442 C775 486 711 512 637 512 C563 512 500 488 454 446 C410 493 341 512 268 512 C203 512 118 491 63 448 L63 437 L113 358 L124 358 C156 383 203 399 246 399 C311 399 361 366 361 316 L361 293 C323 307 281 317 239 317 C110 317 24 249 24 147 C24 52 103 -12 221 -12 C303 -13 383 20 432 78 C482 21 558 -12 646 -12 C723 -12 815 13 871 79 L871 91 L802 157 L791 157 C757 121 704 102 653 102 C584 102 527 140 520 216 L891 216 Z M633 403 C665 403 693 392 713 371 C729 355 740 331 744 304 L521 304 C529 364 571 403 633 403 L633 403 Z M257 86 C205 86 170 113 170 154 C170 196 207 225 262 225 C303 225 342 210 364 200 L364 180 C364 133 317 86 257 86 L257 86 Z " />
<glyph glyph-name="ccedilla" unicode="&#xe7;" horiz-adv-x="529" d="M309 380 C351 380 387 363 412 334 L424 334 L510 413 L510 424 C465 474 395 512 303 512 C147 512 31 401 31 250 C31 119 118 19 242 -6 L216 -90 L235 -102 C301 -89 350 -103 350 -143 C350 -171 326 -186 289 -186 C259 -186 227 -175 206 -162 L195 -162 L158 -214 L158 -226 C195 -253 253 -271 304 -271 C394 -271 456 -219 456 -144 C456 -80 406 -38 327 -38 L336 -10 C412 -3 471 32 510 76 L510 87 L424 166 L412 166 C387 135 350 120 310 120 C234 120 184 175 184 250 C184 325 235 380 309 380 L309 380 Z " />
<glyph glyph-name="egrave" unicode="&#xe8;" horiz-adv-x="586" d="M396 568 L436 636 L436 644 L221 780 L213 780 L155 678 L155 670 L388 568 L396 568 Z M553 216 C555 228 556 241 556 256 C556 332 529 396 483 442 C437 486 373 512 299 512 C142 512 32 401 32 249 C32 93 151 -12 308 -12 C385 -12 477 13 533 79 L533 91 L464 157 L453 157 C419 121 366 102 315 102 C246 102 189 140 182 216 L553 216 Z M295 403 C327 403 355 392 375 371 C391 355 402 331 406 304 L183 304 C191 364 233 403 295 403 L295 403 Z " />
<glyph glyph-name="eacute" unicode="&#xe9;" horiz-adv-x="586" d="M196 568 L429 670 L429 678 L371 780 L363 780 L148 644 L148 636 L188 568 L196 568 Z M553 216 C555 228 556 241 556 256 C556 332 529 396 483 442 C437 486 373 512 299 512 C142 512 32 401 32 249 C32 93 151 -12 308 -12 C385 -12 477 13 533 79 L533 91 L464 157 L453 157 C419 121 366 102 315 102 C246 102 189 140 182 216 L553 216 Z M295 403 C327 403 355 392 375 371 C391 355 402 331 406 304 L183 304 C191 364 233 403 295 403 L295 403 Z " />
<glyph glyph-name="ecircumflex" unicode="&#xea;" horiz-adv-x="586" d="M162 577 L296 643 L429 577 L437 577 L480 641 L480 650 L303 758 L287 758 L110 650 L110 641 L153 577 L162 577 Z M553 216 C555 228 556 241 556 256 C556 332 529 396 483 442 C437 486 373 512 299 512 C142 512 32 401 32 249 C32 93 151 -12 308 -12 C385 -12 477 13 533 79 L533 91 L464 157 L453 157 C419 121 366 102 315 102 C246 102 189 140 182 216 L553 216 Z M295 403 C327 403 355 392 375 371 C391 355 402 331 406 304 L183 304 C191 364 233 403 295 403 L295 403 Z " />
<glyph glyph-name="edieresis" unicode="&#xeb;" horiz-adv-x="586" d="M187 578 C235 578 274 616 274 664 C274 712 235 751 187 751 C139 751 100 712 100 664 C100 616 139 578 187 578 L187 578 Z M405 578 C453 578 491 616 491 664 C491 712 453 751 405 751 C357 751 318 712 318 664 C318 616 357 578 405 578 L405 578 Z M553 216 C555 228 556 241 556 256 C556 332 529 396 483 442 C437 486 373 512 299 512 C142 512 32 401 32 249 C32 93 151 -12 308 -12 C385 -12 477 13 533 79 L533 91 L464 157 L453 157 C419 121 366 102 315 102 C246 102 189 140 182 216 L553 216 Z M295 403 C327 403 355 392 375 371 C391 355 402 331 406 304 L183 304 C191 364 233 403 295 403 L295 403 Z " />
<glyph glyph-name="igrave" unicode="&#xec;" horiz-adv-x="282" d="M66 780 L58 780 L0 678 L0 670 L233 568 L241 568 L281 636 L281 644 L66 780 Z M64 0 L218 0 L218 500 L64 500 L64 0 Z " />
<glyph glyph-name="iacute" unicode="&#xed;" horiz-adv-x="282" d="M208 780 L-7 644 L-7 636 L33 568 L41 568 L274 670 L274 678 L216 780 L208 780 Z M64 0 L218 0 L218 500 L64 500 L64 0 Z " />
<glyph glyph-name="icircumflex" unicode="&#xee;" horiz-adv-x="282" d="M148 758 L133 758 L-29 650 L-29 641 L10 577 L18 577 L141 643 L263 577 L270 577 L310 641 L310 650 L148 758 Z M64 0 L218 0 L218 500 L64 500 L64 0 Z " />
<glyph glyph-name="idieresis" unicode="&#xef;" horiz-adv-x="282" d="M32 578 C80 578 119 616 119 664 C119 712 80 751 32 751 C-16 751 -55 712 -55 664 C-55 616 -16 578 32 578 L32 578 Z M250 578 C298 578 336 616 336 664 C336 712 298 751 250 751 C202 751 163 712 163 664 C163 616 202 578 250 578 L250 578 Z M64 0 L218 0 L218 500 L64 500 L64 0 Z " />
<glyph glyph-name="eth" unicode="&#xf0;" horiz-adv-x="559" d="M388 548 L464 576 L464 652 L453 659 L331 615 C307 642 281 670 253 699 L242 699 L150 620 L150 609 C166 595 181 580 196 566 L138 545 L138 470 L148 462 L259 502 C275 483 291 465 305 447 C289 450 272 451 257 451 C133 451 31 357 31 220 C31 85 134 -12 277 -12 C421 -12 524 90 526 232 C527 337 477 437 388 548 L388 548 Z M279 107 C216 107 171 154 171 219 C171 285 215 332 279 332 C343 332 386 284 386 219 C386 154 342 107 279 107 L279 107 Z " />
<glyph glyph-name="ntilde" unicode="&#xf1;" horiz-adv-x="615" d="M173 593 C185 615 213 630 248 630 C294 630 347 593 404 593 C447 593 477 608 498 636 L498 727 L489 733 L483 733 C471 711 444 696 405 696 C360 696 309 734 252 734 C211 734 179 719 158 690 L158 599 L166 593 L173 593 Z M350 512 C280 512 228 481 193 437 L193 500 L63 500 L63 0 L218 0 L218 285 C218 343 256 381 311 381 C370 381 403 341 403 285 L403 0 L558 0 L558 296 C558 423 475 512 350 512 L350 512 Z " />
<glyph glyph-name="ograve" unicode="&#xf2;" horiz-adv-x="615" d="M233 780 L225 780 L167 678 L167 670 L400 568 L408 568 L448 636 L448 644 L233 780 Z M308 -12 C468 -12 584 99 584 250 C584 401 468 512 308 512 C148 512 31 401 31 250 C31 99 148 -12 308 -12 L308 -12 Z M308 120 C235 120 184 175 184 250 C184 325 236 380 308 380 C380 380 432 325 432 250 C432 175 380 120 308 120 L308 120 Z " />
<glyph glyph-name="oacute" unicode="&#xf3;" horiz-adv-x="615" d="M375 780 L160 644 L160 636 L200 568 L208 568 L441 670 L441 678 L383 780 L375 780 Z M308 -12 C468 -12 584 99 584 250 C584 401 468 512 308 512 C148 512 31 401 31 250 C31 99 148 -12 308 -12 L308 -12 Z M308 120 C235 120 184 175 184 250 C184 325 236 380 308 380 C380 380 432 325 432 250 C432 175 380 120 308 120 L308 120 Z " />
<glyph glyph-name="ocircumflex" unicode="&#xf4;" horiz-adv-x="615" d="M175 577 L309 643 L442 577 L450 577 L493 641 L493 650 L316 758 L300 758 L123 650 L123 641 L166 577 L175 577 Z M308 512 C148 512 31 401 31 250 C31 99 148 -12 308 -12 C468 -12 584 99 584 250 C584 401 468 512 308 512 L308 512 Z M308 120 C235 120 184 175 184 250 C184 325 236 380 308 380 C380 380 432 325 432 250 C432 175 380 120 308 120 L308 120 Z " />
<glyph glyph-name="otilde" unicode="&#xf5;" horiz-adv-x="615" d="M384 593 C427 593 457 608 478 636 L478 727 L469 733 L463 733 C451 711 424 696 385 696 C340 696 289 734 232 734 C191 734 159 719 138 690 L138 599 L146 593 L153 593 C165 615 193 630 228 630 C274 630 327 593 384 593 L384 593 Z M308 -12 C468 -12 584 99 584 250 C584 401 468 512 308 512 C148 512 31 401 31 250 C31 99 148 -12 308 -12 L308 -12 Z M308 120 C235 120 184 175 184 250 C184 325 236 380 308 380 C380 380 432 325 432 250 C432 175 380 120 308 120 L308 120 Z " />
<glyph glyph-name="odieresis" unicode="&#xf6;" horiz-adv-x="615" d="M199 578 C247 578 286 616 286 664 C286 712 247 751 199 751 C151 751 112 712 112 664 C112 616 151 578 199 578 L199 578 Z M417 578 C465 578 503 616 503 664 C503 712 465 751 417 751 C369 751 330 712 330 664 C330 616 369 578 417 578 L417 578 Z M308 -12 C468 -12 584 99 584 250 C584 401 468 512 308 512 C148 512 31 401 31 250 C31 99 148 -12 308 -12 L308 -12 Z M308 120 C235 120 184 175 184 250 C184 325 236 380 308 380 C380 380 432 325 432 250 C432 175 380 120 308 120 L308 120 Z " />
<glyph glyph-name="divide" unicode="&#xf7;" horiz-adv-x="555" d="M284 411 C333 411 372 450 372 498 C372 547 333 587 284 587 C236 587 196 547 196 498 C196 450 236 411 284 411 L284 411 Z M35 356 L35 242 L520 242 L520 356 L35 356 Z M284 11 C333 11 372 49 372 98 C372 147 333 186 284 186 C236 186 196 147 196 98 C196 49 236 11 284 11 L284 11 Z " />
<glyph glyph-name="oslash" unicode="&#xf8;" horiz-adv-x="617" d="M594 551 L587 562 L449 562 L404 498 C375 507 343 512 309 512 C149 512 32 401 32 250 C32 177 60 113 106 66 L34 -38 L41 -49 L179 -49 L214 2 C244 -7 275 -12 309 -12 C469 -12 585 99 585 250 C585 323 558 386 512 433 L594 551 Z M185 250 C185 325 237 380 309 380 C314 380 318 380 323 379 L195 195 C189 212 185 230 185 250 L185 250 Z M433 250 C433 175 381 120 309 120 C305 120 300 120 296 121 L423 304 C429 288 433 269 433 250 L433 250 Z " />
<glyph glyph-name="ugrave" unicode="&#xf9;" horiz-adv-x="604" d="M399 568 L439 636 L439 644 L224 780 L216 780 L158 678 L158 670 L391 568 L399 568 Z M386 500 L386 215 C386 158 352 119 297 119 C245 119 212 158 212 212 L212 500 L57 500 L57 204 C57 72 142 -12 262 -12 C330 -12 379 16 411 57 L411 0 L540 0 L540 500 L386 500 Z " />
<glyph glyph-name="uacute" unicode="&#xfa;" horiz-adv-x="604" d="M199 568 L432 670 L432 678 L374 780 L366 780 L151 644 L151 636 L191 568 L199 568 Z M386 500 L386 215 C386 158 352 119 297 119 C245 119 212 158 212 212 L212 500 L57 500 L57 204 C57 72 142 -12 262 -12 C330 -12 379 16 411 57 L411 0 L540 0 L540 500 L386 500 Z " />
<glyph glyph-name="ucircumflex" unicode="&#xfb;" horiz-adv-x="604" d="M166 577 L300 643 L433 577 L441 577 L484 641 L484 650 L307 758 L291 758 L114 650 L114 641 L157 577 L166 577 Z M386 500 L386 215 C386 158 352 119 297 119 C245 119 212 158 212 212 L212 500 L57 500 L57 204 C57 72 142 -12 262 -12 C330 -12 379 16 411 57 L411 0 L540 0 L540 500 L386 500 Z " />
<glyph glyph-name="udieresis" unicode="&#xfc;" horiz-adv-x="604" d="M190 578 C238 578 277 616 277 664 C277 712 238 751 190 751 C142 751 103 712 103 664 C103 616 142 578 190 578 L190 578 Z M408 578 C456 578 494 616 494 664 C494 712 456 751 408 751 C360 751 321 712 321 664 C321 616 360 578 408 578 L408 578 Z M386 500 L386 215 C386 158 352 119 297 119 C245 119 212 158 212 212 L212 500 L57 500 L57 204 C57 72 142 -12 262 -12 C330 -12 379 16 411 57 L411 0 L540 0 L540 500 L386 500 Z " />
<glyph glyph-name="yacute" unicode="&#xfd;" horiz-adv-x="553" d="M186 568 L419 670 L419 678 L361 780 L353 780 L138 644 L138 636 L178 568 L186 568 Z M541 500 L407 500 L287 186 L166 500 L14 500 L7 489 L213 39 L192 -5 C176 -40 153 -45 133 -45 C114 -45 95 -40 83 -33 L72 -38 L44 -133 L49 -143 C73 -157 104 -165 141 -165 C210 -165 278 -138 323 -33 L549 489 L541 500 Z " />
<glyph glyph-name="thorn" unicode="&#xfe;" horiz-adv-x="636" d="M355 512 C291 512 236 489 193 452 L193 650 L63 650 L63 -154 L218 -154 L218 30 C256 4 303 -12 355 -12 C501 -12 605 103 605 250 C605 397 500 512 355 512 L355 512 Z M330 120 C262 120 209 168 209 250 C209 332 262 380 330 380 C404 380 453 324 453 250 C453 176 404 120 330 120 L330 120 Z " />
<glyph glyph-name="ydieresis" unicode="&#xff;" horiz-adv-x="553" d="M177 578 C225 578 264 616 264 664 C264 712 225 751 177 751 C129 751 90 712 90 664 C90 616 129 578 177 578 L177 578 Z M395 578 C443 578 481 616 481 664 C481 712 443 751 395 751 C347 751 308 712 308 664 C308 616 347 578 395 578 L395 578 Z M541 500 L407 500 L287 186 L166 500 L14 500 L7 489 L213 39 L192 -5 C176 -40 153 -45 133 -45 C114 -45 95 -40 83 -33 L72 -38 L44 -133 L49 -143 C73 -157 104 -165 141 -165 C210 -165 278 -138 323 -33 L549 489 L541 500 Z " />
<glyph glyph-name="Amacron" unicode="&#x100;" horiz-adv-x="700" d="M520 842 L179 842 L179 735 L520 735 L520 842 Z M398 650 L303 650 L3 12 L10 0 L162 0 L210 114 L485 114 L532 0 L690 0 L697 12 L398 650 Z M256 222 L350 443 L441 222 L256 222 Z " />
<glyph glyph-name="amacron" unicode="&#x101;" horiz-adv-x="561" d="M447 703 L117 703 L117 603 L447 603 L447 703 Z M268 512 C203 512 118 491 63 448 L63 436 L113 358 L124 358 C156 383 203 399 246 399 C311 399 361 366 361 316 L361 293 C323 307 282 317 239 317 C110 317 24 249 24 147 C24 52 103 -12 221 -12 C282 -12 337 10 379 47 L379 0 L504 0 L504 301 C504 455 394 512 268 512 L268 512 Z M257 86 C205 86 170 113 170 154 C170 196 206 225 262 225 C303 225 342 210 364 200 L364 173 C364 127 317 86 257 86 L257 86 Z " />
<glyph glyph-name="Abreve" unicode="&#x102;" horiz-adv-x="700" d="M351 718 C447 718 514 788 525 884 L422 884 C416 838 390 811 351 811 C312 811 286 838 280 884 L177 884 C188 788 255 718 351 718 L351 718 Z M398 650 L303 650 L3 12 L10 0 L162 0 L210 114 L485 114 L532 0 L690 0 L697 12 L398 650 Z M256 222 L350 443 L441 222 L256 222 Z " />
<glyph glyph-name="abreve" unicode="&#x103;" horiz-adv-x="561" d="M282 582 C379 582 450 652 461 748 L358 748 C351 704 321 675 282 675 C244 675 214 704 207 748 L104 748 C115 652 185 582 282 582 L282 582 Z M268 512 C203 512 118 491 63 448 L63 436 L113 358 L124 358 C156 383 203 399 246 399 C311 399 361 366 361 316 L361 293 C323 307 282 317 239 317 C110 317 24 249 24 147 C24 52 103 -12 221 -12 C282 -12 337 10 379 47 L379 0 L504 0 L504 301 C504 455 394 512 268 512 L268 512 Z M257 86 C205 86 170 113 170 154 C170 196 206 225 262 225 C303 225 342 210 364 200 L364 173 C364 127 317 86 257 86 L257 86 Z " />
<glyph glyph-name="Aogonek" unicode="&#x104;" horiz-adv-x="700" d="M751 -141 L740 -139 C727 -146 716 -149 701 -149 C666 -149 641 -125 641 -89 C641 -47 673 -16 690 0 L697 12 L398 650 L303 650 L3 12 L10 0 L162 0 L210 114 L485 114 L532 0 L589 0 C567 -21 536 -56 536 -112 C536 -187 598 -237 682 -237 C713 -237 744 -230 775 -212 L776 -201 L751 -141 Z M256 222 L350 443 L441 222 L256 222 Z " />
<glyph glyph-name="aogonek" unicode="&#x105;" horiz-adv-x="561" d="M565 -141 L554 -139 C541 -146 530 -149 515 -149 C480 -149 455 -125 455 -89 C455 -47 487 -16 504 0 L504 301 C504 455 394 512 268 512 C203 512 118 491 63 448 L63 436 L113 358 L124 358 C156 383 203 399 246 399 C311 399 361 366 361 316 L361 293 C323 307 282 317 239 317 C110 317 24 249 24 147 C24 52 103 -12 221 -12 C282 -12 337 10 379 47 L379 0 L403 0 C381 -21 350 -56 350 -112 C350 -187 412 -237 496 -237 C527 -237 558 -230 589 -212 L590 -201 L565 -141 Z M257 86 C205 86 170 113 170 154 C170 196 206 225 262 225 C303 225 342 210 364 200 L364 173 C364 127 317 86 257 86 L257 86 Z " />
<glyph glyph-name="Cacute" unicode="&#x106;" horiz-adv-x="682" d="M477 929 L258 789 L258 778 L295 716 L306 716 L546 820 L546 831 L488 929 L477 929 Z M387 -12 C505 -12 600 40 661 115 L661 126 L565 206 L554 206 C516 160 456 129 389 129 C280 129 195 211 195 325 C195 439 280 521 389 521 C456 521 516 490 554 444 L565 444 L661 524 L661 535 C599 612 501 662 389 662 C189 662 36 518 36 325 C36 132 190 -12 387 -12 L387 -12 Z " />
<glyph glyph-name="cacute" unicode="&#x107;" horiz-adv-x="529" d="M354 780 L139 644 L139 636 L179 568 L187 568 L420 670 L420 678 L362 780 L354 780 Z M303 -12 C395 -12 465 26 510 76 L510 87 L424 166 L412 166 C387 135 350 120 310 120 C234 120 184 175 184 250 C184 325 235 380 309 380 C351 380 387 363 412 334 L424 334 L510 413 L510 424 C465 474 395 512 303 512 C147 512 31 401 31 250 C31 99 147 -12 303 -12 L303 -12 Z " />
<glyph glyph-name="Cdotaccent" unicode="&#x10a;" horiz-adv-x="682" d="M389 723 C440 723 485 766 485 817 C485 869 441 913 389 913 C339 913 295 869 295 817 C295 767 339 723 389 723 L389 723 Z M387 -12 C505 -12 600 40 661 115 L661 126 L565 206 L554 206 C516 160 456 129 389 129 C280 129 195 211 195 325 C195 439 280 521 389 521 C456 521 516 490 554 444 L565 444 L661 524 L661 535 C599 612 501 662 389 662 C189 662 36 518 36 325 C36 132 190 -12 387 -12 L387 -12 Z " />
<glyph glyph-name="cdotaccent" unicode="&#x10b;" horiz-adv-x="529" d="M286 579 C339 579 382 622 382 674 C382 727 339 770 286 770 C233 770 191 727 191 674 C191 622 233 579 286 579 L286 579 Z M303 -12 C395 -12 465 26 510 76 L510 87 L424 166 L412 166 C387 135 350 120 310 120 C234 120 184 175 184 250 C184 325 235 380 309 380 C351 380 387 363 412 334 L424 334 L510 413 L510 424 C465 474 395 512 303 512 C147 512 31 401 31 250 C31 99 147 -12 303 -12 L303 -12 Z " />
<glyph glyph-name="Ccaron" unicode="&#x10c;" horiz-adv-x="682" d="M396 729 L581 836 L581 847 L544 909 L533 909 L390 841 L247 909 L236 909 L198 847 L198 836 L383 729 L396 729 Z M389 521 C456 521 516 490 554 444 L565 444 L661 524 L661 535 C599 612 501 662 389 662 C189 662 36 518 36 325 C36 132 190 -12 387 -12 C505 -12 600 40 661 115 L661 126 L565 206 L554 206 C516 160 456 129 389 129 C280 129 195 211 195 325 C195 439 280 521 389 521 L389 521 Z " />
<glyph glyph-name="ccaron" unicode="&#x10d;" horiz-adv-x="529" d="M294 568 L471 676 L471 685 L428 750 L420 750 L287 683 L153 750 L144 750 L101 685 L101 676 L278 568 L294 568 Z M309 380 C351 380 387 363 412 334 L424 334 L510 413 L510 424 C465 474 395 512 303 512 C147 512 31 401 31 250 C31 99 147 -12 303 -12 C395 -12 465 26 510 76 L510 87 L424 166 L412 166 C387 135 350 120 310 120 C234 120 184 175 184 250 C184 325 235 380 309 380 L309 380 Z " />
<glyph glyph-name="Dcaron" unicode="&#x10e;" horiz-adv-x="738" d="M330 729 L515 836 L515 847 L478 909 L467 909 L324 841 L181 909 L170 909 L132 847 L132 836 L317 729 L330 729 Z M359 650 L75 650 L75 0 L359 0 C569 0 701 130 701 326 C701 520 569 650 359 650 L359 650 Z M354 128 L231 128 L231 522 L354 522 C466 522 542 448 542 325 C542 202 466 128 354 128 L354 128 Z " />
<glyph glyph-name="dcaron" unicode="&#x10f;" horiz-adv-x="703" d="M786 709 L670 709 L661 701 L631 501 L639 493 L714 493 L724 501 L793 701 L786 709 Z M419 666 L419 470 C380 496 334 512 282 512 C136 512 31 397 31 250 C31 103 136 -12 282 -12 C349 -12 403 15 443 56 L443 0 L573 0 L573 675 L561 682 L419 666 Z M306 120 C233 120 184 177 184 250 C184 323 233 380 306 380 C374 380 427 331 427 250 C427 169 374 120 306 120 L306 120 Z " />
<glyph glyph-name="Dcroat" unicode="&#x110;" horiz-adv-x="754" d="M374 650 L90 650 L90 382 L22 382 L22 268 L90 268 L90 0 L374 0 C584 0 716 130 716 326 C716 520 584 650 374 650 L374 650 Z M369 128 L246 128 L246 268 L401 268 L401 382 L246 382 L246 522 L369 522 C481 522 557 448 557 325 C557 202 481 128 369 128 L369 128 Z " />
<glyph glyph-name="dcroat" unicode="&#x111;" horiz-adv-x="637" d="M644 628 L573 628 L573 694 L562 701 L419 687 L419 628 L293 628 L293 547 L419 547 L419 471 C380 496 334 512 282 512 C136 512 32 397 32 250 C32 103 137 -12 282 -12 C350 -12 404 15 443 56 L443 0 L573 0 L573 547 L644 547 L644 628 Z M306 120 C233 120 184 176 184 250 C184 324 233 380 306 380 C375 380 428 331 428 250 C428 168 375 120 306 120 L306 120 Z " />
<glyph glyph-name="Emacron" unicode="&#x112;" horiz-adv-x="593" d="M142 842 L142 735 L483 735 L483 842 L142 842 Z M549 522 L549 650 L75 650 L75 0 L551 0 L551 128 L231 128 L231 265 L477 265 L477 387 L231 387 L231 522 L549 522 Z " />
<glyph glyph-name="emacron" unicode="&#x113;" horiz-adv-x="586" d="M460 703 L130 703 L130 603 L460 603 L460 703 Z M553 216 C555 228 556 241 556 256 C556 332 529 396 483 442 C437 486 373 512 299 512 C142 512 32 401 32 249 C32 93 151 -12 308 -12 C385 -12 477 13 533 79 L533 91 L464 157 L453 157 C419 121 366 102 315 102 C246 102 189 140 182 216 L553 216 Z M295 403 C327 403 355 392 375 371 C391 355 402 331 406 304 L183 304 C191 364 233 403 295 403 L295 403 Z " />
<glyph glyph-name="Edotaccent" unicode="&#x116;" horiz-adv-x="593" d="M311 723 C362 723 407 766 407 817 C407 869 363 913 311 913 C261 913 217 869 217 817 C217 767 261 723 311 723 L311 723 Z M549 522 L549 650 L75 650 L75 0 L551 0 L551 128 L231 128 L231 265 L477 265 L477 387 L231 387 L231 522 L549 522 Z " />
<glyph glyph-name="edotaccent" unicode="&#x117;" horiz-adv-x="586" d="M295 579 C348 579 391 622 391 674 C391 727 348 770 295 770 C242 770 200 727 200 674 C200 622 242 579 295 579 L295 579 Z M553 216 C555 228 556 241 556 256 C556 332 529 396 483 442 C437 486 373 512 299 512 C142 512 32 401 32 249 C32 93 151 -12 308 -12 C385 -12 477 13 533 79 L533 91 L464 157 L453 157 C419 121 366 102 315 102 C246 102 189 140 182 216 L553 216 Z M295 403 C327 403 355 392 375 371 C391 355 402 331 406 304 L183 304 C191 364 233 403 295 403 L295 403 Z " />
<glyph glyph-name="Eogonek" unicode="&#x118;" horiz-adv-x="593" d="M611 -141 L600 -139 C587 -146 576 -149 561 -149 C526 -149 501 -125 501 -89 C501 -47 533 -16 550 0 L551 0 L551 128 L231 128 L231 265 L477 265 L477 387 L231 387 L231 522 L549 522 L549 650 L75 650 L75 0 L449 0 C427 -21 396 -56 396 -112 C396 -187 458 -237 542 -237 C573 -237 604 -230 635 -212 L636 -201 L611 -141 Z " />
<glyph glyph-name="eogonek" unicode="&#x119;" horiz-adv-x="586" d="M554 216 C556 228 557 241 557 256 C557 332 530 396 484 442 C438 486 374 512 300 512 C143 512 33 401 33 249 C33 94 150 -10 305 -12 C287 -33 270 -63 270 -105 C270 -180 332 -230 416 -230 C447 -230 478 -223 509 -205 L510 -194 L485 -134 L474 -132 C461 -139 450 -142 435 -142 C400 -142 375 -118 375 -82 C375 -40 407 -9 424 7 C465 21 505 44 534 79 L534 91 L465 157 L454 157 C420 121 367 102 316 102 C247 102 190 140 183 216 L554 216 Z M296 403 C328 403 356 392 376 371 C392 355 403 331 407 304 L184 304 C192 364 234 403 296 403 L296 403 Z " />
<glyph glyph-name="Ecaron" unicode="&#x11a;" horiz-adv-x="593" d="M319 729 L504 836 L504 847 L467 909 L456 909 L313 841 L170 909 L159 909 L121 847 L121 836 L306 729 L319 729 Z M231 128 L231 265 L477 265 L477 387 L231 387 L231 522 L549 522 L549 650 L75 650 L75 0 L551 0 L551 128 L231 128 Z " />
<glyph glyph-name="ecaron" unicode="&#x11b;" horiz-adv-x="586" d="M303 568 L480 676 L480 685 L437 750 L429 750 L296 683 L162 750 L153 750 L110 685 L110 676 L287 568 L303 568 Z M553 216 C555 228 556 241 556 256 C556 332 529 396 483 442 C437 486 373 512 299 512 C142 512 32 401 32 249 C32 93 151 -12 308 -12 C385 -12 477 13 533 79 L533 91 L464 157 L453 157 C419 121 366 102 315 102 C246 102 189 140 182 216 L553 216 Z M295 403 C327 403 355 392 375 371 C391 355 402 331 406 304 L183 304 C191 364 233 403 295 403 L295 403 Z " />
<glyph glyph-name="Gbreve" unicode="&#x11e;" horiz-adv-x="748" d="M385 719 C481 719 548 789 559 885 L456 885 C450 839 424 812 385 812 C346 812 320 839 314 885 L211 885 C222 789 289 719 385 719 L385 719 Z M716 365 L704 375 L384 375 L384 260 L558 260 C552 226 535 197 510 174 C478 145 434 129 386 129 C276 129 195 210 195 324 C195 440 280 521 383 521 C449 521 505 490 542 444 L554 444 L650 525 L650 537 C589 612 490 662 379 662 C187 662 36 519 36 325 C36 131 183 -12 378 -12 C476 -12 561 25 621 84 C682 143 718 225 718 317 C718 331 718 350 716 365 L716 365 Z " />
<glyph glyph-name="gbreve" unicode="&#x11f;" horiz-adv-x="615" d="M298 582 C395 582 466 652 477 748 L374 748 C367 704 337 675 298 675 C260 675 230 704 223 748 L120 748 C131 652 201 582 298 582 L298 582 Z M428 500 L428 454 C387 489 333 512 270 512 C134 512 32 412 32 277 C32 143 134 43 270 43 C324 43 373 60 411 88 L411 57 C411 -19 349 -52 279 -52 C213 -52 152 -21 117 20 L106 20 L42 -59 L42 -70 C92 -127 173 -165 278 -165 C431 -165 553 -85 553 84 L553 500 L428 500 Z M303 157 C233 157 184 207 184 277 C184 347 233 398 302 398 C372 398 421 347 421 277 C421 207 373 157 303 157 L303 157 Z " />
<glyph glyph-name="Gdotaccent" unicode="&#x120;" horiz-adv-x="748" d="M383 724 C434 724 479 767 479 818 C479 870 435 914 383 914 C333 914 289 870 289 818 C289 768 333 724 383 724 L383 724 Z M716 365 L704 375 L384 375 L384 260 L558 260 C552 226 535 197 510 174 C478 145 434 129 386 129 C276 129 195 210 195 324 C195 440 280 521 383 521 C449 521 505 490 542 444 L554 444 L650 525 L650 537 C589 612 490 662 379 662 C187 662 36 519 36 325 C36 131 183 -12 378 -12 C476 -12 561 25 621 84 C682 143 718 225 718 317 C718 331 718 350 716 365 L716 365 Z " />
<glyph glyph-name="gdotaccent" unicode="&#x121;" horiz-adv-x="615" d="M298 579 C351 579 394 622 394 674 C394 727 351 770 298 770 C245 770 203 727 203 674 C203 622 245 579 298 579 L298 579 Z M428 500 L428 454 C387 489 333 512 270 512 C134 512 32 412 32 277 C32 143 134 43 270 43 C324 43 373 60 411 88 L411 57 C411 -19 349 -52 279 -52 C213 -52 152 -21 117 20 L106 20 L42 -59 L42 -70 C92 -127 173 -165 278 -165 C431 -165 553 -85 553 84 L553 500 L428 500 Z M303 157 C233 157 184 207 184 277 C184 347 233 398 302 398 C372 398 421 347 421 277 C421 207 373 157 303 157 L303 157 Z " />
<glyph glyph-name="Gcommaaccent" unicode="&#x122;" horiz-adv-x="748" d="M716 365 L704 375 L384 375 L384 260 L558 260 C552 226 535 197 510 174 C478 145 434 129 386 129 C276 129 195 210 195 324 C195 440 280 521 383 521 C449 521 505 490 542 444 L554 444 L650 525 L650 537 C589 612 490 662 379 662 C187 662 36 519 36 325 C36 131 183 -12 378 -12 C476 -12 561 25 621 84 C682 143 718 225 718 317 C718 331 718 350 716 365 L716 365 Z M311 -64 L285 -253 L292 -262 L371 -262 L381 -253 L442 -64 L435 -56 L321 -56 L311 -64 Z " />
<glyph glyph-name="gcommaaccent" unicode="&#x123;" horiz-adv-x="615" d="M356 568 L366 576 L392 765 L385 774 L306 774 L296 765 L235 576 L242 568 L356 568 Z M428 500 L428 454 C387 489 333 512 270 512 C134 512 32 412 32 277 C32 143 134 43 270 43 C324 43 373 60 411 88 L411 57 C411 -19 349 -52 279 -52 C213 -52 152 -21 117 20 L106 20 L42 -59 L42 -70 C92 -127 173 -165 278 -165 C431 -165 553 -85 553 84 L553 500 L428 500 Z M303 157 C233 157 184 207 184 277 C184 347 233 398 302 398 C372 398 421 347 421 277 C421 207 373 157 303 157 L303 157 Z " />
<glyph glyph-name="Hbar" unicode="&#x126;" horiz-adv-x="746" d="M719 565 L665 565 L665 650 L509 650 L509 565 L238 565 L238 650 L82 650 L82 565 L27 565 L27 471 L82 471 L82 0 L238 0 L238 261 L509 261 L509 0 L665 0 L665 471 L719 471 L719 565 Z M509 389 L238 389 L238 471 L509 471 L509 389 Z " />
<glyph glyph-name="hbar" unicode="&#x127;" horiz-adv-x="613" d="M349 512 C293 512 249 493 216 463 L216 545 L346 545 L346 625 L216 625 L216 694 L205 701 L63 687 L63 625 L-12 625 L-12 545 L63 545 L63 0 L216 0 L216 287 C216 344 253 381 310 381 C367 381 402 344 402 287 L402 0 L556 0 L556 296 C556 427 472 512 349 512 L349 512 Z " />
<glyph glyph-name="Itilde" unicode="&#x128;" horiz-adv-x="306" d="M241 735 C280 735 307 749 327 781 L327 882 L319 888 L312 888 C301 864 275 849 242 849 C193 849 123 889 62 889 C24 889 -3 875 -24 843 L-24 741 L-15 735 L-9 735 C2 760 29 775 60 775 C111 775 180 735 241 735 L241 735 Z M75 650 L75 0 L231 0 L231 650 L75 650 Z " />
<glyph glyph-name="itilde" unicode="&#x129;" horiz-adv-x="282" d="M214 593 C255 593 284 608 305 636 L305 727 L296 733 L290 733 C278 711 252 696 215 696 C171 696 122 734 67 734 C27 734 -4 719 -24 690 L-24 599 L-16 593 L-10 593 C2 615 29 630 63 630 C107 630 159 593 214 593 L214 593 Z M64 0 L218 0 L218 500 L64 500 L64 0 Z " />
<glyph glyph-name="Imacron" unicode="&#x12a;" horiz-adv-x="306" d="M0 842 L0 735 L307 735 L307 842 L0 842 Z M75 650 L75 0 L231 0 L231 650 L75 650 Z " />
<glyph glyph-name="imacron" unicode="&#x12b;" horiz-adv-x="282" d="M-19 703 L-19 603 L301 603 L301 703 L-19 703 Z M64 0 L218 0 L218 500 L64 500 L64 0 Z " />
<glyph glyph-name="Iogonek" unicode="&#x12e;" horiz-adv-x="306" d="M292 -141 L281 -139 C268 -146 257 -149 242 -149 C207 -149 182 -125 182 -89 C182 -47 214 -16 231 0 L231 650 L75 650 L75 0 L130 0 C108 -21 77 -56 77 -112 C77 -187 139 -237 223 -237 C254 -237 285 -230 316 -212 L317 -201 L292 -141 Z " />
<glyph glyph-name="iogonek" unicode="&#x12f;" horiz-adv-x="282" d="M141 579 C194 579 237 622 237 674 C237 727 194 770 141 770 C88 770 46 727 46 674 C46 622 88 579 141 579 L141 579 Z M279 -141 L268 -139 C255 -146 244 -149 229 -149 C194 -149 169 -125 169 -89 C169 -47 201 -16 218 0 L218 500 L64 500 L64 0 L117 0 C95 -21 64 -56 64 -112 C64 -187 126 -237 210 -237 C241 -237 272 -230 303 -212 L304 -201 L279 -141 Z " />
<glyph glyph-name="Idotaccent" unicode="&#x130;" horiz-adv-x="306" d="M152 723 C203 723 248 766 248 817 C248 869 204 913 152 913 C102 913 58 869 58 817 C58 767 102 723 152 723 L152 723 Z M75 650 L75 0 L231 0 L231 650 L75 650 Z " />
<glyph glyph-name="dotlessi" unicode="&#x131;" horiz-adv-x="282" d="M64 0 L218 0 L218 500 L64 500 L64 0 Z " />
<glyph glyph-name="IJ" unicode="&#x132;" horiz-adv-x="787" d="M75 650 L75 0 L231 0 L231 650 L75 650 Z M564 650 L564 237 C564 166 526 128 468 128 C416 128 382 161 363 187 L352 187 L264 100 L264 89 C308 28 395 -12 479 -12 C635 -12 720 72 720 263 L720 650 L564 650 Z " />
<glyph glyph-name="ij" unicode="&#x133;" horiz-adv-x="567" d="M141 579 C194 579 237 622 237 674 C237 727 194 770 141 770 C88 770 46 727 46 674 C46 622 88 579 141 579 L141 579 Z M428 579 C480 579 523 622 523 674 C523 727 480 770 428 770 C375 770 332 727 332 674 C332 622 375 579 428 579 L428 579 Z M64 0 L218 0 L218 500 L64 500 L64 0 Z M332 -173 L343 -173 C481 -111 505 -54 505 102 L505 500 L351 500 L351 116 C351 11 343 -13 273 -51 L273 -62 L332 -173 Z " />
<glyph glyph-name="Kcommaaccent" unicode="&#x136;" horiz-adv-x="650" d="M393 356 L640 638 L633 650 L463 650 L231 385 L231 650 L75 650 L75 0 L231 0 L231 209 L279 264 L479 0 L645 0 L652 12 L393 356 Z M304 -56 L294 -64 L268 -253 L275 -262 L354 -262 L364 -253 L425 -64 L418 -56 L304 -56 Z " />
<glyph glyph-name="kcommaaccent" unicode="&#x137;" horiz-adv-x="570" d="M373 273 L563 489 L556 500 L395 500 L218 289 L218 675 L206 682 L63 666 L63 0 L218 0 L218 152 L257 196 L395 0 L563 0 L570 11 L373 273 Z M252 -56 L242 -64 L216 -253 L223 -262 L302 -262 L312 -253 L373 -64 L366 -56 L252 -56 Z " />
<glyph glyph-name="kgreenlandic" unicode="&#x138;" horiz-adv-x="570" d="M373 273 L563 489 L556 500 L395 500 L218 289 L218 500 L63 500 L63 0 L218 0 L218 152 L257 196 L395 0 L563 0 L570 11 L373 273 Z " />
<glyph glyph-name="Lacute" unicode="&#x139;" horiz-adv-x="516" d="M226 929 L7 789 L7 778 L44 716 L55 716 L295 820 L295 831 L237 929 L226 929 Z M504 128 L231 128 L231 650 L75 650 L75 0 L504 0 L504 128 Z " />
<glyph glyph-name="lacute" unicode="&#x13a;" horiz-adv-x="282" d="M212 928 L-7 788 L-7 777 L30 715 L41 715 L281 819 L281 830 L223 928 L212 928 Z M64 0 L218 0 L218 675 L207 682 L64 666 L64 0 Z " />
<glyph glyph-name="Lcommaaccent" unicode="&#x13b;" horiz-adv-x="516" d="M504 128 L231 128 L231 650 L75 650 L75 0 L504 0 L504 128 Z M222 -64 L196 -253 L203 -262 L282 -262 L292 -253 L353 -64 L346 -56 L232 -56 L222 -64 Z " />
<glyph glyph-name="lcommaaccent" unicode="&#x13c;" horiz-adv-x="282" d="M64 0 L218 0 L218 675 L207 682 L64 666 L64 0 Z M76 -64 L50 -253 L57 -262 L136 -262 L146 -253 L207 -64 L200 -56 L86 -56 L76 -64 Z " />
<glyph glyph-name="Lcaron" unicode="&#x13d;" horiz-adv-x="519" d="M322 701 L292 502 L299 493 L375 493 L385 502 L454 701 L447 710 L331 710 L322 701 Z M504 128 L231 128 L231 650 L75 650 L75 0 L504 0 L504 128 Z " />
<glyph glyph-name="lcaron" unicode="&#x13e;" horiz-adv-x="346" d="M304 701 L275 501 L282 493 L357 493 L367 501 L436 701 L429 709 L314 709 L304 701 Z M64 0 L218 0 L218 675 L207 682 L64 666 L64 0 Z " />
<glyph glyph-name="Ldot" unicode="&#x13f;" horiz-adv-x="532" d="M504 128 L231 128 L231 650 L75 650 L75 0 L504 0 L504 128 Z M409 279 C455 279 493 316 493 362 C493 408 455 446 409 446 C363 446 326 408 326 362 C326 316 363 279 409 279 L409 279 Z " />
<glyph glyph-name="ldot" unicode="&#x140;" horiz-adv-x="393" d="M64 0 L218 0 L218 675 L207 682 L64 666 L64 0 Z M338 264 C386 264 424 303 424 351 C424 399 386 437 338 437 C290 437 251 399 251 351 C251 303 290 264 338 264 L338 264 Z " />
<glyph glyph-name="Lslash" unicode="&#x141;" horiz-adv-x="569" d="M283 128 L283 281 L417 342 L417 466 L405 473 L283 417 L283 650 L127 650 L127 345 L33 302 L33 178 L44 171 L127 209 L127 0 L556 0 L556 128 L283 128 Z " />
<glyph glyph-name="lslash" unicode="&#x142;" horiz-adv-x="379" d="M352 477 L340 485 L266 446 L266 675 L255 682 L112 666 L112 365 L27 320 L27 217 L38 210 L112 249 L112 0 L266 0 L266 329 L352 374 L352 477 Z " />
<glyph glyph-name="Nacute" unicode="&#x143;" horiz-adv-x="732" d="M279 716 L519 820 L519 831 L461 929 L450 929 L231 789 L231 778 L268 716 L279 716 Z M501 650 L501 263 L172 650 L75 650 L75 0 L230 0 L230 384 L560 -3 L657 -3 L657 650 L501 650 Z " />
<glyph glyph-name="nacute" unicode="&#x144;" horiz-adv-x="615" d="M228 568 L461 670 L461 678 L403 780 L395 780 L180 644 L180 636 L220 568 L228 568 Z M350 512 C280 512 228 481 193 437 L193 500 L63 500 L63 0 L218 0 L218 285 C218 343 256 381 311 381 C370 381 403 341 403 285 L403 0 L558 0 L558 296 C558 423 475 512 350 512 L350 512 Z " />
<glyph glyph-name="Ncommaaccent" unicode="&#x145;" horiz-adv-x="732" d="M501 650 L501 263 L172 650 L75 650 L75 0 L230 0 L230 384 L560 -3 L657 -3 L657 650 L501 650 Z M304 -56 L294 -64 L268 -253 L275 -262 L354 -262 L364 -253 L425 -64 L418 -56 L304 -56 Z " />
<glyph glyph-name="ncommaaccent" unicode="&#x146;" horiz-adv-x="615" d="M350 512 C280 512 228 481 193 437 L193 500 L63 500 L63 0 L218 0 L218 285 C218 343 256 381 311 381 C370 381 403 341 403 285 L403 0 L558 0 L558 296 C558 423 475 512 350 512 L350 512 Z M251 -56 L241 -64 L215 -253 L222 -262 L301 -262 L311 -253 L372 -64 L365 -56 L251 -56 Z " />
<glyph glyph-name="Ncaron" unicode="&#x147;" horiz-adv-x="732" d="M369 729 L554 836 L554 847 L517 909 L506 909 L363 841 L220 909 L209 909 L171 847 L171 836 L356 729 L369 729 Z M501 650 L501 263 L172 650 L75 650 L75 0 L230 0 L230 384 L560 -3 L657 -3 L657 650 L501 650 Z " />
<glyph glyph-name="ncaron" unicode="&#x148;" horiz-adv-x="615" d="M336 568 L513 676 L513 685 L470 750 L462 750 L329 683 L195 750 L186 750 L143 685 L143 676 L320 568 L336 568 Z M350 512 C280 512 228 481 193 437 L193 500 L63 500 L63 0 L218 0 L218 285 C218 343 256 381 311 381 C370 381 403 341 403 285 L403 0 L558 0 L558 296 C558 423 475 512 350 512 L350 512 Z " />
<glyph glyph-name="napostrophe" unicode="&#x149;" horiz-adv-x="622" d="M126 576 L190 766 L183 774 L68 774 L58 766 L31 576 L38 568 L116 568 L126 576 Z M357 512 C286 512 234 481 199 436 L199 500 L70 500 L70 0 L225 0 L225 285 C225 343 263 381 318 381 C377 381 410 341 410 285 L410 0 L565 0 L565 296 C565 423 481 512 357 512 L357 512 Z " />
<glyph glyph-name="Eng" unicode="&#x14a;" horiz-adv-x="732" d="M501 650 L501 251 L172 650 L75 650 L75 0 L230 0 L230 386 L517 47 L517 -19 C517 -71 484 -112 430 -112 C395 -112 362 -94 345 -66 L333 -66 L247 -148 L247 -160 C289 -219 373 -240 432 -240 C556 -240 657 -153 657 -22 L657 650 L501 650 Z " />
<glyph glyph-name="eng" unicode="&#x14b;" horiz-adv-x="614" d="M350 512 C280 512 228 481 193 437 L193 500 L63 500 L63 0 L218 0 L218 285 C218 343 256 381 311 381 C370 381 403 341 403 285 L403 123 C403 18 396 -10 326 -48 L326 -59 L371 -163 L382 -163 C511 -110 558 -35 558 121 L558 296 C558 427 473 512 350 512 L350 512 Z " />
<glyph glyph-name="Omacron" unicode="&#x14c;" horiz-adv-x="783" d="M221 842 L221 735 L562 735 L562 842 L221 842 Z M392 -12 C594 -12 748 133 748 325 C748 518 594 662 392 662 C189 662 35 518 35 325 C35 132 189 -12 392 -12 L392 -12 Z M392 129 C282 129 195 211 195 325 C195 440 282 521 392 521 C502 521 589 440 589 325 C589 211 502 129 392 129 L392 129 Z " />
<glyph glyph-name="omacron" unicode="&#x14d;" horiz-adv-x="615" d="M143 703 L143 603 L473 603 L473 703 L143 703 Z M308 -12 C468 -12 584 99 584 250 C584 401 468 512 308 512 C148 512 31 401 31 250 C31 99 148 -12 308 -12 L308 -12 Z M308 120 C235 120 184 175 184 250 C184 325 236 380 308 380 C380 380 432 325 432 250 C432 175 380 120 308 120 L308 120 Z " />
<glyph glyph-name="Ohungarumlaut" unicode="&#x150;" horiz-adv-x="783" d="M325 891 L227 726 L233 716 L324 716 L456 882 L449 891 L325 891 Z M515 891 L417 726 L423 716 L514 716 L646 882 L639 891 L515 891 Z M392 -12 C594 -12 748 133 748 325 C748 518 594 662 392 662 C189 662 35 518 35 325 C35 132 189 -12 392 -12 L392 -12 Z M392 129 C282 129 195 211 195 325 C195 440 282 521 392 521 C502 521 589 440 589 325 C589 211 502 129 392 129 L392 129 Z " />
<glyph glyph-name="ohungarumlaut" unicode="&#x151;" horiz-adv-x="615" d="M235 758 L169 576 L176 568 L247 568 L257 576 L360 758 L353 766 L245 766 L235 758 Z M410 758 L344 576 L352 568 L422 568 L433 576 L536 758 L528 766 L421 766 L410 758 Z M308 -12 C468 -12 584 99 584 250 C584 401 468 512 308 512 C148 512 31 401 31 250 C31 99 148 -12 308 -12 L308 -12 Z M308 120 C235 120 184 175 184 250 C184 325 236 380 308 380 C380 380 432 325 432 250 C432 175 380 120 308 120 L308 120 Z " />
<glyph glyph-name="OE" unicode="&#x152;" horiz-adv-x="1107" d="M745 128 L745 265 L991 265 L991 387 L745 387 L745 522 L1063 522 L1063 650 L589 650 L589 589 C535 633 466 662 385 662 C189 662 35 518 35 325 C35 132 189 -12 385 -12 C466 -12 535 16 589 59 L589 0 L1065 0 L1065 128 L745 128 Z M392 129 C282 129 195 211 195 325 C195 440 282 521 392 521 C502 521 589 440 589 325 C589 211 502 129 392 129 L392 129 Z " />
<glyph glyph-name="oe" unicode="&#x153;" horiz-adv-x="986" d="M957 256 C957 322 936 380 901 424 C855 479 784 512 699 512 C650 512 606 500 568 480 C545 469 525 454 507 437 C458 484 389 512 308 512 C148 512 31 401 31 250 C31 99 148 -12 308 -12 C389 -12 458 16 507 64 C557 16 627 -12 708 -12 C786 -12 878 13 934 79 L934 91 L865 157 L853 157 C820 121 767 102 716 102 C647 102 590 140 582 216 L954 216 C956 228 957 241 957 256 L957 256 Z M582 296 C585 332 600 361 623 380 C642 395 667 403 695 403 C732 403 761 390 781 367 C797 349 807 325 809 296 L582 296 Z M308 120 C235 120 184 175 184 250 C184 325 236 380 308 380 C380 380 432 325 432 250 C432 175 380 120 308 120 L308 120 Z " />
<glyph glyph-name="Racute" unicode="&#x154;" horiz-adv-x="650" d="M229 716 L469 820 L469 831 L411 929 L400 929 L181 789 L181 778 L218 716 L229 716 Z M478 264 C556 294 606 355 606 443 C606 571 519 650 355 650 L75 650 L75 0 L231 0 L231 244 L322 244 L453 0 L608 0 L615 12 L478 264 Z M231 522 L356 522 C409 522 447 488 447 435 C447 383 409 351 356 351 L231 351 L231 522 Z " />
<glyph glyph-name="racute" unicode="&#x155;" horiz-adv-x="419" d="M141 568 L374 670 L374 678 L316 780 L308 780 L93 644 L93 636 L133 568 L141 568 Z M415 495 C389 506 362 512 331 512 C273 512 226 483 193 435 L193 500 L63 500 L63 0 L218 0 L218 268 C218 334 258 380 319 380 C341 380 360 378 379 368 L390 375 L422 483 L415 495 Z " />
<glyph glyph-name="Rcommaaccent" unicode="&#x156;" horiz-adv-x="650" d="M478 264 C556 294 606 355 606 443 C606 571 519 650 355 650 L75 650 L75 0 L231 0 L231 244 L322 244 L453 0 L608 0 L615 12 L478 264 Z M231 522 L356 522 C409 522 447 488 447 435 C447 383 409 351 356 351 L231 351 L231 522 Z M279 -56 L269 -64 L243 -253 L250 -262 L329 -262 L339 -253 L400 -64 L393 -56 L279 -56 Z " />
<glyph glyph-name="rcommaaccent" unicode="&#x157;" horiz-adv-x="419" d="M415 495 C389 506 362 512 331 512 C273 512 226 483 193 435 L193 500 L63 500 L63 0 L218 0 L218 268 C218 334 258 380 319 380 C341 380 360 378 379 368 L390 375 L422 483 L415 495 Z M83 -56 L73 -64 L47 -253 L54 -262 L133 -262 L143 -253 L204 -64 L197 -56 L83 -56 Z " />
<glyph glyph-name="Rcaron" unicode="&#x158;" horiz-adv-x="650" d="M319 729 L504 836 L504 847 L467 909 L456 909 L313 841 L170 909 L159 909 L121 847 L121 836 L306 729 L319 729 Z M478 264 C556 294 606 355 606 443 C606 571 519 650 355 650 L75 650 L75 0 L231 0 L231 244 L322 244 L453 0 L608 0 L615 12 L478 264 Z M231 522 L356 522 C409 522 447 488 447 435 C447 383 409 351 356 351 L231 351 L231 522 Z " />
<glyph glyph-name="rcaron" unicode="&#x159;" horiz-adv-x="419" d="M383 750 L375 750 L242 683 L108 750 L99 750 L56 685 L56 676 L233 568 L249 568 L426 676 L426 685 L383 750 Z M331 512 C273 512 226 483 193 435 L193 500 L63 500 L63 0 L218 0 L218 268 C218 334 258 380 319 380 C341 380 360 378 379 368 L390 375 L422 483 L415 495 C389 506 362 512 331 512 L331 512 Z " />
<glyph glyph-name="Sacute" unicode="&#x15a;" horiz-adv-x="595" d="M390 929 L171 789 L171 778 L208 716 L219 716 L459 820 L459 831 L401 929 L390 929 Z M303 -12 C443 -12 558 58 558 185 C558 331 429 365 318 400 C265 418 216 435 216 478 C216 514 252 536 304 536 C372 536 426 498 458 465 L469 465 L546 553 L546 564 C499 620 408 662 302 662 C157 662 57 583 57 470 C57 349 166 299 255 271 C335 246 398 239 398 184 C398 146 358 120 294 120 C230 120 155 159 114 206 L103 206 L26 117 L26 105 C84 34 187 -12 303 -12 L303 -12 Z " />
<glyph glyph-name="sacute" unicode="&#x15b;" horiz-adv-x="489" d="M314 780 L99 644 L99 636 L139 568 L147 568 L380 670 L380 678 L322 780 L314 780 Z M246 -13 C370 -13 453 47 453 139 C453 235 389 272 304 305 C243 328 198 339 198 367 C198 387 220 401 252 401 C291 401 338 383 374 348 L385 348 L453 420 L453 431 C415 481 336 513 252 513 C129 513 51 454 51 361 C51 258 149 225 232 199 C272 185 307 173 307 142 C307 119 284 103 247 103 C192 103 132 133 102 167 L91 167 L22 90 L22 79 C67 23 153 -13 246 -13 L246 -13 Z " />
<glyph glyph-name="Scedilla" unicode="&#x15e;" horiz-adv-x="595" d="M558 185 C558 331 429 365 318 400 C265 418 216 435 216 478 C216 514 252 536 304 536 C372 536 426 498 458 465 L469 465 L546 553 L546 564 C499 620 408 662 302 662 C157 662 57 583 57 470 C57 349 166 299 255 271 C335 246 398 239 398 184 C398 146 358 120 294 120 C230 120 155 159 114 206 L103 206 L26 117 L26 105 C75 45 157 2 252 -9 L227 -90 L246 -102 C312 -89 361 -103 361 -143 C361 -171 337 -186 300 -186 C270 -186 238 -175 217 -162 L206 -162 L169 -214 L169 -226 C206 -253 264 -271 315 -271 C405 -271 467 -219 467 -144 C467 -80 417 -38 338 -38 L347 -10 C466 4 558 72 558 185 L558 185 Z " />
<glyph glyph-name="scedilla" unicode="&#x15f;" horiz-adv-x="489" d="M252 401 C291 401 338 383 374 348 L385 348 L453 420 L453 431 C415 481 336 513 252 513 C129 513 51 454 51 361 C51 258 149 225 232 199 C272 185 307 173 307 142 C307 119 284 103 247 103 C192 103 132 133 102 167 L91 167 L22 90 L22 79 C58 34 122 1 194 -9 L169 -90 L188 -102 C254 -89 303 -103 303 -143 C303 -171 279 -186 242 -186 C212 -186 180 -175 159 -162 L148 -162 L111 -214 L111 -226 C148 -253 206 -271 257 -271 C347 -271 409 -219 409 -144 C409 -80 359 -38 280 -38 L289 -10 C389 2 453 58 453 139 C453 235 389 272 304 305 C243 328 198 339 198 367 C198 387 220 401 252 401 L252 401 Z " />
<glyph glyph-name="Scaron" unicode="&#x160;" horiz-adv-x="595" d="M309 729 L494 836 L494 847 L457 909 L446 909 L303 841 L160 909 L149 909 L111 847 L111 836 L296 729 L309 729 Z M318 400 C265 418 216 435 216 478 C216 514 252 536 304 536 C372 536 426 498 458 465 L469 465 L546 553 L546 564 C499 620 408 662 302 662 C157 662 57 583 57 470 C57 349 166 299 255 271 C335 246 398 239 398 184 C398 146 358 120 294 120 C230 120 155 159 114 206 L103 206 L26 117 L26 105 C84 34 187 -12 303 -12 C443 -12 558 58 558 185 C558 331 429 365 318 400 L318 400 Z " />
<glyph glyph-name="scaron" unicode="&#x161;" horiz-adv-x="489" d="M255 568 L432 676 L432 685 L389 750 L381 750 L248 683 L114 750 L105 750 L62 685 L62 676 L239 568 L255 568 Z M252 401 C291 401 338 383 374 348 L385 348 L453 420 L453 431 C415 481 336 513 252 513 C129 513 51 454 51 361 C51 258 149 225 232 199 C272 185 307 173 307 142 C307 119 284 103 247 103 C192 103 132 133 102 167 L91 167 L22 90 L22 79 C67 23 153 -13 246 -13 C370 -13 453 47 453 139 C453 235 389 272 304 305 C243 328 198 339 198 367 C198 387 220 401 252 401 L252 401 Z " />
<glyph glyph-name="uni0162" unicode="&#x162;" horiz-adv-x="589" d="M373 0 L373 522 L577 522 L577 650 L12 650 L12 522 L216 522 L216 0 L247 0 L219 -90 L238 -102 C304 -89 353 -103 353 -143 C353 -171 329 -186 292 -186 C262 -186 230 -175 209 -162 L198 -162 L161 -214 L161 -226 C198 -253 256 -271 307 -271 C397 -271 459 -219 459 -144 C459 -80 409 -38 330 -38 L342 0 L373 0 Z " />
<glyph glyph-name="uni0163" unicode="&#x163;" horiz-adv-x="429" d="M298 -38 L306 -11 C347 -8 384 6 414 28 L419 40 L377 133 L365 138 C351 126 331 119 315 119 C280 119 255 138 255 190 L255 386 L402 386 L402 500 L255 500 L255 656 L243 663 L102 648 L102 500 L15 500 L15 386 L102 386 L102 175 C102 78 150 22 215 0 L187 -90 L206 -102 C272 -89 321 -103 321 -143 C321 -171 297 -186 260 -186 C230 -186 198 -175 177 -162 L166 -162 L129 -214 L129 -226 C166 -253 224 -271 275 -271 C365 -271 427 -219 427 -144 C427 -80 377 -38 298 -38 L298 -38 Z " />
<glyph glyph-name="Tcaron" unicode="&#x164;" horiz-adv-x="589" d="M301 729 L486 836 L486 847 L449 909 L438 909 L295 841 L152 909 L141 909 L103 847 L103 836 L288 729 L301 729 Z M12 650 L12 522 L216 522 L216 0 L373 0 L373 522 L577 522 L577 650 L12 650 Z " />
<glyph glyph-name="tcaron" unicode="&#x165;" horiz-adv-x="429" d="M380 555 L390 564 L459 763 L452 772 L336 772 L327 763 L297 564 L304 555 L380 555 Z M365 138 C351 126 331 119 315 119 C280 119 255 138 255 190 L255 386 L402 386 L402 500 L255 500 L255 656 L243 663 L102 648 L102 500 L15 500 L15 386 L102 386 L102 175 C102 44 190 -12 288 -12 C336 -12 380 3 414 28 L419 40 L377 133 L365 138 Z " />
<glyph glyph-name="Tbar" unicode="&#x166;" horiz-adv-x="604" d="M585 522 L585 650 L20 650 L20 522 L224 522 L224 335 L106 335 L106 240 L224 240 L224 0 L381 0 L381 240 L496 240 L496 335 L381 335 L381 522 L585 522 Z " />
<glyph glyph-name="tbar" unicode="&#x167;" horiz-adv-x="435" d="M383 133 L371 138 C357 126 337 119 321 119 C286 119 261 138 261 190 L261 223 L369 223 L369 302 L261 302 L261 386 L408 386 L408 500 L261 500 L261 656 L249 663 L108 648 L108 500 L21 500 L21 386 L108 386 L108 302 L22 302 L22 223 L108 223 L108 175 C108 44 196 -12 294 -12 C342 -12 386 3 420 28 L425 40 L383 133 Z " />
<glyph glyph-name="Utilde" unicode="&#x168;" horiz-adv-x="731" d="M462 735 C504 735 533 749 555 781 L555 882 L546 888 L539 888 C527 864 499 849 464 849 C411 849 336 889 271 889 C230 889 201 875 179 843 L179 741 L188 735 L195 735 C207 760 236 775 269 775 C323 775 397 735 462 735 L462 735 Z M65 650 L65 289 C65 108 186 -12 367 -12 C546 -12 666 108 666 289 L666 650 L513 650 L513 281 C513 189 454 128 367 128 C280 128 221 189 221 281 L221 650 L65 650 Z " />
<glyph glyph-name="utilde" unicode="&#x169;" horiz-adv-x="604" d="M144 593 C156 615 184 630 219 630 C265 630 318 593 375 593 C418 593 448 608 469 636 L469 727 L460 733 L454 733 C442 711 415 696 376 696 C331 696 280 734 223 734 C182 734 150 719 129 690 L129 599 L137 593 L144 593 Z M386 500 L386 215 C386 158 352 119 297 119 C245 119 212 158 212 212 L212 500 L57 500 L57 204 C57 72 142 -12 262 -12 C330 -12 379 16 411 57 L411 0 L540 0 L540 500 L386 500 Z " />
<glyph glyph-name="Umacron" unicode="&#x16a;" horiz-adv-x="731" d="M197 842 L197 735 L538 735 L538 842 L197 842 Z M65 650 L65 289 C65 108 186 -12 367 -12 C546 -12 666 108 666 289 L666 650 L513 650 L513 281 C513 189 454 128 367 128 C280 128 221 189 221 281 L221 650 L65 650 Z " />
<glyph glyph-name="umacron" unicode="&#x16b;" horiz-adv-x="604" d="M464 703 L134 703 L134 603 L464 603 L464 703 Z M386 500 L386 215 C386 158 352 119 297 119 C245 119 212 158 212 212 L212 500 L57 500 L57 204 C57 72 142 -12 262 -12 C330 -12 379 16 411 57 L411 0 L540 0 L540 500 L386 500 Z " />
<glyph glyph-name="Uring" unicode="&#x16e;" horiz-adv-x="731" d="M368 703 C436 703 492 757 492 825 C492 893 436 947 368 947 C300 947 244 893 244 825 C244 757 300 703 368 703 L368 703 Z M368 784 C346 784 328 802 328 825 C328 848 346 866 368 866 C389 866 408 848 408 825 C408 802 389 784 368 784 L368 784 Z M65 650 L65 289 C65 108 186 -12 367 -12 C546 -12 666 108 666 289 L666 650 L513 650 L513 281 C513 189 454 128 367 128 C280 128 221 189 221 281 L221 650 L65 650 Z " />
<glyph glyph-name="uring" unicode="&#x16f;" horiz-adv-x="604" d="M299 547 C370 547 427 602 427 670 C427 737 371 793 299 793 C228 793 172 737 172 670 C172 602 228 547 299 547 L299 547 Z M299 709 C323 709 339 691 339 670 C339 648 323 630 299 630 C276 630 260 648 260 670 C260 691 276 709 299 709 L299 709 Z M386 500 L386 215 C386 158 352 119 297 119 C245 119 212 158 212 212 L212 500 L57 500 L57 204 C57 72 142 -12 262 -12 C330 -12 379 16 411 57 L411 0 L540 0 L540 500 L386 500 Z " />
<glyph glyph-name="Uhungarumlaut" unicode="&#x170;" horiz-adv-x="731" d="M301 891 L203 726 L209 716 L300 716 L432 882 L425 891 L301 891 Z M491 891 L393 726 L399 716 L490 716 L622 882 L615 891 L491 891 Z M65 650 L65 289 C65 108 186 -12 367 -12 C546 -12 666 108 666 289 L666 650 L513 650 L513 281 C513 189 454 128 367 128 C280 128 221 189 221 281 L221 650 L65 650 Z " />
<glyph glyph-name="uhungarumlaut" unicode="&#x171;" horiz-adv-x="604" d="M239 568 L249 576 L352 758 L345 766 L237 766 L227 758 L161 576 L168 568 L239 568 Z M344 568 L414 568 L425 576 L528 758 L520 766 L413 766 L402 758 L336 576 L344 568 Z M386 500 L386 215 C386 158 352 119 297 119 C245 119 212 158 212 212 L212 500 L57 500 L57 204 C57 72 142 -12 262 -12 C330 -12 379 16 411 57 L411 0 L540 0 L540 500 L386 500 Z " />
<glyph glyph-name="Uogonek" unicode="&#x172;" horiz-adv-x="731" d="M526 27 C613 76 666 169 666 289 L666 650 L513 650 L513 281 C513 189 454 128 367 128 C280 128 221 189 221 281 L221 650 L65 650 L65 289 C65 108 186 -12 367 -12 C376 -12 385 -12 393 -11 C382 -30 373 -54 373 -84 C373 -159 435 -209 519 -209 C550 -209 581 -202 612 -184 L613 -173 L588 -113 L577 -111 C564 -118 553 -121 538 -121 C503 -121 478 -97 478 -61 C478 -20 508 10 526 27 L526 27 Z " />
<glyph glyph-name="uogonek" unicode="&#x173;" horiz-adv-x="604" d="M601 -141 L590 -139 C577 -146 566 -149 551 -149 C516 -149 491 -125 491 -89 C491 -47 523 -16 540 0 L540 500 L386 500 L386 215 C386 158 352 119 297 119 C245 119 212 158 212 212 L212 500 L57 500 L57 204 C57 72 142 -12 262 -12 C330 -12 379 16 411 57 L411 0 L439 0 C417 -21 386 -56 386 -112 C386 -187 448 -237 532 -237 C563 -237 594 -230 625 -212 L626 -201 L601 -141 Z " />
<glyph glyph-name="Wcircumflex" unicode="&#x174;" horiz-adv-x="973" d="M343 728 L486 796 L629 728 L640 728 L681 797 L681 808 L492 915 L479 915 L290 808 L290 797 L332 728 L343 728 Z M961 650 L812 650 L674 241 L532 650 L441 650 L300 244 L165 650 L13 650 L6 638 L246 0 L337 0 L486 403 L636 0 L727 0 L968 638 L961 650 Z " />
<glyph glyph-name="wcircumflex" unicode="&#x175;" horiz-adv-x="800" d="M266 577 L400 643 L533 577 L541 577 L584 641 L584 650 L407 758 L391 758 L214 650 L214 641 L257 577 L266 577 Z M788 500 L645 500 L550 192 L442 500 L357 500 L251 183 L161 500 L16 500 L9 489 L181 0 L292 0 L399 297 L506 0 L617 0 L795 489 L788 500 Z " />
<glyph glyph-name="Ycircumflex" unicode="&#x176;" horiz-adv-x="659" d="M188 728 L331 796 L474 728 L485 728 L526 797 L526 808 L337 915 L324 915 L135 808 L135 797 L177 728 L188 728 Z M645 638 L638 650 L488 650 L332 372 L170 650 L16 650 L9 638 L253 237 L253 0 L409 0 L409 241 L645 638 Z " />
<glyph glyph-name="ycircumflex" unicode="&#x177;" horiz-adv-x="553" d="M153 577 L287 643 L420 577 L428 577 L471 641 L471 650 L294 758 L278 758 L101 650 L101 641 L144 577 L153 577 Z M541 500 L407 500 L287 186 L166 500 L14 500 L7 489 L213 39 L192 -5 C176 -40 153 -45 133 -45 C114 -45 95 -40 83 -33 L72 -38 L44 -133 L49 -143 C73 -157 104 -165 141 -165 C210 -165 278 -138 323 -33 L549 489 L541 500 Z " />
<glyph glyph-name="Ydieresis" unicode="&#x178;" horiz-adv-x="659" d="M210 723 C260 723 302 764 302 814 C302 865 260 906 210 906 C160 906 119 865 119 814 C119 764 160 723 210 723 L210 723 Z M451 723 C501 723 542 764 542 814 C542 865 501 906 451 906 C401 906 360 865 360 814 C360 764 401 723 451 723 L451 723 Z M645 638 L638 650 L488 650 L332 372 L170 650 L16 650 L9 638 L253 237 L253 0 L409 0 L409 241 L645 638 Z " />
<glyph glyph-name="Zacute" unicode="&#x179;" horiz-adv-x="607" d="M220 716 L460 820 L460 831 L402 929 L391 929 L172 789 L172 778 L209 716 L220 716 Z M233 126 L562 546 L562 650 L46 650 L46 524 L363 524 L32 104 L32 0 L578 0 L578 126 L233 126 Z " />
<glyph glyph-name="zacute" unicode="&#x17a;" horiz-adv-x="512" d="M325 780 L110 644 L110 636 L150 568 L158 568 L391 670 L391 678 L333 780 L325 780 Z M35 0 L482 0 L482 113 L223 113 L467 390 L467 500 L41 500 L41 387 L289 387 L35 109 L35 0 Z " />
<glyph glyph-name="Zdotaccent" unicode="&#x17b;" horiz-adv-x="607" d="M303 723 C354 723 399 766 399 817 C399 869 355 913 303 913 C253 913 209 869 209 817 C209 767 253 723 303 723 L303 723 Z M233 126 L562 546 L562 650 L46 650 L46 524 L363 524 L32 104 L32 0 L578 0 L578 126 L233 126 Z " />
<glyph glyph-name="zdotaccent" unicode="&#x17c;" horiz-adv-x="512" d="M258 579 C311 579 354 622 354 674 C354 727 311 770 258 770 C205 770 163 727 163 674 C163 622 205 579 258 579 L258 579 Z M35 0 L482 0 L482 113 L223 113 L467 390 L467 500 L41 500 L41 387 L289 387 L35 109 L35 0 Z " />
<glyph glyph-name="Zcaron" unicode="&#x17d;" horiz-adv-x="607" d="M310 729 L495 836 L495 847 L458 909 L447 909 L304 841 L161 909 L150 909 L112 847 L112 836 L297 729 L310 729 Z M233 126 L562 546 L562 650 L46 650 L46 524 L363 524 L32 104 L32 0 L578 0 L578 126 L233 126 Z " />
<glyph glyph-name="zcaron" unicode="&#x17e;" horiz-adv-x="512" d="M266 568 L443 676 L443 685 L400 750 L392 750 L259 683 L125 750 L116 750 L73 685 L73 676 L250 568 L266 568 Z M223 113 L467 390 L467 500 L41 500 L41 387 L289 387 L35 109 L35 0 L482 0 L482 113 L223 113 Z " />
<glyph glyph-name="uni01EA" unicode="&#x1ea;" horiz-adv-x="783" d="M536 15 C663 65 748 182 748 325 C748 518 594 662 392 662 C189 662 35 518 35 325 C35 132 189 -12 392 -12 L411 -12 C396 -32 383 -60 383 -96 C383 -171 445 -221 529 -221 C560 -221 591 -214 622 -196 L623 -185 L598 -125 L587 -123 C574 -130 563 -133 548 -133 C513 -133 488 -109 488 -73 C488 -32 518 -2 536 15 L536 15 Z M195 325 C195 440 282 521 392 521 C502 521 589 440 589 325 C589 211 502 129 392 129 C282 129 195 211 195 325 L195 325 Z " />
<glyph glyph-name="uni01EB" unicode="&#x1eb;" horiz-adv-x="615" d="M415 6 C517 44 584 135 584 250 C584 401 468 512 308 512 C148 512 31 401 31 250 C31 102 143 -7 297 -12 C281 -33 265 -62 265 -102 C265 -177 327 -227 411 -227 C442 -227 473 -220 504 -202 L505 -191 L480 -131 L469 -129 C456 -136 445 -139 430 -139 C395 -139 370 -115 370 -79 C370 -40 398 -10 415 6 L415 6 Z M184 250 C184 325 236 380 308 380 C380 380 432 325 432 250 C432 175 380 120 308 120 C235 120 184 175 184 250 L184 250 Z " />
<glyph glyph-name="AEacute" unicode="&#x1fc;" horiz-adv-x="1024" d="M635 716 L875 820 L875 831 L817 929 L806 929 L587 789 L587 778 L624 716 L635 716 Z M662 128 L662 265 L908 265 L908 387 L662 387 L662 522 L980 522 L980 650 L445 650 L-16 12 L-9 0 L158 0 L238 114 L506 114 L506 0 L982 0 L982 128 L662 128 Z M313 222 L506 498 L506 222 L313 222 Z " />
<glyph glyph-name="aeacute" unicode="&#x1fd;" horiz-adv-x="923" d="M364 568 L597 670 L597 678 L539 780 L531 780 L316 644 L316 636 L356 568 L364 568 Z M891 216 C893 228 894 241 894 256 C894 332 867 396 821 442 C775 486 711 512 637 512 C563 512 500 488 454 446 C410 493 341 512 268 512 C203 512 118 491 63 448 L63 437 L113 358 L124 358 C156 383 203 399 246 399 C311 399 361 366 361 316 L361 293 C323 307 281 317 239 317 C110 317 24 249 24 147 C24 52 103 -12 221 -12 C303 -13 383 20 432 78 C482 21 558 -12 646 -12 C723 -12 815 13 871 79 L871 91 L802 157 L791 157 C757 121 704 102 653 102 C584 102 527 140 520 216 L891 216 Z M633 403 C665 403 693 392 713 371 C729 355 740 331 744 304 L521 304 C529 364 571 403 633 403 L633 403 Z M257 86 C205 86 170 113 170 154 C170 196 207 225 262 225 C303 225 342 210 364 200 L364 180 C364 133 317 86 257 86 L257 86 Z " />
<glyph glyph-name="Oslashacute" unicode="&#x1fe;" horiz-adv-x="783" d="M308 716 L548 820 L548 831 L490 929 L479 929 L260 789 L260 778 L297 716 L308 716 Z M636 575 L725 709 L718 721 L574 721 L521 641 C481 655 438 662 392 662 C189 662 35 518 35 325 C35 224 77 137 146 76 L66 -44 L73 -56 L218 -56 L261 10 C302 -4 345 -12 392 -12 C594 -12 748 133 748 325 C748 426 706 514 636 575 L636 575 Z M195 325 C195 440 282 521 392 521 C408 521 423 519 438 516 L233 207 C209 239 195 279 195 325 L195 325 Z M392 129 C375 129 359 131 344 134 L550 445 C575 413 589 372 589 325 C589 211 502 129 392 129 L392 129 Z " />
<glyph glyph-name="oslashacute" unicode="&#x1ff;" horiz-adv-x="617" d="M211 568 L444 670 L444 678 L386 780 L378 780 L163 644 L163 636 L203 568 L211 568 Z M594 551 L587 562 L449 562 L404 498 C375 507 343 512 309 512 C149 512 32 401 32 250 C32 177 60 113 106 66 L34 -38 L41 -49 L179 -49 L214 2 C244 -7 275 -12 309 -12 C469 -12 585 99 585 250 C585 323 558 386 512 433 L594 551 Z M185 250 C185 325 237 380 309 380 C314 380 318 380 323 379 L195 195 C189 212 185 230 185 250 L185 250 Z M433 250 C433 175 381 120 309 120 C305 120 300 120 296 121 L423 304 C429 288 433 269 433 250 L433 250 Z " />
<glyph glyph-name="Scommaaccent" unicode="&#x218;" horiz-adv-x="595" d="M303 -12 C443 -12 558 58 558 185 C558 331 429 365 318 400 C265 418 216 435 216 478 C216 514 252 536 304 536 C372 536 426 498 458 465 L469 465 L546 553 L546 564 C499 620 408 662 302 662 C157 662 57 583 57 470 C57 349 166 299 255 271 C335 246 398 239 398 184 C398 146 358 120 294 120 C230 120 155 159 114 206 L103 206 L26 117 L26 105 C84 34 187 -12 303 -12 L303 -12 Z M236 -64 L210 -253 L217 -262 L296 -262 L306 -253 L367 -64 L360 -56 L246 -56 L236 -64 Z " />
<glyph glyph-name="scommaaccent" unicode="&#x219;" horiz-adv-x="489" d="M246 -13 C370 -13 453 47 453 139 C453 235 389 272 304 305 C243 328 198 339 198 367 C198 387 220 401 252 401 C291 401 338 383 374 348 L385 348 L453 420 L453 431 C415 481 336 513 252 513 C129 513 51 454 51 361 C51 258 149 225 232 199 C272 185 307 173 307 142 C307 119 284 103 247 103 C192 103 132 133 102 167 L91 167 L22 90 L22 79 C67 23 153 -13 246 -13 L246 -13 Z M178 -64 L152 -253 L159 -262 L238 -262 L248 -253 L309 -64 L302 -56 L188 -56 L178 -64 Z " />
<glyph glyph-name="uni021A" unicode="&#x21a;" horiz-adv-x="589" d="M373 522 L577 522 L577 650 L12 650 L12 522 L216 522 L216 0 L373 0 L373 522 Z M227 -64 L201 -253 L208 -262 L287 -262 L297 -253 L358 -64 L351 -56 L237 -56 L227 -64 Z " />
<glyph glyph-name="uni021B" unicode="&#x21b;" horiz-adv-x="429" d="M377 133 L365 138 C351 126 331 119 315 119 C280 119 255 138 255 190 L255 386 L402 386 L402 500 L255 500 L255 656 L243 663 L102 648 L102 500 L15 500 L15 386 L102 386 L102 175 C102 44 190 -12 288 -12 C336 -12 380 3 414 28 L419 40 L377 133 Z M206 -56 L196 -64 L170 -253 L177 -262 L256 -262 L266 -253 L327 -64 L320 -56 L206 -56 Z " />
<glyph glyph-name="uni0237" unicode="&#x237;" horiz-adv-x="284" d="M67 500 L67 116 C67 11 59 -13 -10 -51 L-10 -62 L48 -173 L60 -173 C198 -111 222 -54 222 102 L222 500 L67 500 Z " />
<glyph glyph-name="uni02BC" unicode="&#x2bc;" horiz-adv-x="208" d="M61 767 L34 577 L41 569 L119 569 L129 577 L194 767 L186 775 L71 775 L61 767 Z " />
<glyph glyph-name="circumflex" unicode="&#x2c6;" horiz-adv-x="468" d="M243 758 L227 758 L50 650 L50 641 L93 577 L102 577 L236 643 L369 577 L377 577 L420 641 L420 650 L243 758 Z " />
<glyph glyph-name="caron" unicode="&#x2c7;" horiz-adv-x="467" d="M377 750 L369 750 L236 683 L102 750 L93 750 L50 685 L50 676 L227 568 L243 568 L420 676 L420 685 L377 750 Z " />
<glyph glyph-name="breve" unicode="&#x2d8;" horiz-adv-x="396" d="M197 582 C294 582 365 652 376 748 L273 748 C266 704 236 675 197 675 C159 675 129 704 122 748 L19 748 C30 652 100 582 197 582 L197 582 Z " />
<glyph glyph-name="dotaccent" unicode="&#x2d9;" horiz-adv-x="245" d="M122 579 C175 579 218 622 218 674 C218 727 175 770 122 770 C69 770 27 727 27 674 C27 622 69 579 122 579 L122 579 Z " />
<glyph glyph-name="ring" unicode="&#x2da;" horiz-adv-x="335" d="M167 547 C238 547 295 602 295 670 C295 737 239 793 167 793 C96 793 40 737 40 670 C40 602 96 547 167 547 L167 547 Z M167 630 C144 630 128 648 128 670 C128 691 144 709 167 709 C191 709 207 691 207 670 C207 648 191 630 167 630 L167 630 Z " />
<glyph glyph-name="ogonek" unicode="&#x2db;" horiz-adv-x="328" d="M255 -233 C286 -233 317 -226 348 -208 L349 -197 L324 -137 L313 -135 C300 -142 289 -145 274 -145 C239 -145 214 -121 214 -85 C214 -43 246 -12 263 4 L179 20 C163 4 109 -34 109 -108 C109 -183 171 -233 255 -233 L255 -233 Z " />
<glyph glyph-name="tilde" unicode="&#x2dc;" horiz-adv-x="470" d="M311 593 C354 593 384 608 405 636 L405 727 L396 733 L390 733 C378 711 351 696 312 696 C267 696 216 734 159 734 C118 734 86 719 65 690 L65 599 L73 593 L80 593 C92 615 120 630 155 630 C201 630 254 593 311 593 L311 593 Z " />
<glyph glyph-name="hungarumlaut" unicode="&#x2dd;" horiz-adv-x="424" d="M102 758 L36 576 L43 568 L114 568 L124 576 L227 758 L220 766 L112 766 L102 758 Z M277 758 L211 576 L219 568 L289 568 L300 576 L403 758 L395 766 L288 766 L277 758 Z " />
<glyph glyph-name="uni0326" unicode="&#x326;" d="M-156 -64 L-182 -253 L-175 -262 L-96 -262 L-86 -253 L-25 -64 L-32 -56 L-146 -56 L-156 -64 Z " />
<glyph glyph-name="Wgrave" unicode="&#x1e80;" horiz-adv-x="973" d="M598 716 L635 778 L635 789 L416 929 L405 929 L348 831 L348 820 L587 716 L598 716 Z M961 650 L812 650 L674 241 L532 650 L441 650 L300 244 L165 650 L13 650 L6 638 L246 0 L337 0 L486 403 L636 0 L727 0 L968 638 L961 650 Z " />
<glyph glyph-name="wgrave" unicode="&#x1e81;" horiz-adv-x="800" d="M500 568 L540 636 L540 644 L325 780 L317 780 L259 678 L259 670 L492 568 L500 568 Z M788 500 L645 500 L550 192 L442 500 L357 500 L251 183 L161 500 L16 500 L9 489 L181 0 L292 0 L399 297 L506 0 L617 0 L795 489 L788 500 Z " />
<glyph glyph-name="Wacute" unicode="&#x1e82;" horiz-adv-x="973" d="M403 716 L643 820 L643 831 L585 929 L574 929 L355 789 L355 778 L392 716 L403 716 Z M961 650 L812 650 L674 241 L532 650 L441 650 L300 244 L165 650 L13 650 L6 638 L246 0 L337 0 L486 403 L636 0 L727 0 L968 638 L961 650 Z " />
<glyph glyph-name="wacute" unicode="&#x1e83;" horiz-adv-x="800" d="M300 568 L533 670 L533 678 L475 780 L467 780 L252 644 L252 636 L292 568 L300 568 Z M788 500 L645 500 L550 192 L442 500 L357 500 L251 183 L161 500 L16 500 L9 489 L181 0 L292 0 L399 297 L506 0 L617 0 L795 489 L788 500 Z " />
<glyph glyph-name="Wdieresis" unicode="&#x1e84;" horiz-adv-x="973" d="M366 723 C416 723 458 764 458 814 C458 865 416 906 366 906 C316 906 275 865 275 814 C275 764 316 723 366 723 L366 723 Z M607 723 C657 723 698 764 698 814 C698 865 657 906 607 906 C557 906 516 865 516 814 C516 764 557 723 607 723 L607 723 Z M961 650 L812 650 L674 241 L532 650 L441 650 L300 244 L165 650 L13 650 L6 638 L246 0 L337 0 L486 403 L636 0 L727 0 L968 638 L961 650 Z " />
<glyph glyph-name="wdieresis" unicode="&#x1e85;" horiz-adv-x="800" d="M291 578 C339 578 378 616 378 664 C378 712 339 751 291 751 C243 751 204 712 204 664 C204 616 243 578 291 578 L291 578 Z M509 578 C557 578 595 616 595 664 C595 712 557 751 509 751 C461 751 422 712 422 664 C422 616 461 578 509 578 L509 578 Z M788 500 L645 500 L550 192 L442 500 L357 500 L251 183 L161 500 L16 500 L9 489 L181 0 L292 0 L399 297 L506 0 L617 0 L795 489 L788 500 Z " />
<glyph glyph-name="uni1E9E" unicode="&#x1e9e;" horiz-adv-x="672" d="M466 390 L576 537 C531 610 431 662 334 662 C177 662 67 556 67 403 L67 0 L224 0 L224 420 C224 485 263 532 327 532 C356 532 382 520 400 501 L316 394 L316 300 L379 300 C444 300 482 261 482 211 C482 161 446 121 384 121 C360 121 337 128 319 141 L306 136 L261 36 L268 24 C310 -2 364 -12 411 -12 C555 -12 639 81 639 191 C639 290 578 371 466 390 L466 390 Z " />
<glyph glyph-name="Ygrave" unicode="&#x1ef2;" horiz-adv-x="659" d="M442 716 L479 778 L479 789 L260 929 L249 929 L192 831 L192 820 L431 716 L442 716 Z M645 638 L638 650 L488 650 L332 372 L170 650 L16 650 L9 638 L253 237 L253 0 L409 0 L409 241 L645 638 Z " />
<glyph glyph-name="ygrave" unicode="&#x1ef3;" horiz-adv-x="553" d="M386 568 L426 636 L426 644 L211 780 L203 780 L145 678 L145 670 L378 568 L386 568 Z M541 500 L407 500 L287 186 L166 500 L14 500 L7 489 L213 39 L192 -5 C176 -40 153 -45 133 -45 C114 -45 95 -40 83 -33 L72 -38 L44 -133 L49 -143 C73 -157 104 -165 141 -165 C210 -165 278 -138 323 -33 L549 489 L541 500 Z " />
<glyph glyph-name="uni1EF8" unicode="&#x1ef8;" horiz-adv-x="659" d="M159 735 C171 760 200 775 233 775 C287 775 361 735 426 735 C468 735 497 749 519 781 L519 882 L510 888 L503 888 C491 864 463 849 428 849 C375 849 300 889 235 889 C194 889 165 875 143 843 L143 741 L152 735 L159 735 Z M645 638 L638 650 L488 650 L332 372 L170 650 L16 650 L9 638 L253 237 L253 0 L409 0 L409 241 L645 638 Z " />
<glyph glyph-name="uni1EF9" unicode="&#x1ef9;" horiz-adv-x="553" d="M131 593 C143 615 171 630 206 630 C252 630 305 593 362 593 C405 593 435 608 456 636 L456 727 L447 733 L441 733 C429 711 402 696 363 696 C318 696 267 734 210 734 C169 734 137 719 116 690 L116 599 L124 593 L131 593 Z M541 500 L407 500 L287 186 L166 500 L14 500 L7 489 L213 39 L192 -5 C176 -40 153 -45 133 -45 C114 -45 95 -40 83 -33 L72 -38 L44 -133 L49 -143 C73 -157 104 -165 141 -165 C210 -165 278 -138 323 -33 L549 489 L541 500 Z " />
<glyph glyph-name="endash" unicode="&#x2013;" horiz-adv-x="604" d="M55 360 L55 240 L550 240 L550 360 L55 360 Z " />
<glyph glyph-name="emdash" unicode="&#x2014;" horiz-adv-x="740" d="M55 360 L55 240 L685 240 L685 360 L55 360 Z " />
<glyph glyph-name="quoteleft" unicode="&#x2018;" horiz-adv-x="248" d="M164 681 L153 681 C77 606 32 529 32 453 C32 397 68 360 122 360 C172 360 212 398 212 449 C212 493 181 530 138 538 C138 565 155 593 197 641 L197 652 L164 681 Z " />
<glyph glyph-name="quoteright" unicode="&#x2019;" horiz-adv-x="246" d="M87 365 L98 365 C174 441 219 518 219 594 C219 650 183 686 129 686 C79 686 39 648 39 598 C39 554 70 517 113 509 C113 482 96 454 54 406 L54 395 L87 365 Z " />
<glyph glyph-name="quotesinglbase" unicode="&#x201a;" horiz-adv-x="258" d="M86 -169 L97 -169 C173 -93 218 -16 218 59 C218 116 182 152 128 152 C78 152 38 114 38 63 C38 19 69 -17 111 -25 C111 -52 94 -80 53 -128 L53 -139 L86 -169 Z " />
<glyph glyph-name="quotedblleft" unicode="&#x201c;" horiz-adv-x="468" d="M164 689 L153 689 C77 614 32 537 32 461 C32 405 68 368 122 368 C172 368 212 406 212 457 C212 501 181 538 138 546 C138 573 155 601 197 649 L197 660 L164 689 Z M384 689 L373 689 C297 614 252 537 252 461 C252 405 288 368 342 368 C392 368 432 406 432 457 C432 501 401 538 358 546 C358 573 375 601 417 649 L417 660 L384 689 Z " />
<glyph glyph-name="quotedblright" unicode="&#x201d;" horiz-adv-x="466" d="M87 365 L98 365 C174 441 219 518 219 594 C219 650 183 686 129 686 C79 686 39 648 39 598 C39 554 70 517 113 509 C113 482 96 454 54 406 L54 395 L87 365 Z M307 365 L318 365 C394 441 439 518 439 594 C439 650 403 686 349 686 C299 686 259 648 259 598 C259 554 290 517 333 509 C333 482 316 454 274 406 L274 395 L307 365 Z " />
<glyph glyph-name="quotedblbase" unicode="&#x201e;" horiz-adv-x="478" d="M86 -169 L97 -169 C173 -94 218 -17 218 59 C218 115 182 152 128 152 C78 152 38 114 38 63 C38 19 69 -17 111 -25 C111 -52 94 -80 53 -128 L53 -139 L86 -169 Z M306 -169 L317 -169 C393 -94 438 -17 438 59 C438 115 402 152 348 152 C298 152 258 114 258 63 C258 19 289 -17 331 -25 C331 -52 314 -80 273 -128 L273 -139 L306 -169 Z " />
<glyph glyph-name="dagger" unicode="&#x2020;" horiz-adv-x="548" d="M504 480 L350 480 L350 660 L199 660 L199 480 L45 480 L45 366 L199 366 L199 -156 L350 -156 L350 366 L504 366 L504 480 Z " />
<glyph glyph-name="daggerdbl" unicode="&#x2021;" horiz-adv-x="548" d="M504 366 L504 480 L350 480 L350 660 L199 660 L199 480 L45 480 L45 366 L199 366 L199 138 L45 138 L45 24 L199 24 L199 -156 L350 -156 L350 24 L504 24 L504 138 L350 138 L350 366 L504 366 Z " />
<glyph glyph-name="bullet" unicode="&#x2022;" horiz-adv-x="382" d="M191 157 C263 157 320 215 320 286 C320 358 263 416 191 416 C119 416 62 358 62 286 C62 215 119 157 191 157 L191 157 Z " />
<glyph glyph-name="ellipsis" unicode="&#x2026;" horiz-adv-x="767" d="M131 -12 C184 -12 226 31 226 83 C226 136 184 179 131 179 C78 179 35 136 35 83 C35 31 78 -12 131 -12 L131 -12 Z M384 -12 C436 -12 479 31 479 83 C479 136 436 179 384 179 C331 179 288 136 288 83 C288 31 331 -12 384 -12 L384 -12 Z M636 -12 C689 -12 731 31 731 83 C731 136 689 179 636 179 C583 179 541 136 541 83 C541 31 583 -12 636 -12 L636 -12 Z " />
<glyph glyph-name="perthousand" unicode="&#x2030;" horiz-adv-x="1276" d="M194 286 C290 286 360 364 360 481 C360 598 290 676 194 676 C98 676 28 598 28 481 C28 364 98 286 194 286 L194 286 Z M123 5 L130 -7 L248 -7 L764 652 L757 663 L639 663 L123 5 Z M194 377 C155 377 129 418 129 481 C129 544 155 585 194 585 C234 585 260 544 260 481 C260 419 230 377 194 377 L194 377 Z M694 -19 C790 -19 860 59 860 176 C860 292 790 371 694 371 C598 371 528 292 528 176 C528 59 598 -19 694 -19 L694 -19 Z M1082 -19 C1178 -19 1248 59 1248 176 C1248 292 1178 371 1082 371 C986 371 916 292 916 176 C916 59 986 -19 1082 -19 L1082 -19 Z M694 72 C654 72 628 113 628 176 C628 238 654 279 694 279 C733 279 759 238 759 176 C759 113 733 72 694 72 L694 72 Z M1082 72 C1043 72 1017 113 1017 176 C1017 238 1043 279 1082 279 C1122 279 1148 238 1148 176 C1148 113 1122 72 1082 72 L1082 72 Z " />
<glyph glyph-name="guilsinglleft" unicode="&#x2039;" horiz-adv-x="334" d="M291 443 L220 511 L212 511 L30 307 L30 291 L212 87 L220 87 L291 155 L291 163 L172 299 L291 434 L291 443 Z " />
<glyph glyph-name="guilsinglright" unicode="&#x203a;" horiz-adv-x="334" d="M121 511 L114 511 L43 443 L43 434 L162 299 L43 163 L43 155 L114 87 L121 87 L304 291 L304 307 L121 511 Z " />
<glyph glyph-name="fraction" unicode="&#x2044;" horiz-adv-x="585" d="M-28 5 L-21 -7 L97 -7 L613 652 L606 663 L488 663 L-28 5 Z " />
<glyph glyph-name="Euro" unicode="&#x20ac;" horiz-adv-x="744" d="M446 521 C510 521 565 490 601 444 L612 444 L706 524 L706 535 C646 612 553 662 446 662 C288 662 160 562 122 418 L61 418 L40 358 L47 347 L111 347 C110 340 110 332 110 325 C110 316 110 307 111 298 L46 298 L25 238 L32 227 L123 227 C164 85 290 -12 444 -12 C557 -12 648 40 706 115 L706 126 L612 206 L601 206 C565 160 510 129 446 129 C377 129 319 167 288 227 L493 227 L514 287 L507 298 L268 298 C267 307 266 316 266 325 C266 332 266 340 267 347 L505 347 L529 407 L522 418 L286 418 C316 481 375 521 446 521 L446 521 Z " />
<glyph glyph-name="trademark" unicode="&#x2122;" horiz-adv-x="779" d="M29 579 L127 579 L127 324 L216 324 L216 579 L314 579 L314 650 L29 650 L29 579 Z M726 324 L685 650 L618 650 L527 437 L435 650 L368 650 L327 324 L414 324 L431 482 L500 324 L553 324 L621 482 L639 324 L726 324 Z " />
<glyph glyph-name="minus" unicode="&#x2212;" horiz-adv-x="615" d="M58 384 L58 267 L558 267 L558 384 L58 384 Z " />
<glyph glyph-name="approxequal" unicode="&#x2248;" horiz-adv-x="604" d="M411 360 C505 360 532 391 551 415 L551 426 L506 503 L495 503 C482 483 453 468 411 468 C364 468 269 503 191 503 C99 503 71 472 52 448 L52 437 L97 360 L108 360 C121 380 154 395 191 395 C262 395 340 360 411 360 L411 360 Z M411 149 C505 149 532 180 551 204 L551 215 L506 291 L495 291 C482 271 453 256 411 256 C364 256 269 291 191 291 C99 291 71 260 52 236 L52 225 L97 149 L108 149 C121 169 154 184 191 184 C262 184 340 149 411 149 L411 149 Z " />
<glyph glyph-name="notequal" unicode="&#x2260;" horiz-adv-x="615" d="M572 364 L572 470 L454 470 L524 588 L517 600 L411 600 L333 470 L46 470 L46 364 L270 364 L223 285 L46 285 L46 179 L159 179 L89 61 L95 49 L202 49 L280 179 L572 179 L572 285 L343 285 L390 364 L572 364 Z " />
<glyph glyph-name="uniF8FF" unicode="&#xf8ff;" horiz-adv-x="1347" d="M701 573 C736 573 760 599 760 634 C760 666 736 693 701 693 C666 693 642 666 642 634 C642 599 666 573 701 573 L701 573 Z M62 327 L178 327 C178 412 176 488 173 544 C171 576 169 606 168 634 L73 634 L67 545 C63 489 62 414 62 327 L62 327 Z M458 554 L458 471 L481 471 C481 465 479 410 479 385 C479 344 501 321 557 321 C584 321 600 325 609 329 C614 332 618 335 619 338 L619 410 L615 408 C611 407 607 406 602 406 C597 406 594 406 593 407 C592 407 591 407 591 408 L589 471 L646 471 C643 436 644 390 644 327 L758 327 C758 412 757 470 754 507 C753 529 751 547 750 560 L578 560 L574 590 L458 554 Z M360 385 L369 327 L445 327 L445 452 C445 524 409 564 329 564 C233 564 197 517 197 433 C197 357 230 321 286 321 C333 321 352 344 360 385 L360 385 Z M781 327 L894 327 C894 372 889 394 889 421 C889 440 895 446 906 446 C917 446 921 440 921 421 C921 394 919 372 919 327 L1031 327 L1029 463 C1028 535 1008 564 955 564 C886 564 877 491 874 486 C874 502 872 520 871 535 L868 560 L792 560 C790 547 788 530 786 508 C783 471 781 414 781 327 L781 327 Z M1046 440 C1046 369 1083 321 1166 321 C1250 321 1287 369 1287 440 C1287 507 1266 564 1166 564 C1073 564 1046 507 1046 440 L1046 440 Z M324 399 C312 399 303 410 303 429 C303 448 312 456 324 456 C340 456 348 447 348 429 C348 409 340 399 324 399 L324 399 Z M1166 399 C1151 399 1143 409 1143 429 C1143 447 1151 456 1166 456 C1182 456 1190 447 1190 429 C1190 409 1182 399 1166 399 L1166 399 Z M60 277 L60 194 L87 194 C87 189 85 137 85 112 C85 72 107 48 158 48 C182 48 199 52 210 56 C217 59 222 62 225 65 L225 139 L218 136 C213 134 206 133 197 133 L195 194 L240 194 L240 186 C240 130 276 112 333 112 C356 112 370 115 379 119 C384 122 387 124 390 127 C389 120 385 114 379 109 C368 100 351 91 318 91 C294 91 276 95 264 100 C257 103 251 106 246 110 L246 27 C251 22 257 19 266 16 C281 11 304 6 339 6 C443 6 489 47 489 143 C489 186 488 223 486 248 L483 288 L377 288 C377 269 377 251 378 236 C378 209 379 185 379 182 C379 165 374 156 364 156 C353 156 348 165 348 182 C348 185 348 209 349 236 C349 251 349 269 350 288 L185 288 L181 317 L60 277 Z M508 6 L635 6 C635 19 634 30 634 37 C633 41 633 45 633 48 C714 48 760 95 760 184 C760 256 729 296 682 296 C623 296 609 242 604 213 C604 225 603 243 600 259 L597 288 L519 288 L513 211 C509 162 508 91 508 6 L508 6 Z M982 64 L982 137 C979 134 975 132 970 129 C961 124 948 122 931 122 C910 122 900 127 893 134 C890 137 888 141 887 146 L1007 146 L1009 156 C1010 163 1012 171 1012 182 C1012 254 969 296 900 296 C818 296 777 254 777 169 C777 97 817 48 910 48 C935 48 953 52 965 56 C972 59 978 61 982 64 L982 64 Z M1035 253 C1035 233 1052 216 1072 216 C1092 216 1109 233 1109 253 C1109 273 1092 290 1072 290 C1052 290 1035 273 1035 253 L1035 253 Z M1072 223 C1056 223 1042 237 1042 253 C1042 269 1056 283 1072 283 C1088 283 1102 269 1102 253 C1102 237 1088 223 1072 223 L1072 223 Z M1058 272 L1058 235 L1066 235 L1066 246 L1073 246 L1080 235 L1089 235 L1081 248 C1086 250 1089 254 1089 260 C1089 268 1084 272 1074 272 L1058 272 Z M1074 253 L1066 253 L1066 265 L1074 265 C1079 265 1081 263 1081 259 C1081 255 1079 253 1074 253 L1074 253 Z M920 171 L881 171 C881 189 888 198 903 198 C915 198 921 192 921 179 C921 176 920 174 920 173 L920 171 Z M618 129 L616 137 C615 142 614 148 614 156 C614 176 622 186 637 186 C650 186 656 179 656 165 C656 148 646 139 637 134 C631 131 625 130 618 129 L618 129 Z " />
<glyph glyph-name="fi" unicode="&#xfb01;" horiz-adv-x="673" d="M533 549 C579 549 617 587 617 633 C617 680 579 718 533 718 C486 718 448 680 448 633 C448 587 486 549 533 549 L533 549 Z M609 500 L267 500 L267 507 C267 565 294 589 332 589 C347 589 360 586 374 578 L386 585 L414 677 L408 688 C378 701 348 708 313 708 C198 708 112 631 112 507 L112 500 L26 500 L26 386 L112 386 L112 0 L267 0 L267 386 L454 386 L454 0 L609 0 L609 500 Z " />
<glyph glyph-name="fl" unicode="&#xfb02;" horiz-adv-x="642" d="M566 697 L423 684 L423 680 C391 698 353 708 312 708 C205 708 112 628 112 507 L112 500 L26 500 L26 386 L112 386 L112 0 L267 0 L267 386 L379 386 L379 500 L267 500 L267 507 C267 554 295 589 345 589 C379 589 406 577 423 559 L423 0 L578 0 L578 690 L566 697 Z " />
</font>
</svg>
