<?xml version="1.0" encoding="UTF-8"?>
<svg xmlns="http://www.w3.org/2000/svg" xmlns:xlink="http://www.w3.org/1999/xlink" version="1.2" >
<font id="Isidora Sans Regular It">
<font-face  font-family="Isidora Sans" units-per-em="1000" ascent="682" descent="-150" font-style="normal" font-weight="400" font-stretch="normal" slope="-10" cap-height="650" x-height="500" underline-position="-75" underline-thickness="50" />
<missing-glyph  horiz-adv-x="416" d="M341 682 L77 682 L77 -150 L341 -150 L341 682 Z M277 626 L277 599 L222 599 L222 568 L277 568 L277 541 L139 541 L139 568 L194 568 L194 599 L140 599 L140 626 L277 626 Z M222 519 L222 461 L277 461 L277 432 L139 432 L139 519 L222 519 Z M194 491 L166 491 L166 461 L194 461 L194 491 Z M277 410 L277 382 L222 382 L222 324 L139 324 L139 352 L194 352 L194 382 L139 382 L139 410 L277 410 Z M277 360 L277 277 L139 277 L139 305 L250 305 L250 360 L277 360 Z M277 259 L277 164 L139 164 L139 259 L166 259 L166 192 L250 192 L250 231 L222 231 L222 212 L194 212 L194 259 L277 259 Z M277 115 L277 21 L139 21 L139 115 L277 115 Z M250 87 L166 87 L166 48 L250 48 L250 87 Z M277 1 L277 -26 L250 -26 L192 -65 L277 -65 L277 -93 L139 -93 L139 -65 L197 -26 L139 -26 L139 1 L277 1 Z " />
<glyph glyph-name="NULL" d="" />
<glyph glyph-name="CR" unicode="&#xd;" horiz-adv-x="250" d="" />
<glyph glyph-name="space" unicode="&#x20;" horiz-adv-x="251" d="" />
<glyph glyph-name="exclam" unicode="&#x21;" horiz-adv-x="235" d="M123 131 L160 131 L164 135 L262 646 L260 650 L209 650 L205 646 L121 135 L123 131 Z M118 -12 C146 -12 170 12 170 40 C170 64 152 82 128 82 C100 82 76 58 76 30 C76 7 94 -12 118 -12 L118 -12 Z " />
<glyph glyph-name="quotedbl" unicode="&#x22;" horiz-adv-x="284" d="M148 417 L177 417 L230 650 L178 650 L148 417 Z M257 417 L286 417 L341 650 L288 650 L257 417 Z " />
<glyph glyph-name="numbersign" unicode="&#x23;" horiz-adv-x="554" d="M124 0 L168 0 L229 193 L376 193 L315 0 L359 0 L420 193 L520 193 L534 235 L433 235 L489 415 L589 415 L602 457 L503 457 L563 649 L519 649 L459 457 L312 457 L372 649 L329 649 L269 457 L148 457 L135 415 L256 415 L198 235 L81 235 L68 193 L185 193 L124 0 Z M242 235 L299 415 L445 415 L389 235 L242 235 Z " />
<glyph glyph-name="dollar" unicode="&#x24;" horiz-adv-x="444" d="M352 616 L365 687 L320 687 L308 616 C211 608 144 544 144 455 C144 383 199 349 250 325 C316 293 387 277 387 205 C387 139 335 88 250 88 C190 88 133 124 105 178 L101 178 L66 151 L65 147 C93 90 151 52 218 44 L206 -27 L250 -27 L263 43 C367 49 439 113 439 210 C439 306 353 332 282 368 C234 393 196 413 196 462 C196 525 247 573 321 573 C378 573 419 548 440 509 L445 509 L476 537 L477 542 C454 583 410 610 352 616 L352 616 Z " />
<glyph glyph-name="percent" unicode="&#x25;" horiz-adv-x="752" d="M243 287 C343 287 403 394 403 509 C403 603 357 662 284 662 C184 662 123 554 123 440 C123 347 170 287 243 287 L243 287 Z M98 5 L99 0 L152 0 L756 645 L755 650 L702 650 L98 5 Z M246 329 C195 329 167 374 167 443 C168 539 213 620 280 620 C331 620 359 576 359 506 C359 410 313 329 246 329 L246 329 Z M576 -12 C676 -12 736 96 736 210 C736 304 690 363 617 363 C517 363 456 255 456 141 C456 48 503 -12 576 -12 L576 -12 Z M579 30 C528 30 500 75 500 145 C500 240 546 321 613 321 C664 321 691 277 691 207 C691 112 646 30 579 30 L579 30 Z " />
<glyph glyph-name="ampersand" unicode="&#x26;" horiz-adv-x="614" d="M597 35 L594 38 C586 33 575 31 566 31 C546 31 532 42 513 69 C560 116 589 178 589 245 C589 293 574 337 547 371 L543 371 L506 342 L506 338 C526 312 538 277 538 239 C538 190 519 145 487 109 L316 373 C288 415 261 456 261 498 C261 564 312 616 388 616 C436 616 475 591 498 554 L503 554 L537 582 L537 587 C505 633 453 662 390 662 C286 662 211 591 211 491 C211 476 213 463 217 449 C220 438 224 427 230 416 C142 372 80 291 80 194 C80 74 179 -15 310 -15 C370 -15 427 4 474 37 C497 5 525 -12 559 -12 C572 -12 588 -9 601 -2 L603 2 L597 35 Z M131 196 C131 273 183 342 252 379 L294 312 L449 74 C411 47 364 31 314 31 C209 31 131 101 131 196 L131 196 Z " />
<glyph glyph-name="quotesingle" unicode="&#x27;" horiz-adv-x="173" d="M148 417 L177 417 L230 650 L178 650 L148 417 Z " />
<glyph glyph-name="parenleft" unicode="&#x28;" horiz-adv-x="263" d="M144 211 C144 404 234 586 380 738 L323 738 C180 580 92 403 92 213 C92 101 119 -24 171 -116 L227 -116 C173 -28 144 97 144 211 L144 211 Z " />
<glyph glyph-name="parenright" unicode="&#x29;" horiz-adv-x="263" d="M-9 -116 L54 -116 C197 42 283 220 283 409 C283 521 256 646 205 738 L148 738 C202 651 231 525 231 411 C231 218 138 36 -9 -116 L-9 -116 Z " />
<glyph glyph-name="asterisk" unicode="&#x2a;" horiz-adv-x="439" d="M253 309 L295 309 L321 455 L431 382 L458 417 L347 490 L484 562 L470 598 L334 525 L360 670 L318 670 L292 526 L184 597 L157 562 L267 490 L131 417 L145 382 L280 454 L253 309 Z " />
<glyph glyph-name="plus" unicode="&#x2b;" horiz-adv-x="517" d="M544 322 L341 322 L376 520 L330 520 L294 322 L89 322 L82 279 L286 279 L250 79 L297 79 L333 279 L535 279 L544 322 Z " />
<glyph glyph-name="comma" unicode="&#x2c;" horiz-adv-x="199" d="M33 -133 L38 -133 C126 -39 154 1 154 36 C154 63 136 81 112 81 C80 81 59 58 59 31 C59 5 77 -12 94 -12 C79 -43 50 -77 18 -115 L18 -119 L33 -133 Z " />
<glyph glyph-name="hyphen" unicode="&#x2d;" horiz-adv-x="462" d="M124 321 L117 279 L446 279 L453 321 L124 321 Z " />
<glyph glyph-name="period" unicode="&#x2e;" horiz-adv-x="202" d="M100 -12 C128 -12 152 12 152 40 C152 64 134 82 110 82 C82 82 58 58 58 30 C58 7 76 -12 100 -12 L100 -12 Z " />
<glyph glyph-name="slash" unicode="&#x2f;" horiz-adv-x="484" d="M542 704 L13 -48 L15 -53 L60 -53 L588 700 L587 704 L542 704 Z " />
<glyph glyph-name="zero" unicode="0" horiz-adv-x="589" d="M309 -12 C492 -12 605 193 605 399 C605 560 528 662 400 662 C217 662 104 457 104 251 C104 90 182 -12 309 -12 L309 -12 Z M314 34 C214 34 156 123 156 257 C156 428 245 616 395 616 C495 616 554 527 554 393 C554 222 464 34 314 34 L314 34 Z " />
<glyph glyph-name="one" unicode="1" horiz-adv-x="280" d="M141 650 L133 603 L240 603 L132 0 L182 0 L299 650 L141 650 Z " />
<glyph glyph-name="two" unicode="2" horiz-adv-x="486" d="M348 249 C458 353 510 424 510 512 C510 603 437 662 340 662 C256 662 188 621 133 559 L132 554 L158 527 L163 527 C211 581 266 616 336 616 C408 616 458 574 458 505 C458 430 412 369 303 269 C236 207 154 133 41 37 L34 0 L446 0 L453 44 L117 44 C210 126 287 193 348 249 L348 249 Z " />
<glyph glyph-name="three" unicode="3" horiz-adv-x="499" d="M385 353 C456 382 507 445 507 522 C507 608 437 662 343 662 C273 662 212 633 156 582 L155 577 L180 550 L185 550 C227 590 278 616 339 616 C405 616 456 577 456 517 C456 434 375 371 288 371 L249 371 L242 332 L283 332 C370 332 432 284 432 199 C432 103 354 34 251 34 C186 34 122 60 86 115 L81 115 L46 87 L46 82 C89 18 169 -12 246 -12 C301 -12 353 4 392 31 C448 69 483 131 483 203 C483 276 445 329 385 353 L385 353 Z " />
<glyph glyph-name="four" unicode="4" horiz-adv-x="523" d="M524 213 L439 213 L518 650 L494 650 L56 206 L49 169 L381 169 L351 0 L401 0 L431 169 L516 169 L524 213 Z M125 213 L450 543 L390 213 L125 213 Z " />
<glyph glyph-name="five" unicode="5" horiz-adv-x="521" d="M533 603 L542 650 L214 650 L116 323 L147 306 L152 306 C185 345 248 379 317 379 C414 379 472 319 472 232 C472 173 448 122 410 86 C374 53 324 34 268 34 C203 34 138 63 104 114 L99 114 L67 87 L67 83 C109 23 190 -12 268 -12 C329 -12 392 8 438 46 C491 91 524 159 524 234 C524 346 450 426 325 426 C278 426 230 413 184 386 L249 603 L533 603 Z " />
<glyph glyph-name="six" unicode="6" horiz-adv-x="531" d="M341 424 C284 424 232 405 186 367 C212 408 245 454 286 498 C331 547 383 595 435 637 L435 642 L407 669 L402 669 C349 623 295 572 248 520 C149 409 82 291 82 183 C82 63 169 -12 291 -12 C432 -12 541 92 541 232 C541 345 457 424 341 424 L341 424 Z M294 34 C197 34 133 98 133 186 C133 295 221 377 330 377 C426 377 489 314 489 226 C489 117 404 34 294 34 L294 34 Z " />
<glyph glyph-name="seven" unicode="7" horiz-adv-x="439" d="M120 650 L111 603 L463 603 L96 3 L97 0 L152 0 L532 623 L538 650 L120 650 Z " />
<glyph glyph-name="eight" unicode="8" horiz-adv-x="553" d="M436 369 C497 399 538 456 538 523 C538 604 472 662 376 662 C266 662 172 585 172 482 C172 434 196 394 237 369 C145 336 81 259 81 164 C81 62 164 -12 285 -12 C430 -12 542 75 542 213 C542 283 502 341 436 369 L436 369 Z M224 488 C224 561 290 616 370 616 C438 616 485 574 485 517 C485 443 419 387 339 387 C270 387 224 429 224 488 L224 488 Z M291 34 C197 34 132 92 132 170 C132 270 223 344 333 344 C428 344 491 286 491 208 C491 104 407 34 291 34 L291 34 Z " />
<glyph glyph-name="nine" unicode="9" horiz-adv-x="530" d="M360 661 C220 661 109 558 109 417 C109 307 193 226 313 226 C363 226 418 246 465 287 C439 242 401 193 358 146 C318 101 270 55 226 14 L226 9 L255 -19 L260 -19 C309 28 359 78 401 129 C491 234 565 355 565 467 C565 586 481 661 360 661 L360 661 Z M317 272 C224 272 160 335 160 423 C160 532 247 615 356 615 C451 615 515 552 515 465 C515 356 424 272 317 272 L317 272 Z " />
<glyph glyph-name="colon" unicode="&#x3a;" horiz-adv-x="228" d="M192 413 C219 413 243 437 243 465 C243 488 225 507 201 507 C174 507 149 483 149 455 C149 432 167 413 192 413 L192 413 Z M116 -12 C143 -12 167 12 167 40 C167 64 150 82 125 82 C98 82 73 58 73 30 C73 7 91 -12 116 -12 L116 -12 Z " />
<glyph glyph-name="semicolon" unicode="&#x3b;" horiz-adv-x="249" d="M207 413 C234 413 258 437 258 465 C258 488 240 507 216 507 C189 507 164 483 164 455 C164 432 182 413 207 413 L207 413 Z M59 -133 L64 -133 C153 -39 180 1 180 36 C180 63 162 81 138 81 C107 81 85 58 85 31 C85 5 103 -12 121 -12 C106 -43 76 -77 44 -115 L44 -119 L59 -133 Z " />
<glyph glyph-name="less" unicode="&#x3c;" horiz-adv-x="470" d="M511 562 L507 565 L90 339 L84 305 L419 79 L424 82 L433 128 L150 320 L502 512 L511 562 Z " />
<glyph glyph-name="equal" unicode="&#x3d;" horiz-adv-x="590" d="M145 422 L138 378 L589 378 L596 422 L145 422 Z M109 222 L102 178 L553 178 L561 222 L109 222 Z " />
<glyph glyph-name="greater" unicode="&#x3e;" horiz-adv-x="470" d="M166 565 L162 562 L153 516 L434 325 L84 133 L75 82 L79 79 L495 305 L502 339 L166 565 Z " />
<glyph glyph-name="question" unicode="&#x3f;" horiz-adv-x="478" d="M238 135 L287 135 L294 177 C302 225 324 254 371 292 C436 347 525 403 525 511 C525 602 458 662 348 662 C252 662 156 594 118 503 L118 498 L156 487 L162 489 C193 562 268 616 338 616 C421 616 472 570 472 503 C472 415 399 371 340 322 C289 280 256 241 245 176 L238 135 Z M241 -12 C269 -12 293 12 293 40 C293 64 275 82 251 82 C223 82 199 58 199 30 C199 7 217 -12 241 -12 L241 -12 Z " />
<glyph glyph-name="at" unicode="&#x40;" horiz-adv-x="836" d="M408 -121 C490 -121 563 -94 617 -58 L617 -53 L601 -24 L596 -24 C543 -57 485 -79 412 -79 C248 -79 133 34 133 193 C133 413 298 579 509 579 C672 579 791 472 791 319 C791 196 734 103 660 103 C622 103 598 130 609 187 L653 434 L614 434 L601 357 C581 403 534 436 469 436 C347 436 260 337 260 219 C260 133 320 65 413 65 C478 65 532 97 569 146 C568 95 600 64 654 64 C755 64 838 163 838 322 C838 494 701 621 512 621 C272 621 86 433 86 191 C86 9 230 -121 408 -121 L408 -121 Z M422 102 C350 102 304 154 304 222 C304 315 371 399 466 399 C534 399 584 351 584 278 C584 176 511 102 422 102 L422 102 Z " />
<glyph glyph-name="A" unicode="A" horiz-adv-x="642" d="M452 650 L425 650 L20 5 L22 0 L73 0 L170 156 L533 156 L573 0 L620 0 L623 5 L452 650 Z M198 201 L426 567 L521 201 L198 201 Z " />
<glyph glyph-name="B" unicode="B" horiz-adv-x="597" d="M484 338 C551 364 606 421 606 508 C606 594 544 650 435 650 L213 650 L96 0 L341 0 C487 0 581 79 581 200 C581 266 544 316 484 338 L484 338 Z M255 605 L429 605 C509 605 555 566 555 502 C555 413 485 358 384 358 L211 358 L255 605 Z M350 45 L155 45 L203 315 L393 315 C477 315 530 269 530 201 C530 109 459 45 350 45 L350 45 Z " />
<glyph glyph-name="C" unicode="C" horiz-adv-x="679" d="M413 -12 C516 -12 609 31 682 109 L683 114 L652 141 L648 141 C586 74 503 35 415 35 C264 35 153 148 153 302 C153 394 190 480 257 538 C312 587 387 615 466 615 C561 615 641 573 683 506 L687 506 L724 531 L724 535 C677 612 580 662 468 662 C377 662 291 631 225 575 C146 507 102 407 102 300 C102 120 233 -12 413 -12 L413 -12 Z " />
<glyph glyph-name="D" unicode="D" horiz-adv-x="708" d="M455 650 L213 650 L96 0 L343 0 C579 0 724 153 724 383 C724 543 630 650 455 650 L455 650 Z M346 45 L155 45 L256 605 L450 605 C597 605 672 515 672 379 C672 180 553 45 346 45 L346 45 Z " />
<glyph glyph-name="E" unicode="E" horiz-adv-x="552" d="M618 605 L626 650 L213 650 L96 0 L509 0 L517 45 L155 45 L202 306 L490 306 L498 351 L210 351 L255 605 L618 605 Z " />
<glyph glyph-name="F" unicode="F" horiz-adv-x="501" d="M590 605 L599 650 L213 650 L96 0 L147 0 L202 306 L468 306 L476 351 L210 351 L255 605 L590 605 Z " />
<glyph glyph-name="G" unicode="G" horiz-adv-x="728" d="M407 -12 C493 -12 569 14 627 64 C694 121 737 210 752 317 C754 324 754 329 753 336 L749 340 L440 340 L431 295 L697 295 C684 216 648 145 592 98 C543 57 477 36 411 35 C259 35 150 149 150 302 C150 394 187 480 254 538 C309 587 384 615 463 615 C560 615 639 565 681 497 L685 497 L720 522 L721 527 C673 604 578 662 465 662 C374 662 288 631 222 575 C143 507 99 407 99 300 C99 120 229 -12 407 -12 L407 -12 Z " />
<glyph glyph-name="H" unicode="H" horiz-adv-x="693" d="M663 650 L608 351 L210 351 L264 650 L213 650 L96 0 L147 0 L202 306 L600 306 L546 0 L596 0 L713 650 L663 650 Z " />
<glyph glyph-name="I" unicode="I" horiz-adv-x="243" d="M213 650 L96 0 L147 0 L264 650 L213 650 Z " />
<glyph glyph-name="J" unicode="J" horiz-adv-x="471" d="M448 650 L364 182 C347 90 285 35 208 35 C141 35 94 72 73 119 L69 119 L34 93 L33 89 C58 34 114 -12 206 -12 C306 -12 392 56 415 181 L499 650 L448 650 Z " />
<glyph glyph-name="K" unicode="K" horiz-adv-x="569" d="M675 645 L673 650 L611 650 L202 303 L264 650 L213 650 L96 0 L147 0 L189 236 L300 330 L498 0 L552 0 L556 5 L340 362 L675 645 Z " />
<glyph glyph-name="L" unicode="L" horiz-adv-x="488" d="M481 45 L155 45 L264 650 L213 650 L96 0 L474 0 L481 45 Z " />
<glyph glyph-name="M" unicode="M" horiz-adv-x="792" d="M749 650 L409 82 L278 650 L251 650 L63 0 L111 0 L261 521 L382 0 L409 0 L720 520 L681 0 L729 0 L776 650 L749 650 Z " />
<glyph glyph-name="N" unicode="N" horiz-adv-x="692" d="M663 650 L562 89 L241 650 L213 650 L96 0 L146 0 L245 549 L566 -10 L593 -10 L713 650 L663 650 Z " />
<glyph glyph-name="O" unicode="O" horiz-adv-x="761" d="M412 -12 C503 -12 589 19 655 75 C734 143 778 243 778 350 C778 530 647 662 467 662 C376 662 290 631 224 575 C145 507 101 407 101 300 C101 120 232 -12 412 -12 L412 -12 Z M414 35 C263 35 152 148 152 302 C152 394 189 480 256 538 C311 587 386 615 465 615 C616 615 728 502 728 348 C728 256 690 170 623 112 C569 63 493 35 414 35 L414 35 Z " />
<glyph glyph-name="P" unicode="P" horiz-adv-x="567" d="M438 650 L213 650 L96 0 L147 0 L195 266 L376 266 C529 266 623 353 623 489 C623 586 556 650 438 650 L438 650 Z M392 310 L202 310 L255 605 L443 605 C524 605 570 559 570 485 C570 380 499 310 392 310 L392 310 Z " />
<glyph glyph-name="Q" unicode="Q" horiz-adv-x="783" d="M467 662 C376 662 290 631 224 575 C145 507 101 407 101 300 C101 120 232 -12 412 -12 C435 -12 457 -10 478 -6 L572 -135 L630 -135 L634 -130 L535 8 C579 22 620 45 655 75 C734 143 778 243 778 350 C778 530 647 662 467 662 L467 662 Z M623 112 C569 63 493 35 414 35 C263 35 152 148 152 302 C152 394 189 480 256 538 C311 587 386 615 465 615 C616 615 728 502 728 348 C728 256 690 170 623 112 L623 112 Z " />
<glyph glyph-name="R" unicode="R" horiz-adv-x="596" d="M633 497 C633 589 570 650 452 650 L213 650 L96 0 L147 0 L198 283 L389 283 L399 283 L489 0 L538 0 L542 5 L451 288 C568 308 633 386 633 497 L633 497 Z M408 327 L205 327 L255 605 L454 605 C536 605 580 559 580 492 C580 400 514 327 408 327 L408 327 Z " />
<glyph glyph-name="S" unicode="S" horiz-adv-x="520" d="M281 -12 C414 -12 510 58 510 177 C510 288 404 328 317 369 C254 399 204 427 204 486 C204 559 270 615 366 615 C433 615 490 585 521 535 L525 535 L558 564 L559 569 C523 628 453 662 370 662 C240 662 153 587 153 481 C153 391 220 356 281 326 C369 283 459 256 459 170 C459 90 388 35 283 35 C207 35 131 76 95 146 L90 146 L55 118 L54 113 C92 38 182 -12 281 -12 L281 -12 Z " />
<glyph glyph-name="T" unicode="T" horiz-adv-x="514" d="M390 605 L610 605 L618 650 L131 650 L122 605 L339 605 L231 0 L282 0 L390 605 Z " />
<glyph glyph-name="U" unicode="U" horiz-adv-x="695" d="M204 650 L133 254 C104 94 201 -12 358 -12 C514 -12 625 94 654 254 L725 650 L675 650 L604 256 C580 123 489 35 362 35 C234 35 159 123 184 256 L254 650 L204 650 Z " />
<glyph glyph-name="V" unicode="V" horiz-adv-x="621" d="M715 650 L660 650 L323 92 L190 650 L142 650 L138 645 L298 0 L325 0 L716 645 L715 650 Z " />
<glyph glyph-name="W" unicode="W" horiz-adv-x="918" d="M1009 650 L958 650 L667 102 L588 650 L560 650 L287 108 L197 650 L144 650 L140 645 L256 0 L283 0 L557 546 L636 0 L663 0 L1011 645 L1009 650 Z " />
<glyph glyph-name="X" unicode="X" horiz-adv-x="560" d="M653 645 L652 650 L594 650 L346 368 L199 650 L148 650 L144 645 L309 330 L13 5 L14 0 L72 0 L332 290 L491 0 L542 0 L546 5 L369 327 L653 645 Z " />
<glyph glyph-name="Y" unicode="Y" horiz-adv-x="605" d="M692 645 L690 650 L634 650 L353 294 L199 650 L149 650 L145 645 L322 249 L277 0 L327 0 L372 247 L692 645 Z " />
<glyph glyph-name="Z" unicode="Z" horiz-adv-x="532" d="M607 650 L155 650 L147 606 L526 606 L29 27 L24 0 L510 0 L519 44 L104 44 L602 623 L607 650 Z " />
<glyph glyph-name="bracketleft" unicode="&#x5b;" horiz-adv-x="267" d="M362 696 L369 738 L225 738 L72 -116 L216 -116 L223 -74 L128 -74 L267 696 L362 696 Z " />
<glyph glyph-name="backslash" unicode="&#x5c;" horiz-adv-x="483" d="M195 704 L151 704 L148 699 L405 -53 L450 -53 L453 -48 L195 704 Z " />
<glyph glyph-name="bracketright" unicode="&#x5d;" horiz-adv-x="266" d="M156 696 L251 696 L113 -74 L17 -74 L10 -116 L154 -116 L307 738 L163 738 L156 696 Z " />
<glyph glyph-name="asciicircum" unicode="&#x5e;" horiz-adv-x="569" d="M420 650 L388 650 L83 276 L85 272 L132 272 L393 592 L536 272 L583 272 L586 276 L420 650 Z " />
<glyph glyph-name="underscore" unicode="&#x5f;" horiz-adv-x="504" d="M30 -62 L24 -102 L445 -102 L451 -62 L30 -62 Z " />
<glyph glyph-name="grave" unicode="&#x60;" horiz-adv-x="271" d="M173 718 L170 718 L144 682 L145 679 L332 560 L336 560 L354 584 L354 588 L173 718 Z " />
<glyph glyph-name="a" unicode="a" horiz-adv-x="527" d="M481 454 C451 491 400 512 334 512 C262 512 188 480 143 435 L142 430 L165 401 L169 401 C210 441 273 467 332 467 C379 467 418 451 441 423 C462 397 469 360 461 314 L453 268 C411 293 353 310 290 310 C154 310 61 238 61 130 C61 44 132 -12 234 -12 C303 -12 371 17 417 70 L405 0 L453 0 L507 305 C519 367 510 418 481 454 L481 454 Z M238 33 C161 33 112 73 112 136 C112 213 185 266 287 266 C349 266 409 243 443 220 L436 179 C420 87 326 33 238 33 L238 33 Z " />
<glyph glyph-name="b" unicode="b" horiz-adv-x="623" d="M399 512 C321 512 256 480 208 427 L253 679 L249 682 L204 678 L82 0 L131 0 L153 127 C186 37 267 -12 355 -12 C510 -12 625 116 625 271 C625 411 531 512 399 512 L399 512 Z M352 33 C243 33 172 117 172 230 C172 362 263 467 392 467 C503 467 574 384 574 271 C574 140 480 33 352 33 L352 33 Z " />
<glyph glyph-name="c" unicode="c" horiz-adv-x="544" d="M325 -12 C403 -12 476 19 530 79 L530 84 L505 108 L500 108 C451 54 388 33 328 33 C214 33 137 117 137 234 C137 306 166 369 217 412 C256 445 310 467 373 467 C451 467 500 430 533 383 L538 383 L569 405 L569 410 C530 467 467 512 372 512 C302 512 240 490 191 450 C125 398 86 318 86 230 C86 89 189 -12 325 -12 L325 -12 Z " />
<glyph glyph-name="d" unicode="d" horiz-adv-x="622" d="M658 682 L613 678 L558 377 C524 464 444 512 356 512 C203 512 87 385 87 229 C87 89 181 -12 312 -12 C391 -12 459 23 507 80 L493 0 L540 0 L662 679 L658 682 Z M320 33 C210 33 138 116 138 230 C138 359 230 467 359 467 C468 467 539 383 539 271 C539 138 449 33 320 33 L320 33 Z " />
<glyph glyph-name="e" unicode="e" horiz-adv-x="567" d="M368 512 C300 512 240 489 193 452 C134 403 96 330 89 247 C73 101 172 -12 317 -12 C394 -12 478 18 536 85 L536 90 L511 115 L507 115 C458 60 387 33 322 33 C215 33 128 110 138 234 L568 234 C570 241 573 250 575 261 C599 392 512 512 368 512 L368 512 Z M143 279 C155 334 182 381 220 414 C257 447 307 467 365 467 C422 467 468 446 496 410 C524 375 533 330 528 279 L143 279 Z " />
<glyph glyph-name="f" unicode="f" horiz-adv-x="321" d="M470 666 C448 682 413 691 381 692 C345 693 309 684 279 663 C243 636 217 590 204 520 L200 500 L115 500 L108 457 L193 457 L111 0 L160 0 L242 457 L397 457 L404 500 L249 500 L253 520 C262 569 277 601 299 622 C319 641 345 648 374 648 C397 648 424 641 443 628 L448 630 L471 661 L470 666 Z " />
<glyph glyph-name="g" unicode="g" horiz-adv-x="594" d="M555 500 L536 396 C527 415 516 432 502 446 C462 489 404 512 346 512 C284 512 226 491 183 454 C129 408 95 338 95 260 C95 136 183 46 304 46 C366 46 425 70 469 109 C475 114 481 119 486 125 L476 67 C454 -52 374 -115 267 -115 C182 -115 119 -78 92 -21 L87 -21 L53 -46 L52 -50 C86 -118 167 -160 261 -160 C391 -160 498 -85 525 68 L603 500 L555 500 Z M438 132 C405 106 360 91 311 91 C211 91 145 162 145 260 C145 321 169 377 211 414 C246 447 295 466 348 466 C452 466 517 392 517 297 C517 230 488 170 438 132 L438 132 Z " />
<glyph glyph-name="h" unicode="h" horiz-adv-x="577" d="M394 512 C317 512 252 479 207 426 L253 679 L249 682 L204 678 L82 0 L131 0 L185 298 C189 317 196 345 209 367 C241 426 310 467 383 467 C427 467 461 453 482 428 C507 399 516 354 506 301 L453 0 L503 0 L558 305 C580 422 516 512 394 512 L394 512 Z " />
<glyph glyph-name="i" unicode="i" horiz-adv-x="218" d="M214 589 C242 589 266 613 266 642 C266 665 246 683 224 683 C195 683 172 658 172 629 C172 607 192 589 214 589 L214 589 Z M84 0 L133 0 L223 500 L174 500 L84 0 Z " />
<glyph glyph-name="j" unicode="j" horiz-adv-x="213" d="M216 589 C244 589 268 613 268 642 C268 665 248 683 226 683 C197 683 174 658 174 629 C174 607 194 589 216 589 L216 589 Z M172 500 L82 0 C70 -66 39 -96 -8 -121 L-8 -125 L4 -160 L9 -160 C71 -127 116 -87 132 6 L221 500 L172 500 Z " />
<glyph glyph-name="k" unicode="k" horiz-adv-x="478" d="M552 495 L550 500 L491 500 L172 226 L253 679 L249 682 L204 678 L82 0 L131 0 L159 158 L280 261 L416 0 L467 0 L471 5 L318 294 L552 495 Z " />
<glyph glyph-name="l" unicode="l" horiz-adv-x="218" d="M84 0 L133 0 L255 679 L251 682 L206 678 L84 0 Z " />
<glyph glyph-name="m" unicode="m" horiz-adv-x="930" d="M749 512 C664 512 587 464 547 399 C529 469 472 512 388 512 C315 512 250 479 205 426 L219 500 L172 500 L82 0 L132 0 L186 298 C190 316 196 342 206 361 C238 424 307 467 379 467 C421 467 453 453 474 428 C499 399 507 355 498 301 L444 0 L494 0 L550 306 C568 404 655 467 740 467 C782 467 814 453 835 428 C860 399 868 355 859 301 L806 0 L856 0 L910 305 C932 426 867 512 749 512 L749 512 Z " />
<glyph glyph-name="n" unicode="n" horiz-adv-x="577" d="M394 512 C316 512 250 478 205 423 L219 500 L172 500 L82 0 L132 0 L185 298 C189 320 198 348 212 371 C244 429 311 467 382 467 C479 467 524 400 507 301 L453 0 L503 0 L558 305 C580 422 516 512 394 512 L394 512 Z " />
<glyph glyph-name="o" unicode="o" horiz-adv-x="607" d="M328 -12 C397 -12 460 11 510 51 C575 104 613 184 613 270 C613 411 511 512 371 512 C301 512 238 489 188 449 C123 396 86 317 86 230 C86 89 188 -12 328 -12 L328 -12 Z M329 33 C217 33 136 117 136 233 C136 304 166 368 218 412 C258 446 311 467 369 467 C481 467 562 383 562 267 C562 196 532 132 480 88 C440 54 387 33 329 33 L329 33 Z " />
<glyph glyph-name="p" unicode="p" horiz-adv-x="623" d="M399 512 C318 512 251 476 204 420 L219 500 L172 500 L56 -150 L105 -150 L154 126 C187 37 267 -12 355 -12 C510 -12 625 116 625 271 C625 411 531 512 399 512 L399 512 Z M354 33 C244 33 172 117 172 230 C172 363 264 467 392 467 C502 467 574 384 574 271 C574 140 480 33 354 33 L354 33 Z " />
<glyph glyph-name="q" unicode="q" horiz-adv-x="623" d="M583 500 L560 373 C527 463 446 512 358 512 C203 512 88 384 88 229 C88 89 182 -12 314 -12 C392 -12 458 20 506 73 L466 -150 L515 -150 L631 500 L583 500 Z M322 33 C211 33 139 116 139 230 C139 360 233 467 361 467 C470 467 541 383 541 271 C541 138 451 33 322 33 L322 33 Z " />
<glyph glyph-name="r" unicode="r" horiz-adv-x="335" d="M420 498 C403 508 376 512 354 512 C316 512 282 501 255 480 C236 466 220 448 206 428 L218 500 L172 500 L82 0 L131 0 L183 291 C189 325 195 353 210 378 C236 429 282 466 343 466 C357 466 380 463 394 454 L399 456 L421 494 L420 498 Z " />
<glyph glyph-name="s" unicode="s" horiz-adv-x="418" d="M216 -12 C326 -12 401 48 401 143 C401 227 326 260 256 291 C212 312 177 334 177 375 C177 429 220 469 288 469 C337 469 384 443 406 402 L410 402 L444 425 L445 430 C419 480 360 512 294 512 C197 512 126 456 126 370 C126 308 175 274 227 251 C287 224 350 201 350 138 C350 74 299 32 219 32 C157 32 103 62 83 109 L79 109 L44 85 L43 80 C71 24 135 -12 216 -12 L216 -12 Z " />
<glyph glyph-name="t" unicode="t" horiz-adv-x="334" d="M234 457 L393 457 L400 500 L242 500 L270 659 L267 662 L221 658 L193 500 L107 500 L100 457 L185 457 L127 133 C110 37 155 -12 243 -12 C275 -12 304 -2 331 17 L333 22 L322 55 L317 57 C299 41 275 33 249 33 C189 33 164 66 176 134 L234 457 Z " />
<glyph glyph-name="u" unicode="u" horiz-adv-x="565" d="M524 500 L469 193 C465 170 458 149 448 130 C415 73 357 33 280 33 C188 33 143 96 159 191 L215 500 L165 500 L110 191 C88 68 156 -12 272 -12 C349 -12 408 21 450 72 L437 0 L484 0 L573 500 L524 500 Z " />
<glyph glyph-name="v" unicode="v" horiz-adv-x="507" d="M572 500 L522 500 L265 85 L154 500 L105 500 L102 495 L240 0 L266 0 L574 495 L572 500 Z " />
<glyph glyph-name="w" unicode="w" horiz-adv-x="730" d="M793 500 L744 500 L537 94 L464 500 L434 500 L222 94 L155 500 L108 500 L105 495 L194 0 L221 0 L434 408 L508 0 L534 0 L795 495 L793 500 Z " />
<glyph glyph-name="x" unicode="x" horiz-adv-x="474" d="M538 495 L536 500 L479 500 L286 290 L163 500 L112 500 L109 495 L250 256 L12 5 L14 0 L70 0 L273 218 L406 0 L457 0 L460 5 L309 251 L538 495 Z " />
<glyph glyph-name="y" unicode="y" horiz-adv-x="497" d="M563 500 L513 500 L262 83 L159 500 L111 500 L107 495 L226 22 L179 -55 C150 -103 125 -118 96 -118 C80 -118 63 -111 51 -101 L46 -103 L25 -135 L26 -140 C40 -151 65 -160 92 -160 C147 -160 182 -134 227 -61 L566 495 L563 500 Z " />
<glyph glyph-name="z" unicode="z" horiz-adv-x="449" d="M488 500 L124 500 L117 459 L416 459 L34 35 L28 0 L424 0 L431 41 L99 41 L482 465 L488 500 Z " />
<glyph glyph-name="braceleft" unicode="&#x7b;" horiz-adv-x="272" d="M210 -116 L230 -116 L237 -74 L219 -74 C143 -74 128 -48 146 52 L178 227 C187 277 175 311 149 311 C175 311 199 345 208 396 L240 570 C258 670 282 696 358 696 L376 696 L383 738 L363 738 C256 738 213 696 191 570 L166 430 C154 363 146 330 92 330 L86 292 C140 292 135 259 123 192 L97 52 C74 -74 103 -116 210 -116 L210 -116 Z " />
<glyph glyph-name="bar" unicode="&#x7c;" horiz-adv-x="227" d="M65 -146 L109 -146 L263 708 L219 708 L65 -146 Z " />
<glyph glyph-name="braceright" unicode="&#x7d;" horiz-adv-x="272" d="M206 396 C197 345 208 311 235 311 C208 311 184 277 175 227 L144 52 C126 -48 102 -74 27 -74 L8 -74 L0 -116 L21 -116 C128 -116 170 -74 193 52 L219 192 C231 259 237 292 291 292 L298 330 C244 330 249 363 261 430 L286 570 C308 696 281 738 174 738 L153 738 L146 696 L165 696 C241 696 255 670 238 570 L206 396 Z " />
<glyph glyph-name="asciitilde" unicode="&#x7e;" horiz-adv-x="566" d="M446 285 C506 285 536 308 556 328 L557 332 L539 365 L535 365 C518 345 490 330 454 330 C384 330 320 365 240 365 C184 365 150 342 129 321 L128 318 L147 285 L150 285 C166 305 205 320 233 320 C310 320 367 285 446 285 L446 285 Z " />
<glyph glyph-name="exclamdown" unicode="&#xa1;" horiz-adv-x="226" d="M191 418 C218 418 242 442 242 470 C242 493 224 512 200 512 C172 512 148 488 148 460 C148 437 166 418 191 418 L191 418 Z M61 -150 L112 -150 L115 -146 L200 365 L198 369 L161 369 L157 365 L58 -146 L61 -150 Z " />
<glyph glyph-name="cent" unicode="&#xa2;" horiz-adv-x="547" d="M412 586 L426 660 L381 660 L368 586 C215 574 99 446 99 288 C99 170 181 77 299 64 L286 -12 L330 -12 L343 64 C422 68 487 106 535 160 L536 164 L510 188 L505 188 C457 135 401 108 335 108 C223 108 150 188 150 291 C150 430 251 542 386 542 C456 542 515 511 548 462 L552 462 L585 486 L586 491 C555 543 490 581 412 586 L412 586 Z " />
<glyph glyph-name="sterling" unicode="&#xa3;" horiz-adv-x="508" d="M408 662 C291 662 213 594 193 479 L171 354 L114 354 L106 309 L163 309 L116 45 L53 45 L45 0 L474 0 L482 45 L166 45 L213 309 L407 309 L415 354 L221 354 L243 479 C259 566 310 617 400 617 C457 617 499 590 528 548 L533 548 L567 575 L568 580 C531 632 479 662 408 662 L408 662 Z " />
<glyph glyph-name="currency" unicode="&#xa4;" horiz-adv-x="646" d="M560 170 C608 221 635 285 635 356 C635 403 622 447 596 485 L666 547 L635 580 L566 518 C524 558 468 578 409 578 C349 578 291 559 239 519 L185 580 L148 547 L202 486 C153 432 128 367 128 299 C128 252 141 208 168 170 L98 108 L129 75 L198 137 C240 98 295 78 355 78 C414 78 472 98 523 137 L579 75 L616 108 L560 170 Z M358 125 C252 125 179 201 179 303 C179 430 282 531 404 531 C511 531 584 456 584 353 C584 228 484 125 358 125 L358 125 Z " />
<glyph glyph-name="yen" unicode="&#xa5;" horiz-adv-x="608" d="M689 645 L687 650 L631 650 L350 294 L196 650 L146 650 L142 645 L312 263 L182 263 L175 225 L315 225 L300 144 L160 144 L154 106 L293 106 L274 0 L324 0 L344 106 L484 106 L491 144 L351 144 L365 225 L506 225 L512 263 L383 263 L689 645 Z " />
<glyph glyph-name="brokenbar" unicode="&#xa6;" horiz-adv-x="227" d="M219 708 L153 341 L196 341 L263 708 L219 708 Z M134 241 L65 -146 L109 -146 L178 241 L134 241 Z " />
<glyph glyph-name="section" unicode="&#xa7;" horiz-adv-x="526" d="M514 549 L518 549 L552 576 L552 581 C514 632 448 662 371 662 C250 662 163 594 163 501 C163 463 182 433 210 412 C156 382 124 337 124 284 C124 204 204 169 285 134 C359 102 423 73 423 12 C423 -55 360 -108 254 -108 C169 -108 105 -73 72 -16 L67 -16 L32 -45 L31 -49 C68 -113 151 -151 250 -151 C387 -151 476 -83 476 19 C476 57 461 87 437 108 C486 139 516 185 516 238 C516 321 438 357 358 392 C283 424 217 452 217 510 C217 575 279 619 361 619 C427 619 483 591 514 549 L514 549 Z M177 293 C177 334 209 368 256 387 C342 338 463 312 463 230 C463 193 437 157 395 134 C307 189 177 211 177 293 L177 293 Z " />
<glyph glyph-name="dieresis" unicode="&#xa8;" horiz-adv-x="353" d="M209 589 C238 589 262 613 262 643 C262 665 242 683 220 683 C191 683 167 658 167 629 C167 606 186 589 209 589 L209 589 Z M362 589 C390 589 414 613 414 643 C414 665 395 683 372 683 C344 683 320 658 320 629 C320 606 339 589 362 589 L362 589 Z " />
<glyph glyph-name="copyright" unicode="&#xa9;" horiz-adv-x="758" d="M412 -12 C504 -12 588 19 653 74 C733 141 778 240 778 350 C778 530 647 662 467 662 C376 662 292 632 227 577 C147 510 101 411 101 300 C101 120 232 -12 412 -12 L412 -12 Z M414 35 C263 35 152 148 152 302 C152 398 191 483 259 541 C313 588 386 615 465 615 C616 615 728 502 728 348 C728 252 688 168 621 110 C567 63 494 35 414 35 L414 35 Z M431 128 C494 128 550 156 592 201 L592 205 L569 228 L565 228 C524 187 480 172 432 172 C352 172 298 225 298 308 C298 409 366 480 465 480 C520 480 556 459 581 422 L586 422 L617 444 L617 448 C587 493 536 525 466 525 C342 525 250 428 250 304 C250 202 330 128 431 128 L431 128 Z " />
<glyph glyph-name="ordfeminine" unicode="&#xaa;" horiz-adv-x="381" d="M302 661 C250 661 196 637 165 605 L164 602 L184 579 L188 579 C212 603 253 623 296 623 C346 623 381 593 372 541 L368 520 C341 531 307 539 271 539 C198 539 127 503 127 426 C127 374 173 339 234 339 C277 339 316 356 344 384 L337 342 L377 342 L413 542 C426 613 371 661 302 661 L302 661 Z M243 377 C201 377 171 399 171 431 C171 475 213 501 265 501 C306 501 339 491 359 482 L356 465 C348 415 299 377 243 377 L243 377 Z " />
<glyph glyph-name="guillemotleft" unicode="&#xab;" horiz-adv-x="426" d="M297 440 L297 443 L275 472 L271 472 L99 306 L96 294 L209 128 L213 128 L243 153 L243 156 L150 296 L297 440 Z M445 443 L422 472 L418 472 L246 306 L244 294 L357 128 L361 128 L390 153 L390 156 L298 296 L445 440 L445 443 Z " />
<glyph glyph-name="registered" unicode="&#xae;" horiz-adv-x="439" d="M329 665 C219 665 133 577 133 466 C133 384 200 318 287 318 C397 318 484 406 484 517 C484 599 417 665 329 665 L329 665 Z M292 349 C220 349 167 399 167 467 C167 557 236 634 325 634 C398 634 451 585 451 516 C451 426 381 349 292 349 L292 349 Z M331 594 L256 594 L221 395 L253 395 L268 477 L309 477 L335 395 L372 395 L343 480 C371 489 392 514 392 544 C392 576 371 594 331 594 L331 594 Z M318 502 L273 502 L284 565 L328 565 C347 565 358 554 358 539 C358 519 342 502 318 502 L318 502 Z " />
<glyph glyph-name="macron" unicode="&#xaf;" horiz-adv-x="512" d="M238 643 L230 600 L496 600 L504 643 L238 643 Z " />
<glyph glyph-name="degree" unicode="&#xb0;" horiz-adv-x="343" d="M244 404 C324 404 396 473 396 552 C396 614 353 662 291 662 C213 662 139 595 139 514 C139 453 183 404 244 404 L244 404 Z M251 444 C209 444 181 478 181 520 C181 575 231 622 283 622 C326 622 354 589 354 547 C354 491 305 444 251 444 L251 444 Z " />
<glyph glyph-name="plusminus" unicode="&#xb1;" horiz-adv-x="558" d="M365 346 L401 543 L354 543 L319 346 L114 346 L106 302 L311 302 L275 102 L321 102 L357 302 L561 302 L568 346 L365 346 Z M52 0 L506 0 L514 44 L60 44 L52 0 Z " />
<glyph glyph-name="acute" unicode="&#xb4;" horiz-adv-x="271" d="M325 718 L144 588 L144 584 L162 560 L166 560 L353 679 L354 682 L328 718 L325 718 Z " />
<glyph glyph-name="paragraph" unicode="&#xb6;" horiz-adv-x="618" d="M705 664 L713 708 L411 708 C241 708 114 642 114 458 C114 334 207 286 337 286 L375 286 L298 -143 L342 -143 L486 664 L705 664 Z M610 586 L479 -143 L436 -143 L567 586 L610 586 Z " />
<glyph glyph-name="periodcentered" unicode="&#xb7;" horiz-adv-x="233" d="M161 223 C192 223 220 251 220 282 C220 309 199 331 171 331 C140 331 112 303 112 272 C112 245 133 223 161 223 L161 223 Z " />
<glyph glyph-name="cedilla" unicode="&#xb8;" horiz-adv-x="290" d="M101 -209 C172 -209 219 -175 219 -119 C219 -78 184 -51 128 -52 L148 -2 L152 18 L106 18 L102 -2 L64 -82 L78 -91 C124 -82 171 -87 171 -122 C171 -152 146 -171 105 -171 C76 -171 55 -160 39 -146 L34 -146 L11 -173 L10 -178 C32 -197 67 -209 101 -209 L101 -209 Z " />
<glyph glyph-name="ordmasculine" unicode="&#xba;" horiz-adv-x="408" d="M277 340 C377 340 457 419 457 523 C457 604 397 662 313 662 C213 662 132 583 132 479 C132 398 193 340 277 340 L277 340 Z M281 381 C220 381 177 423 177 482 C177 562 235 621 309 621 C370 621 413 579 413 520 C413 441 355 381 281 381 L281 381 Z " />
<glyph glyph-name="guillemotright" unicode="&#xbb;" horiz-adv-x="426" d="M290 306 L178 472 L173 472 L144 447 L144 444 L236 304 L88 159 L88 156 L112 128 L116 128 L287 294 L290 306 Z M325 472 L321 472 L292 447 L292 444 L384 304 L235 159 L235 156 L259 128 L263 128 L435 294 L438 306 L325 472 Z " />
<glyph glyph-name="onequarter" unicode="&#xbc;" horiz-adv-x="643" d="M54 5 L55 0 L108 0 L712 645 L711 650 L658 650 L54 5 Z M162 280 L211 280 L278 650 L156 650 L148 608 L221 608 L162 280 Z M562 124 L605 366 L573 366 L335 113 L330 84 L511 84 L496 0 L539 0 L554 84 L599 84 L606 124 L562 124 Z M395 124 L548 284 L519 124 L395 124 Z " />
<glyph glyph-name="onehalf" unicode="&#xbd;" horiz-adv-x="697" d="M694 650 L641 650 L37 5 L38 0 L91 0 L695 645 L694 650 Z M172 280 L221 280 L288 650 L166 650 L158 608 L231 608 L172 280 Z M677 270 C677 333 630 366 573 366 C522 366 480 339 446 308 L445 303 L466 278 L471 278 C498 303 529 323 566 323 C603 323 630 301 630 266 C630 230 596 197 548 154 C501 113 461 81 397 26 L392 0 L647 0 L653 42 L482 42 C515 69 547 98 580 127 C635 177 677 216 677 270 L677 270 Z " />
<glyph glyph-name="threequarters" unicode="&#xbe;" horiz-adv-x="721" d="M352 399 C352 437 329 468 292 483 C332 501 359 533 359 577 C359 627 317 662 254 662 C216 662 174 644 145 616 L144 612 L162 589 L167 589 C189 609 218 622 248 622 C288 622 314 601 314 571 C314 529 275 498 231 498 L201 498 L195 464 L224 464 C275 464 307 437 307 396 C307 350 269 317 216 317 C182 317 143 334 124 360 L119 360 L97 337 L96 333 C118 300 167 277 213 277 C293 277 352 329 352 399 L352 399 Z M786 650 L733 650 L129 5 L130 0 L183 0 L787 645 L786 650 Z M647 366 L410 113 L405 84 L585 84 L570 0 L614 0 L629 84 L673 84 L680 124 L636 124 L680 366 L647 366 Z M593 124 L468 124 L622 285 L593 124 Z " />
<glyph glyph-name="questiondown" unicode="&#xbf;" horiz-adv-x="470" d="M315 424 C342 424 367 448 367 476 C367 499 349 518 325 518 C297 518 273 494 273 466 C273 443 291 424 315 424 L315 424 Z M217 -156 C313 -156 409 -88 446 4 L446 9 L408 19 L402 17 C372 -56 296 -110 226 -110 C143 -110 92 -64 92 3 C92 92 166 135 225 184 C277 226 308 265 320 330 L328 371 L279 371 L271 329 C262 281 240 252 194 214 C128 159 39 103 39 -5 C39 -96 106 -156 217 -156 L217 -156 Z " />
<glyph glyph-name="Agrave" unicode="&#xc0;" horiz-adv-x="642" d="M540 709 L556 732 L555 736 L380 851 L377 851 L354 814 L354 810 L536 709 L540 709 Z M452 650 L425 650 L20 5 L22 0 L73 0 L170 156 L533 156 L573 0 L620 0 L623 5 L452 650 Z M198 201 L426 567 L521 201 L198 201 Z " />
<glyph glyph-name="Aacute" unicode="&#xc1;" horiz-adv-x="642" d="M373 709 L555 810 L556 814 L533 851 L529 851 L354 736 L354 732 L369 709 L373 709 Z M452 650 L425 650 L20 5 L22 0 L73 0 L170 156 L533 156 L573 0 L620 0 L623 5 L452 650 Z M198 201 L426 567 L521 201 L198 201 Z " />
<glyph glyph-name="Acircumflex" unicode="&#xc2;" horiz-adv-x="642" d="M315 718 L459 790 L572 721 L575 721 L597 747 L597 751 L467 841 L461 841 L298 751 L298 747 L312 718 L315 718 Z M452 650 L425 650 L20 5 L22 0 L73 0 L170 156 L533 156 L573 0 L620 0 L623 5 L452 650 Z M198 201 L426 567 L521 201 L198 201 Z " />
<glyph glyph-name="Atilde" unicode="&#xc3;" horiz-adv-x="642" d="M320 732 C333 755 356 768 381 768 C433 768 465 732 515 732 C545 732 571 743 586 767 L594 809 L592 812 L585 812 C571 790 548 777 522 777 C481 777 441 813 390 813 C360 813 333 801 318 778 L311 735 L312 732 L320 732 Z M452 650 L425 650 L20 5 L22 0 L73 0 L170 156 L533 156 L573 0 L620 0 L623 5 L452 650 Z M198 201 L426 567 L521 201 L198 201 Z " />
<glyph glyph-name="Adieresis" unicode="&#xc4;" horiz-adv-x="642" d="M362 728 C391 728 415 753 415 782 C415 805 396 822 373 822 C345 822 320 798 320 768 C320 746 339 728 362 728 L362 728 Z M536 728 C565 728 589 753 589 782 C589 805 569 822 546 822 C518 822 493 798 493 768 C493 746 513 728 536 728 L536 728 Z M452 650 L425 650 L20 5 L22 0 L73 0 L170 156 L533 156 L573 0 L620 0 L623 5 L452 650 Z M198 201 L426 567 L521 201 L198 201 Z " />
<glyph glyph-name="Aring" unicode="&#xc5;" horiz-adv-x="642" d="M448 702 C502 702 546 748 546 801 C546 846 510 879 465 879 C412 879 368 834 368 781 C368 736 404 702 448 702 L448 702 Z M463 843 C490 843 508 822 508 797 C508 768 486 739 451 739 C424 739 406 760 406 784 C406 814 428 843 463 843 L463 843 Z M452 650 L425 650 L20 5 L22 0 L73 0 L170 156 L533 156 L573 0 L620 0 L623 5 L452 650 Z M198 201 L426 567 L521 201 L198 201 Z " />
<glyph glyph-name="AE" unicode="&#xc6;" horiz-adv-x="930" d="M978 605 L986 650 L552 650 L-9 5 L-7 0 L48 0 L184 156 L484 156 L456 0 L869 0 L877 45 L514 45 L561 306 L850 306 L858 351 L570 351 L615 605 L978 605 Z M492 201 L223 201 L562 590 L492 201 Z " />
<glyph glyph-name="Ccedilla" unicode="&#xc7;" horiz-adv-x="679" d="M468 662 C377 662 291 631 225 575 C146 507 102 407 102 300 C102 139 206 17 356 -7 L322 -80 L336 -89 C382 -80 429 -85 429 -120 C429 -150 404 -169 363 -169 C334 -169 313 -158 297 -144 L292 -144 L269 -171 L268 -176 C290 -195 325 -207 359 -207 C430 -207 477 -173 477 -117 C477 -76 442 -49 386 -50 L401 -12 L413 -12 C516 -12 609 31 682 109 L683 114 L652 141 L648 141 C586 74 503 35 415 35 C264 35 153 148 153 302 C153 394 190 480 257 538 C312 587 387 615 466 615 C561 615 641 573 683 506 L687 506 L724 531 L724 535 C677 612 580 662 468 662 L468 662 Z " />
<glyph glyph-name="Egrave" unicode="&#xc8;" horiz-adv-x="552" d="M354 851 L351 851 L328 814 L328 810 L510 709 L514 709 L530 732 L529 736 L354 851 Z M618 605 L626 650 L213 650 L96 0 L509 0 L517 45 L155 45 L202 306 L490 306 L498 351 L210 351 L255 605 L618 605 Z " />
<glyph glyph-name="Eacute" unicode="&#xc9;" horiz-adv-x="552" d="M512 851 L337 736 L337 732 L352 709 L356 709 L538 810 L539 814 L516 851 L512 851 Z M618 605 L626 650 L213 650 L96 0 L509 0 L517 45 L155 45 L202 306 L490 306 L498 351 L210 351 L255 605 L618 605 Z " />
<glyph glyph-name="Ecircumflex" unicode="&#xca;" horiz-adv-x="552" d="M293 718 L437 790 L550 721 L553 721 L575 747 L575 751 L445 841 L439 841 L276 751 L276 747 L290 718 L293 718 Z M618 605 L626 650 L213 650 L96 0 L509 0 L517 45 L155 45 L202 306 L490 306 L498 351 L210 351 L255 605 L618 605 Z " />
<glyph glyph-name="Edieresis" unicode="&#xcb;" horiz-adv-x="552" d="M340 728 C369 728 393 753 393 782 C393 805 374 822 351 822 C323 822 298 798 298 768 C298 746 317 728 340 728 L340 728 Z M514 728 C543 728 567 753 567 782 C567 805 547 822 524 822 C496 822 471 798 471 768 C471 746 491 728 514 728 L514 728 Z M618 605 L626 650 L213 650 L96 0 L509 0 L517 45 L155 45 L202 306 L490 306 L498 351 L210 351 L255 605 L618 605 Z " />
<glyph glyph-name="Igrave" unicode="&#xcc;" horiz-adv-x="243" d="M186 851 L183 851 L160 814 L160 810 L342 709 L346 709 L362 732 L361 736 L186 851 Z M213 650 L96 0 L147 0 L264 650 L213 650 Z " />
<glyph glyph-name="Iacute" unicode="&#xcd;" horiz-adv-x="243" d="M328 851 L153 736 L153 732 L168 709 L172 709 L354 810 L355 814 L332 851 L328 851 Z M213 650 L96 0 L147 0 L264 650 L213 650 Z " />
<glyph glyph-name="Icircumflex" unicode="&#xce;" horiz-adv-x="243" d="M273 841 L267 841 L104 751 L104 747 L118 718 L121 718 L265 790 L378 721 L381 721 L403 747 L403 751 L273 841 Z M96 0 L147 0 L264 650 L213 650 L96 0 Z " />
<glyph glyph-name="Idieresis" unicode="&#xcf;" horiz-adv-x="243" d="M168 728 C197 728 221 753 221 782 C221 805 202 822 179 822 C151 822 126 798 126 768 C126 746 145 728 168 728 L168 728 Z M342 728 C371 728 395 753 395 782 C395 805 375 822 352 822 C324 822 299 798 299 768 C299 746 319 728 342 728 L342 728 Z M213 650 L96 0 L147 0 L264 650 L213 650 Z " />
<glyph glyph-name="Eth" unicode="&#xd0;" horiz-adv-x="728" d="M461 650 L219 650 L165 350 L84 350 L76 305 L157 305 L102 0 L349 0 C585 0 730 153 730 383 C730 543 636 650 461 650 L461 650 Z M352 45 L161 45 L208 305 L405 305 L413 350 L216 350 L262 605 L456 605 C603 605 678 515 678 379 C678 180 559 45 352 45 L352 45 Z " />
<glyph glyph-name="Ntilde" unicode="&#xd1;" horiz-adv-x="692" d="M332 732 C346 755 370 768 397 768 C452 768 486 732 539 732 C571 732 599 743 615 767 L623 809 L621 812 L613 812 C599 790 574 777 547 777 C503 777 460 813 406 813 C375 813 346 801 330 778 L322 735 L324 732 L332 732 Z M663 650 L562 89 L241 650 L213 650 L96 0 L146 0 L245 549 L566 -10 L593 -10 L713 650 L663 650 Z " />
<glyph glyph-name="Ograve" unicode="&#xd2;" horiz-adv-x="761" d="M422 851 L419 851 L396 814 L396 810 L578 709 L582 709 L598 732 L597 736 L422 851 Z M412 -12 C503 -12 589 19 655 75 C734 143 778 243 778 350 C778 530 647 662 467 662 C376 662 290 631 224 575 C145 507 101 407 101 300 C101 120 232 -12 412 -12 L412 -12 Z M414 35 C263 35 152 148 152 302 C152 394 189 480 256 538 C311 587 386 615 465 615 C616 615 728 502 728 348 C728 256 690 170 623 112 C569 63 493 35 414 35 L414 35 Z " />
<glyph glyph-name="Oacute" unicode="&#xd3;" horiz-adv-x="761" d="M580 851 L405 736 L405 732 L420 709 L424 709 L606 810 L607 814 L584 851 L580 851 Z M412 -12 C503 -12 589 19 655 75 C734 143 778 243 778 350 C778 530 647 662 467 662 C376 662 290 631 224 575 C145 507 101 407 101 300 C101 120 232 -12 412 -12 L412 -12 Z M414 35 C263 35 152 148 152 302 C152 394 189 480 256 538 C311 587 386 615 465 615 C616 615 728 502 728 348 C728 256 690 170 623 112 C569 63 493 35 414 35 L414 35 Z " />
<glyph glyph-name="Ocircumflex" unicode="&#xd4;" horiz-adv-x="761" d="M361 718 L505 790 L618 721 L621 721 L643 747 L643 751 L513 841 L507 841 L344 751 L344 747 L358 718 L361 718 Z M467 662 C376 662 290 631 224 575 C145 507 101 407 101 300 C101 120 232 -12 412 -12 C503 -12 589 19 655 75 C734 143 778 243 778 350 C778 530 647 662 467 662 L467 662 Z M623 112 C569 63 493 35 414 35 C263 35 152 148 152 302 C152 394 189 480 256 538 C311 587 386 615 465 615 C616 615 728 502 728 348 C728 256 690 170 623 112 L623 112 Z " />
<glyph glyph-name="Otilde" unicode="&#xd5;" horiz-adv-x="761" d="M566 732 C598 732 626 743 642 767 L650 809 L648 812 L640 812 C626 790 601 777 574 777 C530 777 487 813 433 813 C402 813 373 801 357 778 L349 735 L351 732 L359 732 C373 755 397 768 424 768 C479 768 513 732 566 732 L566 732 Z M412 -12 C503 -12 589 19 655 75 C734 143 778 243 778 350 C778 530 647 662 467 662 C376 662 290 631 224 575 C145 507 101 407 101 300 C101 120 232 -12 412 -12 L412 -12 Z M414 35 C263 35 152 148 152 302 C152 394 189 480 256 538 C311 587 386 615 465 615 C616 615 728 502 728 348 C728 256 690 170 623 112 C569 63 493 35 414 35 L414 35 Z " />
<glyph glyph-name="Odieresis" unicode="&#xd6;" horiz-adv-x="761" d="M408 728 C437 728 461 753 461 782 C461 805 442 822 419 822 C391 822 366 798 366 768 C366 746 385 728 408 728 L408 728 Z M582 728 C611 728 635 753 635 782 C635 805 615 822 592 822 C564 822 539 798 539 768 C539 746 559 728 582 728 L582 728 Z M412 -12 C503 -12 589 19 655 75 C734 143 778 243 778 350 C778 530 647 662 467 662 C376 662 290 631 224 575 C145 507 101 407 101 300 C101 120 232 -12 412 -12 L412 -12 Z M414 35 C263 35 152 148 152 302 C152 394 189 480 256 538 C311 587 386 615 465 615 C616 615 728 502 728 348 C728 256 690 170 623 112 C569 63 493 35 414 35 L414 35 Z " />
<glyph glyph-name="multiply" unicode="&#xd7;" horiz-adv-x="512" d="M538 507 L509 540 L310 362 L161 538 L125 506 L275 329 L74 150 L103 117 L304 296 L456 115 L491 148 L338 328 L538 507 Z " />
<glyph glyph-name="Oslash" unicode="&#xd8;" horiz-adv-x="761" d="M684 579 L786 702 L784 707 L728 707 L647 609 C597 643 536 662 467 662 C376 662 290 631 224 575 C145 507 101 407 101 300 C101 206 137 124 197 68 L103 -45 L105 -50 L161 -50 L235 39 C284 6 345 -12 412 -12 C503 -12 589 19 655 75 C734 143 778 243 778 350 C778 443 743 524 684 579 L684 579 Z M152 302 C152 394 189 480 256 538 C311 587 386 615 465 615 C522 615 573 599 615 571 L230 107 C181 155 152 223 152 302 L152 302 Z M623 112 C569 63 493 35 414 35 C358 35 308 50 267 77 L652 541 C699 493 728 426 728 348 C728 256 690 170 623 112 L623 112 Z " />
<glyph glyph-name="Ugrave" unicode="&#xd9;" horiz-adv-x="695" d="M397 851 L394 851 L371 814 L371 810 L553 709 L557 709 L573 732 L572 736 L397 851 Z M204 650 L133 254 C104 94 201 -12 358 -12 C514 -12 625 94 654 254 L725 650 L675 650 L604 256 C580 123 489 35 362 35 C234 35 159 123 184 256 L254 650 L204 650 Z " />
<glyph glyph-name="Uacute" unicode="&#xda;" horiz-adv-x="695" d="M555 851 L380 736 L380 732 L395 709 L399 709 L581 810 L582 814 L559 851 L555 851 Z M204 650 L133 254 C104 94 201 -12 358 -12 C514 -12 625 94 654 254 L725 650 L675 650 L604 256 C580 123 489 35 362 35 C234 35 159 123 184 256 L254 650 L204 650 Z " />
<glyph glyph-name="Ucircumflex" unicode="&#xdb;" horiz-adv-x="695" d="M336 718 L480 790 L593 721 L596 721 L618 747 L618 751 L488 841 L482 841 L319 751 L319 747 L333 718 L336 718 Z M675 650 L604 256 C580 123 489 35 362 35 C234 35 159 123 184 256 L254 650 L204 650 L133 254 C104 94 201 -12 358 -12 C514 -12 625 94 654 254 L725 650 L675 650 Z " />
<glyph glyph-name="Udieresis" unicode="&#xdc;" horiz-adv-x="695" d="M383 728 C412 728 436 753 436 782 C436 805 417 822 394 822 C366 822 341 798 341 768 C341 746 360 728 383 728 L383 728 Z M557 728 C586 728 610 753 610 782 C610 805 590 822 567 822 C539 822 514 798 514 768 C514 746 534 728 557 728 L557 728 Z M204 650 L133 254 C104 94 201 -12 358 -12 C514 -12 625 94 654 254 L725 650 L675 650 L604 256 C580 123 489 35 362 35 C234 35 159 123 184 256 L254 650 L204 650 Z " />
<glyph glyph-name="Yacute" unicode="&#xdd;" horiz-adv-x="605" d="M348 709 L530 810 L531 814 L508 851 L504 851 L329 736 L329 732 L344 709 L348 709 Z M692 645 L690 650 L634 650 L353 294 L199 650 L149 650 L145 645 L322 249 L277 0 L327 0 L372 247 L692 645 Z " />
<glyph glyph-name="Thorn" unicode="&#xde;" horiz-adv-x="575" d="M96 0 L147 0 L171 133 L346 133 C500 133 594 220 594 357 C594 455 527 517 410 517 L240 517 L264 650 L213 650 L96 0 Z M179 177 L232 472 L414 472 C494 472 542 426 542 352 C542 247 471 177 363 177 L179 177 Z " />
<glyph glyph-name="germandbls" unicode="&#xdf;" horiz-adv-x="568" d="M462 370 C531 400 580 460 580 539 C580 630 508 692 402 692 C346 692 295 676 255 643 C210 606 181 549 168 476 L82 0 L131 0 L216 474 C226 531 249 579 284 608 C315 635 356 647 399 647 C476 647 528 602 528 534 C528 450 456 387 364 387 L332 387 L324 347 L359 347 C451 347 512 300 512 213 C512 105 434 32 328 32 C287 32 251 43 225 67 L220 66 L196 34 L197 30 C224 3 274 -12 328 -12 C462 -12 563 81 563 217 C563 294 527 347 462 370 L462 370 Z " />
<glyph glyph-name="agrave" unicode="&#xe0;" horiz-adv-x="527" d="M287 718 L284 718 L258 682 L259 679 L446 560 L450 560 L468 584 L468 588 L287 718 Z M481 454 C451 491 400 512 334 512 C262 512 188 480 143 435 L142 430 L165 401 L169 401 C210 441 273 467 332 467 C379 467 418 451 441 423 C462 397 469 360 461 314 L453 268 C411 293 353 310 290 310 C154 310 61 238 61 130 C61 44 132 -12 234 -12 C303 -12 371 17 417 70 L405 0 L453 0 L507 305 C519 367 510 418 481 454 L481 454 Z M238 33 C161 33 112 73 112 136 C112 213 185 266 287 266 C349 266 409 243 443 220 L436 179 C420 87 326 33 238 33 L238 33 Z " />
<glyph glyph-name="aacute" unicode="&#xe1;" horiz-adv-x="527" d="M440 718 L259 588 L259 584 L277 560 L281 560 L468 679 L469 682 L443 718 L440 718 Z M481 454 C451 491 400 512 334 512 C262 512 188 480 143 435 L142 430 L165 401 L169 401 C210 441 273 467 332 467 C379 467 418 451 441 423 C462 397 469 360 461 314 L453 268 C411 293 353 310 290 310 C154 310 61 238 61 130 C61 44 132 -12 234 -12 C303 -12 371 17 417 70 L405 0 L453 0 L507 305 C519 367 510 418 481 454 L481 454 Z M238 33 C161 33 112 73 112 136 C112 213 185 266 287 266 C349 266 409 243 443 220 L436 179 C420 87 326 33 238 33 L238 33 Z " />
<glyph glyph-name="acircumflex" unicode="&#xe2;" horiz-adv-x="527" d="M234 567 L369 641 L473 570 L477 570 L501 594 L501 598 L380 690 L369 690 L214 598 L214 594 L230 567 L234 567 Z M481 454 C451 491 400 512 334 512 C262 512 188 480 143 435 L142 430 L165 401 L169 401 C210 441 273 467 332 467 C379 467 418 451 441 423 C462 397 469 360 461 314 L453 268 C411 293 353 310 290 310 C154 310 61 238 61 130 C61 44 132 -12 234 -12 C303 -12 371 17 417 70 L405 0 L453 0 L507 305 C519 367 510 418 481 454 L481 454 Z M436 179 C420 87 326 33 238 33 C161 33 112 73 112 136 C112 213 185 266 287 266 C349 266 409 243 443 220 L436 179 Z " />
<glyph glyph-name="atilde" unicode="&#xe3;" horiz-adv-x="527" d="M431 598 C465 598 488 611 503 633 L510 674 L508 676 L500 676 C488 656 473 642 437 642 C397 642 347 677 298 677 C270 677 242 663 226 642 L220 601 L222 598 L229 598 C242 619 263 632 293 632 C344 632 385 598 431 598 L431 598 Z M481 454 C451 491 400 512 334 512 C262 512 188 480 143 435 L142 430 L165 401 L169 401 C210 441 273 467 332 467 C379 467 418 451 441 423 C462 397 469 360 461 314 L453 268 C411 293 353 310 290 310 C154 310 61 238 61 130 C61 44 132 -12 234 -12 C303 -12 371 17 417 70 L405 0 L453 0 L507 305 C519 367 510 418 481 454 L481 454 Z M238 33 C161 33 112 73 112 136 C112 213 185 266 287 266 C349 266 409 243 443 220 L436 179 C420 87 326 33 238 33 L238 33 Z " />
<glyph glyph-name="adieresis" unicode="&#xe4;" horiz-adv-x="527" d="M283 589 C312 589 336 613 336 643 C336 665 316 683 294 683 C265 683 241 658 241 629 C241 606 260 589 283 589 L283 589 Z M436 589 C464 589 488 613 488 643 C488 665 469 683 446 683 C418 683 394 658 394 629 C394 606 413 589 436 589 L436 589 Z M481 454 C451 491 400 512 334 512 C262 512 188 480 143 435 L142 430 L165 401 L169 401 C210 441 273 467 332 467 C379 467 418 451 441 423 C462 397 469 360 461 314 L453 268 C411 293 353 310 290 310 C154 310 61 238 61 130 C61 44 132 -12 234 -12 C303 -12 371 17 417 70 L405 0 L453 0 L507 305 C519 367 510 418 481 454 L481 454 Z M238 33 C161 33 112 73 112 136 C112 213 185 266 287 266 C349 266 409 243 443 220 L436 179 C420 87 326 33 238 33 L238 33 Z " />
<glyph glyph-name="aring" unicode="&#xe5;" horiz-adv-x="527" d="M357 552 C410 552 455 598 455 651 C455 696 419 730 374 730 C320 730 276 684 276 631 C276 586 312 552 357 552 L357 552 Z M360 590 C333 590 316 611 316 634 C316 664 337 692 371 692 C398 692 415 671 415 648 C415 619 393 590 360 590 L360 590 Z M481 454 C451 491 400 512 334 512 C262 512 188 480 143 435 L142 430 L165 401 L169 401 C210 441 273 467 332 467 C379 467 418 451 441 423 C462 397 469 360 461 314 L453 268 C411 293 353 310 290 310 C154 310 61 238 61 130 C61 44 132 -12 234 -12 C303 -12 371 17 417 70 L405 0 L453 0 L507 305 C519 367 510 418 481 454 L481 454 Z M238 33 C161 33 112 73 112 136 C112 213 185 266 287 266 C349 266 409 243 443 220 L436 179 C420 87 326 33 238 33 L238 33 Z " />
<glyph glyph-name="ae" unicode="&#xe6;" horiz-adv-x="945" d="M730 512 C662 512 602 489 556 452 C537 436 520 418 505 397 C489 471 430 512 335 512 C253 512 186 476 139 431 L138 426 L161 397 L165 397 C207 437 264 467 332 467 C379 467 418 451 441 423 C462 397 469 360 461 314 L457 289 C455 282 454 276 453 269 C410 293 353 310 290 310 C154 310 61 238 61 130 C61 44 131 -12 234 -12 C328 -12 422 37 467 123 C502 36 583 -12 679 -12 C757 -12 840 18 898 85 L899 90 L873 115 L869 115 C820 60 749 33 684 33 C578 33 494 107 500 234 L930 234 C933 241 935 250 937 261 C962 392 874 512 730 512 L730 512 Z M889 280 L508 280 C518 334 544 381 582 414 C619 447 669 467 727 467 C785 467 831 445 858 410 C886 374 895 331 889 280 L889 280 Z M238 33 C161 33 112 73 112 136 C112 213 185 266 287 266 C351 266 411 241 444 220 L437 181 C420 89 327 33 238 33 L238 33 Z " />
<glyph glyph-name="ccedilla" unicode="&#xe7;" horiz-adv-x="544" d="M372 512 C302 512 240 490 191 450 C125 398 86 318 86 230 C86 101 172 5 291 -10 L258 -80 L272 -89 C318 -80 365 -85 365 -120 C365 -150 340 -169 299 -169 C270 -169 249 -158 233 -144 L228 -144 L205 -171 L204 -176 C226 -195 261 -207 295 -207 C366 -207 413 -173 413 -117 C413 -76 378 -49 322 -50 L337 -12 C411 -9 479 22 530 79 L530 84 L505 108 L500 108 C451 54 388 33 328 33 C214 33 137 117 137 234 C137 306 166 369 217 412 C256 445 310 467 373 467 C451 467 500 430 533 383 L538 383 L569 405 L569 410 C530 467 467 512 372 512 L372 512 Z " />
<glyph glyph-name="egrave" unicode="&#xe8;" horiz-adv-x="567" d="M472 560 L476 560 L494 584 L494 588 L313 718 L310 718 L284 682 L285 679 L472 560 Z M368 512 C300 512 240 489 193 452 C134 403 96 330 89 247 C73 101 172 -12 317 -12 C394 -12 478 18 536 85 L536 90 L511 115 L507 115 C458 60 387 33 322 33 C215 33 128 110 138 234 L568 234 C570 241 573 250 575 261 C599 392 512 512 368 512 L368 512 Z M143 279 C155 334 182 381 220 414 C257 447 307 467 365 467 C422 467 468 446 496 410 C524 375 533 330 528 279 L143 279 Z " />
<glyph glyph-name="eacute" unicode="&#xe9;" horiz-adv-x="567" d="M307 560 L494 679 L495 682 L469 718 L466 718 L285 588 L285 584 L303 560 L307 560 Z M368 512 C300 512 240 489 193 452 C134 403 96 330 89 247 C73 101 172 -12 317 -12 C394 -12 478 18 536 85 L536 90 L511 115 L507 115 C458 60 387 33 322 33 C215 33 128 110 138 234 L568 234 C570 241 573 250 575 261 C599 392 512 512 368 512 L368 512 Z M143 279 C155 334 182 381 220 414 C257 447 307 467 365 467 C422 467 468 446 496 410 C524 375 533 330 528 279 L143 279 Z " />
<glyph glyph-name="ecircumflex" unicode="&#xea;" horiz-adv-x="567" d="M260 567 L395 641 L499 570 L503 570 L527 594 L527 598 L406 690 L395 690 L240 598 L240 594 L256 567 L260 567 Z M368 512 C300 512 240 489 193 452 C134 403 96 330 89 247 C73 101 172 -12 317 -12 C394 -12 478 18 536 85 L536 90 L511 115 L507 115 C458 60 387 33 322 33 C215 33 128 110 138 234 L568 234 C570 241 573 250 575 261 C599 392 512 512 368 512 L368 512 Z M143 279 C155 334 182 381 220 414 C257 447 307 467 365 467 C422 467 468 446 496 410 C524 375 533 330 528 279 L143 279 Z " />
<glyph glyph-name="edieresis" unicode="&#xeb;" horiz-adv-x="567" d="M309 589 C338 589 362 613 362 643 C362 665 342 683 320 683 C291 683 267 658 267 629 C267 606 286 589 309 589 L309 589 Z M462 589 C490 589 514 613 514 643 C514 665 495 683 472 683 C444 683 420 658 420 629 C420 606 439 589 462 589 L462 589 Z M368 512 C300 512 240 489 193 452 C134 403 96 330 89 247 C73 101 172 -12 317 -12 C394 -12 478 18 536 85 L536 90 L511 115 L507 115 C458 60 387 33 322 33 C215 33 128 110 138 234 L568 234 C570 241 573 250 575 261 C599 392 512 512 368 512 L368 512 Z M143 279 C155 334 182 381 220 414 C257 447 307 467 365 467 C422 467 468 446 496 410 C524 375 533 330 528 279 L143 279 Z " />
<glyph glyph-name="igrave" unicode="&#xec;" horiz-adv-x="218" d="M141 718 L138 718 L112 682 L113 679 L300 560 L304 560 L322 584 L322 588 L141 718 Z M84 0 L133 0 L223 500 L174 500 L84 0 Z " />
<glyph glyph-name="iacute" unicode="&#xed;" horiz-adv-x="218" d="M294 718 L113 588 L113 584 L131 560 L135 560 L322 679 L323 682 L297 718 L294 718 Z M84 0 L133 0 L223 500 L174 500 L84 0 Z " />
<glyph glyph-name="icircumflex" unicode="&#xee;" horiz-adv-x="218" d="M230 690 L220 690 L80 598 L80 594 L95 567 L98 567 L220 641 L313 570 L317 570 L339 594 L339 598 L230 690 Z M84 0 L133 0 L223 500 L174 500 L84 0 Z " />
<glyph glyph-name="idieresis" unicode="&#xef;" horiz-adv-x="218" d="M137 589 C166 589 190 613 190 643 C190 665 170 683 148 683 C119 683 95 658 95 629 C95 606 114 589 137 589 L137 589 Z M290 589 C318 589 342 613 342 643 C342 665 323 683 300 683 C272 683 248 658 248 629 C248 606 267 589 290 589 L290 589 Z M84 0 L133 0 L223 500 L174 500 L84 0 Z " />
<glyph glyph-name="eth" unicode="&#xf0;" horiz-adv-x="558" d="M571 624 L567 628 L448 586 C428 616 405 646 380 678 L376 678 L341 652 L340 648 C360 623 380 596 399 569 L309 537 L302 499 L304 495 L420 536 C448 491 473 444 491 398 C457 436 399 462 338 462 C194 462 80 353 80 207 C80 80 173 -12 300 -12 C440 -12 545 87 556 227 C566 336 537 440 469 553 L564 586 L571 624 Z M507 239 C505 122 419 34 301 34 C200 34 131 109 131 211 C131 328 221 416 338 416 C438 416 509 341 507 239 L507 239 Z " />
<glyph glyph-name="ntilde" unicode="&#xf1;" horiz-adv-x="577" d="M270 598 C283 619 304 632 334 632 C385 632 426 598 472 598 C506 598 529 611 544 633 L551 674 L549 676 L541 676 C529 656 514 642 478 642 C438 642 388 677 339 677 C311 677 283 663 267 642 L261 601 L263 598 L270 598 Z M394 512 C316 512 250 478 205 423 L219 500 L172 500 L82 0 L132 0 L185 298 C189 320 198 348 212 371 C244 429 311 467 382 467 C479 467 524 400 507 301 L453 0 L503 0 L558 305 C580 422 516 512 394 512 L394 512 Z " />
<glyph glyph-name="ograve" unicode="&#xf2;" horiz-adv-x="607" d="M321 718 L318 718 L292 682 L293 679 L480 560 L484 560 L502 584 L502 588 L321 718 Z M328 -12 C397 -12 460 11 510 51 C575 104 613 184 613 270 C613 411 511 512 371 512 C301 512 238 489 188 449 C123 396 86 317 86 230 C86 89 188 -12 328 -12 L328 -12 Z M329 33 C217 33 136 117 136 233 C136 304 166 368 218 412 C258 446 311 467 369 467 C481 467 562 383 562 267 C562 196 532 132 480 88 C440 54 387 33 329 33 L329 33 Z " />
<glyph glyph-name="oacute" unicode="&#xf3;" horiz-adv-x="607" d="M474 718 L293 588 L293 584 L311 560 L315 560 L502 679 L503 682 L477 718 L474 718 Z M328 -12 C397 -12 460 11 510 51 C575 104 613 184 613 270 C613 411 511 512 371 512 C301 512 238 489 188 449 C123 396 86 317 86 230 C86 89 188 -12 328 -12 L328 -12 Z M329 33 C217 33 136 117 136 233 C136 304 166 368 218 412 C258 446 311 467 369 467 C481 467 562 383 562 267 C562 196 532 132 480 88 C440 54 387 33 329 33 L329 33 Z " />
<glyph glyph-name="ocircumflex" unicode="&#xf4;" horiz-adv-x="607" d="M268 567 L403 641 L507 570 L511 570 L535 594 L535 598 L414 690 L403 690 L248 598 L248 594 L264 567 L268 567 Z M371 512 C301 512 238 489 188 449 C123 396 86 317 86 230 C86 89 188 -12 328 -12 C397 -12 460 11 510 51 C575 104 613 184 613 270 C613 411 511 512 371 512 L371 512 Z M480 88 C440 54 387 33 329 33 C217 33 136 117 136 233 C136 304 166 368 218 412 C258 446 311 467 369 467 C481 467 562 383 562 267 C562 196 532 132 480 88 L480 88 Z " />
<glyph glyph-name="otilde" unicode="&#xf5;" horiz-adv-x="607" d="M465 598 C499 598 522 611 537 633 L544 674 L542 676 L534 676 C522 656 507 642 471 642 C431 642 381 677 332 677 C304 677 276 663 260 642 L254 601 L256 598 L263 598 C276 619 297 632 327 632 C378 632 419 598 465 598 L465 598 Z M328 -12 C397 -12 460 11 510 51 C575 104 613 184 613 270 C613 411 511 512 371 512 C301 512 238 489 188 449 C123 396 86 317 86 230 C86 89 188 -12 328 -12 L328 -12 Z M329 33 C217 33 136 117 136 233 C136 304 166 368 218 412 C258 446 311 467 369 467 C481 467 562 383 562 267 C562 196 532 132 480 88 C440 54 387 33 329 33 L329 33 Z " />
<glyph glyph-name="odieresis" unicode="&#xf6;" horiz-adv-x="607" d="M317 589 C346 589 370 613 370 643 C370 665 350 683 328 683 C299 683 275 658 275 629 C275 606 294 589 317 589 L317 589 Z M470 589 C498 589 522 613 522 643 C522 665 503 683 480 683 C452 683 428 658 428 629 C428 606 447 589 470 589 L470 589 Z M328 -12 C397 -12 460 11 510 51 C575 104 613 184 613 270 C613 411 511 512 371 512 C301 512 238 489 188 449 C123 396 86 317 86 230 C86 89 188 -12 328 -12 L328 -12 Z M329 33 C217 33 136 117 136 233 C136 304 166 368 218 412 C258 446 311 467 369 467 C481 467 562 383 562 267 C562 196 532 132 480 88 C440 54 387 33 329 33 L329 33 Z " />
<glyph glyph-name="divide" unicode="&#xf7;" horiz-adv-x="519" d="M339 413 C367 413 392 437 392 467 C392 489 372 507 350 507 C321 507 297 482 297 453 C297 431 316 413 339 413 L339 413 Z M117 322 L110 278 L510 278 L518 322 L117 322 Z M280 92 C309 92 333 116 333 145 C333 168 314 186 291 186 C262 186 238 161 238 132 C238 109 257 92 280 92 L280 92 Z " />
<glyph glyph-name="oslash" unicode="&#xf8;" horiz-adv-x="607" d="M642 554 L640 559 L589 559 L512 470 C473 497 425 512 371 512 C301 512 238 489 188 449 C123 396 86 317 86 230 C86 160 111 100 154 57 L69 -41 L71 -46 L123 -46 L188 29 C227 3 275 -12 328 -12 C397 -12 460 11 510 51 C575 104 613 184 613 270 C613 340 588 400 546 443 L642 554 Z M136 233 C136 304 166 368 218 412 C258 446 311 467 369 467 C411 467 449 455 480 434 L186 94 C155 129 136 178 136 233 L136 233 Z M562 267 C562 196 532 132 480 88 C440 54 387 33 329 33 C287 33 250 45 219 65 L513 405 C544 370 562 322 562 267 L562 267 Z " />
<glyph glyph-name="ugrave" unicode="&#xf9;" horiz-adv-x="565" d="M462 560 L466 560 L484 584 L484 588 L303 718 L300 718 L274 682 L275 679 L462 560 Z M524 500 L469 193 C465 170 458 149 448 130 C415 73 357 33 280 33 C188 33 143 96 159 191 L215 500 L165 500 L110 191 C88 68 156 -12 272 -12 C349 -12 408 21 450 72 L437 0 L484 0 L573 500 L524 500 Z " />
<glyph glyph-name="uacute" unicode="&#xfa;" horiz-adv-x="565" d="M297 560 L484 679 L485 682 L459 718 L456 718 L275 588 L275 584 L293 560 L297 560 Z M524 500 L469 193 C465 170 458 149 448 130 C415 73 357 33 280 33 C188 33 143 96 159 191 L215 500 L165 500 L110 191 C88 68 156 -12 272 -12 C349 -12 408 21 450 72 L437 0 L484 0 L573 500 L524 500 Z " />
<glyph glyph-name="ucircumflex" unicode="&#xfb;" horiz-adv-x="565" d="M250 567 L385 641 L489 570 L493 570 L517 594 L517 598 L396 690 L385 690 L230 598 L230 594 L246 567 L250 567 Z M524 500 L469 193 C465 170 458 149 448 130 C415 73 357 33 280 33 C188 33 143 96 159 191 L215 500 L165 500 L110 191 C88 68 156 -12 272 -12 C349 -12 408 21 450 72 L437 0 L484 0 L573 500 L524 500 Z " />
<glyph glyph-name="udieresis" unicode="&#xfc;" horiz-adv-x="565" d="M299 589 C328 589 352 613 352 643 C352 665 332 683 310 683 C281 683 257 658 257 629 C257 606 276 589 299 589 L299 589 Z M452 589 C480 589 504 613 504 643 C504 665 485 683 462 683 C434 683 410 658 410 629 C410 606 429 589 452 589 L452 589 Z M524 500 L469 193 C465 170 458 149 448 130 C415 73 357 33 280 33 C188 33 143 96 159 191 L215 500 L165 500 L110 191 C88 68 156 -12 272 -12 C349 -12 408 21 450 72 L437 0 L484 0 L573 500 L524 500 Z " />
<glyph glyph-name="yacute" unicode="&#xfd;" horiz-adv-x="497" d="M262 560 L449 679 L450 682 L424 718 L421 718 L240 588 L240 584 L258 560 L262 560 Z M563 500 L513 500 L262 83 L159 500 L111 500 L107 495 L226 22 L179 -55 C150 -103 125 -118 96 -118 C80 -118 63 -111 51 -101 L46 -103 L25 -135 L26 -140 C40 -151 65 -160 92 -160 C147 -160 182 -134 227 -61 L566 495 L563 500 Z " />
<glyph glyph-name="thorn" unicode="&#xfe;" horiz-adv-x="620" d="M399 512 C318 512 251 476 204 420 L246 650 L199 650 L55 -150 L105 -150 L154 126 C187 37 267 -12 355 -12 C510 -12 625 116 625 271 C625 411 531 512 399 512 L399 512 Z M354 33 C244 33 172 117 172 230 C172 363 264 467 392 467 C502 467 574 384 574 271 C574 140 480 33 354 33 L354 33 Z " />
<glyph glyph-name="ydieresis" unicode="&#xff;" horiz-adv-x="497" d="M264 589 C293 589 317 613 317 643 C317 665 297 683 275 683 C246 683 222 658 222 629 C222 606 241 589 264 589 L264 589 Z M417 589 C445 589 469 613 469 643 C469 665 450 683 427 683 C399 683 375 658 375 629 C375 606 394 589 417 589 L417 589 Z M563 500 L513 500 L262 83 L159 500 L111 500 L107 495 L226 22 L179 -55 C150 -103 125 -118 96 -118 C80 -118 63 -111 51 -101 L46 -103 L25 -135 L26 -140 C40 -151 65 -160 92 -160 C147 -160 182 -134 227 -61 L566 495 L563 500 Z " />
<glyph glyph-name="Amacron" unicode="&#x100;" horiz-adv-x="642" d="M589 776 L319 776 L311 735 L581 735 L589 776 Z M452 650 L425 650 L20 5 L22 0 L73 0 L170 156 L533 156 L573 0 L620 0 L623 5 L452 650 Z M198 201 L426 567 L521 201 L198 201 Z " />
<glyph glyph-name="amacron" unicode="&#x101;" horiz-adv-x="527" d="M233 643 L225 600 L491 600 L499 643 L233 643 Z M481 454 C451 491 400 512 334 512 C262 512 188 480 143 435 L142 430 L165 401 L169 401 C210 441 273 467 332 467 C379 467 418 451 441 423 C462 397 469 360 461 314 L453 268 C411 293 353 310 290 310 C154 310 61 238 61 130 C61 44 132 -12 234 -12 C303 -12 371 17 417 70 L405 0 L453 0 L507 305 C519 367 510 418 481 454 L481 454 Z M238 33 C161 33 112 73 112 136 C112 213 185 266 287 266 C349 266 409 243 443 220 L436 179 C420 87 326 33 238 33 L238 33 Z " />
<glyph glyph-name="Abreve" unicode="&#x102;" horiz-adv-x="642" d="M447 707 C512 707 573 757 595 831 L551 831 C533 780 499 748 453 748 C408 748 376 780 377 831 L333 831 C330 757 381 707 447 707 L447 707 Z M452 650 L425 650 L20 5 L22 0 L73 0 L170 156 L533 156 L573 0 L620 0 L623 5 L452 650 Z M198 201 L426 567 L521 201 L198 201 Z " />
<glyph glyph-name="abreve" unicode="&#x103;" horiz-adv-x="527" d="M358 573 C431 573 489 623 510 697 L467 697 C449 647 408 613 361 613 C315 613 283 647 283 697 L239 697 C236 623 285 573 358 573 L358 573 Z M481 454 C451 491 400 512 334 512 C262 512 188 480 143 435 L142 430 L165 401 L169 401 C210 441 273 467 332 467 C379 467 418 451 441 423 C462 397 469 360 461 314 L453 268 C411 293 353 310 290 310 C154 310 61 238 61 130 C61 44 132 -12 234 -12 C303 -12 371 17 417 70 L405 0 L453 0 L507 305 C519 367 510 418 481 454 L481 454 Z M238 33 C161 33 112 73 112 136 C112 213 185 266 287 266 C349 266 409 243 443 220 L436 179 C420 87 326 33 238 33 L238 33 Z " />
<glyph glyph-name="Aogonek" unicode="&#x104;" horiz-adv-x="642" d="M647 -139 L644 -138 C629 -144 615 -150 593 -150 C561 -150 540 -132 540 -103 C540 -46 607 -10 620 0 L623 5 L452 650 L425 650 L20 5 L22 0 L73 0 L170 156 L533 156 L572 6 C543 -14 495 -58 495 -113 C495 -158 530 -187 581 -187 C609 -187 629 -182 654 -169 L656 -164 L647 -139 Z M198 201 L426 567 L521 201 L198 201 Z " />
<glyph glyph-name="aogonek" unicode="&#x105;" horiz-adv-x="527" d="M453 0 L507 305 C519 367 510 418 481 454 C451 491 400 512 334 512 C262 512 188 480 143 435 L142 430 L165 401 L169 401 C210 441 273 467 332 467 C379 467 418 451 441 423 C462 397 469 360 461 314 L453 268 C411 293 353 310 290 310 C154 310 61 238 61 130 C61 44 132 -12 234 -12 C303 -12 371 17 417 70 L406 7 C378 -12 328 -57 328 -113 C328 -158 363 -187 414 -187 C442 -187 462 -182 487 -169 L489 -164 L480 -139 L477 -138 C462 -144 448 -150 426 -150 C394 -150 373 -132 373 -103 C373 -46 440 -10 453 0 L453 0 Z M238 33 C161 33 112 73 112 136 C112 213 185 266 287 266 C349 266 409 243 443 220 L436 179 C420 87 326 33 238 33 L238 33 Z " />
<glyph glyph-name="Cacute" unicode="&#x106;" horiz-adv-x="679" d="M581 851 L406 736 L406 732 L421 709 L425 709 L607 810 L608 814 L585 851 L581 851 Z M413 -12 C516 -12 609 31 682 109 L683 114 L652 141 L648 141 C586 74 503 35 415 35 C264 35 153 148 153 302 C153 394 190 480 257 538 C312 587 387 615 466 615 C561 615 641 573 683 506 L687 506 L724 531 L724 535 C677 612 580 662 468 662 C377 662 291 631 225 575 C146 507 102 407 102 300 C102 120 233 -12 413 -12 L413 -12 Z " />
<glyph glyph-name="cacute" unicode="&#x107;" horiz-adv-x="544" d="M473 718 L292 588 L292 584 L310 560 L314 560 L501 679 L502 682 L476 718 L473 718 Z M325 -12 C403 -12 476 19 530 79 L530 84 L505 108 L500 108 C451 54 388 33 328 33 C214 33 137 117 137 234 C137 306 166 369 217 412 C256 445 310 467 373 467 C451 467 500 430 533 383 L538 383 L569 405 L569 410 C530 467 467 512 372 512 C302 512 240 490 191 450 C125 398 86 318 86 230 C86 89 189 -12 325 -12 L325 -12 Z " />
<glyph glyph-name="Cdotaccent" unicode="&#x10a;" horiz-adv-x="679" d="M495 727 C524 727 548 752 548 781 C548 804 529 822 506 822 C477 822 453 797 453 768 C453 745 472 727 495 727 L495 727 Z M413 -12 C516 -12 609 31 682 109 L683 114 L652 141 L648 141 C586 74 503 35 415 35 C264 35 153 148 153 302 C153 394 190 480 257 538 C312 587 387 615 466 615 C561 615 641 573 683 506 L687 506 L724 531 L724 535 C677 612 580 662 468 662 C377 662 291 631 225 575 C146 507 102 407 102 300 C102 120 233 -12 413 -12 L413 -12 Z " />
<glyph glyph-name="cdotaccent" unicode="&#x10b;" horiz-adv-x="544" d="M393 589 C421 589 445 613 445 642 C445 665 425 683 403 683 C374 683 351 658 351 629 C351 607 371 589 393 589 L393 589 Z M325 -12 C403 -12 476 19 530 79 L530 84 L505 108 L500 108 C451 54 388 33 328 33 C214 33 137 117 137 234 C137 306 166 369 217 412 C256 445 310 467 373 467 C451 467 500 430 533 383 L538 383 L569 405 L569 410 C530 467 467 512 372 512 C302 512 240 490 191 450 C125 398 86 318 86 230 C86 89 189 -12 325 -12 L325 -12 Z " />
<glyph glyph-name="Ccaron" unicode="&#x10c;" horiz-adv-x="679" d="M494 716 L656 806 L657 810 L644 838 L640 838 L495 766 L383 835 L379 835 L358 810 L357 806 L487 716 L494 716 Z M468 662 C377 662 291 631 225 575 C146 507 102 407 102 300 C102 120 233 -12 413 -12 C516 -12 609 31 682 109 L683 114 L652 141 L648 141 C586 74 503 35 415 35 C264 35 153 148 153 302 C153 394 190 480 257 538 C312 587 387 615 466 615 C561 615 641 573 683 506 L687 506 L724 531 L724 535 C677 612 580 662 468 662 L468 662 Z " />
<glyph glyph-name="ccaron" unicode="&#x10d;" horiz-adv-x="544" d="M391 560 L544 651 L545 655 L528 681 L524 681 L391 608 L287 678 L283 678 L258 655 L257 651 L380 560 L391 560 Z M372 512 C302 512 240 490 191 450 C125 398 86 318 86 230 C86 89 189 -12 325 -12 C403 -12 476 19 530 79 L530 84 L505 108 L500 108 C451 54 388 33 328 33 C214 33 137 117 137 234 C137 306 166 369 217 412 C256 445 310 467 373 467 C451 467 500 430 533 383 L538 383 L569 405 L569 410 C530 467 467 512 372 512 L372 512 Z " />
<glyph glyph-name="Dcaron" unicode="&#x10e;" horiz-adv-x="708" d="M449 716 L611 806 L612 810 L599 838 L595 838 L450 766 L338 835 L334 835 L313 810 L312 806 L442 716 L449 716 Z M455 650 L213 650 L96 0 L343 0 C579 0 724 153 724 383 C724 543 630 650 455 650 L455 650 Z M346 45 L155 45 L256 605 L450 605 C597 605 672 515 672 379 C672 180 553 45 346 45 L346 45 Z " />
<glyph glyph-name="dcaron" unicode="&#x10f;" horiz-adv-x="623" d="M802 704 L754 704 L750 700 L692 530 L694 526 L722 526 L726 530 L805 700 L802 704 Z M614 678 L560 375 C526 463 445 512 358 512 C204 512 88 385 88 229 C88 89 182 -12 313 -12 C392 -12 461 23 509 80 L494 0 L541 0 L664 679 L659 682 L614 678 Z M321 33 C211 33 139 116 139 230 C139 359 232 467 360 467 C470 467 541 383 541 271 C541 138 450 33 321 33 L321 33 Z " />
<glyph glyph-name="Dcroat" unicode="&#x110;" horiz-adv-x="728" d="M461 650 L219 650 L165 350 L84 350 L76 305 L157 305 L102 0 L349 0 C585 0 730 153 730 383 C730 543 636 650 461 650 L461 650 Z M352 45 L161 45 L208 305 L405 305 L413 350 L216 350 L262 605 L456 605 C603 605 678 515 678 379 C678 180 559 45 352 45 L352 45 Z " />
<glyph glyph-name="dcroat" unicode="&#x111;" horiz-adv-x="621" d="M713 602 L647 602 L661 679 L657 682 L611 678 L597 602 L447 602 L440 562 L590 562 L557 377 C523 464 442 512 355 512 C202 512 86 385 86 229 C86 89 180 -12 311 -12 C390 -12 458 23 506 80 L492 0 L539 0 L640 562 L706 562 L713 602 Z M319 33 C209 33 137 116 137 230 C137 359 229 467 358 467 C467 467 538 383 538 271 C538 138 448 33 319 33 L319 33 Z " />
<glyph glyph-name="Emacron" unicode="&#x112;" horiz-adv-x="552" d="M297 776 L289 735 L559 735 L567 776 L297 776 Z M618 605 L626 650 L213 650 L96 0 L509 0 L517 45 L155 45 L202 306 L490 306 L498 351 L210 351 L255 605 L618 605 Z " />
<glyph glyph-name="emacron" unicode="&#x113;" horiz-adv-x="567" d="M525 643 L259 643 L251 600 L517 600 L525 643 Z M368 512 C300 512 240 489 193 452 C134 403 96 330 89 247 C73 101 172 -12 317 -12 C394 -12 478 18 536 85 L536 90 L511 115 L507 115 C458 60 387 33 322 33 C215 33 128 110 138 234 L568 234 C570 241 573 250 575 261 C599 392 512 512 368 512 L368 512 Z M143 279 C155 334 182 381 220 414 C257 447 307 467 365 467 C422 467 468 446 496 410 C524 375 533 330 528 279 L143 279 Z " />
<glyph glyph-name="Edotaccent" unicode="&#x116;" horiz-adv-x="552" d="M426 727 C455 727 479 752 479 781 C479 804 460 822 437 822 C408 822 384 797 384 768 C384 745 403 727 426 727 L426 727 Z M618 605 L626 650 L213 650 L96 0 L509 0 L517 45 L155 45 L202 306 L490 306 L498 351 L210 351 L255 605 L618 605 Z " />
<glyph glyph-name="edotaccent" unicode="&#x117;" horiz-adv-x="567" d="M386 589 C414 589 438 613 438 642 C438 665 418 683 396 683 C367 683 344 658 344 629 C344 607 364 589 386 589 L386 589 Z M368 512 C300 512 240 489 193 452 C134 403 96 330 89 247 C73 101 172 -12 317 -12 C394 -12 478 18 536 85 L536 90 L511 115 L507 115 C458 60 387 33 322 33 C215 33 128 110 138 234 L568 234 C570 241 573 250 575 261 C599 392 512 512 368 512 L368 512 Z M143 279 C155 334 182 381 220 414 C257 447 307 467 365 467 C422 467 468 446 496 410 C524 375 533 330 528 279 L143 279 Z " />
<glyph glyph-name="Eogonek" unicode="&#x118;" horiz-adv-x="552" d="M618 605 L626 650 L213 650 L96 0 L453 0 C424 -22 384 -63 384 -113 C384 -158 419 -187 470 -187 C498 -187 518 -182 543 -169 L545 -164 L536 -139 L533 -138 C518 -144 504 -150 482 -150 C450 -150 429 -132 429 -103 C429 -46 496 -10 509 0 L517 45 L155 45 L202 306 L490 306 L498 351 L210 351 L255 605 L618 605 Z " />
<glyph glyph-name="eogonek" unicode="&#x119;" horiz-adv-x="567" d="M368 512 C300 512 240 489 193 452 C134 403 96 330 89 247 C73 101 172 -12 317 -12 C326 -12 334 -12 343 -11 C320 -34 297 -66 297 -104 C297 -149 332 -178 383 -178 C411 -178 431 -173 456 -160 L458 -155 L449 -130 L446 -129 C431 -135 417 -141 395 -141 C363 -141 342 -123 342 -94 C342 -44 394 -10 415 4 C460 20 502 46 536 85 L536 90 L511 115 L507 115 C458 60 387 33 322 33 C215 33 128 110 138 234 L568 234 C570 241 573 250 575 261 C599 392 512 512 368 512 L368 512 Z M143 279 C155 334 182 381 220 414 C257 447 307 467 365 467 C422 467 468 446 496 410 C524 375 533 330 528 279 L143 279 Z " />
<glyph glyph-name="Ecaron" unicode="&#x11a;" horiz-adv-x="552" d="M425 716 L587 806 L588 810 L575 838 L571 838 L426 766 L314 835 L310 835 L289 810 L288 806 L418 716 L425 716 Z M618 605 L626 650 L213 650 L96 0 L509 0 L517 45 L155 45 L202 306 L490 306 L498 351 L210 351 L255 605 L618 605 Z " />
<glyph glyph-name="ecaron" unicode="&#x11b;" horiz-adv-x="567" d="M384 560 L537 651 L538 655 L521 681 L517 681 L384 608 L280 678 L276 678 L251 655 L250 651 L373 560 L384 560 Z M368 512 C300 512 240 489 193 452 C134 403 96 330 89 247 C73 101 172 -12 317 -12 C394 -12 478 18 536 85 L536 90 L511 115 L507 115 C458 60 387 33 322 33 C215 33 128 110 138 234 L568 234 C570 241 573 250 575 261 C599 392 512 512 368 512 L368 512 Z M143 279 C155 334 182 381 220 414 C257 447 307 467 365 467 C422 467 468 446 496 410 C524 375 533 330 528 279 L143 279 Z " />
<glyph glyph-name="Gbreve" unicode="&#x11e;" horiz-adv-x="728" d="M483 707 C548 707 609 757 631 831 L587 831 C569 780 535 748 489 748 C444 748 412 780 413 831 L369 831 C366 757 417 707 483 707 L483 707 Z M407 -12 C493 -12 569 14 627 64 C694 121 737 210 752 317 C754 324 754 329 753 336 L749 340 L440 340 L431 295 L697 295 C684 216 648 145 592 98 C543 57 477 36 411 35 C259 35 150 149 150 302 C150 394 187 480 254 538 C309 587 384 615 463 615 C560 615 639 565 681 497 L685 497 L720 522 L721 527 C673 604 578 662 465 662 C374 662 288 631 222 575 C143 507 99 407 99 300 C99 120 229 -12 407 -12 L407 -12 Z " />
<glyph glyph-name="gbreve" unicode="&#x11f;" horiz-adv-x="594" d="M369 573 C442 573 500 623 521 697 L478 697 C460 647 419 613 372 613 C326 613 294 647 294 697 L250 697 C247 623 296 573 369 573 L369 573 Z M555 500 L536 396 C527 415 516 432 502 446 C462 489 404 512 346 512 C284 512 226 491 183 454 C129 408 95 338 95 260 C95 136 183 46 304 46 C366 46 425 70 469 109 C475 114 481 119 486 125 L476 67 C454 -52 374 -115 267 -115 C182 -115 119 -78 92 -21 L87 -21 L53 -46 L52 -50 C86 -118 167 -160 261 -160 C391 -160 498 -85 525 68 L603 500 L555 500 Z M438 132 C405 106 360 91 311 91 C211 91 145 162 145 260 C145 321 169 377 211 414 C246 447 295 466 348 466 C452 466 517 392 517 297 C517 230 488 170 438 132 L438 132 Z " />
<glyph glyph-name="Gdotaccent" unicode="&#x120;" horiz-adv-x="728" d="M484 727 C513 727 537 752 537 781 C537 804 518 822 495 822 C466 822 442 797 442 768 C442 745 461 727 484 727 L484 727 Z M407 -12 C493 -12 569 14 627 64 C694 121 737 210 752 317 C754 324 754 329 753 336 L749 340 L440 340 L431 295 L697 295 C684 216 648 145 592 98 C543 57 477 36 411 35 C259 35 150 149 150 302 C150 394 187 480 254 538 C309 587 384 615 463 615 C560 615 639 565 681 497 L685 497 L720 522 L721 527 C673 604 578 662 465 662 C374 662 288 631 222 575 C143 507 99 407 99 300 C99 120 229 -12 407 -12 L407 -12 Z " />
<glyph glyph-name="gdotaccent" unicode="&#x121;" horiz-adv-x="594" d="M371 589 C399 589 423 613 423 642 C423 665 403 683 381 683 C352 683 329 658 329 629 C329 607 349 589 371 589 L371 589 Z M555 500 L536 396 C527 415 516 432 502 446 C462 489 404 512 346 512 C284 512 226 491 183 454 C129 408 95 338 95 260 C95 136 183 46 304 46 C366 46 425 70 469 109 C475 114 481 119 486 125 L476 67 C454 -52 374 -115 267 -115 C182 -115 119 -78 92 -21 L87 -21 L53 -46 L52 -50 C86 -118 167 -160 261 -160 C391 -160 498 -85 525 68 L603 500 L555 500 Z M438 132 C405 106 360 91 311 91 C211 91 145 162 145 260 C145 321 169 377 211 414 C246 447 295 466 348 466 C452 466 517 392 517 297 C517 230 488 170 438 132 L438 132 Z " />
<glyph glyph-name="Gcommaaccent" unicode="&#x122;" horiz-adv-x="728" d="M407 -12 C493 -12 569 14 627 64 C694 121 737 210 752 317 C754 324 754 329 753 336 L749 340 L440 340 L431 295 L697 295 C684 216 648 145 592 98 C543 57 477 36 411 35 C259 35 150 149 150 302 C150 394 187 480 254 538 C309 587 384 615 463 615 C560 615 639 565 681 497 L685 497 L720 522 L721 527 C673 604 578 662 465 662 C374 662 288 631 222 575 C143 507 99 407 99 300 C99 120 229 -12 407 -12 L407 -12 Z M363 -54 L313 -203 L315 -207 L342 -207 L347 -203 L416 -54 L414 -50 L368 -50 L363 -54 Z " />
<glyph glyph-name="gcommaaccent" unicode="&#x123;" horiz-adv-x="594" d="M384 562 L389 566 L439 715 L437 719 L410 719 L405 715 L336 566 L338 562 L384 562 Z M555 500 L536 396 C527 415 516 432 502 446 C462 489 404 512 346 512 C284 512 226 491 183 454 C129 408 95 338 95 260 C95 136 183 46 304 46 C366 46 425 70 469 109 C475 114 481 119 486 125 L476 67 C454 -52 374 -115 267 -115 C182 -115 119 -78 92 -21 L87 -21 L53 -46 L52 -50 C86 -118 167 -160 261 -160 C391 -160 498 -85 525 68 L603 500 L555 500 Z M438 132 C405 106 360 91 311 91 C211 91 145 162 145 260 C145 321 169 377 211 414 C246 447 295 466 348 466 C452 466 517 392 517 297 C517 230 488 170 438 132 L438 132 Z " />
<glyph glyph-name="Hbar" unicode="&#x126;" horiz-adv-x="707" d="M744 509 L689 509 L714 649 L664 649 L638 509 L240 509 L265 649 L214 649 L189 509 L132 509 L125 469 L182 469 L97 -1 L148 -1 L203 305 L601 305 L547 -1 L597 -1 L682 469 L737 469 L744 509 Z M609 350 L211 350 L232 469 L631 469 L609 350 Z " />
<glyph glyph-name="hbar" unicode="&#x127;" horiz-adv-x="577" d="M394 512 C317 512 252 479 207 426 L230 553 L379 553 L387 593 L237 593 L253 679 L249 682 L204 678 L189 593 L120 593 L112 553 L182 553 L82 0 L131 0 L185 298 C189 317 196 345 209 367 C241 426 310 467 384 467 C426 467 461 453 482 428 C507 399 516 355 506 301 L453 0 L503 0 L558 305 C580 422 516 512 394 512 L394 512 Z " />
<glyph glyph-name="Itilde" unicode="&#x128;" horiz-adv-x="243" d="M310 732 C336 732 359 743 372 767 L379 809 L377 812 L371 812 C359 790 339 777 317 777 C281 777 245 813 201 813 C175 813 152 801 138 778 L132 735 L134 732 L140 732 C152 755 171 768 193 768 C239 768 267 732 310 732 L310 732 Z M213 650 L96 0 L147 0 L264 650 L213 650 Z " />
<glyph glyph-name="itilde" unicode="&#x129;" horiz-adv-x="218" d="M276 598 C306 598 327 611 341 633 L347 674 L345 676 L338 676 C327 656 314 642 281 642 C245 642 200 677 156 677 C131 677 106 663 91 642 L86 601 L88 598 L94 598 C106 619 125 632 152 632 C198 632 234 598 276 598 L276 598 Z M84 0 L133 0 L223 500 L174 500 L84 0 Z " />
<glyph glyph-name="Imacron" unicode="&#x12a;" horiz-adv-x="243" d="M137 776 L130 735 L373 735 L380 776 L137 776 Z M213 650 L96 0 L147 0 L264 650 L213 650 Z " />
<glyph glyph-name="imacron" unicode="&#x12b;" horiz-adv-x="218" d="M98 643 L91 600 L330 600 L338 643 L98 643 Z M84 0 L133 0 L223 500 L174 500 L84 0 Z " />
<glyph glyph-name="Iogonek" unicode="&#x12e;" horiz-adv-x="243" d="M171 -138 C156 -144 142 -150 120 -150 C88 -150 67 -132 67 -103 C67 -46 134 -10 147 0 L264 650 L213 650 L97 5 C68 -16 22 -59 22 -113 C22 -158 57 -187 108 -187 C136 -187 156 -182 181 -169 L183 -164 L174 -139 L171 -138 Z " />
<glyph glyph-name="iogonek" unicode="&#x12f;" horiz-adv-x="218" d="M224 683 C195 683 172 658 172 629 C172 607 192 589 214 589 C242 589 266 613 266 642 C266 665 246 683 224 683 L224 683 Z M133 0 L223 500 L174 500 L85 6 C57 -13 8 -57 8 -113 C8 -158 43 -187 94 -187 C122 -187 142 -182 167 -169 L169 -164 L160 -139 L157 -138 C142 -144 128 -150 106 -150 C74 -150 53 -132 53 -103 C53 -46 120 -10 133 0 L133 0 Z " />
<glyph glyph-name="Idotaccent" unicode="&#x130;" horiz-adv-x="243" d="M254 727 C283 727 307 752 307 781 C307 804 288 822 265 822 C236 822 212 797 212 768 C212 745 231 727 254 727 L254 727 Z M213 650 L96 0 L147 0 L264 650 L213 650 Z " />
<glyph glyph-name="dotlessi" unicode="&#x131;" horiz-adv-x="218" d="M84 0 L133 0 L223 500 L174 500 L84 0 Z " />
<glyph glyph-name="IJ" unicode="&#x132;" horiz-adv-x="654" d="M213 650 L96 0 L147 0 L264 650 L213 650 Z M631 650 L547 182 C531 90 468 35 391 35 C325 35 278 72 257 119 L252 119 L217 93 L216 89 C241 34 298 -12 390 -12 C490 -12 575 56 598 181 L682 650 L631 650 Z " />
<glyph glyph-name="ij" unicode="&#x133;" horiz-adv-x="420" d="M215 589 C243 589 270 613 270 642 C270 665 254 683 232 683 C204 683 176 658 176 629 C176 607 193 589 215 589 L215 589 Z M420 589 C448 589 476 613 476 642 C476 665 459 683 436 683 C408 683 381 658 381 629 C381 607 397 589 420 589 L420 589 Z M84 0 L133 0 L223 500 L174 500 L84 0 Z M211 -160 L215 -160 C278 -127 323 -87 340 6 L428 500 L379 500 L290 0 C278 -66 246 -96 200 -121 L199 -125 L211 -160 Z " />
<glyph glyph-name="Kcommaaccent" unicode="&#x136;" horiz-adv-x="569" d="M675 645 L673 650 L611 650 L202 303 L264 650 L213 650 L96 0 L147 0 L189 236 L300 330 L498 0 L552 0 L556 5 L340 362 L675 645 Z M291 -50 L286 -54 L236 -203 L238 -207 L265 -207 L270 -203 L339 -54 L337 -50 L291 -50 Z " />
<glyph glyph-name="kcommaaccent" unicode="&#x137;" horiz-adv-x="478" d="M552 495 L550 500 L491 500 L172 226 L253 679 L249 682 L204 678 L82 0 L131 0 L159 158 L280 261 L416 0 L467 0 L471 5 L318 294 L552 495 Z M249 -50 L244 -54 L194 -203 L196 -207 L223 -207 L228 -203 L297 -54 L295 -50 L249 -50 Z " />
<glyph glyph-name="kgreenlandic" unicode="&#x138;" horiz-adv-x="478" d="M552 495 L550 500 L491 500 L171 225 L221 501 L217 504 L172 500 L82 0 L131 0 L159 158 L280 261 L416 0 L467 0 L471 5 L318 294 L552 495 Z " />
<glyph glyph-name="Lacute" unicode="&#x139;" horiz-adv-x="488" d="M323 851 L148 736 L148 732 L163 709 L167 709 L349 810 L350 814 L327 851 L323 851 Z M481 45 L155 45 L264 650 L213 650 L96 0 L474 0 L481 45 Z " />
<glyph glyph-name="lacute" unicode="&#x13a;" horiz-adv-x="218" d="M305 852 L130 737 L130 733 L145 710 L149 710 L331 811 L332 815 L309 852 L305 852 Z M84 0 L133 0 L255 679 L251 682 L206 678 L84 0 Z " />
<glyph glyph-name="Lcommaaccent" unicode="&#x13b;" horiz-adv-x="488" d="M481 45 L155 45 L264 650 L213 650 L96 0 L474 0 L481 45 Z M261 -54 L211 -203 L213 -207 L240 -207 L245 -203 L314 -54 L312 -50 L266 -50 L261 -54 Z " />
<glyph glyph-name="lcommaaccent" unicode="&#x13c;" horiz-adv-x="218" d="M84 0 L133 0 L255 679 L251 682 L206 678 L84 0 Z M73 -54 L23 -203 L25 -207 L52 -207 L57 -203 L126 -54 L124 -50 L78 -50 L73 -54 Z " />
<glyph glyph-name="Lcaron" unicode="&#x13d;" horiz-adv-x="488" d="M410 704 L357 534 L359 530 L387 530 L392 534 L465 704 L463 708 L415 708 L410 704 Z M481 45 L155 45 L264 650 L213 650 L96 0 L474 0 L481 45 Z " />
<glyph glyph-name="lcaron" unicode="&#x13e;" horiz-adv-x="216" d="M347 700 L289 530 L291 526 L318 526 L323 530 L401 700 L399 704 L351 704 L347 700 Z M84 0 L133 0 L255 679 L251 682 L206 678 L84 0 Z " />
<glyph glyph-name="Ldot" unicode="&#x13f;" horiz-adv-x="502" d="M481 45 L155 45 L264 650 L213 650 L96 0 L474 0 L481 45 Z M395 282 C424 282 448 307 448 336 C448 359 429 377 406 377 C378 377 353 352 353 323 C353 300 372 282 395 282 L395 282 Z " />
<glyph glyph-name="ldot" unicode="&#x140;" horiz-adv-x="232" d="M84 0 L133 0 L255 679 L251 682 L206 677 L84 0 Z M271 307 C299 307 324 332 324 361 C324 383 304 401 282 401 C253 401 229 377 229 347 C229 325 248 307 271 307 L271 307 Z " />
<glyph glyph-name="Lslash" unicode="&#x141;" horiz-adv-x="520" d="M176 45 L219 283 L370 352 L377 394 L373 397 L227 331 L285 650 L234 650 L172 305 L64 256 L58 213 L62 211 L163 257 L117 0 L495 0 L502 45 L176 45 Z " />
<glyph glyph-name="lslash" unicode="&#x142;" horiz-adv-x="280" d="M328 420 L323 423 L233 380 L287 679 L283 682 L238 678 L180 355 L84 309 L77 269 L81 267 L172 310 L116 0 L165 0 L225 335 L320 380 L328 420 Z " />
<glyph glyph-name="Nacute" unicode="&#x143;" horiz-adv-x="692" d="M397 709 L579 810 L580 814 L557 851 L553 851 L378 736 L378 732 L393 709 L397 709 Z M663 650 L562 89 L241 650 L213 650 L96 0 L146 0 L245 549 L566 -10 L593 -10 L713 650 L663 650 Z " />
<glyph glyph-name="nacute" unicode="&#x144;" horiz-adv-x="577" d="M322 560 L509 679 L510 682 L484 718 L481 718 L300 588 L300 584 L318 560 L322 560 Z M394 512 C316 512 250 478 205 423 L219 500 L172 500 L82 0 L132 0 L185 298 C189 320 198 348 212 371 C244 429 311 467 382 467 C479 467 524 400 507 301 L453 0 L503 0 L558 305 C580 422 516 512 394 512 L394 512 Z " />
<glyph glyph-name="Ncommaaccent" unicode="&#x145;" horiz-adv-x="692" d="M663 650 L562 89 L241 650 L213 650 L96 0 L146 0 L245 549 L566 -10 L593 -10 L713 650 L663 650 Z M327 -50 L322 -54 L272 -203 L274 -207 L301 -207 L306 -203 L375 -54 L373 -50 L327 -50 Z " />
<glyph glyph-name="ncommaaccent" unicode="&#x146;" horiz-adv-x="577" d="M394 512 C316 512 250 478 205 423 L219 500 L172 500 L82 0 L132 0 L185 298 C189 320 198 348 212 371 C244 429 311 467 382 467 C479 467 524 400 507 301 L453 0 L503 0 L558 305 C580 422 516 512 394 512 L394 512 Z M275 -50 L270 -54 L220 -203 L222 -207 L249 -207 L254 -203 L323 -54 L321 -50 L275 -50 Z " />
<glyph glyph-name="Ncaron" unicode="&#x147;" horiz-adv-x="692" d="M466 716 L628 806 L629 810 L616 838 L612 838 L467 766 L355 835 L351 835 L330 810 L329 806 L459 716 L466 716 Z M663 650 L562 89 L241 650 L213 650 L96 0 L146 0 L245 549 L566 -10 L593 -10 L713 650 L663 650 Z " />
<glyph glyph-name="ncaron" unicode="&#x148;" horiz-adv-x="577" d="M399 560 L552 651 L553 655 L536 681 L532 681 L399 608 L295 678 L291 678 L266 655 L265 651 L388 560 L399 560 Z M394 512 C316 512 250 478 205 423 L219 500 L172 500 L82 0 L132 0 L185 298 C189 320 198 348 212 371 C244 429 311 467 382 467 C479 467 524 400 507 301 L453 0 L503 0 L558 305 C580 422 516 512 394 512 L394 512 Z " />
<glyph glyph-name="napostrophe" unicode="&#x149;" horiz-adv-x="575" d="M192 560 L197 563 L271 716 L269 719 L221 719 L216 716 L162 563 L164 560 L192 560 Z M393 512 C313 512 245 476 200 419 L215 500 L168 500 L78 0 L128 0 L175 266 L176 265 L182 301 C200 398 280 467 377 467 C472 467 522 403 504 305 L450 0 L499 0 L555 309 C577 430 512 512 393 512 L393 512 Z " />
<glyph glyph-name="Eng" unicode="&#x14a;" horiz-adv-x="691" d="M402 -201 C493 -201 570 -138 591 -21 L712 650 L663 650 L561 89 L240 650 L213 650 L96 0 L146 0 L245 550 L549 17 L543 -21 C528 -105 472 -156 404 -156 C350 -156 310 -128 292 -93 L287 -93 L255 -115 L254 -120 C277 -163 326 -201 402 -201 L402 -201 Z " />
<glyph glyph-name="eng" unicode="&#x14b;" horiz-adv-x="577" d="M394 512 C316 512 250 478 205 423 L219 500 L172 500 L82 0 L132 0 L185 298 C188 315 195 342 206 363 C238 425 307 467 384 467 C479 467 524 399 507 301 L457 21 C444 -47 414 -85 361 -110 L359 -115 L373 -150 L377 -150 C444 -118 491 -69 508 26 L558 305 C579 423 516 512 394 512 L394 512 Z " />
<glyph glyph-name="Omacron" unicode="&#x14c;" horiz-adv-x="761" d="M365 776 L357 735 L627 735 L635 776 L365 776 Z M412 -12 C503 -12 589 19 655 75 C734 143 778 243 778 350 C778 530 647 662 467 662 C376 662 290 631 224 575 C145 507 101 407 101 300 C101 120 232 -12 412 -12 L412 -12 Z M414 35 C263 35 152 148 152 302 C152 394 189 480 256 538 C311 587 386 615 465 615 C616 615 728 502 728 348 C728 256 690 170 623 112 C569 63 493 35 414 35 L414 35 Z " />
<glyph glyph-name="omacron" unicode="&#x14d;" horiz-adv-x="607" d="M267 643 L259 600 L525 600 L533 643 L267 643 Z M328 -12 C397 -12 460 11 510 51 C575 104 613 184 613 270 C613 411 511 512 371 512 C301 512 238 489 188 449 C123 396 86 317 86 230 C86 89 188 -12 328 -12 L328 -12 Z M329 33 C217 33 136 117 136 233 C136 304 166 368 218 412 C258 446 311 467 369 467 C481 467 562 383 562 267 C562 196 532 132 480 88 C440 54 387 33 329 33 L329 33 Z " />
<glyph glyph-name="Ohungarumlaut" unicode="&#x150;" horiz-adv-x="761" d="M487 859 L382 711 L384 707 L422 707 L541 854 L539 859 L487 859 Z M614 859 L509 711 L510 707 L548 707 L669 854 L666 859 L614 859 Z M412 -12 C503 -12 589 19 655 75 C734 143 778 243 778 350 C778 530 647 662 467 662 C376 662 290 631 224 575 C145 507 101 407 101 300 C101 120 232 -12 412 -12 L412 -12 Z M414 35 C263 35 152 148 152 302 C152 394 189 480 256 538 C311 587 386 615 465 615 C616 615 728 502 728 348 C728 256 690 170 623 112 C569 63 493 35 414 35 L414 35 Z " />
<glyph glyph-name="ohungarumlaut" unicode="&#x151;" horiz-adv-x="607" d="M373 716 L280 563 L282 559 L311 559 L316 563 L430 716 L427 719 L378 719 L373 716 Z M490 716 L397 563 L400 559 L429 559 L433 563 L547 716 L544 719 L495 719 L490 716 Z M328 -12 C397 -12 460 11 510 51 C575 104 613 184 613 270 C613 411 511 512 371 512 C301 512 238 489 188 449 C123 396 86 317 86 230 C86 89 188 -12 328 -12 L328 -12 Z M329 33 C217 33 136 117 136 233 C136 304 166 368 218 412 C258 446 311 467 369 467 C481 467 562 383 562 267 C562 196 532 132 480 88 C440 54 387 33 329 33 L329 33 Z " />
<glyph glyph-name="OE" unicode="&#x152;" horiz-adv-x="1153" d="M1195 605 L1203 650 L790 650 L758 472 C713 587 605 662 468 662 C377 662 291 631 226 575 C147 507 102 407 102 300 C102 120 234 -12 414 -12 C505 -12 591 19 656 75 C670 87 682 99 694 112 L673 0 L1086 0 L1094 45 L732 45 L779 306 L1067 306 L1075 351 L787 351 L832 605 L1195 605 Z M625 112 C570 63 495 35 416 35 C264 35 153 148 153 302 C153 394 191 480 257 538 C312 587 387 615 466 615 C618 615 729 502 729 348 C729 256 692 170 625 112 L625 112 Z " />
<glyph glyph-name="oe" unicode="&#x153;" horiz-adv-x="1041" d="M842 512 C774 512 714 489 668 452 C639 428 614 398 596 364 C562 454 477 512 371 512 C301 512 238 489 188 449 C123 396 86 317 86 230 C86 89 188 -12 328 -12 C397 -12 460 11 510 51 C537 73 559 99 576 128 C609 39 695 -12 791 -12 C869 -12 952 18 1010 85 L1011 90 L986 115 L981 115 C932 60 861 33 796 33 C690 33 606 107 612 234 L1042 234 C1045 241 1047 250 1049 261 C1073 392 986 512 842 512 L842 512 Z M480 88 C440 54 387 33 329 33 C217 33 136 117 136 233 C136 304 166 368 218 412 C258 446 311 467 369 467 C481 467 562 383 562 267 C562 196 532 132 480 88 L480 88 Z M1001 278 L620 278 C641 390 726 467 839 467 C947 467 1014 394 1001 278 L1001 278 Z " />
<glyph glyph-name="Racute" unicode="&#x154;" horiz-adv-x="596" d="M338 709 L520 810 L521 814 L498 851 L494 851 L319 736 L319 732 L334 709 L338 709 Z M633 497 C633 589 570 650 452 650 L213 650 L96 0 L147 0 L198 283 L389 283 L399 283 L489 0 L538 0 L542 5 L451 288 C568 308 633 386 633 497 L633 497 Z M408 327 L205 327 L255 605 L454 605 C536 605 580 559 580 492 C580 400 514 327 408 327 L408 327 Z " />
<glyph glyph-name="racute" unicode="&#x155;" horiz-adv-x="335" d="M228 560 L415 679 L416 682 L390 718 L387 718 L206 588 L206 584 L224 560 L228 560 Z M420 498 C403 508 376 512 354 512 C316 512 282 501 255 480 C236 466 220 448 206 428 L218 500 L172 500 L82 0 L131 0 L183 291 C189 325 195 353 210 378 C236 429 282 466 343 466 C357 466 380 463 394 454 L399 456 L421 494 L420 498 Z " />
<glyph glyph-name="Rcommaaccent" unicode="&#x156;" horiz-adv-x="596" d="M633 497 C633 589 570 650 452 650 L213 650 L96 0 L147 0 L198 283 L389 283 L399 283 L489 0 L538 0 L542 5 L451 288 C568 308 633 386 633 497 L633 497 Z M408 327 L205 327 L255 605 L454 605 C536 605 580 559 580 492 C580 400 514 327 408 327 L408 327 Z M281 -50 L276 -54 L226 -203 L228 -207 L255 -207 L260 -203 L329 -54 L327 -50 L281 -50 Z " />
<glyph glyph-name="rcommaaccent" unicode="&#x157;" horiz-adv-x="335" d="M420 498 C403 508 376 512 354 512 C316 512 282 501 255 480 C236 466 220 448 206 428 L218 500 L172 500 L82 0 L131 0 L183 291 C189 325 195 353 210 378 C236 429 282 466 343 466 C357 466 380 463 394 454 L399 456 L421 494 L420 498 Z M76 -50 L71 -54 L21 -203 L23 -207 L50 -207 L55 -203 L124 -54 L122 -50 L76 -50 Z " />
<glyph glyph-name="Rcaron" unicode="&#x158;" horiz-adv-x="596" d="M407 716 L569 806 L570 810 L557 838 L553 838 L408 766 L296 835 L292 835 L271 810 L270 806 L400 716 L407 716 Z M633 497 C633 589 570 650 452 650 L213 650 L96 0 L147 0 L198 283 L389 283 L399 283 L489 0 L538 0 L542 5 L451 288 C568 308 633 386 633 497 L633 497 Z M408 327 L205 327 L255 605 L454 605 C536 605 580 559 580 492 C580 400 514 327 408 327 L408 327 Z " />
<glyph glyph-name="rcaron" unicode="&#x159;" horiz-adv-x="335" d="M442 681 L438 681 L305 608 L201 678 L197 678 L172 655 L171 651 L294 560 L305 560 L458 651 L459 655 L442 681 Z M354 512 C316 512 282 501 255 480 C236 466 220 448 206 428 L218 500 L172 500 L82 0 L131 0 L183 291 C189 325 195 353 210 378 C236 429 282 466 343 466 C357 466 380 463 394 454 L399 456 L421 494 L420 498 C403 508 376 512 354 512 L354 512 Z " />
<glyph glyph-name="Sacute" unicode="&#x15a;" horiz-adv-x="520" d="M476 851 L301 736 L301 732 L316 709 L320 709 L502 810 L503 814 L480 851 L476 851 Z M281 -12 C414 -12 510 58 510 177 C510 288 404 328 317 369 C254 399 204 427 204 486 C204 559 270 615 366 615 C433 615 490 585 521 535 L525 535 L558 564 L559 569 C523 628 453 662 370 662 C240 662 153 587 153 481 C153 391 220 356 281 326 C369 283 459 256 459 170 C459 90 388 35 283 35 C207 35 131 76 95 146 L90 146 L55 118 L54 113 C92 38 182 -12 281 -12 L281 -12 Z " />
<glyph glyph-name="sacute" unicode="&#x15b;" horiz-adv-x="418" d="M393 718 L212 588 L212 584 L230 560 L234 560 L421 679 L422 682 L396 718 L393 718 Z M216 -12 C326 -12 401 48 401 143 C401 227 326 260 256 291 C212 312 177 334 177 375 C177 429 220 469 288 469 C337 469 384 443 406 402 L410 402 L444 425 L445 430 C419 480 360 512 294 512 C197 512 126 456 126 370 C126 308 175 274 227 251 C287 224 350 201 350 138 C350 74 299 32 219 32 C157 32 103 62 83 109 L79 109 L44 85 L43 80 C71 24 135 -12 216 -12 L216 -12 Z " />
<glyph glyph-name="Scedilla" unicode="&#x15e;" horiz-adv-x="520" d="M370 662 C240 662 153 587 153 481 C153 391 220 356 281 326 C369 283 459 256 459 170 C459 90 388 35 283 35 C207 35 131 76 95 146 L90 146 L55 118 L54 113 C88 46 164 -1 250 -10 L217 -80 L231 -89 C277 -80 324 -85 324 -120 C324 -150 299 -169 258 -169 C229 -169 208 -158 192 -144 L187 -144 L164 -171 L163 -176 C185 -195 220 -207 254 -207 C325 -207 372 -173 372 -117 C372 -76 337 -49 281 -50 L296 -12 C421 -6 510 63 510 177 C510 288 404 328 317 369 C254 399 204 427 204 486 C204 559 270 615 366 615 C433 615 490 585 521 535 L525 535 L558 564 L559 569 C523 628 453 662 370 662 L370 662 Z " />
<glyph glyph-name="scedilla" unicode="&#x15f;" horiz-adv-x="418" d="M294 512 C197 512 126 456 126 370 C126 308 175 274 227 251 C287 224 350 201 350 138 C350 74 299 32 219 32 C157 32 103 62 83 109 L79 109 L44 85 L43 80 C68 30 121 -4 190 -11 L157 -80 L171 -89 C217 -80 264 -85 264 -120 C264 -150 239 -169 198 -169 C169 -169 148 -158 132 -144 L127 -144 L104 -171 L103 -176 C125 -195 160 -207 194 -207 C265 -207 312 -173 312 -117 C312 -76 277 -49 221 -50 L236 -11 C335 -4 401 54 401 143 C401 227 326 260 256 291 C212 312 177 334 177 375 C177 429 220 469 288 469 C337 469 384 443 406 402 L410 402 L444 425 L445 430 C419 480 360 512 294 512 L294 512 Z " />
<glyph glyph-name="Scaron" unicode="&#x160;" horiz-adv-x="520" d="M389 716 L551 806 L552 810 L539 838 L535 838 L390 766 L278 835 L274 835 L253 810 L252 806 L382 716 L389 716 Z M370 662 C240 662 153 587 153 481 C153 391 220 356 281 326 C369 283 459 256 459 170 C459 90 388 35 283 35 C207 35 131 76 95 146 L90 146 L55 118 L54 113 C92 38 182 -12 281 -12 C414 -12 510 58 510 177 C510 288 404 328 317 369 C254 399 204 427 204 486 C204 559 270 615 366 615 C433 615 490 585 521 535 L525 535 L558 564 L559 569 C523 628 453 662 370 662 L370 662 Z " />
<glyph glyph-name="scaron" unicode="&#x161;" horiz-adv-x="418" d="M448 681 L444 681 L311 608 L207 678 L203 678 L178 655 L177 651 L300 560 L311 560 L464 651 L465 655 L448 681 Z M294 512 C197 512 126 456 126 370 C126 308 175 274 227 251 C287 224 350 201 350 138 C350 74 299 32 219 32 C157 32 103 62 83 109 L79 109 L44 85 L43 80 C71 24 135 -12 216 -12 C326 -12 401 48 401 143 C401 227 326 260 256 291 C212 312 177 334 177 375 C177 429 220 469 288 469 C337 469 384 443 406 402 L410 402 L444 425 L445 430 C419 480 360 512 294 512 L294 512 Z " />
<glyph glyph-name="uni0162" unicode="&#x162;" horiz-adv-x="514" d="M131 650 L122 605 L339 605 L231 0 L232 0 L194 -80 L208 -89 C254 -80 301 -85 301 -120 C301 -150 276 -169 235 -169 C206 -169 185 -158 169 -144 L164 -144 L141 -171 L140 -176 C162 -195 197 -207 231 -207 C302 -207 349 -173 349 -117 C349 -76 314 -49 258 -50 L278 0 L282 0 L390 605 L610 605 L618 650 L131 650 Z " />
<glyph glyph-name="uni0163" unicode="&#x163;" horiz-adv-x="334" d="M234 457 L393 457 L400 500 L242 500 L270 659 L267 662 L221 658 L193 500 L107 500 L100 457 L185 457 L127 133 C113 52 142 4 205 -8 L171 -80 L185 -89 C231 -80 278 -85 278 -120 C278 -150 253 -169 212 -169 C183 -169 162 -158 146 -144 L141 -144 L118 -171 L117 -176 C139 -195 174 -207 208 -207 C279 -207 326 -173 326 -117 C326 -76 291 -49 235 -50 L250 -12 C279 -10 306 -1 331 17 L333 22 L322 55 L317 57 C299 41 275 33 249 33 C189 33 164 66 176 134 L234 457 Z " />
<glyph glyph-name="Tcaron" unicode="&#x164;" horiz-adv-x="514" d="M379 716 L541 806 L542 810 L529 838 L525 838 L380 766 L268 835 L264 835 L243 810 L242 806 L372 716 L379 716 Z M131 650 L122 605 L339 605 L231 0 L282 0 L390 605 L610 605 L618 650 L131 650 Z " />
<glyph glyph-name="tcaron" unicode="&#x165;" horiz-adv-x="334" d="M340 549 L345 553 L418 723 L416 727 L368 727 L363 723 L310 553 L312 549 L340 549 Z M270 659 L267 662 L221 658 L193 500 L107 500 L100 457 L185 457 L127 133 C110 37 155 -12 243 -12 C275 -12 304 -2 331 17 L333 22 L322 55 L317 57 C299 41 275 33 249 33 C189 33 164 66 176 134 L234 457 L393 457 L400 500 L242 500 L270 659 Z " />
<glyph glyph-name="Tbar" unicode="&#x166;" horiz-adv-x="514" d="M610 605 L618 650 L131 650 L122 605 L339 605 L293 346 L185 346 L178 306 L286 306 L231 0 L282 0 L337 306 L445 306 L452 346 L344 346 L390 605 L610 605 Z " />
<glyph glyph-name="tbar" unicode="&#x167;" horiz-adv-x="334" d="M393 457 L400 500 L242 500 L270 659 L267 662 L221 658 L193 500 L107 500 L100 457 L185 457 L156 293 L69 293 L62 253 L148 253 L127 133 C110 37 155 -12 243 -12 C275 -12 304 -2 331 17 L333 22 L322 55 L317 57 C299 41 275 33 249 33 C189 33 164 66 176 134 L197 253 L329 253 L336 293 L204 293 L234 457 L393 457 Z " />
<glyph glyph-name="Utilde" unicode="&#x168;" horiz-adv-x="695" d="M541 732 C573 732 601 743 617 767 L625 809 L623 812 L615 812 C601 790 576 777 549 777 C505 777 462 813 408 813 C377 813 348 801 332 778 L324 735 L326 732 L334 732 C348 755 372 768 399 768 C454 768 488 732 541 732 L541 732 Z M204 650 L133 254 C104 94 201 -12 358 -12 C514 -12 625 94 654 254 L725 650 L675 650 L604 256 C580 123 489 35 362 35 C234 35 159 123 184 256 L254 650 L204 650 Z " />
<glyph glyph-name="utilde" unicode="&#x169;" horiz-adv-x="565" d="M245 598 C258 619 279 632 309 632 C360 632 401 598 447 598 C481 598 504 611 519 633 L526 674 L524 676 L516 676 C504 656 489 642 453 642 C413 642 363 677 314 677 C286 677 258 663 242 642 L236 601 L238 598 L245 598 Z M524 500 L469 193 C465 170 458 149 448 130 C415 73 357 33 280 33 C188 33 143 96 159 191 L215 500 L165 500 L110 191 C88 68 156 -12 272 -12 C349 -12 408 21 450 72 L437 0 L484 0 L573 500 L524 500 Z " />
<glyph glyph-name="Umacron" unicode="&#x16a;" horiz-adv-x="695" d="M340 776 L332 735 L602 735 L610 776 L340 776 Z M204 650 L133 254 C104 94 201 -12 358 -12 C514 -12 625 94 654 254 L725 650 L675 650 L604 256 C580 123 489 35 362 35 C234 35 159 123 184 256 L254 650 L204 650 Z " />
<glyph glyph-name="umacron" unicode="&#x16b;" horiz-adv-x="565" d="M515 643 L249 643 L241 600 L507 600 L515 643 Z M524 500 L469 193 C465 170 458 149 448 130 C415 73 357 33 280 33 C188 33 143 96 159 191 L215 500 L165 500 L110 191 C88 68 156 -12 272 -12 C349 -12 408 21 450 72 L437 0 L484 0 L573 500 L524 500 Z " />
<glyph glyph-name="Uring" unicode="&#x16e;" horiz-adv-x="695" d="M469 702 C523 702 567 748 567 801 C567 846 531 879 486 879 C433 879 389 834 389 781 C389 736 425 702 469 702 L469 702 Z M472 739 C445 739 427 760 427 784 C427 814 449 843 484 843 C511 843 529 822 529 797 C529 768 507 739 472 739 L472 739 Z M204 650 L133 254 C104 94 201 -12 358 -12 C514 -12 625 94 654 254 L725 650 L675 650 L604 256 C580 123 489 35 362 35 C234 35 159 123 184 256 L254 650 L204 650 Z " />
<glyph glyph-name="uring" unicode="&#x16f;" horiz-adv-x="565" d="M373 552 C426 552 471 598 471 651 C471 696 435 730 390 730 C336 730 292 684 292 631 C292 586 328 552 373 552 L373 552 Z M387 692 C414 692 431 671 431 648 C431 619 409 590 376 590 C349 590 332 611 332 634 C332 664 353 692 387 692 L387 692 Z M524 500 L469 193 C465 170 458 149 448 130 C415 73 357 33 280 33 C188 33 143 96 159 191 L215 500 L165 500 L110 191 C88 68 156 -12 272 -12 C349 -12 408 21 450 72 L437 0 L484 0 L573 500 L524 500 Z " />
<glyph glyph-name="Uhungarumlaut" unicode="&#x170;" horiz-adv-x="695" d="M462 859 L357 711 L359 707 L397 707 L516 854 L514 859 L462 859 Z M589 859 L484 711 L485 707 L523 707 L644 854 L641 859 L589 859 Z M204 650 L133 254 C104 94 201 -12 358 -12 C514 -12 625 94 654 254 L725 650 L675 650 L604 256 C580 123 489 35 362 35 C234 35 159 123 184 256 L254 650 L204 650 Z " />
<glyph glyph-name="uhungarumlaut" unicode="&#x171;" horiz-adv-x="565" d="M293 559 L298 563 L412 716 L409 719 L360 719 L355 716 L262 563 L264 559 L293 559 Z M382 559 L411 559 L415 563 L529 716 L526 719 L477 719 L472 716 L379 563 L382 559 Z M524 500 L469 193 C465 170 458 149 448 130 C415 73 357 33 280 33 C188 33 143 96 159 191 L215 500 L165 500 L110 191 C88 68 156 -12 272 -12 C349 -12 408 21 450 72 L437 0 L484 0 L573 500 L524 500 Z " />
<glyph glyph-name="Uogonek" unicode="&#x172;" horiz-adv-x="695" d="M675 650 L604 256 C580 123 489 35 362 35 C234 35 159 123 184 256 L254 650 L204 650 L133 254 C104 94 201 -12 358 -12 C372 -12 386 -11 399 -9 C378 -32 358 -63 358 -98 C358 -143 393 -172 444 -172 C472 -172 492 -167 517 -154 L519 -149 L510 -124 L507 -123 C492 -129 478 -135 456 -135 C424 -135 403 -117 403 -88 C403 -35 462 0 480 13 C571 53 633 140 654 254 L725 650 L675 650 Z " />
<glyph glyph-name="uogonek" unicode="&#x173;" horiz-adv-x="565" d="M508 -138 C493 -144 479 -150 457 -150 C425 -150 404 -132 404 -103 C404 -46 471 -10 484 0 L573 500 L524 500 L469 193 C465 170 458 149 448 130 C415 73 357 33 280 33 C188 33 143 96 159 191 L215 500 L165 500 L110 191 C88 68 156 -12 272 -12 C349 -12 408 21 450 72 L438 8 C411 -11 359 -56 359 -113 C359 -158 394 -187 445 -187 C473 -187 493 -182 518 -169 L520 -164 L511 -139 L508 -138 Z " />
<glyph glyph-name="Wcircumflex" unicode="&#x174;" horiz-adv-x="918" d="M452 718 L596 790 L709 721 L712 721 L734 747 L734 751 L604 841 L598 841 L435 751 L435 747 L449 718 L452 718 Z M1009 650 L958 650 L667 102 L588 650 L560 650 L287 108 L197 650 L144 650 L140 645 L256 0 L283 0 L557 546 L636 0 L663 0 L1011 645 L1009 650 Z " />
<glyph glyph-name="wcircumflex" unicode="&#x175;" horiz-adv-x="730" d="M337 567 L472 641 L576 570 L580 570 L604 594 L604 598 L483 690 L472 690 L317 598 L317 594 L333 567 L337 567 Z M793 500 L744 500 L537 94 L464 500 L434 500 L222 94 L155 500 L108 500 L105 495 L194 0 L221 0 L434 408 L508 0 L534 0 L795 495 L793 500 Z " />
<glyph glyph-name="Ycircumflex" unicode="&#x176;" horiz-adv-x="605" d="M285 718 L429 790 L542 721 L545 721 L567 747 L567 751 L437 841 L431 841 L268 751 L268 747 L282 718 L285 718 Z M692 645 L690 650 L634 650 L353 294 L199 650 L149 650 L145 645 L322 249 L277 0 L327 0 L372 247 L692 645 Z " />
<glyph glyph-name="ycircumflex" unicode="&#x177;" horiz-adv-x="497" d="M215 567 L350 641 L454 570 L458 570 L482 594 L482 598 L361 690 L350 690 L195 598 L195 594 L211 567 L215 567 Z M563 500 L513 500 L262 83 L159 500 L111 500 L107 495 L226 22 L179 -55 C150 -103 125 -118 96 -118 C80 -118 63 -111 51 -101 L46 -103 L25 -135 L26 -140 C40 -151 65 -160 92 -160 C147 -160 182 -134 227 -61 L566 495 L563 500 Z " />
<glyph glyph-name="Ydieresis" unicode="&#x178;" horiz-adv-x="605" d="M332 728 C361 728 385 753 385 782 C385 805 366 822 343 822 C315 822 290 798 290 768 C290 746 309 728 332 728 L332 728 Z M506 728 C535 728 559 753 559 782 C559 805 539 822 516 822 C488 822 463 798 463 768 C463 746 483 728 506 728 L506 728 Z M692 645 L690 650 L634 650 L353 294 L199 650 L149 650 L145 645 L322 249 L277 0 L327 0 L372 247 L692 645 Z " />
<glyph glyph-name="Zacute" unicode="&#x179;" horiz-adv-x="532" d="M315 709 L497 810 L498 814 L475 851 L471 851 L296 736 L296 732 L311 709 L315 709 Z M607 650 L155 650 L147 606 L526 606 L29 27 L24 0 L510 0 L519 44 L104 44 L602 623 L607 650 Z " />
<glyph glyph-name="zacute" unicode="&#x17a;" horiz-adv-x="449" d="M241 560 L428 679 L429 682 L403 718 L400 718 L219 588 L219 584 L237 560 L241 560 Z M488 500 L124 500 L117 459 L416 459 L34 35 L28 0 L424 0 L431 41 L99 41 L482 465 L488 500 Z " />
<glyph glyph-name="Zdotaccent" unicode="&#x17b;" horiz-adv-x="532" d="M385 727 C414 727 438 752 438 781 C438 804 419 822 396 822 C367 822 343 797 343 768 C343 745 362 727 385 727 L385 727 Z M607 650 L155 650 L147 606 L526 606 L29 27 L24 0 L510 0 L519 44 L104 44 L602 623 L607 650 Z " />
<glyph glyph-name="zdotaccent" unicode="&#x17c;" horiz-adv-x="449" d="M320 589 C348 589 372 613 372 642 C372 665 352 683 330 683 C301 683 278 658 278 629 C278 607 298 589 320 589 L320 589 Z M488 500 L124 500 L117 459 L416 459 L34 35 L28 0 L424 0 L431 41 L99 41 L482 465 L488 500 Z " />
<glyph glyph-name="Zcaron" unicode="&#x17d;" horiz-adv-x="532" d="M384 716 L546 806 L547 810 L534 838 L530 838 L385 766 L273 835 L269 835 L248 810 L247 806 L377 716 L384 716 Z M607 650 L155 650 L147 606 L526 606 L29 27 L24 0 L510 0 L519 44 L104 44 L602 623 L607 650 Z " />
<glyph glyph-name="zcaron" unicode="&#x17e;" horiz-adv-x="449" d="M318 560 L471 651 L472 655 L455 681 L451 681 L318 608 L214 678 L210 678 L185 655 L184 651 L307 560 L318 560 Z M488 500 L124 500 L117 459 L416 459 L34 35 L28 0 L424 0 L431 41 L99 41 L482 465 L488 500 Z " />
<glyph glyph-name="uni01EA" unicode="&#x1ea;" horiz-adv-x="761" d="M467 662 C376 662 290 631 224 575 C145 507 101 407 101 300 C101 120 232 -12 412 -12 C427 -12 443 -11 458 -9 C437 -32 419 -61 419 -95 C419 -140 454 -169 505 -169 C533 -169 553 -164 578 -151 L580 -146 L571 -121 L568 -120 C553 -126 539 -132 517 -132 C485 -132 464 -114 464 -85 C464 -43 500 -13 524 4 C572 19 617 43 655 75 C734 143 778 243 778 350 C778 530 647 662 467 662 L467 662 Z M623 112 C569 63 493 35 414 35 C263 35 152 148 152 302 C152 394 189 480 256 538 C311 587 386 615 465 615 C616 615 728 502 728 348 C728 256 690 170 623 112 L623 112 Z " />
<glyph glyph-name="uni01EB" unicode="&#x1eb;" horiz-adv-x="607" d="M371 512 C301 512 238 489 188 449 C123 396 86 317 86 230 C86 89 188 -12 328 -12 L345 -12 C320 -35 294 -69 294 -110 C294 -155 329 -184 380 -184 C408 -184 428 -179 453 -166 L455 -161 L446 -136 L443 -135 C428 -141 414 -147 392 -147 C360 -147 339 -129 339 -100 C339 -46 400 -10 417 1 C451 12 482 29 510 51 C575 104 613 184 613 270 C613 411 511 512 371 512 L371 512 Z M480 88 C440 54 387 33 329 33 C217 33 136 117 136 233 C136 304 166 368 218 412 C258 446 311 467 369 467 C481 467 562 383 562 267 C562 196 532 132 480 88 L480 88 Z " />
<glyph glyph-name="AEacute" unicode="&#x1fc;" horiz-adv-x="930" d="M718 709 L900 810 L901 814 L878 851 L874 851 L699 736 L699 732 L714 709 L718 709 Z M978 605 L986 650 L552 650 L-9 5 L-7 0 L48 0 L184 156 L484 156 L456 0 L869 0 L877 45 L514 45 L561 306 L850 306 L858 351 L570 351 L615 605 L978 605 Z M492 201 L223 201 L562 590 L492 201 Z " />
<glyph glyph-name="aeacute" unicode="&#x1fd;" horiz-adv-x="945" d="M471 560 L658 679 L659 682 L633 718 L630 718 L449 588 L449 584 L467 560 L471 560 Z M730 512 C662 512 602 489 556 452 C537 436 520 418 505 397 C489 471 430 512 335 512 C253 512 186 476 139 431 L138 426 L161 397 L165 397 C207 437 264 467 332 467 C379 467 418 451 441 423 C462 397 469 360 461 314 L457 289 C455 282 454 276 453 269 C410 293 353 310 290 310 C154 310 61 238 61 130 C61 44 131 -12 234 -12 C328 -12 422 37 467 123 C502 36 583 -12 679 -12 C757 -12 840 18 898 85 L899 90 L873 115 L869 115 C820 60 749 33 684 33 C578 33 494 107 500 234 L930 234 C933 241 935 250 937 261 C962 392 874 512 730 512 L730 512 Z M889 280 L508 280 C518 334 544 381 582 414 C619 447 669 467 727 467 C785 467 831 445 858 410 C886 374 895 331 889 280 L889 280 Z M238 33 C161 33 112 73 112 136 C112 213 185 266 287 266 C351 266 411 241 444 220 L437 181 C420 89 327 33 238 33 L238 33 Z " />
<glyph glyph-name="Oslashacute" unicode="&#x1fe;" horiz-adv-x="761" d="M435 709 L617 810 L618 814 L595 851 L591 851 L416 736 L416 732 L431 709 L435 709 Z M684 579 L786 702 L784 707 L728 707 L647 609 C597 643 536 662 467 662 C376 662 290 631 224 575 C145 507 101 407 101 300 C101 206 137 124 197 68 L103 -45 L105 -50 L161 -50 L235 39 C284 6 345 -12 412 -12 C503 -12 589 19 655 75 C734 143 778 243 778 350 C778 443 743 524 684 579 L684 579 Z M152 302 C152 394 189 480 256 538 C311 587 386 615 465 615 C522 615 573 599 615 571 L230 107 C181 155 152 223 152 302 L152 302 Z M623 112 C569 63 493 35 414 35 C358 35 308 50 267 77 L652 541 C699 493 728 426 728 348 C728 256 690 170 623 112 L623 112 Z " />
<glyph glyph-name="oslashacute" unicode="&#x1ff;" horiz-adv-x="607" d="M328 560 L515 679 L516 682 L490 718 L487 718 L306 588 L306 584 L324 560 L328 560 Z M642 554 L640 559 L589 559 L512 470 C473 497 425 512 371 512 C301 512 238 489 188 449 C123 396 86 317 86 230 C86 160 111 100 154 57 L69 -41 L71 -46 L123 -46 L188 29 C227 3 275 -12 328 -12 C397 -12 460 11 510 51 C575 104 613 184 613 270 C613 340 588 400 546 443 L642 554 Z M136 233 C136 304 166 368 218 412 C258 446 311 467 369 467 C411 467 449 455 480 434 L186 94 C155 129 136 178 136 233 L136 233 Z M562 267 C562 196 532 132 480 88 C440 54 387 33 329 33 C287 33 250 45 219 65 L513 405 C544 370 562 322 562 267 L562 267 Z " />
<glyph glyph-name="Scommaaccent" unicode="&#x218;" horiz-adv-x="520" d="M281 -12 C414 -12 510 58 510 177 C510 288 404 328 317 369 C254 399 204 427 204 486 C204 559 270 615 366 615 C433 615 490 585 521 535 L525 535 L558 564 L559 569 C523 628 453 662 370 662 C240 662 153 587 153 481 C153 391 220 356 281 326 C369 283 459 256 459 170 C459 90 388 35 283 35 C207 35 131 76 95 146 L90 146 L55 118 L54 113 C92 38 182 -12 281 -12 L281 -12 Z M243 -54 L193 -203 L195 -207 L222 -207 L227 -203 L296 -54 L294 -50 L248 -50 L243 -54 Z " />
<glyph glyph-name="scommaaccent" unicode="&#x219;" horiz-adv-x="418" d="M216 -12 C326 -12 401 48 401 143 C401 227 326 260 256 291 C212 312 177 334 177 375 C177 429 220 469 288 469 C337 469 384 443 406 402 L410 402 L444 425 L445 430 C419 480 360 512 294 512 C197 512 126 456 126 370 C126 308 175 274 227 251 C287 224 350 201 350 138 C350 74 299 32 219 32 C157 32 103 62 83 109 L79 109 L44 85 L43 80 C71 24 135 -12 216 -12 L216 -12 Z M183 -54 L133 -203 L135 -207 L162 -207 L167 -203 L236 -54 L234 -50 L188 -50 L183 -54 Z " />
<glyph glyph-name="uni021A" unicode="&#x21a;" horiz-adv-x="514" d="M390 605 L610 605 L618 650 L131 650 L122 605 L339 605 L231 0 L282 0 L390 605 Z M220 -54 L170 -203 L172 -207 L199 -207 L204 -203 L273 -54 L271 -50 L225 -50 L220 -54 Z " />
<glyph glyph-name="uni021B" unicode="&#x21b;" horiz-adv-x="334" d="M234 457 L393 457 L400 500 L242 500 L270 659 L267 662 L221 658 L193 500 L107 500 L100 457 L185 457 L127 133 C110 37 155 -12 243 -12 C275 -12 304 -2 331 17 L333 22 L322 55 L317 57 C299 41 275 33 249 33 C189 33 164 66 176 134 L234 457 Z M202 -50 L197 -54 L147 -203 L149 -207 L176 -207 L181 -203 L250 -54 L248 -50 L202 -50 Z " />
<glyph glyph-name="uni0237" unicode="&#x237;" horiz-adv-x="213" d="M172 500 L82 0 C70 -66 39 -96 -8 -121 L-8 -125 L4 -160 L9 -160 C71 -127 116 -87 132 6 L221 500 L172 500 Z " />
<glyph glyph-name="uni02BC" unicode="&#x2bc;" horiz-adv-x="166" d="M205 715 L151 563 L153 559 L181 559 L185 563 L260 715 L258 719 L210 719 L205 715 Z " />
<glyph glyph-name="circumflex" unicode="&#x2c6;" horiz-adv-x="354" d="M312 690 L301 690 L146 598 L146 594 L162 567 L166 567 L301 641 L405 570 L409 570 L433 594 L433 598 L312 690 Z " />
<glyph glyph-name="caron" unicode="&#x2c7;" horiz-adv-x="359" d="M427 681 L423 681 L290 608 L186 678 L182 678 L157 655 L156 651 L279 560 L290 560 L443 651 L444 655 L427 681 Z " />
<glyph glyph-name="breve" unicode="&#x2d8;" horiz-adv-x="355" d="M285 573 C358 573 416 623 437 697 L394 697 C376 647 335 613 288 613 C242 613 210 647 210 697 L166 697 C163 623 212 573 285 573 L285 573 Z " />
<glyph glyph-name="dotaccent" unicode="&#x2d9;" horiz-adv-x="127" d="M174 589 C202 589 226 613 226 642 C226 665 206 683 184 683 C155 683 132 658 132 629 C132 607 152 589 174 589 L174 589 Z " />
<glyph glyph-name="ring" unicode="&#x2da;" horiz-adv-x="256" d="M235 552 C288 552 333 598 333 651 C333 696 297 730 252 730 C198 730 154 684 154 631 C154 586 190 552 235 552 L235 552 Z M238 590 C211 590 194 611 194 634 C194 664 215 692 249 692 C276 692 293 671 293 648 C293 619 271 590 238 590 L238 590 Z " />
<glyph glyph-name="ogonek" unicode="&#x2db;" horiz-adv-x="243" d="M128 -183 C156 -183 176 -178 201 -165 L203 -160 L194 -135 L191 -134 C176 -140 162 -146 140 -146 C108 -146 87 -128 87 -99 C87 -42 154 -6 167 4 L133 19 C113 8 42 -42 42 -109 C42 -154 77 -183 128 -183 L128 -183 Z " />
<glyph glyph-name="tilde" unicode="&#x2dc;" horiz-adv-x="377" d="M371 598 C405 598 428 611 443 633 L450 674 L448 676 L440 676 C428 656 413 642 377 642 C337 642 287 677 238 677 C210 677 182 663 166 642 L160 601 L162 598 L169 598 C182 619 203 632 233 632 C284 632 325 598 371 598 L371 598 Z " />
<glyph glyph-name="hungarumlaut" unicode="&#x2dd;" horiz-adv-x="353" d="M222 716 L129 563 L131 559 L160 559 L165 563 L279 716 L276 719 L227 719 L222 716 Z M339 716 L246 563 L249 559 L278 559 L282 563 L396 716 L393 719 L344 719 L339 716 Z " />
<glyph glyph-name="uni0326" unicode="&#x326;" d="M-120 -54 L-170 -203 L-168 -207 L-141 -207 L-136 -203 L-67 -54 L-69 -50 L-115 -50 L-120 -54 Z " />
<glyph glyph-name="Wgrave" unicode="&#x1e80;" horiz-adv-x="918" d="M673 709 L689 732 L688 736 L513 851 L510 851 L487 814 L487 810 L669 709 L673 709 Z M1009 650 L958 650 L667 102 L588 650 L560 650 L287 108 L197 650 L144 650 L140 645 L256 0 L283 0 L557 546 L636 0 L663 0 L1011 645 L1009 650 Z " />
<glyph glyph-name="wgrave" unicode="&#x1e81;" horiz-adv-x="730" d="M549 560 L553 560 L571 584 L571 588 L390 718 L387 718 L361 682 L362 679 L549 560 Z M793 500 L744 500 L537 94 L464 500 L434 500 L222 94 L155 500 L108 500 L105 495 L194 0 L221 0 L434 408 L508 0 L534 0 L795 495 L793 500 Z " />
<glyph glyph-name="Wacute" unicode="&#x1e82;" horiz-adv-x="918" d="M515 709 L697 810 L698 814 L675 851 L671 851 L496 736 L496 732 L511 709 L515 709 Z M1009 650 L958 650 L667 102 L588 650 L560 650 L287 108 L197 650 L144 650 L140 645 L256 0 L283 0 L557 546 L636 0 L663 0 L1011 645 L1009 650 Z " />
<glyph glyph-name="wacute" unicode="&#x1e83;" horiz-adv-x="730" d="M384 560 L571 679 L572 682 L546 718 L543 718 L362 588 L362 584 L380 560 L384 560 Z M793 500 L744 500 L537 94 L464 500 L434 500 L222 94 L155 500 L108 500 L105 495 L194 0 L221 0 L434 408 L508 0 L534 0 L795 495 L793 500 Z " />
<glyph glyph-name="Wdieresis" unicode="&#x1e84;" horiz-adv-x="918" d="M499 728 C528 728 552 753 552 782 C552 805 533 822 510 822 C482 822 457 798 457 768 C457 746 476 728 499 728 L499 728 Z M673 728 C702 728 726 753 726 782 C726 805 706 822 683 822 C655 822 630 798 630 768 C630 746 650 728 673 728 L673 728 Z M1009 650 L958 650 L667 102 L588 650 L560 650 L287 108 L197 650 L144 650 L140 645 L256 0 L283 0 L557 546 L636 0 L663 0 L1011 645 L1009 650 Z " />
<glyph glyph-name="wdieresis" unicode="&#x1e85;" horiz-adv-x="730" d="M386 589 C415 589 439 613 439 643 C439 665 419 683 397 683 C368 683 344 658 344 629 C344 606 363 589 386 589 L386 589 Z M539 589 C567 589 591 613 591 643 C591 665 572 683 549 683 C521 683 497 658 497 629 C497 606 516 589 539 589 L539 589 Z M793 500 L744 500 L537 94 L464 500 L434 500 L222 94 L155 500 L108 500 L105 495 L194 0 L221 0 L434 408 L508 0 L534 0 L795 495 L793 500 Z " />
<glyph glyph-name="uni1E9E" unicode="&#x1e9e;" horiz-adv-x="630" d="M452 383 L633 561 C601 626 515 662 434 662 C287 662 190 557 163 407 L89 0 L140 0 L212 403 C235 527 310 615 429 615 C481 615 535 599 567 563 L386 384 L379 338 L421 338 C519 338 571 282 571 208 C571 105 497 35 386 35 C336 35 287 49 257 74 L251 72 L225 39 L226 35 C263 6 324 -12 384 -12 C527 -12 623 78 623 210 C623 309 556 377 452 383 L452 383 Z " />
<glyph glyph-name="Ygrave" unicode="&#x1ef2;" horiz-adv-x="605" d="M506 709 L522 732 L521 736 L346 851 L343 851 L320 814 L320 810 L502 709 L506 709 Z M692 645 L690 650 L634 650 L353 294 L199 650 L149 650 L145 645 L322 249 L277 0 L327 0 L372 247 L692 645 Z " />
<glyph glyph-name="ygrave" unicode="&#x1ef3;" horiz-adv-x="497" d="M427 560 L431 560 L449 584 L449 588 L268 718 L265 718 L239 682 L240 679 L427 560 Z M563 500 L513 500 L262 83 L159 500 L111 500 L107 495 L226 22 L179 -55 C150 -103 125 -118 96 -118 C80 -118 63 -111 51 -101 L46 -103 L25 -135 L26 -140 C40 -151 65 -160 92 -160 C147 -160 182 -134 227 -61 L566 495 L563 500 Z " />
<glyph glyph-name="uni1EF8" unicode="&#x1ef8;" horiz-adv-x="605" d="M283 732 C297 755 321 768 348 768 C403 768 437 732 490 732 C522 732 550 743 566 767 L574 809 L572 812 L564 812 C550 790 525 777 498 777 C454 777 411 813 357 813 C326 813 297 801 281 778 L273 735 L275 732 L283 732 Z M692 645 L690 650 L634 650 L353 294 L199 650 L149 650 L145 645 L322 249 L277 0 L327 0 L372 247 L692 645 Z " />
<glyph glyph-name="uni1EF9" unicode="&#x1ef9;" horiz-adv-x="497" d="M210 598 C223 619 244 632 274 632 C325 632 366 598 412 598 C446 598 469 611 484 633 L491 674 L489 676 L481 676 C469 656 454 642 418 642 C378 642 328 677 279 677 C251 677 223 663 207 642 L201 601 L203 598 L210 598 Z M563 500 L513 500 L262 83 L159 500 L111 500 L107 495 L226 22 L179 -55 C150 -103 125 -118 96 -118 C80 -118 63 -111 51 -101 L46 -103 L25 -135 L26 -140 C40 -151 65 -160 92 -160 C147 -160 182 -134 227 -61 L566 495 L563 500 Z " />
<glyph glyph-name="endash" unicode="&#x2013;" horiz-adv-x="555" d="M124 321 L117 279 L538 279 L545 321 L124 321 Z " />
<glyph glyph-name="emdash" unicode="&#x2014;" horiz-adv-x="700" d="M124 321 L117 279 L684 279 L691 321 L124 321 Z " />
<glyph glyph-name="quoteleft" unicode="&#x2018;" horiz-adv-x="198" d="M182 469 C212 469 235 493 235 519 C235 544 218 562 200 562 C215 594 231 617 263 654 L263 659 L247 673 L243 673 C158 583 139 554 139 514 C139 488 158 469 182 469 L182 469 Z " />
<glyph glyph-name="quoteright" unicode="&#x2019;" horiz-adv-x="197" d="M162 475 L167 475 C251 565 270 594 270 634 C270 660 252 679 228 679 C197 679 175 655 175 628 C175 604 191 585 210 585 C195 554 179 531 147 493 L147 489 L162 475 Z " />
<glyph glyph-name="quotesinglbase" unicode="&#x201a;" horiz-adv-x="199" d="M45 -122 L50 -122 C134 -33 153 -3 153 36 C153 62 135 82 111 82 C80 82 58 58 58 31 C58 7 74 -12 93 -12 C78 -43 62 -66 30 -104 L30 -108 L45 -122 Z " />
<glyph glyph-name="quotedblleft" unicode="&#x201c;" horiz-adv-x="332" d="M182 471 C212 471 235 495 235 522 C235 546 218 565 199 565 C215 596 231 619 263 656 L263 661 L247 675 L242 675 C158 585 139 556 139 516 C139 490 157 471 182 471 L182 471 Z M315 471 C346 471 368 495 368 522 C368 546 352 565 333 565 C348 596 364 619 396 656 L396 661 L381 675 L376 675 C292 585 273 556 273 516 C273 490 291 471 315 471 L315 471 Z " />
<glyph glyph-name="quotedblright" unicode="&#x201d;" horiz-adv-x="330" d="M162 475 L167 475 C251 565 270 594 270 634 C270 660 252 679 228 679 C197 679 175 655 175 628 C175 604 191 585 210 585 C195 554 179 531 147 493 L147 489 L162 475 Z M296 475 L301 475 C385 565 404 594 404 634 C404 660 386 679 361 679 C331 679 308 655 308 628 C308 604 325 585 344 585 C328 554 312 531 280 493 L280 489 L296 475 Z " />
<glyph glyph-name="quotedblbase" unicode="&#x201e;" horiz-adv-x="333" d="M43 -122 L48 -122 C132 -33 151 -3 151 36 C151 62 133 82 109 82 C78 82 56 58 56 31 C56 7 72 -12 91 -12 C76 -43 60 -66 28 -104 L28 -108 L43 -122 Z M177 -122 L182 -122 C266 -33 285 -3 285 36 C285 62 267 82 242 82 C212 82 189 58 189 31 C189 7 206 -12 225 -12 C209 -43 193 -66 161 -104 L161 -108 L177 -122 Z " />
<glyph glyph-name="dagger" unicode="&#x2020;" horiz-adv-x="462" d="M489 444 L336 444 L375 660 L324 660 L285 444 L132 444 L124 401 L277 401 L177 -156 L228 -156 L328 401 L482 401 L489 444 Z " />
<glyph glyph-name="daggerdbl" unicode="&#x2021;" horiz-adv-x="462" d="M482 401 L489 444 L336 444 L375 660 L324 660 L285 444 L132 444 L124 401 L277 401 L224 103 L71 103 L63 60 L216 60 L177 -156 L228 -156 L267 60 L421 60 L428 103 L275 103 L328 401 L482 401 Z " />
<glyph glyph-name="bullet" unicode="&#x2022;" horiz-adv-x="342" d="M213 201 C265 201 312 244 313 297 C315 344 280 381 233 381 C182 381 135 337 133 284 C132 237 166 201 213 201 L213 201 Z " />
<glyph glyph-name="ellipsis" unicode="&#x2026;" horiz-adv-x="507" d="M102 -12 C129 -12 153 12 153 40 C153 64 136 82 111 82 C84 82 60 58 60 30 C60 7 77 -12 102 -12 L102 -12 Z M256 -12 C283 -12 307 12 307 40 C307 64 290 82 265 82 C238 82 213 58 213 30 C213 7 231 -12 256 -12 L256 -12 Z M408 -12 C435 -12 460 12 460 40 C460 64 442 82 418 82 C390 82 366 58 366 30 C366 7 383 -12 408 -12 L408 -12 Z " />
<glyph glyph-name="perthousand" unicode="&#x2030;" horiz-adv-x="1082" d="M243 287 C343 287 403 394 403 509 C403 603 357 662 284 662 C184 662 123 554 123 440 C123 347 170 287 243 287 L243 287 Z M98 5 L99 0 L152 0 L756 645 L755 650 L702 650 L98 5 Z M246 329 C195 329 167 374 167 443 C168 539 213 620 280 620 C331 620 359 576 359 506 C359 410 313 329 246 329 L246 329 Z M576 -12 C676 -12 736 96 736 210 C736 304 690 363 617 363 C517 363 456 255 456 141 C456 48 503 -12 576 -12 L576 -12 Z M907 -12 C1006 -12 1066 96 1067 210 C1067 304 1020 363 948 363 C848 363 787 255 787 141 C787 48 833 -12 907 -12 L907 -12 Z M579 30 C528 30 500 75 500 145 C500 240 546 321 613 321 C664 321 691 277 691 207 C691 112 646 30 579 30 L579 30 Z M910 30 C858 30 831 75 831 145 C831 240 877 321 943 321 C995 321 1022 277 1022 207 C1022 112 977 30 910 30 L910 30 Z " />
<glyph glyph-name="guilsinglleft" unicode="&#x2039;" horiz-adv-x="278" d="M297 443 L275 472 L271 472 L99 306 L96 294 L209 128 L213 128 L243 153 L243 156 L150 296 L297 440 L297 443 Z " />
<glyph glyph-name="guilsinglright" unicode="&#x203a;" horiz-adv-x="278" d="M178 472 L173 472 L144 447 L144 444 L236 304 L88 159 L88 156 L112 128 L116 128 L287 294 L290 306 L178 472 Z " />
<glyph glyph-name="fraction" unicode="&#x2044;" horiz-adv-x="500" d="M-20 5 L-19 0 L34 0 L638 645 L637 650 L584 650 L-20 5 Z " />
<glyph glyph-name="Euro" unicode="&#x20ac;" horiz-adv-x="703" d="M496 662 C344 662 218 554 171 409 L125 409 L104 372 L106 367 L160 367 C155 340 152 313 152 285 L152 269 L94 269 L73 232 L75 227 L157 227 C179 86 284 -12 426 -12 C527 -12 619 37 682 114 L683 118 L653 145 L648 145 C595 77 516 35 431 35 C317 35 230 113 207 227 L514 227 L535 264 L533 269 L202 269 C201 276 201 282 201 289 C201 316 204 342 210 367 L546 367 L566 404 L564 409 L222 409 C264 526 366 615 491 615 C576 615 646 573 685 505 L689 505 L725 532 L726 536 C678 613 596 662 496 662 L496 662 Z " />
<glyph glyph-name="trademark" unicode="&#x2122;" horiz-adv-x="695" d="M390 650 L148 650 L142 615 L240 615 L187 324 L231 324 L283 615 L383 615 L390 650 Z M678 650 L522 385 L464 650 L431 650 L337 324 L379 324 L444 554 L494 324 L531 324 L661 548 L644 324 L686 324 L710 650 L678 650 Z " />
<glyph glyph-name="minus" unicode="&#x2212;" horiz-adv-x="591" d="M132 347 L125 303 L576 303 L584 347 L132 347 Z " />
<glyph glyph-name="approxequal" unicode="&#x2248;" horiz-adv-x="567" d="M460 360 C520 360 548 383 570 403 L571 407 L552 440 L548 440 C532 420 504 405 468 405 C397 405 332 440 253 440 C197 440 162 417 142 396 L141 393 L160 360 L164 360 C180 380 217 395 245 395 C323 395 381 360 460 360 L460 360 Z M433 210 C492 210 522 233 543 254 L543 257 L525 290 L521 290 C505 270 477 255 441 255 C370 255 305 290 226 290 C169 290 136 267 115 247 L114 243 L133 210 L136 210 C153 230 190 245 218 245 C296 245 353 210 433 210 L433 210 Z " />
<glyph glyph-name="notequal" unicode="&#x2260;" horiz-adv-x="590" d="M592 385 L600 427 L461 427 L557 552 L557 557 L510 557 L410 427 L149 427 L141 385 L378 385 L286 266 L119 266 L112 224 L254 224 L159 100 L160 94 L207 94 L306 224 L564 224 L571 266 L338 266 L429 385 L592 385 Z " />
<glyph glyph-name="uniF8FF" unicode="&#xf8ff;" horiz-adv-x="1347" d="M701 573 C736 573 760 599 760 634 C760 666 736 693 701 693 C666 693 642 666 642 634 C642 599 666 573 701 573 L701 573 Z M62 327 L178 327 C178 412 176 488 173 544 C171 576 169 606 168 634 L73 634 L67 545 C63 489 62 414 62 327 L62 327 Z M458 554 L458 471 L481 471 C481 465 479 410 479 385 C479 344 501 321 557 321 C584 321 600 325 609 329 C614 332 618 335 619 338 L619 410 L615 408 C611 407 607 406 602 406 C597 406 594 406 593 407 C592 407 591 407 591 408 L589 471 L646 471 C643 436 644 390 644 327 L758 327 C758 412 757 470 754 507 C753 529 751 547 750 560 L578 560 L574 590 L458 554 Z M360 385 L369 327 L445 327 L445 452 C445 524 409 564 329 564 C233 564 197 517 197 433 C197 357 230 321 286 321 C333 321 352 344 360 385 L360 385 Z M781 327 L894 327 C894 372 889 394 889 421 C889 440 895 446 906 446 C917 446 921 440 921 421 C921 394 919 372 919 327 L1031 327 L1029 463 C1028 535 1008 564 955 564 C886 564 877 491 874 486 C874 502 872 520 871 535 L868 560 L792 560 C790 547 788 530 786 508 C783 471 781 414 781 327 L781 327 Z M1046 440 C1046 369 1083 321 1166 321 C1250 321 1287 369 1287 440 C1287 507 1266 564 1166 564 C1073 564 1046 507 1046 440 L1046 440 Z M324 399 C312 399 303 410 303 429 C303 448 312 456 324 456 C340 456 348 447 348 429 C348 409 340 399 324 399 L324 399 Z M1166 399 C1151 399 1143 409 1143 429 C1143 447 1151 456 1166 456 C1182 456 1190 447 1190 429 C1190 409 1182 399 1166 399 L1166 399 Z M60 277 L60 194 L87 194 C87 189 85 137 85 112 C85 72 107 48 158 48 C182 48 199 52 210 56 C217 59 222 62 225 65 L225 139 L218 136 C213 134 206 133 197 133 L195 194 L240 194 L240 186 C240 130 276 112 333 112 C356 112 370 115 379 119 C384 122 387 124 390 127 C389 120 385 114 379 109 C368 100 351 91 318 91 C294 91 276 95 264 100 C257 103 251 106 246 110 L246 27 C251 22 257 19 266 16 C281 11 304 6 339 6 C443 6 489 47 489 143 C489 186 488 223 486 248 L483 288 L377 288 C377 269 377 251 378 236 C378 209 379 185 379 182 C379 165 374 156 364 156 C353 156 348 165 348 182 C348 185 348 209 349 236 C349 251 349 269 350 288 L185 288 L181 317 L60 277 Z M508 6 L635 6 C635 19 634 30 634 37 C633 41 633 45 633 48 C714 48 760 95 760 184 C760 256 729 296 682 296 C623 296 609 242 604 213 C604 225 603 243 600 259 L597 288 L519 288 L513 211 C509 162 508 91 508 6 L508 6 Z M982 64 L982 137 C979 134 975 132 970 129 C961 124 948 122 931 122 C910 122 900 127 893 134 C890 137 888 141 887 146 L1007 146 L1009 156 C1010 163 1012 171 1012 182 C1012 254 969 296 900 296 C818 296 777 254 777 169 C777 97 817 48 910 48 C935 48 953 52 965 56 C972 59 978 61 982 64 L982 64 Z M1035 253 C1035 233 1052 216 1072 216 C1092 216 1109 233 1109 253 C1109 273 1092 290 1072 290 C1052 290 1035 273 1035 253 L1035 253 Z M1072 223 C1056 223 1042 237 1042 253 C1042 269 1056 283 1072 283 C1088 283 1102 269 1102 253 C1102 237 1088 223 1072 223 L1072 223 Z M1058 272 L1058 235 L1066 235 L1066 246 L1073 246 L1080 235 L1089 235 L1081 248 C1086 250 1089 254 1089 260 C1089 268 1084 272 1074 272 L1058 272 Z M1074 253 L1066 253 L1066 265 L1074 265 C1079 265 1081 263 1081 259 C1081 255 1079 253 1074 253 L1074 253 Z M920 171 L881 171 C881 189 888 198 903 198 C915 198 921 192 921 179 C921 176 920 174 920 173 L920 171 Z M618 129 L616 137 C615 142 614 148 614 156 C614 176 622 186 637 186 C650 186 656 179 656 165 C656 148 646 139 637 134 C631 131 625 130 618 129 L618 129 Z " />
<glyph glyph-name="fi" unicode="&#xfb01;" horiz-adv-x="498" d="M503 500 L249 500 L253 520 C267 599 298 648 370 648 C385 648 404 644 417 638 L422 640 L443 672 L443 677 C425 687 402 692 376 692 C278 692 223 628 204 520 L200 500 L115 500 L108 457 L193 457 L111 0 L160 0 L242 457 L446 457 L365 0 L414 0 L503 500 Z M507 673 C478 673 454 648 454 619 C454 597 473 579 496 579 C525 579 549 603 549 633 C549 655 529 673 507 673 L507 673 Z " />
<glyph glyph-name="fl" unicode="&#xfb02;" horiz-adv-x="508" d="M541 685 L496 680 L491 652 C467 678 431 692 391 692 C297 692 223 628 205 525 L201 500 L115 500 L108 458 L193 458 L111 0 L160 0 L243 458 L397 458 L404 500 L250 500 L255 525 C268 601 321 648 384 648 C432 648 467 629 481 596 L374 0 L423 0 L545 682 L541 685 Z " />
</font>
</svg>
